<svg xmlns="http://www.w3.org/2000/svg" width="285" height="488" fill="none" xmlns:v="https://vecta.io/nano"><style><![CDATA[.B{stroke-width:1.5}.C{stroke-linecap:round}.D{stroke-linejoin:round}.E{stroke:#1e212c}.F{fill:#e5e8ed}]]></style><g clip-path="url(#A)"><g fill="#b3b7bc"><path d="M5.783 77.52H76.4l-5.783-12.984H0L5.783 77.52zm208.6 27.187H285l-5.783-12.984H208.6l5.783 12.984z"/></g><path d="M149.297 145.564l32.47 32.314s57.476 189.15 48.345 282.265l13.365 12.237L177.734 488l-43.247-225.584 14.8-116.85z" fill="#00f0b5"/><path d="M169.238 383.12c.018 13.613-1.24 27.198-3.758 40.576L136.633 273.23c20.022 27.1 32.605 66.294 32.605 109.892z" fill="#1e212c"/><path d="M166.113 176.385l-84.24-4.882V488h66.205l-7-12.54 25.034-299.074z" fill="#00f0b5"/><path d="M169.164 26.715v11.25c0 8.698-5.94 16.272-14.387 18.348l-17.905 4.4V16.73l14.888-3.658a14.05 14.05 0 0 1 12.022 2.586c3.398 2.663 5.382 6.74 5.382 11.055h0z" class="F"/><path d="M169.164 37.964c0 8.698-5.94 16.272-14.387 18.348l-17.905 4.4" class="B C D E"/><g fill="#1e212c"><path d="M150.922 35.732c-.477 0-.864-.387-.864-.863s.387-.863.864-.863.863.386.863.863-.386.863-.863.863zm13.26 0c-.476 0-.863-.387-.863-.863s.387-.863.863-.863.864.386.864.863-.387.863-.864.863z"/></g><g class="B C D E"><path d="M160.295 40.018V26.715h6.666m-17.666 0h6.666"/></g><path d="M139 33.53v4.62c-2.492 0-4.513-2.02-4.513-4.512l.018-.41c.253-2.802 4.495-2.5 4.495.303z" class="F"/><g class="B C D E"><path d="M139 38.15c-2.492 0-4.513-2.02-4.513-4.512m22.16 7.935a2.99 2.99 0 0 1-4.226 0m7.87-1.543l-2.915.716m12.47-15.668s-8.22 5.275-23.945-5.883c0 0 .406 12.114-6.3 14.172m29.56-4.434s4.844-2.536 4.945-8.115c0 0-14.102-23.635-33.075-10.854 0 0-10.755 2.637-11.567 15.723s7.406 19.983 7.406 19.983"/></g><path d="M135.86 9.254c-.405 0-4.78 2.03-6.448 6.29" stroke="#00f0b5" class="B C D"/><path d="M132.633 7.428s-5.096-11.767-15.75-5.68-9.334 23.33-9.334 23.33l15.625 3.55s.092-17.864 5.377-15.968" class="B C D E"/><path d="M181.766 107.38v70.5l-99.893 24.546V123.9c0-27.84 19.01-52.085 46.053-58.73h0a43.47 43.47 0 0 1 37.191 8.001c10.5 8.237 16.65 20.848 16.65 34.2h0z" class="F"/><g class="B C D E"><path d="M141.08 475.46l25.034-299.074M104.592 76.67s-29.736 17.422-49.216 55.157c0 0 10.777-40.916 3.878-52.277s-7.7-2.88-7.7-2.88S35.31 64.537 32.47 70.623s7.7 16.23 7.7 16.23-35.6 58.3-6.9 80.2c35.308 26.92 74.22-29.075 74.22-29.075m60.495-62.33s20.72 27 33.503 69.918c0 0 24.96-44.713 37.743-45.322s4.233 5.478 4.233 5.478 19.508-9.13 23.16-1.826-23.16 17.75-23.16 17.75-1.2 51.634-20.67 68.676c-14.995 13.118-28.543 9.14-39.54-3.047"/></g></g><defs><clipPath id="A"><path fill="#fff" d="M0 0h285v488H0z"/></clipPath></defs></svg>