<svg xmlns="http://www.w3.org/2000/svg" width="285" height="488" fill="none" xmlns:v="https://vecta.io/nano"><g clip-path="url(#A)"><g fill="#9a9ca5"><path d="M62.32 38.26c-1.14.87-1.294 1.78-1.317 2.034l-.505.313.65-1.305a19.56 19.56 0 0 0 .848-2.331c.03-.083.05-.174.072-.266a6.48 6.48 0 0 1 .824-1.837c.023-.034.046-.075.077-.1 3.206-1.934 1.583-5.612 1.583-5.612.076.82-.675 1.47-1.43 3-.633 1.296-.378 2.183-.3 2.42l-.436.697.12-.728a18.23 18.23 0 0 0 .2-2.465l.006-.313v-.312l-.02-.616-.045-.615-.027-.3-.035-.303a2.19 2.19 0 0 1 .012-.609L62.8 27.8c2.284-3.004-.55-5.8-.55-5.8.363.736-.098 1.623-.25 3.33-.13 1.443.436 2.173.604 2.364l-.17.886-.03-.188c-.03-.204-.086-.4-.125-.604l-.067-.302-.075-.302-.354-1.18-.1-.293-.045-.146-.053-.146-.22-.576-.444-.988c-.277-.583-.46-1.2-.514-1.857l-.047-.442c1.16-3.616-2.427-5.287-2.427-5.287.583.564.44 1.564.858 3.22.362 1.4 1.128 1.902 1.342 2.02l.168 1.17c-.008-.008-.01-.016-.017-.032l-.154-.266-.162-.258-.332-.515-.533-.747-.185-.24-.605-.744-1.05-1.24c-.167-.175-.3-.368-.414-.578-1.57-3.096-5.13-2.088-5.13-2.088.807.022 1.35.875 2.745 1.823 1.097.752 1.95.674 2.26.606.04.015.08.022.122.037l.425.42c.56.58 1.088 1.188 1.56 1.847l.177.24.17.25.34.507.145.234a10.43 10.43 0 0 0-1.098-.777C56.524 17.97 53 19.792 53 19.792c.802-.117 1.472.625 3.002 1.32 1.3.6 2.153.3 2.384.2a13.37 13.37 0 0 1 1.21.749c.157.1.3.253.385.423l.146.266c.394.702.718 1.448 1.017 2.202l.205.57.053.146.136.44c.126.382.22.782.314 1.174.028.098.047.196.066.294v.008a9.34 9.34 0 0 0-.792-1.01c-1.042-3.657-4.927-2.966-4.927-2.966.794.13 1.228 1.044 2.5 2.16 1.072.96 1.98.92 2.222.895l.703.782c.243.288.417.644.462 1.03l.085.606.02.147.013.148.053.607.018.304.03.608.004.608a3.92 3.92 0 0 1-.006.304l-.014.305-.093 1.302c-.093-.36-.2-.7-.325-1.025.307-3.793-3.57-4.566-3.57-4.566.7.412.8 1.42 1.574 2.923.672 1.285 1.528 1.585 1.772 1.642l.255.633a2.69 2.69 0 0 1 .138 1.467v.008c-.142.794-.326 1.573-.574 2.338a19.65 19.65 0 0 1-.875 2.233l-.318.62a11.39 11.39 0 0 0 .079-1.236c1.642-3.4-1.68-5.584-1.68-5.584.505.64.224 1.612.4 3.308.16 1.442.85 2.043 1.057 2.193l.005.164c.023.92-.22 1.833-.718 2.598l-.008.008c-.428.672-.915 1.297-1.435 1.9l-.396.44-.413.425.314-.718c2.817-2.496.57-5.808.57-5.808.22.8-.406 1.576-.875 3.212-.396 1.395.01 2.22.147 2.437l-.222.575c-.17.425-.44.804-.785 1.095-.603.522-1.223 1.012-1.877 1.437l-1.177.706.45-.55c2.725-1.4 1.605-4.494 1.605-4.494.015.674-.637 1.164-1.33 2.372-.594 1.023-.432 1.766-.37 1.96l-.246.346a2.6 2.6 0 0 1-.972.814 20.29 20.29 0 0 1-2.18.855h-.008a.49.49 0 0 0-.339.472c.004.37.342.6.653.48a20.52 20.52 0 0 0 2.272-.956 17.79 17.79 0 0 0 2.117-1.264 15.51 15.51 0 0 0 1.187-.895c.517-.43 1.145-.697 1.8-.776 3.523 1.246 5.214-2.388 5.214-2.388-.56.586-1.54.422-3.163.822-1.383.343-1.88 1.116-1.993 1.342l-.874.12.63-.63.412-.458.403-.474c.518-.642 1-1.3 1.44-2.014.008-.017.015-.025.023-.042.214-.344.503-.626.85-.826l.166-.096c3.722-.265 3.876-4.292 3.876-4.292-.265.75-1.232.987-2.567 2zm-59.606-.22c1.2.872 1.375 1.782 1.4 2.038l.536.314-.7-1.307a18.88 18.88 0 0 1-.903-2.334 2.58 2.58 0 0 1-.076-.266 6.34 6.34 0 0 0-.877-1.84c-.024-.034-.05-.076-.082-.1-3.402-1.94-1.7-5.618-1.7-5.618-.08.82.72 1.472 1.52 3.005.674 1.298.404 2.185.3 2.42l.463.698-.13-.728c-.135-.82-.2-1.644-.215-2.467l-.006-.313c-.005-.107-.002-.206.002-.312l.02-.616.046-.615.028-.312.036-.303a2.07 2.07 0 0 0-.014-.609l-.208-1.183c-2.426-3 .572-5.813.572-5.813-.384.736.107 1.624.272 3.333.14 1.444-.458 2.173-.635 2.364l.184.886.032-.188c.033-.204.1-.4.13-.604l.07-.302a3.89 3.89 0 0 1 .079-.302l.373-1.18.104-.293.048-.146.056-.146.233-.576.47-.988a5.12 5.12 0 0 0 .541-1.857l.05-.442c-1.236-3.604 2.56-5.277 2.56-5.277-.617.563-.463 1.564-.903 3.22-.38 1.4-1.192 1.9-1.418 2.017l-.176 1.17c.01-.008.01-.016.018-.032l.163-.266.17-.258.35-.515.563-.746.196-.24.64-.743 1.1-1.238c.177-.175.328-.367.438-.578 1.66-3.1 5.434-2.087 5.434-2.087-.855.02-1.43.873-2.906 1.82-1.16.75-2.064.67-2.395.602-.043.015-.086.022-.13.037l-.45.42a17.11 17.11 0 0 0-1.651 1.845l-.187.24-.18.25-.36.506-.153.233c.386-.3.78-.55 1.162-.775 2.158-3.185 5.896-1.355 5.896-1.355-.85-.12-1.558.622-3.18 1.316-1.378.587-2.282.285-2.526.186a14.27 14.27 0 0 0-1.281.746c-.166.1-.316.253-.407.422l-.154.266c-.417.702-.758 1.447-1.074 2.2l-.216.57-.056.146-.143.44c-.132.382-.23.782-.33 1.173-.03.098-.05.196-.07.294v.008c.27-.37.545-.706.837-1.008C5.03 22.69 9.15 23.39 9.15 23.39c-.84.128-1.3 1.042-2.635 2.157-1.134.957-2.098.916-2.353.9l-.744.78c-.257.287-.44.643-.487 1.028l-.112.753-.014.148-.055.607c-.012.098-.015.205-.02.304l-.03.608-.004.6c-.003.1.002.197.007.305l.015.305.1 1.303c.098-.36.22-.7.342-1.025-.333-3.795 3.776-4.56 3.776-4.56-.74.4-.834 1.42-1.662 2.922-.726 1.267-1.633 1.565-1.9 1.622l-.27.633c-.186.463-.247.98-.144 1.468v.008a16.88 16.88 0 0 0 .613 2.341 19.12 19.12 0 0 0 .932 2.236l.338.62a10.58 10.58 0 0 1-.086-1.237C3.02 34.8 6.537 32.63 6.537 32.63c-.534.64-.234 1.613-.428 3.3-.168 1.442-.898 2.043-1.116 2.192l-.006.164a4.38 4.38 0 0 0 .766 2.6l.008.008c.456.674.972 1.3 1.524 1.903l.42.442.438.426-.334-.72c-3-2.503-.615-5.812-.615-5.812-.232.8.433 1.578.933 3.215.423 1.396-.007 2.22-.15 2.438l.237.576a2.83 2.83 0 0 0 .834 1.098c.64.523 1.298 1.015 1.993 1.44l1.25.7-.477-.55c-2.9-1.406-1.7-4.5-1.7-4.5-.014.674.678 1.166 1.414 2.376.632 1.025.46 1.768.395 1.963l.262.346a2.75 2.75 0 0 0 1.03.816c.758.33 1.534.62 2.3.86h.01c.2.065.367.26.36.473-.004.37-.362.588-.7.478a21.56 21.56 0 0 1-2.4-.962 19.31 19.31 0 0 1-2.246-1.269 16.55 16.55 0 0 1-1.26-.898c-.55-.43-1.215-.7-1.92-.78-3.732 1.24-5.53-2.4-5.53-2.4.595.588 1.634.425 3.354.83 1.466.346 1.995 1.12 2.115 1.347l.927.122-.67-.63-.437-.46-.428-.475c-.55-.644-1.075-1.3-1.53-2.018-.008-.017-.016-.025-.024-.042-.227-.345-.534-.627-.903-.828l-.176-.096C.132 40.05-.04 36.022-.04 36.022c.3.767 1.324 1.007 2.74 2.034z"/></g><path d="M31.12 19.83a3 3 0 0 1 3.644-.002l3.205 2.448a3 3 0 0 0 .67.386l3.724 1.546a3 3 0 0 1 1.825 3.156l-.517 3.997a3 3 0 0 0 0 .774l.522 3.997a3 3 0 0 1-1.821 3.158l-3.722 1.55a3 3 0 0 0-.67.387l-3.202 2.45a3 3 0 0 1-3.644.002l-3.205-2.448a3 3 0 0 0-.67-.386L23.534 39.3a3 3 0 0 1-1.825-3.156l.518-3.997a3 3 0 0 0 0-.774l-.522-3.997a3 3 0 0 1 1.821-3.158l3.722-1.55c.24-.1.464-.23.67-.387l3.202-2.45z" fill="#00f0b5"/><path d="M31.12 22.4a3 3 0 0 1 3.645-.002l2.17 1.658a3 3 0 0 0 .67.386l2.522 1.047a3 3 0 0 1 1.825 3.156l-.35 2.707a3 3 0 0 0 0 .774l.354 2.706A3 3 0 0 1 40.134 38l-2.52 1.05a3 3 0 0 0-.67.387l-2.17 1.66a3 3 0 0 1-3.645.002l-2.17-1.658a3 3 0 0 0-.67-.386l-2.522-1.047a3 3 0 0 1-1.825-3.156l.35-2.707c.033-.257.033-.517 0-.774l-.354-2.706a3 3 0 0 1 1.821-3.158l2.52-1.05c.24-.1.464-.23.67-.387l2.17-1.66z" fill="#fff"/></g><defs><clipPath id="A"><path fill="#fff" d="M0 0h285v488H0z"/></clipPath></defs></svg>