<svg xmlns="http://www.w3.org/2000/svg" width="285" height="488" fill="none" xmlns:v="https://vecta.io/nano"><path d="M273.584 68.818c-1.155.847-1.327 1.754-1.356 2l-.5.303.674-1.292a19.63 19.63 0 0 0 .892-2.314c.03-.083.054-.173.077-.264a6.5 6.5 0 0 1 .859-1.821c.024-.033.047-.075.08-.108 3.243-1.872 1.7-5.58 1.7-5.58.06.82-.704 1.457-1.487 2.972-.657 1.284-.42 2.176-.335 2.413l-.45.7.135-.725a18.05 18.05 0 0 0 .245-2.461l.012-.312.003-.312-.01-.616-.033-.616-.02-.312-.028-.304a2.21 2.21 0 0 1 .023-.609l.216-1.178c2.34-2.96-.44-5.82-.44-5.82.35.743-.13 1.62-.313 3.325-.156 1.44.394 2.18.558 2.375l-.188.882-.027-.2c-.027-.205-.08-.402-.114-.607l-.06-.303a3.31 3.31 0 0 0-.07-.303l-.33-1.187-.093-.294-.043-.147-.05-.147-.2-.58-.425-.996a5.38 5.38 0 0 1-.48-1.867l-.04-.443c1.228-3.593-2.325-5.333-2.325-5.333.572.575.4 1.572.796 3.235.335 1.417 1.092 1.924 1.303 2.044l.146 1.173c-.008-.008-.008-.016-.017-.033l-.148-.27-.157-.26-.322-.52-.52-.757-.18-.244-.6-.756-1.025-1.26c-.164-.178-.303-.374-.403-.586-1.512-3.126-5.1-2.185-5.1-2.185.806.037 1.335.9 2.7 1.875 1.083.773 1.936.7 2.25.65.04.016.08.023.12.04l.417.43c.55.592 1.065 1.2 1.526 1.876l.173.244.165.252.33.513.14.236c-.36-.307-.725-.565-1.083-.798-1.98-3.226-5.54-1.472-5.54-1.472.804-.102 1.46.653 2.976 1.378 1.3.614 2.147.33 2.38.236a13.46 13.46 0 0 1 1.195.771c.155.113.294.26.377.43l.14.27a16.88 16.88 0 0 1 .975 2.22l.244.72.042.147.085.295c.12.384.205.786.292 1.18l.06.295v.008a9.19 9.19 0 0 0-.772-1.024c-.972-3.676-4.87-3.06-4.87-3.06.792.145 1.208 1.067 2.45 2.208 1.054.98 1.964.957 2.205.938l.688.795c.238.292.405.652.442 1.037l.092.755.01.148.04.608a3.43 3.43 0 0 1 .013.304l.017.608-.007.608-.012.304-.02.304-.118 1.3c-.086-.36-.196-.704-.305-1.03.38-3.786-3.484-4.633-3.484-4.633.7.425.762 1.435 1.518 2.953.647 1.297 1.497 1.614 1.74 1.676l.243.638c.168.466.216.983.1 1.47v.008c-.157.8-.355 1.567-.618 2.327a19.68 19.68 0 0 1-.918 2.216l-.33.613c.058-.428.092-.84.103-1.234 1.706-3.378-1.573-5.615-1.573-5.615.493.65.193 1.616.347 3.315.134 1.444.8 2.06 1.015 2.212l.002.164a4.56 4.56 0 0 1-.767 2.584l-.008.008c-.44.664-.94 1.28-1.47 1.87l-.404.433-.42.417.328-.712c2.864-2.442.68-5.796.68-5.796.205.794-.436 1.568-.936 3.194-.422 1.387-.03 2.22.1 2.44l-.234.57c-.18.422-.455.796-.805 1.08-.613.5-1.242.988-1.905 1.4l-1.2.683.46-.54c2.75-1.347 1.7-4.463 1.7-4.463.002.674-.66 1.152-1.375 2.346-.614 1.012-.466 1.758-.407 1.954l-.252.34a2.6 2.6 0 0 1-.987.795 20.24 20.24 0 0 1-2.195.813h-.008a.49.49 0 1 0 .296.957c.785-.258 1.546-.565 2.3-.913.744-.356 1.454-.77 2.14-1.223.415-.27.814-.563 1.204-.873a3.48 3.48 0 0 1 1.825-.742c3.5 1.313 5.26-2.288 5.26-2.288-.572.576-1.55.393-3.18.762-1.4.316-1.9 1.08-2.02 1.304l-.876.103.643-.618.42-.45.412-.466a18.65 18.65 0 0 0 1.477-1.986c.007-.017.015-.025.023-.04.22-.34.515-.616.866-.8l.168-.093c3.726-.195 3.957-4.217 3.957-4.217-.28.744-1.25.964-2.605 1.962zm-59.59-1.356c1.192.895 1.34 1.808 1.36 2.065l.53.324-.665-1.32a19.04 19.04 0 0 1-.858-2.35c-.03-.084-.05-.176-.072-.267a6.35 6.35 0 0 0-.842-1.856c-.024-.034-.047-.077-.08-.1-3.365-2.006-1.582-5.65-1.582-5.65-.095.818.7 1.486 1.464 3.033.648 1.3.362 2.193.264 2.426l.45.707-.115-.73a17.08 17.08 0 0 1-.168-2.471v-.313a3.6 3.6 0 0 1 .008-.312l.033-.616.058-.614.033-.3.042-.303a2.08 2.08 0 0 0-.002-.61l-.185-1.187c-2.368-3.056.683-5.8.683-5.8-.397.728.077 1.626.208 3.337.112 1.447-.5 2.164-.68 2.352l.167.9.035-.187c.037-.204.098-.398.143-.602l.076-.3a4.15 4.15 0 0 1 .084-.3l.396-1.173.1-.3.05-.145.06-.145.244-.572.487-.98c.304-.577.508-1.2.577-1.847l.057-.442c-1.167-3.627 2.662-5.227 2.662-5.227-.628.55-.493 1.555-.964 3.2-.408 1.403-1.228 1.878-1.456 2l-.2 1.167c.01-.008.01-.016.02-.032l.168-.263.176-.254.36-.508.577-.735.2-.236.654-.73 1.133-1.216a2.37 2.37 0 0 0 .45-.57c1.72-3.08 5.473-1.983 5.473-1.983-.855.004-1.447.846-2.94 1.763-1.175.728-2.076.63-2.406.556-.043.014-.086.02-.13.034l-.457.412c-.603.57-1.173 1.165-1.686 1.813l-.192.237-.184.245-.37.5-.157.23c.4-.292.8-.535 1.177-.753 2.218-3.143 5.92-1.243 5.92-1.243-.848-.135-1.57.592-3.204 1.255-1.4.56-2.286.24-2.53.138a14.5 14.5 0 0 0-1.295.722c-.168.106-.32.246-.415.414l-.16.263c-.43.694-.785 1.432-1.116 2.18l-.226.564-.06.145-.05.146-.1.3c-.14.38-.247.777-.353 1.167l-.075.292v.008a9.36 9.36 0 0 1 .856-.992c1.167-3.635 5.27-2.858 5.27-2.858-.843.112-1.32 1.017-2.676 2.106-1.152.935-2.115.876-2.37.846l-.758.767a1.9 1.9 0 0 0-.507 1.02l-.1.604-.024.147-.017.147-.066.606c-.014.098-.02.205-.025.303l-.04.607-.015.608c-.006.1-.002.197.001.305l.01.305.076 1.305c.105-.357.234-.696.362-1.018-.26-3.8 3.862-4.5 3.862-4.5-.748.397-.86 1.404-1.717 2.9-.75 1.253-1.663 1.534-1.922 1.586l-.28.627a2.54 2.54 0 0 0-.172 1.465v.008a16.82 16.82 0 0 0 .568 2.352 18.93 18.93 0 0 0 .889 2.254l.326.627a10.65 10.65 0 0 1-.063-1.238c-1.68-3.448 1.875-5.55 1.875-5.55-.546.63-.264 1.608-.5 3.3-.195 1.44-.936 2.025-1.157 2.17l-.01.164a4.39 4.39 0 0 0 .716 2.615l.008.01a16.58 16.58 0 0 0 1.488 1.93l.412.45.43.434-.32-.725c-2.942-2.56-.504-5.823-.504-5.823-.247.786.403 1.586.872 3.232.395 1.404-.05 2.22-.198 2.435l.226.58c.174.43.453.814.813 1.113.63.536 1.28 1.04 1.965 1.48l1.235.732-.466-.56c-2.864-1.46-1.624-4.532-1.624-4.532-.027.674.656 1.18 1.37 2.402.612 1.037.427 1.776.357 1.97l.255.35c.263.352.607.64 1.016.836a21.92 21.92 0 0 0 2.294.904h.01c.2.07.362.266.35.48-.01.37-.372.58-.7.465l-2.4-1.007a19.3 19.3 0 0 1-2.222-1.311l-1.24-.922c-.54-.44-1.202-.722-1.906-.817-3.755 1.168-5.484-2.505-5.484-2.505.584.6 1.626.456 3.338.893 1.46.373 1.973 1.158 2.1 1.387l.925.14-.66-.644-.428-.467-.42-.483c-.538-.654-1.05-1.332-1.5-2.047-.008-.017-.016-.026-.023-.042-.22-.35-.522-.637-.887-.846l-.175-.1c-3.94-.348-4.033-4.38-4.033-4.38.284.773 1.304 1.032 2.702 2.086z" fill="#9a9ca5"/><path d="M242.738 49.796a3 3 0 0 1 3.644.067l3.158 2.508a3.01 3.01 0 0 0 .663.399l3.694 1.617a3 3 0 0 1 1.764 3.19l-.594 3.987c-.038.256-.043.516-.014.774l.446 4.006a3 3 0 0 1-1.881 3.123l-3.75 1.48a3.03 3.03 0 0 0-.677.374l-3.248 2.4a3 3 0 0 1-3.644-.067l-3.158-2.508c-.202-.16-.425-.295-.663-.4l-3.693-1.617a3 3 0 0 1-1.765-3.19l.594-3.987a2.99 2.99 0 0 0 .014-.774l-.446-4.006a3 3 0 0 1 1.881-3.123l3.75-1.48c.24-.095.47-.22.677-.374l3.248-2.4z" fill="#00f0b5"/><path d="M242.688 52.377a3 3 0 0 1 3.644.067l2.14 1.7a2.99 2.99 0 0 0 .663.399l2.5 1.095a3 3 0 0 1 1.764 3.19l-.402 2.7a2.99 2.99 0 0 0-.014.774l.302 2.712a3 3 0 0 1-1.881 3.123l-2.54 1.002c-.24.095-.468.22-.677.374l-2.2 1.62a3 3 0 0 1-3.644-.067l-2.138-1.7a3.01 3.01 0 0 0-.663-.399l-2.5-1.095a3 3 0 0 1-1.765-3.19l.402-2.7c.038-.256.043-.516.015-.774l-.302-2.713a3 3 0 0 1 1.88-3.123l2.54-1.002c.24-.095.47-.22.677-.374l2.2-1.62z" fill="#fff"/></svg>