<svg xmlns="http://www.w3.org/2000/svg" xmlns:xlink="http://www.w3.org/1999/xlink" width="600" height="440" fill="none" xmlns:v="https://vecta.io/nano"><style><![CDATA[.B{fill-rule:evenodd}.C{fill:#fff}.D{fill:#ffcf2d}.E{fill:#9a3b82}.F{fill:#fe5244}.G{fill:#66b0f0}.H{fill:#3fb1b5}.I{fill:#e57281}]]></style><path d="M137.25 439.244h393.957L370.22 58.258h-71.98L137.25 439.244z" fill="#d0f0e4"/><g class="B D"><path d="M334.227 22.133l-7.155 7.13.657.655 6.498-6.477 6.498 6.477.657-.655-7.155-7.13z"/><path d="M333.765 0v22.788h.928V0h-.928z"/></g><path d="M334.23 70.137c-6.07 0-10.99-4.904-10.99-10.954s4.92-10.954 10.99-10.954 11 4.904 11 10.954-4.92 10.954-11 10.954z" class="D"/><g class="B"><path d="M334.23 48.69c5.813 0 10.526 4.697 10.526 10.49s-4.713 10.49-10.526 10.49-10.526-4.697-10.526-10.49 4.713-10.49 10.526-10.49zm11.455 10.49c0-6.305-5.13-11.417-11.455-11.417s-11.455 5.112-11.455 11.417S327.903 70.6 334.23 70.6s11.455-5.112 11.455-11.417z" class="C"/><path d="M334.213 29.545c16.983 0 31.476 10.323 34.577 24.445l.836 3.804h-70.81l.837-3.82c1.55-7.063 5.934-13.17 12.075-17.5h0c6.126-4.34 14.004-6.92 22.486-6.92zm35.484 24.247c-3.214-14.636-18.163-25.173-35.484-25.173-8.668 0-16.735 2.635-23.023 7.1-6.305 4.455-10.84 10.75-12.445 18.067h0l-1.083 4.943h73.12l-1.084-4.928z" class="E"/></g><path d="M223.317 303.97h7.307v45.976h-7.307V303.97z" class="G"/><path d="M90.64 349.945h41.593c1.502 0 2.663-1.296 2.477-2.778l-5.79-48.707c-.155-1.25-1.223-2.2-2.477-2.2H84.85c-1.502 0-2.662 1.296-2.477 2.777l5.79 48.707c.155 1.25 1.223 2.19 2.477 2.19z" class="E"/><path d="M113.302 349.945h32.847a3.37 3.37 0 0 0 3.344-3.75l-4.2-35.47c-.202-1.682-1.64-2.962-3.344-2.962h-33.637l5 42.18z" class="C"/><path d="M144.822 310.78l4.2 35.47c.2 1.717-1.15 3.233-2.882 3.233h-32.435l-4.9-41.256h33.115a2.91 2.91 0 0 1 2.882 2.554zm.922-.11a3.84 3.84 0 0 0-3.804-3.37h-34.16l5.11 43.106h33.26a3.83 3.83 0 0 0 3.805-4.265v-.001l-4.21-35.47z" class="B D"/><path d="M109.618 349.945h31.346c2.012 0 3.576-1.76 3.343-3.75l-4.2-35.47c-.2-1.682-1.64-2.962-3.344-2.962h-31.748c-1.006 0-1.796.88-1.672 1.882l4.613 38.802c.093.864.82 1.497 1.672 1.497z" class="C"/><g class="B"><path d="M139.636 310.78l4.2 35.47c.2 1.717-1.15 3.233-2.882 3.233h-31.346a1.21 1.21 0 0 1-1.21-1.083l-.001-.003-4.613-38.807a1.22 1.22 0 0 1 1.211-1.363h31.75a2.91 2.91 0 0 1 2.882 2.554zm.922-.11a3.84 3.84 0 0 0-3.804-3.37h-31.75c-1.283 0-2.29 1.12-2.133 2.4l4.612 38.795a2.14 2.14 0 0 0 2.134 1.91h31.346a3.83 3.83 0 0 0 3.805-4.265v-.001l-4.21-35.47z" class="D"/><g class="E"><path d="M223.316 310.416H209.71v40h13.607v-40zm-.93.926v38.138h-11.75v-38.138h11.75z"/><path d="M215.05 310.416h-18.777v40h18.777v-40zm-.93.926v38.138h-16.92v-38.138h16.92z"/><path d="M199.125 306.13h-5.946l-18.767 44.28h5.946l18.767-44.28zm-1.4.926l-17.982 42.427h-3.93l17.982-42.427h3.93z"/><path d="M191.42 312.717h-10.205l-16.22 37.7H175.2l16.218-37.7zm-1.4.925l-15.42 35.84h-8.185l15.422-35.84h8.184zm54.327-3.226h-13.714v40h13.714v-40zm-.928.926v38.138h-11.86v-38.138h11.858zm.928-30.87h-60.4v8.547h60.4v-8.547zm-.928.925v6.696h-58.544v-6.696h58.544z"/></g></g><path d="M168.534 275.104h75.34v6.14h-75.34v-6.14z" class="F"/><path d="M193.023 266.246h50.85v8.702h-50.85v-8.702z" class="D"/><path d="M244.337 259.135h-60.4v7.42h60.4v-7.42zm-.928.925v5.57h-58.544v-5.57h58.544z" class="B E"/><path d="M81.786 242.47l.046.263 7.028 45.822h65.2l-7.12-46.47c-1.114-2.253-7.925-3.996-16.176-3.996-9.025 0-16.33 2.083-16.33 4.644 0-2.56-7.306-4.644-16.33-4.644-8.715.015-15.82 1.944-16.315 4.38z" class="C"/><g class="B D"><path d="M146.49 242.23l.082.57 6.947 45.292H89.26l-7-45.607c.115-.397.51-.856 1.298-1.33.82-.493 1.983-.95 3.424-1.338 2.88-.776 6.792-1.26 11.12-1.266 4.482 0 8.52.517 11.422 1.343 1.454.414 2.598.898 3.366 1.415.786.528 1.078 1.018 1.078 1.423h.93c0-.405.293-.895 1.078-1.423.77-.517 1.912-1 3.367-1.415 2.902-.826 6.94-1.343 11.422-1.343 4.096 0 7.822.433 10.65 1.14 1.415.353 2.592.772 3.473 1.23.853.443 1.372.894 1.603 1.308zm-32.058-.763c.26-.34.614-.648 1.023-.923.883-.594 2.13-1.11 3.63-1.538 3.006-.855 7.134-1.38 11.677-1.38 4.154 0 7.96.44 10.877 1.167 1.458.364 2.71.804 3.676 1.307.953.495 1.695 1.084 2.04 1.78l.033.066.104.72 7.108 46.35h-66.14l-7.13-46.64c.163-.805.843-1.472 1.748-2.016.923-.554 2.175-1.038 3.66-1.44 2.976-.8 6.973-1.3 11.36-1.298h.001c4.543 0 8.67.524 11.677 1.38 1.5.427 2.748.944 3.63 1.538.41.275.763.583 1.023.923z"/><path d="M113.96 242.818l6.966 45.822.92-.138-6.966-45.822-.92.138z"/></g><path d="M121.383 288.572c0-2.56 7.306-4.644 16.33-4.644s16.33 2.083 16.33 4.644h-32.662z" class="D"/><path d="M88.72 288.572c0-2.56 7.306-4.644 16.33-4.644s16.33 2.083 16.33 4.644H88.72z" class="D"/><path d="M83.82 239.994c-.253.04-.426.277-.386.53l7.056 44.212.536-.206c2.846-1.096 8.334-1.88 13.934-1.682 4.482.16 8.5.82 11.373 1.746 1.44.464 2.564.988 3.314 1.53.766.554 1.04 1.053 1.026 1.458-.01.256.19.47.447.48s.472-.19.48-.446c.032-.876-.562-1.63-1.408-2.24-.86-.624-2.1-1.184-3.574-1.663-2.975-.96-7.083-1.627-11.626-1.8-5.347-.19-10.656.5-13.764 1.55l-6.878-43.094c-.04-.252-.278-.424-.53-.384z" class="B D"/><path d="M86.986 227.182h58.544v-12.99c0-1.28-1.037-2.314-2.322-2.314H89.293c-1.285 0-2.322 1.034-2.322 2.314v12.99h.016z" class="C"/><path d="M143.21 212.34a1.85 1.85 0 0 1 1.857 1.851v12.528h-57.63V214.19a1.85 1.85 0 0 1 1.858-1.851h53.916zm2.786 1.85a2.78 2.78 0 0 0-2.786-2.777H89.293a2.78 2.78 0 0 0-2.786 2.777v13.454h59.488V214.19z" class="B E"/><path d="M82.312 211.26h50.448a1.4 1.4 0 0 0 1.409-1.404v-5.17a1.4 1.4 0 0 0-1.409-1.404H82.312a1.4 1.4 0 0 0-1.409 1.404v5.17c0 .77.635 1.404 1.41 1.404z" class="D"/><path d="M80.346 198.438H140.2v4.844H80.346v-4.844z" class="F"/><path d="M81.43 198.438h45.68c.603 0 1.083-.493 1.083-1.08v-3.903c0-.602-.495-1.08-1.083-1.08H81.43c-.604 0-1.084.494-1.084 1.08v3.903c0 .587.48 1.08 1.084 1.08z" class="C"/><path d="M127.1 192.838a.62.62 0 0 1 .619.617v3.903a.62.62 0 0 1-.619.617H81.43a.62.62 0 0 1-.619-.617v-3.903a.62.62 0 0 1 .619-.617h45.68zm1.548.617a1.55 1.55 0 0 0-1.548-1.543H81.43a1.55 1.55 0 0 0-1.548 1.543v3.903a1.55 1.55 0 0 0 1.548 1.543h45.68a1.55 1.55 0 0 0 1.548-1.543v-3.903zm96.48-14.395H206.63v48.583h18.498V179.06zm-.93.925v46.733h-16.64v-46.733h16.64z" class="B E"/><path d="M224.662 179.523h7.09v47.658h-7.09v-47.658z" class="C"/><path d="M232.217 179.06h-8.02v48.583h8.02V179.06zm-.93.925v46.733h-6.16v-46.733h6.16z" class="B E"/><path d="M231.753 179.523h11.92v47.658h-11.92v-47.658z" class="C"/><path d="M244.136 179.06h-12.848v48.583h12.848V179.06zm-.93.925v46.733h-11v-46.733h11zm-37.97 7.685h-16.33v40h16.33v-40zm-.928.926v38.138h-14.474v-38.138h14.474z" class="B E"/><path d="M203.656 227.18h6.07c.588 0 1.083-.478 1.083-1.08v-36.92c0-.587-.48-1.08-1.083-1.08h-6.07c-.588 0-1.083.478-1.083 1.08v36.92c.015.602.495 1.08 1.083 1.08z" class="C"/><g class="E"><path d="M209.724 188.564c.343 0 .62.283.62.617v36.92a.62.62 0 0 1-.62.617h-6.068c-.323 0-.607-.264-.62-.623V189.18a.62.62 0 0 1 .619-.617h6.068zm1.548.617a1.55 1.55 0 0 0-1.548-1.542h-6.068a1.55 1.55 0 0 0-1.548 1.542l.001 36.932c.02.842.696 1.53 1.547 1.53h6.068a1.55 1.55 0 0 0 1.548-1.543v-36.92z" class="B"/><path d="M189.368 188.133v21.414l8.344-21.414h-8.344z"/></g><path d="M153.704 227.18h24.644c.542 0 1.037-.34 1.223-.833l16.006-41.07a1.31 1.31 0 0 0-1.223-1.79H169.7c-.542 0-1.037.34-1.223.833l-16.006 41.07a1.31 1.31 0 0 0 1.223 1.79z" class="C"/><path d="M194.353 183.95c.602 0 1.012.598.79 1.158l-.001.001-16.007 41.075a.85.85 0 0 1-.789.533h-24.643c-.602 0-1.012-.597-.79-1.157l16.01-41.077a.85.85 0 0 1 .788-.533h24.643zm1.656 1.495c.46-1.167-.4-2.42-1.656-2.42H169.7a1.78 1.78 0 0 0-1.657 1.131l-16.004 41.066c-.46 1.168.4 2.422 1.655 2.422h24.643c.73 0 1.4-.454 1.657-1.13l16.004-41.066z" class="B D"/><path d="M149.68 227.18h24.644c.54 0 1.037-.34 1.222-.833l16.006-41.07a1.31 1.31 0 0 0-1.223-1.79h-24.643c-.542 0-1.037.34-1.223.833l-16.006 41.07a1.31 1.31 0 0 0 1.223 1.79z" class="C"/><g class="B D"><path d="M190.33 183.95c.602 0 1 .598.8 1.158v.001l-16.008 41.075c-.116.3-.435.533-.788.533H149.68c-.602 0-1.012-.597-.8-1.157l16.008-41.077a.85.85 0 0 1 .788-.533h24.644zm1.655 1.495a1.77 1.77 0 0 0-1.655-2.42h-24.644c-.73 0-1.4.454-1.656 1.13l-16.005 41.066c-.46 1.168.4 2.422 1.656 2.422h24.643a1.78 1.78 0 0 0 1.657-1.131l16.004-41.066zM120.7 103.953l-14.885 51.744.45.126c2.346.66 4.834 1.02 7.386 1.02 14.915 0 26.996-12.04 26.996-26.906 0-12.26-8.238-22.622-19.5-25.856l-.447-.128zm.635 1.15c10.645 3.265 18.382 13.158 18.382 24.834 0 14.355-11.664 25.98-26.067 25.98-2.302 0-4.55-.304-6.684-.863l14.37-49.952z"/><path d="M114.123 165.808v-9.427h-.93v9.427h.93z"/></g><path d="M113.66 152.34c-12.413 0-22.476-10.03-22.476-22.402s10.063-22.402 22.476-22.402 22.476 10.03 22.476 22.402-10.063 22.402-22.476 22.402z" class="C"/><path d="M113.66 107.998c12.157 0 22.012 9.822 22.012 21.94s-9.855 21.94-22.012 21.94-22.012-9.822-22.012-21.94 9.855-21.94 22.012-21.94zm22.94 21.94c0-12.628-10.27-22.865-22.94-22.865s-22.94 10.237-22.94 22.865 10.27 22.865 22.94 22.865 22.94-10.237 22.94-22.865z" class="B H"/><path d="M104.264 165.745h18.715l-9.288-4.643-9.427 4.643z" class="C"/><g class="B"><path d="M113.693 160.584l-11.417 5.624h22.664l-11.247-5.624zm-.004 1.034l7.33 3.664h-14.766l7.437-3.664z" class="D"/><path d="M244.337 165.344H79.882v274.36h9.396V419.34c0-4.173 3.4-7.56 7.585-7.56H227.45c4.186 0 7.585 3.387 7.585 7.56v20.365h9.303v-274.36zm-.928.925v272.5h-7.446v-19.44c0-4.684-3.815-8.486-8.514-8.486H96.863c-4.7 0-8.514 3.802-8.514 8.486v19.44h-7.54v-272.5H243.41z" class="E"/><path d="M232.433 357.504c1.538 0 2.77 1.24 2.77 2.762v40.252c0 1.533-1.246 2.762-2.77 2.762H92.095c-1.525 0-2.77-1.23-2.77-2.762v-40.252c0-1.533 1.246-2.762 2.77-2.762h140.338zm3.7 2.762c0-2.03-1.646-3.688-3.7-3.688H92.095c-2.035 0-3.7 1.64-3.7 3.688v40.252c0 2.047 1.664 3.687 3.7 3.687h140.338c2.035 0 3.7-1.64 3.7-3.687v-40.252z" class="H"/></g><path d="M154.865 128.256v37.552h13.19l-13.19-37.552z" class="E"/><path d="M154.866 128.256l.093.277 13.018 37.275h60.525l-13.436-38.463c-1.95-2.792-7.353-4.83-13.792-4.937h-.62c-7.523 0-14.225 2.608-15.448 6.033-1.208-3.425-7.616-6.033-15.14-6.033-7.37 0-13.824 2.515-15.2 5.848z" class="C"/><g class="B D"><path d="M201.276 121.945h-.623c-3.81 0-7.426.66-10.256 1.764-2.348.916-4.237 2.17-5.188 3.678-.925-1.504-2.744-2.76-5.032-3.676-2.757-1.106-6.3-1.766-10.11-1.766-3.733 0-7.247.637-10.015 1.706-2.743 1.06-4.853 2.582-5.616 4.428l-.065.16.148.444 13.128 37.59h61.51l-13.71-39.2c-1.052-1.507-2.992-2.758-5.435-3.646-2.454-.892-5.467-1.435-8.73-1.5h-.004zm-.007.926c3.174.054 6.08.582 8.424 1.434 2.325.844 4.047 1.99 4.955 3.254l.397 1.127 12.803 36.66h-59.542l-12.944-37.067c.672-1.43 2.445-2.768 5.024-3.764 2.647-1.022 6.045-1.643 9.68-1.643 3.712 0 7.134.644 9.764 1.698 2.656 1.065 4.4 2.505 4.937 4.025l.435 1.235.44-1.233c.54-1.515 2.356-2.957 5.094-4.025 2.707-1.056 6.205-1.7 9.917-1.7h.616z"/><path d="M185.065 128.006a.46.46 0 0 0-.281.591l13.142 36.596c.087.24.352.366.594.28s.367-.35.28-.592l-13.143-36.595c-.086-.24-.352-.366-.593-.28z"/></g><path d="M198.394 165.346h30.108c-1.114-3.472-7.368-6.14-14.9-6.14-7.554 0-14.102 2.67-15.217 6.14zm-30.34 0h30.108c-1.114-3.472-7.368-6.14-14.9-6.14-7.554 0-14.102 2.67-15.217 6.14z" class="D"/><g class="B E"><path d="M170.145 367.238a1.73 1.73 0 0 1 1.734 1.728c0 .256.208.463.464.463s.465-.207.465-.463c0-1.457-1.18-2.654-2.663-2.654H153.72c-1.462 0-2.662 1.178-2.662 2.654 0 .256.208.463.464.463s.465-.207.465-.463a1.73 1.73 0 0 1 1.733-1.728h16.424z"/><use xlink:href="#B"/><path d="M244.337 227.182c0-.256-.208-.463-.464-.463H80.347c-.256 0-.464.207-.464.463s.208.462.464.462h163.527c.256 0 .464-.207.464-.462z"/><use xlink:href="#B" y="61.373"/><path d="M223.596 108.04c-.242.084-.37.348-.285.59l19.908 56.716H80.676l-20.015-57.02c-.085-.24-.35-.37-.592-.284a.46.46 0 0 0-.285.589l20.123 57.332c.065.186.24.3.438.3h163.526c.15 0 .292-.073.38-.195a.46.46 0 0 0 .059-.421l-20.123-57.33c-.085-.24-.35-.37-.592-.284z"/></g><path d="M41.863 424.526a24.76 24.76 0 0 0 1.625 8.84c1.532 4.01 5.418 6.634 9.737 6.634h32.77c4.303 0 8.204-2.623 9.72-6.634a24.76 24.76 0 0 0 1.625-8.84c0-8.95-4.752-16.848-12.012-21.57v-5.215c0 2.284-7.043 4.135-15.712 4.135-8.684 0-15.712-1.85-15.712-4.135v5.23c-7.29 4.706-12.043 12.605-12.043 21.554z" class="F"/><path d="M53.875 401.537v1.39c2.492 1.974 9.272 3.024 15.712 3.024s13.22-1.05 15.712-3.024v-1.39c-.294.664-1.548 1.527-4.334 2.253-3.034.802-7.074 1.234-11.378 1.234s-8.344-.432-11.378-1.234c-2.786-.74-4.025-1.605-4.334-2.253z" class="C"/><path d="M53.875 397.742c0 2.284 7.043 4.135 15.712 4.135s15.712-1.85 15.712-4.135c0-.293-.108-.57-.325-.848-1.486-1.867-7.802-3.287-15.387-3.287s-13.9 1.404-15.387 3.287c-.2.277-.325.555-.325.848z" class="G"/><g class="B D"><use xlink:href="#C"/><use xlink:href="#D"/><use xlink:href="#C" x="-15.079" y="-0.91"/><use xlink:href="#E"/><use xlink:href="#C" x="-6.472" y="17.96"/><use xlink:href="#E" x="14.923"/><use xlink:href="#C" x="-7.802" y="-7.328"/><use xlink:href="#C" x="-23.578" y="-5.832"/><use xlink:href="#F"/><use xlink:href="#F" x="-5.727" y="7.88"/><use xlink:href="#F" x="1.704" y="13.794"/><use xlink:href="#C" x="-29.769" y="1.42"/><use xlink:href="#D" x="-28.791" y="-11.54"/><use xlink:href="#C" x="-42.045" y="-0.123"/><use xlink:href="#F" x="-12.647" y="0.202"/><use xlink:href="#F" x="-21.604" y="4.337"/><use xlink:href="#D" x="-30.773" y="13.207"/></g><path d="M34.882 373.703s-14.706-7.914-17.136 5.9c-2.817 15.968 16.316 30.023 16.316 30.023s4.118-10.167 15.155-18.93c9.55-7.575 1.625-27.662-14.334-17.002z" class="C"/><g class="D"><path d="M51.22 375.604c2.687 4.477 2.27 11.123-2.3 14.74v.001a56.04 56.04 0 0 0-11.814 12.858c-1.215 1.835-2.083 3.395-2.65 4.498-.258.504-.453.912-.59 1.21l-.338-.268c-.512-.41-1.242-1.017-2.1-1.795-1.737-1.555-4.02-3.793-6.217-6.523-4.406-5.48-8.38-12.847-7.006-20.63h0c.592-3.368 1.917-5.342 3.512-6.457 1.604-1.12 3.552-1.42 5.48-1.3s3.794.663 5.188 1.18a22.79 22.79 0 0 1 1.665.693 16.78 16.78 0 0 1 .458.221l.118.06c.013.007.023.012.03.016l.007.003.001.001.246.133.233-.156c3.92-2.62 7.288-3.31 9.976-2.835s4.767 2.13 6.1 4.35zm-16.365-2.436c3.966-2.6 7.495-3.345 10.427-2.826 2.99.53 5.286 2.372 6.735 4.786 2.878 4.796 2.483 11.98-2.51 15.94-5.472 4.345-9.23 9.038-11.618 12.644-1.194 1.803-2.045 3.332-2.597 4.41-.276.538-.477.963-.608 1.252l-.145.33-.035.082-.008.02-.002.005h0v.001l-.224.553-.482-.354.275-.373-.276.372h-.001l-.003-.002-.01-.01c-.01-.007-.024-.018-.043-.032l-.163-.124a30.73 30.73 0 0 1-.611-.479 53.31 53.31 0 0 1-2.148-1.827c-1.763-1.58-4.085-3.853-6.32-6.633-4.456-5.54-8.64-13.184-7.196-21.37.623-3.544 2.048-5.765 3.894-7.055 1.837-1.283 4.02-1.595 6.072-1.466s4.014.703 5.454 1.237c.722.268 1.317.528 1.733.722l.4.197z" class="B"/><path d="M63.752 356.1c-6.98.062-17.012-14.07-7.54-29.576 11.44-18.73 13.405-29.576 13.405-29.576s16.826 22.186 13.963 39.204C80.44 354.8 63.752 356.1 63.752 356.1z"/></g><path d="M62.545 346.688c-10.2 2.685-19.89-3.502-20.092-17.603-.356-24.933-5.093-33.048-5.093-33.048s31.78 11.402 36.594 29.113c4.582 16.88-11.408 21.538-11.408 21.538z" class="C"/><g class="D"><path d="M37.36 296.038l.157-.436-1.2-.43.64 1.098h0l.001.002.043.08.143.283.528 1.228c.44 1.13 1.038 2.903 1.648 5.456 1.22 5.107 2.5 13.335 2.667 25.773.102 7.156 2.616 12.372 6.47 15.45s8.983 3.968 14.205 2.593l.006-.001.006-.002-.13-.444.13.444.004-.001.01-.003a1.78 1.78 0 0 1 .038-.012l.14-.045c.12-.04.297-.1.517-.183a20.1 20.1 0 0 0 1.791-.777c1.457-.714 3.356-1.85 5.112-3.53s3.377-3.91 4.26-6.812 1.02-6.448-.147-10.74c-1.233-4.537-4.183-8.64-7.873-12.23s-8.15-6.7-12.44-9.244-8.434-4.53-11.5-5.882c-1.534-.676-2.8-1.193-3.683-1.54l-1.024-.395-.34-.126-.024-.008c0-.001-.001-.001-.158.435zm25.06 50.205c-4.976 1.308-9.8.446-13.38-2.422s-6.023-7.797-6.122-14.742c-.178-12.494-1.455-20.79-2.693-25.974-.62-2.592-1.228-4.406-1.686-5.578l-.265-.648.3.114c.873.344 2.128.856 3.65 1.526 3.043 1.34 7.148 3.31 11.4 5.83s8.645 5.586 12.266 9.11 6.45 7.492 7.625 11.81c1.126 4.146.98 7.513.154 10.23s-2.347 4.82-4.014 6.412-3.48 2.68-4.88 3.367a19.17 19.17 0 0 1-1.707.741 13.53 13.53 0 0 1-.482.17l-.125.04-.03.01-.003.001z" class="B"/><path d="M105.175 363.104l1.177.093c21.95 1.635 28.266 21.66 28.266 21.66s1.346-1.45 1.068-6.464c-.527-12.93-12.46-26.3-26.084-17.804-1.517.956-3.003 1.774-4.427 2.514z"/></g><path d="M80.284 368.026c3.87.247 12.71 1.31 24.892-4.922 1.424-.725 2.9-1.558 4.427-2.515 13.622-8.485 25.247 4.876 25.774 17.805.03.632-.124 1.265-.155 1.882 1.285-11.232 1.254-39.188-32.848-38.247-23.436.68-22.1 25.997-22.1 25.997z" class="C"/><g class="B D"><path d="M135.78 379.434l-.096.894-.925-.075c.013-.265.048-.535.08-.785l.017-.137.058-.61v-.306l-.001-.002v-.002c-.258-6.348-3.245-12.793-7.81-16.596-2.277-1.897-4.936-3.13-7.84-3.382s-6.082.473-9.413 2.547c-1.53.964-3.027 1.804-4.463 2.535-11.587 5.93-20.198 5.32-24.406 5.02l-.726-.05-.412-.027-.022-.41.464-.024-.464.024v-.006-.015l-.002-.058-.007-.22c-.004-.19-.007-.47-.003-.82.01-.705.05-1.71.17-2.918.243-2.412.814-5.644 2.132-8.904s3.39-6.565 6.64-9.096 7.663-4.274 13.61-4.447h.001c8.59-.237 15.072 1.345 19.94 4.06s8.093 6.547 10.184 10.757c3.813 7.678 3.867 16.616 3.356 22.403-.01.212-.033.418-.057.612-.001.012-.003.025-.004.037zm-.64-5.932c-1.2-4.863-3.84-9.397-7.44-12.396-2.398-1.998-5.232-3.323-8.355-3.594s-6.506.517-9.986 2.685h-.001l-.001.001a54.98 54.98 0 0 1-4.391 2.494h0c-11.36 5.812-19.762 5.216-23.923 4.922l-.304-.022v-.65c.01-.682.047-1.66.165-2.837.237-2.356.794-5.496 2.07-8.65s3.26-6.307 6.35-8.713 7.296-4.083 13.066-4.25c8.462-.234 14.77 1.326 19.46 3.94s7.786 6.295 9.804 10.36c2.704 5.444 3.47 11.573 3.487 16.71z"/><path d="M74.247 396.955s0 .001.463-.032l.463-.034v-.008l-.002-.03-.007-.116-.022-.46-.034-1.75.287-6.213c.472-5.116 1.665-11.848 4.545-18.342s7.435-12.732 14.628-16.9 17.067-6.293 30.637-4.472l.124-.917c-13.728-1.843-23.82.297-31.228 4.6s-12.075 10.706-15 17.326-4.143 13.456-4.62 18.632c-.24 2.6-.295 4.768-.3 6.3a48.33 48.33 0 0 0 .035 1.786l.023.475.007.124.002.032.001.008v.003zm-9.537-37.4c-2.702-20.88-9.717-46.222-27.02-63.84l-.664.647c17.092 17.404 24.07 42.504 26.763 63.312 1.15 8.9 1.517 16.982 1.56 23.334-1.517-7.376-4.92-13.8-9.112-17.694-3.362-3.122-7.295-4.668-11.195-3.65-3.888 1.016-7.582 4.54-10.57 11.187-.92 2.043-1.414 5.385-1.657 9.182-.244 3.817-.236 8.16-.117 12.25s.347 7.935.546 10.756l.26 3.37.08.928.016.176.014.15c0 .001 0 .001.462-.043l.462-.043v-.001l-.008-.08-.022-.24-.08-.923-.258-3.358c-.198-2.812-.426-6.644-.544-10.718s-.125-8.388.116-12.164c.242-3.797.733-6.987 1.577-8.862h0c2.934-6.528 6.46-9.756 9.957-10.67 3.485-.9 7.103.437 10.326 3.43 5.305 4.927 9.366 14.172 9.655 24.227L65.1 394l-.144 2.14-.046.554-.013.14-.003.034-.001.01.462.045-.462-.045.922.1c.326-2.268.445-4.535.383-6.765l.086-4.135a195.08 195.08 0 0 0-1.563-26.535z"/></g><path d="M547 352.813l4.613 4.027a16.77 16.77 0 0 0 1.98-2.916l28.762-53.413c1.207-2.237-.418-4.937-2.957-4.937h-4.025a8.7 8.7 0 0 0-7.678 4.582l-22.615 41.996c-1.95 3.58-1.146 8.008 1.92 10.66zm-78.287 1.173l66.92 13.7v-1.388c0-6.65-4.7-12.374-11.223-13.716l-43.1-8.825c-6.5-1.327-12.585 3.626-12.585 10.23z" class="D"/><path d="M486.933 363.406c-5.736-1.17-11.1 3.183-11.1 9.016v66.82c0 .255.208.463.464.463s.464-.208.464-.463v-66.82c0-5.245 4.823-9.162 9.985-8.1l42.027 8.593c4.844.987 8.833 4.365 10.603 8.97l22.183 57.533c.092.238.36.357.6.266a.46.46 0 0 0 .267-.598l-22.182-57.532a15.36 15.36 0 0 0-11.285-9.545m0 0l-42.027-8.593m95.823-63.596c-.226-.12-.507-.036-.63.2l-32.677 60.68a12.93 12.93 0 0 1-13.986 6.524l-66.8-13.67a.46.46 0 0 0-.55.36c-.053.26.1.495.362.547l66.8 13.67c6.006 1.23 12.092-1.612 15-6.992h0l32.678-60.68a.46.46 0 0 0-.2-.627z" class="B E"/><path d="M444.984 304.432h56.547v7.53h-56.547v-7.53z" class="G"/><g class="F"><path d="M455.293 296.254c-.68.632-1.1 1.774-1.1 2.73 0 1.914 1.672 3.873 3.746 3.873h51.58c0 .895-.728 1.62-1.626 1.62H445.65c-1.672 0-3.174-.617-4.273-1.636-1.1-1.002-1.764-2.406-1.764-3.95 0-3.086 2.71-5.57 6.037-5.57h62.243c.898 0 1.626.725 1.626 1.62v.293h-51.58c-1.037.016-1.965.402-2.647 1.02z"/><path d="M505.79 295.25v7.467h3.715v.617h-51.748a4.36 4.36 0 0 1-1.625-.308c-.558-.216-1.053-.556-1.455-.957-.8-.787-1.285-1.882-1.285-3.085 0-2.407 1.966-4.35 4.365-4.35h51.748v.617h-3.715z"/></g><path d="M507.228 295.25v7.467H457.94c-2.074 0-3.746-1.666-3.746-3.733 0-1.034.418-1.96 1.1-2.64a3.73 3.73 0 0 1 2.647-1.095h49.287z" class="C"/><path d="M507.615 302.717v-7.467h-.774v7.467h.774z" class="B F"/><path d="M464.828 300.542v6.233H460.5v-5.43a2.35 2.35 0 0 0-2.353-2.345h-1.92v-.803h6.254c1.27 0 2.337 1.05 2.337 2.345z" class="D"/><path d="M527.306 312.916c3.04 0 5.5 2.462 5.5 5.492 0 .256.208.463.464.463s.465-.207.465-.463c0-3.54-2.886-6.418-6.44-6.418h-117.5c-3.554 0-6.44 2.877-6.44 6.418 0 .256.208.463.465.463s.464-.207.464-.463c0-3.03 2.47-5.492 5.5-5.492h117.5zm-26.644 11.04c-1.534-5.313-6.797-8.975-12.768-8.975h-38.652c-5.97 0-11.234 3.662-12.768 8.975h0L403.3 439.114c-.07.246.07.502.318.573s.504-.072.574-.317l33.173-115.157c1.407-4.87 6.268-8.305 11.876-8.305h38.652c5.608 0 10.47 3.435 11.876 8.305l33.157 115.156c.07.246.328.388.574.318s.4-.327.32-.573l-33.158-115.157z" class="B E"/><path d="M375.9 419.31v16.786c0 1.743-1.41 3.147-3.158 3.147h-42.104s-.248-7.79 6.16-9.967c10.883-3.687 15.96-9.966 15.96-9.966H375.9z" class="C"/><g class="B F"><path d="M375.9 418.848h-23.364l-.14.172-.002.002-.05.06-.172.196-.706.744c-.634.633-1.594 1.52-2.89 2.522-2.596 2.004-6.54 4.47-11.926 6.294h0c-3.4 1.15-5.01 3.79-5.775 6.09-.383 1.15-.558 2.228-.637 3.016-.04.395-.056.72-.062.947l-.003.265.001.072v.028s0 .001.465-.014l-.465.015.015.448h42.554a3.61 3.61 0 0 0 3.622-3.611V419.31h-.464v-.463zm-.465.925v16.323c0 1.488-1.2 2.685-2.693 2.685h-41.634a12.32 12.32 0 0 1 .053-.742 13.24 13.24 0 0 1 .594-2.817c.713-2.14 2.175-4.482 5.193-5.507 5.497-1.862 9.53-4.38 12.195-6.438 1.332-1.03 2.322-1.942 2.98-2.6.33-.33.577-.595.742-.78l.108-.123h22.462z"/><path d="M347.6 421.02c-.43.055-.88.208-1.228.554-.33.33-.522.7-.564 1.126-.042.407.063.803.244 1.17.356.718 1.05 1.4 1.816 2 1.535 1.206 3.567 2.2 4.497 2.47l.25-.892c-.788-.22-2.712-1.158-4.172-2.305-.732-.575-1.295-1.163-1.558-1.693-.128-.26-.172-.48-.153-.665.018-.178.098-.367.297-.565.155-.155.385-.252.7-.3s.65-.015 1 .044a6.44 6.44 0 0 1 .876.219l.267.093.07.027.02.008.178-.427.18-.428h-.001l-.002-.001-.007-.003-.024-.01-.087-.034-.307-.107a7.45 7.45 0 0 0-1.005-.25 4.34 4.34 0 0 0-1.267-.05zm-7.074 2.682c1.128-.907 2.486-.432 3.4.1.474.273.884.6 1.173.838l.343.3.094.092.035.035.002.001c0 .001 0 .001-.335.32l-.335.32-.024-.024-.08-.078-.305-.274a7.14 7.14 0 0 0-1.034-.74c-.86-.495-1.707-.683-2.343-.17l-.001.001c-.22.176-.315.35-.35.5-.034.17-.012.38.093.636.214.526.726 1.135 1.415 1.744.678.6 1.485 1.163 2.228 1.605.752.447 1.403.75 1.772.853l-.25.9c-.5-.136-1.226-.5-2-.95-.78-.466-1.637-1.062-2.367-1.708-.72-.636-1.364-1.36-1.66-2.088-.15-.37-.223-.77-.142-1.168.083-.405.314-.76.677-1.05z"/></g><path d="M351.458 420.668l24.442 7.575v-8.932h-23.158s-.418.524-1.284 1.357z" class="F"/><path d="M323.115 419.31v16.786c0 1.743-1.41 3.147-3.158 3.147h-42.105s-.247-7.79 6.16-9.967c10.882-3.687 15.96-9.966 15.96-9.966h23.142z" class="C"/><g class="B F"><path d="M323.115 418.848H299.75l-.14.172v.002l-.05.06-.172.196-.707.744c-.633.633-1.593 1.52-2.89 2.522-2.595 2.004-6.54 4.47-11.925 6.294h0c-3.39 1.15-5.01 3.79-5.775 6.09-.383 1.15-.558 2.228-.637 3.016-.04.395-.056.72-.062.947l-.003.265.001.072v.028s0 .001.464-.014l-.464.015.014.448h42.555a3.61 3.61 0 0 0 3.622-3.611V419.31h-.464v-.463zm-.465.925v16.323c0 1.488-1.2 2.685-2.693 2.685h-41.634a12.32 12.32 0 0 1 .053-.742c.074-.74.238-1.748.594-2.817.713-2.14 2.174-4.482 5.193-5.507 5.496-1.862 9.53-4.38 12.195-6.438 1.332-1.03 2.322-1.942 2.98-2.6a19.99 19.99 0 0 0 .742-.78l.108-.123h22.462z"/><path d="M294.804 421.02c-.43.055-.88.208-1.228.554-.33.33-.522.7-.564 1.126-.042.407.064.803.244 1.17.356.718 1.05 1.4 1.816 2 1.535 1.206 3.567 2.2 4.497 2.47l.25-.892c-.788-.22-2.712-1.158-4.172-2.305-.732-.575-1.295-1.163-1.558-1.693-.128-.26-.172-.48-.153-.665.018-.178.098-.367.297-.565.155-.155.385-.252.7-.3s.65-.015 1 .044a6.44 6.44 0 0 1 .876.219l.267.093.07.027.02.008.18-.427.178-.428h-.001l-.002-.001-.007-.003-.024-.01-.087-.034-.307-.107a7.45 7.45 0 0 0-1.005-.25 4.34 4.34 0 0 0-1.267-.05zm-7.074 2.682c1.128-.907 2.486-.432 3.4.1.474.273.884.6 1.173.838l.343.3.094.092.036.036c0 .001.001.001-.334.32l-.335.32h-.001l-.004-.005-.02-.02-.08-.078-.304-.274a7.14 7.14 0 0 0-1.034-.74c-.86-.495-1.707-.683-2.343-.17v.001c-.22.176-.315.35-.348.5-.034.17-.012.38.093.636.214.526.726 1.135 1.415 1.744.678.6 1.484 1.163 2.227 1.605.753.447 1.404.75 1.773.853l-.25.9c-.5-.136-1.226-.5-2-.95-.78-.466-1.637-1.062-2.368-1.708-.72-.636-1.363-1.36-1.66-2.088-.15-.37-.223-.77-.142-1.168.083-.405.314-.76.677-1.05z"/></g><path d="M298.672 420.668l24.443 7.575v-8.932h-23.158s-.418.524-1.285 1.357z" class="F"/><path d="M364.52 252.223l15.248 159.096H347.88l-16.022-77.095-6.547 16.43v60.664h-33.204v-68.023l17.71-91.073h54.704z" class="H"/><g class="B"><path d="M363.2 411.264l-14.83-120.88-.922.112 14.83 120.88.922-.112zm-33.558-151.44l-20.818 83.414v68.08h.93v-67.966l20.8-83.304-.9-.224z" class="E"/><path d="M345.21 292.97l-19.876 57.532.88.302 19.875-57.533c.617-1.786 2.312-2.99 4.22-2.99v-.926c-2.302 0-4.353 1.45-5.1 3.614z" class="C"/></g><path d="M367.042 278.528l-2.523-26.305h-54.705l-1.563 8.084 58.8 18.22zM292.044 419.3h33.4c1.254 0 2.275-1.018 2.275-2.268v-3.456c0-1.25-1.02-2.268-2.275-2.268h-33.4c-1.254 0-2.275 1.02-2.275 2.268v3.456c.015 1.25 1.02 2.268 2.275 2.268zm55.263 0h33.4c1.254 0 2.276-1.018 2.276-2.268v-3.456c0-1.25-1.022-2.268-2.276-2.268h-33.4c-1.254 0-2.276 1.02-2.276 2.268v3.456c.016 1.25 1.022 2.268 2.276 2.268z" class="E"/><path d="M258.192 256.882L247.728 295.9l52.167 13.9 10.48-39.05c.325-1.22 1.115-2.175 2.12-2.762s2.245-.786 3.467-.462c2.43.648 3.886 3.147 3.236 5.57l-10.48 39.05 1.146.31 10.464-39.018c.836-3.1-.96-6.28-4.025-7.205l-.186-.047-50.65-13.5a5.97 5.97 0 0 0-7.276 4.196z" class="G"/><path d="M309.213 270.49L298.75 309.51l1.146.308 10.48-39.05a4.54 4.54 0 0 1 2.121-2.761 4.55 4.55 0 0 1 3.467-.463c2.43.648 3.886 3.147 3.236 5.57l-10.48 39.05 1.146.31 10.464-39.018c.836-3.1-.96-6.28-4.025-7.205a5.95 5.95 0 0 0-7.09 4.243z" class="E"/><path d="M310.374 270.752l-9.83 36.657 8.823 2.346 9.83-36.658c.65-2.422-.79-4.922-3.235-5.57a4.56 4.56 0 0 0-3.467.463c-1.006.587-1.796 1.543-2.12 2.762z" class="C"/><path d="M258.037 277.555l23.73 8.146 18.73-33.48h72.6c12.338 0 21.564-11.31 19.04-23.343l-7.554-36.164c-2.368-11.324-12.383-19.44-23.978-19.44h-49.643c-12.027 0-22.275 8.702-24.18 20.535l-7.477 35.208-21.27 48.537z" class="D"/><g class="C"><path d="M384.13 192.81l7.554 36.165c2.462 11.746-6.543 22.785-18.586 22.785h-72.872l-18.674 33.378-22.887-7.856 21.087-48.12 7.5-35.276c1.868-11.61 11.92-20.146 23.72-20.146h49.643c11.374 0 21.2 7.962 23.524 19.07zm.91-.188c-2.413-11.54-12.618-19.81-24.433-19.81h-49.643c-12.252 0-22.69 8.86-24.636 20.914l-7.464 35.15L257.4 277.83l24.574 8.436 18.787-33.58h72.326c12.632 0 22.078-11.58 19.495-23.9l-7.554-36.163z" class="B"/><path d="M376.967 251.835c8.544-1.712 14.89-8.964 15.54-17.51a9.48 9.48 0 0 0-2.152-1.111c-5.62-2.067-12.043 1.327-14.38 7.576-1.44 3.918-.944 8.022.99 11.046z"/></g><path d="M322.913 151.584v21.708h24.04l-5.542-14.44-18.498-7.267z" class="I"/><path d="M317.386 142.45c.016 0 .047.015.062.015l7.136 1.882a7.78 7.78 0 0 1 5.356 4.937h2.74a3.14 3.14 0 0 1 3.143 3.132v.046a3.13 3.13 0 0 1-2.864 3.117l.015.015s1.27 6.017 8.684 3.996l-.603-20.75c-.263-4.057-21.857-11.74-23.854-8.47-1.765 2.9.278 4.258 2.012 4.86-3.065-.648-8.854-1.512-9.442 1.065-.682 2.993 5.433 5.585 7.615 6.156z" class="E"/><path d="M315.993 153.543h.76l-.217 3.702a4.66 4.66 0 0 0 4.644 4.907h3.344c3.22 0 5.836-2.608 5.836-5.817v-.725h2.306a3.14 3.14 0 0 0 3.142-3.132v-.046a3.14 3.14 0 0 0-3.142-3.132h-2.74a7.75 7.75 0 0 0-5.356-4.937l-7.136-1.883-2.446 9.767c-.247.617.34 1.296 1.006 1.296z" class="I"/><path d="M329.593 156.244c-.212.02-.368.2-.348.42.148 1.547-.55 2.885-1.687 3.85a6.69 6.69 0 0 1-4.228 1.544c-.214 0-.387.172-.387.385s.173.386.387.386a7.47 7.47 0 0 0 4.73-1.727c1.3-1.094 2.132-2.665 1.955-4.512-.02-.212-.2-.367-.422-.347zm3.86-5.417c0-.213-.174-.386-.387-.386-1.422 0-2.57 1.145-2.57 2.562 0 .213.173.385.387.385s.387-.172.387-.385a1.79 1.79 0 0 1 1.796-1.79c.213 0 .387-.173.387-.386z" class="B E"/><path d="M318.624 150.798c-.316 0-.572-.532-.572-1.188s.256-1.188.572-1.188.573.532.573 1.188-.256 1.188-.573 1.188z" class="E"/><path d="M321.1 147.11l.235-.306c.17.13.202.37.072.54s-.372.2-.542.072l-.003-.002-.07-.05-.236-.153a7.65 7.65 0 0 0-.907-.474 7.86 7.86 0 0 0-3.178-.692c-.214 0-.387-.173-.387-.386s.173-.386.387-.386c1.43 0 2.642.38 3.493.76.427.19.765.38 1 .523l.27.175.073.052.02.014.005.005.002.001.001.001s.001 0-.234.306z" class="B E"/><path d="M328.47 262.114s-18.962.818-25.634-14.348l3.53-6.434 10.54 4.042 11.563 16.74z" class="C"/><g class="F"><path d="M306.152 240.754l-3.834 6.988.092.21c3.41 7.75 9.96 11.404 15.61 13.118 2.826.858 5.438 1.234 7.344 1.396.953.08 1.73.11 2.272.117h.627l.167-.004c.02-.001.034-.001.044-.002h.016l-.02-.463.02.463.84-.036-12.12-17.547-11.055-4.24zm21.437 20.9c-.52-.008-1.253-.036-2.147-.112-1.86-.158-4.404-.526-7.153-1.36-5.447-1.653-11.65-5.124-14.936-12.398l3.224-5.877 10.028 3.845 10.984 15.9z" class="B"/><path d="M313.284 169.312a3.82 3.82 0 0 1 2.368 1.096 3.76 3.76 0 0 1 1.115 2.669v76.015c0 7.25 5.897 13.13 13.173 13.13h29.24c7.863 0 13.93-6.804 13.095-14.534v-.015l-10.526-72.158a7.26 7.26 0 0 0-7.198-6.203h-41.268z"/><path d="M361.29 175.58l10.524 72.156c.806 7.457-5.048 14.02-12.634 14.02h-29.24c-7.02 0-12.71-5.67-12.71-12.667v-76.015c0-1.18-.488-2.236-1.25-2.996a4.5 4.5 0 0 0-.342-.306h38.913c3.39 0 6.246 2.47 6.74 5.807zm-48.007-6.27v-.463h41.268c3.854 0 7.098 2.807 7.658 6.597l10.53 72.217c.85 7.99-5.427 15.02-13.56 15.02h-29.24c-7.532 0-13.638-6.086-13.638-13.593v-76.015a3.3 3.3 0 0 0-.978-2.342c-.543-.54-1.277-.894-2.08-.96l.04-.46z" class="B"/></g><path d="M316.226 169.312c.913.077 1.75.48 2.368 1.096.573.57.96 1.31 1.068 2.144l.03.51 8.05 76.016c0 7.25 5.898 13.13 13.174 13.13h18.25c7.864 0 13.932-6.804 13.096-14.533v-.016l-4.752-32.615-5.774-39.543c-.047-.34-.124-.68-.217-1.018a7.26 7.26 0 0 0-6.966-5.184h-38.327v.015z" class="C"/><path d="M361.075 174.607c.09.326.16.643.203.955l.001.002 10.524 72.158c.806 7.458-5.048 14.02-12.634 14.02h-18.25c-7.02 0-12.708-5.67-12.708-12.666v-.025l-8.05-76.016c-.001-.182-.018-.36-.032-.517l-.001-.018-.002-.008c-.122-.94-.56-1.774-1.2-2.413a4.23 4.23 0 0 0-.361-.32h35.992c3.04 0 5.677 2.005 6.52 4.847zm.892-.257c-.955-3.235-3.953-5.516-7.41-5.516h-38.792v.904l.425.035a3.35 3.35 0 0 1 2.079.962c.503.5.84 1.145.935 1.868.016.17.028.316.028.458v.025l8.05 76.015c.013 7.496 6.114 13.568 13.637 13.568h18.25c8.133 0 14.4-7.03 13.56-15.02v-.024l-4.757-32.65-5.773-39.54c-.05-.367-.133-.727-.23-1.077v-.005l-.002-.004z" class="B F"/><path d="M322.742 184.447l2.77 20.72c.914 4.243 4.226 6.51 9.025 7.282l32.817 4.752-4.783-32.77h-39.83v.015z" class="D"/><g class="F"><path d="M317.4 169.313h.82c1.486-.016 2.786 1.033 3.08 2.5l4.83 31.057c.913 4.243 4.675 7.282 9.024 7.282h30.2c3.653 0 6.378-3.363 5.588-6.927l-5.82-26.35c-.975-4.413-4.907-7.56-9.443-7.56H317.4z"/><path d="M318.22 168.85h-.818v.925h.882c1.235.014 2.31.894 2.56 2.118l4.83 31.06.003.013a9.7 9.7 0 0 0 9.479 7.648h30.2c3.95 0 6.895-3.636 6.04-7.5l-5.82-26.35c-1.022-4.625-5.143-7.923-9.896-7.923H318.22zm2.43.925h35.032c4.318 0 8.06 2.997 8.99 7.197l5.82 26.352c.726 3.274-1.777 6.364-5.134 6.364h-30.2a8.77 8.77 0 0 1-8.568-6.903l-4.83-31.064c-.155-.773-.554-1.446-1.107-1.946z" class="B"/></g><path d="M342.293 218.79l-7.694-46.886c-.155-.94-.975-1.65-1.935-1.65a1.96 1.96 0 0 0-1.935 2.283l7.694 46.887c.154.94.975 1.65 1.935 1.65a1.96 1.96 0 0 0 1.935-2.284z" class="C"/><path d="M334.14 171.98l7.693 46.888c.154.92-.556 1.745-1.477 1.745a1.51 1.51 0 0 1-1.476-1.263l-7.694-46.888c-.154-.92.556-1.744 1.477-1.744a1.51 1.51 0 0 1 1.477 1.262zm.916-.15a2.44 2.44 0 0 0-2.393-2.039c-1.493 0-2.64 1.336-2.393 2.822l7.693 46.886c.19 1.16 1.2 2.038 2.393 2.038 1.493 0 2.64-1.335 2.393-2.82l-7.693-46.886z" class="B F"/><path d="M359.49 218.79l-7.693-46.886c-.155-.94-.975-1.65-1.935-1.65a1.96 1.96 0 0 0-1.935 2.283l7.693 46.887c.155.94.976 1.65 1.935 1.65a1.96 1.96 0 0 0 1.935-2.284z" class="C"/><path d="M351.34 171.98l7.693 46.888c.154.92-.555 1.745-1.477 1.745a1.51 1.51 0 0 1-1.476-1.263l-7.694-46.888c-.154-.92.556-1.744 1.477-1.744a1.51 1.51 0 0 1 1.477 1.262zm.916-.15a2.44 2.44 0 0 0-2.393-2.039c-1.493 0-2.64 1.336-2.393 2.822l7.693 46.886c.19 1.16 1.2 2.038 2.393 2.038 1.494 0 2.642-1.335 2.394-2.82l-7.694-46.886z" class="B F"/><path d="M309.182 173.308l7.57.03v-.262c0-1.05-.417-2-1.114-2.67a3.78 3.78 0 0 0-2.368-1.096h-.62c-1.904.155-3.405 1.76-3.467 3.996z" class="C"/><path d="M313.288 168.85h-.657-.02c-2.17.176-3.827 2-3.894 4.445l-.013.473 8.51.035v-.727c0-1.174-.47-2.233-1.253-2.998a4.24 4.24 0 0 0-2.656-1.228l-.02-.001zm-.04.925a3.32 3.32 0 0 1 2.06.96l.001.002.002.002a3.22 3.22 0 0 1 .969 2.135l-6.597-.026c.234-1.763 1.484-2.942 2.985-3.073h.58z" class="B F"/><path d="M260.872 278.527l-6.377 16.4c-1.022 2.638.464 5.57 3.188 6.325l14.01 3.826a2.63 2.63 0 0 0 2.415-.54l1.424-1.234-2.9-.77a2.81 2.81 0 0 1-2.089-2.855l.325-3.27c.062-1.466 1.253-2.64 2.724-2.685h-.155c1.78-.062 3.514-1.157 4.21-2.792l2.23-5.91-18.994-6.496z" class="I"/><g class="B C"><path d="M280.372 285.228c-.236-.1-.5.01-.6.246l-2.384 5.6a4.12 4.12 0 0 1-3.643 2.51c-1.713.054-3.1 1.42-3.173 3.126l-.17 3.58c-.074 1.572.966 2.78 2.433 3.168l2.3.617c.248.067.503-.08.57-.326s-.08-.5-.328-.567l-2.293-.618c-1.1-.3-1.795-1.15-1.745-2.23l.17-3.582a2.35 2.35 0 0 1 2.275-2.241h.001c1.963-.068 3.7-1.276 4.467-3.074l2.384-5.6c.1-.235-.01-.507-.246-.607zm-15.067 9.7c-.256-.012-.473.185-.485.44l-.217 4.567c-.087 1.915 1.17 3.622 3.023 4.1.248.065.502-.082.568-.33s-.083-.5-.33-.566c-1.428-.376-2.4-1.692-2.332-3.172l.216-4.567c.012-.255-.185-.472-.442-.484z"/><path d="M259.377 293.4c-.256-.012-.474.185-.486.44l-.217 4.568c-.087 1.914 1.17 3.622 3.024 4.1.248.065.502-.083.567-.33a.46.46 0 0 0-.33-.565 3.13 3.13 0 0 1-2.333-3.172l.217-4.567c.012-.255-.186-.472-.442-.484zm52.183-63.632l3.746-19.532-.913-.174-3.746 19.533a31.2 31.2 0 0 1-3.417 9.38v.001l-25.662 46.16-23.362-8.02-.302.875L282 286.266l26.04-46.84a32.16 32.16 0 0 0 3.518-9.658z"/></g><path d="M299.167 254.444l8.468-15.243a32.49 32.49 0 0 0 3.173-8.177c-.805-.263-1.64-.448-2.523-.525-6.687-.586-12.616 5.014-13.25 12.497-.37 4.536 1.285 8.717 4.133 11.448z" class="C"/><defs ><path id="B" d="M244.337 288.57c0-.255-.208-.463-.464-.463H80.347c-.256 0-.464.208-.464.463s.208.463.464.463h163.527c.256 0 .464-.207.464-.463z"/><path id="C" d="M90.625 414.48c.838 0 1.517.677 1.517 1.512s-.68 1.512-1.517 1.512-1.517-.677-1.517-1.512.68-1.512 1.517-1.512zm2.446 1.512c0-1.346-1.095-2.437-2.446-2.437s-2.446 1.09-2.446 2.437 1.095 2.438 2.446 2.438 2.446-1.09 2.446-2.438z"/><path id="D" d="M83.905 419.34c.838 0 1.517.677 1.517 1.512s-.68 1.512-1.517 1.512-1.517-.677-1.517-1.512.68-1.512 1.517-1.512zm2.446 1.512c0-1.347-1.095-2.438-2.446-2.438s-2.446 1.09-2.446 2.438 1.095 2.437 2.446 2.437 2.446-1.09 2.446-2.437z"/><path id="E" d="M76.722 426.684c.838 0 1.517.676 1.517 1.51s-.68 1.512-1.517 1.512-1.517-.677-1.517-1.512.68-1.51 1.517-1.51zm2.446 1.51c0-1.346-1.095-2.437-2.446-2.437s-2.446 1.09-2.446 2.437 1.095 2.438 2.446 2.438 2.446-1.09 2.446-2.438z"/><path id="F" d="M68.704 420.62c.838 0 1.517.677 1.517 1.512s-.68 1.512-1.517 1.512-1.517-.677-1.517-1.512.68-1.512 1.517-1.512zm2.446 1.512c0-1.346-1.095-2.438-2.446-2.438s-2.446 1.092-2.446 2.438 1.095 2.438 2.446 2.438 2.446-1.092 2.446-2.438z"/></defs></svg>