<svg xmlns="http://www.w3.org/2000/svg" width="600" height="440" fill="none" xmlns:v="https://vecta.io/nano"><style><![CDATA[.B{fill-rule:evenodd}.C{fill:#9a3b82}.D{fill:#fff}.E{fill:#fe5244}.F{fill:#73325a}.G{fill:#e57281}.H{fill:#ffcf2d}.I{fill:#a0505a}.J{fill:#3fb1b5}]]></style><path d="M587.003 439.44l-181.918.326-70.55.232c-59.796 0-114.454-.496-156.257-1.318H10c0-29.883 32.714-16.757 41.34-11.482 10.03 6.13-2.886-26.5 17.592-26.5 17.53 0 27.56 8.86 27.56 8.86s.478-17.222 17.098-17.47 27.174 14.476 40.3 26.593c5.417 4.996 11.93 8.968 18.086 11.994l162.568-1.46 84.547.357c46.695 0 89.455-24.685 101.584-30.875 29.967-15.33 15.77 21.21 15.77 21.21s23.1-9.775 39.35-9.697c22.946.093 11.218 29.23 11.218 29.23z" fill="#d0f0e4"/><g class="B"><g class="H"><path d="M466.876 382.852l.586.262c15.16 6.78 21.552 20.703 24.16 32.85 1.305 6.077 1.668 11.73 1.704 15.863a74.12 74.12 0 0 1-.112 4.928l-.096 1.356-.032.357-.01.092-.002.024-.001.007v.002l-.46-.05-.46-.052v-.006l.003-.02.008-.087.032-.345.094-1.33c.066-1.155.13-2.822.11-4.866-.037-4.088-.396-9.675-1.684-15.675-2.542-11.846-8.687-25.22-23.04-31.925l-.1 1.28c-.09 1.228-.205 2.98-.295 5.074-.18 4.19-.264 9.736.116 15.186.256 3.674.722 7.28 1.503 10.4 2.16.854 4.033 1.803 5.583 2.762 2.4 1.485 4.072 3.03 4.776 4.333.35.648.51 1.33.26 1.93-.254.612-.858.965-1.63 1.12h-.001c-1.99.395-3.685-.014-5.102-1.047-1.4-1.02-2.495-2.628-3.357-4.582-.507-1.15-.94-2.437-1.305-3.818-4.2-1.605-9.465-2.844-15.493-3.084l.22.345a76.9 76.9 0 0 0 1.938 2.861c1.684 2.37 4.118 5.535 7.116 8.71 6.018 6.37 14.218 12.677 23.14 12.85l-.018.93c-9.317-.182-17.744-6.738-23.794-13.14-3.035-3.213-5.496-6.413-7.197-8.81-.85-1.2-1.513-2.197-1.962-2.897l-.513-.813-.132-.216-.033-.056-.01-.015-.003-.004c0-.001 0-.001.398-.24l-.398.238-.428-.723.837.02c6.204.147 11.66 1.34 16.058 2.947-.71-3.044-1.137-6.478-1.378-9.926-.383-5.498-.298-11.084-.117-15.29a163.26 163.26 0 0 1 .297-5.103l.115-1.438.034-.38c.003-.043.007-.076.01-.098l.002-.025.001-.01.46.045-.46-.045.063-.642zm2.327 34.438a23.91 23.91 0 0 0 1.072 3.01c.826 1.874 1.836 3.318 3.054 4.205 1.2.876 2.634 1.234 4.38.888.627-.125.872-.36.957-.564.1-.218.075-.58-.22-1.127-.587-1.086-2.093-2.526-4.45-3.984-1.347-.835-2.955-1.664-4.793-2.428z"/><path d="M507.935 413.838c-.66.07-1.49.257-2.515.585-9.08 2.916-14.04 9.05-16.74 14.47-1.35 2.712-2.132 5.242-2.577 7.093a27.87 27.87 0 0 0-.44 2.201c-.04.26-.068.462-.085.598l-.017.153-.004.038-.001.01v.001l-.46-.042-.46-.043v-.005l.002-.012.004-.044.02-.168c.018-.146.046-.358.09-.63.085-.543.227-1.322.455-2.274.457-1.904 1.26-4.503 2.65-7.292 2.78-5.58 7.9-11.93 17.286-14.94h0c1.06-.34 1.955-.544 2.698-.624s1.362-.036 1.855.153c.513.196.873.546 1.055 1.028.175.46.172.995.065 1.55-.21 1.108-.866 2.486-1.767 3.983-.908 1.508-2.09 3.18-3.398 4.885-2.616 3.41-5.75 6.985-8.228 9.703l-3.083 3.313-.9.94-.24.25c-.027.03-.048.05-.063.065l-.02.02c0 .001 0 .001-.33-.325l-.33-.327.02-.02.062-.063.24-.247.895-.936 3.07-3.3c2.47-2.7 5.585-6.262 8.177-9.643 1.297-1.7 2.457-3.33 3.34-4.798.89-1.478 1.47-2.738 1.65-3.677.09-.467.07-.808-.02-1.043-.082-.215-.235-.38-.52-.5-.304-.116-.763-.168-1.428-.097z"/></g><g class="E"><path d="M84.356 365.444l-.317.22.317-.22.001.001.001.002.004.007.014.02.05.08.18.31c.153.278.37.7.628 1.294.52 1.188 1.21 3.06 1.923 5.823 1.378 5.35 2.828 14.04 3.22 27.556l1.348-2.197a203.33 203.33 0 0 1 5.14-7.849c4.136-5.997 9.432-12.883 13.98-16.262l.652-.484-.037.814-.386-.018.386.018v.02c-.001.013-.002.033-.003.06l-.012.23-.05.88-.228 3.24a211.02 211.02 0 0 1-1.129 10.764c-1.046 7.946-2.808 17.457-5.71 24.32l.447-.27c.984-.58 2.368-1.28 3.958-1.754 3.183-.95 7.25-1 10.518 2.716 1.65 1.875 2.08 3.98 1.796 6.056-.282 2.06-1.263 4.086-2.423 5.858s-2.52 3.32-3.583 4.42a33.12 33.12 0 0 1-1.321 1.293l-.385.35-.105.09c-.012.01-.02.02-.027.024l-.008.006-.002.003s-.001 0-.25-.297l-.23-.274-.018-.022h.001l.006-.005a.8.8 0 0 0 .025-.022l.054-.047c.014-.012.028-.025.044-.04a18.65 18.65 0 0 0 .373-.337 33.05 33.05 0 0 0 1.29-1.263c1.044-1.08 2.366-2.585 3.492-4.306s2.043-3.64 2.302-5.538c.258-1.882-.127-3.75-1.61-5.436-2.997-3.406-6.7-3.387-9.72-2.486-1.512.45-2.838 1.12-3.788 1.68-.474.28-.852.53-1.11.71-.13.1-.23.162-.296.212l-.075.056c-.008.006-.014.01-.018.014l-.004.003h-.001l-1.27.996.685-1.467c3.183-6.806 5.09-16.91 6.2-25.344.555-4.21.91-7.994 1.125-10.725l.227-3.226.02-.336c-4.285 3.447-9.206 9.86-13.145 15.57a202.84 202.84 0 0 0-5.12 7.819l-1.487 2.427-.397.665-.102.173-.026.044-.008.014h0s0 0-.333-.196l.333.196-.687 1.176-.032-1.363c-.33-14.236-1.825-23.26-3.23-28.712-.702-2.726-1.382-4.56-1.882-5.706-.22-.505-.407-.877-.544-1.133-2.27 2.8-4.235 6.865-5.91 11.432-1.758 4.792-3.186 10.115-4.31 15.088s-1.938 9.587-2.472 12.96l-.595 4.013-.146 1.1-.036.286-.01.073-.003.024c0 0 0 0-.383-.046l.383.046-.124 1.043-.58-.874c-4.914-7.41-13.183-12.88-20.262-16.506a91.87 91.87 0 0 0-9.101-4.043 73.85 73.85 0 0 0-2.775-.998l-.356-.12c3.8 14.475 12.083 26.175 19.49 34.297 3.76 4.123 7.288 7.32 9.875 9.484 1.293 1.083 2.35 1.907 3.085 2.46l.846.624.22.157.055.038.014.01.003.002.001.001c0 0 0 0-.218.32l-.22.32-.005-.003-.015-.01c-.013-.01-.033-.023-.058-.04l-.226-.16-.86-.635c-.743-.56-1.81-1.392-3.115-2.484-2.608-2.182-6.162-5.403-9.95-9.555-7.572-8.303-16.096-20.352-19.844-35.308l-.166-.662.65.195-.1.372.11-.37.005.001.014.004c.012.004.03.01.052.016l.2.063.767.25c.664.223 1.623.56 2.804 1.008a92.68 92.68 0 0 1 9.178 4.078c6.853 3.51 14.905 8.78 19.98 15.93l.066-.488.597-4.03c.537-3.383 1.355-8.015 2.482-13.008s2.563-10.35 4.337-15.185c1.772-4.828 3.89-9.165 6.398-12.088l.325-.38.284.41z"/><path d="M83.668 366.675l.386-.002.386-.001v.178l.002.522.004 1.987-.01 7.153-.217 22.252-.744 23.77-.67 9.06c-.26 2.466-.567 4.36-.935 5.416l-.728-.257c.334-.958.634-2.768.896-5.242l.665-9.018c.37-6.952.6-15.47.743-23.742l.217-22.24.004-9.656-.001-.178z"/><path d="M109.85 375.967c0-.001 0-.001.36.14l.36.14-.013.035-.04.102-.157.402-.603 1.537-2.232 5.584-7.47 17.83c-2.95 6.78-6.22 13.976-9.395 20.296-3.172 6.313-6.26 11.78-8.85 15.085l-.606-.48c2.536-3.24 5.596-8.646 8.766-14.956 3.167-6.302 6.43-13.482 9.377-20.257l7.46-17.813 2.23-5.577.603-1.534.21-.536zm-11.865 43.6c-.678.86-.92 1.573-.755 2.118.098.312.216.405.287.434s.217.04.46-.073c.494-.23 1.14-.83 1.82-1.657.67-.813 1.334-1.797 1.873-2.733.406-.703.73-1.363.936-1.892l-1.843 1.26c-1.116.826-2.116 1.704-2.78 2.544zm5.218-4.174c1.445-.877 2.754-1.534 3.407-1.778l-.27-.727c-1.098.4-3.76 1.827-6.035 3.5-1.138.842-2.2 1.768-2.925 2.685-.708.898-1.175 1.894-.887 2.83v.001c.134.43.364.77.73.92.36.15.74.07 1.077-.086.664-.307 1.403-1.03 2.092-1.866.7-.85 1.4-1.872 1.947-2.838.553-.96.993-1.894 1.176-2.567l-.312-.086zm-32.34 4.108c.172.34.342.43.492.437h0c.5.02.8-.063 1.014-.186.196-.117.32-.3.4-.534.15-.526.022-1.333-.315-2.317-.477-1.4-1.3-2.94-1.964-4.164l-.027.4c-.118 1.784-.147 3.545.02 4.86.084.66.215 1.174.388 1.515zm-1.05-8.052l-.02.01.016.03-.126 1.586c-.12 1.795-.153 3.618.025 5 .088.7.233 1.3.466 1.77s.602.838 1.15.86c.58.024 1.063-.07 1.44-.294.386-.232.622-.58.738-.988.22-.776.014-1.786-.327-2.783-.538-1.57-1.505-3.345-2.193-4.6l-.382-.707.353-3.093.227-1.6.095-.608-.38-.063-.38-.064v.01l-.025.15-.07.455-.228 1.624-.374 3.312z"/></g></g><path d="M419.02 386.115c-10.493 5.167-9.506 15.08-9.598 21.737-.108 7.09-13.564 10.8-13.564 10.8 3.58-11.342 1.034-23.025 1.034-23.025l22.128-9.51z" class="I"/><path d="M430.145 412.23l-2.392 1.303-5.015-11.528a1.59 1.59 0 0 0-1.451-.962c-.2 0-.416.047-.617.124-.51.218-.88.698-.94 1.257l-2.207 16.7-29.026 15.888c-.864-2.08 4.52-7.292 7.376-16.37 0 0 13.472-3.708 13.564-10.8.093-6.656-.88-16.586 9.598-21.737l2.207-.946c12.036 5.57 8.904 27.06 8.904 27.06z" class="H"/><path d="M421.226 303.31v81.86l-24.01 10.472-17.993-82.184c8.055.3 21.48-1.397 42.004-10.147z" class="D"/><g class="B C"><path d="M421.612 302.725v82.7l-24.673 10.762-18.2-83.135.5.02c7.985.307 21.353-1.382 41.84-10.117l.536-.228zm-41.906 11.136L397.49 395.1l23.35-10.184v-81.02c-19.847 8.395-33.033 10.19-41.134 9.966z"/><path d="M407.926 390.793l-4.738-80.26.77-.046 4.738 80.26-.77.046z"/></g><path d="M421.226 303.31v21.426l-40.862-5.942-1.142-5.337c8.055.3 21.48-1.397 42.004-10.147z" class="C"/><path d="M542.238 247.765l-15.523 3.3c-.525.108-1.05-.063-1.42-.45-.262-.295-.4-.652-.4-1.024 0-.404.154-.807.478-1.102l8.642-8.145-1.914-1.723s-20.06 3.957-21.202 16.54l1.527 1.675c7.886 7.79 16.388 3.77 22.33 1.753 5.68-1.923 12.453 6.936 13.796 8.767h.062c8.95-.295 15.292 2.9 16.85 1.458l-23.224-21.04z" class="H"/><path d="M512.44 256.826c7.885 7.79 16.388 3.77 22.33 1.753 6.327-2.14 13.873 8.767 13.873 8.767-11.203.356-20.755 6.33-20.755 6.33l-15.447-16.85z" class="I"/><path d="M416.582 304.01s3.904 26.516 33.856 26.02 77.125-56.507 77.125-56.507l-16.59-18.277-94.392 48.765z" class="D"/><g class="B C"><path d="M511.06 254.764l17.016 18.748-.22.26-.294-.25.294.252-.01.01-.026.03-.102.12-.402.47-1.552 1.782-5.76 6.36c-4.896 5.264-11.736 12.29-19.516 19.33s-16.502 14.105-25.164 19.443c-8.653 5.332-17.29 8.97-24.882 9.096-15.113.25-23.692-6.324-28.48-12.984-2.388-3.322-3.828-6.66-4.67-9.163-.42-1.253-.694-2.3-.862-3.035-.084-.367-.142-.657-.18-.856l-.04-.23c-.004-.027-.007-.047-.01-.06l-.002-.016v-.004-.001c0-.001 0-.001.382-.058l-.382.057-.04-.275 94.9-49.027zM417 304.224c.037.2.093.48.174.837.163.713.43 1.734.84 2.96.825 2.45 2.233 5.713 4.565 8.958 4.653 6.473 13.002 12.908 27.84 12.662 7.384-.122 15.876-3.672 24.492-8.98 8.606-5.304 17.292-12.335 25.05-19.36s14.583-14.03 19.468-19.284l5.746-6.344 1.546-1.775.314-.367-16.16-17.805-93.878 48.5z"/><path d="M470.988 305.68c-6.037 2.928-11.917 4.757-17.273 4.844-7.162.117-11.98-1.48-15.137-4.045s-4.607-6.057-5.11-9.616l.764-.11c.484 3.423 1.863 6.712 4.83 9.122s7.59 3.988 14.64 3.872h0c5.2-.084 10.964-1.864 16.95-4.767s12.16-6.912 18.182-11.43c12.043-9.04 23.427-20.09 31.306-28.3l.555.54c-7.892 8.214-19.308 19.297-31.4 28.372-6.046 4.538-12.268 8.58-18.31 11.51z"/></g><g class="E"><path d="M547.315 201.158c-2.732-1.04-9.228 2.53-14.12 8.735-5.262 6.656-7.39 13.73-5.077 15.577l-74.116-39.626c-3.642-1.94-7.84 1.38-6.805 5.384l22.437 85.458c-76 49.588-100.365 34.724-100.365 34.724V30.582c0 .015 0 .015.016.03.648 1.66 7.607.497 15.555-2.622 7.314-2.855 12.9-6.36 13.255-8.192l.015-.015v88.484a15.34 15.34 0 0 0 7.793 13.375l141.412 79.516z"/><path d="M547.315 201.158c-2.732-1.04-9.228 2.53-14.12 8.735-5.262 6.656-7.39 13.73-5.077 15.577l-74.116-39.626c-3.642-1.94-7.84 1.38-6.805 5.384l22.437 85.8c-19.32 12.614-35.307 20.713-48.408 26.298-20.523 8.735-33.948 10.458-42.003 10.147-7.022-.263-9.954-2.063-9.954-2.063V30.582c0 .015 0 .015.016.03.648 1.66 7.607.497 15.555-2.622 7.314-2.855 12.9-6.36 13.255-8.192l.015-.015v88.484a15.34 15.34 0 0 0 7.793 13.375l141.412 79.516z"/></g><path d="M440.6 178.734a.46.46 0 0 1 .628-.187l87.11 47.508c.225.122.308.405.186.63a.46.46 0 0 1-.627.187l-87.11-47.508c-.225-.123-.31-.405-.187-.63z" class="B D"/><path d="M407.97 122.79l-9.768 57.08 49.86-34.522-40.09-22.56z" class="H"/><g class="D"><path d="M408.05 122.33c.252.044.42.284.377.538l-9.58 55.992 48.953-33.895a.46.46 0 0 1 .644.119c.145.212.092.502-.12.647l-50.763 35.15 9.954-58.17c.043-.254.283-.424.535-.38z" class="B"/><path d="M407.57 12.614L343.206 25.88c-2.376.497-4.83-1.63-5.463-4.748s.787-6.035 3.164-6.532L405.27 1.334l2.3 11.28z"/></g><path d="M405.57.877l2.454 12.04-64.74 13.343m-.001 0c-1.33.277-2.655-.185-3.714-1.105s-1.872-2.31-2.204-3.945c-.655-3.23.794-6.432 3.463-6.99h.001L405.57.877m-.6.916L340.985 14.98c-2.083.436-3.474 3.068-2.864 6.075.3 1.482 1.032 2.715 1.952 3.514s2.008 1.15 3.055.932h.001l63.985-13.188-2.144-10.52z" class="B J"/><path d="M407.547 12.624c2.38-.5 3.793-3.412 3.16-6.527s-3.08-5.24-5.458-4.75-3.794 3.412-3.16 6.527 3.08 5.24 5.458 4.75z" class="D"/><path d="M402.885 3.795c-.53 1.098-.72 2.52-.418 4s1.03 2.713 1.95 3.512 2.006 1.153 3.053.937 1.9-.972 2.44-2.07.72-2.52.418-4-1.032-2.713-1.95-3.512-2.005-1.153-3.053-.937-1.91.972-2.44 2.07zm-.694-.34c.612-1.265 1.648-2.215 2.98-2.5s2.656.2 3.713 1.1 1.867 2.31 2.2 3.943.132 3.23-.48 4.495-1.647 2.215-2.98 2.5-2.655-.2-3.713-1.1-1.867-2.31-2.2-3.943-.132-3.23.48-4.495z" class="B J"/><path d="M370.844 18.262s-20.817 23.52-18.548 28.703c2.962 2.963 5.37 4.267 5.015 5.368-.386 1.195-5.37 8.41-5.37 8.41l-.494-5.353-4.768 1.583s5.03-7.385 5.354-9.65c-2.068-1.583-6.28-4.872-6.14-7.168.154-2.436 7.53-11.094 12.885-17.067l-8.07 2.684-1.59-7.494 14.52-2.684 7.206 2.67z" class="E"/><path d="M368.02 19.285c2.42 0 4.383-1.973 4.383-4.406s-1.962-4.406-4.383-4.406-4.382 1.973-4.382 4.406 1.962 4.406 4.382 4.406z" class="D"/><path d="M368.02 10.862c-2.207 0-3.996 1.8-3.996 4.018s1.79 4.02 3.996 4.02 3.997-1.8 3.997-4.02-1.79-4.018-3.997-4.018zm-4.768 4.018c0-2.648 2.135-4.794 4.768-4.794s4.77 2.146 4.77 4.794-2.135 4.794-4.77 4.794-4.768-2.146-4.768-4.794z" class="B E"/><path d="M398.095 19.798c-.354 1.83-5.94 5.337-13.255 8.192-7.947 3.103-14.907 4.282-15.555 2.622 0-.015 0-.015-.015-.03-.556-1.676 5.34-5.508 13.24-8.596 7.947-3.103 14.907-4.282 15.555-2.622a.8.8 0 0 1 .03.434z" class="C"/><path d="M392.74 6.765l-.848 12.32-.402 5.896c-1.928 1.024-4.197 2.048-6.65 3-4.167 1.63-8.056 2.715-10.9 3.165V19.89l11.712-2.42s.648-4.205 1.883-7.727c1.22-3.537 5.215-2.98 5.215-2.98z" class="I"/><g class="F"><path d="M386.038 16.657a.31.31 0 0 1 .227.375.66.66 0 0 1-.159.278 1.77 1.77 0 0 1-.229.203c-.17.13-.395.272-.644.426l-.225.138-1.554 1.022c-1.277.947-2.442 2.204-2.442 3.9a.31.31 0 0 1-.309.31.31.31 0 0 1-.309-.31c0-2.018 1.38-3.437 2.693-4.4.567-.42 1.14-.77 1.603-1.055l.22-.135.594-.39a1.19 1.19 0 0 0 .146-.128c.01-.012.017-.02.02-.024a.31.31 0 0 1 .368-.21z" class="B"/><path d="M391.89 19.084l-.4 5.896c-1.93 1.024-4.198 2.048-6.65 3-4.167 1.63-8.056 2.715-10.9 3.165v-5.09c2.283-1.35 5.262-2.777 8.58-4.08 3.457-1.365 6.73-2.358 9.383-2.9z"/></g><path d="M384.222 12.925l-13.07 3c-.694.155-1.342-.403-1.342-1.18V6.78c0-1.07.648-2 1.59-2.312L384.315.233c.818-.264 1.636.388 1.636 1.303v9.092c-.016 1.102-.726 2.064-1.73 2.296z" class="I"/><path d="M374.982 3.604a.31.31 0 0 1-.206.387 2 2 0 0 0-1.416 1.922v7.65a.84.84 0 0 0 1.014.829.31.31 0 0 1 .131.606c-.902.197-1.763-.493-1.763-1.436v-7.65c0-1.16.753-2.18 1.856-2.516.163-.05.335.043.384.207zm3.765-1.15a.31.31 0 0 1-.207.387c-.834.253-1.416 1.058-1.416 1.984v7.882c0 .57.506.972 1.015.86a.31.31 0 1 1 .131.606c-.9.2-1.763-.518-1.763-1.467v-7.88c0-1.184.745-2.24 1.855-2.578a.31.31 0 0 1 .385.208zm4.21-1.29a.31.31 0 0 1-.201.39c-.832.266-1.42 1.1-1.42 2.063v8.16c0 .595.514 1 1.014.9a.311.311 0 0 1 .132.607c-.92.2-1.763-.542-1.763-1.498v-8.16c0-1.2.74-2.3 1.85-2.654a.31.31 0 0 1 .387.202z" class="B F"/><path d="M541.575 216.58c-5.262 6.672-11.157 10.722-13.472 8.875s-.185-8.906 5.077-15.577c4.907-6.206 11.388-9.775 14.12-8.735l.54.3c2.33 1.862-1.003 8.47-6.265 15.127z" class="C"/><path d="M565.385 227.797l-3.503 1.862c-1.39.745-3.117.217-3.858-1.18l-3.688-6.89-5.586-1.924c.617.233 3.025 1.474 2.27 5.99l-17.623-6.61-4.274-2.747c1.003-2.048 2.376-4.25 4.09-6.407 1.435-1.816 2.994-3.398 4.552-4.702l4.46 3.134 4.567.497 7.423.79c1.188.124 2.33.528 3.333 1.164l5.926 4.236c.864.62 1.435 1.55 1.574 2.606l1.203 8.472a1.65 1.65 0 0 1-.864 1.706z" class="I"/><path d="M556.508 213.824c.1-.14.292-.172.43-.073l5.138 3.677c.812.578 1.35 1.476 1.5 2.47l1.05 6.85c.093.73-.26 1.448-.92 1.8-.152.08-.338.02-.416-.134a.31.31 0 0 1 .133-.418 1.13 1.13 0 0 0 .592-1.155l-1.05-6.838c-.126-.835-.576-1.582-1.246-2.06l-5.14-3.677a.31.31 0 0 1-.073-.433zm-3.18 1.226a.31.31 0 0 1 .431-.073l5.138 3.677c.8.578 1.35 1.476 1.5 2.472l1.05 6.85c.093.73-.26 1.448-.92 1.8a.31.31 0 0 1-.416-.134.31.31 0 0 1 .134-.418 1.13 1.13 0 0 0 .591-1.155l-1.05-6.84c-.126-.835-.576-1.58-1.246-2.058h-.001l-5.138-3.677a.31.31 0 0 1-.073-.433zm-8.605 3.23c.055-.162.23-.25.4-.194l3.735 1.272a.31.31 0 0 1 .193.394c-.055.162-.23.25-.4.194l-3.735-1.272c-.16-.055-.248-.232-.193-.394z" class="B F"/><path d="M546.8 208.822c-1.25 2.374-3.07 5.074-5.2 7.773-1.22 1.536-2.453 2.933-3.688 4.143l-4.506-1.69-4.274-2.747c1.003-2.048 2.376-4.25 4.09-6.407 1.435-1.816 2.994-3.398 4.552-4.702l4.46 3.135 4.567.496z" class="F"/><path d="M412.044 81.363l33.008 14.724 11.774 34.63-23.92-17.19-11.157-13.7-9.706-18.463z" class="E"/><path d="M421.75 99.827s10.802 1.862 15.153 13.964l2.3-2.327s-4.182-11.776-15.23-14.802l-2.222 3.165z" class="C"/><path d="M486.13 114.86c-3.704-2.1-7.13-3.273-8.225-2.855a1.38 1.38 0 0 0 .108-.62c-.062-.683-.617-1.195-1.28-1.195h-.108a1.31 1.31 0 0 0-1.188 1.397c0 .046.016.093.016.124l-3.92 2.53a2.76 2.76 0 0 1-2.886.093c-.926-.512-1.466-1.443-1.466-2.498v-5.663c0-2.467-1.22-4.748-3.27-6.113a7.25 7.25 0 0 0-6.882-.621l-7.47 3.35-2.84-8.362L413.54 79.64c-.2-.093-.448 0-.54.217a.41.41 0 0 0 .216.543l32.838 14.646 11.712 34.46c.062.17.216.28.386.28.046 0 .093-.015.14-.015a.43.43 0 0 0 .262-.528l-8.718-25.662 7.53-3.383a6.37 6.37 0 0 1 6.096.543c1.82 1.21 2.9 3.228 2.9 5.43v5.663c0 1.365.71 2.575 1.898 3.227.555.3 1.157.465 1.76.465a3.62 3.62 0 0 0 1.96-.589l3.888-2.498c.232.217.54.34.864.34h.108a1.13 1.13 0 0 0 .71-.295c0 1.102 2.81 3.57 6.666 5.772l2.454 1.288c.478-.403.88-.884 1.204-1.458.324-.56.524-1.164.617-1.785l-2.36-1.443zm-9.367-2.73c-.355.03-.648-.233-.68-.574a.64.64 0 0 1 .571-.683c.34-.03.648.233.68.574a.64.64 0 0 1-.571.683z" class="H"/><path d="M419.606 120.228l-5.7 31.93 19.46-15.08v-19.906l-13.75 3.056z" class="I"/><path d="M419.605 120.228l-.7 4.003 8.61 17.378 5.848-4.53v-19.906l-13.75 3.056z" class="F"/><path d="M422.073 100.152s-9.737-2.436-12.777 3.243 5.85 7.246 6.22 5.26c.17-.87-16.002-.854-13.286 11.45 2.824 12.816 15.555 8.41 15.555 8.41l1.48-8.285 2.808-20.077z" class="D"/><path d="M422.148 99.85c.001 0 .001 0-.074.3l.075-.3.27.067-2.848 20.36-1.515 8.47-.17.06-.1-.293.1.294-.003.001h-.008c-.007.003-.016.006-.03.01l-.112.036-.42.12-1.51.33c-1.257.216-2.97.37-4.78.115s-3.728-.926-5.374-2.363-3.003-3.63-3.72-6.888c-.694-3.145-.186-5.542 1-7.34 1.178-1.79 3.003-2.95 4.88-3.68.686-.266 1.382-.477 2.06-.64-.513-.396-.945-.9-1.215-1.5-.46-1.02-.422-2.286.372-3.77 1.603-2.993 4.95-3.812 7.8-3.914 1.43-.05 2.762.078 3.734.22l1.162.2.32.07.086.02.022.005h.006.002 0zm-11.55 9.13c-.836.17-1.712.414-2.57.747-1.805.703-3.504 1.8-4.588 3.445-1.078 1.638-1.574 3.857-.9 6.863.694 3.15 2 5.215 3.523 6.554s3.33 1.973 5.055 2.217 3.372.098 4.6-.112l1.453-.317.362-.104 1.447-8.095 2.768-19.788-.14-.03-1.127-.196c-.948-.138-2.24-.263-3.624-.213-2.79.1-5.83.902-7.268 3.588-.725 1.354-.717 2.414-.353 3.222.29.648.83 1.172 1.488 1.565.873-.167 1.698-.257 2.41-.292.737-.037 1.364-.014 1.8.048.22.03.413.073.557.132a.68.68 0 0 1 .219.137c.072.07.15.196.118.358-.07.376-.34.635-.664.797s-.735.247-1.178.27c-.9.046-1.99-.15-2.976-.597l-.402-.2zm1.097-.188l1.45-.137c.713-.035 1.3-.013 1.695.043.125.017.225.037.3.057-.052.068-.135.135-.26.197-.22.1-.54.185-.935.205-.66.034-1.472-.085-2.25-.365z" class="B C"/><path d="M433.2 118.523s-14.536 19.053-1.76 27.152c10.246 6.485 12.885-2.654 10.138-3.9-2.978-1.366-9.814 24.4 11.234 24.312 21.094-.077 14.644-26.562 4.012-35.344-5.077-4.19-22.02-15.903-22.02-15.903l-1.605 3.693z" class="D"/><path d="M434.98 114.574l-.175.256.175-.256.05.034.143.1.546.38 2 1.385 6.38 4.486c4.868 3.45 10.383 7.433 12.932 9.536 5.39 4.452 9.696 13.354 10.004 21.164.154 3.912-.693 7.6-2.954 10.3-2.268 2.718-5.916 4.412-11.257 4.432-5.328.02-8.935-1.598-11.277-4.054-2.337-2.45-3.38-5.695-3.658-8.87-.157-1.79-.073-3.565.164-5.178-1.766.04-4.015-.61-6.766-2.35h-.001c-3.273-2.075-4.81-4.865-5.256-7.876-.444-2.996.19-6.192 1.218-9.103s2.457-5.57 3.627-7.494c.585-.962 1.107-1.743 1.482-2.284l.444-.625.12-.164c.008-.01.014-.02.02-.027l1.74-4.003.308.213zm3.694 33.667a21.86 21.86 0 0 0-.18 5.17c.27 3.084 1.28 6.178 3.488 8.493 2.203 2.31 5.634 3.882 10.83 3.863 5.207-.02 8.663-1.665 10.786-4.2 2.13-2.552 2.96-6.058 2.8-9.875-.3-7.647-4.536-16.378-9.78-20.71-2.527-2.086-8.022-6.055-12.896-9.51l-6.377-4.483-2.418-1.682-1.47 3.383-.023.03-.163-.125.163.125v.001l-.002.002-.008.01c-.006.01-.016.022-.03.04a8.14 8.14 0 0 0-.117.158l-.435.613a44.57 44.57 0 0 0-1.462 2.253c-1.157 1.902-2.563 4.517-3.572 7.377s-1.613 5.95-1.19 8.804c.42 2.84 1.86 5.468 4.974 7.443 2.756 1.744 4.912 2.322 6.54 2.25.177-1.008.412-1.94.68-2.76.37-1.127.813-2.056 1.272-2.668.23-.304.476-.55.74-.692.272-.148.576-.194.87-.06.845.387 1.22 1.347 1.196 2.343-.023 1.01-.446 2.142-1.3 3.016-.704.718-1.677 1.244-2.928 1.4zm.11-.645c.167-.912.383-1.756.628-2.5.36-1.095.776-1.953 1.18-2.488.202-.27.386-.438.54-.522.146-.08.244-.075.32-.04h0c.528.242.855.895.835 1.764-.02.855-.38 1.836-1.123 2.594-.554.565-1.34 1.02-2.38 1.19z" class="B C"/><path d="M432.768 113.744l1.095.698c1.065.683 1.374 2.095.7 3.165l-.216.326c-.68 1.07-2.083 1.396-3.148.714l-1.172-.745c-1.297.93-9.09 6.16-13.904.962-4.676-5.042 6.126-19.798 6.126-19.798 9.166 2.886 12.746 11.078 12.746 11.078l-2.237 3.6z" class="I"/><path d="M418.96 102.3a.31.31 0 0 1 .397-.183l-.107.3.107-.3h.001l.003.001.007.003c.006.002.014.006.025.01l.088.037.303.147a5.16 5.16 0 0 1 .9.602c.644.546 1.297 1.422 1.157 2.66-.126 1.114-.745 2.514-1.262 3.68l-.053.12-.64 1.568c-.068.212-.106.375-.114.493-.006.08.003.113.006.122.228.247.498.397.716.485.1.044.204.072.27.1l.073.016.02.004h.001a.31.31 0 1 1-.092.614l.045-.307-.046.307-.002-.001h-.003l-.04-.008-.105-.024c-.088-.022-.2-.058-.348-.114-.278-.113-.637-.3-.947-.648-.156-.17-.174-.4-.16-.58a2.82 2.82 0 0 1 .143-.639c.148-.46.398-1.03.663-1.63l.03-.066c.535-1.2 1.122-2.536 1.237-3.553.107-.95-.382-1.64-.942-2.115a4.34 4.34 0 0 0-.787-.527l-.264-.128-.07-.03-.02-.008m-.182-.4c-.06.16.022.34.182.4zm-.336 11.492l-.15.27h.001l.002.001.005.003c.005.002.012.006.02.01l.07.037.264.12c.228.097.557.222.968.333a7.99 7.99 0 0 0 3.311.181.31.31 0 0 0 .257-.355c-.026-.17-.184-.285-.353-.258a7.37 7.37 0 0 1-3.055-.168 6.65 6.65 0 0 1-.886-.304l-.233-.107-.057-.03-.015-.008c-.15-.084-.337-.03-.42.12a.31.31 0 0 0 .12.422l.15-.27z" class="B F"/><path d="M426.7 110.686c.218-.576.144-1.14-.167-1.26s-.74.252-.958.828-.144 1.14.167 1.26.74-.25.958-.828zm-7.123-3.286c.182-.48.117-.95-.146-1.052s-.623.207-.806.687-.116.952.146 1.053.624-.207.806-.688z" class="F"/><path d="M433.805 116.225a1.14 1.14 0 0 0-1.58.355c-.1.144-.282.187-.426.095a.31.31 0 0 1-.095-.428c.524-.827 1.6-1.072 2.432-.545a.31.31 0 0 1 .095.428c-.1.145-.282.187-.426.095zm-7.832-9.715a.31.31 0 0 1 .38-.22l-.08.3.08-.3h.001l.002.001.007.002c.005.001.012.003.02.006l.07.023.25.098c.207.1.5.233.806.45.63.436 1.387 1.17 1.9 2.357a.31.31 0 0 1-.16.408.31.31 0 0 1-.406-.161 4.88 4.88 0 0 0-1.684-2.092 4.09 4.09 0 0 0-.701-.393l-.204-.08-.05-.017-.013-.004a.31.31 0 0 1-.217-.38z" class="B F"/><path d="M429.08 102.82s-2.053 6.843 3.826 11.513c3.457 2.746 3.658-.56 3.658-.56s-.448-6.718-7.484-10.954z" class="D"/><path d="M428.898 102.35l.34.204c3.58 2.156 5.49 4.948 6.503 7.204a14.56 14.56 0 0 1 .944 2.834l.15.843.028.232.006.062v.022.002l-.308.02.31.02-.001.002v.003l-.003.043-.014.114a3.34 3.34 0 0 1-.078.375c-.08.3-.23.677-.527.973-.3.31-.757.5-1.36.408-.58-.088-1.292-.433-2.175-1.135a10.96 10.96 0 0 1-4.234-7.721 12.57 12.57 0 0 1 .064-2.936l.157-.865.058-.236.023-.085.001-.001v-.001l.295.09-.295-.09.114-.38zm.38.957l-.122.7c-.098.696-.17 1.672-.06 2.79.216 2.23 1.143 5.023 4.003 7.294.845.672 1.455.943 1.884 1.008.408.062.66-.06.83-.234.187-.186.3-.454.368-.697.032-.12.05-.224.062-.3l.01-.086c0-.017-.001-.032-.003-.05l-.025-.2-.143-.794c-.148-.68-.418-1.63-.903-2.712-.936-2.086-2.675-4.66-5.9-6.706zm7.285 10.467l.31.02.001-.02-.002-.02-.308.02z" class="B C"/><path d="M292.76 278.16c-1.62-5.942-28.378-.372-57.85 10.41-28.193 10.318-51.108 24.235-51.355 29.836l-15.462-113.4a3.23 3.23 0 0 0-3.195-2.778c-.895 0-1.697.357-2.283.947s-.942 1.396-.942 2.296v96.847c-.185-2.653-7-4.78-15.354-4.78s-15.153 2.126-15.354 4.78V193.494c0-9.185 4.784-17.687 12.592-22.435l51.895-31.512 38.84-23.77V75.205c0 1.738 7.145 3.134 15.57 3.134 8.4 0 15.57-1.38 15.57-3.134v43.986c0 9.744-4.738 18.944-12.3 25.026l-23.625 16.974c-4.028 2.886-5 8.503-2.19 12.6 15.662 22.792 63.792 89.306 65.428 103.937.015.14.015.295.015.434z" class="J"/><g class="B"><path d="M233.83 111.838c.256 0 .463.208.463.465v11.947c0 .257-.207.466-.463.466s-.463-.2-.463-.466v-11.947c0-.257.207-.465.463-.465zm-38 26.962l10.018 61.713-52.974-35.626 11.937-7.512 21.58 12.543-2.558-23.978 11.996-7.14zm-11.012 7.636l2.7 25.206-22.677-13.18-10.252 6.452 50.013 33.634-9.456-58.252-10.317 6.14z" class="D"/><path d="M289.5 277.864c.963.328 1.675.857 1.962 1.655.287.79.104 1.694-.386 2.64-.492.952-1.325 2.004-2.446 3.132-2.244 2.257-5.707 4.875-10.134 7.66-8.857 5.57-21.633 11.843-36.398 17.242-14.756 5.396-28.564 9.425-38.923 11.463-5.176 1.018-9.5 1.542-12.677 1.486-1.582-.03-2.897-.203-3.89-.547s-1.72-.88-2.008-1.68-.082-1.697.44-2.626c.526-.935 1.404-1.962 2.578-3.06 2.35-2.197 5.953-4.737 10.52-7.442 9.137-5.415 22.19-11.53 36.952-16.927 14.753-5.394 28.277-9.578 38.353-11.77 5.034-1.096 9.228-1.7 12.3-1.7 1.53-.001 2.803.147 3.766.475zm-15.893 1.984c-10.027 2.182-23.515 6.353-38.252 11.742-14.728 5.386-27.737 11.48-36.824 16.866-4.546 2.694-8.095 5.2-10.386 7.342-1.147 1.072-1.96 2.037-2.43 2.873s-.565 1.49-.388 1.978h0c.175.484.65.904 1.535 1.212s2.105.476 3.65.504c3.086.055 7.358-.457 12.515-1.472 10.307-2.027 24.075-6.043 38.808-11.43 14.724-5.384 27.45-11.634 36.252-17.17 4.404-2.77 7.812-5.353 9.997-7.55 1.094-1.1 1.866-2.088 2.308-2.94s.525-1.522.345-2.017v-.001c-.175-.486-.635-.895-1.484-1.184s-2.026-.436-3.518-.435c-2.98.002-7.11.592-12.128 1.684z" class="J"/></g><path d="M223.952 386.785l-1.697 2.978-1.883 3.32c-16.28 2.048-19.15-8.658-19.15-8.658l2.454-4.903c6.573 4.065 14.906 6.222 20.276 7.262z" class="G"/><path d="M282.592 308.88c-11.574 20.062-53.192 78.772-53.192 78.772s-2.175-.233-5.447-.87c-5.37-1.055-13.703-3.196-20.292-7.26-1.528-.947-2.947-1.986-4.228-3.15l30.168-61.596 11.85-25.12 1.512-.528c.247-.093.494-.17.756-.264l2.238-.76 1.82-.62 5.4-1.754c11.82-3.754 21.928-6.283 28.748-7.06 1.512 2.125 3.24 5.182 4.228 9.014 1.435 5.6 1.266 12.83-3.564 21.194z" class="D"/><path d="M282.11 278.262l.132.185c1.532 2.154 3.286 5.253 4.288 9.143h0c1.46 5.697 1.278 13.032-3.605 21.486-5.796 10.047-19.103 29.754-30.952 46.935l-15.574 22.378-6.565 9.32-.12.168s0 .001-.315-.224l-.04.385h-.008l-.02-.003c-.01-.001-.02-.002-.034-.003s-.026-.003-.042-.005l-.295-.036-1.113-.15c-.958-.14-2.326-.357-3.97-.676l-.001-.001c-5.382-1.057-13.77-3.21-20.42-7.31h0c-1.544-.957-2.984-2-4.285-3.192l-.216-.197 30.294-61.853 11.92-25.263.15-.055 1.143-.4.37-.128c.15-.057.31-.11.468-.164l.3-.1h.002l2.242-.762h.001l.002-.001 1.813-.618.004-.001 5.408-1.756c11.826-3.756 21.962-6.295 28.82-7.075l.225-.025zm-52.7 109.39l-.04.385.224.024.13-.184-.315-.225zm-.182-.412l.338-.477 1.34-1.898 4.872-6.924 15.57-22.373c11.854-17.19 25.142-36.868 30.92-46.882v-.001c4.778-8.27 4.935-15.396 3.525-20.902-.944-3.664-2.577-6.612-4.037-8.7-6.78.8-16.766 3.307-28.45 7.018l-5.4 1.75c-.606.218-1.2.42-1.827.623l-2.23.757c-.116.042-.22.077-.322.11l-.43.152-.005.002-.384.132-.973.34-4.16 8.824-7.625 16.154-30.04 61.334c1.203 1.067 2.53 2.03 3.954 2.912 6.53 4.028 14.806 6.158 20.164 7.21" class="B C"/><path d="M232.07 432.57c-.525 2.312-3.38 3.134-5.046 1.458l-37.297-37.376 11.666-12.242s2.7 10.7 18.996 8.658c13.162 19.983 13.132 33.063 11.68 39.502z" class="D"/><g class="E"><path d="M201.766 384.314h0l-.17-.677-12.41 13.02 37.565 37.644c1.88 1.89 5.102.964 5.695-1.646v-.001c1.478-6.562 1.472-19.748-11.736-39.802l-.132-.2-.237.03c-8.054 1.004-12.688-1.138-15.306-3.472-1.315-1.173-2.134-2.406-2.625-3.343a9.69 9.69 0 0 1-.508-1.137 6.8 6.8 0 0 1-.107-.315c-.01-.036-.018-.063-.023-.08l-.006-.02v-.001zm-.535.826l-10.965 11.505 37.03 37.11c1.453 1.46 3.94.743 4.397-1.27 1.418-6.294 1.5-19.2-11.495-39.002-8.098.957-12.895-1.21-15.675-3.7-1.397-1.246-2.27-2.558-2.796-3.562-.224-.428-.385-.8-.496-1.09z" class="B"/><path d="M230.542 434.928c-2.53.978-5.386.466-7.438-1.35l-19.474-17.207c-.478-.434-.54-1.164-.14-1.676a1.22 1.22 0 0 0-.092-1.629l-1.6-1.55c-.432-.435-1.126-.45-1.59-.047l-.37.31a1.15 1.15 0 0 1-1.527 0l-10.463-9.14c-1.358-1.18-1.404-3.29-.123-4.546l1.82-1.77 37.528 38.1a2.96 2.96 0 0 0 3.75.404l-.293.108z"/><path d="M225.178 397.806c.14-.16.385-.175.544-.032l-.256.3.257-.3v.001l.002.001.004.003.044.043.107.117c.085.1.194.244.298.43a2.53 2.53 0 0 1 .307 1.59c-.183 1.346-1.454 2.988-5.258 4.713-.194.088-.423.001-.5-.194a.39.39 0 0 1 .194-.513c3.757-1.704 4.685-3.2 4.8-4.1a1.74 1.74 0 0 0-.214-1.103 1.88 1.88 0 0 0-.211-.304l-.07-.075c-.007-.008-.013-.013-.016-.016l-.002-.002a.39.39 0 0 1-.03-.546zm2 3.4c.14-.16.385-.175.544-.033l-.256.3.257-.3.002.001.004.004.044.043.107.116a2.67 2.67 0 0 1 .298.429 2.52 2.52 0 0 1 .307 1.589c-.183 1.347-1.454 2.988-5.258 4.713a.37.37 0 0 1-.5-.194.39.39 0 0 1 .193-.513c3.757-1.704 4.685-3.188 4.8-4.1.062-.463-.066-.838-.215-1.103a1.88 1.88 0 0 0-.211-.304l-.068-.075-.016-.015-.003-.002a.39.39 0 0 1-.03-.546zm2 3.395c.142-.16.386-.175.545-.032l-.256.3.257-.3h.002l.003.003.045.043.107.117c.085.1.194.244.298.43.208.37.398.917.307 1.6-.183 1.346-1.454 2.988-5.258 4.713-.195.088-.423.001-.5-.194a.39.39 0 0 1 .193-.513c3.758-1.704 4.686-3.2 4.8-4.1a1.74 1.74 0 0 0-.214-1.103 2.02 2.02 0 0 0-.21-.305l-.07-.074c-.007-.008-.013-.013-.016-.016v-.002a.39.39 0 0 1-.031-.546z" class="B"/></g><path d="M286.156 287.686c-10.03-.015-20.307 1.738-30.214 4.5-.787-2.793-1.898-5.012-2.762-6.455 11.82-3.754 21.928-6.283 28.748-7.06 1.528 2.14 3.256 5.198 4.228 9.014z" class="C"/><path d="M181.564 385.217l-2.978 3.832-2.346 3c-16.403-.325-17.715-11.326-17.715-11.326l3.565-5.135c6.188 4.996 14.55 8.1 19.474 9.62z" class="G"/><path d="M256.28 304.74c-.895 3.832-2.81 7.96-6.327 12.2-14.443 17.486-64.317 69.4-64.317 69.4s-19.474-4.406-27.792-14.956l45.97-65.66c8.55-4.577 19.412-9.434 31.418-13.84 6.265-2.296 12.298-4.36 17.946-6.16a27.89 27.89 0 0 1 2.762 6.455c.988 3.444 1.466 7.757.34 12.552z" class="D"/><path d="M253.356 285.27l.156.265c.86 1.463 2.002 3.728 2.8 6.545l-.37.107.37-.107c1.002 3.495 1.488 7.877.344 12.748l-.376-.09.376.09c-.9 3.894-2.852 8.075-6.406 12.37l-.296-.248.296.248m-64.614 69.153l.278.27-.15.157-.21-.048.084-.378zm-.125-.428l.213-.222.198-.207 1.608-1.677 5.846-6.12L212.1 357.94c14.277-15.167 30.347-32.507 37.56-41.238v-.001c3.482-4.208 5.367-8.28 6.248-12.05h0c1.108-4.718.638-8.962-.335-12.356v-.001a27.52 27.52 0 0 0-2.569-6.097c-5.557 1.776-11.485 3.806-17.636 6.06-11.954 4.388-22.77 9.22-31.288 13.775l-12.338 17.627-33.412 47.72c4.114 5.076 10.87 8.712 16.678 11.09 2.94 1.205 5.62 2.08 7.567 2.656a66.4 66.4 0 0 0 2.307.64l.626.156zm67.844-100.652l-.293.093zm-.293.093a445.26 445.26 0 0 0-17.962 6.165zm-17.962 6.165h0zm0 0c-12.02 4.41-22.9 9.275-31.467 13.86zm-31.467 13.86l-.08.044zm-.08.044l-.053.076zm-.053.076l-12.39 17.703zm-12.39 17.703l-33.745 48.195.18.227c4.223 5.356 11.25 9.126 17.172 11.553 2.97 1.216 5.676 2.1 7.64 2.68a66.2 66.2 0 0 0 2.333.647l.638.16.167.04c.02.005.033.008.043.01l.014.004h.001s.001 0 .085-.378" class="B C"/><path d="M182.166 432.833a2.99 2.99 0 0 1-5.201.714l-31.587-42.373 13.286-10.442s1.142 11 17.56 11.327c10.2 21.675 8.302 34.614 5.94 40.774z" class="D"/><g class="E"><path d="M158.4 381.433l-12.487 9.813 31.362 42.07c1.24 1.666 3.792 1.312 4.53-.62h0c2.308-6.02 4.222-18.784-5.828-40.252-8.152-.215-12.6-3.058-14.985-5.918-1.205-1.438-1.882-2.866-2.258-3.938-.16-.458-.266-.85-.335-1.153zm.648-.74h0v.003l.014.102c.012.074.03.185.06.328.06.287.165.702.34 1.202.35 1 .986 2.343 2.12 3.696 2.256 2.694 6.535 5.486 14.65 5.648l.24.004.102.217c10.235 21.75 8.358 34.802 5.952 41.08-.958 2.505-4.27 2.958-5.87.807l-31.814-42.677 14.133-11.107.072.697z" class="B"/><path d="M180.33 434.82c-2.64.605-5.4-.326-7.16-2.39l-16.82-19.798a1.23 1.23 0 0 1 .092-1.676c.463-.418.51-1.132.14-1.63l-1.358-1.753a1.19 1.19 0 0 0-1.574-.279l-.4.264c-.494.3-1.126.217-1.512-.218l-9.105-10.503c-1.172-1.366-.926-3.445.525-4.5l2.052-1.49 31.742 42.962c.91 1.225 2.454 1.49 3.658.946l-.278.062z"/><path d="M180.635 397.535c.162-.138.406-.118.543.046l-.294.25.295-.25v.002l.003.004.038.05.1.13a2.67 2.67 0 0 1 .235.467 2.52 2.52 0 0 1 .077 1.615c-.373 1.305-1.865 2.746-5.88 3.9-.205.06-.418-.06-.477-.265a.39.39 0 0 1 .264-.48c3.964-1.15 5.095-2.485 5.35-3.38a1.74 1.74 0 0 0-.055-1.12c-.055-.14-.118-.254-.166-.33l-.057-.084-.014-.017-.002-.003h.001a.39.39 0 0 1 .046-.546zm-.046.546h0zm1.85 3.1c.162-.14.406-.118.543.045l-.294.25.295-.25.001.002.004.004.038.05.1.13c.07.1.158.27.235.467a2.52 2.52 0 0 1 .077 1.615c-.373 1.305-1.865 2.747-5.88 3.9-.205.06-.418-.06-.478-.265a.39.39 0 0 1 .264-.481c3.965-1.148 5.096-2.484 5.352-3.378.128-.448.054-.837-.056-1.12a1.75 1.75 0 0 0-.166-.33l-.057-.083-.013-.018h-.001a.39.39 0 0 1 .046-.546zm-.046.546h0zm1.526 3.1c.163-.138.406-.118.544.046l-.294.25.295-.25v.001l.005.005.038.05.1.13a2.3 2.3 0 0 1 .234.467c.154.397.264.963.078 1.615-.373 1.305-1.866 2.747-5.88 3.9-.205.06-.42-.06-.478-.266a.39.39 0 0 1 .264-.48c3.965-1.15 5.096-2.485 5.35-3.38.128-.448.055-.836-.055-1.12-.055-.14-.118-.254-.166-.33l-.057-.084-.013-.017-.002-.003.001.001a.39.39 0 0 1 .045-.546zm-.045.546h0z" class="B"/></g><path d="M255.957 292.187c-6.45 1.8-12.746 4.018-18.718 6.423-25.786 10.442-45.553 24.623-45.8 24.793l12.39-17.703c8.55-4.577 19.413-9.433 31.418-13.84l6.22-2.234c.51-.187 1.018-.357 1.512-.528.247-.093.494-.17.756-.264l2.238-.76 1.82-.62 5.4-1.753c.848 1.5 1.96 3.708 2.762 6.486z" class="C"/><path d="M161.332 304.41c0 2.7-6.712 4.903-15 4.903s-15-2.188-15-4.903v-.11c.185-2.653 6.836-4.78 15-4.78s14.814 2.126 15 4.78v.11z" class="D"/><path d="M131.72 304.318v.094c0 .505.312 1.05 1.027 1.604s1.763 1.06 3.098 1.497c2.666.87 6.374 1.414 10.488 1.414s7.822-.547 10.488-1.42c1.335-.437 2.387-.95 3.098-1.498s1.027-1.096 1.027-1.597v-.094c-.04-.494-.384-1.03-1.116-1.568s-1.79-1.037-3.122-1.46c-2.66-.848-6.322-1.377-10.375-1.377s-7.715.53-10.375 1.377c-1.33.424-2.392.923-3.122 1.46s-1.077 1.074-1.116 1.568zm4.005-3.77c2.753-.878 6.498-1.412 10.608-1.412s7.855.534 10.608 1.412c1.375.44 2.522.97 3.345 1.575.817.602 1.373 1.323 1.43 2.152l.001.014v.122c0 .85-.528 1.594-1.33 2.213-.807.623-1.95 1.168-3.33 1.62-2.762.904-6.553 1.458-10.726 1.458s-7.964-.55-10.726-1.452c-1.38-.45-2.523-.996-3.33-1.62-.802-.62-1.33-1.367-1.33-2.22v-.122l.001-.014c.058-.83.614-1.55 1.43-2.152.823-.606 1.97-1.136 3.345-1.575z" class="B J"/><path d="M155.284 300.766v12.738c0 4.127-2.27 7.897-5.88 9.837l-6.157 3.29a10.29 10.29 0 0 1-4.877 1.226c-.725 0-1.22-.606-1.22-1.242 0-.263.093-.543.278-.775l2.3-2.793c.324-.388.046-.962-.447-.962H125.75l-2.47 3.134c-1.312 1.66-3.318 2.638-5.417 2.638h-.7a1.14 1.14 0 0 1-.987-1.707l.277-.512a7.02 7.02 0 0 1-2.715.558h-.7a1.14 1.14 0 0 1-.988-1.706l5.54-6.144 3.842-1.52v.016l19.09-7.54v-9.06c1.805-.233 3.765-.372 5.833-.372 3.348-.016 6.435.326 8.95.9z" class="G"/><path d="M121.073 317.208c.148.087.197.276.112.425l-4.63 8c-.086.148-.274.198-.422.112a.31.31 0 0 1-.111-.424l4.63-8c.086-.148.275-.198.422-.112zm19.21 2.052a.31.31 0 0 1 .309-.311c1.138 0 1.763 1.3 1.04 2.198l-2.84 3.5c-.108.133-.302.152-.434.044s-.152-.304-.044-.437l2.84-3.5c.4-.478.058-1.184-.564-1.184a.31.31 0 0 1-.309-.31z" class="B C"/><path d="M155.284 300.767v7.96c-2.516.574-5.602.916-8.95.916-2.068 0-4.028-.124-5.833-.373v-9.06a45.87 45.87 0 0 1 5.833-.372c3.333.015 6.434.357 8.95.93z" class="C"/><path d="M235.23 73.174c-.16.163-.2.285-.2.37s.038.204.197.365.418.338.783.516c.728.355 1.807.684 3.173.964 2.724.558 6.504.902 10.692.902s7.968-.344 10.692-.902c1.365-.28 2.444-.61 3.173-.964.365-.178.622-.353.782-.516s.198-.282.198-.365-.038-.2-.198-.363-.42-.34-.784-.52c-.73-.36-1.81-.698-3.173-.986-2.724-.575-6.504-.938-10.7-.938s-7.967.36-10.7.932c-1.365.287-2.445.624-3.173.985-.365.18-.623.358-.783.523zm3.798-2.267c2.79-.587 6.624-.95 10.848-.95s8.06.366 10.848.955c1.392.294 2.543.647 3.355 1.05.406.2.747.423.992.67s.42.555.42.91-.175.66-.42.91-.588.47-.993.667c-.814.397-1.965.74-3.356 1.026-2.79.57-6.624.917-10.846.917s-8.058-.346-10.846-.917c-1.39-.285-2.543-.63-3.356-1.026-.406-.198-.748-.418-.993-.667s-.422-.556-.422-.91.175-.662.42-.913.586-.473.992-.674c.813-.403 1.964-.755 3.356-1.048z" class="B J"/><path d="M245.232 76.105l-5.077-.574V60.466a3.34 3.34 0 0 1 .324-1.443l4.846-10.054c.895-1.862 2.777-3.04 4.83-3.04h5.94L243.103 69.96c-.062.11-.108.217-.155.326-.756 1.877.185 4.282 2.284 5.818z" class="G"/><path d="M256.404 70.006l1.913-3.35v9.092l-5.246.45 3.333-6.19z" class="C"/><path d="M284.397 17.395l-31.634 58.524c-1.173 2.172-4.383 2.684-7.19 1.148s-4.12-4.53-2.948-6.687l31.634-58.524 10.14 5.54z" class="D"/><path d="M274.103 11.328l10.816 5.91L253.1 76.102c-1.316 2.44-4.807 2.894-7.714 1.304s-4.42-4.79-3.102-7.213l31.818-58.864zm.3 1.052l-31.45 58.184c-1.028 1.9.083 4.678 2.793 6.16s5.638.913 6.667-.992h0l31.45-58.183-9.46-5.17z" class="B E"/><path d="M284.386 17.416c1.172-2.168-.148-5.166-2.95-6.697s-6.02-1.013-7.193 1.155.15 5.166 2.95 6.697 6.02 1.013 7.193-1.155z" class="D"/><g class="E"><path d="M274.582 12.06c-1.028 1.903.093 4.695 2.794 6.17s5.64.903 6.67-1-.093-4.695-2.794-6.17-5.64-.903-6.67 1zm2.426 6.852c-2.9-1.585-4.42-4.79-3.103-7.223s4.815-2.895 7.715-1.31 4.42 4.79 3.104 7.223-4.816 2.895-7.716 1.31z" class="B"/><path d="M265.015 38.867l14.953-12.443-.232 4.53 4.784 1.195-11.42 7.1c8.765-1.893 24.504-4.562 26.896.093.942 1.83-.833 5.57-2.02 8.254-.74 5.663 28.794-1.35 29.134-1.427l-4.552 4.236 4.552 2.607s-24.783 4.748-31.17 3.444c-3.61-.745-.74-5.616 1.775-9.185.77-2.746-5.37-3.646-30.91-.853l-1.8-7.54z"/></g><path d="M265.23 46.346c2.438 0 4.413-1.987 4.413-4.437s-1.975-4.437-4.413-4.437-4.413 1.987-4.413 4.437 1.976 4.437 4.413 4.437z" class="D"/><path d="M265.23 37.86a4.04 4.04 0 1 0 0 8.099 4.04 4.04 0 1 0 0-8.099zm-4.8 4.05c0-2.665 2.15-4.825 4.8-4.825s4.8 2.16 4.8 4.825-2.148 4.825-4.8 4.825-4.8-2.16-4.8-4.825z" class="B E"/><path d="M268.688 56.772l-1.42 3.35-1.667 3.9-.895 2.126-1.373 3.243c-.03.093-.077.17-.124.264 0 0 .001.016-.015.016-.447.76-1.296 1.24-2.222 1.24h-10.894c-1.312 0-2.223-1.257-1.73-2.42l.787-1.862 3.24-7.65 1.31-3.12c.386-.915 1.328-1.505 2.36-1.505h10.895c1.342-.016 2.237 1.24 1.744 2.405z" class="G"/><path d="M254.583 58.478a2.1 2.1 0 0 0-1.589.701c-.113.13-.308.14-.436.028a.31.31 0 0 1-.028-.438c.5-.582 1.258-.912 2.053-.912h10.4a2.08 2.08 0 0 1 2.082 2.3.31.31 0 0 1-.34.275.31.31 0 0 1-.274-.342c.1-.83-.56-1.6-1.468-1.6h-10.4zm-1.513 3.647a2.08 2.08 0 0 0-1.5.623.31.31 0 0 1-.437 0c-.12-.12-.12-.318 0-.44a2.74 2.74 0 0 1 1.947-.805h10.4c1.4 0 2.376 1.3 2 2.613a.31.31 0 0 1-.38.215.31.31 0 0 1-.214-.383c.252-.9-.428-1.824-1.416-1.824h-10.4zm-1.68 4.142c-.553 0-1.08.217-1.472.584-.124.117-.32.1-.436-.016s-.1-.322.016-.44c.503-.47 1.18-.75 1.892-.75h10.4c1.44 0 2.448 1.4 1.972 2.742-.057.16-.233.246-.394.188a.31.31 0 0 1-.187-.396c.327-.923-.362-1.913-1.4-1.913h-10.4z" class="B C"/><path d="M262.067 45.9v.28c0 2.84-2.283 5.15-5.123 5.15h-5.37V45.9h10.493z" class="G"/><path d="M131.658 167.287l-1.512 2.08c-.556-.14-1.096-.372-1.6-.713s-.9-.745-1.25-1.226l1.358-2.188c2.5-3.724 5.185-6.284 6.018-5.725s-.524 4.05-3.024 7.773z" class="H"/><path d="M154.403 111.385l-19.273 28.6c-.232.34.092.76.478.652l9.212-2.98c-1.126 1.35-1.82 3.103-1.82 4.996v9.014c0 3.522-2.793 6.392-6.28 6.486-.216-.404-.648-.683-1.157-.683a1.29 1.29 0 0 0-.926.388 1.23 1.23 0 0 0-.37.93c0 .713.587 1.303 1.312 1.303.648 0 1.188-.497 1.28-1.117 3.858-.17 6.96-3.382 6.96-7.308v-9.014a6.99 6.99 0 0 1 2.778-5.57l18.533-6 23.795-19.72h-34.52zM135.917 159.1a.48.48 0 0 1-.68 0 .48.48 0 0 1-.139-.341c0-.124.046-.25.14-.342s.216-.14.34-.14a.45.45 0 0 1 .34.14.46.46 0 0 1 .138.342c.016.14-.046.248-.138.34zm-2.47-19.167c-.077 0-.154-.015-.23-.077a.42.42 0 0 1-.108-.575l20.1-29.82h36.387c.23 0 .416.186.416.42s-.185.42-.416.42H153.63l-19.845 29.448c-.077.124-.2.186-.34.186z" class="J"/><path d="M153.755 135.123l-2.315-1.055.124-.357c.046-.14 1.173-3.43 3.95-6.92 2.577-3.242 7.1-7.23 14.058-7.912l.4-.03.402 2.932-.818.11-.293-2.14c-6.45.744-10.68 4.5-13.102 7.556-2.175 2.73-3.317 5.4-3.672 6.33l1.62.745-.355.744z" class="D"/><path d="M165.483 157.744l-4.676-15.36 10.94-5.384 4.506 3.444 7.746 5.912 2.346 23.5-20.863-12.102z" class="G"/><path d="M176.254 140.444l-8.35 18.712-2.422-1.412-4.676-15.36 10.94-5.384 4.506 3.444z" class="C"/><path d="M166.98 143.392c-.787.078-2.376-.73-4.182-1.877l-2.114 1.722a2.83 2.83 0 0 1-3.997-.403c-.432-.528-.648-1.18-.648-1.815a2.87 2.87 0 0 1 1.05-2.219l.864-.714-4.043-3.18s3.935-11.884 16.51-13.094l7.114 15.174c.448 1.334-6.11 5.957-10.555 6.407z" class="G"/><path d="M157.952 138.086l-4.043-3.18s1.45-4.39 5.432-8.115c-4.167 4.174 2.052 8.828-1.39 11.295z" class="H"/><g class="B C"><path d="M162.76 127.2a.31.31 0 0 1-.121.421c-.784.434-1.337 1.074-1.696 1.615a5.79 5.79 0 0 0-.391.684l-.092.202-.02.052-.005.014a.31.31 0 0 1-.397.183.31.31 0 0 1-.182-.399l.3.108-.3-.108v-.001h.001l.002-.005.034-.084.105-.23a6.25 6.25 0 0 1 .433-.757c.393-.592 1.013-1.317 1.9-1.814.15-.083.337-.028.42.122zm9.462-1.988l-.042.306.042-.306a.31.31 0 1 1-.085.615h0l-.005-.001-.1-.01-.27-.026-.9-.033c-.72.008-1.518.107-2.02.416-.193.118-.38.393-.504.844-.123.44-.172 1.006-.13 1.63.084 1.25.53 2.688 1.408 3.785a.31.31 0 0 1-.047.436c-.132.108-.327.086-.434-.047-.973-1.215-1.453-2.78-1.543-4.132-.045-.677.007-1.314.152-1.838.143-.515.4-.97.776-1.207.656-.405 1.603-.5 2.336-.508l.956.035.3.028.08.01.022.003.006.001h.002zm-1.93 9.494c.127-.114.322-.103.435.025a.31.31 0 0 1-.025.438l-.205-.232.205.232-.003.003-.005.004-.018.015-.06.048-.22.15c-.2.117-.47.26-.83.37-.726.222-1.765.308-3.053-.192a.31.31 0 0 1-.176-.401c.06-.16.24-.24.4-.178 1.15.447 2.047.362 2.65.177.304-.093.536-.213.7-.307l.17-.116.04-.03.008-.007v.001z"/><path d="M167.108 134.774v-.001a.31.31 0 0 0-.076-.431c-.14-.1-.332-.065-.43.075l.25.176-.25-.176v.001l-.001.001v.003l-.025.038-.064.106a3.4 3.4 0 0 0-.189.373c-.133.308-.27.744-.253 1.22a.31.31 0 0 0 .32.298.31.31 0 0 0 .297-.322c-.013-.347.09-.686.202-.948.056-.13.113-.235.155-.308l.05-.082.013-.02.003-.004zm0-.001"/></g><path d="M163.838 132.403c.247-.066.34-.516.2-1.004s-.436-.83-.683-.764-.34.517-.2 1.005.436.83.683.763zm6.9-3.037c.222-.06.304-.478.182-.933s-.4-.775-.622-.715-.304.477-.182.932.4.776.622.716z" class="C"/><path d="M158.5 139.487a1.33 1.33 0 0 1 1.723-.079l.002.001 3.564 2.793a.31.31 0 0 1 .054.435c-.105.135-.298.16-.433.054l-3.563-2.79c-.28-.216-.668-.197-.93.044l-.213.2c-.288.28-.288.73.002 1.01a.31.31 0 0 1 .008.439c-.118.124-.313.127-.436.01a1.32 1.32 0 0 1 0-1.906l.002-.002.22-.205z" class="B C"/></svg>