<svg xmlns="http://www.w3.org/2000/svg" width="1920" height="800" fill="none" xmlns:v="https://vecta.io/nano"><g clip-path="url(#B)"><path d="M1694.24 189.02c71.6-65.613 115.44-185.97 227.82-167.8 112.13 18.128 152.47 163.417 240.63 243.53 96.05 87.288 289.4 126.844 289.9 238.593.5 113.975-198.06 80.453-288.23 141.97-71.8 48.985-76.35 203.08-174.97 174.007-104.7-30.862-139.75-143.534-222.82-218.534-92.5-83.505-206.48-100.275-249.76-208.114-40.2-100.197 108.02-140.03 177.42-203.65z" fill="url(#A)"/></g><defs><linearGradient id="A" x1="1702.07" y1="-120.579" x2="1992.89" y2="669.615" gradientUnits="userSpaceOnUse"><stop stop-color="#f4f5f7" stop-opacity="0"/><stop offset="1" stop-color="#f4f5f7"/></linearGradient><clipPath id="B"><path fill="#fff" d="M0 0h1920v800H0z"/></clipPath></defs></svg>