<svg xmlns="http://www.w3.org/2000/svg" width="1920" height="620" fill="none" xmlns:v="https://vecta.io/nano"><g clip-path="url(#B)"><path d="M1645.85 432.327c45.34 65.705 58.4 170.192 151.8 176.24 93.18 6.034 152.14-102.997 237.48-151.03 92.97-52.335 255.18-48.577 276.06-138.037 21.3-91.24-143.95-100.786-204.94-166.617-48.56-52.42-23.93-176.734-108.3-171.522-89.55 5.533-138.3 89.395-218.63 134.263-89.43 49.957-183.84 42.495-238.3 120.975-50.6 72.92 60.88 132.018 104.83 195.728z" fill="url(#A)"/></g><defs><linearGradient id="A" x1="1595.36" y1="681.859" x2="1973.3" y2="101.965" gradientUnits="userSpaceOnUse"><stop stop-color="#f4f5f7" stop-opacity="0"/><stop offset="1" stop-color="#f4f5f7"/></linearGradient><clipPath id="B"><path fill="#fff" d="M0 0h1920v620H0z"/></clipPath></defs></svg>