<svg xmlns="http://www.w3.org/2000/svg" width="120" height="64" fill="#b3b7bc" fill-rule="evenodd" xmlns:v="https://vecta.io/nano"><path d="M104.938 32.3l-.3 1.25h-3.07l.36-1.433h3.068l-.05.182zm-.538 2.17l-.355 1.434h-3.08l.36-1.434h3.074zm-.582 2.354l-.355 1.433h-3.1l.36-1.433h3.085zm-.584 2.354l-.022.088a1.88 1.88 0 0 0-.075.459c0 .288.2.48.633.578l-.075.385h-2.462c-.422 0-.722-.076-.9-.228s-.266-.4-.266-.7c0-.16.024-.348.074-.57h3.094zm-1.085-7.982l.364-1.433h10.4l.005.2c0 .35-.046.76-.14 1.235h-3.162l.004-.15c0-.45-.14-.756-.42-.916s-.756-.24-1.432-.24c-.76 0-1.374.212-1.84.64a2.88 2.88 0 0 0-.539.668h-3.228zm.556-2.354v-.254c0-.3-.186-.474-.56-.555l.102-.362h2.488c.7 0 1.065.273 1.065.82a2.17 2.17 0 0 1-.042.35h-3.054zm3.46 0l.625-.713a3.35 3.35 0 0 1 1.067-.531c.355-.095.93-.144 1.725-.144 1.15 0 1.993.204 2.526.614.265.204.463.46.595.773h-6.538zm6.38 3.276l-.353 1.433H109.1l.355-1.433h3.1zm-.582 2.353l-.355 1.434h-3.1l.352-1.434h3.102zm-.584 2.354l-.354 1.433h-3.1l.354-1.433h3.1zm-.583 2.354l-.02.088a1.88 1.88 0 0 0-.077.459c0 .288.212.48.634.578l-.077.385h-2.46c-.422 0-.722-.076-.9-.228s-.266-.4-.266-.7a2.87 2.87 0 0 1 .07-.57h3.098zm-16-.92a2.21 2.21 0 0 0 .911-.609 3.87 3.87 0 0 0 .548-.823h3.385a10.79 10.79 0 0 1-.692 1.433h-4.153zm1.863-2.353l.46-1.434h3.278l-.422 1.434H96.66zm.694-2.354a9.62 9.62 0 0 0 .221-1.433h3.202a10.64 10.64 0 0 1-.176 1.433h-3.246zm.18-2.354c-.176-.857-.794-1.286-1.85-1.286-.947 0-1.65.25-2.107.747a3.09 3.09 0 0 0-.39.539h-3.4a8.83 8.83 0 0 1 .768-1.433h9.872c.173.423.28.9.326 1.433h-3.23zm-4.784.92a13.67 13.67 0 0 0-.467 1.433h-3.277l.433-1.433h3.3zm-.694 2.353l-.255 1.434h-3.23c.042-.438.116-.916.22-1.434h3.265zm-.3 2.354c.028.55.174.947.438 1.197a1.2 1.2 0 0 0 .364.237H88.7c-.116-.425-.177-.9-.184-1.433h3.23zm1.44 4.053c-1.54 0-2.7-.313-3.452-.94a2.95 2.95 0 0 1-.648-.76H98.3a3.68 3.68 0 0 1-.375.374c-1.015.885-2.588 1.326-4.72 1.326zM91.35 28.842c1.014-.9 2.62-1.367 4.812-1.367 1.573 0 2.737.37 3.5 1.1l.236.258H91.35zm-6.268 3.276l-.352 1.433h-3.065l.362-1.433h3.056zm-.58 2.353l-.354 1.434h-3.076l.36-1.434h3.07zm-.58 2.354l-.354 1.433h-3.1l.362-1.433h3.082zm-.58 2.354l-.023.088a1.89 1.89 0 0 0-.075.459c0 .288.212.48.634.578l-.076.385h-2.46c-.422 0-.722-.076-.9-.228s-.268-.4-.268-.7a2.66 2.66 0 0 1 .074-.57h3.095zm-1.084-7.982l.362-1.433h7.4c-.185.133-.426.2-.722.2H87.48c-.66 0-1.17.125-1.523.373-.263.184-.47.47-.62.86h-3.08zm.554-2.354v-.254c0-.3-.187-.474-.56-.555l.102-.362h2.488c.4 0 .662.072.824.217s.242.353.242.626a2.04 2.04 0 0 1-.028.327H82.8zm3.403 0l.658-.833a1.84 1.84 0 0 1 .709-.434c.254-.08.67-.12 1.244-.12h2.03l-.348 1.387h-4.294zM73.9 29.986h-1l.063-.222h7.187c-.187.15-.45.222-.78.222H78.1c-.406 0-.715.085-.926.253s-.377.486-.494.952v.006h-3.1l.306-1.2zm-.657-1.144l.15-.52c.78-.097 1.503-.434 2.17-1.012a6.03 6.03 0 0 0 1.561-2.097h1.04l-.6 2.458h3.326l-.293 1.17h-7.344zm3.22 3.276L76.1 33.55H73l.36-1.433h3.103zm-.584 2.353l-.354 1.434h-3.123l.362-1.434h3.114zm-.582 2.354l-.026.103a2.69 2.69 0 0 0-.077.579c0 .273.102.466.304.58s.542.168 1.015.168h1.066c.37 0 .652-.036.837-.108s.372-.247.56-.52h.356l-.158.63h-7.362l.058-.245.3-1.188h3.128zm3.645 2.354c-.168.602-.398 1-.7 1.197-.313.2-.95.313-1.915.313H73.46c-1.2 0-1.8-.465-1.8-1.397l.002-.113h7.272zm-15.7-11.507h5.734c1.726 0 2.6.7 2.6 2.073 0 .322-.05.7-.152 1.1l-2.082 8.412c-.05.192-.075.346-.075.46 0 .288.2.48.634.578l-.077.385h-2.462c-.422 0-.72-.076-.9-.228s-.266-.4-.266-.7c0-.2.042-.474.126-.796h-.227l-.965 1.35c-.304.208-.605.353-.9.433s-.843.12-1.638.12c-1.017 0-1.802-.194-2.36-.578-.7-.482-1.066-1.254-1.066-2.314 0-.434.077-.956.228-1.567.407-1.575 1-2.68 1.777-3.314s1.97-.953 3.578-.953h2.285c.355 0 .623-.07.8-.205s.325-.414.445-.832l.1-.578c0-.354-.28-.53-.838-.53h-3.68c-.356 0-.6-.044-.76-.132s-.228-.27-.228-.543c0-.113.024-.257.076-.434l.305-1.205zM66.6 37.7l.8-3.255h-2.234c-.744 0-1.3.16-1.7.483s-.667.818-.838 1.493c-.102.387-.152.7-.152.94 0 .387.14.66.42.82s.766.242 1.46.242c.474 0 .888-.065 1.244-.194a3.85 3.85 0 0 0 .989-.529zm-16.115.58h1.396c1.303 0 2.225-.266 2.767-.796s1.04-1.688 1.497-3.47c.237-.98.355-1.734.355-2.265 0-1.238-.626-1.856-1.878-1.856-.728 0-1.3.2-1.713.566s-.75 1.08-1.002 2.1l-1.42 5.713zm3.147-12.704l-.863 3.496h.228l.94-1.157a2.27 2.27 0 0 1 .862-.362c.322-.064.728-.096 1.218-.096 2.52 0 3.782 1.342 3.782 4.025 0 .772-.12 1.68-.356 2.724-.608 2.62-1.437 4.38-2.487 5.28-.93.803-2.436 1.205-4.518 1.205h-4.162c-.423 0-.723-.076-.9-.228s-.266-.4-.266-.7c0-.2.042-.474.127-.796l3.4-13.595v-.4c0-.3-.187-.474-.56-.554l.102-.362h2.487c.372 0 .643.072.812.217s.254.354.254.626c0 .113-.034.346-.1.7zm-11.837 13.38L45.22 25.36v-.4c0-.3-.186-.474-.56-.554l.102-.362h2.487c.372 0 .643.072.812.217s.254.354.254.626c0 .113-.034.347-.102.7l-3.4 13.692a1.96 1.96 0 0 0-.077.46c0 .288.212.48.636.578l-.077.385h-2.462c-.423 0-.723-.076-.9-.228s-.266-.4-.266-.7a3.19 3.19 0 0 1 .126-.796zM36.137 28.64l-3.324 5.183h3.452l-.128-5.183zm4.263 12.05h-2.766c-.83 0-1.244-.426-1.244-1.277l-.076-2.942h-5.152l-1.523 2.4c-.22.355-.33.637-.33.845 0 .337.23.505.685.505l-.128.458H26.62c-.525 0-.787-.17-.787-.505 0-.192.077-.4.228-.65l8.63-13.644c.185-.306.28-.555.28-.748 0-.337-.22-.562-.66-.674l.127-.435h3.63c.4 0 .697.1.926.325s.342.503.342.856l.355 13.86c0 .433.047.72.14.856s.318.237.673.3l-.102.46zM24.648 26.14c-7.64.845-10.512 4.47-12.47 8.5.546.725 1.486.258 2.1-.2-.324.678-.84 1.462-2.02 1.467-.537.004-.8-.36-1.3-.56-2.1.326-3.36 1.663-3.874 3.663v.387a1.33 1.33 0 0 0 1.324 1.324h14.908a1.33 1.33 0 0 0 1.323-1.324V26.14zm0-.978v-.705a1.33 1.33 0 0 0-1.324-1.324H8.417a1.33 1.33 0 0 0-1.324 1.324v12.17c.84-1.624 2.016-2.375 3.692-1.854-.023-.42-.476-.595-.87-1.014.44-.175 1.15-.083 1.777.5 1.74-7.737 6.756-9.647 12.956-9.085z"/></svg>