<svg xmlns="http://www.w3.org/2000/svg" width="105" height="50" fill="none" xmlns:v="https://vecta.io/nano"><path d="M10.833 13.098c-2.67.257-5.202 1.394-7.09 3.185C1.34 18.546 0 21.69 0 25.078c0 5.406 2.8 9.814 7.508 11.744 2.027.837 3.582 1.094 6.2 1.008 2.016-.064 3.336-.28 4.88-.783.922-.3 3.067-1.308 3.067-1.437 0-.043-.214-.536-.483-1.105l-.483-1.04-.665.375c-1.716.933-3.325 1.33-5.77 1.416-3.722.118-6.2-.686-8.323-2.68-1.77-1.662-2.8-3.84-3.035-6.414-.408-4.365 1.78-8.205 5.577-9.814 1.255-.526 2.38-.73 4.01-.72 1.79.01 2.735.215 4.13.912 1.276.633 2.874 2.21 3.518 3.475.697 1.362.933 2.327.933 3.85 0 1.373-.214 2.317-.75 3.378-.61 1.212-1.834 2.306-3.164 2.853-1.995.804-4.6.76-6.306-.107-1.35-.686-2.413-2.37-2.638-4.172l-.064-.504h10.296v-1.126c0-3.56-1.662-6.017-4.558-6.757-.847-.215-2.778-.215-3.636.01C6.22 18.482 4 23.512 5.566 28.06c.44 1.287.9 2.006 1.94 3.046 1.32 1.32 2.53 1.963 4.376 2.317 1.062.204 3.314.193 4.43-.02 3.41-.643 6.06-3.003 7.1-6.317.14-.472.3-1.062.343-1.32l.075-.45h1.266v4c0 2.306.054 4.204.118 4.473.31 1.373 1.416 2.703 2.79 3.378 1.073.515 1.888.708 3.046.708 1.898 0 3.293-.547 4.515-1.77.837-.837 1.244-1.555 1.426-2.563.075-.408.118-2.488.118-5.663v-5.02h-2.896v10.146l-.28.558c-.526 1.062-1.523 1.63-2.896 1.63-.75 0-.954-.043-1.534-.332-.654-.322-.976-.654-1.362-1.384-.193-.354-.204-.74-.236-5.502l-.032-5.116H23.82l-.064-.515c-.31-2.445-1.362-4.547-3.09-6.2-1.855-1.78-4.108-2.767-6.928-3.035-1.266-.118-1.587-.118-2.907.01zm2.692 6.8c.976.343 1.813 1.35 2.016 2.456l.086.493H8.27l.16-.568c.3-.997.9-1.76 1.76-2.22.815-.44 2.338-.515 3.335-.16zm29.484 5.47v11.637h.965V13.73h-.965v11.637zM73.36 14.642v.912h2.145V13.73H73.36v.912zm-23.917 4.022v4.505h2.435c2.8 0 3.55-.097 4.333-.568.74-.45 1.062-1.03 1.062-1.93s-.31-1.512-.976-1.93l-.515-.322.3-.28c.526-.493.676-.922.633-1.79-.032-.676-.075-.837-.365-1.2a2.89 2.89 0 0 0-.858-.676c-.515-.257-.6-.268-3.282-.3l-2.767-.032v4.515zm4.75-2.553c.558.3.643.762.247 1.233-.257.3-.28.3-1.61.333l-1.35.043v-1.738h1.244c.73 0 1.33.054 1.47.13zm.504 3.55c.397.204.6.654.43 1.04-.204.493-.75.643-2.306.643h-1.34v-1.823h1.48c.965 0 1.566.054 1.738.14zm13.374-3.41c-1.727.558-2.09 2.874-.58 3.743.247.14.858.386 1.362.547 1.02.322 1.18.418 1.18.708 0 .536-1.17.536-2.23 0-.365-.182-.697-.332-.74-.332s-.268.3-.504.643c-.483.75-.483.73.547 1.233.772.375 1.544.515 2.445.46 1.49-.096 2.306-.783 2.392-2.016.086-1.18-.44-1.748-2.2-2.36-.547-.193-1.073-.44-1.18-.558-.182-.204-.182-.225.064-.418.375-.31.9-.236 2.006.3.204.097.386.16.407.14s.204-.343.418-.708l.386-.676-.257-.172c-.87-.57-2.574-.826-3.518-.526zm12.26 0c-.204.097-.536.322-.72.504l-.354.343v-.9h-2.038v6.97h2.038V21.13c0-2.23.075-2.628.58-2.95a1.38 1.38 0 0 1 1.244-.054c.45.247.536.697.536 2.95v2.09h2.05l-.064-5.652-.3-.43c-.43-.654-.933-.912-1.845-.965-.536-.02-.87.01-1.137.13zm6.97.02c-1.105.386-1.898 1.287-2.21 2.5-.483 1.888.493 3.765 2.23 4.333.772.247 2.08.225 2.8-.043.526-.193 1.47-.88 1.47-1.05 0-.043-.268-.3-.58-.6l-.6-.504-.558.343c-.45.3-.665.354-1.17.354-.697 0-1.073-.204-1.394-.73-.118-.193-.215-.375-.215-.43 0-.043 1.094-.075 2.424-.075h2.435l-.054-.836c-.118-1.76-.9-2.874-2.295-3.303-.654-.193-1.684-.182-2.295.032zm1.898 1.705c.268.172.504.504.622.87l.064.247h-1.394c-.912 0-1.405-.043-1.405-.107s.064-.247.15-.408c.408-.783 1.255-1.04 1.963-.6zm5.663-1.79c-1.083.3-1.77 1.115-1.77 2.156 0 1.062.6 1.64 2.156 2.145.976.31 1.383.526 1.383.74 0 .043-.096.172-.215.28-.31.3-1.223.172-2.048-.247-.365-.193-.697-.343-.74-.343-.13 0-.88 1.19-.826 1.33.075.204 1.05.686 1.737.87 1.662.43 3.335-.054 3.765-1.094.086-.193.15-.665.15-1.04 0-.633-.032-.74-.343-1.083-.375-.43-.815-.676-1.695-.965-.933-.3-1.394-.568-1.394-.804 0-.515.88-.536 1.93-.043.665.31.654.322 1.137-.633.257-.493.257-.536.086-.665-.644-.46-2.53-.815-3.314-.6zm6.542 0c-.74.182-1.437.74-1.652 1.33-.172.43-.15 1.32.032 1.673.3.568.848.922 1.953 1.276.58.193 1.115.386 1.18.43a.37.37 0 0 1 .043.611c-.31.28-1.212.172-2.07-.247-.375-.193-.718-.343-.74-.343-.118 0-.847 1.212-.804 1.33.075.204 1.05.686 1.737.87 1.663.43 3.336-.054 3.765-1.094.086-.193.15-.633.15-.976 0-1.04-.526-1.61-1.91-2.07-1.062-.343-1.523-.6-1.523-.847 0-.504.88-.536 1.92-.054.31.15.6.268.61.268.054 0 .826-1.405.783-1.437-.02-.02-.247-.14-.493-.268-.933-.472-2.145-.654-2.982-.45zM58.58 18.9c.032 2.53.043 2.746.268 3.142.45.837 1.126 1.233 2.124 1.233a2.3 2.3 0 0 0 1.641-.579l.343-.3v.772h2.145v-6.97h-2.134l-.032 2.295c-.032 2.08-.054 2.317-.236 2.52-.44.493-1.31.46-1.748-.043-.236-.268-.247-.354-.247-2.53v-2.242h-2.166l.043 2.703zm14.78.783v3.486h2.038v-6.97H73.36v3.486zM64.995 32.07v4.72h2.038v-1.91c.01-2.124.086-2.617.46-3.003.504-.493 1.544-.3 1.79.365.064.15.107 1.233.107 2.413V36.8h2.166l-.043-2.66c-.032-2.242-.064-2.713-.225-3.078-.397-.9-1.105-1.33-2.145-1.34-.73 0-1.287.204-1.76.665l-.354.343v-3.368h-2.038v4.72zm25.526 0v4.72h2.038v-9.438H90.52v4.72zm-39.008-4.397c-1.437.3-2.274 1.287-2.285 2.714 0 .912.172 1.32.75 1.823.45.375.955.58 2.874 1.148.43.118.88.322.997.44.45.45.043 1.105-.772 1.233-.61.096-1.512-.15-2.306-.622l-.73-.44-.622.686c-.333.375-.61.72-.622.76 0 .172 1.384.965 2.08 1.19.6.182 1.02.236 1.898.236 1.083 0 1.17-.022 1.877-.375.622-.322.794-.472 1.083-.965.31-.515.354-.676.354-1.35 0-.9-.107-1.265-.515-1.684-.472-.504-1.072-.783-2.488-1.2-.772-.225-1.448-.483-1.577-.61-.686-.643.16-1.35 1.362-1.137.268.043.804.247 1.2.45l.73.365.536-.762.547-.772-.247-.204c-.922-.762-2.8-1.18-4.13-.922zm8.205 2.177c-1.126.43-1.93 1.2-2.285 2.21-.086.268-.16.826-.16 1.266 0 1.426.622 2.488 1.845 3.153.654.354.72.365 1.855.365 1.094 0 1.223-.022 1.737-.31.3-.16.686-.44.847-.61l.3-.31-.58-.6c-.622-.633-.75-.686-.976-.418-.45.536-1.523.665-2.177.257-.76-.46-1.03-1.62-.6-2.467.493-.976 1.705-1.2 2.553-.483.182.15.365.268.418.268s.375-.3.73-.654l.643-.644-.375-.322c-.708-.6-1.244-.783-2.36-.815-.665-.02-1.158.01-1.416.107zm15.498.064c-1.5.558-2.413 1.823-2.424 3.378 0 .847.172 1.426.6 2.06.74 1.072 1.952 1.61 3.443 1.523 1.523-.086 2.585-.75 3.196-1.995.322-.644.354-.804.343-1.63 0-.72-.054-1.02-.247-1.405a3.58 3.58 0 0 0-1.695-1.727c-.61-.3-.837-.354-1.684-.375-.76-.032-1.094.01-1.534.172zm2.295 1.855c.965.58 1.126 2.016.31 2.83-1.105 1.105-2.96.3-2.96-1.298 0-.87.386-1.448 1.148-1.716.483-.172 1.02-.107 1.502.182zm6.392-1.866c-1.662.6-2.595 1.984-2.478 3.68.097 1.35.826 2.38 2.113 2.982.526.247.73.28 1.727.28 1.02 0 1.18-.032 1.716-.3.804-.418 1.427-1.05 1.77-1.813.257-.568.3-.75.247-1.566-.043-1.094-.268-1.662-.955-2.36-.73-.73-1.46-1.03-2.606-1.062-.74-.032-1.105.01-1.534.16zm2.113 1.79c1.63.836 1.062 3.42-.75 3.42a1.8 1.8 0 0 1-1.63-2.52c.45-1.008 1.437-1.384 2.38-.9z" fill="#2cb08f"/></svg>