<svg xmlns="http://www.w3.org/2000/svg" width="120" height="64" fill="#b3b7bc" xmlns:v="https://vecta.io/nano"><path d="M102.52 30.162v9.37h3.014v-6.247h11.023v6.247h3.014v-9.37h-17.05zm2.67-3.038h11.626c1.636-.3 2.8-1.754 3.143-3.124h-17.912c.345 1.37 1.55 2.78 3.143 3.124zm-11.84 12.4c1.507-.642 2.325-1.754 2.67-3.038H82.454V24.043h-3.057v15.5h13.95zM56.792 27.08h10.764c1.636-.47 2.97-1.712 3.315-3.038H53.82V33.2h13.95v3.2H56.835c-1.722.47-3.186 1.626-3.918 3.124h17.87v-9.37h-13.95l-.043-3.08zm-26.523.043h11.625c1.636-.3 2.842-1.754 3.143-3.124H27.083c.345 1.37 1.55 2.78 3.186 3.124zm0 6.12h11.625c1.636-.3 2.842-1.754 3.143-3.124H27.083c.345 1.37 1.55 2.78 3.186 3.124zm0 6.3h11.625c1.636-.3 2.842-1.754 3.143-3.124H27.083c.345 1.37 1.55 2.824 3.186 3.124zM0 24.043c.344 1.37 1.55 2.74 3.143 3.08h4.9l.258.086V39.5h3.057V27.2l.258-.086h4.908c1.636-.428 2.8-1.712 3.143-3.08V24L0 24.043z"/></svg>