<svg xmlns="http://www.w3.org/2000/svg" width="300" height="100" fill="none" xmlns:v="https://vecta.io/nano"><rect width="300" height="100" rx="4" fill="#6fda44"/><path d="M116.047 56.42c-2.438 0-4.722-1.036-6.798-2.723l.506-2.38.022-.088c.45-2.536 1.877-6.79 6.27-6.79 3.294 0 5.973 2.7 5.973 5.997-.01 3.296-2.7 5.986-5.973 5.986zm0-18.057c-5.612 0-9.96 3.66-11.728 9.68-2.7-4.068-4.744-8.95-5.94-13.063h-6.04v15.775c0 3.11-2.526 5.644-5.622 5.644s-5.622-2.535-5.622-5.644V34.978h-6.04v15.775c-.022 6.46 5.216 11.763 11.65 11.763s11.673-5.303 11.673-11.763v-2.646c1.175 2.458 2.614 4.94 4.36 7.144l-3.7 17.462h6.182l2.68-12.667c2.35 1.5 5.05 2.458 8.148 2.458 6.62 0 12.013-5.446 12.013-12.093 0-6.636-5.392-12.05-12.013-12.05z" fill="#fff"/><path d="M146.497 39.046l3.898 15.775 4.294-15.775h5.117l-6.6 22.798h-5.117l-4.052-15.875-4.04 15.864h-5.117l-6.6-22.798h5.118L137.7 54.8l3.898-15.775h4.91v.01zm25.553-.684c-6.644 0-12.025 5.413-12.025 12.07 0 6.67 5.392 12.07 12.025 12.07 6.643 0 12.035-5.402 12.035-12.07s-5.392-12.07-12.035-12.07zm0 19.182c-3.9 0-7.072-3.175-7.072-7.1a7.09 7.09 0 0 1 7.072-7.099c3.91 0 7.07 3.175 7.07 7.1 0 3.913-3.162 7.1-7.07 7.1zM198.7 44.15c-3.437 0-6.215 2.8-6.215 6.24v11.443h-5.15V39.046h5.15v3.506s2.196-3.517 6.71-3.517h1.582v5.115H198.7zm17.284 5.402c3.657-2.072 6.14-6.008 6.14-10.517h-5.15c0 3.803-3.075 6.9-6.863 6.9h-.692v-17.88h-5.15v33.79h5.15V51.095h.615c.505 0 1.164.33 1.46.74l7.314 10h6.17l-8.994-12.28z" fill="#000"/></svg>