<svg xmlns="http://www.w3.org/2000/svg" width="300" height="100" fill="none" xmlns:v="https://vecta.io/nano"><path d="M0 4a4 4 0 0 1 4-4h292a4 4 0 0 1 4 4v92a4 4 0 0 1-4 4H4a4 4 0 0 1-4-4V4z" fill="#005cff"/><g fill="#fff"><path d="M35 28h9.685v42.24H35V28z"/><path d="M44.325 28H56.98v7.507H44.325V28zm0 34.734H56.98v7.507H44.325v-7.507zm0-17.8H56.98v6.5H44.325v-6.5z"/><path d="M56.98 70.24s13.42.423 13.42-12.47c0 0 .585-10.488-7.9-10.488 0 0 6.446-.478 6.446-8.037S63.662 28 56.983 28s-6.328 3.753-6.328 3.753l4.746 3.754h1.582s2.988 0 2.988 4.394-1.758 5.03-3.75 5.03-2.755 3.255-2.755 3.255l3.516 3.255s4.452-.058 4.452 5.8-4.688 5.487-5.858 5.487-.82 3-.82 3l2.225 4.5zm31.314-31.495c-16.245 0-16.23 16.23-16.23 16.23s-1.115 16.147 16.23 16.147c0 0 14.453.825 14.453-11.232h-7.434s.247 4.54-6.773 4.54c0 0-7.434.496-7.434-7.35h21.887c.002 0 2.396-18.336-14.7-18.336zm-7.27 12.698s.908-6.5 7.434-6.5 6.44 6.5 6.44 6.5H81.026zm168.286-12.698c-16.245 0-16.23 16.23-16.23 16.23s-1.115 16.147 16.23 16.147c0 0 14.453.825 14.453-11.232h-7.433s.247 4.54-6.773 4.54c0 0-7.434.496-7.434-7.35h21.89c-.004 0 2.4-18.336-14.704-18.336zm-7.27 12.698s.907-6.5 7.433-6.5 6.442 6.5 6.442 6.5h-13.875zM79.208 30.488h17.428V35.7H79.208v-5.202zM106.3 28h8.588v42.22H106.3V28zm28.328 20.74h-8.423V70.22h8.423V48.74z"/><path d="M126.095 48.74s0-3.222-5.344-3.222c-4.955 0-5.863 3.883-5.863 7.598s-.58-8.177-.58-8.177 2.726-6.194 9.995-6.194S134.628 44 134.628 49.16s-2.92 2.668-2.92 2.668l-5.6-1.33V48.74h-.002 0zm44.07-9.543h8.59v31.02h-8.59v-31.02zm28.33 9.543h-8.424v21.478h8.424V48.74z"/><path d="M189.963 48.74s0-3.222-5.344-3.222c-4.955 0-5.863 3.883-5.863 7.598s-.58-8.177-.58-8.177 2.726-6.194 9.995-6.194S198.496 44 198.496 49.16s-2.922 2.668-2.922 2.668l-5.61-1.33V48.74zM167.29 70.218s-1.598-.82-1.598-5.836v-18.09s1.017-7.545-12.578-7.545-14.464 6.813-14.538 10.882h9.087s-.363-5.382 5.38-5.382c0 0 4.87-.387 4.87 4.494 0 0 0 3.208-4.435 3.5s-15.7.22-15.7 9.378c0 0-.292 9.667 10.068 9.667 0 0 7.088.145 10.068-4.216v3.146h9.376zm-9.45-9.543s-.727 4.652-6.906 4.652c0 0-5.09.22-5.09-4.143 0 0-.436-3.344 6.69-4.434 2.834-.218 4.142-.414 5.306-1.733v5.658zm73.894-2.412h-8.89s.218 6.257-5.598 6.257-7.354-6.234-7.354-9.8 1.206-9.616 7.463-9.616 6.036 5.378 6.036 5.378h7.794s.548-11.723-13.72-11.723-15.804 11.554-15.804 16.193 2.414 16.347 15.586 16.347 14.487-10.61 14.487-13.025z"/></g></svg>