<svg xmlns="http://www.w3.org/2000/svg" width="300" height="100" fill="none" xmlns:v="https://vecta.io/nano"><g clip-path="url(#A)" fill="#dd3e7b"><path d="M137.246 34.925c-1.17 1.055-2.655 7.882-2.636 11.047 1.38-2.2 2.914-9.074 2.636-11.047zm-47.55.94c-.204-.62-.372-.958-.654-.958-.17 0-.358.112-.604.394-2.5 2.874-1.654 13.583-.85 18.092a42.71 42.71 0 0 0 .332 1.353c2.012-6.933 2.87-15.556 1.775-18.88zm66.924-.94c-1.038 1.152-2.622 7.915-2.636 11.047 1.283-2.223 2.88-9.106 2.636-11.047zm19.375 0c-1.04 1.152-2.687 7.947-2.636 11.047 1.218-2.286 2.847-9.074 2.636-11.047zM84.3 53.903c-1.33-1.296-2.402-1.25-3.192-1.25-2.485 0-5.547 3.9-3.785 9.244.853 2.592 3.103 2.204 3.95 2.204 2.1 0 3.36-1.462 4.767-4.393-.242-.564-.427-1.127-.594-1.635-.426-1.298-.833-2.706-1.145-4.17zm109.585-18.385c-.932-.174-2.04 4.476-2.33 10.87-.117 2.675-.145 3.632.38 6.2.594-.587 2.995-3.67 3.45-9.955.224-3.308-.45-6.932-1.498-7.106zM0-25v150.545h300V-25H0zm119.684 63.93c1.73.048 3.218 1.486 3.17 3.547-.048 2.013-1.297 3.26-2.978 3.2-1.393-.048-3.362-1.198-3.362-3.595 0-2.348 2.017-3.2 3.17-3.163zM224.42 61.736c-2.04 2.732-5.7 5.814-11.7 5.697-3.045-.07-6.177-1.087-8.204-3.414-1.7 1.422-4.465 2.847-7.116 2.9-3.527.06-6.148-2.736-7.852-6.687-.76.303-1.6.346-2.512.346-.564 0-1.222-.112-1.768-.225-.023.8-.348 1.86-.73 2.93-1.012 2.762-3.054 4.622-5.652 4.622-3.446 0-6.65-3.044-8.188-7.722-.116-.354-.218-.8-.316-1.377-.75 1.035-1.5 1.77-2.718 1.77-.565 0-1.223-.112-1.77-.225-.022.8-.348 1.86-.73 2.93-1.012 2.76-3.056 4.62-5.653 4.62-3.445 0-6.65-3.043-8.187-7.722-.13-.4-.238-.9-.346-1.553-.742 1.136-1.395 1.95-2.688 1.95-.565 0-1.223-.112-1.77-.225-.022.8-.348 1.86-.73 2.93-1.012 2.76-3.055 4.62-5.653 4.62-3.445 0-6.65-3.043-8.188-7.722-.13-.394-.24-.9-.348-1.578a1.16 1.16 0 0 1-.151.076 39.02 39.02 0 0 1-.698 1.11c-1.1 1.805-4.28 7.123-7.486 7.182-2.26.03-3.943-1.218-5-3.392-1.414 1.614-3.468 3.392-5.773 3.392-4.136 0-6.64-4.07-5.65-13.14.116-1.163-.06-1.628-1.223-1.802-.7-.117-1.456-.174-2.214-.3-.727 2.418-1.82 4.892-3.215 7.286l-.103.25c-1.555 2.3-3.815 6.75-7.147 6.75-1.92 0-3.44-1.014-4.638-2.424-1.71 2.7-3.863 4.4-6.405 4.4-3.897 0-6.977-3.164-7.94-6.095-2.076-6.312 1.422-12.626 6.06-12.626 1.13 0 2.37-.047 3.535.573-.856-5.693-.577-11.78 1.1-15.612.648-1.465 1.747-2.93 3.668-2.93 2.7 0 4.222 2.874 4.777 4.565 1.63 4.96.265 16.864-3.258 24.697.987 1.973 1.6 2.142 2 1.92 2.72-1.44 3.717-2.996 4.484-4.304l.022-.08.153-.222c.16-.276.317-.538.482-.784l.553-1.093a1.17 1.17 0 0 1 .196-.226 32.29 32.29 0 0 0 2.112-5.203c-1.223-.872-2.272-2.557-2.33-4.476-.06-1.337.524-2.732 2.214-2.907 1.863-.174 4.02 1.802 4.252 4.65 1.398.407 3.03.407 4.428.698 2.388.465 3.32 1.744 3.03 4.593-.35 3.605-.64 8.372 1.224 9 1.344.464 2.78-1.223 4.4-3.356a24.8 24.8 0 0 1-.08-3.155c.058-2.383.3-5.407.698-7.2.175-.698.466-.988 1.166-.872a4.24 4.24 0 0 1 1.806.814c.698.523 1.05 1.395.932 2.8-.175 2.616-.3 5.64-.175 7.558.175 2.5 1 3.662 2.273 3.72 1.707.057 3.33-4.023 5.1-6.487.02-.035.04-.072.065-.107l.606-.902c.607-.9 1.14-1.858 1.728-2.818-.142-8.85 1.22-21.2 5.74-21.2 1.638 0 2.967 1.465 3.43 2.874 1.54 4.678-2.824 14.767-5.8 20.3.045 2.367.298 4.5.817 6.087 1.26 3.832 2.952 4.34 3.686 4.34 1.13 0 2.587-1.24 3.387-3.268.363-.96.65-1.973.6-2.82-2.196-1.353-5.753-8.905-2.195-8.905 2.7 0 5.378 5.016 5.46 7.496.263.112.563.17.903.17.438 0 .62-.296.785-.715.02-.2.095-.417.233-.626.094-.24.208-.488.37-.727l.607-.902c.092-.136.193-.246.302-.33l1.063-1.772c-.144-8.848 1.22-21.2 5.738-21.2 1.638 0 2.967 1.465 3.43 2.874 1.54 4.678-2.825 14.766-5.8 20.3.045 2.367.298 4.5.817 6.087 1.26 3.832 2.952 4.34 3.686 4.34 1.13 0 2.586-1.24 3.387-3.27.363-.958.65-1.973.598-2.818-2.196-1.353-5.752-8.905-2.194-8.905 2.7 0 5.377 5.016 5.46 7.496a2.28 2.28 0 0 0 .902.17c.36 0 .6-.2.782-.53-.015-.274.058-.55.243-.824l.607-.902c.607-.902 1.14-1.86 1.728-2.82-.143-8.848 1.22-21.2 5.738-21.2 1.638 0 2.968 1.465 3.43 2.874 1.54 4.678-2.825 14.767-5.8 20.3.045 2.367.297 4.5.816 6.087 1.262 3.832 2.953 4.34 3.687 4.34 1.13 0 2.585-1.24 3.387-3.27.362-.958.65-1.973.598-2.818-2.196-1.353-5.753-8.905-2.194-8.905 2.7 0 5.377 5.016 5.458 7.496.263.112.564.17.903.17.847 0 1.6.132 2.245-.826l.06-.1c-.76-3.028-1.105-6.34-1.027-9.417.233-8.836 2.4-17.44 6.933-16.8 3.496.465 6.037 5.383 5.302 14.708-.46 5.585-2.65 8.574-5.913 12.527 1 1.977 2.135 4.934 3.874 5.03 2.008.112 3.73-.45 5.25-1.895-.208-.8-.332-1.68-.356-2.64-.117-5.348 3.67-11.394 9.263-11.394 3.204 0 5.825 2.384 5.767 5.872-.06 3.662-3.495 8.14-8.564 9.476 1 .814 2.4 1.28 4.078 1.395 3.96.232 7-1.453 9.73-5.406.408-.58.757-.465 1.165-.058.35.348.758 1.104.933 1.57.228.64.402 1.627-.24 2.5zm-11.7-9.476c-.06-.93-.7-1.57-1.456-1.5-2.156.117-4.3 3.197-4.3 6.744 0 .3 0 .58.058.814 3.903-1.337 5.767-4.302 5.7-6.046z"/></g><defs><clipPath id="A"><path fill="#fff" d="M0 0h300v100H0z"/></clipPath></defs></svg>