<svg xmlns="http://www.w3.org/2000/svg" width="120" height="64" fill="#b3b7bc" xmlns:v="https://vecta.io/nano"><path d="M46.08 46.277c-4.465-2.876-10.525-3.38-20.298-.67-10.42 2.448-13.892 4.018-18.454.867-1.753-1.548-2.38-4.04-1.912-7.63 1.088-5.852 4.03-11.483 9.253-17.73 2.916-3.25 5.62-6.038 9.192-7.158 2.737-.702 2.48 1.45 2.15 1.756-.35 0-.937.055-1.4.35-.368.286-1.38 1.208-1.433 2.448-.078 1.9 1.887 1.504 2.735.46.914-1.175 2.264-3.425 1.202-5.522-.445-.746-1.214-1.262-2.17-1.438-3.27-.187-6.316 1.372-9.127 3.095C9.68 19.38 4.764 25.298 1.98 31.775.377 35.683-1.074 41.28 1.1 45.838c1.682 3.16 5.175 4.84 9.342 4.5 2.922-.307 6.456-1.252 8.833-1.822s14.543-4.753 18.54 2.525c0 0 1.33-2.58 4.65-2.636 2.73-.252 6.67.8 9.54 2.898-.956-1.438-3.666-3.556-5.927-5.017h0zM27.024 21.85c-2.276-1.493-6.85 1.36-10.512 6.257-3.35 4.392-4.796 9.496-3.222 11.856 2.342 2.777 6.7-1.262 8.537-3.425l.24-.253c1.257-1.35 2.228-2.975 3.168-4.534l.905-1.493a20.41 20.41 0 0 0 1.902-.461c-.01.033-2.773 4.676-2.5 6.98.088.703.02 3.272 2.53 4.05 3.343.56 6.012-2.03 8.366-4.336l.628-.603-.132.536c-.98 3.403.34 4.117 1.166 4.38 2.494.725 5.473-2.898 5.483-2.898-.077 1.14-.303 2.085.9 2.843 1.135.407 2.285-.213 3.158-.795 3.146-2.217 5.68-5.688 7.728-8.688h-1.31c-.015 0-3.222 4.648-5.305 5.66-.003 0-.382.194-.6.04-.27-.23-.164-.7.003-1.05.01-.022 8.04-13.95 8.04-13.95h-3.8l-.448.714c-.026-.022-.086-.137-.128-.192-2.35-3.25-7.67 1.75-11.673 7.545-1.542 2.23-3.505 4.738-5.54 6.55 0 0-3.016 2.764-4.304.778-.47-.834-.326-2.054-.06-2.855 1.5-4.27 4.085-8.146 7.027-10.484.83-.647 1.733-.835 2.18-.56.427.253.496.878.226 1.306-.685-.022-1.234.186-1.68.647-.88.922-1.184 1.8-.905 2.646 1.358 1.932 4.065-1.888 3.934-4.216-.047-.834-.492-1.625-1.156-2-1-.592-2.5-.44-3.478.033-1.3.494-3.38 2.217-4.6 3.557-1.522 1.68-4.133 3.546-4.95 3.337.267-.714 2.472-5.225.152-6.916h0zm18.28 6.674c.738-1.02 2.884-3.754 3.408-4.215 1.76-1.548 2.464-.867 2.524-.384a347.06 347.06 0 0 1-5.404 9.342c.004-.01-.57.867-.57.867-.805 1.23-1.616 2.283-2.938 3.02-.2.055-.5.077-.706-.077-.25-.165-.347-.44-.32-.725.08-.944 1.04-3.83 4.006-7.827h0zM24.678 30.29s-.033.1-.05.132c-.004 0-1.653 2.7-1.653 2.7-.995 1.328-2.237 2.998-3.8 3.8-.46.154-1.097.253-1.42-.153-.687-.824-.333-1.965-.045-2.887l.102-.33c.825-2.24 2.135-4.216 3.4-6.05.016-.01.052-.022.065-.022.003.01.008.01.01.033.8 1.537 2.3 2.25 3.42 2.58.007 0 .014.01.014.033 0 .033-.018.077-.062.175h0zm1.562-3.172c-.007.022-.734 1.7-.734 1.7-.105.088-.27.044-.462 0l-.326-.055c-1.025-.318-1.798-1-2.036-1.8-.33-1.58 1.022-2.82 1.617-3.27.57-.395 1.458-.604 1.974-.198.318.373.438.856.438 1.384 0 .713-.22 1.514-.47 2.26zm47.93 5.093c-.366-.8-1.234-1.295-2.158-1.24-3.004.275-5.94 2.745-7.484 6.3-.8 1.822-1.25 3.326-1.54 5.72.934-1.075 2.84-2.843 5-3.8 0 0 .294-2.294 1.794-4.336.568-.846 1.703-2.207 2.98-1.845 1.114.373.723 3.458-.758 6.444-1.096 2.196-2.773 4.392-4.47 5.907-1.5 1.273-3.72 2.8-5.662 1.625-1.223-.724-1.847-2.24-1.715-4.193.584-5.544 3.108-10.264 6.72-15.643C70.6 22.137 74.704 17 80.233 14.276c1.128-.57 2.172-.702 3.075-.35 0 0-5.2 2.854-7.665 8.135-.63 1.34-1.505 3.15-.623 4.753.46.834 1.278.9 1.937.856 3.033-.703 4.992-3.535 6.593-6.125.928-1.965 1.753-3.92 1.753-6.093a11.62 11.62 0 0 0-.036-.878c1.45-.768 4.42.593 4.42.593 2.322.77 7.266 4.556 8.933 5.28.813-.944 2.15-2.37 2.903-3.085l-1.1-.67c-1.745-1.065-3.588-2.075-5.403-3.074-4.122-2.25-7.477-1.46-9.184-.845l-1.284.45c-1.267-1.383-3.346-1.252-4.877-.878-5.507 1.58-10.62 5.434-16.102 12.12-4.03 5.237-6.53 9.76-7.863 14.227-1.027 3.008-1.34 7.432 1.168 10.056 2.13 2.228 4.957 1.745 6.953.944 4.324-2.13 8.2-6.72 10.147-12 .467-1.57.986-3.787.18-5.478h0zm9.943-16.543c-.572 6.565-5.675 10.418-6.938 10.725-.765.154-2.07-.187-.905-2.942 1.716-3.7 4.647-6.86 7.8-8.475.077.274.075.45.052.7h0zm30.27.834c-2.745 1.56-5.6 2.57-9.035 2.218-.954 1.076-1.884 2.185-2.74 3.326 4.834 1.23 9.96-1.504 12.818-4.105C118.45 15.32 120 12.016 120 12.016s-2.267 2.6-5.617 4.5zM62.5 21.972h-3.6l-2.03 3.3h3.6l2.032-3.3zm42.824 24.6c-.387.263-.93.06-.728-.543.507-1.537 2.52-4.67 2.52-4.67l5.6-9.95h-3.842l-.573 1c-.178-.296-.7-.954-.93-1.097-.938-.593-2.315-.313-3.266.225-4.13 2.415-7.144 7.188-9.52 10.9 0 0-2.502 4.137-3.9 4.445-1.084.088-.972-1.373-.925-1.713.42-2.46 1.393-4.797 2.374-6.916a53.12 53.12 0 0 0 6.341-5.181c4.5-4.293 8.277-9.156 8.83-10.243 0 0-.6.12-1.306.143-3.455 4.82-10.525 11.823-12.668 12.866.95-2.284 7.084-13.184 12.304-18.4l.822-.8c1.27-1.24 2.586-2.514 3.612-2.722.108-.01.248 0 .368.253.046.966-.313 1.68-.726 2.492l-.578 1.186s.82-.154 1.357-.33c.624-1.174 1.315-2.492 1.06-4.06-.085-.505-.45-.9-.928-.977-1.558-.296-3.255.856-4.62 1.8l-.055.033c-7.02 5.5-12.948 13.426-18.13 24.25-.376.285-1.827.626-2.073.46.512-1.054 1.156-2.47 1.478-4.007.056-.44.108-.9.108-1.328 0-.945-.227-1.834-1.073-2.448-.992-.494-2.22-.263-3.046.1-3.704 1.537-6.473 5.336-8.472 8.464-1.075 1.988-2.146 4.116-2.443 6.554-.2 1.9.216 3.14 1.302 3.754 1.117.57 2.522-.023 3.074-.308 3.753-1.976 6.376-5.94 8.443-9.562.082-.01 1.2-.044 2.065-.263.01 0 .016 0 .035.01-.05.164-.5 1.482-.5 1.482-1.3 3.842-1.916 6.455-.678 8.002 1.768 2.185 4.696-.076 7.078-3.063-.5 3.58 1.343 4.14 2.757 3.865 1.624-.44 3.434-2.174 4.274-3.063-.27 1.043-.197 2.9 1.28 3.096 1.012.187 1.77-.364 2.647-.836 3.145-1.713 6.9-7.42 7.888-9.07h-1.282c-1.4 2.1-3.158 4.854-5.382 6.16h0zM77.1 46.2c-.2-.297-.266-.62-.272-.97-.038-2.153 2.278-6.007 3.912-8.107h.003c.685 1.5 2.236 2.464 3.173 2.87-1.163 2.6-5.152 8.14-6.816 6.208h0zm7.473-7.366c-.1.077-2.067-.582-2.445-2.393-.32-1.56.753-2.778 1.792-3.392.446-.352 1.118-.472 1.6-.297.457.308.58.857.58 1.45 0 .363-.048.736-.1 1.076v.077a14.62 14.62 0 0 1-1.439 3.48h0zm15.7 6.675c-.001 0-.37.33-.37.33-.528.472-1.07.977-1.726.724-.18-.066-.308-.307-.34-.494-.03-1.35.578-2.602 1.168-3.82l.15-.32c1.696-2.832 3.668-6.17 6.563-8.485.488-.352 1.018-.648 1.577-.417.128.12.278.33.278.538 0 .066-.06.242-.093.296-.808 1.307-1.578 2.68-2.327 3.996-1.464 2.602-2.983 5.3-4.88 7.65h0z"/></svg>