<svg xmlns="http://www.w3.org/2000/svg" width="60" height="35" fill="#f52f6e" xmlns:v="https://vecta.io/nano"><path d="M36.097 14.838c-.5-.04-1.027 0-1.538-.028-.378-.02-.492.14-.483.495l.005 2.08v.846c0 1.913 0 1.913 1.918 1.8 1.57-.083 2.403-.977 2.42-2.593.014-1.55-.812-2.493-2.318-2.6zm.492 3.8c-.453.444-1.296.32-1.296.32v-2.95s.855-.157 1.296.4a1.15 1.15 0 0 1 .291.527c.2.532.112 1.3-.3 1.713zm9.693.722l-1.25-3.948c-.105-.34-.27-.47-.65-.47l-.478.01.014 1.158.358 1.38c.032.137.105.347-.083.396-.1.023-.2.037-.288.04-.1-.003-.197-.017-.288-.04-.188-.05-.116-.26-.083-.396l.358-1.38c.005.006.014-1.158.014-1.158l-.478-.01c-.38 0-.546.13-.65.47l-1.25 3.948c-.26.826-.25.828.67.822.547 0 .675-.043.775-.6.106-.58.32-.496.933-.5s.826-.1.933.5c.1.558.228.6.775.6.922.006.93.005.67-.822zm-19.255-.574c.01-.054.063-.1.115-.075.52.14 1 .354 1.515.346.273-.004.546-.032.605-.345.054-.284-.195-.375-.4-.477l-1.1-.564c-.978-.593-.953-1.946.047-2.52.85-.487 1.725-.347 2.6-.085.312.093.23.17.15.448-.24.695-.2.738-.576.645l-.97-.207c-.196-.023-.426.02-.475.285-.042.23.144.307.3.4l1.024.527c.58.344.958.838.83 1.6s-.585 1.142-1.302 1.33c-.708.187-1.38.083-2.033-.17-.616-.238-.504-.173-.34-1.12zm-6.517 0c.01-.054.063-.1.115-.075.52.14 1 .354 1.515.346.273-.004.546-.032.605-.345.054-.284-.195-.375-.4-.477l-1.1-.564c-.978-.593-.953-1.946.047-2.52.85-.487 1.725-.347 2.6-.085.312.093.23.17.15.448-.24.695-.2.738-.576.645l-.97-.207c-.196-.023-.427.02-.475.285-.042.23.144.307.3.4l1.024.527c.58.344.958.838.83 1.6s-.585 1.142-1.302 1.33c-.708.187-1.38.083-2.033-.17-.616-.238-.504-.173-.34-1.12z"/><path d="M16.08 14.95c.132.015.317.02.524.063.297.054.896.196.74.58-.17.42-.206.893-.907.582-.714-.317-1.276-.023-1.496.716-.185.62-.268 1.298.197 1.832.377.433.874.373 1.395.26.272-.047.62-.435.702.064.063.382.2.845-.415 1.068-1.883.67-3.536-.516-3.465-2.527.058-1.663 1-2.627 2.724-2.64zm28.36-.01H43.4v1.157h1.03V14.94zm8.458 8.125H7v.736h9.856l5.66.043a1.45 1.45 0 0 1 1.146.471l4.23 4.27c.416.435.632.38 1.02-.013L33.25 24.3c.198-.194.427-.5.754-.498h2.975L25.8 34.904c-.03.03-.008.083.036.083h.57L36.422 35c.772 0 .727.003 1.27-.54l9.9-9.922c.348-.352.592-.6 1.002-.738h4.294v-.736zM36.793 11.17a.13.13 0 0 1-.061-.015c-.228-.12-.43-.3-.63-.506L31.705 6.22c-.323-.33-.494-.358-.832-.002l-4.356 4.467c-.108.1-.2.307-.323.444-.024.026-.058.04-.093.04h-2.64c-.114 0-.17-.137-.1-.217L34.116.247c.087-.085.026-.232-.096-.232h-.344C30.107.012 26.537.02 22.968 0c-.423-.002-.65.22-.907.476l-10.203 10.17c-.2.2-.4.386-.625.5-.02.01-.04.016-.063.016H7.127c-.07 0-.127.057-.127.127v.482c0 .07.057.127.127.127H52.77c.07 0 .127-.057.127-.127V11.3c0-.07-.057-.127-.127-.127H36.793z"/></svg>