<svg xmlns="http://www.w3.org/2000/svg" width="100" height="19" fill="none" xmlns:v="https://vecta.io/nano"><path d="M12.87 1.913c-.503-.28-1.944-.107-3.674.43C6.168 4.42 3.61 7.48 3.433 12.39c-.032.117-.33-.016-.4-.052-.818-1.572-1.142-3.228-.46-5.616.127-.213-.29-.474-.364-.4-.15.15-.775.818-1.2 1.54-2.057 3.58-.712 8.165 2.888 10.172a7.45 7.45 0 0 0 10.147-2.897c2.318-4.167.166-12.465-1.193-13.226h0z" fill="#82b541"/><path d="M25.752 3.912c-4.267 0-7.364 3.18-7.364 7.565 0 4.42 3.1 7.506 7.513 7.506 2.234 0 4.003-.7 5.4-2.143.42-.455.465-.894.465-1.06 0-.715-.53-1.234-1.26-1.234-.368 0-.676.14-1.03.467-.797.744-1.846 1.505-3.587 1.505-2.42 0-4.4-1.823-4.515-4.165h9.637c1.048 0 1.557-.5 1.557-1.502 0-.297 0-.512-.06-.936-.52-3.758-3.05-6.002-6.768-6.002h0zm0 2.347c2.314 0 3.8 1.48 3.9 3.865H21.4c.217-2.2 2.08-3.865 4.363-3.865h0zm16.03-2.347c-1.938 0-3.858 1.118-4.607 2.67v-.96c0-1.486-1.15-1.562-1.38-1.562-.68 0-1.408.4-1.408 1.562V17.2c0 1.543 1.223 1.62 1.468 1.62s1.468-.078 1.468-1.62V11c0-2.703 1.527-4.6 3.714-4.6 2.118 0 3.148 1.394 3.148 4.262v6.54c0 1.543 1.223 1.62 1.468 1.62s1.468-.078 1.468-1.62V9.745c0-2.82-1.403-5.832-5.34-5.832v-.001zm18.622.15c-.678 0-1.17.397-1.463 1.178l-4.017 10.13L50.94 5.24c-.312-.792-.8-1.178-1.493-1.178-.8 0-1.468.633-1.468 1.412 0 .193.022.443.184.833l4.616 10.93c.55 1.32 1.455 1.595 2.117 1.595s1.567-.277 2.118-1.595l4.646-11c.16-.386.183-.67.183-.803 0-.788-.62-1.382-1.438-1.382h0zm8.533-.15c-1.878 0-3.626.524-4.924 1.476-.44.304-.654.684-.654 1.162 0 .657.5 1.173 1.14 1.173.277 0 .587-.1.87-.3 1.115-.745 2.163-1.093 3.297-1.093 2.17 0 3.417 1.107 3.417 3.038v.32c-4.873.005-9.828.595-9.828 4.847 0 3.06 2.607 4.43 5.2 4.43 2.058 0 3.7-.818 4.755-2.366v.744c0 1.1.742 1.502 1.38 1.502.134 0 1.32-.042 1.32-1.502V9.536c0-3.522-2.23-5.623-5.964-5.623v.001zm2.53 7.932h.618v.678c0 2.48-1.575 4.083-4.012 4.083-.66 0-2.82-.154-2.82-2.143 0-2.348 3.546-2.62 6.214-2.62zM82.55 6.737c1.284 0 1.35-1.002 1.35-1.203 0-.596-.355-1.233-1.35-1.233H79.9V1.62C79.907.425 79.133 0 78.47 0c-.245 0-1.468.078-1.468 1.62v12.723c0 2.936 1.444 4.488 4.177 4.488.707 0 1.396-.125 1.847-.336.517-.258.813-.684.813-1.166a1.13 1.13 0 0 0-1.171-1.174c-.13 0-.317.032-.523.092-.25.063-.422.088-.608.088-1.112 0-1.63-.728-1.63-2.3v-7.3l2.64.001zm9.705-2.825c-4.44 0-7.66 3.156-7.66 7.504 0 2.117.78 4.047 2.197 5.433 1.406 1.375 3.346 2.133 5.465 2.133 4.385 0 7.7-3.252 7.7-7.565 0-4.348-3.236-7.504-7.7-7.504h0zm0 12.573c-3.045 0-4.637-2.55-4.637-5.07 0-3.462 2.404-5.038 4.637-5.038s4.637 1.576 4.637 5.038c0 3.483-2.404 5.07-4.637 5.07z" fill="#000"/></svg>