<svg xmlns="http://www.w3.org/2000/svg" width="120" height="64" fill="none" xmlns:v="https://vecta.io/nano"><path d="M7.212 29.34c-.223 0-.4.17-.43.412L6 35.597l.782 5.746c.03.242.206.41.43.41.216 0 .392-.167.427-.41v-.001.001l.927-5.748-.927-5.848c-.033-.24-.212-.41-.427-.41zm4.4-3.194c-.037-.25-.22-.424-.445-.424s-.414.18-.445.424c0 .002-1.052 9.453-1.052 9.453l1.052 9.244c.03.248.218.427.445.427s.407-.174.444-.425l1.197-9.246-1.196-9.453zm16.575-8.72a.82.82 0 0 0-.809.789l-.838 17.39.838 11.24c.022.44.377.786.81.786s.785-.348.8-.788v.003l.947-11.24-.947-17.39c-.025-.44-.38-.79-.8-.79zm-8.58 6.044c-.33 0-.602.26-.628.608L18.037 35.6l.944 11.148c.025.345.297.606.628.606s.598-.26.627-.606L21.308 35.6l-1.072-11.526c-.03-.345-.3-.605-.627-.605zm17.297 24.16c.535 0 .97-.425.992-.968l.822-11.05-.82-23.154c-.022-.543-.457-.968-.992-.968s-.976.426-.993.97L35.185 35.6l.728 11.055a.99.99 0 0 0 .992.965zm17.848.052c.736 0 1.344-.597 1.358-1.33v.008-.008l.573-10.733-.573-26.74c-.013-.732-.62-1.33-1.358-1.33a1.36 1.36 0 0 0-1.358 1.331l-.512 26.73c0 .017.512 10.75.512 10.75a1.36 1.36 0 0 0 1.358 1.323zm-8.992-.042c.64 0 1.158-.506 1.175-1.15v.008l.697-10.882-.698-23.32a1.17 1.17 0 0 0-1.175-1.15 1.17 1.17 0 0 0-1.176 1.15l-.62 23.323.62 10.88c.014.638.53 1.144 1.176 1.144zm-21.88-.102c.38 0 .69-.3.718-.695l1-11.24-1-10.694c-.028-.395-.336-.693-.718-.693s-.695.3-.72.697l-.9 10.69.9 11.24c.025.396.332.696.72.696zm-8.51-.616c.278 0 .504-.216.536-.515l1.135-10.808-1.133-11.215c-.034-.3-.26-.516-.537-.516s-.508.217-.536.516l-1 11.215 1 10.806c.028.3.253.517.536.517zm34.87-35.018a1.26 1.26 0 0 0-1.268 1.242l-.566 22.47.566 10.812c.014.688.57 1.233 1.268 1.233a1.26 1.26 0 0 0 1.266-1.241v.01l.635-10.812-.635-22.474a1.26 1.26 0 0 0-1.266-1.239zM32.53 47.65c.48 0 .878-.386.9-.88l.884-11.164-.884-21.37c-.024-.494-.42-.878-.9-.878s-.88.386-.902.878l-.782 21.37.784 11.17c.02.488.415.874.9.874zm9.87-1.054v-.006l.76-10.98-.76-23.934c-.018-.594-.495-1.06-1.083-1.06a1.08 1.08 0 0 0-1.084 1.061l-.674 23.933.675 10.986a1.08 1.08 0 0 0 1.083 1.054c.59 0 1.063-.465 1.083-1.057v.005h0zM99.84 21.816a13.33 13.33 0 0 0-5.091 1.005C93.702 11.153 83.755 2 71.622 2c-2.97 0-5.863.575-8.42 1.547-.993.378-1.258.767-1.267 1.522v41.1c.01.792.635 1.452 1.42 1.53.033.003 36.247.022 36.48.022 7.268 0 13.16-5.797 13.16-12.947s-5.892-12.948-13.16-12.948zM59.246 5.034c-.79 0-1.44.638-1.45 1.423L57.2 35.62l.595 10.585c.01.773.66 1.4 1.45 1.4a1.45 1.45 0 0 0 1.449-1.422v.012l.646-10.586-.646-29.167c-.01-.782-.66-1.42-1.45-1.42zM16.628 55.942c-1.557-.36-1.978-.552-1.978-1.16 0-.428.35-.87 1.403-.87.9 0 1.6.36 2.23.994l1.417-1.352c-.926-.952-2.048-1.518-3.577-1.518-1.938 0-3.508 1.077-3.508 2.83 0 1.904 1.264 2.47 3.073 2.883 1.85.413 2.19.69 2.19 1.312 0 .73-.55 1.05-1.71 1.05-.94 0-1.824-.317-2.512-1.106l-1.417 1.243C12.98 61.324 14.413 62 16.053 62c2.68 0 3.86-1.242 3.86-3.077 0-2.1-1.726-2.623-3.284-2.982zm9.038-3.905c-2.68 0-4.264 2.042-4.264 4.982S22.987 62 25.666 62s4.266-2.04 4.266-4.98-1.587-4.982-4.266-4.982zm0 8.046c-1.585 0-2.245-1.34-2.245-3.063s.66-3.064 2.245-3.064 2.245 1.34 2.245 3.064-.658 3.063-2.245 3.063zm12.193-2.47c0 1.545-.773 2.498-2.02 2.498s-2.006-.98-2.006-2.525v-5.398h-1.965v5.426c0 2.814 1.6 4.387 3.97 4.387 2.497 0 3.985-1.615 3.985-4.415v-5.398H37.86v5.425zm10.437-1.34l.028 2.11c-.127-.25-.45-.73-.687-1.09l-3.48-5.107h-1.88v9.662h1.937v-4.252l-.028-2.11c.125.248.45.73.687 1.09l3.606 5.27h1.754v-9.662h-1.937v4.088zm7.534-4.086h-3.072v9.662h2.93c2.526 0 5.024-1.436 5.024-4.83 0-3.534-2.077-4.83-4.882-4.83zm-.142 7.785h-.966v-5.908h1.038c2.077 0 2.933.98 2.933 2.953 0 1.767-.94 2.954-3.005 2.954zm11.1-6.02c.884 0 1.445.387 1.796 1.05l1.824-.828c-.618-1.255-1.74-2.14-3.592-2.14-2.565 0-4.363 2.042-4.363 4.982 0 3.05 1.725 4.98 4.292 4.98 1.782 0 2.96-.814 3.634-2.18l-1.655-.967c-.52.857-1.04 1.23-1.923 1.23-1.473 0-2.33-1.326-2.33-3.063-.001-1.793.844-3.064 2.315-3.064zm7.285-1.767h-1.964v9.662h5.903v-1.906h-3.94v-7.756zm9.114-.15c-2.68 0-4.266 2.042-4.266 4.982S80.505 62 83.186 62s4.264-2.04 4.264-4.98-1.586-4.982-4.264-4.982zm0 8.046c-1.587 0-2.245-1.34-2.245-3.063s.658-3.064 2.245-3.064 2.243 1.34 2.243 3.064-.66 3.063-2.243 3.063zm12.19-2.47c0 1.545-.77 2.498-2.018 2.498s-2.007-.98-2.007-2.525v-5.398h-1.964v5.426c0 2.814 1.6 4.387 3.97 4.387 2.497 0 3.984-1.615 3.984-4.415v-5.398h-1.966v5.425zm7.492-5.425h-3.07v9.662h2.93c2.526 0 5.022-1.436 5.022-4.83 0-3.534-2.075-4.83-4.882-4.83zm-.14 7.785h-.968v-5.908h1.04c2.075 0 2.93.98 2.93 2.953 0 1.767-.94 2.954-3.002 2.954z" fill="url(#A)"/><defs><linearGradient id="A" x1="59.495" y1="1.992" x2="59.495" y2="61.992" gradientUnits="userSpaceOnUse"><stop stop-color="#f79810"/><stop offset="1" stop-color="#f8310e"/></linearGradient></defs></svg>