<svg xmlns="http://www.w3.org/2000/svg" width="40" height="40" fill="#7772f1" xmlns:v="https://vecta.io/nano"><path d="M30.78 18.835a.78.78 0 0 0-.781.781v.117a.781.781 0 1 0 1.563 0v-.117a.78.78 0 0 0-.781-.781zm5-4.157V6.726c0-1.594-1.297-2.9-2.9-2.9a2.88 2.88 0 0 0-1.776.612l-8.36 3.13a.78.78 0 0 0 .548 1.463l6.704-2.5-.007.195v9.062a.781.781 0 1 0 1.563 0V6.725a1.33 1.33 0 0 1 1.328-1.328 1.33 1.33 0 0 1 1.328 1.328v25.78a1.33 1.33 0 0 1-1.328 1.328 1.33 1.33 0 0 1-1.328-1.328v-9.453a.781.781 0 1 0-1.562 0v9.453l.007.195-19.695-7.377V13.908l7.93-2.97a.781.781 0 0 0-.548-1.463l-8.294 3.1H4.6c-2.542 0-4.6 2.068-4.6 4.6v4.844c0 2.492 1.988 4.526 4.46 4.606l3.442 9.02a.78.78 0 0 0 .73.503h4.53a.78.78 0 0 0 .73-1.06l-3.015-7.9 20.236 7.58c.5.383 1.107.612 1.776.612 1.594 0 2.9-1.297 2.9-2.9v-7.952A5.01 5.01 0 0 0 40 19.616a5.01 5.01 0 0 0-4.219-4.938zM4.6 25.085a3.05 3.05 0 0 1-3.047-3.047v-4.844a3.05 3.05 0 0 1 3.047-3.047h4.14v10.938H4.6zm7.42 9.518H9.17l-3.036-7.956h2.86l3.036 7.956zm23.752-11.64V16.27c1.52.355 2.656 1.72 2.656 3.347s-1.136 2.992-2.656 3.347zM21.07 8.698a.79.79 0 0 0-.552-.23c-.205 0-.407.084-.552.23a.79.79 0 0 0-.23.552c0 .205.084.407.23.552a.79.79 0 0 0 .552.23.78.78 0 0 0 .552-.23c.145-.147.23-.347.23-.552s-.084-.407-.23-.552zM5.7 17.163c-.145-.146-.347-.23-.552-.23a.78.78 0 0 0-.552.23c-.145.147-.23.347-.23.552a.79.79 0 0 0 .781.782c.205 0 .407-.084.552-.23a.79.79 0 0 0 .23-.552c0-.205-.084-.407-.23-.552zm.853 4.25h-2.5a.781.781 0 1 0 0 1.563h2.5a.781.781 0 1 0 0-1.562z"/></svg>