<svg xmlns="http://www.w3.org/2000/svg" width="40" height="40" fill="none" xmlns:v="https://vecta.io/nano"><g clip-path="url(#A)" fill="#7772f1"><path d="M31.802 29.454a.79.79 0 0 0-.552-.23c-.205 0-.407.084-.552.23a.79.79 0 0 0-.23.552.78.78 0 0 0 .23.552c.147.145.347.23.552.23a.78.78 0 0 0 .552-.23c.145-.147.23-.347.23-.552a.78.78 0 0 0-.23-.552zM36.875.001H3.125A3.13 3.13 0 0 0 0 3.126v24.538a3.13 3.13 0 0 0 3.125 3.125H15.4v3.91a4.54 4.54 0 0 0-4.088 4.509.78.78 0 0 0 .781.781h15.833a.78.78 0 0 0 .781-.781c0-2.402-1.88-4.373-4.245-4.52v-3.9H28.1a.781.781 0 1 0 0-1.562H3.125c-.862 0-1.562-.7-1.562-1.562V3.126c0-.862.7-1.563 1.563-1.563h33.75c.862 0 1.563.7 1.563 1.563v24.538c0 .862-.7 1.563-1.562 1.563H33.96a.781.781 0 1 0 0 1.563h2.917A3.13 3.13 0 0 0 40 27.664V3.126A3.13 3.13 0 0 0 36.875.001zM16.953 30.8h5.938v3.9h-5.937v-3.9zm7.214 5.462c1.367 0 2.52.928 2.865 2.188H12.97c.344-1.26 1.498-2.187 2.864-2.187h8.333z"/><path d="M20.474 26.955a.79.79 0 0 0-.552-.23c-.205 0-.407.084-.552.23a.79.79 0 0 0-.23.552c0 .205.084.407.23.552a.79.79 0 0 0 .552.23.78.78 0 0 0 .552-.23.79.79 0 0 0 .23-.552c0-.206-.084-.407-.23-.552zm15.62-23.823H23.672a.782.782 0 1 0 0 1.563h11.64v19.53H4.688V4.694H16.68a.781.781 0 1 0 0-1.563H3.906a.78.78 0 0 0-.781.781v21.094a.78.78 0 0 0 .781.781h32.188a.78.78 0 0 0 .781-.781V3.913a.78.78 0 0 0-.781-.781zM20.7 3.36a.79.79 0 0 0-.552-.23c-.205 0-.407.084-.552.23a.79.79 0 0 0-.23.552.79.79 0 0 0 .229.553c.145.145.347.228.552.228s.407-.083.552-.228a.79.79 0 0 0 .229-.553c0-.205-.084-.407-.23-.552z"/></g><defs><clipPath id="A"><path fill="#fff" d="M0 0h40v40H0z"/></clipPath></defs></svg>