<svg xmlns="http://www.w3.org/2000/svg" xmlns:xlink="http://www.w3.org/1999/xlink" width="1920" height="1284" fill="none" xmlns:v="https://vecta.io/nano"><g opacity=".8" clip-path="url(#A)" fill="#ffcf2d"><use xlink:href="#C"/><use xlink:href="#D"/><path d="M25.135 57.425c.792.792.785 1.987-.016 2.788s-1.996.808-2.788.016-.785-1.987.016-2.788 2.062-.742 2.788-.016zM37.02 45.54c.792.792.785 1.987-.016 2.788s-1.996.808-2.788.016-.785-1.987.016-2.788 2.062-.742 2.788-.016zM48.973 33.6c.792.792.785 1.987-.016 2.788s-1.996.808-2.788.016-.785-1.987.016-2.788 2.062-.742 2.788-.016z"/><use xlink:href="#E"/><use xlink:href="#F"/><path d="M11.066 91.165c.792.792.785 1.987-.016 2.788s-1.996.808-2.788.016-.785-1.987.016-2.788 1.996-.808 2.788-.016z"/><use xlink:href="#G"/><path d="M34.97 67.26c.792.792.785 1.987-.016 2.788s-1.996.808-2.788.016-.785-1.987.016-2.788 1.996-.808 2.788-.016zm11.885-11.884c.792.792.785 1.987-.016 2.788s-1.996.808-2.788.016-.785-1.987.016-2.788 1.996-.808 2.788-.016zm11.953-11.952c.792.792.785 1.987-.016 2.788s-1.996.808-2.788.016-.785-1.987.016-2.788 1.996-.808 2.788-.016zM70.76 31.47c.792.792.785 1.987-.016 2.788s-1.996.808-2.788.016-.785-1.987.016-2.788c.734-.734 1.996-.808 2.788-.016zM5.532 37.822c.792.792.785 1.987-.016 2.788s-1.996.808-2.788.016-.785-1.987.016-2.788 1.996-.808 2.788-.016zm11.885-11.885c.792.792.785 1.987-.016 2.788s-1.996.808-2.788.016-.785-1.987.016-2.788 1.996-.808 2.788-.016zM29.37 13.985c.792.792.785 1.987-.016 2.788s-1.996.808-2.788.016-.785-1.987.016-2.788 1.996-.808 2.788-.016z"/><use xlink:href="#H"/><path d="M3.414 59.6c.792.792.785 1.987-.016 2.788s-1.996.808-2.788.016-.785-1.987.016-2.788c.734-.734 1.996-.808 2.788-.016zm11.952-11.953c.792.792.785 1.987-.016 2.788s-1.996.808-2.788.016-.785-1.987.016-2.788 1.996-.808 2.788-.016zm11.886-11.885c.792.792.785 1.987-.016 2.788s-1.996.808-2.788.016-.785-1.987.016-2.788 1.996-.808 2.788-.016zM39.204 23.82c.792.792.785 1.987-.016 2.788s-1.996.808-2.788.016-.785-1.987.016-2.788 1.996-.808 2.788-.016z"/><use xlink:href="#I"/><use xlink:href="#J"/><path d="M20.835 100.934c.792.792.785 1.987-.016 2.8a1.92 1.92 0 0 1-2.788.016c-.792-.792-.785-1.987.016-2.8s2.062-.742 2.788-.016zm11.952-11.952c.792.792.785 1.987-.016 2.788s-1.996.808-2.788.016-.785-1.987.016-2.788c.735-.734 2.062-.742 2.788-.016zM44.74 77.03c.792.792.785 1.987-.016 2.788s-1.996.808-2.788.016-.785-1.987.016-2.788 2.062-.742 2.788-.016zm11.884-11.886c.792.792.785 1.987-.016 2.788s-1.996.808-2.788.016-.785-1.987.016-2.788 2.062-.742 2.788-.016zm11.952-11.952c.792.792.785 1.987-.016 2.788s-1.996.808-2.788.016-.785-1.987.016-2.788 2.062-.742 2.788-.016zM80.53 41.24c.792.792.785 1.987-.016 2.788s-1.996.808-2.788.016-.785-1.987.016-2.788c.734-.734 2.062-.742 2.788-.016zM6.832 134.606c.792.792.785 1.987-.016 2.788s-1.996.8-2.788.017-.785-1.988.016-2.8c.734-.734 1.996-.808 2.788-.016z"/><use xlink:href="#K"/><path d="M30.653 113.557c.774-.775.782-2.023.016-2.8s-2.014-.758-2.788.016-.782 2.023-.016 2.8 2.014.758 2.788-.016zm11.967-14.74c.792.792.785 1.987-.016 2.788a1.92 1.92 0 0 1-2.788.016c-.792-.792-.785-1.987.016-2.788.735-.734 1.996-.808 2.788-.016zm11.954-11.952c.792.792.785 1.987-.016 2.788s-1.996.808-2.788.016-.785-1.987.016-2.788 1.996-.808 2.788-.016zM66.46 74.98c.792.792.785 1.987-.016 2.788s-1.996.808-2.788.016-.785-1.987.016-2.788 1.996-.808 2.788-.016zm11.935-9.165c.774-.774.782-2.023.016-2.788s-2.014-.758-2.788.016-.782 2.023-.016 2.788 2.014.758 2.788-.016zm11.968-14.74c.792.792.785 1.987-.016 2.788s-1.996.808-2.788.016-.785-1.987.016-2.788c.734-.735 1.996-.808 2.788-.016zM4.715 156.393c.792.792.785 1.987-.016 2.8a1.92 1.92 0 0 1-2.788.016c-.792-.792-.785-1.987.016-2.8a1.92 1.92 0 0 1 2.788-.016zm11.952-11.953c.792.792.785 1.987-.016 2.788a1.92 1.92 0 0 1-2.788.016c-.792-.792-.785-1.987.016-2.788.734-.734 1.996-.808 2.788-.016zm11.885-11.884c.792.792.785 1.987-.016 2.8a1.92 1.92 0 0 1-2.788.016c-.792-.792-.785-1.987.016-2.8a1.92 1.92 0 0 1 2.788-.016zm11.952-11.953c.792.792.785 1.987-.016 2.788s-1.996.8-2.788.017-.785-1.987.016-2.8a1.92 1.92 0 0 1 2.788-.016zm11.953-11.95c.792.792.785 1.987-.016 2.788s-1.996.808-2.788.016-.785-1.987.016-2.788c.735-.734 1.996-.808 2.788-.016zM64.4 96.7c.792.792.785 1.987-.016 2.788s-1.996.808-2.788.016-.785-1.987.016-2.788 1.996-.808 2.788-.016zm11.884-11.886c.792.792.785 1.987-.016 2.788s-1.996.808-2.788.016-.785-1.987.016-2.788 1.996-.808 2.788-.016zm11.952-11.952c.792.792.785 1.987-.016 2.788s-1.996.808-2.788.016-.785-1.987.016-2.788 1.996-.808 2.788-.016zM100.198 60.9c.792.792.785 1.987-.016 2.788s-1.996.808-2.788.016-.785-1.987.016-2.788c.735-.734 1.996-.808 2.788-.016zM14.483 166.162c.792.792.785 1.987-.016 2.788s-1.996.808-2.788.016-.785-1.987.016-2.788 2.062-.742 2.788-.016zM26.435 154.2c.792.792.785 1.987-.016 2.788s-1.996.808-2.788.016-.785-1.987.016-2.788c.734-.735 2.062-.742 2.788-.016zm11.885-11.876c.792.792.785 1.987-.016 2.788s-1.996.808-2.788.016-.785-1.987.016-2.788 2.062-.742 2.788-.016zm11.953-11.952c.792.792.785 1.987-.016 2.788s-1.996.808-2.788.016-.785-1.987.016-2.788 2.062-.742 2.788-.016zm11.952-11.952c.792.792.785 1.987-.016 2.788s-1.996.808-2.788.016-.785-1.987.016-2.788c.735-.735 2.062-.742 2.788-.016zm11.952-11.953c.792.793.785 1.987-.016 2.8a1.92 1.92 0 0 1-2.788.016c-.792-.792-.785-1.987.016-2.788s2.062-.743 2.788-.017zm11.886-11.884c.792.792.785 1.987-.016 2.788s-1.996.808-2.788.016-.785-1.987.016-2.788 2.062-.742 2.788-.016zM98.015 82.63c.792.792.785 1.987-.016 2.788s-1.996.808-2.788.016-.785-1.987.016-2.788 2.062-.742 2.788-.016zm11.952-11.952c.792.792.785 1.987-.016 2.788s-1.997.808-2.8.016-.785-1.987.016-2.788c.735-.735 2.063-.742 2.8-.016z"/></g><g opacity=".12" clip-path="url(#B)" fill="#ffcf2d"><path d="M1925.08 1054c-63.62 0-115.08 51.46-115.08 115.08 0 63.46 51.46 115.08 115.08 115.08 63.46 0 115.08-51.46 115.08-115.08-.16-63.62-51.62-115.08-115.08-115.08zm0 222.74c-59.5 0-107.66-48.15-107.66-107.66s48.15-107.66 107.66-107.66 107.66 48.15 107.66 107.66c0 59.35-48.3 107.66-107.66 107.66zm0-197.96c-49.73 0-90.14 40.42-90.14 90.14 0 49.73 40.4 90.14 90.14 90.14 49.72 0 90.14-40.26 90.14-89.98 0-49.88-40.42-90.3-90.14-90.3zm0 166.54c-42.15 0-76.4-34.25-76.4-76.4s34.25-76.4 76.4-76.4 76.4 34.25 76.4 76.4-34.25 76.4-76.4 76.4z"/></g><defs><clipPath id="A"><path fill="#fff" transform="matrix(.707107 -.707107 .707107 .707107 -58.3528 98.9346)" d="M0 0h139v101H0z"/></clipPath><clipPath id="B"><path fill="#fff" transform="translate(1810 1054)" d="M0 0h230v230H0z"/></clipPath><path id="C" d="M1.23 81.33c.792.792.785 1.987-.016 2.788s-1.996.808-2.788.016-.785-1.987.016-2.788 2.062-.742 2.788-.016z"/><path id="D" d="M13.183 69.378c.792.792.785 1.987-.016 2.788s-1.996.808-2.788.016-.785-1.987.016-2.788c.734-.734 2.062-.742 2.788-.016z"/><path id="E" d="M60.925 21.636c.792.792.785 1.987-.016 2.788s-1.996.808-2.788.016-.785-1.987.016-2.788c.734-.735 2.062-.742 2.788-.016z"/><path id="F" d="M-.886 103.117c.792.792.785 1.987-.016 2.788s-1.996.808-2.788.016-.785-1.987.016-2.788 1.996-.808 2.788-.016z"/><path id="G" d="M23.018 79.213c.792.792.785 1.987-.016 2.788s-1.996.808-2.788.016-.785-1.987.016-2.788c.734-.734 1.996-.808 2.788-.016z"/><path id="H" d="M41.32 2.033c.792.792.785 1.987-.016 2.788s-1.996.808-2.788.016-.785-1.987.016-2.788c.735-.734 1.996-.808 2.788-.016z"/><path id="I" d="M51.156 11.868c.792.792.785 1.987-.016 2.788s-1.996.808-2.788.016-.785-1.987.016-2.788c.734-.735 1.996-.808 2.788-.016z"/><path id="J" d="M8.883 112.886c.792.792.785 1.987-.016 2.79s-1.996.808-2.788.016-.785-1.987.016-2.79 2.062-.742 2.788-.016z"/><path id="K" d="M18.717 122.72c.792.792.785 1.987-.016 2.79s-1.996.808-2.788.016-.785-1.987.016-2.79 1.996-.808 2.788-.016z"/></defs></svg>