<svg xmlns="http://www.w3.org/2000/svg" xmlns:xlink="http://www.w3.org/1999/xlink" viewBox="0 0 130 22" xmlns:v="https://vecta.io/nano"><defs><path id="A" d="M0 0h130v22H0z"/></defs><clipPath id="B"><use xlink:href="#A"/></clipPath><g clip-path="url(#B)"><g fill="#1e212c"><path d="M0 11.1C0 5 3.3 1.3 8.7 1.3c4.1 0 7.4 2.5 8 6.2.1.4-.2.7-.6.7h-2.6c-.3 0-.5-.2-.6-.5-.5-1.9-2.1-3.1-4.2-3.1C5.8 4.6 4 7.1 4 11.1s1.8 6.5 4.8 6.5c2.1 0 3.6-1.1 4.2-2.9.1-.3.3-.5.6-.5h2.6c.4 0 .7.4.6.7-.6 3.6-3.8 6-8 6-5.5 0-8.8-3.8-8.8-9.8zm24.3 9.3h-2.9a.47.47 0 0 1-.5-.5V2.6c0-.4.4-.8.8-.8h7c4.1 0 6.6 2.3 6.6 5.9 0 2.1-1 4-2.7 5-.4.2-.5.7-.3 1l3.1 5.9c.2.3-.1.7-.4.7h-3.3a.55.55 0 0 1-.5-.3l-2.9-6c-.1-.3-.4-.4-.7-.4h-2.3a.47.47 0 0 0-.5.5V20c.1.2-.2.4-.5.4zm.6-10.2a.47.47 0 0 0 .5.5h3c2 0 3.1-1.1 3.1-2.9s-1.2-2.9-3.1-2.9h-2.9a.47.47 0 0 0-.5.5v4.8h-.1zm26.6 10.2h-11a.68.68 0 0 1-.7-.7V2.5a.68.68 0 0 1 .7-.7h11a.68.68 0 0 1 .7.7v1.9a.68.68 0 0 1-.7.7h-7.3a.47.47 0 0 0-.5.5V9a.47.47 0 0 0 .5.5H51a.68.68 0 0 1 .7.7v1.7a.68.68 0 0 1-.7.7h-6.8a.47.47 0 0 0-.5.5v3.8a.47.47 0 0 0 .5.5h7.3a.68.68 0 0 1 .7.7V20c0 .1-.3.4-.7.4h0zM67 15.9h-5.7c-.3 0-.5.2-.6.4L59.6 20c-.1.3-.3.4-.6.4h-2.6c-.4 0-.7-.4-.6-.8l6-17.4c.1-.2.3-.4.6-.4h3.7c.3 0 .5.2.6.4l6 17.4c.1.4-.2.8-.6.8h-2.9c-.3 0-.5-.2-.6-.4l-1.1-3.7c0-.2-.3-.4-.5-.4zM62.1 13h4.1c.2 0 .3-.2.3-.4l-2.2-7h-.2l-2.2 7c-.1.2 0 .4.2.4zM79 19.7V5.5a.47.47 0 0 0-.5-.5h-4.4c-.4 0-.8-.3-.8-.8V2.5c0-.4.3-.8.8-.8h13.6c.4 0 .8.3.8.8v1.7c0 .4-.3.8-.8.8h-4.4a.47.47 0 0 0-.5.5v14.3a.68.68 0 0 1-.7.7h-2.5c-.3-.1-.6-.4-.6-.8h0zm24.8.7h-11a.68.68 0 0 1-.7-.7V2.5a.68.68 0 0 1 .7-.7h11a.68.68 0 0 1 .7.7v1.9a.68.68 0 0 1-.7.7h-7.3a.47.47 0 0 0-.5.5V9a.47.47 0 0 0 .5.5h6.8a.68.68 0 0 1 .7.7v1.7a.68.68 0 0 1-.7.7h-6.8a.47.47 0 0 0-.5.5v3.8a.47.47 0 0 0 .5.5h7.3a.68.68 0 0 1 .7.7V20c0 .1-.3.4-.7.4h0z"/></g><g fill="#ff3f3a"><path d="M117.7 9.7l-6.2-8.1c-.4-.4-.9-.6-1.4-.6s-1 .2-1.4.6a2.13 2.13 0 0 0 0 2.8l4.9 6.6-4.9 6.6a2.13 2.13 0 0 0 0 2.8c.4.4.9.6 1.4.6s1-.2 1.4-.6l6.2-8.1c.7-.6.7-1.8 0-2.6zm2.6 0l6.2-8.1c.4-.4.9-.6 1.4-.6s1 .2 1.4.6a2.13 2.13 0 0 1 0 2.8l-4.9 6.6 4.9 6.6a2.13 2.13 0 0 1 0 2.8c-.4.4-.9.6-1.4.6s-1-.2-1.4-.6l-6.2-8.1c-.7-.6-.7-1.8 0-2.6z"/></g></g></svg>