<svg xmlns="http://www.w3.org/2000/svg" xmlns:xlink="http://www.w3.org/1999/xlink" width="1920" height="600" fill="none" xmlns:v="https://vecta.io/nano"><path opacity=".2" d="M0 0H1920V600H0V0Z" fill="url(#A)"/><g clip-path="url(#B)"><g opacity=".2" clip-path="url(#C)" fill="#fff"><path d="M30.098 330C-48.456 330-112 393.544-112 472.097c0 78.36 63.544 142.098 142.098 142.098 78.36 0 142.098-63.544 142.098-142.098C172 393.544 108.456 330 30.098 330zm0 275.034c-73.485 0-132.936-59.45-132.936-132.937S-43.388 339.16 30.098 339.16s132.937 59.45 132.937 132.936c0 73.3-59.646 132.937-132.936 132.937zm.002-244.43c-61.4 0-111.3 49.9-111.3 111.3s49.9 111.3 111.3 111.3S141.4 533.5 141.4 472.098c0-61.595-49.9-111.494-111.3-111.494zm0 205.64c-52.044 0-94.342-42.298-94.342-94.342s42.298-94.34 94.342-94.34 94.342 42.298 94.342 94.34-42.298 94.342-94.34 94.342zm-.002-156.716c-34.5 0-62.57 28.07-62.57 62.57s27.874 62.57 62.57 62.57c34.5 0 62.57-28.07 62.57-62.57-.195-34.5-28.07-62.57-62.57-62.57zm0 96.096c-18.517 0-33.526-15-33.526-33.526s15-33.526 33.526-33.526 33.526 15.008 33.526 33.526-15 33.526-33.526 33.526z"/></g><g opacity=".8" fill="#fff"><path d="M1768.34 163.264a2.6 2.6 0 0 1-2.67 2.659c-1.53 0-2.67-1.14-2.67-2.66s1.14-2.66 2.67-2.66c1.52 0 2.67 1.267 2.67 2.66zm22.74 0a2.6 2.6 0 0 1-2.67 2.659c-1.53 0-2.67-1.14-2.67-2.66s1.14-2.66 2.67-2.66c1.4 0 2.67 1.267 2.67 2.66z"/><use xlink:href="#D"/><path d="M1836.43 163.264a2.67 2.67 0 1 1-5.34 0c0-1.52 1.15-2.66 2.67-2.66s2.67 1.267 2.67 2.66zm22.74 0a2.67 2.67 0 1 1-5.34 0c0-1.52 1.15-2.66 2.67-2.66 1.4 0 2.67 1.267 2.67 2.66zm22.73 0a2.67 2.67 0 1 1-5.34 0c0-1.52 1.15-2.66 2.67-2.66s2.67 1.267 2.67 2.66zm22.62 0c0 1.52-1.14 2.66-2.67 2.66a2.6 2.6 0 0 1-2.67-2.659c0-1.52 1.15-2.66 2.67-2.66a2.68 2.68 0 0 1 2.67 2.659zm-136.18 18.866c0 1.52-1.15 2.66-2.67 2.66-1.53 0-2.67-1.14-2.67-2.66s1.14-2.66 2.67-2.66a2.6 2.6 0 0 1 2.67 2.659z"/><use xlink:href="#E"/><use xlink:href="#F"/><path d="M1836.43 182.13c0 1.52-1.15 2.66-2.67 2.66s-2.67-1.14-2.67-2.66a2.67 2.67 0 1 1 5.34 0zm22.74 0c0 1.52-1.15 2.66-2.67 2.66s-2.67-1.14-2.67-2.66a2.6 2.6 0 0 1 2.67-2.659c1.4 0 2.67 1.14 2.67 2.66zm22.73 0c0 1.52-1.15 2.66-2.67 2.66s-2.67-1.14-2.67-2.66a2.67 2.67 0 1 1 5.34 0zm22.62 0c0 1.52-1.14 2.66-2.67 2.66-1.52 0-2.67-1.14-2.67-2.66a2.6 2.6 0 0 1 2.67-2.659c1.53 0 2.67 1.14 2.67 2.66zm-136.18-56.47c0 1.52-1.15 2.66-2.67 2.66-1.53 0-2.67-1.14-2.67-2.66s1.14-2.66 2.67-2.66c1.52 0 2.67 1.14 2.67 2.66zm22.74 0c0 1.52-1.15 2.66-2.67 2.66-1.53 0-2.67-1.14-2.67-2.66s1.14-2.66 2.67-2.66c1.4 0 2.67 1.14 2.67 2.66zm22.62 0c0 1.52-1.15 2.66-2.67 2.66s-2.67-1.14-2.67-2.66 1.27-2.66 2.67-2.66c1.52 0 2.67 1.14 2.67 2.66zm22.73 0c0 1.52-1.15 2.66-2.67 2.66s-2.67-1.14-2.67-2.66 1.27-2.66 2.67-2.66 2.67 1.14 2.67 2.66z"/><path d="M1859.17 125.66c0 1.52-1.15 2.66-2.67 2.66s-2.67-1.14-2.67-2.66 1.15-2.66 2.67-2.66c1.4 0 2.67 1.14 2.67 2.66zm22.73 0c0 1.52-1.15 2.66-2.67 2.66s-2.67-1.14-2.67-2.66 1.15-2.66 2.67-2.66 2.67 1.14 2.67 2.66zm22.62 0c0 1.52-1.14 2.66-2.67 2.66-1.52 0-2.67-1.14-2.67-2.66s1.15-2.66 2.67-2.66c1.53 0 2.67 1.14 2.67 2.66zm-136.18 18.865a2.6 2.6 0 0 1-2.67 2.659c-1.53 0-2.67-1.266-2.67-2.66 0-1.52 1.14-2.66 2.67-2.66 1.52 0 2.67 1.14 2.67 2.66z"/><use xlink:href="#G"/><use xlink:href="#H"/><path d="M1836.43 144.525a2.6 2.6 0 1 1-5.34 0c0-1.52 1.15-2.66 2.67-2.66s2.67 1.14 2.67 2.66z"/><use xlink:href="#I"/><path d="M1881.9 144.525a2.6 2.6 0 1 1-5.34 0c0-1.52 1.15-2.66 2.67-2.66s2.67 1.14 2.67 2.66z"/><use xlink:href="#J"/><use xlink:href="#K"/><use xlink:href="#L"/><use xlink:href="#M"/><path d="M1836.43 200.87c0 1.52-1.15 2.66-2.67 2.66s-2.67-1.14-2.67-2.66a2.6 2.6 0 0 1 2.67-2.659c1.52 0 2.67 1.266 2.67 2.66z"/><use xlink:href="#N"/><path d="M1881.9 200.87c0 1.52-1.15 2.66-2.67 2.66s-2.67-1.14-2.67-2.66a2.6 2.6 0 0 1 2.67-2.659c1.52 0 2.67 1.266 2.67 2.66z"/><use xlink:href="#O"/><use xlink:href="#P"/><path d="M1791.08 219.736a2.6 2.6 0 0 1-2.67 2.659c-1.53 0-2.67-1.14-2.67-2.66s1.14-2.66 2.67-2.66c1.4 0 2.67 1.14 2.67 2.66zm22.62 0a2.67 2.67 0 1 1-5.34 0c0-1.52 1.15-2.66 2.67-2.66s2.67 1.14 2.67 2.66zm20.06 2.66c1.47 0 2.67-1.2 2.67-2.66a2.67 2.67 0 1 0-5.34 0c0 1.47 1.2 2.66 2.67 2.66zm25.4-2.66a2.67 2.67 0 1 1-5.34 0c0-1.52 1.15-2.66 2.67-2.66 1.4 0 2.67 1.14 2.67 2.66z"/><path d="M1881.9 219.736a2.67 2.67 0 1 1-5.34 0c0-1.52 1.15-2.66 2.67-2.66s2.67 1.14 2.67 2.66zm22.62 0c0 1.52-1.14 2.66-2.67 2.66a2.6 2.6 0 0 1-2.67-2.659c0-1.52 1.15-2.66 2.67-2.66 1.53 0 2.67 1.14 2.67 2.66zM1768.34 238.6a2.6 2.6 0 0 1-2.67 2.659c-1.53 0-2.67-1.14-2.67-2.66s1.14-2.66 2.67-2.66c1.52 0 2.67 1.14 2.67 2.66zm22.74 0a2.6 2.6 0 0 1-2.67 2.659c-1.53 0-2.67-1.14-2.67-2.66s1.14-2.66 2.67-2.66c1.4 0 2.67 1.14 2.67 2.66zm22.62 0a2.67 2.67 0 1 1-5.34 0c0-1.52 1.15-2.66 2.67-2.66s2.67 1.14 2.67 2.66zm22.73 0a2.67 2.67 0 1 1-5.34 0c0-1.52 1.15-2.66 2.67-2.66s2.67 1.14 2.67 2.66zm22.74 0a2.67 2.67 0 1 1-5.34 0c0-1.52 1.15-2.66 2.67-2.66 1.4 0 2.67 1.14 2.67 2.66zm22.73 0a2.67 2.67 0 1 1-5.34 0c0-1.52 1.15-2.66 2.67-2.66s2.67 1.14 2.67 2.66z"/><path d="M1904.52 238.6c0 1.52-1.14 2.66-2.67 2.66a2.6 2.6 0 0 1-2.67-2.659c0-1.52 1.15-2.66 2.67-2.66 1.53 0 2.67 1.14 2.67 2.66zm-136.18 18.74c0 1.52-1.15 2.66-2.67 2.66-1.53 0-2.67-1.14-2.67-2.66s1.14-2.66 2.67-2.66c1.52 0 2.67 1.266 2.67 2.66zm22.74 0c0 1.52-1.15 2.66-2.67 2.66-1.53 0-2.67-1.14-2.67-2.66s1.14-2.66 2.67-2.66c1.4 0 2.67 1.266 2.67 2.66zm22.62 0c0 1.52-1.15 2.66-2.67 2.66s-2.67-1.14-2.67-2.66a2.6 2.6 0 0 1 2.67-2.659c1.52 0 2.67 1.266 2.67 2.66zm22.73 0c0 1.52-1.15 2.66-2.67 2.66s-2.67-1.14-2.67-2.66a2.6 2.6 0 0 1 2.67-2.659c1.52 0 2.67 1.266 2.67 2.66zm22.74 0c0 1.52-1.15 2.66-2.67 2.66s-2.67-1.14-2.67-2.66a2.6 2.6 0 0 1 2.67-2.659c1.4 0 2.67 1.266 2.67 2.66zm22.73 0c0 1.52-1.15 2.66-2.67 2.66s-2.67-1.14-2.67-2.66a2.6 2.6 0 0 1 2.67-2.659c1.52 0 2.67 1.266 2.67 2.66zm22.62 0c0 1.52-1.14 2.66-2.67 2.66-1.52 0-2.67-1.14-2.67-2.66a2.6 2.6 0 0 1 2.67-2.659c1.53 0 2.67 1.266 2.67 2.66z"/></g><g opacity=".3" fill="#fff"><path d="M1639.34 446.322H1653V410h-36.32v13.556h22.66v22.766zm-24.52 24.523h13.55v-36.322h-36.22v13.66h22.67v22.662zm-24.62 24.527h13.66v-36.22h-36.32v13.556h22.66v22.663zM1565.66 520h13.66v-36.322H1543v13.66h22.66V520z"/></g><g opacity=".3" fill="#fff"><path d="M238.486 170.9c10.72 0 19.45-8.725 19.45-19.437s-8.732-19.436-19.45-19.436V170.9zm-30.346 0c10.72 0 19.45-8.725 19.45-19.437s-8.732-19.436-19.45-19.436V170.9zm-30.344 0c10.72 0 19.45-8.725 19.45-19.437s-8.73-19.436-19.45-19.436V170.9z"/></g></g><defs><linearGradient id="A" x1="0" y1="600" x2="566.774" y2="-625.729" gradientUnits="userSpaceOnUse"><stop stop-color="#ff3f3a"/><stop offset="1" stop-color="#f75e05"/></linearGradient><clipPath id="B"><path fill="#fff" d="M0 0h1920v600H0z"/></clipPath><clipPath id="C"><path fill="#fff" transform="translate(-112 330)" d="M0 0h284v284H0z"/></clipPath><path id="D" d="M1813.7 163.264a2.6 2.6 0 1 1-5.34 0c0-1.52 1.15-2.66 2.67-2.66s2.67 1.267 2.67 2.66z"/><path id="E" d="M1791.08 182.13c0 1.52-1.15 2.66-2.67 2.66-1.53 0-2.67-1.14-2.67-2.66s1.14-2.66 2.67-2.66c1.4 0 2.67 1.14 2.67 2.66z"/><path id="F" d="M1813.7 182.13c0 1.52-1.15 2.66-2.67 2.66s-2.67-1.14-2.67-2.66a2.6 2.6 0 1 1 5.34 0z"/><path id="G" d="M1791.08 144.525a2.6 2.6 0 0 1-2.67 2.659c-1.53 0-2.67-1.14-2.67-2.66s1.14-2.66 2.67-2.66c1.4 0 2.67 1.14 2.67 2.66z"/><path id="H" d="M1813.7 144.525a2.6 2.6 0 1 1-5.34 0c0-1.52 1.15-2.66 2.67-2.66s2.67 1.14 2.67 2.66z"/><path id="I" d="M1859.17 144.525a2.6 2.6 0 1 1-5.34 0c0-1.52 1.15-2.66 2.67-2.66 1.4 0 2.67 1.14 2.67 2.66z"/><path id="J" d="M1904.52 144.525c0 1.52-1.14 2.66-2.67 2.66a2.6 2.6 0 0 1-2.67-2.659c0-1.52 1.15-2.66 2.67-2.66 1.53 0 2.67 1.14 2.67 2.66z"/><path id="K" d="M1768.34 200.87c0 1.52-1.15 2.66-2.67 2.66-1.53 0-2.67-1.14-2.67-2.66s1.14-2.66 2.67-2.66c1.52 0 2.67 1.266 2.67 2.66z"/><path id="L" d="M1791.08 200.87c0 1.52-1.15 2.66-2.67 2.66-1.53 0-2.67-1.14-2.67-2.66s1.14-2.66 2.67-2.66c1.4 0 2.67 1.266 2.67 2.66z"/><path id="M" d="M1813.7 200.87c0 1.52-1.15 2.66-2.67 2.66s-2.67-1.14-2.67-2.66a2.6 2.6 0 0 1 2.67-2.659c1.52 0 2.67 1.266 2.67 2.66z"/><path id="N" d="M1859.17 200.87c0 1.52-1.15 2.66-2.67 2.66s-2.67-1.14-2.67-2.66a2.6 2.6 0 0 1 2.67-2.659c1.4 0 2.67 1.266 2.67 2.66z"/><path id="O" d="M1904.52 200.87c0 1.52-1.14 2.66-2.67 2.66-1.52 0-2.67-1.14-2.67-2.66a2.6 2.6 0 0 1 2.67-2.659c1.53 0 2.67 1.266 2.67 2.66z"/><path id="P" d="M1768.34 219.736a2.6 2.6 0 0 1-2.67 2.659c-1.53 0-2.67-1.14-2.67-2.66s1.14-2.66 2.67-2.66c1.52 0 2.67 1.14 2.67 2.66z"/></defs></svg>