<svg xmlns="http://www.w3.org/2000/svg" xmlns:xlink="http://www.w3.org/1999/xlink" width="1862" height="1393" fill="none" xmlns:v="https://vecta.io/nano"><g opacity=".2" clip-path="url(#A)" fill="#fff"><path d="M1103.88 373.36c-65.13 0-117.818 52.685-117.818 117.814 0 64.967 52.688 117.813 117.818 117.813 64.96 0 117.8-52.685 117.8-117.813-.16-65.13-52.85-117.814-117.8-117.814zm0 228.03c-60.93 0-110.222-49.3-110.222-110.217s49.292-110.218 110.222-110.218c60.92 0 110.2 49.3 110.2 110.218 0 60.765-49.45 110.217-110.2 110.217zm0-202.656c-50.9 0-92.28 41.372-92.28 92.28s41.37 92.28 92.28 92.28c50.9 0 92.28-41.2 92.28-92.117 0-51.07-41.38-92.44-92.28-92.44zm0 170.498c-43.15 0-78.22-35.07-78.22-78.22s35.07-78.22 78.22-78.22 78.22 35.07 78.22 78.22-35.07 78.22-78.22 78.22z"/></g><path d="M1814.2 93.707l7.47 7.48-19.88 19.885-19.9-19.885 7.42-7.422 12.4 12.407 12.47-12.464zm-.02-26.853l7.43 7.422-19.9 19.885-19.83-19.83 7.48-7.478 12.4 12.407 12.4-12.407zm-.05-26.912l7.48 7.478-19.83 19.83-19.9-19.885 7.42-7.422 12.4 12.407 12.4-12.407zm.05-26.9l7.48 7.478-19.88 19.885-19.9-19.885 7.48-7.478 12.4 12.407 12.4-12.407z" opacity=".2" fill="#ffcf2d"/><g opacity=".8" clip-path="url(#B)" fill="#ffcf2d"><use xlink:href="#C"/><path d="M21.274 1291.63a1.99 1.99 0 0 1-.749 2.79c-1.012.58-2.208.27-2.8-.75-.583-1-.262-2.2.75-2.8a2.13 2.13 0 0 1 2.791.75zm15.09-8.7a1.99 1.99 0 0 1-.749 2.79c-1 .58-2.208.26-2.8-.75s-.262-2.2.75-2.8c1.012-.58 2.256-.18 2.8.75zm15.005-8.66c.583 1 .262 2.2-.75 2.8-1.012.58-2.208.26-2.8-.75a1.99 1.99 0 0 1 .749-2.79c1.012-.58 2.256-.18 2.8.75zm15.1-8.72c.583 1.02.262 2.2-.75 2.8s-2.208.27-2.8-.74a1.99 1.99 0 0 1 .749-2.79c1.012-.6 2.256-.18 2.8.74z"/><use xlink:href="#D"/><path d="M13.428 1312.9c.583 1 .262 2.2-.75 2.8-1.01.58-2.208.26-2.79-.75s-.262-2.2.75-2.8c1.012-.58 2.208-.26 2.79.75z"/><use xlink:href="#E"/><use xlink:href="#F"/><use xlink:href="#G"/><use xlink:href="#H"/><path d="M88.8 1269.38c.583 1 .262 2.2-.75 2.8-1.012.58-2.208.26-2.8-.75s-.262-2.2.75-2.8c.927-.53 2.208-.26 2.8.75zm-81.955-2.76a1.99 1.99 0 0 1-.749 2.79 1.98 1.98 0 0 1-2.791-.75c-.583-1-.262-2.2.75-2.8.927-.53 2.208-.26 2.8.75zm15.09-8.72a1.99 1.99 0 0 1-.749 2.79c-1.012.58-2.208.26-2.8-.75s-.262-2.2.75-2.8c1.012-.58 2.208-.26 2.8.75z"/><use xlink:href="#I"/><path d="M52.02 1240.53c.583 1.02.262 2.2-.75 2.8-1.012.58-2.208.26-2.79-.75a1.99 1.99 0 0 1 .749-2.79c1.012-.6 2.208-.27 2.79.74z"/><use xlink:href="#J"/><path d="M-1 1287.88a1.99 1.99 0 0 1-.749 2.79c-1.012.58-2.208.27-2.8-.75-.583-1-.262-2.2.75-2.8 1.012-.58 2.208-.26 2.8.75zm15.1-8.7c.583 1 .262 2.2-.75 2.8-1.012.58-2.208.26-2.8-.75s-.262-2.2.75-2.8c.927-.53 2.208-.26 2.8.75zm15.088-8.7c.583 1 .262 2.2-.75 2.8-1.012.58-2.208.26-2.8-.75a1.99 1.99 0 0 1 .749-2.79c1.012-.58 2.208-.26 2.8.75zm15.005-8.66a1.99 1.99 0 0 1-.749 2.79c-1.012.6-2.208.27-2.8-.74a1.99 1.99 0 0 1 .749-2.79c1.012-.6 2.208-.27 2.8.74zm15.09-8.72a1.99 1.99 0 0 1-.749 2.79c-1.012.6-2.208.27-2.8-.74a1.99 1.99 0 0 1 .749-2.79c1.012-.6 2.208-.27 2.8.74zm15.1-8.7a1.99 1.99 0 0 1-.749 2.79c-1.012.58-2.208.26-2.8-.75s-.262-2.2.75-2.8c.927-.53 2.208-.26 2.8.75zm-68.817 89.7a1.99 1.99 0 0 1-.749 2.79c-1.012.6-2.208.27-2.8-.74a1.99 1.99 0 0 1 .749-2.79c1.012-.6 2.256-.18 2.8.74zm15.09-8.7a1.99 1.99 0 0 1-.749 2.79c-1.012.6-2.208.27-2.8-.74-.583-1.02-.262-2.2.75-2.8 1.012-.58 2.256-.18 2.8.75zm15.09-8.7a1.99 1.99 0 0 1-.749 2.79c-1 .58-2.208.26-2.8-.75s-.262-2.2.75-2.8a2.13 2.13 0 0 1 2.791.75zm15.1-8.7a1.99 1.99 0 0 1-.749 2.79c-1.012.58-2.208.26-2.8-.75s-.262-2.2.75-2.8c1.012-.58 2.256-.18 2.8.75zm15.005-8.66c.583 1 .262 2.2-.75 2.8-1 .58-2.208.26-2.8-.75a1.99 1.99 0 0 1 .749-2.79c1.012-.6 2.256-.18 2.8.75zm15.09-8.72a1.99 1.99 0 0 1-.749 2.79c-1.012.6-2.208.27-2.8-.74a1.99 1.99 0 0 1 .749-2.79c1.012-.6 2.256-.18 2.8.74zm15.1-8.7a1.99 1.99 0 0 1-.749 2.79c-1 .6-2.208.27-2.8-.74a1.99 1.99 0 0 1 .749-2.79c.927-.54 2.256-.18 2.8.74zM12.78 1346.6a1.99 1.99 0 0 1-.749 2.79c-1.012.6-2.208.27-2.8-.74-.583-1.02-.262-2.2.75-2.8 1.012-.58 2.208-.26 2.8.75zm14.34-5.9c.978-.57 1.313-1.82.75-2.8s-1.814-1.3-2.8-.75c-.978.57-1.313 1.82-.75 2.8s1.813 1.3 2.8.75zm15.837-11.5c.583 1 .262 2.2-.75 2.8-1.012.58-2.208.26-2.8-.75a1.99 1.99 0 0 1 .749-2.79c.927-.53 2.208-.26 2.8.75zm15.1-8.73a1.99 1.99 0 0 1-.749 2.79c-1.012.6-2.208.27-2.8-.74a1.99 1.99 0 0 1 .749-2.79c1-.6 2.208-.27 2.8.74zm15.005-8.67a1.99 1.99 0 0 1-.749 2.79c-1.012.6-2.208.27-2.8-.74a1.99 1.99 0 0 1 .749-2.79c1.012-.6 2.208-.27 2.8.74zm14.34-5.9a2.04 2.04 0 0 0 .749-2.79c-.564-.98-1.814-1.3-2.8-.75-.978.57-1.313 1.82-.75 2.8s1.814 1.3 2.8.75zm15.838-11.5a1.99 1.99 0 0 1-.749 2.79c-1 .58-2.208.26-2.8-.75s-.262-2.2.75-2.8c.927-.53 2.208-.26 2.8.75zm-98.212 73.42a1.99 1.99 0 0 1-.749 2.79c-1.012.6-2.208.27-2.8-.74a1.99 1.99 0 0 1 .749-2.79c.927-.54 2.208-.27 2.8.74z"/><use xlink:href="#K"/><path d="M35.112 1350.45c.583 1 .262 2.2-.75 2.8-1.012.58-2.208.26-2.8-.75a1.99 1.99 0 0 1 .749-2.79c1.012-.58 2.208-.26 2.8.75zm15.088-8.72a1.99 1.99 0 0 1-.749 2.79c-1.012.6-2.208.27-2.8-.74a1.99 1.99 0 0 1 .749-2.79c.927-.54 2.208-.27 2.8.74zm15.1-8.7a1.99 1.99 0 0 1-.749 2.79c-1 .6-2.208.27-2.8-.74a1.99 1.99 0 0 1 .749-2.79c1.012-.6 2.208-.27 2.8.74zm15.006-8.66a1.99 1.99 0 0 1-.749 2.79c-1.012.58-2.208.26-2.8-.75s-.262-2.2.75-2.8c1.012-.58 2.208-.26 2.8.75zm15.09-8.7c.583 1 .262 2.2-.75 2.8-1.012.58-2.208.26-2.8-.75s-.262-2.2.75-2.8c1.012-.58 2.208-.26 2.8.75zm15.1-8.7c.583 1 .262 2.2-.75 2.8-1 .58-2.208.26-2.8-.75a1.99 1.99 0 0 1 .749-2.79c.928-.54 2.208-.27 2.792.75zm-98.262 73.34a1.99 1.99 0 0 1-.749 2.79c-1.012.6-2.208.27-2.8-.74a1.99 1.99 0 0 1 .749-2.79c.927-.54 2.256-.18 2.8.74zm15.005-8.66a1.99 1.99 0 0 1-.749 2.79 1.98 1.98 0 0 1-2.791-.75c-.583-1-.262-2.2.75-2.8 1.012-.58 2.256-.18 2.8.75zm15.09-8.72c.583 1 .262 2.2-.75 2.8-1 .58-2.208.26-2.8-.75s-.262-2.2.75-2.8c1.012-.58 2.256-.18 2.8.75zm15.1-8.7c.583 1 .262 2.2-.75 2.8-1.012.58-2.208.26-2.8-.75a1.99 1.99 0 0 1 .749-2.79 2.13 2.13 0 0 1 2.791.75zm15.09-8.7c.583 1 .262 2.2-.75 2.8-1 .58-2.208.26-2.8-.75a1.99 1.99 0 0 1 .749-2.79c1.012-.58 2.256-.18 2.8.75zm15.004-8.68a1.99 1.99 0 0 1-.749 2.79c-1.012.6-2.208.27-2.8-.74a1.99 1.99 0 0 1 .749-2.79c1-.6 2.256-.18 2.8.74zm15.1-8.72a1.99 1.99 0 0 1-.75 2.79c-1 .58-2.208.26-2.8-.75s-.262-2.2.75-2.8a2.06 2.06 0 0 1 2.792.75zm15.1-8.7c.583 1 .262 2.2-.75 2.8-1.012.58-2.208.26-2.792-.75s-.262-2.2.75-2.8a2.13 2.13 0 0 1 2.791.75z"/></g><defs><clipPath id="A"><path fill="#fff" transform="translate(986.062 373.361)" d="M0 0h235.465v244.483H0z"/></clipPath><clipPath id="B"><path fill="#fff" transform="matrix(.866025 -.5 .5 .866025 -58 1301.7)" d="M0 0h143.283v105.208H0z"/></clipPath><path id="C" d="M6.185 1300.34a1.99 1.99 0 0 1-.749 2.79c-1.012.6-2.208.27-2.79-.74a1.99 1.99 0 0 1 .749-2.79c1.012-.6 2.256-.18 2.79.74z"/><path id="D" d="M81.547 1256.83a1.99 1.99 0 0 1-.749 2.79c-1.012.6-2.208.27-2.79-.74a1.99 1.99 0 0 1 .749-2.79c.927-.54 2.256-.18 2.79.74z"/><path id="E" d="M28.518 1304.18c.583 1 .262 2.2-.75 2.8-1.012.58-2.208.26-2.79-.75s-.262-2.2.75-2.8c.927-.53 2.208-.26 2.79.75z"/><path id="F" d="M43.607 1295.46a1.99 1.99 0 0 1-.749 2.79c-1.01.6-2.208.27-2.79-.74a1.99 1.99 0 0 1 .749-2.79c1.012-.6 2.208-.27 2.79.74z"/><path id="G" d="M58.612 1286.8a1.99 1.99 0 0 1-.749 2.79c-1.012.6-2.208.27-2.79-.74a1.99 1.99 0 0 1 .749-2.79c1.012-.6 2.208-.27 2.79.74z"/><path id="H" d="M73.702 1278.1a1.99 1.99 0 0 1-.749 2.79c-1.012.58-2.208.26-2.79-.75s-.262-2.2.75-2.8c1.012-.58 2.208-.26 2.79.75z"/><path id="I" d="M36.93 1249.25c.583 1 .262 2.2-.75 2.8-1.012.58-2.208.26-2.79-.75a1.99 1.99 0 0 1 .749-2.79c1.012-.58 2.208-.26 2.79.75z"/><path id="J" d="M67.108 1231.82a1.99 1.99 0 0 1-.749 2.79c-1.012.6-2.208.27-2.79-.74a1.99 1.99 0 0 1 .749-2.79c.927-.54 2.208-.27 2.79.74z"/><path id="K" d="M20.023 1359.16c.583 1 .262 2.2-.75 2.8-1.012.58-2.208.26-2.79-.75s-.262-2.2.75-2.8c1.012-.58 2.208-.26 2.79.75z"/></defs></svg>