<svg xmlns="http://www.w3.org/2000/svg" width="590" height="526" fill="none" xmlns:v="https://vecta.io/nano"><path d="M544.524 236.67l41.556-13.85-10.62-31.933-7.61-3.918-35.877 11.96 12.552 37.743z" fill="#b3b7bc"/><g fill="#fff"><path d="M545.087 236.952l44.54-14.847a.26.26 0 0 0 .151-.131c.03-.06.036-.133.014-.198L578.4 187.548c-.023-.063-.068-.116-.127-.148l-8.157-4.194c-.062-.032-.135-.038-.2-.017l-38.455 12.82a.25.25 0 0 0-.15.13.26.26 0 0 0-.014.199l13.454 40.456a.27.27 0 0 0 .05.087c.023.026.05.046.08.06a.26.26 0 0 0 .098.026c.033.002.067-.003.1-.015h0zm44.13-15.26L545.2 236.367l-13.3-39.96 38.08-12.693 7.97 4.1 11.267 33.878zm-50.48-16.645l36.72-12.24c.065-.022.12-.07.15-.13a.26.26 0 0 0-.116-.35c-.062-.03-.133-.036-.198-.014l-36.72 12.24a.26.26 0 0 0-.164.329.25.25 0 0 0 .13.15c.062.03.133.037.198.015h0zm1.957 5.88l36.72-12.24c.065-.022.12-.07.15-.13s.036-.133.014-.198-.068-.12-.13-.15-.133-.036-.198-.014l-36.72 12.24c-.065.022-.12.07-.15.13a.26.26 0 0 0-.014.199.25.25 0 0 0 .13.15c.062.03.133.036.198.015h0zm1.938 5.836l36.72-12.24c.065-.022.12-.07.15-.13s.036-.133.014-.198a.26.26 0 0 0-.131-.151c-.06-.03-.133-.036-.198-.015l-36.72 12.24c-.065.022-.12.07-.15.13a.26.26 0 0 0-.014.199c.022.065.07.12.13.15a.26.26 0 0 0 .199.015h0z"/><path d="M544.582 222.62l36.72-12.24a.25.25 0 0 0 .15-.13.26.26 0 0 0 .014-.199c-.01-.033-.027-.063-.05-.1s-.05-.048-.08-.063a.26.26 0 0 0-.099-.026c-.034-.003-.068.002-.1.014l-36.718 12.24a.26.26 0 0 0-.091.049c-.026.022-.048.05-.064.08s-.025.065-.028.1a.25.25 0 0 0 .013.102.26.26 0 0 0 .134.15c.064.03.134.035.2.013h0zm1.948 5.86l36.72-12.24a.26.26 0 0 0 .088-.051c.026-.022.047-.05.062-.08s.024-.064.027-.098-.002-.068-.013-.1a.25.25 0 0 0-.129-.153.26.26 0 0 0-.199-.012l-36.72 12.24c-.033.01-.064.027-.1.05s-.048.05-.064.08a.24.24 0 0 0-.028.1c-.002.036.001.07.012.102.024.066.072.12.134.15s.135.035.2.013h0zm25.63-38.648l6-1.997a.27.27 0 0 0 .126-.136c.024-.06.027-.125.006-.185s-.06-.112-.116-.145-.12-.045-.182-.034l-5.744 1.915-2.085-5.95c-.026-.064-.074-.116-.136-.146s-.133-.036-.198-.017-.116.072-.146.134a.27.27 0 0 0-.012.2l2.168 6.196a.27.27 0 0 0 .329.166h0z"/></g></svg>