<svg xmlns="http://www.w3.org/2000/svg" width="48" height="48" fill="none" xmlns:v="https://vecta.io/nano"><g clip-path="url(#A)"><path d="M48 24a9.73 9.73 0 0 0-4.779-8.39 6.39 6.39 0 0 0-.397-4.204 6.38 6.38 0 0 0-3.19-3.181c-.143-2.05-.985-3.967-2.427-5.48A8.78 8.78 0 0 0 30.797 0 8.88 8.88 0 0 0 24 3.177 8.88 8.88 0 0 0 17.203 0c-2.447 0-4.723.975-6.41 2.745-1.442 1.512-2.284 3.428-2.427 5.48a6.38 6.38 0 0 0-3.189 3.181 6.39 6.39 0 0 0-.397 4.204A9.73 9.73 0 0 0 0 24a9.73 9.73 0 0 0 4.779 8.39 6.39 6.39 0 0 0 .397 4.204 6.38 6.38 0 0 0 3.189 3.181c.143 2.05.985 3.967 2.427 5.48A8.78 8.78 0 0 0 17.203 48 8.88 8.88 0 0 0 24 44.823 8.88 8.88 0 0 0 30.797 48c2.447 0 4.723-.975 6.41-2.745 1.442-1.513 2.284-3.428 2.427-5.48a6.38 6.38 0 0 0 3.19-3.181 6.39 6.39 0 0 0 .397-4.204A9.73 9.73 0 0 0 48 24zm-6.8 6.28h-6.7V26.24h4.97c.777 0 1.406-.63 1.406-1.406V20.72c0-.777-.63-1.406-1.406-1.406s-1.406.63-1.406 1.406v2.708H34.5V20.99c0-1.55-1.262-2.812-2.812-2.812h-2.812c-.777 0-1.406.63-1.406 1.406s.63 1.406 1.406 1.406h2.813v9.292h-6.282v-2.53c0-.777-.63-1.406-1.406-1.406s-1.406.63-1.406 1.406v2.53c0 1.55 1.262 2.813 2.813 2.813h15.09a3.59 3.59 0 0 1-.231 2.333c-.454.995-1.32 1.72-2.374 1.99-.646.166-1.087.763-1.055 1.43a6 6 0 0 1-1.664 4.468 5.99 5.99 0 0 1-4.375 1.873c-2.278 0-4.363-1.29-5.39-3.306v-2.976h2.53c.777 0 1.406-.63 1.406-1.406s-.63-1.406-1.406-1.406h-2.53c-1.55 0-2.812 1.262-2.812 2.812v2.976a6.06 6.06 0 0 1-5.391 3.306 5.99 5.99 0 0 1-4.375-1.873c-.83-.87-1.366-1.936-1.573-3.087h3.37c1.55 0 2.813-1.262 2.813-2.812v-1.738h1.22c.777 0 1.406-.63 1.406-1.406s-.63-1.406-1.406-1.406h-1.22v-1.74c0-1.55-1.262-2.812-2.812-2.812h-2.437c-.777 0-1.406.63-1.406 1.406s.63 1.406 1.406 1.406h2.438v6.29l-4.517.003c-1.054-.27-1.92-.996-2.374-1.99a3.58 3.58 0 0 1 .049-3.101c.174-.348.196-.753.06-1.117s-.416-.657-.774-.808c-2.586-1.085-4.256-3.597-4.256-6.4s1.67-5.316 4.256-6.4a1.41 1.41 0 0 0 .121-.058h2.185v4.22c0 .777.63 1.406 1.406 1.406s1.406-.63 1.406-1.406v-4.22h5.25v6.844c0 .777.63 1.406 1.406 1.406s1.406-.63 1.406-1.406v-2.53h1.37c.777 0 1.406-.63 1.406-1.406s-.63-1.406-1.406-1.406h-1.37v-1.5c0-1.55-1.262-2.812-2.812-2.812h-.844v-3.76c0-.777-.63-1.406-1.406-1.406s-1.406.63-1.406 1.406v3.76H7.465c-.134-.72-.045-1.468.27-2.155.454-.995 1.32-1.72 2.374-1.99.646-.166 1.087-.763 1.055-1.43a6 6 0 0 1 1.664-4.468 5.99 5.99 0 0 1 4.375-1.873 6.06 6.06 0 0 1 5.484 3.498v4.752c0 1.55 1.262 2.813 2.813 2.813H33c.777 0 1.406-.63 1.406-1.406s-.63-1.406-1.406-1.406h-.28v-1.97c0-.777-.63-1.406-1.406-1.406s-1.406.63-1.406 1.406v1.97H25.5l-.007-5.11c1.055-1.922 3.09-3.14 5.304-3.14a5.99 5.99 0 0 1 4.376 1.873 6 6 0 0 1 1.664 4.468c-.032.666.41 1.263 1.055 1.43 1.054.27 1.92.996 2.374 1.99a3.58 3.58 0 0 1-.049 3.101c-.174.348-.196.752-.06 1.117s.416.657.775.808c2.586 1.085 4.256 3.597 4.256 6.4 0 2.706-1.556 5.14-3.99 6.28z" fill="#ff5a30"/></g><defs><clipPath id="A"><path fill="#fff" d="M0 0h48v48H0z"/></clipPath></defs></svg>