<svg xmlns="http://www.w3.org/2000/svg" width="53" height="52" fill="none" xmlns:v="https://vecta.io/nano"><g clip-path="url(#A)"><path d="M50.977 27.523c.84 0 1.523-.682 1.523-1.523V14.625c0-.84-.682-1.523-1.523-1.523H28.023V3.25c0-.84-.682-1.523-1.523-1.523H10.25c-.84 0-1.523.682-1.523 1.523v9.852H2.023c-.84 0-1.523.682-1.523 1.523V26c0 .84.682 1.523 1.523 1.523h6.703v8.328H2.023c-.84 0-1.523.682-1.523 1.523V48.75c0 .84.682 1.523 1.523 1.523h48.953c.84 0 1.523-.682 1.523-1.523V37.375c0-.84-.682-1.523-1.523-1.523h-6.703v-8.328h6.703zm-1.523-3.047H36.148v-8.328h13.305v8.328zm-16.352 0H19.898v-8.328h13.203v8.328zM11.773 4.773h13.203v8.328H11.773V4.773zM3.547 24.477v-8.328h13.305v8.328H3.547zm8.227 3.047h13.203v8.328H11.773v-8.328zM3.547 38.898h13.305v8.328H3.547v-8.328zm16.352 0h13.203v8.328H19.898v-8.328zm29.555 0v8.328H36.148v-8.328h13.305zm-8.227-3.047H28.023v-8.328h13.203v8.328z" fill="#ff5a30"/></g><defs><clipPath id="A"><path fill="#fff" transform="translate(.5)" d="M0 0h52v52H0z"/></clipPath></defs></svg>