<svg xmlns="http://www.w3.org/2000/svg" xmlns:xlink="http://www.w3.org/1999/xlink" width="48" height="48" fill="none" xmlns:v="https://vecta.io/nano"><g clip-path="url(#A)" fill="#ff5a30"><use xlink:href="#B"/><path d="M16.62 14.873H8.228c-.777 0-1.406.63-1.406 1.406s.63 1.406 1.406 1.406h8.393c.776 0 1.406-.63 1.406-1.406s-.63-1.406-1.406-1.406zm0 5.625H8.228c-.777 0-1.406.63-1.406 1.406s.63 1.406 1.406 1.406h8.393c.776 0 1.406-.63 1.406-1.406s-.63-1.406-1.406-1.406zm0 5.625H8.228c-.777 0-1.406.63-1.406 1.406s.63 1.406 1.406 1.406h8.393c.776 0 1.406-.63 1.406-1.406s-.63-1.406-1.406-1.406zm0 5.72H8.228c-.777 0-1.406.63-1.406 1.406s.63 1.406 1.406 1.406h8.393c.776 0 1.406-.63 1.406-1.406s-.63-1.406-1.406-1.406z"/><use xlink:href="#C"/><path d="M21.343 17.686h8.393c.777 0 1.406-.63 1.406-1.406s-.63-1.406-1.406-1.406h-8.393c-.776 0-1.406.63-1.406 1.406s.63 1.406 1.406 1.406zm5.447 4.218c0-.777-.63-1.406-1.406-1.406h-4.042c-.776 0-1.406.63-1.406 1.406s.63 1.406 1.406 1.406h4.042c.777 0 1.406-.63 1.406-1.406zm13.323 10.532c-.606-.486-1.5-.4-1.977.217l-3.622 4.515-2.242-1.625c-.63-.456-1.508-.315-1.964.314s-.315 1.508.314 1.964l3.326 2.4a1.4 1.4 0 0 0 1.922-.259l4.46-5.56c.486-.606.4-1.5-.217-1.977zm3.554-4.316a11.59 11.59 0 0 0-6.736-3.385V5.663A5.67 5.67 0 0 0 31.268 0H6.695a5.67 5.67 0 0 0-5.664 5.663V38.24a5.67 5.67 0 0 0 5.663 5.664H26.46C28.683 46.515 31.88 48 35.34 48a11.7 11.7 0 0 0 11.679-11.687 11.62 11.62 0 0 0-3.352-8.194zM3.844 38.24V5.663c0-1.572 1.28-2.85 2.85-2.85h24.573c1.572 0 2.85 1.28 2.85 2.85V24.7c-5.868.613-10.458 5.6-10.458 11.623 0 1.672.35 3.288 1.017 4.777H6.695c-1.572 0-2.85-1.28-2.85-2.85zM35.34 45.2a8.8 8.8 0 0 1-7.084-3.537 8.8 8.8 0 0 1-1.783-5.337c0-4.893 3.978-8.874 8.867-8.874h.162a8.81 8.81 0 0 1 6.161 2.65 8.83 8.83 0 0 1 2.545 6.222c0 4.893-3.977 8.874-8.866 8.874z"/></g><defs><clipPath id="A"><path fill="#fff" d="M0 0h48v48H0z"/></clipPath><path id="B" d="M16.62 9.248H8.228c-.777 0-1.406.63-1.406 1.406s.63 1.406 1.406 1.406h8.393c.776 0 1.406-.63 1.406-1.406s-.63-1.406-1.406-1.406z"/><path id="C" d="M21.343 12.06h8.393c.777 0 1.406-.63 1.406-1.406s-.63-1.406-1.406-1.406h-8.393c-.776 0-1.406.63-1.406 1.406s.63 1.406 1.406 1.406z"/></defs></svg>