<svg xmlns="http://www.w3.org/2000/svg" width="48" height="48" fill="#ff5a30" xmlns:v="https://vecta.io/nano"><path d="M44.017 29.72a4.2 4.2 0 0 0 1.077-2.813c0-2.326-1.893-4.22-4.22-4.22h-8.188c.8-2.46 1.157-5.726 1.157-7.126v-1.405c0-3.1-2.524-5.625-5.625-5.625h-1.406a1.41 1.41 0 0 0-1.364 1.065l-.766 3.065c-1.073 4.292-4.48 9.027-8.008 9.888-.618-1.564-2.143-2.674-3.924-2.674H4.313c-.776 0-1.406.63-1.406 1.406v25.313c0 .776.63 1.406 1.406 1.406h8.438c1.677 0 3.128-.983 3.808-2.405l4.832 1.6c1.58.527 3.226.794 4.892.794h11.78c2.326 0 4.22-1.893 4.22-4.22a4.2 4.2 0 0 0-.296-1.554c1.8-.5 3.1-2.128 3.1-4.07a4.2 4.2 0 0 0-1.077-2.812 4.2 4.2 0 0 0 0-5.625zm-29.86 14.06a1.41 1.41 0 0 1-1.406 1.406H5.72v-22.5h7.03a1.41 1.41 0 0 1 1.406 1.406V43.78zm23.906-12.656h2.813a1.41 1.41 0 0 1 1.406 1.406 1.41 1.41 0 0 1-1.406 1.406h-2.812c-.776 0-1.406.63-1.406 1.406s.63 1.406 1.406 1.406h2.813a1.41 1.41 0 0 1 1.406 1.406 1.41 1.41 0 0 1-1.406 1.406h-2.812c-.776 0-1.406.63-1.406 1.406s.63 1.406 1.406 1.406a1.41 1.41 0 0 1 1.406 1.406 1.41 1.41 0 0 1-1.406 1.406h-11.78a12.63 12.63 0 0 1-4.003-.65l-5.3-1.77v-17.4c2.206-.42 4.365-1.816 6.314-4.103 1.903-2.233 3.446-5.194 4.128-7.92l.5-2h.3c1.55 0 2.812 1.262 2.812 2.812v1.405c0 1.888-.6 5.5-1.346 7.126h-2.872c-.776 0-1.406.63-1.406 1.406s.63 1.406 1.406 1.406H40.9a1.41 1.41 0 0 1 1.406 1.406 1.41 1.41 0 0 1-1.406 1.406h-2.812c-.776 0-1.406.63-1.406 1.406s.63 1.406 1.406 1.406zM9.938 42.375c.777 0 1.406-.63 1.406-1.406s-.63-1.406-1.406-1.406-1.406.63-1.406 1.406.63 1.406 1.406 1.406zM29.625 0c-.777 0-1.406.63-1.406 1.406v2.906c0 .777.63 1.406 1.406 1.406s1.406-.63 1.406-1.406V1.406C31.03.63 30.402 0 29.625 0zM23.66 6.2l-2-2c-.55-.55-1.44-.55-2 0s-.55 1.44 0 2l2 2c.55.55 1.44.55 2 0s.55-1.44 0-2zm15.9-1.987c-.55-.55-1.44-.55-2 0l-2 1.987c-.55.55-.55 1.44 0 2s1.44.55 2 0l2-2c.55-.55.55-1.44 0-2z"/></svg>