<svg xmlns="http://www.w3.org/2000/svg" width="53" height="52" fill="none" xmlns:v="https://vecta.io/nano"><path d="M43.36 4.57c0-2.52-2.05-4.57-4.57-4.57H8.32C5.8 0 3.75 2.05 3.75 4.57v9.14c0 2.52 2.05 4.57 4.57 4.57h30.47c2.52 0 4.57-2.05 4.57-4.57v-1.523h1.523c.84 0 1.523.684 1.523 1.523v6.094c0 .84-.684 1.523-1.523 1.523h-18.28c-2.52 0-4.57 2.05-4.57 4.57v4.57h-1.524c-.84 0-1.523.682-1.523 1.523v6.01l-1.524 6.192C16.47 48.157 19.464 52 23.555 52s7.083-3.847 6.095-7.8l-1.525-6.198v-6.01c0-.84-.682-1.523-1.523-1.523h-1.524v-4.57c0-.84.684-1.523 1.524-1.523h18.28c2.52 0 4.57-2.05 4.57-4.57V13.71c0-2.52-2.05-4.57-4.57-4.57H43.36V4.57zm-18.28 28.945v3.148H22.03v-3.148h3.047zm-1.523 15.438c-2.1 0-3.65-1.97-3.137-4.024l1.284-5.218h3.705l1.285 5.223c.5 2.04-1.03 4.02-3.138 4.02zM8.32 3.047h30.47c.84 0 1.523.684 1.523 1.523v1.523h-4.57c-1.48 0-3.374.555-5.566 1.197-2.96.867-6.317 1.85-9.668 1.85-3.267 0-5.57-.954-7.602-1.796-1.554-.643-3.02-1.25-4.586-1.25H6.797V4.57c0-.84.684-1.523 1.523-1.523zM40.313 13.71c0 .84-.684 1.524-1.523 1.524H8.32c-.84 0-1.523-.684-1.523-1.524V9.14H8.32c.96 0 2.045.45 3.42 1.02 2.18.903 4.895 2.028 8.768 2.028 3.788 0 7.523-1.094 10.525-1.973 1.885-.552 3.666-1.074 4.7-1.074h4.57v4.57z" fill="#ff5a30"/></svg>