<svg xmlns="http://www.w3.org/2000/svg" width="48" height="48" fill="none" xmlns:v="https://vecta.io/nano"><path d="M33.462 33.42v-9.73l5.61-2.323c4.51-1.868 6.658-7.056 4.79-11.565S36.806 3.142 32.297 5L1.674 17.695 4.21 21.48 0 23.223l3.356 8.1 5.83-2.414 2.535 3.785 13.3-5.51v6.234c-1.094 1.087-1.773 2.59-1.773 4.25 0 3.305 2.69 5.994 5.994 5.994 1.66 0 3.165-.68 4.25-1.773H48V33.45H33.492l-.03-.03zM4.878 27.65l-1.203-2.904 2.13-.882 1.784 2.664-2.71 1.123zm7.895 1.565L5.92 18.98 33.373 7.608a6.05 6.05 0 0 1 7.891 3.268 6.05 6.05 0 0 1-3.268 7.891L12.773 29.215zm15.06-3.194l2.817-1.167v6.99c-.452-.11-.923-.17-1.408-.17s-.956.06-1.408.17V26.02zm1.41 14.83c-1.754 0-3.18-1.427-3.18-3.18s1.427-3.18 3.182-3.18 3.182 1.427 3.182 3.18-1.427 3.182-3.182 3.182zm5.825-4.6h10.12v2.817h-10.12c.11-.452.17-.923.17-1.41s-.06-.956-.17-1.408z" fill="#ff5a30"/></svg>