<svg xmlns="http://www.w3.org/2000/svg" width="120" height="64" fill="#b3b7bc" fill-rule="evenodd" xmlns:v="https://vecta.io/nano"><path d="M109.804 20.157v4.177c-2.2-1.98-5.496-2.858-8.354-1.76-.88.44-1.978 1.1-1.978 2.198-.44 1.32.44 2.418 1.758 3.297 2.857 1.98 6.595 2.638 9.232 5.275 1.32 1.1 1.76 3.3 1.1 5.057-1.1 3.298-4.836 5.276-8.354 5.496-2.637.22-5.276-.22-7.694-.88l-.22-.22-.88-4.177v-.22c2.2 1.758 4.837 2.858 7.914 2.858 1.98 0 3.957-.66 5.056-2.42.44-.66.22-1.98-.22-2.637-1.1-1.758-3.078-2.42-4.836-3.298-1.508-.644-2.976-1.378-4.397-2.198-1.758-1.1-2.858-2.858-2.858-5.056s1.32-3.956 3.077-4.836c1.978-1.1 3.956-1.32 6.155-1.32 1.98.001 3.74.22 5.497.66zm-82.655.22l.22.22-.22 3.956a11.1 11.1 0 0 0-5.056-1.978c-3.517-.44-6.595.66-8.573 3.298-2.198 2.857-2.198 7.255-.44 10.332 1.54 3.077 4.837 5.056 8.573 4.836 2.638-.22 5.056-1.1 7.474-2.198l.44-.22c-.66 1.538-1.32 2.858-1.76 4.177-1.1.44-2.198.88-3.517 1.1-2.418.44-5.276 0-7.694-.44-3.957-.88-7.694-3.956-8.573-7.914-1.32-5.056 0-10.55 4.396-13.63 3.077-2.418 7.693-2.858 11.87-2.198.88.22 1.98.44 2.858.66zm42.427-.44h14.288c.44 0 .66 0 1.1-.22v.22l-1.1 4.177h-.22c-.22-.22-.44-.66-.66-.88-.66-.44-1.76-.66-2.638-.66H77.27V40.38c0 1.1.66 2.198 1.758 2.858v.22h-7.254v-.22c.22-.22.66-.44.88-.88.66-.66.66-1.758.66-2.637l.22-16.927-.22-.22h-3.517c-1.32.22-2.857.66-3.956 1.54v-.22c.22-1.32.88-2.638 1.1-3.957l.22-.22c.66.22 1.538.44 2.417.22zm-33.414 0l.22.22c-1.32.66-1.76 2.198-1.76 3.517v11c0 2.42.44 4.617 2.638 5.936 1.54.88 3.957.88 5.716.44 1.538-.66 3.077-1.978 3.517-3.736v-14.3c0-1.1-.22-2.418-1.32-2.857h-.22c2.418-.22 4.837-.22 7.034 0h0c-1.54.88-1.54 2.638-1.54 4.397l-.22 15.828c.22 1.1.44 2.42 1.538 2.858.22 0 .22 0 .22.22H46.49v-2.2c-2.418 2.638-6.595 3.298-10.112 2.42-2.42-.66-4.837-2.638-5.276-5.056-.22-1.1-.22-2.42-.22-3.738v-10.55c0-1.1 0-1.978-.22-2.858-.22 0-.22-.22-.22-.44-.22-.44-.66-.66-1.1-.88 0-.22.22-.22.44-.22h6.376zm26.38 1.76c1.538 1.32 2.42 3.297 1.978 5.276-.66 2.418-3.298 4.396-5.716 5.056 1.98 2.42 3.737 4.836 5.936 7.254 1.538 1.538 3.298 2.858 5.056 4.177h-.22c-1.538 0-3.077 0-4.616-.22-1.32 0-2.42-.88-3.078-1.978l-4.176-5.056-3.298-4.837c0-.22.22 0 .44-.22 2.418-.44 5.056-1.54 5.716-3.957.44-1.54-.22-3.077-1.32-3.956s-2.638-1.1-4.177-.88c-.44-.66-.88-1.54-1.32-2.198a13.3 13.3 0 0 1 4.177 0c1.757-.001 3.296.44 4.616 1.54zm30.995-1.76v.22c-1.1.44-1.538 1.54-1.538 2.638l-.22 1.76V40.38c.22 1.1.44 2.42 1.54 2.858v.22H86.5c-.22 0-.22-.22-.22-.22 1.76-.88 1.76-2.637 1.76-4.397V22.796c0-.88-.44-2.198-1.54-2.638 2.42-.22 4.618-.22 7.035-.22zm23.08 20.444a3.13 3.13 0 0 0-2.637-1.319c-1.098 0-1.978.66-2.418 1.54s-.22 1.978.22 2.857c.66.66 1.538 1.1 2.638 1.1.88-.22 1.76-.66 2.197-1.54s.44-1.98 0-2.638zm-.658 2.858c-.66.66-1.32.88-2.42.66-.88 0-1.538-.66-1.758-1.54-.22-1.1.22-1.978 1.1-2.637.66-.44 1.758-.44 2.418 0 .44.22.88.66.88 1.098.438.66.22 1.76-.22 2.418zm-1.1-1.54c.22 0 .22 0 .44-.22s.22-.44 0-.66c-.22-.88-2.2-.66-2.2-.66v3.077h.44v-1.1h.88c.438.22.438 1.1.438 1.1h.44c0 .001 0-1.098-.44-1.537zm-.22-.22l-.22.22h-.88v-1.1c.44 0 .88 0 1.32.44 0 0 0 .22-.22.44z"/></svg>