<svg xmlns="http://www.w3.org/2000/svg" width="120" height="64" fill="none" xmlns:v="https://vecta.io/nano"><g clip-path="url(#A)"><path d="M52.2 19.352v5.034a.39.39 0 0 1-.115.281.39.39 0 0 1-.281.115c-.354 0-1.188-.35-2.887-.35-3.153 0-5.782 2.236-5.782 5.99v13.843c0 .22-.176.4-.392.4h-5.217c-.052-.001-.103-.01-.15-.032s-.09-.05-.127-.087-.065-.08-.084-.13-.03-.1-.028-.152V19.747c-.001-.105.04-.205.113-.28s.173-.117.278-.118h5.024c.102.001.2.04.273.113s.115.168.118.27l.108 2.725h.072c.372-.66 2.206-3.77 6.934-3.77.913 0 1.738.24 1.853.277.17.057.292.204.292.386zm43.377.516v24.654a.4.4 0 0 1-.031.154c-.02.05-.05.093-.088.13s-.083.067-.132.086-.102.03-.155.03h-5.42c-.107.001-.2-.04-.286-.116s-.12-.177-.12-.284V19.868c0-.22.184-.4.406-.4h5.42c.226 0 .407.18.407.4zm.78-8.972c0 2.22-1.674 3.896-3.897 3.896s-3.896-1.675-3.896-3.896S90.248 7 92.47 7s3.897 1.675 3.897 3.896zm23.637 27.008c0 4.428-3.96 7.797-9.925 7.797-5.326 0-9.14-2.515-9.66-2.89a.38.38 0 0 1-.117-.14.37.37 0 0 1-.039-.179c0-.106.066-.243.102-.32l1.504-3.626c.056-.135.17-.25.38-.25.67 0 3.73 2.404 8.014 2.404 2.587 0 4.018-1.14 4.018-2.713 0-1.01-.48-2.176-2.832-2.967l-2.853-.956c-4.4-1.48-6.88-3.72-6.88-7.893 0-4.407 4.028-7.484 9.794-7.484 3.43 0 6.11 1.202 7.403 1.92.13.07.205.185.205.326 0 .083-.033.18-.063.256l-1.54 3.713c-.033.076-.09.14-.16.185s-.152.067-.235.065c-.58 0-2.504-1.488-5.932-1.488-2.063 0-3.68.9-3.68 2.765 0 1.552 1.205 2.226 3.655 3.048l2.97.998c4.192 1.407 5.867 4 5.867 7.43zM70.766 18.873c-5.162 0-8.085 2.646-8.38 2.885h-.064V8.437a.4.4 0 0 0-.401-.398h-5.158c-.052 0-.104.01-.153.03s-.093.05-.13.086-.067.08-.087.13a.4.4 0 0 0-.03.153v23.82c0 8.08 5.818 13.703 13.765 13.703 7.848 0 13.768-5.824 13.768-13.55 0-8.136-6.2-13.54-13.132-13.54zm-.257 5.11c4.705 0 7.628 3.7 7.628 8.255s-2.923 8.244-7.628 8.244-7.616-3.69-7.616-8.244 2.91-8.255 7.616-8.255z" fill="#263746"/><path d="M35.205 14.178a.38.38 0 0 1 .088.126c.02.047.03.098.032.15s-.01.103-.03.15a.38.38 0 0 1-.087.126l-3.42 3.324a.39.39 0 0 1-.288.114c-.096.002-.2-.033-.26-.098-3.697-3.23-8.52-5.008-13.578-5.008s-9.88 1.78-13.577 5.008c-.07.065-.164.1-.26.098-.117 0-.208-.036-.288-.114L.117 14.73A.38.38 0 0 1 0 14.454c0-.052.01-.103.03-.15s.05-.1.088-.126C4.84 9.715 11.07 7.26 17.66 7.26s12.822 2.456 17.544 6.918zm0 36.032a.38.38 0 0 0 .119-.275.38.38 0 0 0-.117-.275l-3.42-3.327c-.038-.037-.083-.066-.133-.086s-.102-.028-.156-.027c-.104 0-.186.034-.26.1-3.697 3.228-8.52 5.008-13.578 5.008s-9.88-1.78-13.577-5.008c-.07-.065-.164-.1-.26-.1-.053-.002-.106.008-.155.027s-.095.048-.132.085L.117 49.66c-.037.035-.067.078-.087.125s-.03.098-.03.15c0 .103.044.205.12.276 4.72 4.462 10.952 6.92 17.542 6.92s12.822-2.456 17.544-6.92z" fill="#16a0db"/><path d="M17.657 18.688c-8.08 0-14.02 5.697-14.02 13.25s5.94 13.243 14.02 13.243 14.03-5.69 14.03-13.243-5.953-13.25-14.03-13.25zm-.244 21.534c-4.796 0-7.76-3.69-7.76-8.244s2.963-8.255 7.76-8.255 7.77 3.7 7.77 8.255-2.977 8.244-7.77 8.244z" fill="#263746"/></g><defs><clipPath id="A"><path fill="#fff" d="M0 0h120v64H0z"/></clipPath></defs></svg>