<svg xmlns="http://www.w3.org/2000/svg" width="120" height="64" fill="#b3b7bc" fill-rule="evenodd" xmlns:v="https://vecta.io/nano"><path d="M94.32 43.92c-.505.756-1.03 1.28-1.764 1.533-.713.19-1.532.482-2.288.482-1.532 0-2.75-.42-3.548-1.49-.882-1.133-1.238-2.54-1.238-4.073 0-1.007-.084-2.14.23-3.064.315-1.05.923-1.722 1.532-2.77.566-.882 1.532-1.805 2.54-2.288.966-.42 2.016-.987 3.022-.987.756 0 1.282.273 1.764.525.44.19.755.462 1.28.986 0-.524.25-.755.483-.755.294 0 .525-.23 1.05-.23h3.023c-.755 1.47-1.406 2.98-1.763 4.513-.322 1.497-.484 3.024-.483 4.556 0 .755.315 1.28.483 1.532.23.482.756.525 1.28.525h.483c-.252 1.007-.524 1.804-1.007 2.246-.483.482-1.24.777-2.288.777-.483 0-1.05-.294-1.49-.483-.61-.33-1.075-.876-1.3-1.533zm-1.24-8.628c-.525 0-1.218.566-1.805 1.785-.567 1.05-1.008 2.29-1.008 3.526 0 .253.147.736.273 1.008.084.2.25.294.483.294.525 0 .818-.337 1.008-.526.252-.2.608-.84.776-1.28.315-.777.546-1.26.756-2.014.173-.58.258-1.18.252-1.785 0-.23-.168-.482-.252-.756-.083-.167-.23-.25-.483-.25z"/><path d="M80.13 31.263s.44-.084.525 0a2.35 2.35 0 0 0 .231.231c.524.252 1.406-.2 1.28-.756-.2-.693-1.5-.777-1.763-.777-1.764 0-3.38.903-4.304 1.827-1.26 1.217-1.805 2.75-1.805 4.765 0 1.533.672 2.855 1.282 3.548.755.882 1.763 1.512 3.295 1.512 1.008 0 2.058-.482 3.022-.755.924-.273 2.288-.756 3.6-1.5l-.526 3.548c-.04.273-.2.84-.25 1.007-.084.147-.315.713-.525.756-.608.252-1.574.882-2.54 1.008-1.07.168-2.3.524-3.526.524-2.793 0-5.25-1.092-6.613-2.54-1.5-1.595-2.54-3.82-2.54-6.843 0-3.296 1.176-6.13 3.066-7.873 1.973-1.847 4.555-3.002 8.103-3.002 2.036 0 3.695.483 4.83 1.238 1.197.797 2.016 2.058 2.016 3.548 0 1.512-.652 2.56-1.5 3.275-1.008.84-2.3 1.28-3.842 1.28-.755 0-1.28-.147-1.512-.273-.378-.2-.777-.756-.777-1.24-.126-1.763.293-1.994.776-2.52zM18.788 44.487l-5.752-16.3c-.084-.273-.357-.483-.482-1.008-.042-.168-.273-.483-.525-.756h6.844c-.23.273-.23.525-.23.525v1.24c0 .273-.042.6 0 .756L21.94 38.6l2.016-3.6-1.764-6.298c-.126-.483-.462-1.05-.525-1.28-.168-.483-.483-.735-.777-1.007h6.61v.525c0 .23-.252.483-.252.756 0 .23.168.2.252.483.063.2-.042.357 0 .525l2.036 9.1 4.807-9.1c.147-.273.357-.525.525-1.008.064-.252 0-.525 0-.756v-.524h7.075l-.756.756c-.2.2-.482.6-.735 1.008L29.8 46.2h-2.77l-1.787-6.1-3.086 5.752c9.74 3.505 23.093 5.7 37.872 5.7 2.813.4 2.645 4.303-.4 4.072-31.9-.04-57.858-10.75-57.858-23.66 0-12.995 26.18-23.617 58.256-23.617 32.057 0 58.55 10.664 58.214 23.617-.105 5.3-4.703 11.945-9.216 13.184-.273.04-1.974.777-3.254.777-1.532 0-2.687-.42-3.297-1.008-.566-.566-1.05-1.784-1.05-3.022v-1.302c0-.23.23-.882.273-1.238l.482-3.6h-.756c-.252 0-.483 0-.735.294l.252-2.288c.042-.65.315-1.3.756-1.532.252-.105.776-.462 1.26-.462V28.47l5.352-.756-.524 4.073h1.238c.294 0 .525-.294.777-.294l-.777 2.793c-.084.46-.483.776-.714 1.007-.25.252-.777.482-1.05.482H107l-.756 4.073c-.168.84.357 1.5 1.533 1.238 3.82-.923 6.025-4.975 6.193-8.942.4-10.707-24.395-19.734-53.953-19.734-29.58 0-53.7 8.817-53.7 19.566.003 4.723 4.706 9.1 12.473 12.5zM45.24 42.83v-.2l.525-2.016c.483.526 1.1 1.008 1.784 1.302.482.168 1.238.23 1.994.23.294 0 .483-.147.777-.23.147-.084.525-.294.525-.525 0-.252-.525-.524-1.302-1.008 0 0-.314-.2-.483-.273-.797-.6-1.5-1.574-1.764-2.015-.4-.525-.756-1.26-.756-2.016 0-1.3.44-2.414 1.5-3.296.924-.84 2.52-1.28 4.345-1.28 1.24 0 2.288.335 3.002.756.735.482 1.302 1.008 1.302 1.763v.525s0 .23-.294.483l-.483 2.057c-.756-.525-1.28-.86-1.764-1.008-.693-.294-1.28-.525-1.764-.525-.294 0-.252.17-.525.23-.168.084-.252.294-.252.294 0 .23.336.483 1.008 1.008.252.147.252.315.483.483.966.755 1.764 1.595 2.058 2.057.357.483.756 1.24.756 1.763 0 1.533-.713 2.646-1.764 3.548-.924.84-2.54 1.28-4.598 1.28-1.238 0-2.52-.4-3.296-.755-.65-.337-1.008-.777-1.008-1.533v-.252l-.483 1.008c-.2.482-.483 1.176-.756 1.26-.2.063-.777.273-1.302.273-1.512 0-2.56-.567-3.296-1.05-.714-.44-1.008-1.5-1.008-2.77v-1.785l1.008-5.835v-2.52l5.605-.756-1.784 9.1V41.6c0 .526-.042.945.252 1.008.168.084.525.294 1.007.294h.525c.085-.001.148-.043.232-.085zm-1.9-16.522a2.43 2.43 0 0 1 2.414 2.414 2.43 2.43 0 0 1-2.414 2.414 2.43 2.43 0 0 1-2.414-2.414 2.43 2.43 0 0 1 2.414-2.414zM60.7 40.1c0 .756.084 1.028.294 1.28.273.44.756.525 1.24.525.524 0 1.26-.168 2.057-.525.63-.315 1.763-.777 2.52-1.28l-.273 2.288c-.084.713-.42 1.24-.482 1.532-.084.147-.336.566-.525.756-.42.4-1.07.693-1.763.777-.755.062-1.532.483-2.288.483-1.764 0-3.107-.483-4.03-1.5-1.05-1.218-1.533-2.54-1.533-4.345 0-1.26.168-2.35.483-3.275.378-1.092 1.134-2.058 1.784-2.814.756-.966 1.9-1.5 2.813-1.994.797-.4 2.016-.756 3.023-.756 1.26 0 2.3.566 3.022.987.736.483 1.008 1.532 1.008 2.52 0 1.3-.587 2.498-1.994 3.547C64.72 39.24 63 40.1 60.7 40.1zm0-2.268c1.05-.273 1.785-.882 2.3-1.28.63-.567 1.007-1.008 1.007-1.784 0 0 0-.23-.252-.482h-.525c-.483 0-.923.377-1.5 1.007-.398.525-.756 1.533-1.05 2.54zM28.067 21.3c-.168.168-.44.378-.776.462-.65.2-1.47.042-1.764-.987-.273-.903.2-1.553 1.028-1.805.294-.084.567-.126.82-.042l-.126-.735a3.65 3.65 0 0 0-.945.126c-1.385.4-2.036 1.428-1.637 2.708.378 1.386 1.512 1.826 2.666 1.47.356-.088.7-.245.987-.462l-.252-.735zM30 17.426c-1.154.252-1.847 1.197-1.553 2.54.315 1.386 1.386 1.952 2.52 1.68 1.113-.252 1.847-1.24 1.512-2.624-.314-1.344-1.343-1.848-2.477-1.596zm.105.567c.42-.084 1.197 0 1.5 1.24.315 1.302-.378 1.68-.777 1.764-.42.105-1.197.042-1.5-1.24-.273-1.26.38-1.68.777-1.764zm6.32 2.33l.483-3.758.168.65.6 2.834.777-.168-.86-4.094-1.386.294-.295 2.54-.042.82-.357-.713-1.323-2.204-1.386.294.86 4.093.777-.168-.6-2.897-.126-.588h.042l.315.504 1.637 2.73.714-.17zm2.246-4.576l.6 4.136.82-.126-.2-1.595.504-.042c1.008-.168 1.386-.86 1.302-1.5-.042-.4-.378-1.26-1.764-1.03l-1.26.168zm1.09 1.753l-.2-1.26.44-.084c.525-.042.735.23.777.567s-.168.692-.6.735l-.42.042zm6.024-2.624l-.86.084.315 2.582c.042.4 0 .987-.84 1.07-.756.105-.945-.504-.987-.903l-.252-2.54-.82.042.252 2.582c.168 1.47 1.217 1.553 1.952 1.512.63-.084 1.68-.378 1.553-1.848l-.316-2.582zm.735-.168l.042.714 1.218-.084.252 3.464.86-.042-.252-3.464 1.197-.084-.042-.735-3.275.23zm3.758-.23l.294 4.136 2.498-.168-.042-.735-1.68.126-.084-1.07 1.512-.084-.042-.693-1.512.084-.084-.944 1.68-.126-.042-.735-2.5.2zm3.6-.295l.105 4.177.86-.042-.042-1.72h.294c.252 0 .42.126.567.378l.546 1.343.966-.042-.735-1.595c-.105-.2-.23-.378-.44-.44.4-.084.82-.336.82-.987 0-.504-.252-1.113-1.47-1.113l-1.47.042zm.924.6h.42c.65 0 .735.378.735.545 0 .23-.168.6-.735.6h-.42v-1.154zm3.044 3.4c.315.126.693.252 1.134.252 1.113 0 1.596-.65 1.596-1.238 0-.86-.65-1.134-1.302-1.386-.2-.084-.567-.252-.567-.6 0-.126.105-.42.65-.42.315 0 .65.084.903.168l.105-.65c-.2-.084-.65-.168-1.176-.168-1.154 0-1.343.82-1.343 1.155 0 .6.4.86.966 1.175.462.2.86.336.86.735 0 .294-.273.504-.693.504-.315 0-.693-.126-1.05-.252l-.084.735zm8.376.2l.987.042-.693-.82c.126-.168.566-.567.566-1.47l-.735-.042c0 .525-.168.82-.25.944l-.777-.903c.168-.084.818-.42.818-1.07.042-.525-.4-.945-1.217-.945-.902-.042-1.197.462-1.24.945 0 .336.2.65.505.944-.462.126-.903.567-.945 1.134 0 .588.4 1.322 1.47 1.364.525 0 .903-.126 1.26-.377l.252.252zm-.692-.776a1.25 1.25 0 0 1-.777.273c-.44 0-.693-.4-.693-.735.042-.4.4-.525.567-.6l.903 1.07zm-.777-2.058c-.2-.23-.252-.357-.252-.482 0-.252.168-.378.42-.378.23 0 .483.168.483.378 0 .294-.315.525-.525.6l-.125-.126zm5.08 2.918c.315.168.693.357 1.133.357 1.112.084 1.638-.525 1.68-1.134.04-.86-.568-1.154-1.218-1.47-.2-.084-.546-.294-.504-.63 0-.147.125-.44.693-.4.293.042.63.126.86.252l.126-.63c-.126-.126-.6-.23-1.133-.273-1.155-.084-1.407.735-1.407 1.092-.042.588.335.86.86 1.197.462.273.818.44.818.777-.04.314-.315.525-.735.482-.315 0-.693-.168-1.03-.314l-.146.692zm7.4-3.4l-.86-.084-.315 2.582c0 .4-.17.945-.987.86-.777-.084-.818-.692-.777-1.07l.253-2.54-.82-.084-.25 2.54c-.168 1.47.86 1.805 1.595 1.847.6.084 1.722 0 1.847-1.47l.316-2.582zm.986.125l-.567 4.136.818.147.2-1.596.567.084c.986.126 1.5-.44 1.638-1.1.04-.378-.042-1.28-1.427-1.512l-1.24-.17zm.567 2.08l.16-1.282.42.042c.524.084.65.4.608.735-.04.357-.335.6-.777.566l-.42-.042zm3.086-1.595l-.714 4.136.818.126.253-1.554.567.084c.945.168 1.553-.378 1.638-1.028.084-.4.04-1.3-1.343-1.553l-1.218-.2zm.482 2.057l.2-1.28.44.084c.462.084.6.42.568.777-.106.294-.4.567-.82.504l-.4-.084zm3.066-1.365l-.86 4.094 2.456.504.126-.672-1.638-.357.735-3.4-.818-.168zm2.162 4.703l.777.168.903-4.093-.82-.2-.86 4.114zm2.877-3.632l-1.197 4 2.37.735.2-.693-1.595-.525.294-1.028 1.428.482.2-.693-1.406-.44.25-.903 1.595.483.2-.693-2.373-.735zm1.763 4.702c.273.2.6.42 1.008.567 1.07.294 1.72-.2 1.9-.777.2-.82-.337-1.26-.86-1.7-.2-.126-.483-.378-.378-.713.04-.147.2-.4.713-.23.315.084.6.273.818.4l.273-.567c-.126-.126-.566-.336-1.05-.525-1.112-.294-1.5.44-1.637.777-.168.567.147.924.608 1.386.4.357.736.567.652.945-.084.273-.44.4-.82.315-.293-.084-.65-.357-.945-.567l-.27.692z"/></svg>