<svg xmlns="http://www.w3.org/2000/svg" xmlns:xlink="http://www.w3.org/1999/xlink" width="48" height="48" fill="none" xmlns:v="https://vecta.io/nano"><g fill="#7772f1"><path d="M16.64 31.014c-.174-.174-.416-.274-.663-.274s-.5.1-.663.274a.95.95 0 0 0-.275.663c0 .247.1.488.275.663a.94.94 0 0 0 1.326 0c.174-.174.275-.415.275-.663a.95.95 0 0 0-.275-.663zm31.36.852c0-1.893-1.33-3.48-3.105-3.88a3.95 3.95 0 0 0 .666-2.199c0-2.193-1.784-3.977-3.977-3.977H31.15l1.365-4.052c.55-1.635.42-3.38-.37-4.914S30.01 10.19 28.36 9.687l-1.645-.5a.94.94 0 0 0-1.154.578l-2.585 7.143c-.734 2.027-2.18 3.712-4.074 4.742l-2.582 1.406c-.555-.755-1.45-1.246-2.457-1.246H.938a.94.94 0 0 0-.937.938v24.314A.94.94 0 0 0 .938 48h12.928a3.05 3.05 0 0 0 2.632-1.514l1.323.52a14.36 14.36 0 0 0 5.262.995h16.38c2.193 0 3.977-1.784 3.977-3.977 0-.82-.25-1.58-.675-2.215 1.74-.423 3.038-1.994 3.038-3.864a3.97 3.97 0 0 0-.7-2.252C46.772 35.22 48 33.685 48 31.866zm-3.977 2.102H34.38a.94.94 0 0 0-.937.938.94.94 0 0 0 .938.938h7.446c1.16 0 2.102.943 2.102 2.102s-.943 2.102-2.102 2.102H34.38a.94.94 0 0 0-.937.938.94.94 0 0 0 .938.938h5.084c1.16 0 2.102.943 2.102 2.102s-.943 2.102-2.102 2.102h-16.38a12.49 12.49 0 0 1-4.578-.865l-1.592-.624V35.44a.94.94 0 0 0-.937-.937.94.94 0 0 0-.937.938v9.514c0 .647-.526 1.173-1.173 1.173h-12V23.69h12c.647 0 1.173.526 1.173 1.173v3.183a.94.94 0 0 0 .938.938.94.94 0 0 0 .938-.937V24.87l2.887-1.572a10.68 10.68 0 0 0 4.94-5.751l2.282-6.306.793.24c1.162.353 2.107 1.142 2.663 2.22a4.41 4.41 0 0 1 .26 3.458l-1.78 5.288c-.096.286-.05.6.127.846a.94.94 0 0 0 .761.391h11.738c1.16 0 2.102.943 2.102 2.102s-.943 2.102-2.102 2.102H34.38a.94.94 0 0 0-.937.938.94.94 0 0 0 .938.938h9.643c1.16 0 2.102.943 2.102 2.102s-.943 2.102-2.102 2.102zm-33.788 5a2.63 2.63 0 0 0-2.626 2.626 2.63 2.63 0 0 0 2.626 2.626 2.63 2.63 0 0 0 2.626-2.626 2.63 2.63 0 0 0-2.626-2.626zm0 3.377a.751.751 0 1 1 0-1.502.751.751 0 1 1 0 1.502zM28.675.275C28.5.1 28.258 0 28.012 0s-.488.1-.663.275-.275.416-.275.663.1.488.275.663.416.275.663.275.488-.1.663-.275.275-.416.275-.663-.1-.488-.275-.663zM28.012 3.5a.94.94 0 0 0-.937.938v2.28a.94.94 0 0 0 .938.938.94.94 0 0 0 .938-.937V4.44a.94.94 0 0 0-.937-.937z"/><use xlink:href="#B"/><use xlink:href="#B" x="-18.832"/><path d="M23.377 7.277l-2.73-2.73a.94.94 0 0 0-1.326 0 .94.94 0 0 0 0 1.326l2.73 2.73c.183.183.423.275.663.275s.48-.092.663-.275a.94.94 0 0 0 0-1.326zM36.705 4.55a.94.94 0 0 0-1.326 0l-2.73 2.73a.94.94 0 0 0 0 1.326c.183.183.423.275.663.275s.48-.092.663-.275l2.73-2.73a.94.94 0 0 0 0-1.326z"/></g><defs ><path id="B" d="M40.32 12.305h-5.78a.94.94 0 0 0-.937.938.94.94 0 0 0 .938.938h5.78a.94.94 0 0 0 .938-.937.94.94 0 0 0-.937-.937z"/></defs></svg>