<svg xmlns="http://www.w3.org/2000/svg" xmlns:xlink="http://www.w3.org/1999/xlink" width="48" height="48" fill="none" xmlns:v="https://vecta.io/nano"><g fill="#7772f1"><use xlink:href="#B"/><use xlink:href="#C"/><use xlink:href="#C" x="-9.557" y="-14.719"/><use xlink:href="#D"/><use xlink:href="#B" y="10.125"/><use xlink:href="#C" y="10.125"/><use xlink:href="#D" y="10.125"/><use xlink:href="#B" y="20.25"/><use xlink:href="#C" y="20.25"/><use xlink:href="#D" y="20.25"/><path d="M39.304 3.656h-7.16C31.11 2.67 29.7 2.062 28.17 2.062h-.82A3.77 3.77 0 0 0 24 0a3.77 3.77 0 0 0-3.35 2.063h-.823c-1.54 0-2.938.607-3.973 1.594H8.696a4.58 4.58 0 0 0-4.571 4.571V43.43A4.58 4.58 0 0 0 8.696 48h30.608a4.58 4.58 0 0 0 4.571-4.571V8.227a4.58 4.58 0 0 0-4.571-4.571zm-19.476.28h1.46a.94.94 0 0 0 .904-.688 1.88 1.88 0 0 1 3.614 0 .94.94 0 0 0 .904.688h1.46c2.035 0 3.7 1.57 3.877 3.563H15.95c.167-1.992 1.842-3.563 3.877-3.563zM42 43.43a2.7 2.7 0 0 1-2.696 2.696H8.696A2.7 2.7 0 0 1 6 43.429V8.227a2.7 2.7 0 0 1 2.696-2.696h5.845a5.73 5.73 0 0 0-.479 2.297v.6a.94.94 0 0 0 .938.938h17.998a.94.94 0 0 0 .938-.937v-.6a5.73 5.73 0 0 0-.479-2.297h5.847A2.7 2.7 0 0 1 42 8.227V43.43zM18.037 14.023a.94.94 0 0 0-1.326 0l-4 4-1.235-1.235a.94.94 0 0 0-1.326 0 .94.94 0 0 0 0 1.326l1.898 1.898c.183.183.423.275.663.275s.48-.092.663-.275l4.672-4.672a.94.94 0 0 0 0-1.326zM15.75 34.5h-4.5a.94.94 0 0 0-.937.938v4.5a.94.94 0 0 0 .938.938h4.5a.94.94 0 0 0 .938-.937v-4.5a.94.94 0 0 0-.937-.937zm-.937 4.5h-2.625v-2.625h2.625V39zm.937-14.625h-4.5a.94.94 0 0 0-.937.938v4.5a.94.94 0 0 0 .938.938h4.5a.94.94 0 0 0 .938-.937v-4.5a.94.94 0 0 0-.937-.937zm-.937 4.5h-2.625V26.25h2.625v2.625z"/></g><defs ><path id="B" d="M37.5 14.25H24a.94.94 0 0 0-.937.938.94.94 0 0 0 .938.938h13.5a.94.94 0 0 0 .938-.937.94.94 0 0 0-.937-.937z"/><path id="C" d="M34.22 19.025c-.174-.174-.416-.275-.663-.275s-.488.1-.663.275-.275.416-.275.663.1.488.275.663.416.275.663.275.488-.1.663-.275.275-.416.275-.663-.1-.488-.275-.663z"/><path id="D" d="M29.614 18.75H24a.94.94 0 0 0-.937.938.94.94 0 0 0 .938.938h5.613a.94.94 0 0 0 .938-.937.94.94 0 0 0-.937-.937z"/></defs></svg>