<svg xmlns="http://www.w3.org/2000/svg" xmlns:xlink="http://www.w3.org/1999/xlink" width="572" height="521" fill="none" xmlns:v="https://vecta.io/nano"><style><![CDATA[.B{fill:#fff}.C{fill:#3fb1b5}.D{fill:#66b0f0}.E{fill:#ffcf2d}.F{fill:#fe5244}.G{fill:#a0505a}.H{fill:#73325a}.I{fill:#e57281}.J{fill:#9a3b82}]]></style><path d="M359.45 15.052l39.818 38.234 40.02 215.53H63.902L359.45 15.052z" class="E"/><path d="M399.6 52.985L359.67 14.63l6.68-6.906c9.84-10.17 27.565-9.008 37.786.76 10.22 9.79 12.012 27.424 2.173 37.593l-6.7 6.906z" class="B"/><g class="E"><path d="M399.63 53.826L358.826 14.65l7.102-7.347c4.79-4.964 11.6-7.547 19.215-7.286 7.284.26 14.366 3.183 19.436 8.027s8.27 11.8 8.793 19.037c.543 7.547-1.81 14.433-6.6 19.397l-7.142 7.346zM360.516 14.61l39.073 37.513 6.278-6.466c4.567-4.704 6.78-11.27 6.277-18.476-.503-6.966-3.56-13.612-8.43-18.256s-11.65-7.447-18.63-7.687c-7.244-.26-13.743 2.202-18.3 6.906l-6.277 6.466z"/><path d="M406.3 46.68c-.16 0-.302-.06-.423-.16l-39.96-38.354c-.24-.24-.24-.6-.02-.84.242-.24.624-.24.845-.02l39.96 38.354c.242.24.242.6.02.84-.1.12-.26.18-.422.18z"/></g><path d="M483.47 267.775c-.08 0-.16-.02-.24-.06-.302-.14-.443-.5-.302-.8l56.035-124.35L429.408 9.866c-2.073-2.802-5.11-4.604-8.57-5.105a12.81 12.81 0 0 0-9.678 2.522l-4.467 3.403c-.262.2-.644.16-.845-.12-.2-.26-.16-.64.12-.84l4.466-3.403a14.11 14.11 0 0 1 10.584-2.742c3.782.54 7.102 2.502 9.356 5.565L540.37 142.384l-.16.34-56.196 124.69c-.1.22-.322.36-.543.36z" class="C"/><path d="M537.876 149.27c3.4 0 6.157-2.742 6.157-6.125s-2.757-6.125-6.157-6.125-6.157 2.742-6.157 6.125 2.757 6.125 6.157 6.125z" class="B"/><path d="M537.876 149.87c-3.722 0-6.76-3.023-6.76-6.726s3.038-6.726 6.76-6.726 6.76 3.023 6.76 6.726-3.04 6.726-6.76 6.726zm0-12.25c-3.058 0-5.553 2.482-5.553 5.525s2.495 5.525 5.553 5.525 5.553-2.482 5.553-5.525-2.495-5.525-5.553-5.525z" class="E"/><path d="M467.858 253.242h30c8.632 0 15.613 6.966 15.613 15.534v.44h-61.246v-.44c.02-8.568 7.002-15.534 15.634-15.534z" class="B"/><path d="M514.074 269.817H451.62v-1.04c.02-8.888 7.303-16.134 16.237-16.134h30c8.933 0 16.217 7.246 16.217 16.134v1.04zm-61.246-1.2h60.04c-.08-8.168-6.78-14.773-15-14.773h-30c-8.21 0-14.93 6.605-15.03 14.773z" class="E"/><path d="M322.528 223.756H132.613c-7.143 0-12.917-5.745-12.917-12.85V78.748c0-7.106 5.774-12.85 12.917-12.85h189.915c7.143 0 12.918 5.745 12.918 12.85v132.137c.02 7.106-5.775 12.87-12.918 12.87z" class="B"/><path d="M322.53 224.357H132.613c-7.464 0-13.52-6.025-13.52-13.452V78.748c0-7.427 6.057-13.452 13.52-13.452H322.53c7.464 0 13.52 6.025 13.52 13.452v132.137c.02 3.583-1.39 6.966-3.944 9.508a13.42 13.42 0 0 1-9.577 3.964zM132.613 66.497c-6.78 0-12.313 5.505-12.313 12.25v132.157c0 6.746 5.533 12.25 12.313 12.25H322.53a12.3 12.3 0 0 0 8.732-3.603c2.314-2.322 3.6-5.405 3.58-8.668V78.748c0-6.746-5.533-12.25-12.313-12.25H132.613z" class="C"/><g class="D"><path d="M322.65 211.465H134.565c-2.797 0-5.05-2.262-5.05-5.024V80.01c0-2.782 2.273-5.024 5.05-5.024H322.65c2.797 0 5.05 2.262 5.05 5.024V206.42c.02 2.782-2.254 5.044-5.05 5.044z"/><path d="M322.65 212.066H134.565c-3.12 0-5.654-2.522-5.654-5.625V80.01c0-3.103 2.535-5.625 5.654-5.625H322.65c3.12 0 5.654 2.522 5.654 5.625V206.42c.02 1.5-.563 2.922-1.63 3.983-1.087 1.06-2.495 1.662-4.025 1.662zM134.565 75.585c-2.455 0-4.447 1.982-4.447 4.424V206.44c0 2.442 1.992 4.424 4.447 4.424H322.65a4.46 4.46 0 0 0 3.159-1.301c.845-.84 1.288-1.942 1.288-3.123V80.01c0-2.442-1.992-4.424-4.447-4.424H134.565z"/></g><path d="M141.305 87.396h-2.978c-1.308 0-2.374-1.06-2.374-2.362V82.07c0-1.3 1.066-2.362 2.374-2.362h2.978c1.308 0 2.374 1.06 2.374 2.362v2.963c-.02 1.32-1.066 2.362-2.374 2.362zm-2.978-6.486c-.644 0-1.167.52-1.167 1.16v2.963c0 .64.523 1.16 1.167 1.16h2.978c.644 0 1.147-.52 1.167-1.18V82.07c0-.64-.523-1.16-1.167-1.16h-2.978zm16.52 6.486h-2.978c-1.307 0-2.374-1.06-2.374-2.362V82.07c0-1.3 1.067-2.362 2.374-2.362h2.978c1.308 0 2.374 1.06 2.374 2.362v2.963c0 1.3-1.066 2.362-2.374 2.362zm-2.978-6.486c-.643 0-1.167.52-1.167 1.16v2.963c0 .64.524 1.16 1.167 1.16h2.978c.644 0 1.167-.52 1.167-1.16V82.07c0-.64-.523-1.16-1.167-1.16h-2.978zm16.52 6.486h-2.978c-1.307 0-2.374-1.06-2.374-2.362V82.07c0-1.3 1.067-2.362 2.374-2.362h2.978c1.308 0 2.374 1.06 2.374 2.362v2.963c0 1.3-1.066 2.362-2.374 2.362zM165.4 80.9c-.643 0-1.167.52-1.167 1.16v2.963c0 .64.524 1.16 1.167 1.16h2.978a1.14 1.14 0 0 0 1.167-1.161V82.07c0-.64-.523-1.16-1.167-1.16H165.4zm102.25 187.917h-73.72l14.466-45.06h44.768l14.487 45.06z" class="B"/><g class="C"><path d="M268.485 269.417h-75.37l14.85-46.26h45.652l14.87 46.26zm-73.72-1.2h72.07l-14.105-43.86H208.85l-14.084 43.86z"/><path d="M199.734 250.78l8.672-27.024h44.768l-53.44 27.024z"/></g><g class="B"><path d="M311.704 117.042H275.87c-3.682 0-6.68-2.983-6.68-6.646v-23.02c0-3.663 2.998-6.646 6.68-6.646h35.834c3.682 0 6.68 2.983 6.68 6.646v23.02c0 3.663-2.998 6.646-6.68 6.646zM275.87 81.93c-3.018 0-5.473 2.442-5.473 5.445v23.02c0 3.002 2.455 5.445 5.473 5.445h35.834c3.018 0 5.473-2.443 5.473-5.445v-23.02c0-3.003-2.455-5.445-5.473-5.445H275.87z"/><use xlink:href="#B"/><use xlink:href="#B" y="6.206"/><use xlink:href="#B" y="12.412"/><use xlink:href="#B" y="18.616"/><path d="M321.603 211.465H179.17l-8.35 11.9c-9.437 13.452-29.376 13.652-39.074.38l-50.864-69.6c2.133 2.642 11.89-.3 21.186-6.386 9.437-6.185 15.533-13.972 13.622-16.855l35.27 44.72 10.804-18.977a21.33 21.33 0 0 1 13.582-9.949l36.76-7.747h31.7l34.93 7.667a21.4 21.4 0 0 1 14.144 10.79l28.732 54.048z"/></g><g class="C"><path d="M151.143 234.185c-7.947 0-15.19-3.663-19.88-10.09L80.4 154.494l.966-.72c1.7 2.102 10.784-.22 20.382-6.506 4.467-2.923 8.35-6.306 10.925-9.548 2.334-2.923 3.28-5.345 2.515-6.486l.986-.7 34.708 44.02 10.362-18.196a21.97 21.97 0 0 1 13.963-10.229l36.84-7.767h31.81l.06.02 34.93 7.667c6.237 1.42 11.55 5.465 14.547 11.1l29.194 54.93H179.473l-8.17 11.65c-4.608 6.566-11.87 10.39-19.94 10.47h-.222zm-68.41-78.53l49.516 67.74c4.507 6.165 11.47 9.668 19.135 9.588s14.567-3.703 18.953-9.95l8.53-12.17h141.748l-28.27-53.167a20.78 20.78 0 0 0-13.743-10.489l-34.868-7.647h-31.57l-36.7 7.727c-5.513 1.28-10.322 4.804-13.18 9.67l-11.247 19.757-34.486-43.72c-.282 1.502-1.268 3.383-2.958 5.485-2.656 3.323-6.64 6.806-11.207 9.79-6.378 4.164-14.044 7.447-18.61 7.447-.362 0-.724-.02-1.046-.06z"/><path d="M282.5 211.246c-.22 0-.422-.12-.543-.32l-10.12-19.877c-.14-.3-.04-.66.262-.8s.664-.04.805.26l10.12 19.878c.14.3.04.66-.26.8a.55.55 0 0 1-.262.061zm-104.144 1.86a.71.71 0 0 1-.281-.06.58.58 0 0 1-.262-.801l10.02-19.677c.14-.3.523-.42.805-.26a.58.58 0 0 1 .261.801l-10.02 19.678a.58.58 0 0 1-.523.32zm-18.17-25.023a.6.6 0 0 1-.483-.24l-22.957-29.206a.6.6 0 0 1 .101-.841c.26-.2.644-.16.845.1l22.957 29.205a.6.6 0 0 1-.101.841c-.1.1-.24.14-.362.14zm80.08-28.424l-8.833-10.7a.58.58 0 0 1 .081-.841c.26-.22.644-.18.845.08l8.068 9.748 18.45-15.574c.26-.22.643-.18.845.06.22.26.18.64-.06.84l-19.396 16.395zm-22.936.38l-21.267-16.755a.6.6 0 0 1-.101-.841.61.61 0 0 1 .846-.1l20.3 15.995 7.827-9.95c.2-.26.583-.3.845-.1a.6.6 0 0 1 .1.84l-8.55 10.9zm-126.78 4.924c-1.912 0-2.918-.58-3.42-1.22a.6.6 0 0 1 .101-.841c.262-.2.644-.16.845.1.845 1.06 3.602 1 7.364-.12 4.004-1.2 8.832-3.563 13.22-6.466 4.486-2.962 8.4-6.385 10.985-9.668 2.354-2.963 3.3-5.405 2.535-6.566-.18-.28-.1-.64.182-.84.28-.18.643-.1.845.18 1.086 1.662.16 4.484-2.596 7.968-2.676 3.363-6.68 6.886-11.267 9.908-4.547 3.003-9.356 5.365-13.54 6.626-2.274.68-3.984.94-5.25.94zm25.816-19.437a2.87 2.87 0 0 1-2.877-2.863 2.877 2.877 0 1 1 5.754 0 2.87 2.87 0 0 1-2.877 2.863zm0-4.524a1.662 1.662 0 1 0 0 3.323 1.66 1.66 0 1 0 0-3.322z"/><use xlink:href="#C"/><use xlink:href="#C" y="18.216"/><path d="M170.097 224.336l9.074-12.87v12.87h-9.074z"/></g><path d="M101.848 147.168c-9.295 6.086-19.053 9.028-21.186 6.386-.04-.04-.06-.08-.1-.14-.443-.66-.402-1.56 0-2.662 1.388-3.624 7.123-9.23 14.406-13.993 5.795-3.803 11.51-6.446 15.473-7.266 2.294-.46 4.004-.32 4.83.56l.2.24c1.89 2.883-4.185 10.7-13.622 16.875z" class="F"/><path d="M101.85 147.168c-5.292 3.463-10.745 5.925-14.85 6.886L68.63 128.27c-2.555-3.603-1.7-8.587 1.93-11.13l16.54-11.57-9.376-15.874c-1.368-2.302-.584-5.285 1.75-6.626.765-.44 1.6-.64 2.414-.64 1.6 0 3.16.78 4.084 2.222l29.516 45.68c1.87 2.843-4.205 10.65-13.64 16.835z" class="I"/><g class="J"><path d="M92.292 128.572c-.26 0-.523-.02-.785-.08a3.75 3.75 0 0 1-2.414-1.642l-9.678-14.413c-.18-.28-.1-.64.16-.84.282-.18.644-.1.845.16l9.678 14.413a2.59 2.59 0 0 0 1.65 1.121c.684.14 1.388 0 1.972-.38l2.274-1.48c1.207-.78 1.55-2.382.785-3.583l-10.24-15.794c-.18-.28-.1-.64.18-.82s.644-.1.825.18l10.24 15.794a3.79 3.79 0 0 1-1.147 5.225l-2.274 1.48a3.5 3.5 0 0 1-2.072.661z"/><path d="M84.787 133.356c-1.247 0-2.475-.6-3.22-1.702-.18-.28-.1-.64.18-.84.282-.18.644-.1.845.18.785 1.18 2.394 1.52 3.602.76l2.072-1.3c.584-.38 1.006-.96 1.147-1.66s.02-1.4-.362-1.982c-.18-.28-.1-.64.18-.84a.62.62 0 0 1 .845.18 3.78 3.78 0 0 1 .543 2.903 3.87 3.87 0 0 1-1.69 2.422l-2.072 1.3a4.1 4.1 0 0 1-2.072.581z"/><path d="M77.423 137.84c-1.207 0-2.394-.56-3.14-1.62l-5.493-7.707c-.2-.28-.12-.64.14-.84s.644-.12.845.14l5.493 7.707a2.63 2.63 0 0 0 3.541.701l.04-.02 1.912-1.06c.604-.38 1.006-.96 1.167-1.642.16-.7.02-1.4-.362-2L72.09 117.48c-.18-.28-.12-.64.16-.84.282-.18.644-.12.845.16l9.477 14.012c.584.88.765 1.922.543 2.923a3.74 3.74 0 0 1-1.71 2.402l-.02.02-1.91 1.06c-.664.44-1.368.62-2.052.62z"/></g><path d="M108.448 119.444l-4.808-7.427a5.26 5.26 0 0 0-7.344-1.501l-11.93 8.047s3.46 6.185 11.87 1.28l2.817 4.464c-5.754 3.623-7.404 11.25-3.662 16.915l13.058-21.78z" class="I"/><g class="J"><path d="M95.4 141.823a.6.6 0 0 1-.503-.28c-1.89-2.883-2.555-6.326-1.81-9.69.684-3.163 2.515-5.885 5.15-7.727l-2.193-3.483c-2.897 1.582-5.533 2.042-7.867 1.422-2.958-.8-4.286-3.123-4.346-3.203l-.26-.48 11.75-8.167c1.328-.88 2.897-1.2 4.447-.88a5.81 5.81 0 0 1 3.743 2.563l4.81 7.426c.18.28.1.64-.182.82a.59.59 0 0 1-.824-.18l-4.81-7.427c-.684-1.06-1.73-1.78-2.978-2.022-1.227-.26-2.495 0-3.52.7l-10.805 7.507c.483.62 1.57 1.74 3.3 2.202 2.133.58 4.628.04 7.424-1.582l.503-.3 3.44 5.465-.503.32c-2.636 1.66-4.467 4.264-5.13 7.306s-.08 6.166 1.65 8.768c.18.28.1.64-.18.84a.67.67 0 0 1-.302.08z"/><path d="M101.85 147.17c-5.292 3.463-10.745 5.925-14.85 6.886l-4.567-6.406c2.555-3.323 7.123-7.326 12.535-10.87 5.794-3.804 11.508-6.446 15.472-7.267 2.294-.46 4.004-.32 4.83.56l.2.24c.02.04.04.06.06.1.02.02.02.04.04.08s.04.06.06.1c1.368 3.063-4.648 10.57-13.782 16.575z"/></g><path d="M243.778 121.345v17.595c0 5.105-7.123 9.23-15.875 9.23-8.773 0-15.875-4.124-15.875-9.23v-17.595h31.75z" class="I"/><path d="M216.675 145.466c-2.877-1.66-4.668-3.983-4.668-6.526v-17.595h31.77v4.884c0 5.065-3.1 9.61-7.807 11.5l-19.295 7.727z" class="J"/><path d="M252.63 120.305v.3c0 3.043-2.475 5.505-5.533 5.505h-3.642c-1.227 4.925-5.694 8.588-11.046 8.588h-9.014c-5.332 0-9.82-3.643-11.026-8.588h-3.642c-3.058 0-5.533-2.462-5.533-5.505v-.3c0-3.043 2.475-5.505 5.533-5.505h3.3v-4.344c0-4.644 3.44-8.487 7.928-9.128.985 1.642 3.963 5.565 10.04 5.345 2.857-.1 5.513-.64 7.706-1.28 2.635-.76 5.27.84 5.935 3.343a9.52 9.52 0 0 1 .161 1.701v4.344h3.3a5.55 5.55 0 0 1 5.533 5.525z" class="I"/><g class="J"><path d="M246.312 114.78h-2.535v-4.824c0-.42-.06-.84-.16-1.22-.664-2.502-3.3-4.104-5.935-3.343-2.194.64-4.83 1.18-7.706 1.28-6.077.22-9.055-3.703-10.04-5.345-4.487.64-7.928 4.484-7.928 9.13v4.343h-3.16s-3.62-13.03-.905-16.714c2.676-3.623 5.895-2.042 5.895-2.042s-1.932-10.85 8.853-10.65c10.764.2 24.768 12.63 25.794 14.914 1.6 3.503-2.173 14.472-2.173 14.472zm-1.308 7.045c-.28 0-.503-.22-.503-.5 0-2.402 1.972-4.364 4.387-4.364.28 0 .503.22.503.5s-.222.5-.503.5c-1.87 0-3.38 1.5-3.38 3.363 0 .28-.22.5-.503.5zm-34.164 0c-.282 0-.503-.22-.503-.5 0-1.862-1.5-3.363-3.38-3.363-.282 0-.503-.22-.503-.5s.22-.5.503-.5c2.414 0 4.386 1.962 4.386 4.364 0 .28-.22.5-.503.5zm27.867-10.87c-.1 0-.2-.04-.302-.1-.1-.08-2.696-1.902-6.016-.52a.52.52 0 0 1-.664-.28c-.1-.26.02-.54.282-.66 3.863-1.58 6.86.54 6.982.64.22.16.28.48.1.7a.43.43 0 0 1-.382.221zm-21.81 0a.53.53 0 0 1-.402-.2c-.16-.22-.12-.54.1-.7.12-.1 3.138-2.222 6.98-.64.262.1.383.4.282.66s-.402.38-.664.28c-3.34-1.382-5.976.5-6.016.52-.08.04-.18.08-.282.08zM229.17 127.8c-.785 0-1.7-.16-2.716-.54-.262-.1-.403-.38-.302-.64a.5.5 0 0 1 .644-.3c4.225 1.562 5.613-1.2 5.674-1.32.12-.24.422-.36.664-.24s.362.42.24.66c-.02.04-1.167 2.383-4.205 2.383zm-1.43-3.763c-.463 0-.966 0-1.388-.04-.282-.02-.483-.26-.463-.54a.5.5 0 0 1 .543-.461c1.187.08 3.018 0 3.04 0 .28-.02.503.2.523.48s-.202.5-.483.52l-1.77.04z"/><use xlink:href="#D"/><use xlink:href="#D" x="-14.427"/></g><g class="B"><path d="M223.435 123.287h-6.337c-1.5 0-2.717-1.222-2.717-2.703v-6.305c0-1.482 1.228-2.703 2.717-2.703h6.337c1.5 0 2.717 1.22 2.717 2.703v6.305c.02.7-.262 1.38-.765 1.882a2.67 2.67 0 0 1-1.952.821zm-6.337-10.7c-.946 0-1.7.76-1.7 1.702v6.305c0 .94.765 1.702 1.7 1.702h6.337a1.68 1.68 0 0 0 1.228-.52c.322-.32.483-.74.483-1.18v-6.305c0-.94-.765-1.702-1.7-1.702H217.1zm21.85 10.7H232.6c-1.5 0-2.716-1.222-2.716-2.703v-6.305c0-1.482 1.227-2.703 2.716-2.703h6.338c1.5 0 2.716 1.22 2.716 2.703v6.305c0 1.48-1.227 2.703-2.716 2.703zm-6.338-10.7c-.946 0-1.7.76-1.7 1.702v6.305c0 .94.764 1.702 1.7 1.702h6.338c.945 0 1.7-.76 1.7-1.702v-6.305c0-.94-.765-1.702-1.7-1.702H232.6z"/><path d="M230.397 115.74h-4.728v1h4.728v-1z"/></g><path d="M240.62 204.3h-21.992c-2.334 0-4.225-1.88-4.225-4.203v-11.63c0-2.322 1.9-4.203 4.225-4.203h21.992c2.334 0 4.225 1.88 4.225 4.203v11.63c0 2.322-1.9 4.203-4.225 4.203zm-21.992-18.836c-1.67 0-3.018 1.34-3.018 3.002v11.63c0 1.66 1.348 3.002 3.018 3.002h21.992c1.67 0 3.018-1.34 3.018-3.002v-11.63c0-1.66-1.348-3.002-3.018-3.002h-21.992zm11.548 13.55h-7.445a2.15 2.15 0 0 1-2.152-2.142v-5.184a2.15 2.15 0 0 1 2.152-2.142h7.445a2.15 2.15 0 0 1 2.153 2.142v5.184a2.15 2.15 0 0 1-2.153 2.142zm7.244-.14l-2.293-1.522a2.31 2.31 0 0 1-1.006-1.92v-2.282c0-.78.382-1.502 1.006-1.922l2.293-1.52c.544-.36 1.248.04 1.248.72v7.747c.02.66-.704 1.06-1.248.7z" class="D"/><path d="M534.737 269.817H.604a.59.59 0 1 1 0-1.201h534.133a.59.59 0 1 1 0 1.201z" class="C"/><path d="M172.572 272.72v247.14h-14.024v-47.042c0-4.384-3.58-7.947-7.988-7.947H50.18c-4.406 0-7.988 3.563-7.988 7.947v47.042H28.17V272.72h144.404z" class="B"/><path d="M173.176 520.46h-15.232v-47.642c0-4.043-3.32-7.346-7.384-7.346H50.18c-4.064 0-7.384 3.303-7.384 7.346v47.642h-15.23V272.12h145.61v248.34zm-14.024-1.2h12.816V273.32H28.772v245.938H41.59v-46.44c0-4.704 3.863-8.547 8.59-8.547h100.38c4.73 0 8.592 3.843 8.592 8.547v46.44z" class="C"/><path d="M172.994 272.72v65.578L28.17 456.943l.02-184.223h144.805z" fill="#d0f0e4"/><path d="M150.983 344.483H49.778c-4.507 0-8.17-3.643-8.17-8.127v-44.82c0-4.484 3.662-8.127 8.17-8.127h101.205c4.507 0 8.17 3.643 8.17 8.127v44.82c0 4.484-3.662 8.127-8.17 8.127zM49.778 284.6c-3.843 0-6.962 3.103-6.962 6.926v44.82c0 3.824 3.12 6.926 6.962 6.926h101.205c3.843 0 6.96-3.102 6.96-6.926v-44.82c0-3.823-3.118-6.926-6.96-6.926H49.778z" class="C"/><path d="M126.114 377.832H76.296l-2.072-14.192h49.838l2.052 14.192z" class="E"/><path d="M152.693 355.453c-6.217 0-11.247 5.005-11.247 11.2v11.2H99.052v-11.2c0-6.185 5.03-11.2 11.247-11.2h42.394z" class="B"/><path d="M142.05 378.434h-43.6v-11.79c0-6.506 5.31-11.8 11.85-11.8h42.393v1.2c-5.875 0-10.644 4.744-10.644 10.59v11.79zm-42.393-1.202h41.186v-10.59c0-4.644 2.716-8.668 6.64-10.59H110.3c-5.876 0-10.644 4.744-10.644 10.59v10.59z" class="C"/><path d="M163.256 363.64h-42.393c-1.308-4.724-5.674-8.187-10.845-8.187h42.394c5.17 0 9.516 3.463 10.844 8.187z" class="B"/><path d="M164.062 364.24h-43.64l-.12-.44c-1.268-4.564-5.493-7.746-10.26-7.746v-1.2h42.393c5.292 0 10 3.543 11.428 8.627l.202.76zm-42.756-1.2h41.126c-1.5-4.144-5.533-6.986-10.02-6.986H115.23c2.837 1.38 5.1 3.883 6.076 6.986zm29.677 75.266H49.778c-4.507 0-8.17-3.643-8.17-8.127v-44.82c0-4.484 3.662-8.128 8.17-8.128h101.205c4.507 0 8.17 3.644 8.17 8.128v44.82c0 4.484-3.662 8.127-8.17 8.127zM49.778 378.433c-3.843 0-6.962 3.103-6.962 6.927v44.82c0 3.824 3.12 6.926 6.962 6.926h101.205c3.843 0 6.96-3.102 6.96-6.926v-44.82c0-3.824-3.118-6.927-6.96-6.927H49.778zm71.346-64.777a.59.59 0 0 1-.604-.6c0-3.243-2.636-5.866-5.895-5.866h-28.47c-3.26 0-5.895 2.623-5.895 5.866a.603.603 0 1 1-1.207 0c0-3.904 3.18-7.067 7.103-7.067h28.47c3.923 0 7.102 3.163 7.102 7.067a.59.59 0 0 1-.603.6zm0 93.824a.59.59 0 0 1-.604-.6c0-3.243-2.636-5.865-5.895-5.865h-28.47c-3.26 0-5.895 2.622-5.895 5.865a.603.603 0 1 1-1.207 0c0-3.904 3.18-7.067 7.103-7.067h28.47c3.923 0 7.102 3.163 7.102 7.067a.59.59 0 0 1-.603.6z" class="C"/><path d="M513.47 272.72h-14.95V520.4h14.95V272.72z" class="B"/><g class="C"><path d="M514.074 521h-16.157V272.12h16.157V521zm-14.95-1.2h13.742V273.32h-13.742V519.8z"/><path d="M571.397 521H259.41a.59.59 0 1 1 0-1.201h311.986a.59.59 0 1 1 0 1.201z"/></g><path d="M70.622 235.247h-9.034s-12.897-53.468-24.225-55.21-11.91 18.837-11.91 18.837.2-31.288 28.51-27.004c28.33 4.283 16.66 63.376 16.66 63.376z" class="B"/><g class="C"><path d="M71.126 235.847h-10l-.12-.46c-.04-.14-3.28-13.512-7.847-26.904-7.565-22.16-12.817-27.384-15.875-27.845-2.093-.32-3.944.16-5.473 1.442-5.332 4.403-5.734 16.694-5.734 16.814l-1.207-.02c0-.16.04-3.823 1.227-8.507 1.107-4.344 3.44-10.41 8.33-14.573 4.97-4.224 11.57-5.745 19.658-4.504 5.23.78 9.477 3.463 12.636 7.927 5.07 7.186 7.384 18.817 6.84 34.61-.402 11.7-2.294 21.44-2.314 21.54l-.12.48zm-9.054-1.2h8.068a152.52 152.52 0 0 0 2.213-20.878c.362-10.67-.503-25.183-6.62-33.85-2.958-4.204-6.942-6.706-11.83-7.427-7.706-1.16-14.004.26-18.692 4.244-1.408 1.2-2.616 2.582-3.622 4.043 1.7-1.2 3.682-1.62 5.895-1.28 4.93.76 10.603 10.41 16.84 28.666 4.084 12 7.123 24 7.746 26.483z"/><path d="M66.66 235.047c-.322 0-.604-.26-.604-.6-.664-39.855-9.155-53.928-16.157-58.692-5.312-3.623-9.96-1.982-10-1.962-.322.12-.664-.04-.785-.36a.6.6 0 0 1 .362-.781c.22-.08 5.272-1.86 11.106 2.102 4.507 3.083 8.19 8.728 10.925 16.815 3.52 10.41 5.453 24.822 5.754 42.858 0 .34-.26.62-.604.62z"/></g><path d="M95.23 234.446H52.796v34.37H95.23v-34.37z" class="F"/><path d="M104.164 251.64c-2.697 1.16-5.916 1.02-8.914-.28-2.213-.96-4.306-2.542-5.996-4.704-2.334-3.003-3.903-7.106-3.903-12.21 0-12.37-9.9-20.138-13.963-3.763a45.92 45.92 0 0 0-.765 3.763v-.12c0-.04 0-.1.02-.16v-.08c.08-1.02.382-4.044 1.308-7.687.684-2.703 1.7-5.705 3.24-8.488.764-1.38 1.65-2.702 2.696-3.883 2.696-3.083 6.398-5.245 11.448-5.245 9.296 0 16.096 10.9 18.692 21.74 2.273 9.43 1.348 18.857-3.863 21.12z" class="B"/><g class="C"><path d="M100.2 253.022c-1.71 0-3.5-.38-5.19-1.12-2.394-1.04-4.547-2.722-6.237-4.884-2.636-3.383-4.024-7.747-4.024-12.57 0-5.645-2.495-12.01-6.217-12.45-2.696-.32-5.07 2.902-6.56 8.828-.302 1.24-.543 2.442-.765 3.723l-1.207-.1v-.12c0-.04 0-.14.02-.24v-.06c.08-1.12.403-4.124 1.328-7.787.825-3.243 1.93-6.146 3.3-8.628.865-1.54 1.77-2.863 2.777-3.984 3.16-3.623 7.163-5.444 11.91-5.444 9.658 0 16.64 11.15 19.275 22.2 1.167 4.865 1.49 9.65.885 13.472-.664 4.304-2.434 7.167-5.1 8.328-1.288.56-2.717.84-4.205.84zm-22.032-32.248c.18 0 .342.02.503.04 4.024.48 7.284 6.606 7.284 13.652 0 4.564 1.308 8.668 3.783 11.85 1.57 2.002 3.56 3.564 5.754 4.524 2.877 1.242 5.956 1.342 8.43.28 4.507-1.962 5.935-10.35 3.52-20.418-1.348-5.665-3.742-10.9-6.72-14.713-3.36-4.304-7.284-6.566-11.388-6.566-4.366 0-8.068 1.7-10.986 5.044-.946 1.08-1.81 2.302-2.616 3.784-1.006 1.84-1.87 3.903-2.575 6.185a13.11 13.11 0 0 1 1.046-1.501c1.428-1.742 2.877-2.162 3.964-2.162z"/><path d="M102 252.622c-.302 0-.563-.22-.604-.54-2.937-27.445-9.637-35.932-14.728-38.214-4.547-2.042-8.4.62-8.43.64-.262.2-.644.12-.845-.14s-.12-.64.14-.84c.18-.12 4.447-3.083 9.618-.76 3.42 1.54 6.398 5.024 8.833 10.4 3.058 6.706 5.272 16.395 6.6 28.786.04.32-.2.62-.543.66 0 .02-.02.02-.04.02zm-77.15-53.748c0 3.303-.382 15.934 11.73 16.515s13.32-17.616 13.32-17.616-5.956-16.094-12.535-17.736c-11.127-2.782-12.515 18.837-12.515 18.837zm60.5 35.572H70.622c3.4-21.2 14.728-13.232 14.728 0z"/></g><path opacity=".4" d="M335.466 78.748v132.137c0 7.106-5.795 12.852-12.917 12.852H170.54c-9.537 13.07-29.195 13.13-38.812 0l-.02-.02a12.89 12.89 0 0 1-9.376-5.065L300.235 65.897h22.314c7.122 0 12.917 5.765 12.917 12.85zM104.163 252.242c-2.676 1.2-5.915 1.02-8.913-.28v16.855H63.922L99.837 238l8.833-7.467c2.575 10.93 1.147 19.137-4.507 21.72z" class="B"/><path d="M370.938 341.18V452.6h-25.875l-40.08-111.42h65.955z" class="G"/><path d="M304.983 341.18h65.955v35.77L312.83 362.98l-7.847-21.8z" class="H"/><g class="B"><path d="M371.54 453.2h-26.9l-17.163-47.682 1.408.76c.04.02 3.38 1.802 10.18 2.683 6.278.82 16.9 1 31.73-2.743l.744-.18V453.2zm-26.055-1.2h24.848v-44.42c-14.688 3.624-25.23 3.403-31.528 2.583-4.568-.6-7.586-1.582-9.175-2.222l15.855 44.06z"/><use xlink:href="#E"/><use xlink:href="#E" x="14.005" y="9.429"/><path d="M366.47 417.126c-1.952 0-3.54-1.58-3.54-3.523s1.6-3.523 3.54-3.523a3.54 3.54 0 0 1 3.54 3.523 3.54 3.54 0 0 1-3.54 3.523zm0-5.845a2.33 2.33 0 0 0-2.334 2.322 2.334 2.334 0 1 0 4.668 0 2.33 2.33 0 0 0-2.334-2.322zm-4.124 27.285a3.54 3.54 0 0 1-3.541-3.523c0-1.942 1.6-3.523 3.54-3.523s3.542 1.58 3.542 3.523a3.54 3.54 0 0 1-3.542 3.523zm0-5.845a2.33 2.33 0 0 0-2.334 2.322 2.334 2.334 0 1 0 4.668 0 2.33 2.33 0 0 0-2.334-2.322z"/><use xlink:href="#F"/><use xlink:href="#E" x="7.725" y="31.088"/></g><path d="M383.17 473.377l-17.746 36.652c-2.515 5.906-8.33 9.75-14.79 9.75H328c-5.795 0-9.316-5.845-7.103-11.17L343.655 454a17.26 17.26 0 0 1 6.297-8.028c2.817-1.94 6.197-3.042 9.76-3.042 4.95 0 9.858 3.343 13.118 7.046l7.887 8.467c3.642 4.124 4.588 9.91 2.455 14.934z" class="D"/><path d="M383.17 473.377l-17.746 36.653c-2.515 5.905-8.33 9.748-14.79 9.748h-24.063c-2.234 0-3.5-1.38-4.246-3.283h5.352c6.46 0 12.274-3.843 14.79-9.748l20.462-42.458a11.54 11.54 0 0 1 10.382-6.506c5.774 0 10.16 4.204 10.966 9.53.08 2.04-.282 4.103-1.107 6.065z" class="B"/><path d="M350.636 520.38h-24.064c-2.233 0-3.863-1.24-4.808-3.664-.08-.18-.04-.4.06-.56a.63.63 0 0 1 .503-.26h5.352c6.217 0 11.81-3.684 14.225-9.39 0 0 0-.02.02-.02l20.462-42.457c2.012-4.164 6.298-6.846 10.926-6.846 5.815 0 10.684 4.223 11.57 10.05v.06c.08 2.16-.302 4.303-1.147 6.325 0 0 0 .02-.02.02l-17.746 36.633c-2.616 6.145-8.632 10.11-15.332 10.11zm-27.363-3.283c.764 1.42 1.83 2.082 3.3 2.082h24.064c6.217 0 11.81-3.684 14.225-9.39 0 0 0-.02.02-.02l17.746-36.632c.765-1.842 1.127-3.784 1.047-5.765-.805-5.205-5.15-8.988-10.362-8.988-4.165 0-8.028 2.422-9.84 6.165l-20.462 42.438c-2.616 6.145-8.632 10.11-15.332 10.11h-4.406z" class="D"/><path d="M379.086 456.68c-2.133-1.16-4.71-2-6.962-2-4.326 0-8.33 2.502-10.2 6.385l-21.187 43.96c-2.696 6.346-8.933 10.45-15.875 10.45h-3.903c-.2-.38-.342-.78-.483-1.2h4.386c6.46 0 12.254-3.823 14.77-9.728l.02-.02 21.207-43.98c2.072-4.304 6.498-7.066 11.287-7.066 1.53 0 3.36.5 4.93 1.04l2.013 2.162z" class="B"/><path d="M304.983 341.18l-5.05 65.638-2.253 29.406s-14.708 16.295-31.45 6.246L240.76 325.306c-4.788-22.04 10.342-43.48 32.816-46.46l31.408 62.335z" class="G"/><g class="B"><path d="M277.56 447.134c-3.602 0-7.565-.9-11.63-3.343l-.22-.14-8.008-37.673.966.3c19.054 5.685 40.904.04 41.126-.02l.825-.22-2.334 31.247-.14.16c-.16.16-3.823 4.184-9.638 7.027-2.917 1.4-6.7 2.662-10.945 2.662zm-10.785-4.244c6.68 3.924 13.803 4.084 21.167.5a34.51 34.51 0 0 0 9.155-6.626l2.173-29.166c-1.83.42-6.58 1.44-12.716 2.002-7.063.66-17.424.82-27.283-1.902l7.504 35.19z"/><use xlink:href="#F" x="-68.169" y="-7.667"/><use xlink:href="#E" x="-46.559" y="2.923"/><path d="M265.547 417.127c-1.952 0-3.54-1.58-3.54-3.523s1.59-3.523 3.54-3.523 3.54 1.58 3.54 3.523-1.59 3.523-3.54 3.523zm0-5.845a2.33 2.33 0 0 0-2.334 2.322 2.33 2.33 0 0 0 4.668 0 2.33 2.33 0 0 0-2.334-2.322z"/><use xlink:href="#F" x="-71.106" y="8.248"/><path d="M287.58 435.644c-1.952 0-3.54-1.58-3.54-3.523s1.59-3.523 3.54-3.523 3.54 1.58 3.54 3.523-1.6 3.523-3.54 3.523zm0-5.845a2.33 2.33 0 0 0-2.334 2.322 2.33 2.33 0 1 0 4.668 0 2.33 2.33 0 0 0-2.334-2.322z"/></g><path d="M317.076 443.23L297.68 520.4h-6.117c-.282 0-.543-.02-.825-.04-4.628-.42-8.53-4.304-9.517-8.888l-15-69.04c16.74 10.07 31.47-6.226 31.47-6.226l19.396 7.026z" class="D"/><path d="M318.062 482.826c4.084-21.46 5.21-37.854-1.83-39.175s-19.577 12.912-23.662 34.37-1.95 40.436 5.09 41.757c7.042 1.34 16.317-15.474 20.402-36.953z" class="B"/><path d="M298.464 520.46c-.3 0-.623-.02-.925-.08-3.662-.68-6.217-5.605-7.203-13.852-.946-7.947-.362-18.116 1.63-28.605 1.89-9.91 5.734-19.137 10.824-25.983 4.668-6.266 9.738-9.59 13.54-8.868 3.662.68 5.473 4.804 5.574 12.61.08 6.366-.986 15.273-3.26 27.264-1.6 8.448-4.044 16.395-7.042 22.98-2.958 6.505-6.197 11.07-9.356 13.21-1.288.86-2.555 1.32-3.783 1.32zm16.82-76.287c-3.22 0-7.545 3.163-11.51 8.487-5 6.706-8.752 15.754-10.623 25.483-1.972 10.39-2.556 20.418-1.63 28.245.905 7.567 3.18 12.23 6.237 12.81 1.167.22 2.455-.14 3.823-1.06 6.177-4.183 12.716-18.736 15.875-35.41 2.274-11.89 3.32-20.738 3.24-27.024-.08-7.046-1.63-10.9-4.587-11.45-.262-.06-.543-.08-.825-.08z" class="D"/><path d="M289.752 477.68c-2.113 11.13-2.736 21.88-1.73 30.287.724 6.045 2.253 10.35 4.346 12.43h-.805c-.282 0-.543-.02-.825-.04-1.89-2.483-3.24-6.646-3.924-12.25-1.026-8.508-.402-19.397 1.75-30.647 2.032-10.65 6.137-20.64 11.59-28.145 3.26-4.484 6.68-7.627 9.8-9.048l1.81.6c-7.183 2.122-18.09 16.215-22.012 36.813z" class="B"/><path d="M273.575 278.825l91.79-9.408 91.75 25.603-.785 12.13c-1.248 19.137-17.827 34.03-37.102 34.03H305.003l-31.428-62.356z" class="F"/><g class="B"><path d="M415.182 333.375H300.96a.601.601 0 1 1 0-1.201h114.223c8.732 0 17.887-4.584 25.13-12.6 6.86-7.607 10.966-17.115 10.966-25.422a.603.603 0 1 1 1.207 0c0 8.607-4.225 18.416-11.267 26.243-7.485 8.247-16.962 13-26.036 13zm-8.994-10H296.33a.601.601 0 1 1 0-1.201h109.857c7.626 0 15.513-3.563 22.173-10.05 6.257-6.085 10.643-13.932 12.032-21.54a.61.61 0 0 1 .704-.48.61.61 0 0 1 .483.7c-2.837 15.394-18.068 32.57-35.392 32.57zm-9.688-10.208H290.496a.601.601 0 1 1 0-1.201H396.5c14.487 0 27.062-12.97 31.55-25.162.12-.32.462-.48.764-.36.322.12.483.46.362.76-2.495 6.786-7 13.172-12.716 17.976-6.217 5.225-13.118 7.987-19.96 7.987zm-5.22-11H285.265a.601.601 0 1 1 0-1.201H391.28c9.98 0 20.442-6.466 27.323-16.855.18-.28.564-.36.845-.18a.61.61 0 0 1 .181.84c-7.122 10.73-17.967 17.396-28.35 17.396zm-5.03-10.01H280.235a.601.601 0 1 1 0-1.201H386.25c7.686 0 15.432-3.524 21.8-9.9.242-.24.624-.24.845 0 .242.24.242.62 0 .84-6.6 6.625-14.647 10.27-22.655 10.27zm-5.434-10.208H274.802a.601.601 0 1 1 0-1.201h106.014c4.527 0 9.074-1.28 13.54-3.783a.62.62 0 0 1 .825.22c.16.28.06.66-.22.82-4.648 2.622-9.417 3.943-14.145 3.943z"/><path d="M304.782 341.782c-.22 0-.443-.12-.543-.34l-31.408-62.355c-.14-.3-.02-.66.262-.8.3-.14.664-.02.804.26l31.408 62.355a.61.61 0 0 1-.261.801c-.08.06-.16.08-.262.08zm157.36-130.316c-8.65 2.442-17.162 1.72-18.068-.9-.845-2.502 2.978-6.786 10.724-9.63l1.187-.42a34.59 34.59 0 0 1 6.861-1.541c6.5-.82 11.8.34 12.455 2.302.905 2.622-4.004 7.606-13.16 10.2z"/></g><path d="M451.84 213.567c-4.386 0-7.706-.98-8.35-2.802-1.086-3.203 3.682-7.667 11.087-10.4l1.187-.42h.02c2.273-.76 4.627-1.28 6.982-1.56 6.66-.84 12.293.32 13.098 2.702.28.78.14 1.742-.383 2.742-1.7 3.203-6.86 6.446-13.178 8.228-3.642 1-7.324 1.5-10.463 1.5zm15.13-14.253a33.33 33.33 0 0 0-4.045.261c-2.273.28-4.547.78-6.74 1.52l-1.167.42c-3.5 1.282-6.478 2.983-8.37 4.805-1.59 1.52-2.334 3.042-1.992 4.063.664 1.942 8.41 3.023 17.324.52 4.93-1.38 10.684-4.284 12.434-7.627.362-.7.483-1.32.322-1.802-.362-1.06-3.22-2.162-7.766-2.162z" class="C"/><path d="M456.67 269.837h-3.32l-8.933-60.013c.422-2.662 4.607-6.425 11.99-8.868 3.682-1.22 7.344-1.76 10.463-1.82l13.54 36.933c6.036 16.394-6.177 33.77-23.742 33.77z" class="G"/><path d="M470.25 208.423c-2.113 1.32-4.85 2.542-8.108 3.463-7.485 2.102-15.07 1.24-17.505-.56v-.04l-.22-1.462c.422-2.662 4.607-6.425 11.99-8.868 3.682-1.22 7.344-1.76 10.463-1.82l3.38 9.288z" class="H"/><path d="M348.906 221.695l-10.563 26.143c-5.212 12.91-17.807 21.38-31.81 21.38h-141.99v-12.932a7.5 7.5 0 0 1 4.87-7.026L184 243.754c1.328-.5 2.716-.76 4.124-.76h16.56l93.72-9.408 16.176-36.853 34.326 24.963z" class="G"/><g class="H"><path d="M165.147 261.75a.59.59 0 0 1-.604-.6c0-2.623 1.6-4.925 4.065-5.866l11.006-4.143a.62.62 0 0 1 .784.34c.12.3-.04.66-.342.78l-11.006 4.143c-1.992.76-3.3 2.623-3.3 4.745a.59.59 0 0 1-.604.6z"/><path d="M165.147 268.356a.59.59 0 0 1-.604-.601c0-2.622 1.6-4.924 4.065-5.865l11.006-4.144a.62.62 0 0 1 .784.34c.12.3-.04.66-.342.78L169.05 263c-1.992.76-3.3 2.622-3.3 4.744a.59.59 0 0 1-.604.601zm3.683.86c-.24 0-.483-.16-.563-.4a.57.57 0 0 1 .362-.76l11.006-3.944c.322-.12.664.04.764.36a.57.57 0 0 1-.362.761l-11.006 3.944a.71.71 0 0 1-.2.04z"/></g><path d="M178.688 245.976s10.302-26.163 13.6-25.722-9.134 24.04-9.134 24.04l-4.467 1.68z" class="F"/><path d="M314.58 196.753l-2.374 5.385 30.402 35.13 6.298-15.574-34.326-24.942z" class="H"/><path d="M444.638 211.345l12.474 83.674-91.728-25.603-16.48-47.742-42.534-30.927 14.93-17.696c13.32-15.794 32.978-24.922 53.7-24.922h29.477c25.633 0 49.234 13.932 61.528 36.312l9.557 16.455s-2.877-4.204-18.4.02c-13.662 3.743-12.535 10.43-12.535 10.43z" class="C"/><path d="M348.905 221.894c-.04 0-.1 0-.14-.02-.322-.08-.524-.4-.443-.72l4.77-20.58a.6.6 0 0 1 .724-.44c.322.08.523.4.442.72l-4.768 20.58c-.06.28-.302.46-.584.46zm105.893 54.188a.62.62 0 0 1-.603-.5l-15.513-95.945a.6.6 0 0 1 1.187-.18l15.513 95.945a.58.58 0 0 1-.503.68h-.08zm2.112 19.538c-.06 0-.1 0-.16-.02l-91.547-25.984c-.322-.1-.503-.42-.423-.74a.62.62 0 0 1 .745-.421l91.547 25.984c.322.1.503.42.423.74a.62.62 0 0 1-.584.44z" class="B"/><g class="G"><path d="M370.314 134.757v13.452l23.863-.2v-23.74l-23.863 10.49z"/><path d="M396.108 120.124v.36c0 3.604-2.736 6.526-6.358 6.526h-1.408c-.906 3.563-8.954 7.727-14.668 7.727h-6.66c-7.283 0-12.857-6.506-11.67-13.672l.322-1.942-1.972-1.1c-1.126-.64-1.448-2.102-.664-3.143l4.266-5.605.926-5.524c.744-4.544 3.742-8.248 7.726-10.07 1.57 17.595 17.182 19.677 21.307 19.917h2.294c3.62 0 6.56 2.923 6.56 6.526z"/></g><path d="M385.545 122.446a.59.59 0 0 1-.604-.6c0-3.163 2.596-5.745 5.775-5.745a.6.6 0 1 1 0 1.201c-2.515 0-4.567 2.04-4.567 4.544a.59.59 0 0 1-.604.6zm-21.8-8.666c.566 0 1.026-1.058 1.026-2.362s-.46-2.362-1.026-2.362-1.027 1.057-1.027 2.362.46 2.362 1.027 2.362zm4.185-5.346a.6.6 0 0 1-.483-.24c-2.676-3.683-5.17-3.483-5.212-3.483-.342.04-.623-.2-.663-.54-.04-.32.2-.62.543-.66.12-.02 3.22-.26 6.297 3.963.202.26.14.64-.14.84a.55.55 0 0 1-.342.12zm19.335 5.166h2.294c3.622 0 6.56 2.922 6.56 6.525v.36c0 3.603-2.736 6.526-6.358 6.526l-1.55 1.08c-6.52 4.164-15.533 20.54-13.32 32.13 2.495 13.032 13.903 15.934 24.446 13.932s18.23-8.107 15.735-21.158c-.282-1.542-.745-3.083-1.328-4.605l.523.18c12.676 3.443 27.565 3.843 31.67-6.006s3.18-19.597-9.155-24.682c-7.162-2.962-16.9-2.942-24.446-.9 3.803-13.152-2.957-27.785-15.372-29.246-19.496-2.302-30.683 5.705-30.985 5.925-.02 2.322 1.57 18.797 21.287 19.938z" class="H"/><path d="M414.257 149.2c-.282 0-.543-.2-.583-.48-2.133-11.1-11.268-17.235-11.368-17.296-.16-.1-.262-.3-.262-.5s.1-.38.262-.5c6.237-4.384 8.933-10.7 9.98-14.073a.6.6 0 0 1 .745-.4c.322.1.503.44.402.74-1.046 3.403-3.702 9.65-9.758 14.213 2.273 1.702 9.295 7.667 11.187 17.576a.61.61 0 0 1-.483.7c-.04.02-.08.02-.12.02z" class="B"/><g class="F"><path d="M418.302 116.682h-5.332a.59.59 0 0 1-.604-.601v-5.305c0-3.102 2.535-5.625 5.654-5.625h.282c3.118 0 5.654 2.523 5.654 5.625v.28c.02 1.48-.564 2.902-1.63 3.963s-2.495 1.662-4.024 1.662zm-4.73-1.2h4.73a4.36 4.36 0 0 0 3.159-1.322c.825-.84 1.287-1.94 1.287-3.102v-.28c0-2.442-1.992-4.424-4.446-4.424h-.282c-2.455 0-4.447 1.982-4.447 4.424v4.705z"/><path d="M421.28 124.808c-2.153 0-4.225-1.04-5.453-2.962l-3.42-5.405c-.18-.28-.1-.66.18-.82l5.432-3.403a6.44 6.44 0 0 1 4.849-.82c1.67.38 3.1 1.38 4.024 2.822l.322.5c.926 1.44 1.208 3.162.825 4.824a6.42 6.42 0 0 1-2.837 4.003l-.503.32a6.72 6.72 0 0 1-3.42.94zm-7.525-8.507l3.098 4.904c1.53 2.402 4.77 3.123 7.224 1.602l.503-.32a5.06 5.06 0 0 0 2.293-3.242 5.18 5.18 0 0 0-.684-3.924l-.322-.5a5.09 5.09 0 0 0-3.259-2.282 5.25 5.25 0 0 0-3.944.68l-4.9 3.083zm-25.433 24.522c-.14 0-.282 0-.423-.02a5.64 5.64 0 0 1-3.863-1.942l-.18-.22a5.52 5.52 0 0 1-1.368-4.044 5.54 5.54 0 0 1 1.93-3.863l3.783-3.603c.12-.12.282-.18.443-.16a.57.57 0 0 1 .422.2l3.722 4.183c.986 1.14 1.5 2.603 1.37 4.104a5.6 5.6 0 0 1-1.952 3.844l-.242.18c-.985.86-2.273 1.34-3.64 1.34zm.28-12.4l-3.36 3.203c-.905.78-1.448 1.86-1.53 3.062a4.36 4.36 0 0 0 1.066 3.183s0 .02.02.02l.18.22c.764.88 1.83 1.422 3.018 1.522a4.53 4.53 0 0 0 3.239-1.061l.24-.2a4.42 4.42 0 0 0 1.53-3.003c.08-1.18-.302-2.322-1.067-3.223l-3.34-3.723z"/><path d="M396.028 138.62c-2.817 0-5.413-1.862-6.218-4.684l-1.7-6.146c-.08-.32.1-.64.423-.74l6.177-1.702a6.45 6.45 0 0 1 4.869.581 6.39 6.39 0 0 1 3.038 3.843l.16.58c.463 1.64.24 3.363-.584 4.844-.845 1.48-2.213 2.562-3.863 3.023l-.583.16c-.584.18-1.147.24-1.7.24zm-5.05-5.005c.785 2.743 3.662 4.384 6.42 3.624l.583-.16a5.19 5.19 0 0 0 3.139-2.442c.684-1.2.845-2.602.483-3.943l-.16-.58a5.17 5.17 0 0 0-2.455-3.122c-1.207-.68-2.615-.84-3.964-.48l-5.593 1.54 1.55 5.565z"/></g><g class="E"><path d="M300.436 520.38c-.04 0-.08 0-.12-.02a.59.59 0 0 1-.463-.72l35.05-163.205c.06-.32.382-.54.724-.46a.59.59 0 0 1 .463.72L301.02 519.9a.6.6 0 0 1-.583.48zm159.794 0a.6.6 0 0 1-.583-.48l-35.05-163.205a.63.63 0 0 1 .463-.721.63.63 0 0 1 .724.461l35.05 163.205c.06.32-.14.64-.463.72-.06.02-.1.02-.14.02z"/><path d="M451.982 484.147h-143.78a.59.59 0 1 1 0-1.201h143.78a.59.59 0 1 1 0 1.201z"/></g><path d="M452.766 356.574H307.88c-1.83 0-3.32-1.48-3.32-3.303v-8.787c0-1.822 1.49-3.303 3.32-3.303h144.886c1.83 0 3.32 1.48 3.32 3.303v8.787c0 1.822-1.49 3.303-3.32 3.303z" class="B"/><path d="M452.766 357.175H307.88c-2.173 0-3.923-1.742-3.923-3.904v-8.787c0-2.162 1.75-3.904 3.923-3.904h144.886c2.173 0 3.924 1.742 3.924 3.904v8.787c0 2.162-1.75 3.904-3.924 3.904zM307.88 341.78c-1.49 0-2.716 1.22-2.716 2.703v8.787c0 1.482 1.227 2.703 2.716 2.703h144.886c1.49 0 2.717-1.22 2.717-2.703v-8.787c0-1.482-1.228-2.703-2.717-2.703H307.88z" class="D"/><defs ><path id="B" d="M307.378 90.138h-27.344a.59.59 0 1 1 0-1.201h27.344a.59.59 0 1 1 0 1.201z"/><path id="C" d="M228.647 159.74a2.87 2.87 0 0 1-2.877-2.863 2.87 2.87 0 0 1 5.754 0 2.87 2.87 0 0 1-2.877 2.863zm0-4.524a1.66 1.66 0 1 0 0 3.323c.925 0 1.67-.74 1.67-1.662a1.66 1.66 0 0 0-1.67-1.661z"/><path id="D" d="M235.467 118.802c.556 0 1.006-.752 1.006-1.68s-.45-1.682-1.006-1.682-1.006.753-1.006 1.682.45 1.68 1.006 1.68z"/><path id="E" d="M342.045 418.167c-1.952 0-3.54-1.58-3.54-3.523s1.59-3.523 3.54-3.523 3.54 1.58 3.54 3.523-1.59 3.523-3.54 3.523zm0-5.845a2.33 2.33 0 0 0-2.334 2.322 2.33 2.33 0 1 0 4.668 0 2.33 2.33 0 0 0-2.334-2.322z"/><path id="F" d="M344.983 433.242a3.54 3.54 0 0 1-3.541-3.524c0-1.94 1.59-3.523 3.54-3.523s3.54 1.582 3.54 3.523a3.54 3.54 0 0 1-3.541 3.524zm0-5.846a2.33 2.33 0 0 0-2.334 2.322 2.33 2.33 0 1 0 4.668 0 2.33 2.33 0 0 0-2.334-2.322z"/></defs></svg>