<svg xmlns="http://www.w3.org/2000/svg" width="495" height="332" fill="none" xmlns:v="https://vecta.io/nano"><path d="M389.405 155.046l40.8-15.205 13.563 103.214 50.985 46.25-25.367 42.637-7.032-16.246c-106.24-27.145-72.95-160.65-72.95-160.65z" fill="#00f0b5"/><path opacity=".8" d="M391.573 249.946c5.178-25.473 19.06-43.71 35.373-43.71 4.373 0 8.57 1.315 12.473 3.724l4.35 33.092L464 261.406c.32 3.457.49 7.004.49 10.62 0 15.893-3.216 30.47-8.57 41.84-36.972-11.57-55.556-36.854-64.346-63.92z" fill="#424551"/><path d="M399.452 142.313s-7.605 124.22 13.875 183.033l-4.487 6.597h38.205l4.174-192.102-51.767 2.472z" fill="#00f0b5"/><path d="M412.15 46.205V62.35l19.984 4.915V40.02l-19.984-4.915v11.1z" fill="#d7dadd"/><g fill="#1e212c"><path d="M423.434 51.8c-.295 0-.534-.24-.534-.535s.24-.535.534-.535.535.24.535.535-.24.535-.535.535zm-8.2 0c-.296 0-.535-.24-.535-.535s.24-.535.535-.535.534.24.534.535-.24.535-.534.535z"/><path d="M418.055 46.204a.42.42 0 0 0-.421-.422h-4.126a.422.422 0 0 0 0 .844h3.705v7.82a.421.421 0 1 0 .842 0v-8.24zm6.805.001a.42.42 0 0 0-.421-.422h-4.125a.422.422 0 1 0 0 .844h4.125a.42.42 0 0 0 .421-.422z" fill-rule="evenodd"/></g><path d="M430.812 50.425v2.862c1.543 0 2.793-1.25 2.793-2.795l-.01-.254c-.156-1.736-2.782-1.555-2.782.188z" fill="#edeeef"/><path d="M433.602 50.07a.42.42 0 0 0-.421.422 2.38 2.38 0 0 1-2.372 2.373.422.422 0 0 0 0 .844c1.775 0 3.214-1.44 3.214-3.217a.42.42 0 0 0-.421-.422zm-11.34 3.155c-.233 0-.422.2-.422.422 0 1.33-1.076 2.407-2.405 2.407a.422.422 0 0 0 0 .844 3.25 3.25 0 0 0 3.248-3.251.42.42 0 0 0-.421-.422zm-10.526 9.02a.42.42 0 0 0 .308.51l19.984 4.915c.226.056.454-.083.5-.3s-.083-.455-.3-.5l-19.984-4.916a.42.42 0 0 0-.509.309zm5.483-7.895c-.055.226.083.455.3.5l1.804.444a.422.422 0 0 0 .201-.819l-1.805-.444a.42.42 0 0 0-.509.309z" fill="#1e212c" fill-rule="evenodd"/><path d="M451.22 96.172v43.67l-61.82 15.205V106.41a37.46 37.46 0 0 1 28.5-36.38h0c8.026-1.974 16.513-.147 23.017 4.956S451.22 87.9 451.22 96.172h0z" fill="#d7dadd"/><g fill="#1e212c" fill-rule="evenodd"><path d="M399.476 141.9a.42.42 0 0 0-.446.396l.42.026.42.025a.42.42 0 0 0-.394-.447zm-.026.422l.42.027-.005.088-.016.267-.06 1.05-.204 4.04-.568 14.868c-.377 12.56-.656 29.918-.265 49.112.784 38.408 4.254 84.102 14.967 113.435a.421.421 0 0 1-.79.29c-10.767-29.48-14.235-75.303-15.02-113.708-.392-19.212-.112-36.584.265-49.154l.57-14.883.204-4.046.08-1.42c0-.001 0-.001.42.025zm11.692-102.868c-.226.057-.362.287-.305.513.542 2.136 1.908 3.315 3.622 3.855 1.683.53 3.692.444 5.585.117 1.902-.328 3.733-.906 5.085-1.4l1.626-.64.07-.03c.296 2.97 1.016 4.816 1.704 5.942a5.56 5.56 0 0 0 .996 1.24 3.09 3.09 0 0 0 .337.268l.105.066.033.02v.006l.006.003h.001c.001 0 .001 0 .2-.377l-.188.377a.42.42 0 0 0 .565-.189c.103-.207.02-.458-.185-.564m-.004-.002h.002.002l-.066-.04a2.36 2.36 0 0 1-.245-.195c-.213-.192-.516-.522-.84-1.053-.648-1.062-1.387-2.94-1.634-6.158-.01-.138-.1-.262-.208-.332a.42.42 0 0 0-.391-.018l-.001.001-.007.003-.028.013-.114.05-.438.2-1.587.624c-1.325.484-3.104 1.045-4.938 1.36-1.843.318-3.696.38-5.2-.1-1.465-.462-2.595-1.435-3.058-3.258a.42.42 0 0 0-.511-.305m15.873 1.4z"/><path d="M434.165 36.685l-1.832 12.277c-.034.23.125.445.355.48a.42.42 0 0 0 .478-.355l1.884-12.628a.42.42 0 0 0-.28-.46l-.136.4.136-.4-.004-.001-.01-.004-.2-.07-.634-.203-2.303-.67c-1.93-.526-4.566-1.157-7.4-1.58s-5.846-.635-8.547-.315c-2.693.32-5.13 1.177-6.7 2.965a.45.45 0 0 0-.088.164l.405.114-.405-.114-.001.001v.001l-.001.004-.004.013-.01.046-.037.167-.094.607c-.058.515-.1 1.242.012 2.094.207 1.7.955 3.922 3.1 5.944a.421.421 0 1 0 .577-.614c-1.978-1.867-2.653-3.885-2.84-5.43a8.23 8.23 0 0 1-.011-1.898l.082-.534.018-.086c1.365-1.5 3.526-2.303 6.088-2.606 2.596-.308 5.54-.104 8.324.312s5.383 1.038 7.292 1.558l2.273.662.506.16zm2.948 35.843a.42.42 0 0 0 .214.557l.03-.068-.03.068h.001l.004.002.02.008.077.035.306.144 1.172.586 4.214 2.395a80.48 80.48 0 0 1 12.954 9.922c9.523 8.988 19.306 22.832 20.43 42.296.278 4.826-.718 8.837-2.665 12.128s-4.864 5.9-8.462 7.86c-7.207 3.946-17.115 5.36-27.286 4.827-10.165-.532-20.54-3.003-28.648-6.77-4.055-1.884-7.53-4.086-10.13-6.52s-4.303-5.083-4.86-7.86c-.025-.122-.102-.227-.2-.287h-.001l-.02-.01-.063-.035-.17-.096-.068-.038-.83-.486c-.674-.406-1.535-.95-2.295-1.503a12.59 12.59 0 0 1-1.017-.816c-.292-.266-.5-.497-.612-.682a.51.51 0 0 1-.084-.194c.025-.02.116-.084.387-.127.355-.057 1.576-.108 3.497-.15l7.42-.096 21.1-.063 29.734.063s.001 0 .002-.422l-.001.422c.166.001.318-.098.386-.25a.42.42 0 0 0-.073-.455l-16.6-18.348a.421.421 0 1 0-.624.566l15.95 17.64-8.265-.027-20.518-.032-21.108.063-7.43.096c-1.888.04-3.185.092-3.612.16-.416.067-.82.216-1.004.57-.197.37-.048.757.116 1.026.175.286.45.58.763.865s.694.586 1.088.874c.8.576 1.674 1.133 2.358 1.544l.845.496.163.092c.64 2.93 2.446 5.66 5.07 8.12 2.682 2.512 6.24 4.76 10.35 6.67 8.22 3.82 18.7 6.312 28.96 6.85 10.252.536 20.337-.88 27.734-4.93 3.704-2.028 6.743-4.722 8.783-8.17s3.067-7.63 2.78-12.607c-1.138-19.744-11.067-33.776-20.692-42.86-4.812-4.542-9.553-7.852-13.1-10.027-1.77-1.088-3.24-1.892-4.268-2.425-.514-.267-.918-.465-1.195-.598l-.316-.15-.083-.038-.026-.013h0l-.15.34.15-.34a.42.42 0 0 0-.556.214zm-34.508 5.335a.42.42 0 0 0-.592-.057l.268.325-.27-.325-.014.014-.042.035-.158.136-.596.534-2.152 2.1c-1.797 1.85-4.24 4.6-6.822 8.2-5.012 6.97-10.563 17.125-12.964 30.08l-.147-.27-1.938-3.506c-1.622-2.9-3.83-6.77-6.173-10.64s-4.82-7.746-6.988-10.66c-1.082-1.456-2.095-2.684-2.98-3.55-.442-.434-.862-.788-1.253-1.036-.382-.243-.778-.413-1.163-.413-.868 0-1.98-.042-3.184-.088l-.8-.03c-1.503-.055-3.092-.103-4.472-.07-1.357.03-2.584.14-3.32.43-.352.14-.743.38-.83.82s.172.835.504 1.168c1.33 1.332 3.36 2.174 5 2.68a23.29 23.29 0 0 0 2.126.544l.163.033c-.083.1-.173.237-.266.374-.388.576-.836 1.4-1.025 2.298-.2.92-.116 1.95.57 2.904.64.892 1.778 1.665 3.6 2.236l-.004.3.003 1.752c.02 1.506.084 3.654.27 6.226.37 5.142 1.22 11.988 3.14 18.787s4.915 13.576 9.602 18.556c4.7 4.995 11.1 8.162 19.724 7.727a.422.422 0 1 0-.042-.842c-8.374.422-14.527-2.637-19.07-7.464-4.556-4.84-7.505-11.477-9.405-18.206s-2.742-13.5-3.1-18.618c-.183-2.553-.248-4.685-.267-6.177l-.003-1.73.007-.455.003-.116.001-.028v-.01l-.42-.014.42.014c.006-.193-.12-.365-.304-.42-1.897-.55-2.928-1.282-3.452-2.013-.516-.72-.583-1.494-.428-2.24.157-.757.54-1.467.898-1.998.177-.263.344-.477.466-.624a5.25 5.25 0 0 1 .144-.167c.016-.02.03-.033.037-.042l.012-.012a.42.42 0 0 0-.245-.709l-.06.418.06-.418h-.003l-.01-.002-.04-.006-.166-.027a18.97 18.97 0 0 1-.618-.117 22.5 22.5 0 0 1-2.049-.524c-1.617-.498-3.48-1.3-4.66-2.472a1.28 1.28 0 0 1-.247-.317.33.33 0 0 1-.026-.072c0-.018.001-.02.004-.024s.016-.022.04-.042a.95.95 0 0 1 .272-.149c.575-.228 1.656-.34 3.03-.37 1.35-.03 2.917.015 4.42.07l.792.03 3.222.088c.15 0 .382.072.712.282.322.205.695.515 1.115.926.84.823 1.822 2 2.894 3.453 2.142 2.882 4.606 6.733 6.943 10.593s4.54 7.72 6.158 10.615l1.934 3.498.72 1.325c0 .001 0 .001.37-.2l-.37.2a.42.42 0 0 0 .786-.129c2.247-13.367 7.917-23.813 13.028-30.92 2.556-3.553 4.97-6.27 6.743-8.095.886-.913 1.613-1.603 2.116-2.064l.58-.52.15-.13.037-.03.01-.008.002-.002"/></g></svg>