<svg xmlns="http://www.w3.org/2000/svg" xmlns:xlink="http://www.w3.org/1999/xlink" width="495" height="332" fill="none" xmlns:v="https://vecta.io/nano"><path opacity=".6" d="M301.006 99.7v191.048c0 7.065-7.93 12.805-17.74 12.805H18.527c-9.785 0-17.753-5.74-17.753-12.805V99.7c0-7.065 7.968-12.805 17.753-12.805h264.74c9.824 0 17.74 5.74 17.74 12.805z" fill="#fff"/><path d="M283.18 304.192H18.44c-10.148 0-18.402-6.04-18.402-13.455V99.676c0-7.415 8.254-13.44 18.402-13.44h264.74c10.136 0 18.39 6.026 18.39 13.44v191.06c0 7.48-8.253 13.455-18.39 13.455zM18.44 87.533c-9.435 0-17.104 5.44-17.104 12.143v191.06c0 6.702 7.67 12.156 17.104 12.156h264.74c9.422 0 17.092-5.454 17.092-12.156V99.676c0-6.7-7.67-12.143-17.092-12.143H18.44z" fill="#787a80"/><path d="M300.833 99.7v10.052H.652V99.7c0-7.065 7.968-12.805 17.753-12.805h264.74c9.772 0 17.688 5.74 17.688 12.805z" fill="#d7dadd"/><path d="M300.83 110.4H.65a.65.65 0 0 1-.649-.65V99.676c0-7.415 8.254-13.44 18.402-13.44h264.74c10.136 0 18.39 6.026 18.39 13.44v10.064c.001.1-.018.18-.053.262s-.09.156-.155.217a.63.63 0 0 1-.228.137.64.64 0 0 1-.264.034zm-299.545-1.3h298.91v-9.415c0-6.7-7.67-12.143-17.09-12.143H18.363c-9.435 0-17.104 5.44-17.104 12.143l.026 9.415z" fill="#787a80"/><path d="M281.75 158.025H177.023V262.83H281.75V158.025z" fill="#d7dadd"/><path d="M145.022 160.637h-116.5v2.597h116.5v-2.597zm-39 7.765h-77.5V171h77.5v-2.598z" fill="#00f0b5"/><path d="M153.457 176.155H28.523v2.598h124.934v-2.598zm-15.12 7.765H28.523v2.597h109.815v-2.597zm-92.41 8.287h-16.52v1.3h16.52v-1.3zm13.973 0h-9.136v1.3H59.9v-1.3zm13.03 0h-8.825v1.3h8.825v-1.3z" fill="#9a9ca5"/><path d="M119.897 207.52H28.523v2.597h91.374v-2.597zm18.44 7.764H28.523v2.598h109.815v-2.598z" fill="#00f0b5"/><path d="M101.976 223.037H28.523v2.598h73.453v-2.598zm22.84 7.766H28.523v2.597h96.293v-2.597zM37.66 239.1h-8.254v1.3h8.254v-1.3zm22.232 0H41.88v1.3h18.013v-1.3zm10.183 0h-5.97v1.3h5.97v-1.3z" fill="#9a9ca5"/><path d="M130.695 254.4H28.523v2.598h102.172V254.4zm14.327 7.765h-116.5v2.598h116.5v-2.598z" fill="#00f0b5"/><path d="M108.296 269.92H28.523v2.597h79.773v-2.597zm-14.056 7.753H28.523v2.597H94.24v-2.597zm-43.356 8.297H29.406v1.3h21.478v-1.3zm17.638 0H56.375v1.3h12.147v-1.3z" fill="#9a9ca5"/><path d="M20.658 102.585c2.365 0 4.283-1.918 4.283-4.285s-1.917-4.286-4.283-4.286-4.283 1.92-4.283 4.286 1.917 4.285 4.283 4.285z" fill="#00f0b5"/><g fill="#fff"><use xlink:href="#B"/><use xlink:href="#B" x="12.872"/></g><path d="M319.41 194.233H212.852v79.103H319.41v-79.103z" fill="#f9f9f9"/><path d="M319.414 273.984H212.856a.65.65 0 0 1-.649-.649v-79.103a.65.65 0 0 1 .649-.649h106.558a.66.66 0 0 1 .648.649v79.103a.65.65 0 0 1-.19.459c-.12.122-.286.2-.458.2zm-105.91-1.298h105.26v-77.804h-105.26v77.804z" fill="#1e212c"/><path d="M224.263 258.413h-.13c-9.305-.298-11.86-9.168-11.887-9.26a.68.68 0 0 1-.018-.262c.012-.088.04-.172.084-.25a.68.68 0 0 1 .173-.197c.07-.054.15-.094.235-.117s.174-.03.26-.017.172.04.25.083a.68.68 0 0 1 .197.173c.054.07.094.15.117.235.1.338 2.35 8.04 10.68 8.312h.04c4.1 0 6.995-11 9.538-20.78 2.596-10.13 5.19-19.7 9.41-20.688a6.35 6.35 0 0 1 2.569-.174c.86.118 1.686.412 2.427.862 3.764 2.377 5.19 9.026 6.917 16.714.855 4.363 1.99 8.667 3.4 12.883 2.258 6.26 6.49 10.143 10.564 9.675 5.048-.584 8.864-7.65 10.174-18.908 3.75-32.104 14.885-35.623 19.466-35.65h.17c11.472 0 17.403 6.17 21.14 21.96a.65.65 0 0 1 .008.26.66.66 0 0 1-.092.243c-.094.15-.243.257-.415.296a.67.67 0 0 1-.798-.5c-3.62-15.26-9.007-20.96-19.882-20.96h-.156c-8.89 0-15.702 12.987-18.168 34.506-1.4 12.065-5.528 19.377-11.316 20.04-4.66.558-9.46-3.688-11.926-10.52-1.425-4.252-2.578-8.59-3.452-12.987-1.558-7.104-3.024-13.805-6.346-15.91-.597-.36-1.26-.59-1.95-.68a5.01 5.01 0 0 0-2.059.161c-3.478.818-6.113 10.883-8.436 19.753-2.998 11.155-5.7 21.7-10.784 21.7z" fill="#00f0b5"/><path d="M238.538 202.4h-14.885a.65.65 0 0 1-.649-.649.65.65 0 0 1 .649-.649h14.885a.65.65 0 0 1 .459.19c.12.122.2.287.2.46s-.073.334-.194.455-.284.2-.455.194h0zm0 6.2h-14.885a.65.65 0 0 1-.649-.649.65.65 0 0 1 .649-.649h14.885a.66.66 0 0 1 .455.193c.12.12.2.285.194.456s-.07.337-.2.46a.65.65 0 0 1-.459.19zm-7.448 6.1h-7.436a.65.65 0 0 1-.649-.649.62.62 0 0 1 .2-.46.65.65 0 0 1 .459-.191h7.436a.65.65 0 0 1 .649.65.63.63 0 0 1-.2.46.65.65 0 0 1-.459.19z" fill="#b3b7bc"/><defs ><path id="B" d="M33.536 102.585c2.365 0 4.283-1.918 4.283-4.285s-1.917-4.286-4.283-4.286-4.282 1.92-4.282 4.286 1.917 4.285 4.282 4.285z"/></defs></svg>