<svg xmlns="http://www.w3.org/2000/svg" width="390" height="505" fill="none" xmlns:v="https://vecta.io/nano"><style><![CDATA[.B{stroke-width:1.5}.C{stroke-linecap:round}.D{stroke-linejoin:round}.E{stroke:#1e212c}.F{fill:#e5e8ed}]]></style><g clip-path="url(#A)"><path d="M232.676 493.77V351.173l-38.8-36.478L189.652 505h51.85l-8.826-11.23z" fill="#d7dadd"/><path d="M222.72 222.02l-64.585-4.433L146.39 300.5V505h59.987l-6.343-11.39L222.72 222.02z" class="F"/><g fill="#1e212c"><path d="M192.59 372.994c13.58-2.15 26.98-5.32 40.087-9.485l-39.456-18.876-.63 28.36z"/><path d="M146.392 322.23v52.842c22.443 2.284 46.884-1.64 64.007-5.525l1.34-16.054-65.347-31.263z"/></g><path d="M206.378 505l-6.343-11.39 22.684-271.59" class="B C D E"/><path d="M148.63 159.354v64.02l90.512 22.29v-71.302c0-25.282-17.226-47.298-41.728-53.332h0c-11.75-2.894-24.177-.215-33.7 7.265s-15.085 18.932-15.085 31.057h0z" fill="#00f0b5"/><path d="M166.554 86.103v10.215c0 7.898 5.38 14.776 13.036 16.662l16.223 3.995V77.037l-13.49-3.322a12.71 12.71 0 0 0-10.894 2.349c-3.078 2.418-4.876 6.12-4.876 10.04h0z" class="F"/><path d="M166.554 96.318c0 7.9 5.38 14.777 13.036 16.662l16.223 3.996" class="B C D E"/><g fill="#1e212c"><path d="M183.083 94.3c.432 0 .782-.35.782-.784s-.35-.784-.782-.784-.782.35-.782.784.35.784.782.784zm-12.016 0c.433 0 .783-.35.783-.784s-.35-.784-.783-.784a.78.78 0 0 0-.782.784c0 .434.35.784.782.784z"/></g><g class="B C D E"><path d="M174.592 98.183v-12.08h-6.04m16.003 0h-6.04"/></g><path d="M193.886 92.293v4.195c2.258 0 4.09-1.835 4.09-4.098l-.017-.373c-.23-2.544-4.072-2.28-4.072.275z" class="F"/><g class="B C D E"><path d="M193.886 96.488c2.258 0 4.1-1.835 4.1-4.097m-20.082 7.205a2.7 2.7 0 0 0 1.914.794c.718 0 1.407-.285 1.915-.794m-7.123-1.403l2.642.65m-10.688-16.098s8.56-1.096 10.68-5.25c0 0 2.682 4.33 6.63 3.96 0 0 2.295 4.698 6.34 3.87 0 0-.314 4.4 3.682 5.343m-27.33-.001s-17.168-10.133-1.172-21.003 26.66-.737 26.66-.737 10.297 2.892 10.48 8.723c0 0 4.596 5.094 3.125 9.884 0 0 5.753 15.107-9.718 19.897"/></g><path d="M195.93 109.642a12.18 12.18 0 0 0 5.673-2.21" stroke="#00f0b5" class="B C D"/><path d="M195.813 113.235v13.52c-.05 5.063 3.578 9.413 8.56 10.264 1.875.29 3.74.008 5.23-1.4 4.872-4.606 2.482-15.568-1.747-18.24a7.49 7.49 0 0 0-4.321-7.277" class="B C D E"/><path d="M148.63 223.375L77.128 345.092s86.843 32.412 162.013 18.416V231.236" fill="#00f0b5"/><g class="B C D E"><path d="M77.128 345.094S163.97 377.506 239.14 363.5m-16.42-228.334s26 22.607 29.3 51.9c0 0 4.917-76.32 6.572-79.635s4.412 12.44 4.412 12.44 20.4 6.904 9.93 21.827c0 0 28.375 88.43-33.8 97.275m-72.6-112.708s-21.764 11.014-39.047 50.808c0 0-28.683-46.5-48.908-53.46s-24.27-7.78-25.005-6.637 10.296 9.25 10.296 9.25-5.516 17.222 11.4 20.586c0 0 2.607 73.74 34.766 84.058s61-32.056 61-32.056"/></g></g><defs><clipPath id="A"><path fill="#fff" d="M0 0h390v505H0z"/></clipPath></defs></svg>