<svg xmlns="http://www.w3.org/2000/svg" width="390" height="505" fill="none" xmlns:v="https://vecta.io/nano"><g fill="#787a80"><path d="M129.98 63.115L46.55 76.813c-.135.022-.273-.01-.384-.1s-.186-.2-.208-.336l-10.14-62.013c-.022-.135.01-.273.1-.384s.2-.186.335-.208L119.672.083c.134-.02.27.014.38.093a.52.52 0 0 1 .21.332l10.142 62.013a.52.52 0 0 1-.09.384c-.08.11-.2.186-.335.208zM46.892 75.712l82.413-13.53-9.974-60.995-82.414 13.532 9.975 60.995z"/><path d="M53.484 63.14l-.102.017c-7.323.962-10.462-5.663-10.494-5.73s-.045-.133-.047-.203.01-.14.034-.206.062-.126.1-.177.105-.093.17-.12a.53.53 0 0 1 .408-.014.53.53 0 0 1 .298.279c.114.253 2.87 6 9.428 5.143l.03-.005c3.21-.527 4.066-9.523 4.804-17.516.733-8.275 1.538-16.112 4.714-17.428a5.03 5.03 0 0 1 1.989-.467c.688-.018 1.372.106 2.01.364 3.25 1.38 5.222 6.41 7.56 12.214 1.228 3.31 2.67 6.538 4.314 9.663 2.57 4.617 6.38 7.117 9.51 6.227 3.878-1.107 5.96-7.136 5.542-16.132-1.18-25.65 7.087-29.84 10.67-30.45l.132-.022c8.983-1.475 14.417 2.6 19.368 14.5a.54.54 0 0 1 .039.203.52.52 0 0 1-.041.202c-.054.13-.157.232-.287.285s-.275.053-.404-.002-.232-.158-.285-.288C118.163 11.98 113.215 8.202 104.7 9.6l-.12.02c-6.96 1.143-10.63 12.2-9.802 29.387.45 9.64-1.844 15.9-6.29 17.164-3.576 1.037-7.88-1.675-10.686-6.714-1.66-3.15-3.12-6.402-4.368-9.737-2.13-5.37-4.137-10.434-7.008-11.656a3.99 3.99 0 0 0-3.206.108c-2.618 1.088-3.4 9.318-4.072 16.57-.917 9.13-1.69 17.747-5.66 18.4z"/></g><path d="M118.083 39.164l-11.655 1.914a.48.48 0 0 1-.383-.1.54.54 0 0 1-.208-.336.48.48 0 0 1 .1-.384.54.54 0 0 1 .335-.208l11.654-1.914a.48.48 0 0 1 .384.1.52.52 0 0 1 .118.72.52.52 0 0 1-.335.208zm.785 4.814l-11.654 1.913a.48.48 0 0 1-.384-.1.54.54 0 0 1-.208-.336.52.52 0 0 1 .425-.592L118.7 42.96a.48.48 0 0 1 .384.1.54.54 0 0 1 .208.336.52.52 0 0 1-.425.592zm-5.048 5.752l-5.822.956a.48.48 0 0 1-.384-.1.52.52 0 0 1-.118-.72.52.52 0 0 1 .335-.208l5.822-.956a.48.48 0 0 1 .384.1.54.54 0 0 1 .208.335.52.52 0 0 1-.425.592zM57.48 17.394l-11.654 1.913a.48.48 0 0 1-.384-.1.54.54 0 0 1-.208-.335.48.48 0 0 1 .1-.384.54.54 0 0 1 .335-.208l11.654-1.913a.48.48 0 0 1 .384.1.54.54 0 0 1 .208.335c.022.135-.014.272-.093.382s-.198.186-.33.2h0zm.798 4.866l-11.654 1.914a.48.48 0 0 1-.384-.1.54.54 0 0 1-.208-.335.48.48 0 0 1 .1-.384.54.54 0 0 1 .335-.208l11.654-1.913a.52.52 0 0 1 .38.093c.1.08.185.198.2.332s-.01.273-.1.384a.54.54 0 0 1-.335.208zm-5.05 5.732l-5.822.956a.48.48 0 0 1-.384-.1.54.54 0 0 1-.208-.335.48.48 0 0 1 .1-.384.54.54 0 0 1 .335-.208l5.822-.956a.48.48 0 0 1 .384.1.54.54 0 0 1 .208.336.48.48 0 0 1-.1.384.54.54 0 0 1-.335.208z" fill="#d7dadd"/></svg>