<svg xmlns="http://www.w3.org/2000/svg" width="390" height="505" fill="none" xmlns:v="https://vecta.io/nano"><path d="M252.058 28.565l-10.467-6.617 58.498-6.473-23.6 31.792-8.554-6.1-12.76 5.18-3.106-17.8zM255.26 40.6l.382-8.152-.096-.048L284.7 21.085l-29.966 9.16-1.434-.91 1.96 11.27zm-10.42-17.886l10.036 6.33 38.234-11.7-48.27 5.37zm52.476-5.37L257.84 32.64l18.4 13.14 21.077-28.435zM256.74 33.216l-.573 11.508 10.705-4.316-10.132-7.193z" fill="#9a9ca5"/><path d="M226.526 69.124c2.607 0 5.024-.522 7.015-1.9 2.7-1.852 4.17-4.417 4.787-7.124 1.99.38 4.17.237 6.54-.76 6.92-2.945 10.19-10.544 10.333-10.83l-.995-.428c-.048.095-3.223 7.504-9.717 10.26-2.133.902-4.124 1.045-5.925.712.474-3.277-.284-6.554-1.612-8.834-1.47-2.422-3.507-3.372-5.356-2.422-2 1.045-2.512 3.42-1.232 6.127 1.138 2.422 3.65 4.94 6.968 5.937-.57 2.47-1.896 4.797-4.314 6.46-8.58 5.89-26.875-5.32-27.065-5.414l-.57.902c.474.38 11.85 7.314 21.14 7.314zm6.446-20.613c1.47 0 2.607 1.662 2.94 2.28 1.232 2.042 1.896 5.034 1.47 7.98-2.94-.902-5.167-3.182-6.162-5.32-.806-1.662-.995-3.8.758-4.702.38-.2.71-.237.996-.237z" fill="#00f0b5"/></svg>