<?xml version="1.0" encoding="utf-8"?>
<!-- Generator: Adobe Illustrator 23.0.1, SVG Export Plug-In . SVG Version: 6.00 Build 0)  -->
<svg version="1.1" id="Layer_1" xmlns="http://www.w3.org/2000/svg" xmlns:xlink="http://www.w3.org/1999/xlink" x="0px" y="0px"
	 viewBox="0 0 120 64" style="enable-background:new 0 0 120 64;" xml:space="preserve">
<style type="text/css">
	.st0{fill:#1987C7;}
</style>
<path class="st0" d="M6.4,33.9C7,34.5,7,35.4,6.4,36l-0.5,0.5c-0.6,0.6-1.5,0.6-2.1,0l-3.4-3.4c-0.6-0.6-0.6-1.5,0-2.1L1,30.5
	c0.6-0.6,1.5-0.6,2.1,0L6.4,33.9z M6.1,27.4c-0.6-0.6-1.5-0.6-2.1,0L3.4,28c-0.6,0.6-0.6,1.5,0,2.1l3.4,3.4c0.6,0.6,1.5,0.6,2.1,0
	l0.5-0.5c0.6-0.6,0.6-1.5,0-2.1L6.1,27.4z M15.1,30.4c-0.6-0.6-1.5-0.6-2.1,0L12.4,31c-0.6,0.6-0.6,1.5,0,2.1l3.4,3.4
	c0.6,0.6,1.5,0.6,2.1,0l0.5-0.5c0.6-0.6,0.6-1.5,0-2.1L15.1,30.4z M18.1,27.4c-0.6-0.6-1.5-0.6-2.1,0l-0.5,0.5
	c-0.6,0.6-0.6,1.5,0,2.1l3.4,3.4c0.6,0.6,1.5,0.6,2.1,0l0.5-0.5c0.6-0.6,0.6-1.5,0-2.1L18.1,27.4z M12.5,24.1c0.6-0.6,0.6-1.5,0-2.1
	L12,21.4c-0.6-0.6-1.5-0.6-2.1,0l-3.4,3.4c-0.6,0.6-0.6,1.5,0,2.1L7,27.4c0.6,0.6,1.5,0.6,2.1,0L12.5,24.1z M15.5,27.1
	c0.6-0.6,0.6-1.5,0-2.1L15,24.4c-0.6-0.6-1.5-0.6-2.1,0l-3.4,3.4c-0.6,0.6-0.6,1.5,0,2.1l0.5,0.5c0.6,0.6,1.5,0.6,2.1,0L15.5,27.1z
	 M12.5,35.9c0.6-0.6,0.6-1.5,0-2.1L12,33.3c-0.6-0.6-1.5-0.6-2.1,0l-3.4,3.4c-0.6,0.6-0.6,1.5,0,2.1L7,39.3c0.6,0.6,1.5,0.6,2.1,0
	L12.5,35.9z M15.5,38.9c0.6-0.6,0.6-1.5,0-2.1L15,36.3c-0.6-0.6-1.5-0.6-2.1,0l-3.3,3.4c-0.6,0.6-0.6,1.5,0,2.1l0.5,0.5
	c0.6,0.6,1.5,0.6,2.1,0L15.5,38.9z M40.1,36c0.1,0.1,0.5,0.8,0.5,0.8c-0.2,1-0.9,2.5-0.9,2.5l-0.1,0.1c-2.5,1-6.4,1.8-10.5,0.1
	c-2.5-1-4.3-2.9-4.9-5.5c-0.7-2.6-0.2-5.5,1.4-7.7c1.8-2.4,4.6-3.7,8.5-4c1.5-0.1,4.5,0.3,6.1,1.3h0.1c0,0,0.1,4.1,0,4.3l-0.1,0.2
	l-1.2,0.1l-0.1-0.4c-0.2-1.2-0.7-4.3-5.2-4.1c-1.9,0.1-3.4,1-4.6,2.5c-1.4,1.9-1.8,4.3-1.2,7.2c0.6,2.7,2.7,4.4,4.3,5.1
	c0.7,0.2,2.8,0.7,4.3,0C38.2,37.8,39.5,36.7,40.1,36z M55.2,40.3V26.2c0-0.4,0-1.2-0.4-1.7c-0.1-0.1-0.7-0.6-0.7-0.6v-0.6l3.8-0.7
	l0.4,0.2v15.2c0.1,1.4,1,1.6,1,1.6v0.9L55.2,40.3z M72.1,39.4c-0.7-0.1-1-0.7-1-1.7v-9l-0.3-0.1l-3.8,0.7v0.6c0,0,0.7,0.5,0.7,0.6
	c0.4,0.5,0.4,1.3,0.4,1.7v5.3c-1.3,1-2.4,1.3-3.2,0.9c-0.6-0.3-1-1-1-2.1v-7.6l-0.3-0.1l-3.8,0.7v0.6c0,0,0.7,0.5,0.7,0.6
	c0.5,0.5,0.5,1.3,0.4,1.7v4.6c0,0.9,0.1,1.2,0.1,1.6c0.2,1,0.8,1.6,1.6,1.9c1.3,0.5,3.3,0,5.3-1.3v1.3h4.2v-0.8H72.1z M91.1,39.4
	c-0.7-0.1-1-0.7-1-1.7v-5.5c0-1.3-0.7-3.7-3.1-3.7c-1.9,0-3.1,1.1-3.7,1.7c-0.4-0.8-1.2-1.7-2.7-1.7c-1.2,0-2.2,0.4-3.3,1.3v-1.1
	l-0.4-0.2L73,29.2v0.6c0,0,0.7,0.5,0.7,0.6c0.4,0.5,0.4,1.3,0.4,1.7v8h4.2v-0.8l-0.2-0.1c-0.7-0.1-1-0.7-1-1.7v-6.4
	c0.7-0.6,1.5-0.7,2.2-0.7c0.6,0.1,1.3,0.5,1.3,2.8v6.9h4.1v-0.8l-0.2-0.1c-0.7-0.1-1-0.7-1-1.7V32c0-0.1,0-0.6-0.1-0.9
	c0.7-0.7,1.5-0.7,2.2-0.7c0.6,0.1,1.3,0.5,1.3,2.8v6.9h4.1V39.4L91.1,39.4z M53.9,34.4c0-1.7-0.6-3.3-1.6-4.3
	c-1.1-1.1-2.7-1.7-4.6-1.7c-3.6,0-6.3,2.6-6.3,6.1c0,3.7,2.5,6.1,6.3,6.1c1.8,0,3.4-0.6,4.6-1.7C53.3,37.6,53.9,36.1,53.9,34.4z
	 M47.6,39.1c-2.3,0-3-1.8-3-4.8c0-2.2,0.7-4.8,3-4.8c2.3,0,3,2.6,3,4.8C50.6,37.3,49.9,39.1,47.6,39.1z M105.2,24.8
	c0-0.8,0.7-1.6,1.6-1.6c0.8,0,1.6,0.7,1.6,1.6c0,0.9-0.7,1.6-1.6,1.6C105.9,26.4,105.2,25.6,105.2,24.8z M105.4,40.2v-8.1
	c0-0.4,0-1.2-0.5-1.7c-0.1-0.1-0.7-0.6-0.7-0.6v-0.6l3.8-0.7l0.4,0.2v9c0,1,0.4,1.6,1,1.7l0.2,0.1v0.8L105.4,40.2z M103.2,31.3
	c-0.8-1.4-1.9-2.3-3.1-2.6c-1.8-0.4-3.6,0.4-4.7,1v-7L95,22.4l-3.8,0.7v0.6c0,0,0.7,0.5,0.7,0.6c0.4,0.5,0.4,1.2,0.4,1.7v13.3
	l0.1,0.1c2.2,1.1,5,1.3,7.1,0.4c2.3-1,3.4-2.6,3.7-3.8C104.1,34.2,103.8,32.3,103.2,31.3z M100.1,37.6c-0.7,1.1-2,1.8-3.1,1.5
	c-1-0.3-1.6-1.4-1.6-3.1V31c0,0,0.1,0,0.1-0.1c0.7-0.3,1.9-1,3.4-0.1c0.8,0.4,1.5,1.3,1.8,2.3C101.1,34.6,100.9,36.1,100.1,37.6z
	 M119.9,39l-0.2-0.1c-0.1,0-0.4-0.4-0.4-1.1v-5.3c0-1.6-0.5-2.8-1.4-3.4c-0.8-0.6-1.9-0.7-3.3-0.2c-1.6,0.5-3.9,2.5-4.3,3l-0.1,0.1
	v0.1c0,0.1,0.2,0.4,0.3,0.5l0.1,0.1h2.6v-0.7c0-1,0.7-1.6,1.3-1.6c0.6-0.1,1-0.1,1.3,0.1c0.4,0.3,0.6,1,0.6,2.2v0.7l-5.5,2.4
	l-0.1,0.1v0.1c-0.5,1.5-0.4,2.7,0.3,3.5c1.1,1.3,3.9,1.4,7.9,0.5c0.3-0.1,1-0.1,1-0.1C119.9,39.7,119.9,39,119.9,39z M116.4,34.6
	v4.1c-0.9,0.6-1.8,0.7-2.5,0.2c-0.7-0.6-0.8-1.6-0.4-2.7L116.4,34.6z"/>
</svg>
