<?xml version="1.0" encoding="utf-8"?>
<!-- Generator: Adobe Illustrator 23.0.1, SVG Export Plug-In . SVG Version: 6.00 Build 0)  -->
<svg version="1.1" id="Layer_1" xmlns="http://www.w3.org/2000/svg" xmlns:xlink="http://www.w3.org/1999/xlink" x="0px" y="0px"
	 viewBox="0 0 120 64" style="enable-background:new 0 0 120 64;" xml:space="preserve">
<style type="text/css">
	.st0{fill:#A50716;}
</style>
<path class="st0" d="M71.7,49.7c-5.6,1.4-9.2,2.8-11.6,4.1c-7.5-3.4-15.8-5.2-23.6-5.2c-9.7,0-18.5,2.5-26,6.1L0,3h71.7V49.7z
	 M21.4,15.9H15v18.9h12.8v-4.5h-6.4V15.9z M38.9,31.9c-2.9,0-3.6-1.2-3.6-4.7h13c0-8.4-2-11.9-9.5-11.9c-8.1,0-10.3,2.8-10.3,10.1
	c0,7.1,3,10.5,9.9,10.5c6.8,0,9.3-2.5,9.5-6.4h-6C42,31.2,41.4,31.9,38.9,31.9z M35.3,23.5c0-2.8,0.6-4.4,3.3-4.4
	c2.7,0,3.3,1.2,3.3,4.4H35.3z M55.5,15.9h-7l7.2,18.9h7.9L71,15.9h-6.8l-4.4,12.4L55.5,15.9z"/>
<path class="st0" d="M71.7,3H120l-11.4,51.7c-7.5-4.3-14.3-6.1-24.1-6.1c-5.4,0-9,0.5-12.9,1.2V3z M72.8,15.9v19H79v-19H72.8z
	 M83.8,17.1L83.4,19c2-1.2,2.8-2.3,2.8-3.7c0-1.6-1.1-2.4-2.7-2.4S81,13.8,81,15.1C81,16.8,82.2,17.1,83.8,17.1z M92.6,28.9h-6.7
	c0.1,4.6,2.5,6.4,9.8,6.4c6.8,0,9.5-1.5,9.5-6.2c0-7.5-12.6-3.7-12.6-8.2c0-1.1,1.2-2,2.9-2c1.7,0,2.4,0.7,2.8,2.3h6.4
	c-0.1-4-2.4-5.8-8.8-5.8c-6.6,0-9.7,1.8-9.7,6c0,8.2,12.6,3.8,12.6,8.5c0,1.4-0.7,2.1-2.6,2.1C94.1,31.9,92.8,31,92.6,28.9z
	 M97.8,54.4c2,0,3.6,1.7,3.6,3.6c0,2-1.7,3.6-3.6,3.6c-2,0-3.6-1.6-3.6-3.6c0-1,0.4-1.9,1.1-2.6C95.9,54.8,96.8,54.4,97.8,54.4z
	 M100.8,58.1c0-1.7-1.3-3-3.1-3c-1.7,0-3.1,1.3-3.1,3s1.4,3.1,3.1,3.1c0.4,0,0.8-0.1,1.2-0.2c0.4-0.2,0.7-0.4,1-0.7
	c0.3-0.3,0.5-0.6,0.7-1S100.8,58.5,100.8,58.1z M96.5,59.9v-3.6h1c1,0,1.7,0.2,1.7,1.2c0,0.4-0.2,0.7-0.8,1.1l0.7,1.4h-0.7l-0.6-1.1
	h-0.6v1.1H96.5z M98.4,57.4c0-0.2-0.3-0.4-1.2-0.4v0.9C97.9,57.9,98.4,57.9,98.4,57.4z"/>
</svg>
