<?xml version="1.0" encoding="utf-8"?>
<!-- Generator: Adobe Illustrator 23.0.1, SVG Export Plug-In . SVG Version: 6.00 Build 0)  -->
<svg version="1.1" id="Layer_1" xmlns="http://www.w3.org/2000/svg" xmlns:xlink="http://www.w3.org/1999/xlink" x="0px" y="0px"
	 viewBox="0 0 120 64" style="enable-background:new 0 0 120 64;" xml:space="preserve">
<style type="text/css">
	.st0{fill:#B3B7BC;}
</style>
<path class="st0" d="M101.8,7.9c0,0-2.4-1.9-10.4-4.8C84.5,0.6,79.2,0,79.2,0l0,15.2c0,6.4-7.2,13.2-19.6,13.2h-0.4
	c-12.4,0-19.6-6.8-19.6-13.2l0-15.2c0,0-5.3,0.6-12.3,3.1C19.4,6.1,17,7.9,17,7.9c0.6,12.2,19.5,22.2,42.4,22.2h0
	C82.3,30.1,101.2,20.1,101.8,7.9"/>
<path class="st0" d="M101.8,42c0,0-2.4,1.9-10.4,4.8c-7,2.6-12.3,3.1-12.3,3.1l0-15.2c0-6.4-7.2-13.2-19.6-13.2l-0.2,0h0l-0.2,0
	c-12.4,0-19.6,6.8-19.6,13.2l0,15.2c0,0-5.3-0.6-12.3-3.1C19.5,43.9,17,42,17,42c0.6-12.2,19.5-22.2,42.4-22.2
	C82.3,19.8,101.2,29.9,101.8,42z M21.1,64c-1.9,0-2-1.5-2-2v-2.7c0-0.2,0-0.4,0.3-0.4h1c0.3,0,0.3,0.2,0.3,0.4v2.7
	c0,0.2,0,0.7,0.7,0.7h1.7c0.7,0,0.7-0.5,0.7-0.7v-2.7c0-0.2,0-0.4,0.3-0.4h1c0.4,0,0.3,0.2,0.3,0.4v2.7c0,0.6,0,2-2,2H21.1z
	 M30.4,63.6c-0.7-0.9-1.7-2.1-2.6-3.3v3.3c0,0.1,0,0.4-0.3,0.4h-0.9c-0.3,0-0.3-0.2-0.3-0.4v-4.4c0-0.2,0-0.4,0.3-0.4h1.8
	c0.5,0,1.2,1,1.7,1.7c0.4,0.5,1.1,1.3,1.5,1.9v-3.2c0-0.2,0-0.4,0.3-0.4h1c0.3,0,0.3,0.2,0.3,0.4V64h-1.9C30.9,64,30.7,64,30.4,63.6
	z M33.8,64v-5.1h4.5c0.3,0,2.1,0,2.1,1.9c0,2,0.2,3.2-2.1,3.2h-2.4l-0.5-1.1V64H33.8z M38.1,62.6c0.8,0,0.8-0.8,0.8-1.1
	c0-1.2-0.3-1.3-0.9-1.3h-2.6v2.4L38.1,62.6z M42.2,58.9h4.1c0.3,0,0.3,0.2,0.3,0.7c0,0.4,0.1,0.6-0.3,0.6H43c-0.1,0-0.4,0-0.4,0.3
	c0,0.3-0.1,0.4,0.3,0.4h2.9l0.5,0.9c0.1,0.1,0.1,0.2-0.2,0.2h-3l-0.5-0.9v1.3c0,0.3,0.3,0.3,0.4,0.3h3.4c0.3,0,0.3,0.2,0.3,0.6
	c0,0.4,0,0.6-0.3,0.6h-4.3c-0.4,0-1.1-0.1-1.1-1.2V60C41,59.7,41.2,58.9,42.2,58.9z M47.7,58.9h4.5c0.6,0,1.5,0,1.5,1.6
	c0,1.1-0.2,1.1-0.7,1.5c0.8,0.1,0.7,1.2,0.7,1.7c0,0.3-0.1,0.3-0.2,0.3h-1.3C52,64,52,63.5,52,63.3c0-0.6-0.3-0.6-0.5-0.6h-2
	c-0.2-0.3-0.6-1.1-0.6-1.1v2.1L48.8,64h-1.3l-0.1-0.2v-4.5C47.3,59,47.5,58.9,47.7,58.9z M51.4,60.2h-2c-0.3,0-0.3,0.1-0.3,0.2v0.9
	h2.1c1,0,1-0.3,1-0.5C52.1,60.3,52.1,60.2,51.4,60.2z M61.6,58.9c0.3,0,0.7,0.1,1,0.8c0.2,0.5,1.9,3.5,2.2,4.1V64h-1.7l-0.5-0.9
	h-2.1l-0.5-1c-0.1,0.2-0.8,1.5-1.1,1.9h-1.7v-0.1c0.4-0.7,2.7-5,2.7-5L61.6,58.9z M61,60.3l-0.8,1.5l0.1,0.1h1.6l0.1-0.1L61,60.3
	L61,60.3z M65.9,58.9h4.5c0.6,0,1.5,0,1.5,1.6c0,1.1-0.2,1.1-0.7,1.5c0.8,0.1,0.7,1.2,0.7,1.7c0,0.3-0.1,0.3-0.2,0.3h-1.3
	c-0.3,0-0.2-0.4-0.2-0.7c0-0.6-0.3-0.6-0.5-0.6h-2c-0.2-0.3-0.6-1.1-0.6-1.1v2.1L67,64h-1.3l-0.1-0.2v-4.5
	C65.5,59,65.7,58.9,65.9,58.9z M69.5,60.2h-2c-0.3,0-0.3,0.1-0.3,0.2v0.9h2.1c1,0,1-0.3,1-0.5C70.3,60.3,70.2,60.2,69.5,60.2z
	 M75.9,64c-0.3-0.6-1.3-2.4-1.9-3.5v3.2c0,0.1,0,0.4-0.3,0.4h-0.9c-0.3,0-0.3-0.2-0.3-0.4v-4.4c0-0.2,0-0.4,0.3-0.4h1.6
	c0.2,0,0.6-0.1,0.9,0.7c0.3,0.6,0.9,1.9,1.3,2.5c0.4-0.7,1-1.9,1.3-2.5c0.4-0.8,0.7-0.7,1-0.7h1.6c0.3,0,0.3,0.2,0.3,0.4v4.4
	c0,0.1,0,0.4-0.3,0.4h-0.9c-0.3,0-0.3-0.2-0.3-0.4v-3.2c-0.6,1.1-1.6,2.9-1.9,3.5H75.9z M82.8,64c-1.5,0-1.4-1.6-1.4-2.7
	c0-1-0.1-2.5,1.8-2.5h3.3c1.9,0,1.8,1.5,1.8,2.5c0,1.1,0.1,2.7-1.5,2.7H82.8z M85.8,62.7c0.8,0,0.7-0.8,0.7-1.3
	c0-0.5,0.1-1.2-0.9-1.2H84c-1,0-0.9,0.7-0.9,1.2c0,0.5,0,1.3,0.7,1.3H85.8z M90.8,64c-1.9,0-2-1.5-2-2v-2.7c0-0.2,0-0.4,0.3-0.4h1
	c0.3,0,0.3,0.2,0.3,0.4v2.7c0,0.2,0,0.7,0.7,0.7h1.7c0.7,0,0.7-0.5,0.7-0.7v-2.7c0-0.2,0-0.4,0.3-0.4h1c0.4,0,0.3,0.2,0.3,0.4v2.7
	c0,0.6,0,2-2,2H90.8z M96.3,58.9h4.5c0.6,0,1.5,0,1.5,1.6c0,1.1-0.2,1.1-0.7,1.5c0.8,0.1,0.7,1.2,0.7,1.7c0,0.3-0.1,0.3-0.2,0.3
	h-1.3c-0.3,0-0.2-0.4-0.2-0.7c0-0.6-0.4-0.6-0.5-0.6h-2c-0.2-0.3-0.6-1.1-0.6-1.1v2.1L97.3,64H96l-0.1-0.2v-4.5
	C95.9,59,96.1,58.9,96.3,58.9z M99.9,60.2h-2c-0.3,0-0.3,0.1-0.3,0.2v0.9h2.1c1,0,1-0.3,1-0.5C100.6,60.3,100.6,60.2,99.9,60.2z"/>
</svg>
