<?xml version="1.0" encoding="utf-8"?>
<!-- Generator: Adobe Illustrator 23.0.1, SVG Export Plug-In . SVG Version: 6.00 Build 0)  -->
<svg version="1.1" id="Layer_1" xmlns="http://www.w3.org/2000/svg" xmlns:xlink="http://www.w3.org/1999/xlink" x="0px" y="0px"
	 viewBox="0 0 120 64" style="enable-background:new 0 0 120 64;" xml:space="preserve">
<style type="text/css">
	.st0{fill-rule:evenodd;clip-rule:evenodd;}
</style>
<path class="st0" d="M12,0h10.1l5.6,38.6L33.2,0h69.3l-2.3,11.1H41.7l-8.9,50.7H22.7L12,0z"/>
<path class="st0" d="M104.3,47.5c0.3,6-3.1,15.2-10.7,15.2C84.9,62.6,83,51.8,83,47.3h7.1c0,2.6,2.2,5.2,3.8,5.2
	c1.6,0,3.3-2.1,3.3-3.4c0-1.4-0.5-3.4-3.1-5.2c-8.5-5.1-10.4-10.9-10.4-16c-0.3-6,2.6-14.9,10.1-14.9c7.5,0,9.6,10.5,9.6,14.9h-6.7
	c0-2.5-1.6-4.2-3.3-4.2c-1.6,0-2.7,1.6-2.7,3c0,1.4,0.3,2.6,2.9,4.4C97.1,32.7,104.3,38,104.3,47.5z M104.7,59.1
	c0.3,0,0.6,0.1,0.8,0.2c0.3,0.1,0.5,0.3,0.7,0.5c0.2,0.2,0.4,0.4,0.5,0.7s0.2,0.6,0.2,0.8c0,0.3-0.1,0.6-0.2,0.8
	c-0.1,0.3-0.3,0.5-0.5,0.7c-0.2,0.2-0.4,0.4-0.7,0.5c-0.3,0.1-0.6,0.2-0.8,0.2c-0.3,0-0.6-0.1-0.8-0.2c-0.3-0.1-0.5-0.3-0.7-0.5
	c-0.2-0.2-0.4-0.4-0.5-0.7c-0.1-0.3-0.2-0.6-0.2-0.8C102.5,60.1,103.5,59.1,104.7,59.1v-0.5c-1.5,0-2.7,1.2-2.7,2.7
	c0,0.4,0.1,0.7,0.2,1c0.1,0.3,0.3,0.6,0.6,0.9c0.3,0.3,0.6,0.5,0.9,0.6c0.3,0.1,0.7,0.2,1,0.2c1.5,0,2.7-1.2,2.7-2.7
	c0-0.7-0.3-1.4-0.8-1.9c-0.5-0.5-1.2-0.8-1.9-0.8V59.1z"/>
<path class="st0" d="M104.2,60.3h0.7c0.3,0,0.7,0,0.7,0.4c0,0.4-0.2,0.4-0.6,0.4h-0.9v0.4h0.6l0.6,1.2h0.7l-0.7-1.2
	c0.5,0,0.8-0.3,0.8-0.8c0-0.3-0.1-0.6-0.3-0.8c-0.2-0.1-0.5-0.1-0.8-0.1h-1.4v2.9h0.6L104.2,60.3L104.2,60.3z M45.2,45.4L48,27.6
	l2.7,17.8H45.2z M43.6,55.4h8.5l1.1,6.4h13.5V36.4l8.3,25.4h7V14.5h-7.1v24.1L67,14.5h-7.4V59l-7.7-44.5H44l-8.2,47.3h7L43.6,55.4z"
	/>
</svg>
