<?xml version="1.0" standalone="no"?>
<!DOCTYPE svg PUBLIC "-//W3C//DTD SVG 20010904//EN"
 "http://www.w3.org/TR/2001/REC-SVG-20010904/DTD/svg10.dtd">
<svg version="1.0" xmlns="http://www.w3.org/2000/svg"
 width="512.000000pt" height="512.000000pt" viewBox="0 0 512.000000 512.000000"
 preserveAspectRatio="xMidYMid meet">
<metadata>
Created by potrace 1.11, written by Peter Selinger 2001-2013
</metadata>
<g transform="translate(0.000000,512.000000) scale(0.100000,-0.100000)"
fill="#000000" stroke="none">
<path d="M490 4825 c-120 -32 -224 -116 -278 -226 -41 -85 -52 -140 -48 -241
7 -144 16 -161 258 -486 330 -444 406 -546 440 -592 18 -25 35 -47 38 -50 3
-3 17 -21 30 -40 23 -33 368 -498 393 -530 44 -56 67 -90 67 -100 0 -9 -23
-45 -63 -95 -13 -17 -283 -380 -510 -686 -9 -13 -62 -84 -116 -157 -55 -74
-107 -144 -115 -155 -9 -12 -92 -124 -185 -249 -94 -124 -179 -244 -190 -265
-51 -101 -62 -255 -27 -369 95 -303 495 -404 717 -180 22 23 120 145 217 273
300 393 714 933 756 988 13 17 41 53 62 80 21 28 58 77 84 110 25 33 84 110
130 170 146 191 176 229 208 263 58 62 85 136 89 239 4 138 -23 209 -136 359
-25 33 -47 61 -50 64 -5 4 -68 86 -103 135 -4 5 -18 24 -31 40 -27 33 -218
284 -318 415 -35 46 -70 91 -76 100 -20 24 -170 219 -190 247 -10 13 -25 33
-33 43 -8 10 -60 77 -115 150 -99 131 -245 321 -268 350 -7 8 -53 69 -102 134
-50 66 -107 136 -127 156 -100 98 -271 142 -408 105z"/>
<path d="M4392 4819 c-76 -26 -124 -54 -170 -101 -35 -35 -201 -248 -436 -558
-22 -30 -46 -61 -53 -70 -24 -29 -204 -265 -221 -288 -9 -13 -24 -32 -32 -42
-8 -10 -23 -29 -32 -42 -10 -13 -47 -61 -83 -108 -36 -47 -92 -119 -123 -160
-210 -275 -279 -366 -401 -523 -96 -124 -112 -149 -141 -217 -32 -76 -39 -207
-15 -281 18 -56 68 -144 90 -157 7 -4 146 -182 310 -397 164 -214 338 -442
387 -505 48 -63 203 -266 344 -450 141 -184 263 -344 272 -355 9 -11 37 -47
61 -80 57 -77 102 -118 171 -154 249 -130 545 1 621 274 32 117 15 263 -42
362 -13 23 -109 156 -212 295 -104 139 -240 323 -303 408 -63 85 -120 162
-127 170 -7 8 -50 67 -97 130 -131 179 -410 553 -424 570 -10 13 -9 20 3 41
14 21 91 126 114 154 5 5 80 107 167 225 88 118 163 220 168 225 4 6 39 53 77
105 62 84 161 218 182 245 5 6 33 44 63 85 30 41 58 80 63 85 8 10 105 140
142 191 11 15 47 62 80 106 129 171 155 231 161 364 3 99 -7 149 -48 234 -90
185 -323 284 -516 219z"/>
</g>
</svg>
