<svg width="390" height="338" viewBox="0 0 390 338" fill="none" xmlns="http://www.w3.org/2000/svg">
<rect x="72.2461" y="18.6914" width="72.0385" height="52.613" transform="rotate(-14.2175 72.2461 18.6914)" fill="white"/>
<path d="M78.0586 50.5093L77.9855 50.5283C72.7007 51.7244 69.9585 47.1101 69.9306 47.0627C69.9051 47.0181 69.8886 46.969 69.8822 46.9181C69.8757 46.8671 69.8794 46.8154 69.8929 46.7659C69.9064 46.7164 69.9296 46.67 69.9611 46.6294C69.9925 46.5889 70.0317 46.5549 70.0763 46.5295C70.1209 46.504 70.1701 46.4876 70.2211 46.4812C70.272 46.4747 70.3238 46.4784 70.3733 46.4919C70.4229 46.5055 70.4693 46.5286 70.5099 46.5601C70.5506 46.5915 70.5846 46.6307 70.61 46.6753C70.7108 46.8519 73.1133 50.8525 77.846 49.7845L77.868 49.7788C80.1778 49.1777 80.1929 42.5664 80.1899 36.6931C80.1647 30.615 80.2215 24.851 82.4522 23.6776C82.8886 23.424 83.3725 23.2625 83.8739 23.2031C84.3753 23.1437 84.8836 23.1877 85.3674 23.3323C87.8361 24.1173 89.6163 27.6481 91.7172 31.7194C92.8391 34.0482 94.1105 36.3022 95.5236 38.4672C97.7144 41.657 100.667 43.2209 102.894 42.3605C105.652 41.2918 106.763 36.7587 105.849 30.2335C103.248 11.6266 109.003 8.01477 111.579 7.32861L111.674 7.30388C118.136 5.62214 122.382 8.22244 126.806 16.557C126.829 16.6021 126.844 16.6514 126.848 16.702C126.853 16.7527 126.847 16.8037 126.832 16.8522C126.801 16.9502 126.733 17.0319 126.642 17.0795C126.55 17.127 126.444 17.1364 126.346 17.1056C126.248 17.0748 126.166 17.0063 126.119 16.9152C121.839 8.86306 117.969 6.44582 111.843 8.04005L111.755 8.06288C106.748 9.36604 104.817 17.6695 106.588 30.1347C107.57 37.1262 106.319 41.8436 103.156 43.0647C100.614 44.0617 97.2857 42.377 94.894 38.8962C93.4675 36.7138 92.1813 34.443 91.0431 32.0976C89.123 28.3303 87.3133 24.7761 85.1331 24.0797C84.7446 23.9651 84.3365 23.9322 83.9346 23.9831C83.5327 24.034 83.1458 24.1676 82.7982 24.3754C80.9594 25.3454 80.9531 31.3927 80.9469 36.7223C80.8962 43.4365 80.9166 49.7655 78.0586 50.5093Z" fill="#00F0B5"/>
<path d="M133.942 45.3176L73.9231 60.9384C73.8261 60.9637 73.7231 60.9494 73.6367 60.8987C73.5503 60.8481 73.4876 60.7652 73.4623 60.6683L61.8492 16.1758C61.824 16.0789 61.8382 15.976 61.8889 15.8897C61.9395 15.8033 62.0225 15.7407 62.1194 15.7154L122.138 0.09463C122.235 0.0714248 122.337 0.0866039 122.423 0.136963C122.509 0.187322 122.572 0.268948 122.599 0.364741L134.212 44.8573C134.237 44.9542 134.223 45.0571 134.172 45.1434C134.122 45.2297 134.039 45.2924 133.942 45.3176ZM74.0979 60.1129L133.386 44.6823L121.963 0.920215L62.6755 16.3508L74.0979 60.1129Z" fill="#787A80"/>
<path d="M123.626 28.672L115.242 30.8541C115.145 30.8793 115.042 30.8651 114.955 30.8144C114.869 30.7637 114.806 30.6809 114.781 30.584C114.756 30.4871 114.77 30.3842 114.82 30.2979C114.871 30.2115 114.954 30.1489 115.051 30.1236L123.435 27.9415C123.532 27.9163 123.635 27.9306 123.721 27.9813C123.808 28.0319 123.871 28.1148 123.896 28.2116C123.921 28.3085 123.907 28.4114 123.856 28.4978C123.806 28.5841 123.723 28.6468 123.626 28.672Z" fill="#D7DADD"/>
<path d="M124.526 32.129L116.142 34.3111C116.045 34.3363 115.942 34.3221 115.856 34.2714C115.769 34.2208 115.707 34.1379 115.681 34.041C115.656 33.9441 115.67 33.8412 115.721 33.7549C115.772 33.6686 115.854 33.6059 115.951 33.5807L124.335 31.3986C124.432 31.3734 124.535 31.3877 124.622 31.4383C124.708 31.489 124.771 31.5718 124.796 31.6687C124.822 31.7656 124.807 31.8685 124.757 31.9548C124.706 32.0412 124.623 32.1038 124.526 32.129Z" fill="#D7DADD"/>
<path d="M121.225 36.6624L117.037 37.7525C116.94 37.7778 116.837 37.7635 116.75 37.7128C116.664 37.6622 116.601 37.5793 116.576 37.4824C116.551 37.3856 116.565 37.2826 116.615 37.1963C116.666 37.11 116.749 37.0473 116.846 37.0221L121.034 35.932C121.131 35.9067 121.234 35.921 121.321 35.9717C121.407 36.0224 121.47 36.1052 121.495 36.2021C121.52 36.299 121.506 36.4019 121.455 36.4882C121.405 36.5745 121.322 36.6372 121.225 36.6624Z" fill="#D7DADD"/>
<path d="M77.8777 16.9103L69.4936 19.0924C69.3967 19.1176 69.2937 19.1033 69.2073 19.0527C69.1209 19.002 69.0581 18.9191 69.0328 18.8223C69.0075 18.7254 69.0218 18.6225 69.0725 18.5361C69.1231 18.4498 69.206 18.3871 69.303 18.3619L77.687 16.1798C77.784 16.1546 77.887 16.1689 77.9734 16.2195C78.0598 16.2702 78.1226 16.3531 78.1478 16.4499C78.1711 16.5467 78.1559 16.6487 78.1056 16.7345C78.0552 16.8204 77.9735 16.8833 77.8777 16.9103V16.9103Z" fill="#D7DADD"/>
<path d="M78.7898 20.4025L70.4057 22.5846C70.3088 22.6098 70.2058 22.5955 70.1194 22.5448C70.033 22.4942 69.9702 22.4113 69.9449 22.3145C69.9197 22.2176 69.9339 22.1147 69.9846 22.0283C70.0352 21.942 70.1182 21.8793 70.2151 21.8541L78.5991 19.672C78.696 19.6488 78.798 19.664 78.8839 19.7143C78.9698 19.7647 79.0329 19.8463 79.0599 19.9421C79.0852 20.039 79.0709 20.1419 79.0203 20.2282C78.9696 20.3146 78.8867 20.3773 78.7898 20.4025Z" fill="#D7DADD"/>
<path d="M75.4887 24.9222L71.3003 26.0123C71.2033 26.0375 71.1003 26.0232 71.0139 25.9726C70.9275 25.9219 70.8648 25.839 70.8395 25.7422C70.8142 25.6453 70.8284 25.5424 70.8791 25.4561C70.9298 25.3697 71.0127 25.3071 71.1096 25.2818L75.298 24.1917C75.395 24.1665 75.498 24.1808 75.5844 24.2315C75.6708 24.2821 75.7336 24.365 75.7588 24.4619C75.7841 24.5587 75.7699 24.6616 75.7192 24.748C75.6685 24.8343 75.5856 24.897 75.4887 24.9222Z" fill="#D7DADD"/>
</svg>
