<svg width="390" height="338" viewBox="0 0 390 338" fill="none" xmlns="http://www.w3.org/2000/svg">
<ellipse cx="362.59" cy="97.6816" rx="8.67439" ry="8.64449" fill="white"/>
<path d="M359.121 109.192L355.067 106.994L352.265 112.133L356.32 114.331L359.121 109.192Z" fill="#787A80"/>
<path d="M346.629 132.778C346.435 132.774 346.245 132.722 346.075 132.628L342.434 130.658C342.15 130.501 341.939 130.239 341.846 129.928C341.754 129.618 341.787 129.284 341.94 128.998L350.947 112.479C351.105 112.195 351.367 111.985 351.678 111.893C351.99 111.8 352.325 111.834 352.612 111.986L356.249 113.956C356.533 114.113 356.744 114.375 356.837 114.685C356.929 114.996 356.896 115.33 356.743 115.616L347.744 132.135C347.635 132.334 347.473 132.499 347.277 132.612C347.08 132.726 346.856 132.783 346.629 132.778ZM352.052 112.239C351.966 112.236 351.881 112.248 351.799 112.274C351.695 112.305 351.599 112.356 351.515 112.425C351.431 112.494 351.361 112.578 351.31 112.673L342.302 129.188C342.2 129.379 342.178 129.602 342.24 129.81C342.302 130.017 342.443 130.192 342.633 130.296L346.27 132.267C346.461 132.368 346.685 132.391 346.893 132.33C347.1 132.269 347.276 132.129 347.381 131.941L356.389 115.434C356.491 115.243 356.513 115.02 356.451 114.812C356.389 114.605 356.248 114.43 356.058 114.326L352.421 112.356C352.309 112.287 352.183 112.247 352.052 112.239Z" fill="#787A80"/>
<path d="M362.047 109.898C359 109.828 356.092 108.615 353.902 106.501C351.712 104.387 350.403 101.527 350.235 98.4918C350.067 95.4569 351.053 92.4705 352.996 90.1288C354.939 87.7871 357.696 86.2623 360.717 85.8588C363.738 85.4554 366.8 86.2029 369.293 87.9523C371.785 89.7016 373.524 92.324 374.163 95.296C374.802 98.2679 374.293 101.371 372.738 103.985C371.184 106.6 368.698 108.533 365.776 109.4C364.567 109.76 363.309 109.928 362.047 109.898ZM362.677 86.2429C361.456 86.2134 360.237 86.3741 359.064 86.7193C356.266 87.5493 353.885 89.4007 352.394 91.9042C350.904 94.4078 350.415 97.3794 351.024 100.227C351.634 103.074 353.297 105.587 355.682 107.266C358.067 108.945 360.999 109.665 363.894 109.284C366.788 108.902 369.431 107.447 371.297 105.208C373.163 102.968 374.114 100.11 373.961 97.2029C373.807 94.2955 372.561 91.5527 370.469 89.5213C368.378 87.49 365.596 86.3194 362.677 86.2429ZM362.121 106.869C360.697 106.832 359.303 106.46 358.052 105.781C356.105 104.728 354.613 102.999 353.859 100.921C353.105 98.844 353.142 96.5631 353.963 94.5111C354.783 92.4592 356.331 90.7788 358.311 89.7888C360.291 88.7988 362.567 88.5679 364.706 89.14C366.846 89.7121 368.701 91.0473 369.919 92.8924C371.137 94.7376 371.633 96.9643 371.315 99.1504C370.996 101.336 369.884 103.33 368.189 104.753C366.494 106.175 364.335 106.928 362.121 106.869ZM358.255 105.42C359.753 106.23 361.457 106.58 363.153 106.425C364.85 106.27 366.462 105.618 367.787 104.551C369.113 103.483 370.091 102.048 370.599 100.426C371.107 98.805 371.123 97.0698 370.643 95.4397C370.159 93.8093 369.202 92.3584 367.891 91.2706C366.581 90.1827 364.977 89.5066 363.281 89.3277C361.586 89.1488 359.875 89.4751 358.366 90.2654C356.856 91.0558 355.615 92.2746 354.8 93.768C353.713 95.7709 353.467 98.1217 354.115 100.306C354.762 102.489 356.251 104.328 358.255 105.42Z" fill="#787A80"/>
</svg>
