<svg xmlns="http://www.w3.org/2000/svg" width="1920" height="450" fill="none" xmlns:v="https://vecta.io/nano"><g clip-path="url(#A)"><g opacity=".4" stroke="#00f0b5"><path d="M1782.82 356.106c-30.08-14.873-49.6-31.546-58.7-49.98-9.08-18.402-7.8-38.65 3.9-60.806 23.54-44.507 47.65-83.05 72.33-115.637 24.6-32.482 63.56-53.66 117-63.482 53.34-9.806 106.62 5.317 159.87 45.455s76 84.582 68.5 133.356c-7.54 49.008-15.5 90.806-23.92 125.395-8.38 34.46-30 62.774-64.9 84.937-17.42 11.054-35.92 15.695-55.53 13.94-19.62-1.757-40.38-9.92-62.3-24.533-43.92-29.3-96-58.85-156.25-88.643z"/><path d="M1816.4 337.412c-24.42-12.08-40.26-25.61-47.64-40.55-7.37-14.908-6.35-31.312 3.14-49.272 19.1-36.117 38.66-67.392 58.68-93.83 19.95-26.335 51.56-43.504 94.92-51.455 43.28-7.935 86.52 4.35 129.76 36.94 43.23 32.587 61.7 68.644 55.64 108.188-6.1 39.778-12.56 73.702-19.37 101.774-6.8 27.943-24.3 50.9-52.64 68.867-14.12 8.956-29.12 12.712-45.03 11.28s-32.76-8.06-50.54-19.922c-35.68-23.804-78-47.8-126.92-72.02z"/><path d="M1837.06 325.965c-20.93-10.355-34.5-21.947-40.82-34.737-6.3-12.758-5.43-26.798 2.7-42.182 16.38-30.965 33.15-57.778 50.3-80.443 17.08-22.56 44.17-37.275 81.34-44.09 37.08-6.8 74.14 3.725 111.2 31.66s52.87 58.824 47.68 92.695c-5.23 34.105-10.77 63.2-16.6 87.257-5.8 23.938-20.83 43.607-45.1 59.004-12.1 7.672-24.94 10.887-38.56 9.662-13.63-1.226-28.06-6.902-43.3-17.07-30.6-20.413-66.88-40.997-108.84-61.755z"/></g></g><defs><clipPath id="A"><path fill="#fff" d="M0 0h1920v450H0z"/></clipPath></defs></svg>