<svg xmlns="http://www.w3.org/2000/svg" width="1920" height="440" fill="none" xmlns:v="https://vecta.io/nano"><g clip-path="url(#A)"><g opacity=".4" stroke="#00f0b5"><path d="M79.863 363.188c-13.99 24.188-29.194 39.023-45.585 44.642-16.365 5.6-34.026 2.07-53.032-10.758-38.167-25.76-71.1-51.285-98.8-76.575-27.615-25.212-44.863-61.478-51.706-108.855-6.83-47.287 8.136-91.493 44.97-132.644C-87.46 37.857-47.87 23.578-5.46 35.974c42.63 12.46 78.935 24.426 108.92 35.896 29.874 11.428 53.938 33.558 72.184 66.437 9.1 16.4 12.55 32.953 10.374 49.677-2.177 16.73-9.988 33.67-23.478 50.825-27.077 34.433-54.635 75.893-82.675 124.378z"/><path d="M64.606 331.875c-11.36 19.636-23.695 31.664-36.973 36.222-13.252 4.55-27.558 1.694-42.967-8.703-30.972-20.9-57.694-41.61-80.168-62.13-22.39-20.44-36.37-49.858-41.906-88.307-5.522-38.36 6.63-74.23 36.535-107.64 29.895-33.4 62.007-44.987 96.387-34.95 34.6 10.1 64.068 19.8 88.403 29.102 24.224 9.258 43.735 27.2 58.527 53.873 7.373 13.296 10.16 26.715 8.392 40.272-1.77 13.563-8.11 27.306-19.06 41.23-21.998 27.972-44.387 61.65-67.17 101.03z"/><path d="M55.267 312.624c-9.737 16.83-20.302 27.127-31.663 31.027-11.335 3.89-23.58 1.452-36.778-7.454-26.554-17.918-49.463-35.673-68.73-53.264-19.18-17.513-31.164-42.718-35.908-75.673-4.73-32.866 5.68-63.6 31.308-92.234 25.62-28.623 53.127-38.542 82.572-29.947 29.666 8.66 54.93 16.977 75.793 24.95 20.752 7.93 37.47 23.302 50.145 46.16 6.315 11.388 8.702 22.878 7.187 34.485-1.516 11.613-6.944 23.385-16.327 35.316-18.864 23.987-38.063 52.866-57.6 86.633z"/></g></g><defs><clipPath id="A"><path fill="#fff" d="M0 0h1920v440H0z"/></clipPath></defs></svg>