<svg xmlns="http://www.w3.org/2000/svg" width="600" height="440" fill="none" xmlns:v="https://vecta.io/nano"><style><![CDATA[.B{fill-rule:evenodd}.C{fill:#ffcf2d}.D{fill:#fe5244}.E{fill:#fff}.F{fill:#66b0f0}.G{fill:#9a3b82}.H{fill:#e57281}.I{fill:#73325a}.J{fill:#a0505a}.K{fill:#3fb1b5}]]></style><path d="M600 419.86H0l107.705-63.673h386.238L600 419.86z" fill="#d0f0e4"/><path d="M344.008 108.578H236.062V46.1a7.66 7.66 0 0 1 7.652-7.661h92.64a7.66 7.66 0 0 1 7.653 7.661v62.488z" class="E"/><g class="F"><path d="M243.714 38.91c-3.96 0-7.17 3.214-7.17 7.18v62.006h106.985V46.09c0-3.965-3.21-7.18-7.172-7.18h-92.642zm100.294 69.667h.48V46.09a8.14 8.14 0 0 0-8.132-8.142h-92.642a8.14 8.14 0 0 0-8.132 8.142v62.968h108.426v-.48z" class="B"/><path d="M335.86 104.507h-91.2c-2.4 0-4.354-1.955-4.354-4.36v-53.56c0-2.404 1.953-4.36 4.354-4.36h91.2c2.4 0 4.354 1.955 4.354 4.36v53.576c0 2.404-1.953 4.343-4.354 4.343zm27.07 18.735c4.13 2.692 3.17 7.965-1.713 7.965H214.163c-4.114 0-5.523-5.56-1.5-8.1l150.256.144z"/><path d="M212.535 122.617l150.657.222c2.198 1.434 3.112 3.61 2.732 5.49-.386 1.91-2.072 3.358-4.707 3.358H214.162c-2.3 0-3.866-1.576-4.27-3.48s.338-4.135 2.525-5.517l.118-.074zm.28.962c-1.756 1.17-2.297 2.95-1.983 4.43.32 1.513 1.526 2.718 3.33 2.718h147.055c2.247 0 3.483-1.19 3.765-2.588s-.356-3.16-2.198-4.416l-149.97-.144z" class="B"/></g><path d="M361.216 127.537H214.162c-2.626 0-3.666-3.093-1.49-4.44l23.42-14.52h107.61l19.2 14.664c1.92 1.46.8 4.295-1.697 4.295z" class="E"/><path d="M235.958 108.098h107.908l19.338 14.762c1.14.864 1.393 2.17.965 3.254-.425 1.076-1.508 1.905-2.952 1.905H214.162c-1.518 0-2.618-.905-3-2.043-.385-1.145-.026-2.49 1.26-3.286v-.001m0 0l23.537-14.59zm23.8-13.63l-23.305 14.45c-.892.55-1.1 1.424-.854 2.162.25.745.984 1.387 2.1 1.387h147.055c1.053 0 1.78-.6 2.06-1.297.276-.7.13-1.54-.652-2.134L343.54 109.06h-107.3z" class="B F"/><path d="M344.248 123.162H231.132c-2.017 0-2.818-2.388-1.153-3.413l16.265-11.17h84.525l14.776 11.283c1.49 1.122.624 3.3-1.297 3.3z" class="E"/><g class="B F"><path d="M246.095 108.098h84.836l14.902 11.38c.924.697 1.135 1.753.79 2.632-.344.87-1.22 1.534-2.374 1.534H231.132c-1.216 0-2.103-.73-2.413-1.65s-.026-2.01.998-2.648l16.378-11.248zm.298.96l-16.162 11.1c-.633.4-.778 1.006-.6 1.53.178.53.7.995 1.502.995h113.116c.766 0 1.283-.427 1.48-.926.194-.49.093-1.084-.472-1.51l-.002-.001-.001-.001-14.647-11.184h-84.213z"/><path d="M337.908 123.506l-14.792-14.585.674-.685 14.792 14.584-.674.686zm-9.628-.023L315.25 108.9l.716-.64 13.03 14.584-.716.64zm-9.08-.023l-11.303-14.584.76-.6 11.302 14.584-.758.6zm-9.964-.034l-9.557-14.584.803-.528 9.557 14.585-.803.527zm-11.758-.116l-4.66-14.585.915-.292 4.66 14.584-.915.293zm-59.496-.5l14.792-14.584.674.685-14.792 14.585-.674-.686zm9.585.022l13.03-14.584.716.64-13.03 14.584-.716-.64zm9.04.028l11.302-14.584.76.6-11.302 14.584-.76-.6zm9.92.03l9.557-14.585.803.528-9.557 14.584-.803-.527zm11.645.116l4.66-14.584.915.293-4.66 14.584-.915-.293zm10.208-14.438v14.76h-.96v-14.76h.96z"/><path d="M337.924 114.508H238.32v-.96h99.605v.96z"/></g><path d="M328.27 104.507h-80.987l1.456-10.337c.897-6.362 5.46-11.587 11.623-13.35l19.738-4.103h15.352l19.74 4.103a16.18 16.18 0 0 1 11.622 13.35l1.457 10.337z" class="C"/><g class="E"><path d="M293.244 88.53l-5.843-5.914c-.128-.128-.128-.337 0-.45.128-.128.336-.128.448 0l5.363 5.433 8.325-9.44c.112-.128.32-.144.448-.032s.144.32.032.45l-8.773 9.952z"/><path d="M282.4 88.53l-8.772-9.952c-.113-.128-.113-.337.032-.45.128-.112.336-.112.448.032l8.324 9.44 5.363-5.433a.31.31 0 1 1 .448.449L282.4 88.53zm5.514 3.87c-.77 0-1.393-.625-1.393-1.394s.624-1.394 1.393-1.394 1.392.625 1.392 1.394-.624 1.394-1.392 1.394zm0-2.148a.754.754 0 1 0 0 1.507.754.754 0 1 0 0-1.507z"/><path d="M287.914 100.244c-.77 0-1.393-.625-1.393-1.395s.624-1.394 1.393-1.394 1.392.625 1.392 1.394-.624 1.395-1.392 1.395zm0-2.148a.753.753 0 1 0 0 1.506.753.753 0 1 0 0-1.506zm-7.908 6.074h-26.158l-6.98-20.738 26.158-7.5 6.98 28.238z"/></g><path d="M273.256 75.53l7.158 28.96h-26.797l-7.16-21.274 26.8-7.684zm-25.978 8.116l6.8 20.202h25.52l-6.802-27.518-25.516 7.316z" class="B F"/><path d="M255.208 86.124h-.496a2.29 2.29 0 0 1-2.29-2.292v-7.196a.93.93 0 0 1 .929-.93h2.16a.93.93 0 0 1 .928.93v8.238c.016.69-.544 1.25-1.232 1.25z" class="E"/><path d="M253.35 76.028a.61.61 0 0 0-.609.609v7.196a1.97 1.97 0 0 0 1.969 1.971h.497c.513 0 .924-.417.912-.922v-8.245a.61.61 0 0 0-.608-.609h-2.16zm-1.25.61a1.25 1.25 0 0 1 1.249-1.25h2.16a1.25 1.25 0 0 1 1.248 1.25v8.234c.02.872-.7 1.574-1.552 1.574h-.497a2.61 2.61 0 0 1-2.609-2.612v-7.196z" class="B F"/><g class="E"><path d="M265.742 86.124h.496a2.29 2.29 0 0 0 2.289-2.292v-7.196a.93.93 0 0 0-.928-.93h-2.177a.93.93 0 0 0-.929.93v8.238a1.25 1.25 0 0 0 1.249 1.25zm-6.516.833h-1.153c-.896 0-1.616-.72-1.616-1.62V76.65a.93.93 0 0 1 .928-.929h2.16a.93.93 0 0 1 .929.929v9.055a1.25 1.25 0 0 1-1.249 1.25z"/><path d="M263.26 87.278h-.96c-1.01 0-1.825-.817-1.825-1.827v-8.814a.93.93 0 0 1 .928-.93h2.16a.93.93 0 0 1 .929.93v9.39a1.25 1.25 0 0 1-1.233 1.25z"/></g><g class="B F"><path d="M264.172 76.637a1.25 1.25 0 0 1 1.249-1.25h2.177a1.25 1.25 0 0 1 1.249 1.25v7.196a2.61 2.61 0 0 1-2.61 2.612h-.496a1.57 1.57 0 0 1-1.569-1.571v-8.238zm1.25-.6a.61.61 0 0 0-.608.609v8.238a.93.93 0 0 0 .928.93h.496a1.97 1.97 0 0 0 1.969-1.971v-7.196a.61.61 0 0 0-.608-.609h-2.177zm-8.037.016a.61.61 0 0 0-.608.609v8.686c0 .72.577 1.298 1.296 1.298h1.153a.93.93 0 0 0 .928-.929v-9.055a.61.61 0 0 0-.608-.609h-2.16zm-1.25.6a1.25 1.25 0 0 1 1.249-1.25h2.16a1.25 1.25 0 0 1 1.249 1.25v9.055a1.57 1.57 0 0 1-1.569 1.571h-1.153c-1.073 0-1.937-.865-1.937-1.94v-8.686z"/><path d="M261.403 76.028a.61.61 0 0 0-.608.609v8.815c0 .833.673 1.506 1.505 1.506h.96c.493 0 .913-.415.913-.93v-9.392a.61.61 0 0 0-.608-.609h-2.162zm-1.248.61a1.25 1.25 0 0 1 1.248-1.25h2.162a1.25 1.25 0 0 1 1.248 1.25v9.392a1.57 1.57 0 0 1-1.553 1.571h-.96c-1.185 0-2.145-.96-2.145-2.147v-8.815z"/></g><path d="M295.47 67.293v11.7c0 2.02-3.442 3.67-7.684 3.67s-7.684-1.65-7.684-3.67v-11.7h15.368z" class="E"/><path d="M295.468 67.293c0 8.83-5.65 11.46-11.078 10.994h-.048c-2.4-.224-4.226-2.276-4.226-4.68V67.31h15.352v-.016z" class="F"/><path d="M299.04 64.28v.593c0 1.314-1.056 2.372-2.37 2.372h-1.217l.016.272c0 3.782-3.057 6.843-6.835 6.843h-1.68c-3.778 0-6.836-3.06-6.836-6.843l.016-.272h-1.216c-1.313 0-2.37-1.058-2.37-2.372v-.593c0-1.314 1.057-2.372 2.37-2.372h1.552l.177-2.9c0-.45.064-.882.192-1.282 4.578 1.138 9.94-1.81 11.382-2.693 1.6.61 2.737 2.148 2.737 3.96l.176 2.9h1.553c1.297.016 2.353 1.074 2.353 2.388z" class="E"/><path d="M296.782 61.908h-1.665l-.176-2.9c0-1.81-1.136-3.35-2.737-3.958-1.44.865-6.804 3.814-11.382 2.692-.128.4-.192.833-.192 1.282l-.177 2.9h-1.04s-2.13-10.32-.032-12.212c1.553-1.394 15.768 1.65 17.337 3.814.88 1.234.064 8.382.064 8.382z" class="H"/><g class="F"><path d="M292.78 61.283a.23.23 0 0 1-.16-.064c-.016-.016-1.057-.865-2.722-.865-.128 0-.24-.112-.24-.24s.112-.24.24-.24c1.84 0 2.978.93 3.026.978a.25.25 0 0 1 .032.336c-.032.064-.112.096-.176.096zm-6.084 4.967c-.032 0-.064 0-.08-.016-.128-.048-.192-.192-.144-.305.45-1.186.336-2.677-.288-4-.368-.8-.896-1.378-1.36-1.54-1.024-.353-2.465.144-2.48.144-.128.048-.256-.016-.304-.144s.016-.256.144-.304c.064-.016 1.6-.545 2.786-.144.592.208 1.2.865 1.632 1.795.673 1.426.785 3.06.305 4.375-.016.064-.113.128-.2.128zm3.154 2.55c.016.128-.096.24-.224.256h-.016c-.128 0-.224-.096-.24-.224-.016-.16-.048-.32-.096-.465-.7.337-1.313.45-1.825.45-1 0-1.617-.417-1.65-.45-.112-.08-.128-.224-.064-.336.08-.112.224-.128.336-.064.032.016.544.37 1.377.37.448 0 .992-.096 1.616-.4-.096-.16-.192-.256-.192-.256-.096-.096-.08-.256.016-.337s.257-.08.337.016c.032.048.576.657.624 1.442zm.865-4.58c.22-.014.377-.383.35-.825s-.23-.8-.45-.775-.377.383-.35.825.228.8.45.775zm-6.535-.066c.203-.013.347-.352.322-.76s-.2-.726-.413-.713-.347.352-.322.76.2.726.413.713zm-4.48.894c-.128 0-.24-.112-.24-.24a1.27 1.27 0 0 0-1.265-1.266c-.128 0-.24-.112-.24-.24s.112-.24.24-.24a1.75 1.75 0 0 1 1.745 1.747c0 .144-.112.24-.24.24zm16.106 0c-.13 0-.24-.112-.24-.24a1.75 1.75 0 0 1 1.745-1.747c.128 0 .24.112.24.24s-.112.24-.24.24a1.27 1.27 0 0 0-1.264 1.266c0 .144-.096.24-.24.24z"/><path d="M79.87 192.905c1.388-4.805 5.77-8.104 10.755-8.104h416.142c4.933 0 9.298 3.23 10.72 7.954h0m-436.696.417L15.366 419.995l-.923-.267L79.87 192.905m.923.267a10.23 10.23 0 0 1 9.832-7.4h416.142c4.512 0 8.502 2.956 9.8 7.27h0L585.133 420l.92-.278-68.564-226.967m-130.85-83.695H204.62v-.96h182.017v.96z" class="B"/></g><path d="M267.79 143.068h43v36.973h-43v-36.973z" class="C"/><path d="M428.58 314.856l-19.995-49.842h32.193l-12.198 49.842zm-54.86-116.37c4.3-8.125 12.727-13.206 21.9-13.206h24.765l16.825 13.206h-63.5z" class="G"/><path d="M467.61 256.84h-62.385l23.485 57.07c-1.633-2.66-11.414.112-21.772 6.475-10.23 6.282-17.145 13.847-15.736 16.603l-50.62-88.178c-13.127-22.244 2.88-50.323 28.687-50.323H509.07l.305.962c9.124 28.367-12.007 57.39-41.767 57.39z" class="K"/><path d="M511.49 214.85a43.38 43.38 0 0 1-3.33 14.905l-73.32-31.252h72.775l1.697 4.968c1.184 2.98 1.84 7.164 2.177 11.38z" fill="#e6e6e6"/><path d="M428.725 313.908c1.633 2.66-5.507 9.92-15.85 16.283-10.357 6.363-19.98 9.552-21.61 6.89s5.33-10.176 15.688-16.54c10.342-6.362 20.123-9.295 21.772-6.635z" class="F"/><g class="B E"><path d="M475.53 202.55a.48.48 0 0 1 .569.372c2.528 11.998-6.616 23.29-18.864 23.29h-88.67c-6.947 0-11.312 7.488-7.922 13.547l45.528 80.58a.48.48 0 1 1-.836.474l-45.53-80.583c-3.75-6.698 1.075-14.98 8.76-14.98h88.67c11.638 0 20.327-10.73 17.924-22.13-.054-.26.112-.515.37-.57z"/><path d="M421.887 313.54c-3.7.923-8.645 3.187-14.693 6.714-5.357 3.127-9.78 6.787-12.65 9.98-1.438 1.6-2.472 3.064-3.046 4.272-.286.604-.45 1.125-.498 1.554s.015.733.146.946a.48.48 0 1 1-.818.504c-.277-.452-.35-.992-.283-1.56s.272-1.194.586-1.856c.628-1.324 1.728-2.867 3.2-4.503 2.947-3.276 7.45-6.997 12.882-10.168h0c6.07-3.54 11.11-5.86 14.944-6.816 1.916-.478 3.568-.625 4.914-.39 1.362.24 2.422.875 3.09 1.95a.48.48 0 1 1-.815.509c-.5-.8-1.296-1.31-2.442-1.51-1.16-.203-2.665-.087-4.516.375z"/><path d="M399.675 243.334a.48.48 0 0 1 .629.258l29.744 70.997a.48.48 0 1 1-.886.372l-29.744-70.997c-.102-.245.013-.527.257-.63zm40.415-44.896h-72.567v-.96H440.1v.96z"/></g><path d="M408.57 340.752l-4.322-5.897-5.955-8.1c2.433-2.05 5.363-4.183 8.645-6.202 6.53-4.007 12.822-6.667 17-7.404l2.897 5.785 3.618 7.212c-2.56 9.12-21.884 14.616-21.884 14.616z" class="H"/><path d="M426.85 318.924c-2.7 3.286-7.748 7.436-13.976 11.267-2.993 1.843-5.923 3.413-8.612 4.664l-5.955-8.1c2.433-2.05 5.362-4.183 8.644-6.202 6.532-4.007 12.823-6.667 17-7.404l2.898 5.785z" class="G"/><path d="M450.24 357.918l-43.928 31.588c-3.73 2.596-9.525 4.76-8.756-4.632 1.072-12.95 3.938-32.213 11.014-44.137.304-.08 19.322-5.577 21.883-14.616l20.027 14.248c5.763 4.487 5.635 13.237-.24 17.55z" class="E"/><g class="B C"><path d="M430.177 325.334l20.598 14.654c6.014 4.684 5.88 13.817-.25 18.317l-.002.001-43.936 31.594c-.95.663-2.046 1.305-3.146 1.744-1.092.436-2.24.7-3.273.515-1.07-.182-1.97-.817-2.53-2.034-.543-1.186-.756-2.908-.56-5.29h0c.537-6.49 1.524-14.564 3.265-22.516 1.74-7.946 4.238-15.8 7.814-21.827l.1-.17.2-.05.02-.006c.012-.003.03-.008.05-.015.044-.012.104-.03.182-.053l.647-.2c.55-.174 1.32-.43 2.248-.76 1.854-.663 4.323-1.634 6.858-2.88s5.128-2.766 7.236-4.52 3.7-3.72 4.302-5.848l.186-.655zm.53 1.557c-.79 2.132-2.418 4.032-4.404 5.685-2.188 1.82-4.852 3.377-7.427 4.644a68.81 68.81 0 0 1-9.99 3.926c-3.45 5.876-5.89 13.546-7.606 21.377-1.73 7.898-2.71 15.93-3.246 22.4-.19 2.313.034 3.843.478 4.81.43.937 1.067 1.36 1.815 1.487.784.133 1.738-.053 2.757-.46 1.01-.403 2.038-1.003 2.95-1.638l43.92-31.584c5.615-4.122 5.74-12.482.237-16.775l-19.486-13.863z"/><path d="M432.793 327.436a.48.48 0 0 1 .331.594c-.793 2.796-2.654 5.313-5 7.497s-5.24 4.063-8.124 5.575-5.783 2.666-8.187 3.402c-1.2.368-2.286.634-3.187.786-.886.15-1.644.2-2.17.1a.48.48 0 0 1 .178-.945c.348.066.965.043 1.83-.104.85-.144 1.893-.398 3.066-.757 2.347-.72 5.19-1.85 8.022-3.335s5.638-3.316 7.917-5.43 4.01-4.488 4.74-7.053a.48.48 0 0 1 .593-.332z"/></g><path d="M401.814 386.253s28.67-39.874 49.066-37.63c22.204 2.42-67.22 60.884-49.066 37.63z" class="C"/><path d="M400.06 385.347l-.4-.282.4.282-.006.007-.005.007c-1.568 2.01-1.694 3.52-1.32 4.452.375.94 1.315 1.452 2.24 1.392a.48.48 0 1 1 .062.959c-1.3.084-2.65-.63-3.194-1.994-.548-1.37-.227-3.24 1.45-5.394h.001l.017-.023.065-.1.256-.348.987-1.313 3.68-4.665c3.136-3.848 7.54-8.957 12.615-13.995s10.822-10.013 16.65-13.587c5.818-3.568 11.78-5.778 17.247-5.176 1.772.19 3.012 1.02 3.69 2.17.67 1.136.755 2.53.332 3.798a.48.48 0 1 1-.911-.304c.346-1.04.263-2.14-.248-3.006-.504-.855-1.457-1.54-2.966-1.7h-.001c-5.154-.568-10.89 1.513-16.64 5.04-5.74 3.52-11.433 8.44-16.477 13.45s-9.425 10.09-12.547 13.92c-1.56 1.916-2.806 3.517-3.66 4.64l-.98 1.303-.253.343-.084.116z" class="B C"/><path d="M511.65 218.103L447.423 202.7c-13.543-3.125-24.877-12.356-30.72-24.985l-26.238-56.83 15.88-25.194a28.48 28.48 0 0 1 22.348-13.254l15.625-.962c15.752-.962 28.4 8.88 33.2 23.927l31.777 93.082c3.5 8.72 2.353 19.617 2.353 19.617z" class="E"/><path d="M444.346 81.957l-15.624.962a28 28 0 0 0-21.971 13.03l-15.742 24.973 26.13 56.592c5.78 12.495 16.994 21.627 30.392 24.72h0l63.687 15.273c.023-.306.05-.734.075-1.264a56.83 56.83 0 0 0 .01-4.66c-.15-3.8-.736-8.63-2.452-12.918l-.004-.01-31.784-93.103c-4.744-14.866-17.2-24.54-32.715-23.594zm67.303 136.146l.477.05-.057.544-.53-.126-13.42-3.253-50.805-12.148c-13.688-3.16-25.143-12.5-31.048-25.252h0l-26.348-57.067 16.02-25.415a28.96 28.96 0 0 1 22.725-13.477l15.624-.962c15.997-.977 28.825 9.027 33.687 24.256l31.772 93.066c1.77 4.43 2.362 9.4 2.514 13.226.077 1.923.044 3.572-.01 4.74-.026.585-.057 1.05-.082 1.37l-.03.367-.005.055c-.002.016-.003.03-.004.04l-.003.025-.001.007v.003l-.477-.05zm-107.774-93.77c-.001-.001-.001-.001.404-.26l.405-.26.001.002.004.005c.003.006.01.014.016.025l.07.105.3.4 1.185 1.5c1.065 1.258 2.683 2.97 4.9 4.773 4.415 3.604 11.185 7.57 20.602 9.006l-.144.95c-9.618-1.466-16.543-5.52-21.065-9.212-2.26-1.845-3.92-3.6-5.017-4.897a27.09 27.09 0 0 1-1.23-1.556 13.72 13.72 0 0 1-.306-.435 3.02 3.02 0 0 1-.078-.116.74.74 0 0 0-.021-.031l-.005-.01-.002-.003z" class="B D"/><path d="M415.55 100.164a1.78 1.78 0 1 0-1.04 2.965c1.425-.21 2.017-1.923 1.04-2.965z" class="C"/><path d="M412.2 100.427a2.26 2.26 0 0 1 3.7-.591c1.24 1.325.486 3.504-1.322 3.77a2.26 2.26 0 0 1-2.379-3.178h.001zm.87.405c-.43.933.35 1.974 1.366 1.822h.002c1.04-.153 1.47-1.402.76-2.16l-.001-.002a1.3 1.3 0 0 0-2.126.34z" class="B D"/><path d="M455.427 127.553a1.78 1.78 0 1 0-1.04 2.965c1.424-.21 2.017-1.924 1.04-2.965z" class="C"/><path d="M452.078 127.815a2.26 2.26 0 0 1 3.7-.59c1.24 1.325.486 3.504-1.32 3.77a2.26 2.26 0 0 1-2.379-3.178v-.001zm.87.405a1.3 1.3 0 0 0 1.366 1.823l.002-.001a1.29 1.29 0 0 0 .76-2.16l-.001-.001a1.3 1.3 0 0 0-2.127.339z" class="B D"/><path d="M468.058 138.77a1.78 1.78 0 1 0-1.041 2.965c1.41-.192 2-1.907 1.04-2.965z" class="C"/><path d="M464.708 139.034a2.26 2.26 0 0 1 3.701-.59l.004.005c1.208 1.33.48 3.515-1.328 3.764a2.26 2.26 0 0 1-2.377-3.178v-.001zm.872.405c-.43.933.35 1.974 1.366 1.822h.006c1.008-.137 1.462-1.378.752-2.163a1.3 1.3 0 0 0-2.124.342z" class="B D"/><path d="M492.278 202.252a1.78 1.78 0 1 0-1.041 2.965c1.41-.21 2-1.907 1.04-2.965z" class="C"/><path d="M488.93 202.515a2.26 2.26 0 0 1 3.7-.59l.004.004c1.214 1.336.47 3.498-1.325 3.764a2.26 2.26 0 0 1-2.38-3.178h.001zm.87.404a1.3 1.3 0 0 0 1.366 1.823h.001c1.02-.15 1.462-1.385.757-2.164a1.3 1.3 0 0 0-2.124.341z" class="B D"/><path d="M478.72 171.914a1.78 1.78 0 1 0-1.04 2.965c1.424-.208 2.017-1.923 1.04-2.965z" class="C"/><path d="M475.37 172.177a2.26 2.26 0 0 1 3.7-.591c1.24 1.325.487 3.504-1.32 3.77a2.26 2.26 0 0 1-2.379-3.178h0zm.87.405c-.43.933.35 1.974 1.367 1.822h.001c1.04-.153 1.47-1.402.76-2.16l-.001-.002a1.3 1.3 0 0 0-2.127.34z" class="B D"/><path d="M484.338 150.085c-1.25.16-1.937 1.555-1.313 2.645a1.77 1.77 0 0 0 3.122-.08c.656-1.283-.4-2.757-1.81-2.565z" class="C"/><path d="M486.575 152.868a2.25 2.25 0 0 1-3.967.101c-.793-1.386.08-3.155 1.667-3.36 1.8-.243 3.133 1.63 2.3 3.26zm-.855-.437a1.29 1.29 0 0 0-1.317-1.869l-.004.001c-.908.116-1.412 1.135-.957 1.928v.001a1.29 1.29 0 0 0 2.277-.059l.001-.002z" class="B D"/><path d="M494.567 182.458c-1.248.16-1.937 1.555-1.312 2.645a1.77 1.77 0 0 0 3.121-.08c.657-1.282-.384-2.757-1.81-2.565z" class="C"/><path d="M496.804 185.24a2.25 2.25 0 0 1-3.966.101c-.794-1.386.08-3.155 1.667-3.36a2.25 2.25 0 0 1 2.299 3.259zm-.855-.437c.48-.937-.278-2.01-1.317-1.87l-.004.001c-.908.116-1.41 1.135-.957 1.928l.001.001a1.29 1.29 0 0 0 2.276-.059l.001-.002z" class="B D"/><path d="M452.145 147.537a1.78 1.78 0 1 0-1.041 2.965c1.41-.208 2-1.907 1.04-2.965z" class="C"/><path d="M448.796 147.8a2.26 2.26 0 0 1 3.7-.59l.004.004c1.214 1.336.472 3.498-1.325 3.764a2.26 2.26 0 0 1-2.38-3.178h.001zm.87.405c-.43.933.35 1.974 1.366 1.822h.001c1.02-.15 1.462-1.385.757-2.164a1.3 1.3 0 0 0-2.124.342z" class="B D"/><path d="M443.324 165.695a1.78 1.78 0 1 0-1.041 2.965c1.425-.208 2.017-1.923 1.04-2.965z" class="C"/><path d="M439.975 165.958c.67-1.443 2.6-1.772 3.7-.59 1.24 1.325.486 3.504-1.322 3.77a2.26 2.26 0 0 1-2.379-3.177v-.001zm.872.405c-.43.933.35 1.974 1.366 1.822h.002c1.04-.152 1.47-1.402.76-2.16l-.001-.002a1.3 1.3 0 0 0-2.126.34z" class="B D"/><path d="M427.54 159.35c.928-.865.672-2.388-.464-2.917a1.78 1.78 0 0 0-2.498 1.875c.21 1.41 1.905 2.004 2.962 1.042z" class="C"/><path d="M424.103 158.377a2.26 2.26 0 0 1 3.174-2.382l.001.001c1.442.67 1.77 2.604.59 3.704l-.004.004c-1.335 1.215-3.494.472-3.76-1.327zm2.77-1.51c-.932-.43-1.972.35-1.82 1.368v.001c.15 1.02 1.383 1.463 2.16.758.674-.63.49-1.74-.34-2.127z" class="B D"/><path d="M441.547 190.6c.928-.865.672-2.388-.464-2.917a1.78 1.78 0 0 0-2.498 1.875 1.77 1.77 0 0 0 2.962 1.042z" class="C"/><path d="M438.1 189.63a2.26 2.26 0 0 1 3.174-2.382l.001.001c1.442.67 1.77 2.603.6 3.704-1.324 1.242-3.5.487-3.765-1.323zm2.77-1.51c-.933-.43-1.973.35-1.82 1.368v.001a1.29 1.29 0 0 0 2.157.761h.002c.675-.63.492-1.742-.34-2.13z" class="B D"/><path d="M465.128 163.79c.928-.866.672-2.388-.465-2.917-1.28-.593-2.705.48-2.497 1.875.208 1.4 1.92 2.02 2.962 1.042z" class="C"/><path d="M461.69 162.817a2.26 2.26 0 0 1 3.174-2.382h.001c1.442.67 1.77 2.603.6 3.704-1.327 1.246-3.5.466-3.765-1.322zm2.77-1.5c-.932-.43-1.972.35-1.82 1.368l.001.001c.152 1.032 1.403 1.47 2.157.76v-.001c.676-.63.492-1.742-.34-2.13z" class="B D"/><path d="M473.18 197.347c.93-.865.673-2.388-.464-2.917-1.28-.593-2.705.48-2.497 1.876.192 1.426 1.905 2.02 2.96 1.04z" class="C"/><path d="M469.744 196.374a2.26 2.26 0 0 1 3.174-2.379l.001.001c1.442.67 1.77 2.604.59 3.704l-.001.002c-1.332 1.232-3.515.495-3.763-1.328zm2.77-1.506c-.933-.43-1.973.35-1.82 1.368.14 1.034 1.38 1.48 2.16.76.675-.63.49-1.74-.34-2.128z" class="B D"/><path d="M424.898 129.38a1.78 1.78 0 1 0-1.041 2.965c1.425-.21 2.017-1.924 1.04-2.965z" class="C"/><path d="M421.55 129.64a2.26 2.26 0 0 1 3.7-.59c1.24 1.325.486 3.504-1.322 3.77a2.26 2.26 0 0 1-2.379-3.178l.001-.001zm.87.405a1.3 1.3 0 0 0 1.366 1.823l.002-.001a1.29 1.29 0 0 0 .76-2.16l-.002-.001a1.3 1.3 0 0 0-2.126.339z" class="B D"/><path d="M427.764 87.807a1.78 1.78 0 1 0-1.041 2.965c1.425-.208 2.017-1.923 1.04-2.965z" class="C"/><path d="M424.414 88.07a2.26 2.26 0 0 1 3.7-.59c1.24 1.325.487 3.504-1.32 3.77a2.26 2.26 0 0 1-2.379-3.178h0zm.872.405a1.3 1.3 0 0 0 1.366 1.822h.002c1.04-.152 1.47-1.402.76-2.16l-.001-.001a1.3 1.3 0 0 0-2.126.339z" class="B D"/><path d="M455.427 87.807a1.78 1.78 0 1 0-1.04 2.965c1.424-.208 2.017-1.923 1.04-2.965z" class="C"/><path d="M452.078 88.07a2.26 2.26 0 0 1 3.7-.59c1.24 1.325.486 3.504-1.32 3.77a2.26 2.26 0 0 1-2.379-3.178h0zm.87.405a1.3 1.3 0 0 0 1.366 1.822h.002c1.04-.152 1.47-1.402.76-2.16l-.001-.001a1.3 1.3 0 0 0-2.127.339z" class="B D"/><path d="M455.474 105.757a1.78 1.78 0 1 0 2.385 2.052 1.78 1.78 0 0 0-2.385-2.052z" class="C"/><path d="M455.297 105.3c1.7-.672 3.438.835 3.03 2.606v.001a2.26 2.26 0 0 1-3.823 1.059v-.001a2.26 2.26 0 0 1 .792-3.665m2.095 2.4a1.3 1.3 0 0 0-1.74-1.497v.001c-.854.34-1.097 1.438-.456 2.103a1.3 1.3 0 0 0 2.196-.607z" class="B D"/><path d="M439.754 95.532c-1.217.353-1.68 1.81-.913 2.805.88 1.106 2.625.8 3.074-.53.464-1.362-.8-2.677-2.16-2.276z" class="C"/><path d="M439.62 95.07c1.736-.5 3.34 1.163 2.75 2.892-.572 1.694-2.79 2.075-3.904.674-.978-1.265-.39-3.118 1.153-3.566zm1.842 2.582c.34-.995-.586-1.95-1.572-1.66h-.001a1.3 1.3 0 0 0-.669 2.046c.647.808 1.916.58 2.24-.386v-.002z" class="B D"/><path d="M437.433 139.926c-1.25.144-1.953 1.522-1.345 2.628.69 1.234 2.466 1.218 3.122-.032a1.78 1.78 0 0 0-1.777-2.596z" class="C"/><path d="M439.634 142.745a2.26 2.26 0 0 0-2.255-3.298h0-.001c-1.592.184-2.482 1.936-1.71 3.338l.002.002c.872 1.564 3.13 1.55 3.965-.042zm-2.147-2.343c1.046-.117 1.786.974 1.298 1.893h0l-.001.002c-.477.908-1.77.925-2.276.023-.444-.8.074-1.813.98-1.918z" class="B D"/><path d="M423.714 173.31c-1.25.144-1.953 1.522-1.345 2.628.688 1.234 2.465 1.218 3.122-.032a1.78 1.78 0 0 0-1.777-2.596z" class="C"/><path d="M425.915 176.13c.856-1.612-.452-3.5-2.255-3.3h0v.001c-1.59.183-2.482 1.935-1.71 3.338l.002.002c.872 1.564 3.13 1.55 3.965-.042zm-2.147-2.343c1.047-.117 1.787.974 1.3 1.893h0l-.001.002c-.477.908-1.772.925-2.277.022-.444-.81.074-1.812.98-1.917z" class="B D"/><path d="M428.324 108.77c-1.217.353-1.68 1.81-.913 2.805.88 1.106 2.626.8 3.074-.53.464-1.346-.784-2.66-2.16-2.276z" class="C"/><path d="M430.94 111.2c.59-1.72-1.002-3.38-2.745-2.894l-.004.001c-1.545.448-2.133 2.3-1.16 3.56 1.12 1.405 3.336 1.025 3.908-.668zm-2.484-1.97c1.01-.28 1.91.684 1.576 1.657l-.002.003c-.325.965-1.594 1.193-2.24.385a1.3 1.3 0 0 1 .667-2.045z" class="B D"/><path d="M441.58 117.745c-1.217.353-1.68 1.81-.913 2.805.88 1.105 2.626.8 3.074-.53.464-1.362-.784-2.677-2.16-2.276z" class="C"/><path d="M441.446 117.282a2.25 2.25 0 0 1 2.75 2.892c-.572 1.694-2.79 2.075-3.904.674-.98-1.265-.39-3.118 1.154-3.566zm1.84 2.583c.34-.997-.572-1.95-1.572-1.66h-.001a1.3 1.3 0 0 0-.668 2.046c.646.808 1.916.58 2.24-.386v-.001z" class="B D"/><path d="M412.877 117.36c.8-.977.368-2.452-.848-2.82-1.345-.417-2.626.833-2.226 2.18.4 1.378 2.162 1.747 3.074.64z" class="C"/><path d="M412.168 114.08a2.25 2.25 0 0 1 1.079 3.586l-.001.001c-1.16 1.405-3.396.934-3.904-.812-.51-1.72 1.124-3.3 2.826-2.775zm-.282.92c-.986-.305-1.912.614-1.623 1.584v.003c.294 1.01 1.577 1.275 2.242.47.587-.717.267-1.787-.617-2.055l-.002-.001z" class="B D"/><path d="M473.564 117.408c.8-.978.368-2.452-.848-2.82-1.345-.416-2.626.834-2.226 2.18.385 1.378 2.162 1.747 3.074.64z" class="C"/><path d="M472.857 114.128a2.25 2.25 0 0 1 1.079 3.585l-.001.002c-1.155 1.4-3.413.94-3.905-.814-.508-1.72 1.125-3.3 2.827-2.773zm-.283.92c-.985-.305-1.91.614-1.622 1.583.28 1.007 1.573 1.283 2.242.473.586-.717.267-1.787-.617-2.055l-.003-.001z" class="B D"/><path d="M458.164 182.38a1.77 1.77 0 0 0-.849-2.821c-1.344-.417-2.625.833-2.225 2.18.384 1.362 2.16 1.73 3.074.64z" class="C"/><path d="M457.456 179.1c1.548.47 2.092 2.347 1.08 3.585l-.003.004c-1.154 1.38-3.4.924-3.903-.816-.51-1.72 1.125-3.3 2.827-2.773zm-.283.92c-.986-.306-1.91.613-1.623 1.583l.002.007c.277.98 1.57 1.262 2.242.465.585-.718.265-1.787-.618-2.054l-.003-.001z" class="B D"/><path d="M445.39 80.95l-1.072.048-15.625.962c-3.986.24-7.796 1.314-11.254 3.093l-4.802-14.392 21.403-15.706 11.35 25.995z" class="H"/><path d="M417.374 84.83c4.45-2.02 8.005-5.61 10.022-10.065l7.78-17.23-1.137-2.596-21.403 15.706 4.738 14.183z" class="G"/><path d="M435.415 56.398a5.38 5.38 0 0 1-1.585 3.814c-.976.978-2.32 1.587-3.8 1.587h-4.706c-1.857 7.228-9.045 12.18-16.777 10.818L405 71.99c-3.874-.69-6.515-4.31-5.97-8.206L403.174 43c.72-4.44 5.283-7.148 9.525-5.625l6.868 2.757c3.714 1.282 6.21 4.776 6.21 8.702v2.003l4.242.16a5.4 5.4 0 0 1 5.395 5.401z" class="H"/><path d="M431.173 54.106c-1.844 0-3.33 1.487-3.33 3.334a.4.4 0 1 1-.8 0c0-2.3 1.844-4.135 4.13-4.135a.401.401 0 0 1 0 .801zm-26.093-6.73a.4.4 0 0 1 .4-.401v.4-.4h.015l.035.001.124.006.445.047a7.86 7.86 0 0 1 1.494.371 8.41 8.41 0 0 1 3.97 2.957.4.4 0 0 1-.641.479c-1.145-1.535-2.513-2.3-3.595-2.68-.54-.2-1-.286-1.34-.334l-.384-.04-.097-.005-.026-.001" class="B G"/><path d="M407.714 53.373c.17-.932-.047-1.75-.48-1.83s-.925.612-1.094 1.544.046 1.75.48 1.83.925-.612 1.094-1.544z" class="G"/><path d="M430.02 50.996a5.4 5.4 0 0 1 5.395 5.401v.08c2.4-3.702 8.292-13.126 8.292-16.315 0-4.28-5.33-8.558-10.853-6.603l1.152-.865c2.13-1.667 3.25-2.917 3.426-3.814.064-.32.016-.61-.144-.833-.64-.913-1.345-1.314-2.097-1.186-1.105.176-2.24 1.538-3.378 4.04-.512 1.138-.912 2.26-1.137 2.95-.448-2.676-2.61-11.54-11.894-10.177-3.202.465-4.706 1.795-5.123 3.253-2.657-2.084-6.21-3.718-9.157-2.164-5.1 2.676-4.466 7.068-1.52 10.177-2.786-.048-4.74.77-4.74 3.125 0 2.164 2.225 3.205 5.283 3.622s6.98.192 10.373-.192c2.418-.272 4.595-.61 5.988-.85-.93 1.907-1.297 3.542-1.217 4.92.144 2.853 2.21 4.535 5.123 5.128.624.128 1.296.208 1.985.24l4.242.064zm5.267-23.495c.048-.016.096-.016.16-.016.448 0 .88.32 1.313.93.032.064.08.16.048.337-.256 1.298-3.538 3.766-5.443 5.064.752-2.212 2.337-6.042 3.922-6.314z" class="C"/><path d="M385.645 173.76H283.2a3.21 3.21 0 0 1-2.705-4.92l13.64-21.444c1.777-2.788 4.835-4.47 8.133-4.47h69.35l14.04 30.835z" class="H"/><path d="M304.514 142.94l8.164-13.462a2.69 2.69 0 0 1 2.289-1.298 2.69 2.69 0 0 1 2.29 4.086l-6.484 10.674h-6.26z" class="D"/><path d="M385.645 173.76H362.61l-.16-.16c-5.603-5.77-7.988-14.52-4.835-22.95l3.282-7.725h10.7l14.04 30.835z" class="G"/><g class="H"><path d="M297.662 159.367h-12.84a2.42 2.42 0 0 0-2.097 1.218l-1.36 2.372c-.912 1.603.24 3.606 2.097 3.606h10.326a5.16 5.16 0 0 0 4.402-2.468l1.105-1.81c.768-1.282-.144-2.917-1.633-2.917z"/><path d="M294.35 166.562H281.5a2.42 2.42 0 0 0-2.097 1.219l-1.36 2.37c-.912 1.603.24 3.606 2.097 3.606h10.326a5.16 5.16 0 0 0 4.402-2.468l1.105-1.8a1.92 1.92 0 0 0-1.633-2.917zm6.98-14.486H288.5a2.42 2.42 0 0 0-2.097 1.218l-1.36 2.372c-.913 1.603.24 3.606 2.097 3.606h10.326a5.16 5.16 0 0 0 4.402-2.468l1.104-1.8a1.92 1.92 0 0 0-1.632-2.917z"/></g><g class="B G"><path d="M282.38 160.386a2.82 2.82 0 0 1 2.444-1.419h12.84c1.805 0 2.902 1.98 1.976 3.523l-.001.002-1.105 1.812-.001.001a5.56 5.56 0 0 1-4.743 2.659h-10.326c-2.165 0-3.51-2.336-2.445-4.205l.001-.001 1.36-2.372zm.694.4l-1.36 2.37c-.76 1.336.2 3.007 1.75 3.007h10.326c1.653 0 3.19-.857 4.06-2.277l1.103-1.808c.6-1.02-.118-2.3-1.3-2.3h-12.84a2.02 2.02 0 0 0-1.75 1.017z"/><path d="M279.065 167.58a2.82 2.82 0 0 1 2.445-1.419h12.838a2.32 2.32 0 0 1 1.975 3.527l-1.105 1.8c-1.018 1.657-2.8 2.66-4.744 2.66H280.15c-2.165 0-3.5-2.336-2.445-4.205l.001-.001 1.36-2.372zm.694.4l-1.36 2.37c-.76 1.337.2 3.007 1.75 3.007h10.325a4.76 4.76 0 0 0 4.061-2.277l1.105-1.8a1.52 1.52 0 0 0-1.292-2.307H281.5a2.02 2.02 0 0 0-1.75 1.017zm6.286-14.887a2.82 2.82 0 0 1 2.445-1.419h12.838a2.32 2.32 0 0 1 1.975 3.527l-1.105 1.8c-1.018 1.657-2.8 2.66-4.744 2.66H287.13c-2.165 0-3.5-2.336-2.445-4.205l.001-.001 1.36-2.372zm.694.4l-1.36 2.37c-.76 1.337.2 3.007 1.75 3.007h10.325a4.76 4.76 0 0 0 4.061-2.277l1.105-1.8a1.52 1.52 0 0 0-1.292-2.307H288.5a2.02 2.02 0 0 0-1.75 1.017z"/></g><path d="M319.915 162.796a15.9 15.9 0 0 1-10.486-3.943l-4.867-4.263h-4.482l-1.153 1.234c-2.065 2.212-4.6 3.478-7.636 3.478h-2.145a1.43 1.43 0 0 1-1.2-2.195l5.394-8.462h26.59v14.15h-.016z" class="H"/><path d="M293.555 148.307a.4.4 0 0 1 .122.553l-5.395 8.464a1.03 1.03 0 0 0 .864 1.578h2.145c2.9 0 5.344-1.194 7.343-3.35l.001-.001 1.27-1.36h4.806l4.98 4.362m-5.28-3.56l4.753 4.164v.001a16.36 16.36 0 0 0 10.749 4.041.4.4 0 1 0 0-.801c-3.76 0-7.397-1.375-10.222-3.844m-5.28-3.56h-4.16l-1.033 1.106c-2.13 2.3-4.78 3.606-7.93 3.606h-2.145c-1.434 0-2.318-1.598-1.538-2.812l5.395-8.462a.4.4 0 0 1 .552-.122" class="B G"/><path d="M428.004 143.788l-24.445 27.34a27.08 27.08 0 0 1-20.203 9.039c-15.24 0-25.79-15.225-20.443-29.52l29.04-68.305-9.813-5.497c-1.393-1.1-2.065-2.87-1.76-4.6l1.665-11.234c.512-2.5 3.057-4.455 5.54-5.032l11.494-2.596c.976-.224 1.873.61 1.713 1.587l-1.665 8.67c-.657 4.23 2.193 7.885 6.42 8.606 3.458.593 5.89 4.07 5.57 7.564l-7.828 48.88c-.016.032 8.004 12.55 24.717 15.097z" class="H"/><g class="B"><g class="G"><path d="M409.32 91.034a.4.4 0 0 1 .335.457l-9.445 61.397a.4.4 0 0 1-.791-.121l9.445-61.398a.4.4 0 0 1 .456-.335zm-19.628-29.606a.4.4 0 0 1 .387.413l-.128 3.973c-.043 1.473.832 2.727 2.033 3.076l14.696 2.978a.4.4 0 0 1-.159.785l-14.742-2.988c-1.6-.458-2.68-2.084-2.628-3.875h0l.128-3.975a.4.4 0 0 1 .413-.388z"/><path d="M398.904 53.362c1.08-.258 2.074.672 1.88 1.774l-1.52 8.695c-.5 3.674 1.98 7.092 5.637 7.747l11.758 1.57a.4.4 0 1 1-.106.794l-11.783-1.573c-4.085-.727-6.872-4.546-6.298-8.656l.001-.007 1.522-8.7c.094-.533-.384-.98-.905-.855h-.001l-12.008 2.805a.4.4 0 1 1-.182-.78l12.004-2.804z"/></g><path d="M442.29 128.63l-31.825 35.45-.714-.643 31.825-35.45.714.643z" class="D"/><g class="G"><path d="M391.9 82.36a.4.4 0 0 1 .4-.401h5.62a.401.401 0 1 1 0 .801h-5.62a.4.4 0 0 1-.4-.401zm2.932-27.173c.574.4 1 1.033 1 1.84L395.7 65.4c-.001 1.038-.744 1.952-1.777 1.952h-1.76c-1.625 0-2.865-1.475-2.865-3.173v-1.282a.4.4 0 1 1 .8 0v1.282c0 1.347.97 2.372 2.065 2.372h1.76c.503 0 .977-.463.977-1.154v-.003l.112-8.368c.006-.493-.25-.9-.64-1.166a1.73 1.73 0 0 0-1.348-.266.401.401 0 1 1-.189-.779c.68-.165 1.42-.004 1.987.383z"/><path d="M395.4 62.486a.4.4 0 0 1 .401.401v1.282c0 1.347.968 2.372 2.065 2.372h1.12a.4.4 0 1 1 0 .801h-1.12c-1.625 0-2.866-1.475-2.866-3.173v-1.282a.4.4 0 0 1 .4-.401z"/></g><g class="F"><path d="M519.832 419.918L501.246 265.07l.954-.115 18.586 154.848-.954.115zm-117.727-.115l18.586-154.848.954.115-18.586 154.848-.954-.115z"/><path d="M513.922 367.167H408.954v-.962h104.968v.962z"/></g></g><path d="M410.458 265.494h101.014c1.345 0 2.433-1.1 2.433-2.436v-3.302c0-1.346-1.088-2.436-2.433-2.436H410.458c-1.345 0-2.433 1.1-2.433 2.436v3.302c0 1.346 1.088 2.436 2.433 2.436z" class="E"/><path d="M407.545 259.757c0-1.612 1.304-2.917 2.913-2.917h101.014c1.6 0 2.914 1.305 2.914 2.917v3.3c0 1.612-1.304 2.917-2.914 2.917H410.458c-1.61 0-2.913-1.305-2.913-2.917v-3.3zm2.913-1.956c-1.08 0-1.953.875-1.953 1.956v3.3c0 1.08.874 1.955 1.953 1.955h101.014c1.08 0 1.953-.874 1.953-1.955v-3.3c0-1.08-.873-1.956-1.953-1.956H410.458z" class="B C"/><path d="M242.37 148.31l-15.464 31.86h-46.73l18.778-31.86h43.415z" class="E"/><path d="M198.726 147.908h44.283l-15.853 32.662h-47.68l19.25-32.662zm.457.802l-18.306 31.06h45.778l15.075-31.06h-42.547zm14.54 5.83l1.063.67c.57.347 1.248.458 2.03.397s1.652-.294 2.576-.607l1.75-.64 1.103-.412c.964-.35 1.945-.672 2.892-.843 2.554-.47 4.388.206 5.585 1.016a6.62 6.62 0 0 1 1.312 1.169l.32.413.083.123.022.035.008.014.001.001v.001c.001 0 .001 0-.345.203l-.345.203-.002-.004-.014-.023-.064-.094a4.4 4.4 0 0 0-.273-.351c-.248-.3-.63-.67-1.153-1.026-1.04-.704-2.664-1.32-4.992-.9h-.002c-.877.158-1.805.46-2.76.807l-1.07.4-1.797.657c-.945.32-1.885.578-2.77.647s-1.75-.05-2.508-.512l-1.132-.712c-.926-.594-1.8-1.16-2.752-1.568-1.286-.56-2.64-.803-4.253-.353-1.684.47-3.152 1.158-4.2 1.73l-1.226.724-.326.216-.102.07-.004.003-.001.001-.235-.325-.234-.325h.001l.001-.002.007-.004.024-.017.1-.064.346-.228 1.276-.754c1.084-.6 2.6-1.305 4.368-1.796 1.828-.5 3.373-.226 4.787.4 1.006.437 1.97 1.055 2.918 1.66zm-1.6 4.96l1.063.67c.57.348 1.248.46 2.03.398s1.652-.294 2.576-.607l1.75-.64 1.103-.412c.964-.35 1.945-.672 2.892-.843 2.554-.47 4.388.206 5.585 1.016.594.402 1.027.835 1.312 1.17l.32.412.083.123.022.036.008.014.001.001v.001s.001 0-.345.203l-.345.202-.002-.004-.014-.022-.064-.095c-.058-.083-.15-.205-.273-.35-.248-.3-.63-.67-1.153-1.026-1.04-.704-2.664-1.32-4.992-.892l-.002.001c-.877.158-1.805.46-2.76.807l-1.07.4-1.797.657c-.945.32-1.885.578-2.77.647s-1.75-.05-2.508-.512l-1.132-.712c-.926-.594-1.8-1.16-2.752-1.57-1.286-.56-2.64-.803-4.253-.352-1.684.47-3.152 1.158-4.2 1.73l-1.226.724-.326.215-.082.058-.02.014-.005.003v.001l-.235-.325-.234-.325h.001l.001-.002.007-.005.024-.017.1-.063.345-.228 1.277-.754a20.76 20.76 0 0 1 4.368-1.797c1.828-.5 3.372-.225 4.787.4 1.006.437 1.97 1.055 2.918 1.662z" class="B K"/><path d="M259.947 291.297c0 4.28-11.863 7.74-26.72 7.74s-26.366-3.46-26.366-7.74 11.5-7.74 26.366-7.74 26.72 3.477 26.72 7.74z" class="D"/><path d="M253.11 286.09v55.29l-1.68-7.98a18.55 18.55 0 0 0-18.153-14.728c-2.642 0-5.235.56-7.588 1.618l-.257.113-9.59-35.018c4.69-1.138 10.758-1.827 17.386-1.827 7.876 0 14.968.977 19.882 2.532z" class="J"/><path d="M253.11 286.09v10.417c-4.914 1.554-12.006 2.532-19.882 2.532-5.107 0-9.878-.417-13.96-1.122l-3.426-12.517c4.69-1.137 10.758-1.827 17.386-1.827 7.876-.016 14.968.962 19.882 2.517z" class="I"/><path d="M251.925 339.76c.432.128 4.5 1.266 8.1 1.266 1.953 0 3.762-.336 4.786-1.362.88-.882 1.09-2.164.625-3.782-.417-1.443-1.217-2.34-2.386-2.66-2.145-.577-5.123 1.026-7.476 2.71 3.666-4.456 7.284-10.113 5.94-13.815-.48-1.314-1.568-2.196-2.93-2.356-1.137-.128-2.193.272-2.7 1.026-2.305 3.51-4.194 17.917-4.274 18.526l.304.45zm4.643-18.527c.288-.432.896-.69 1.6-.69.112 0 .224 0 .336.016.512.064 1.745.353 2.273 1.827.352.978.48 2.773-.944 5.786-1.345 2.853-3.78 6.202-7.236 10 .512-3.654 2.145-14.167 3.97-16.94zm7.684 17.87c-1.057 1.058-3.458 1.378-6.964.93a38.2 38.2 0 0 1-4.466-.865c.688-.61 1.97-1.715 3.458-2.74 2.85-1.97 5.122-2.82 6.58-2.42.88.24 1.473.93 1.825 2.1.384 1.346.24 2.324-.432 2.997z" class="C"/><path d="M219.43 324.888l-3.698 4.15a14.54 14.54 0 0 0-1.697 17.02l16.28 27.95a17.75 17.75 0 0 0 15.336 8.815h6.74c4.882 0 8.516-4.488 7.508-9.264l-8.485-40.146a18.55 18.55 0 0 0-18.154-14.728c-5.266-.016-10.31 2.243-13.83 6.202z" class="E"/><g class="K"><path d="M219.13 324.62c3.598-4.043 8.75-6.352 14.13-6.336a18.95 18.95 0 0 1 18.544 15.046m0 .001l8.485 40.146c1.06 5.025-2.763 9.746-7.9 9.746h-6.74a18.15 18.15 0 0 1-15.682-9.013l-16.28-27.95a14.94 14.94 0 0 1 1.743-17.489l3.698-4.15m14.13-5.535c-5.152-.016-10.085 2.194-13.53 6.068h-.001l-3.697 4.15a14.14 14.14 0 0 0-1.651 16.551h.001l16.28 27.95c3.114 5.342 8.826 8.616 14.99 8.616h6.74c4.63 0 8.073-4.253 7.117-8.78l-8.485-40.146c-1.77-8.405-9.178-14.4-17.762-14.4h-.001z" class="B"/><path d="M232.028 336.972l21.02 40.77c.993 1.843 2.225 3.03 3.634 3.782-1.216.818-2.69 1.314-4.3 1.314h-6.74c-6.323 0-12.166-3.365-15.336-8.814l-16.28-27.966c-.657-1.138-1.153-2.324-1.49-3.558-2.306-8.574 7.444-15.305 14.76-10.273 1.664 1.138 3.297 2.676 4.722 4.744z"/></g><path d="M232.076 337.07h-19.403a6.8 6.8 0 0 1 .337-.866h18.44l.577.785.048.08zm2.85 5.512h-22.348c0-.032-.016-.064-.016-.08l-.176-.785h22.108l.432.865zm2.85 5.518h-22.54l-.512-.88h22.604l.45.88zm2.85 5.54h-22.172l-.512-.88h22.236l.448.88zm2.85 5.512H221.67l-.512-.865h21.868l.448.865zm2.85 5.53h-21.436l-.512-.88h21.484l.464.88zm2.85 5.53h-21.067l-.512-.882h21.115l.464.882zm2.834 5.513H231.45l-.608-.866h20.715l.448.866zm4.2 5.53H238.35c-.576-.256-1.137-.545-1.68-.865h18.394a9.84 9.84 0 0 0 1.152.865z" class="E"/><path d="M194.375 290.16c-.144 4.23-12.134 7.66-26.894 7.66s-26.75-3.414-26.895-7.66v-33.32h53.79v33.32z" class="I"/><path d="M190.805 295.688l-.85 41.476c0-9.92-8.036-17.966-17.945-17.966h-1.09c-5.058 0-9.62 1.972-13 5.145l-3.8-25.787c3.938.657 8.5 1.026 13.35 1.026 10-.016 18.682-1.587 23.34-3.894z" class="J"/><path d="M190.804 295.688l-.08 3.958c-5.955 4.23-24.35 9.44-35.14 8.75l-1.457-9.856c3.94.64 8.5 1.026 13.35 1.026 9.974 0 18.666-1.57 23.325-3.878z" class="I"/><path d="M172.83 383.353h2.977c7.813 0 14.152-6.346 14.152-14.167v-32.02c0-9.92-8.036-17.966-17.946-17.966h-1.088c-11.526 0-20.41 10.177-18.858 21.62l3.762 27.694c1.168 8.494 8.42 14.84 17 14.84z" class="E"/><g class="K"><path d="M151.67 340.873c-1.586-11.683 7.486-22.074 19.254-22.074h1.09c10.13 0 18.346 8.225 18.346 18.366v32.02c0 8.042-6.52 14.568-14.552 14.568h-2.978c-8.78 0-16.2-6.494-17.397-15.186l-3.762-27.695zm.793-.108l3.762 27.693c1.14 8.296 8.224 14.495 16.604 14.495h2.978c7.59 0 13.75-6.167 13.75-13.767v-32.02c0-9.7-7.857-17.565-17.545-17.565h-1.09c-11.284 0-19.98 9.963-18.46 21.165z" class="B"/><path d="M185.508 379.5c-2.53 2.388-5.955 3.863-9.7 3.863h-2.978c-8.58 0-15.832-6.347-16.985-14.84l-3.762-27.693c-.064-.53-.128-1.058-.144-1.57.96-6.138 6.26-10.834 12.663-10.834a12.81 12.81 0 0 1 8.324 3.077 12.8 12.8 0 0 1 4.339 7.757l4.946 33.8c.368 2.516 1.553 4.76 3.298 6.442z"/></g><path d="M175.773 334.97H153.4c.16-.305.352-.593.544-.865h21.292a7.7 7.7 0 0 1 .528.865zm1.667 5.513h-25.406l-.08-.866h25.358l.128.866zm.815 5.53h-25.47l-.128-.866h25.47l.128.866zm.8 5.528h-25.518l-.128-.882h25.518l.128.882zm.815 5.513H154.3l-.128-.865h25.58l.128.865zm.802 5.53h-25.646l-.112-.865h25.63l.128.865zm.816 5.53h-25.7l-.112-.882h25.694l.128.882zm.817 5.513h-24.942l-.384-.865h25.18l.048.288.097.577zm2.865 5.53H161.6l-.928-.865h23.772c.224.305.48.593.737.865z" class="E"/><path d="M206.014 116.976v27c-1.168-3.06-10.42-2.628-20.603 1.234-8.724 3.317-15.272 7.87-16.232 11.026v-37.983c0-11.298 6.035-21.395 15.304-26.908 12.038 2.1 21.53 12.597 21.53 25.642zm-37.54-24.423a31.28 31.28 0 0 0-13.415 25.7v31.332h-45.577l6.292-27.117a34.53 34.53 0 0 1 21.915-24.697l30.785-5.2z" class="C"/><path d="M260.65 226.66v62.904c0-4.28-12.567-7.74-27.423-7.74s-26.894 3.462-26.894 7.74V259.42a2.57 2.57 0 0 0-2.562-2.564h-81.707c-24.573 0-42.743-22.902-37.188-46.86l19.722-85.07a34.52 34.52 0 0 1 27.839-26.251l5.25-.897c-10.886 3.927-19.242 13.142-21.916 24.697l-6.29 27.117h45.576v-31.348c0-10.513 5.235-20 13.415-25.7l7.204-1.218c1.49-.257 2.946-.37 4.403-.37h.56c.176 0 .352.016.512.016h.096c.128 0 .272.016.4.016h.064c.08 0 .16.016.225.016.144.016.272.016.416.032l.496.048.464.048c.032 0 .064.016.112.016.16.016.337.048.497.064h.032c.176.032.352.048.528.08-9.27 5.513-15.304 15.6-15.304 26.91v77.007h60.096c17.32.032 31.377 14.087 31.377 31.444z" class="D"/><g class="E"><path d="M169.908 91.572a.48.48 0 0 1-.12.669c-8.1 5.63-14.266 15.67-14.266 26v31.812h-46.66l6.428-27.706M169.9 91.57a.48.48 0 0 0-.668-.12zm-.668-.12c-8.304 5.78-14.678 16.096-14.678 26.8zm-14.678 26.8v30.85zm0 30.85h-44.5zm60.98 75.92a.48.48 0 0 1 .057.677 37.33 37.33 0 0 0-8.787 24.067.48.48 0 0 1-.96 0 38.28 38.28 0 0 1 9.014-24.687.48.48 0 0 1 .676-.057z" class="B"/><path d="M139.754 246.566c-.08 0-.16-.016-.224-.064l-2.113-1.154c-.24-.13-.32-.417-.192-.657s.416-.32.656-.193l2.113 1.154a.48.48 0 0 1 .193.657c-.097.16-.257.257-.433.257zm2.113-.545a.46.46 0 0 1-.416-.257c-.128-.24-.048-.53.192-.657l2.113-1.154a.49.49 0 0 1 .657.193c.128.24.048.53-.192.657l-2.113 1.154a.67.67 0 0 1-.24.064zm-6.34-1.747c-.08 0-.16-.016-.224-.064l-2.113-1.154c-.24-.128-.32-.417-.192-.657s.416-.32.656-.193l2.113 1.154c.24.13.32.417.192.657-.096.16-.256.257-.432.257zm10.55-.56c-.176 0-.336-.096-.417-.256-.128-.24-.048-.53.193-.658l2.113-1.153c.368-.193.704-.417 1.04-.658.208-.16.513-.112.673.097s.112.512-.096.673a11.04 11.04 0 0 1-1.153.737l-2.113 1.154a.45.45 0 0 1-.24.064zm-14.728-1.8c-.096 0-.192-.032-.288-.096a9.81 9.81 0 0 1-1.825-1.731c-.176-.208-.144-.513.064-.673.208-.176.512-.144.672.064a8.89 8.89 0 0 0 1.649 1.554c.208.16.256.465.112.674-.08.144-.224.208-.384.208zm19.674-1.683a.45.45 0 0 1-.304-.112c-.208-.16-.24-.465-.064-.673a8.93 8.93 0 0 0 1.201-1.939c.112-.24.4-.353.64-.24s.352.4.24.64a9.73 9.73 0 0 1-1.328 2.132c-.113.128-.24.192-.385.192zm-22.684-1.987a.47.47 0 0 1-.432-.273 10.53 10.53 0 0 1-.768-2.404c-.048-.256.128-.512.384-.56s.512.128.56.384a9.22 9.22 0 0 0 .688 2.164c.113.24 0 .53-.24.64-.064.032-.128.048-.192.048zm24.67-2.34h-.08c-.256-.048-.432-.304-.384-.56a8.87 8.87 0 0 0 .144-1.587v-.72a.481.481 0 1 1 .961 0v.72c0 .593-.048 1.186-.16 1.763-.048.225-.256.385-.48.385zm-25.55-2.34a.47.47 0 0 1-.481-.481v-2.404a.48.48 0 1 1 .961 0v2.404c0 .257-.224.48-.48.48zm25.693-2.452a.47.47 0 0 1-.48-.481v-2.404a.481.481 0 1 1 .961 0v2.404a.47.47 0 0 1-.481.481zm-25.693-2.356a.47.47 0 0 1-.481-.481v-2.404a.48.48 0 1 1 .961 0v2.404c0 .257-.224.48-.48.48zm25.693-2.452a.47.47 0 0 1-.48-.481v-2.404a.481.481 0 1 1 .961 0v2.404a.47.47 0 0 1-.481.481zm-25.693-2.356a.47.47 0 0 1-.481-.481v-2.404a.48.48 0 1 1 .961 0v2.404c0 .257-.224.48-.48.48zm25.693-2.452a.47.47 0 0 1-.48-.481V218.6a.481.481 0 1 1 .961 0v2.404a.47.47 0 0 1-.481.481zm-25.693-2.356a.47.47 0 0 1-.481-.48v-2.068h1.297a.481.481 0 1 1 0 .962h-.336v1.106c0 .256-.224.48-.48.48zm24.83-1.586h-2.4a.47.47 0 1 1 .001-.961h2.4a.481.481 0 1 1 0 .962zm-4.803 0h-2.4a.481.481 0 1 1 0-.962h2.4a.481.481 0 1 1 0 .962zm-4.802 0h-2.4a.481.481 0 1 1 0-.962h2.4a.481.481 0 1 1 0 .962zm-4.803 0h-2.4a.481.481 0 1 1 0-.962h2.4a.47.47 0 1 1 .001.961zm-4.802 0h-2.402a.481.481 0 1 1 0-.962h2.402a.481.481 0 1 1 0 .962zm-38.63 26.36a.46.46 0 0 1-.416-.256c-.128-.24-.048-.53.192-.657l1.953-1.074c.048-.032.096-.048.144-.08a.49.49 0 0 1 .656.176.49.49 0 0 1-.176.657.5.5 0 0 1-.16.08l-1.953 1.074a.36.36 0 0 1-.24.08zm4.05-2.564c-.128 0-.256-.048-.352-.16a.48.48 0 0 1 .032-.673c.56-.513 1.057-1.106 1.5-1.73.144-.225.448-.273.672-.128s.273.448.13.673a11.6 11.6 0 0 1-1.633 1.907c-.112.08-.224.112-.336.112zm2.674-3.943c-.064 0-.112-.016-.176-.032-.24-.096-.368-.368-.272-.625.272-.72.464-1.458.576-2.2.032-.257.272-.45.544-.417a.49.49 0 0 1 .417.545 10.74 10.74 0 0 1-.625 2.436.52.52 0 0 1-.464.304zm.688-4.7a.47.47 0 0 1-.48-.481v-2.404a.48.48 0 1 1 .961 0v2.404c0 .256-.2.48-.48.48zm0-4.808a.47.47 0 0 1-.48-.481v-2.404a.47.47 0 1 1 .96-.001v2.404c0 .256-.2.48-.48.48zm0-4.808a.47.47 0 0 1-.48-.481v-2.404a.47.47 0 1 1 .96-.001v2.404c0 .256-.2.48-.48.48zm0-4.808a.47.47 0 0 1-.48-.481v-.24h-1.2a.481.481 0 1 1 0-.962h2.162v1.202c0 .256-.2.48-.48.48zm-4.082-.72h-2.4a.481.481 0 1 1 0-.962h2.4a.47.47 0 0 1 .48.481.48.48 0 0 1-.48.48zm-4.803 0h-2.4a.481.481 0 1 1 0-.962h2.4a.47.47 0 0 1 .48.481.48.48 0 0 1-.48.48zm-4.803 0h-2.4a.481.481 0 1 1 0-.962h2.4a.47.47 0 0 1 .48.481.48.48 0 0 1-.48.48z"/></g><path d="M206.013 143.966c1.17 3.06-6.227 8.494-16.393 12.357s-19.274 4.455-20.443 1.378 6.05-8.622 16.233-12.485 19.434-4.327 20.603-1.25z" class="D"/><path d="M211.695 243.393v1.7a7.04 7.04 0 0 0-1.649-.192h-2.065c-3.057 0-5.667-1.956-6.66-4.68l5.86-.786a3.99 3.99 0 0 1 4.514 3.959z" class="I"/><path d="M217.107 251.967v13.045a5.51 5.51 0 0 1-5.507 5.513h-6.13c-1.52 0-2.898-.61-3.9-1.618a5.5 5.5 0 0 1-1.617-3.895h3.986c1.313 0 2.37-1.058 2.37-2.372v-3.413c0-1.315-1.056-2.372-2.37-2.372h-20.38a14.42 14.42 0 0 1-14.407-14.424v-86.2c.96-3.158 7.508-7.725 16.232-11.027 5.955-2.26 11.606-3.35 15.497-3.253v95.87c0 3.91 3.17 7.084 7.075 7.084h2.065c3.907-.016 7.076 3.14 7.076 7.052z" class="J"/><path d="M200.89 141.945v8.72c-2.898 1.955-6.82 3.958-11.286 5.64-10.182 3.862-19.275 4.455-20.443 1.378v-1.458c.96-3.157 7.508-7.725 16.232-11.026 5.97-2.26 11.607-3.35 15.497-3.254z" class="I"/><path d="M174.268 77.022l-6.02 15.53-31.024 5.56 8.1-21.09h28.943z" class="J"/><path d="M174.27 77.022l-3.25 8.398-30.768 4.808 5.075-13.206h28.943z" class="I"/><path d="M192.455 45.42c0 2.1-3.634 4.423-7.828 6.38-5.715 2.676-12.455 4.712-12.455 4.712l-4.546 8.574c6.18 3.285 8.596 9.183 9.557 13.302.608 2.628.608 4.504.608 4.504h-43.575s-11.446-37.117 16.136-45.996c16.873-5.433 42.103 3.542 42.103 8.526z" class="E"/><path d="M177.6 37.713c-8.373-2.176-18.796-3.042-27.11-.364-6.783 2.183-11.146 6.092-13.892 10.72-2.754 4.64-3.897 10.03-4.188 15.177s.273 10.023.91 13.62c.32 1.796.656 3.27.913 4.293l.312 1.18.02.07h42.718c-.01-.194-.03-.444-.057-.74-.074-.78-.223-1.884-.522-3.174-.946-4.058-3.312-9.795-9.314-12.986l-.424-.225 4.865-9.176.192-.058.046.156-.046-.156h.001l.017-.005.057-.017.22-.07.837-.266 2.93-.988c2.392-.84 5.49-2.013 8.326-3.34h.001c2.085-.972 4.007-2.025 5.4-3.082.696-.53 1.244-1.046 1.613-1.54s.538-.936.538-1.32c0-.426-.28-.994-.974-1.677-.68-.67-1.7-1.384-2.984-2.1-2.585-1.433-6.226-2.84-10.406-3.926zm.18 45.174h.48v.48h-44.41l-.105-.34.46-.142-.46.14-.002-.007-.007-.022-.025-.083-.09-.318-.32-1.206c-.26-1.04-.603-2.537-.926-4.36-.646-3.64-1.22-8.598-.925-13.84s1.463-10.797 4.32-15.613c2.865-4.828 7.415-8.89 14.424-11.145 8.558-2.756 19.185-1.85 27.646.35 4.236 1.1 7.957 2.533 10.63 4.015 1.335.74 2.427 1.503 3.193 2.257.75.74 1.26 1.543 1.26 2.363 0 .666-.287 1.304-.73 1.895s-1.066 1.172-1.802 1.73c-1.473 1.118-3.465 2.205-5.574 3.188-2.878 1.348-6.008 2.532-8.414 3.377l-2.954.996-.846.27-.113.035-4.23 7.98c6.045 3.42 8.426 9.3 9.38 13.386v.001c.3 1.338.465 2.486.542 3.3a19.06 19.06 0 0 1 .069.957l.008.26c.001.03.001.053.001.07v.026c0 0 0 0-.48 0z" class="B C"/><path d="M146.317 42.18c5.986 0 10.838-4.858 10.838-10.85s-4.852-10.85-10.838-10.85-10.838 4.858-10.838 10.85 4.853 10.85 10.838 10.85z" class="E"/><path d="M146.318 20.962c-5.72 0-10.358 4.642-10.358 10.37s4.637 10.37 10.358 10.37 10.357-4.642 10.357-10.37-4.637-10.37-10.357-10.37zM135 31.33c0-6.258 5.067-11.33 11.318-11.33s11.318 5.073 11.318 11.33-5.068 11.33-11.318 11.33S135 37.59 135 31.33z" class="B C"/><path d="M177.166 78.384c-.897-3.895-3.138-9.44-8.66-12.79h-1.424c-1.313 0-2.514-.53-3.378-1.394s-1.393-2.067-1.393-3.38c0-2.644 2.13-4.776 4.77-4.776l6.195.128c.112-.032.224-.08.352-.112 1.633-.353 6.804-1.603 11.094-3.75l.496 2.965 1.6 9.504c1.09 6.523-3.378 12.533-9.653 13.607z" class="J"/><g class="I"><path d="M185.203 55.258c-5.25 2.132-12.103.898-12.103.898s6.452-1.282 11.606-3.862l.497 2.965z"/><path d="M167.097 58.432a.4.4 0 0 1 .4-.401c2.046 0 3.698 1.654 3.698 3.702a.4.4 0 1 1-.801 0c0-1.606-1.293-2.9-2.897-2.9a.4.4 0 0 1-.4-.401z" class="B"/></g><g class="F B"><path d="M205.858 419.92l-18.586-154.848.954-.115 18.586 154.848-.954.115zm-117.728-.115l18.57-154.848.953.115-18.57 154.847-.954-.114z"/><path d="M199.947 367.167H94.98v-.962h104.968v.962z"/></g><path d="M91.025 265.013H203.9c1.345 0 2.434-1.1 2.434-2.436v-3.3c0-1.346-1.09-2.436-2.434-2.436H91.025c-1.345 0-2.433 1.1-2.433 2.436v3.3c.016 1.346 1.105 2.436 2.433 2.436z" class="E"/><path d="M88.11 259.276c0-1.612 1.304-2.917 2.914-2.917H203.9c1.6 0 2.913 1.305 2.913 2.917v3.302c0 1.61-1.303 2.916-2.913 2.916H91.024c-1.597 0-2.894-1.307-2.913-2.91v-.003-3.304zm2.914-1.955c-1.08 0-1.953.874-1.953 1.955v3.3c.014 1.087.894 1.958 1.953 1.958H203.9c1.08 0 1.953-.875 1.953-1.955v-3.302c0-1.08-.874-1.955-1.953-1.955H91.024z" class="B C"/></svg>