<svg xmlns="http://www.w3.org/2000/svg" xmlns:xlink="http://www.w3.org/1999/xlink" width="600" height="440" fill="none" xmlns:v="https://vecta.io/nano"><style><![CDATA[.B{fill-rule:evenodd}.C{fill:#fff}.D{fill:#ffcf2d}.E{fill:#66b0f0}.F{fill:#fe5244}.G{fill:#73325a}.H{fill:#a0505a}.I{fill:#3fb1b5}]]></style><path d="M547.983 430.387H69.556v.967h478.427v-.967zM232.22 440h273.972v-.968H232.22V440z" class="B E"/><path d="M94.208 323.6h76.516c3.62 0 6.564 2.935 6.564 6.548V430.87H87.66V330.148c-.016-3.613 2.926-6.548 6.547-6.548z" fill="#d0f0e4"/><g class="B"><g class="D"><path d="M177.772 330.147c0-3.88-3.16-7.032-7.05-7.032H94.208c-3.89 0-7.05 3.152-7.032 7.035v101.205h90.596V330.147zm-7.05-6.064c3.354 0 6.08 2.72 6.08 6.064v100.24H88.146V330.145c-.015-3.343 2.71-6.062 6.062-6.062h76.515z"/><path d="M188.086 209.957H76.7V431.34h111.386V209.957zm-.97.968V430.37H77.67V210.925h109.446z"/><path d="M453.44 182.36H74.3v.968h378.18v26.628H53v.968h400.44V182.36zm-282.86 40.37a6.08 6.08 0 0 1 6.08 6.065v26.902c0 3.346-2.725 6.065-6.08 6.065H94.2c-3.355 0-6.08-2.704-6.08-6.048v-26.92c0-3.346 2.725-6.065 6.08-6.065h76.37zm7.05 6.065c0-3.88-3.16-7.032-7.05-7.032H94.2c-3.9 0-7.05 3.152-7.05 7.032v26.92c0 3.88 3.16 7.016 7.05 7.016h76.37c3.9 0 7.05-3.153 7.05-7.033v-26.902zm-7.05 42.645a6.08 6.08 0 0 1 6.08 6.065v26.902c0 3.346-2.725 6.065-6.08 6.065H94.2a6.08 6.08 0 0 1-6.08-6.065v-26.902c0-3.346 2.725-6.065 6.08-6.065h76.37zm7.05 6.065c0-3.88-3.16-7.032-7.05-7.032H94.2c-3.9 0-7.05 3.152-7.05 7.032v26.902c0 3.88 3.16 7.032 7.05 7.032h76.37c3.9 0 7.05-3.152 7.05-7.032v-26.902z"/></g><path d="M132.134 237.15c2.634 0 4.77 2.13 4.77 4.758s-2.136 4.758-4.77 4.758-4.77-2.13-4.77-4.758 2.136-4.758 4.77-4.758zm5.74 4.758c0-3.162-2.57-5.725-5.74-5.725s-5.74 2.563-5.74 5.725 2.57 5.726 5.74 5.726 5.74-2.563 5.74-5.726zm-5.74 44.095c2.634 0 4.77 2.13 4.77 4.758s-2.136 4.758-4.77 4.758-4.77-2.13-4.77-4.758 2.136-4.758 4.77-4.758zm5.74 4.758c0-3.162-2.57-5.726-5.74-5.726s-5.74 2.564-5.74 5.726 2.57 5.725 5.74 5.725 5.74-2.563 5.74-5.725z" class="E"/></g><path d="M99.332 357.146l.113.694.05.403 11.38 72.628h45.428l.016-.13.08-.452.016-.145 2.603-16.564.26-1.726.97-6.2 7.598-48.5H99.332z" class="C"/><g class="E"><path d="M110.438 431.37h46.3l.194-1.193 11.5-73.53H98.75l11.688 74.724zm45.444-1h-44.57l-11.38-72.707h67.35l-11.397 72.707z"/><path d="M98.702 357.148a2.07 2.07 0 0 0 .113.693c.55 1.694 3.072 3.258 7.033 4.55l.873.274c2.554.758 5.61 1.42 9.053 1.92l.986.145 9.862.903 1.05.05 5.933.13 4.592-.08 1.115-.048c4.042-.16 7.857-.5 11.317-.984l1.228-.177c5.87-.887 10.59-2.194 13.483-3.758 1.68-.904 2.732-1.887 3.072-2.92l.097-.677c0-4.774-15.617-8.63-34.887-8.63-19.158 0-34.7 3.823-34.888 8.564-.032 0-.032.017-.032.05z"/><path d="M110.747 430.194v.645l.113-.08.016.097h.42l56.4-72.692.08-.468c-.324 1.016-1.358 1.984-3.007 2.87l-2.555 3.3-.533.694-5.733 7.37-45.2 58.273zm-1.892-12.274l.178 1.145 1.714-2.2.533-.694 5.2-6.677.533-.694 5.2-6.677.533-.693 5.2-6.678.533-.693 5.2-6.677.534-.694 10.864-13.984.533-.693 5.2-6.677.533-.694.227-.3-1.197.177-.08.113-41.386 53.3zm-1.925-12.242l.178 1.145 3.637-4.677.534-.694 22.362-28.79.533-.694 5.06-6.516-1.1.05-10.217 13.144-.533.694-20.48 26.338zm-1.922-12.24l.178 1.145.37-.483 5.2-6.678.533-.693 5.2-6.677.533-.694 5.2-6.677.533-.694 5.06-6.516-1.034-.048-21.744 28.015zm39.704 37.176l.324.242.016.016h.533l5.174-6.645.533-.693 5.173-6.678.534-.677 2.02-2.597.258-1.726-2.813 3.63-.533.694-10.896 14.032-.324.403zm11.446.001l.162.13.08-.452-.242.323zm-22.874-.001l.323.24.016.017h.534l10.88-14.016.533-.678 5.2-6.677.534-.677v-.016l10.605-13.66.097-.597.178-1.13-.517.677-5.2 6.678-.533.677-5.707 7.37-5.2 6.66-.534.693-5.2 6.662-.534.693-5.173 6.677-.323.404zm-11.43 0l.324.242.016.016h.533l10.88-14.015.534-.678 5.173-6.677.533-.677 5.2-6.678.533-.693 5.2-6.66.533-.694 5.173-6.677.534-.677 7.792-10.032.26-1.7-2.862 3.693-.533.694-5.2 6.66-.533.694-34.08 43.87zM103.1 381.18l.178 1.145 2.28-2.95 5.2-6.678.533-.693 5.2-6.677.533-.694.065-.08-.954-.145-.178.226L103.1 381.18zm-1.924-12.242l.177 1.146 4.204-5.42 1.632-2.112-.856-.275-1.3 1.694-.533.693-3.314 4.274z"/><path d="M98.865 357.406l.453.58.13-.16a2.01 2.01 0 0 1-.113-.677v-.08l-.016-.016-.453.355zm3.247 17.547l.275 1.7 2.102 2.726.533.677 10.897 14.032.533.693 5.724 7.355 5.173 6.677.534.678 5.2 6.677.534.677 5.706 7.37 5.173 6.645h.534l.016-.016.307-.242-.307-.403-42.922-55.257z"/><path d="M99.494 358.244l22.698 29.24 5.157 6.613.534.693 5.2 6.677.533.694 5.2 6.677.533.694 5.2 6.677.533.693 5.2 6.678.533.693 5.157 6.645h.388l.017-.13.064-.45.065-.08-.05-.064-5.14-6.613-.533-.694-5.733-7.37-42.582-54.87c-1.666-.887-2.716-1.855-3.056-2.887l.113.484zM115.7 364.4l.227.3.533.693 5.2 6.678.533.693 5.2 6.678.533.693 5.2 6.677.534.694 5.2 6.677.534.694 16.638 21.418.533.694 1.698 2.177.178-1.145-1.342-1.726-.534-.693-22.86-29.483-16.716-21.532-.808-.113-.437-.064zm12.302 1.128l5.06 6.5.533.694 5.2 6.677.533.694 5.2 6.677.533.693 5.2 6.678.534.693 5.2 6.677.534.694 3.605 4.645.178-1.145-3.783-4.887-5.733-7.37-21.663-27.886c-.356 0-.727-.016-1.1-.032zm-20.127 46.304l.275 1.7 2.053 2.645.533.677 5.707 7.37 5.173 6.645h.534l.016-.016.307-.242-.307-.403-5.733-7.37-5.707-7.355-2.86-3.66zm-2.603-16.726l5.464 7.05 5.173 6.677.533.677 10.897 14.032.533.694 5.173 6.645h.534l.016-.016.307-.242-.307-.404-28.598-36.82v.048l.178 1.145.097.516zM139.44 365.5L162 394.58l.177-1.113.017-.016-.017-.016-5.706-7.355-5.707-7.37-10.293-13.24-1.05.032zm10.703-.918l.064.097.534.693 5.2 6.678.534.693 5.2 6.678.534.693 1.73 2.226.178-1.145-1.374-1.774-.533-.694-5.707-7.37-5.367-6.903-.8.113-.16.016zm9.862-2.032l1.65 2.112.533.694 3.654 4.693.178-1.145-3.298-4.242-.534-.693-1.326-1.694-.856.275z"/></g><path d="M96.004 347.68h14.92v-4.533h-9.053c-2.83 0-5.19 1.936-5.868 4.533z" class="C"/><path d="M111.33 342.744h-9.458c-3.02 0-5.535 2.066-6.26 4.834l-.132.505h15.85v-5.34zm-.81.807v3.725H96.553c.8-2.167 2.867-3.725 5.32-3.725h8.65z" class="B D"/><path d="M101.775 343.148c4.235.05 7.937 2.87 9.07 6.952l3.443 12.467 1.488.226.986.145c3.04.42 6.353.726 9.86.903l1.05.05c1.924.08 3.912.13 5.933.13 1.552 0 3.088-.032 4.592-.08l1.115-.048c.146 0 .29-.016.437-.016l-3.816-13.774c-1.13-4.113-4.882-6.952-9.166-6.952h-24.993z" class="C"/><g class="D"><path d="M126.768 343.55c4.103 0 7.693 2.718 8.776 6.655l3.68 13.283-1.042.045-4.576.08a142.16 142.16 0 0 1-5.915-.129l-1.05-.048c-3.497-.177-6.8-.483-9.825-.9l-.975-.144-.012-.001-.004-.001a35.02 35.02 0 0 1-1.218-.182l-3.375-12.22a9.88 9.88 0 0 0-5.634-6.44h21.17zm-24.994-.404v-.403h24.994c4.465 0 8.376 2.96 9.556 7.248l3.956 14.284h-.53a3.73 3.73 0 0 0-.196.007l-.004.001c-.067.003-.146.008-.227.008l-1.112.048a141.62 141.62 0 0 1-4.604.081 143.79 143.79 0 0 1-5.95-.129h-.001l-.53-.025-.523-.024c-3.52-.178-6.845-.485-9.897-.906l-.001-.001-.98-.144-.005-.001c-.508-.065-1.014-.147-1.498-.227l-.255-.042-3.512-12.716" class="B"/><path d="M111.992 74.397l-38.17 108.45h139.775l-37.15-108.448h-64.455z"/></g><path d="M135.724 53.784c4.26 0 7.71 3.445 7.71 7.693h.97c0-4.783-3.887-8.66-8.68-8.66h-4.737c-4.794 0-8.68 3.878-8.68 8.66v105.82h.97V61.478c0-4.25 3.452-7.693 7.71-7.693h4.737z" class="B E"/><path d="M111.782 179.393v3.274h34.564v-3.274a12.02 12.02 0 0 0-2.555-7.419c-2.214-2.838-5.7-4.677-9.57-4.677h-10.298c-.162 0-.34 0-.5.016-6.483.258-11.64 5.564-11.64 12.08z" class="C"/><g class="F"><path d="M123.47 167.796c.133-.013.286-.014.453-.014h10.298c3.723 0 7.06 1.765 9.188 4.49h0a11.54 11.54 0 0 1 2.452 7.122v2.8h-33.594v-2.8c0-6.255 4.95-11.35 11.174-11.597l.014-.001.015-.001zm-.082-.964c.182-.018.374-.018.524-.018h10.31c4.036 0 7.65 1.913 9.953 4.864m-20.786-4.846c-6.735.275-12.09 5.8-12.09 12.563v3.758h35.534v-3.758a12.51 12.51 0 0 0-2.657-7.717" class="B"/><path d="M104.103 74.848h79.976v-2.5c0-5.984-4.866-10.822-10.848-10.822h-58.28a10.84 10.84 0 0 0-10.848 10.822v2.5z"/></g><g class="C"><path d="M184.483 72.85c0-.223-.18-.403-.404-.403h-79.975c-.224 0-.405.18-.405.403s.18.403.405.403h79.975c.223 0 .404-.18.404-.403z" class="B"/><path d="M112.46 74.848c0 2.855 1.78 5.177 3.994 5.177h55.967c2.2 0 3.994-2.323 3.994-5.177H112.46zm10.33 95.6c0 5.177 4.737 9.387 10.573 9.387 5.254 0 9.62-3.403 10.428-7.87a12.14 12.14 0 0 0-9.57-4.677h-10.298c-.162 0-.34 0-.5.016-.42.984-.63 2.048-.63 3.145z"/></g><g class="F"><path d="M123.755 167.783l.167-.001h10.298a11.65 11.65 0 0 1 9.052 4.32c-.86 4.1-4.937 7.26-9.908 7.26-5.623 0-10.088-4.045-10.088-8.903 0-.932.16-1.835.48-2.677zm.157-.97c-.155 0-.353 0-.54.02l-.285.028-.113.264a8.46 8.46 0 0 0-.669 3.335c0 5.495 5.008 9.87 11.058 9.87 5.45 0 10.048-3.535 10.904-8.268l.04-.213-.133-.17c-2.303-2.95-5.917-4.864-9.954-4.864h-10.308z" class="B"/><path d="M133.075 165.088v5.064c0 1.033.954 1.87 2.118 1.87s2.118-.838 2.118-1.87v-5.064h-.033c-.194.887-1.05 1.564-2.07 1.564s-1.876-.677-2.07-1.564h-.064z"/></g><path d="M133.526 164.9c0 .113.016.226.032.34.146.806.825 1.403 1.65 1.403.81 0 1.488-.597 1.65-1.403a2.29 2.29 0 0 0 .033-.339c0-.968-.744-1.742-1.682-1.742-.92 0-1.68.8-1.68 1.742z" class="C"/><path d="M135.207 163.65c.652 0 1.197.54 1.197 1.258 0 .07-.01.145-.026.256-.124.594-.617 1.002-1.17 1.002-.575 0-1.06-.413-1.17-.997l-.026-.26c0-.702.56-1.258 1.196-1.258zm2.167 1.258c0-1.217-.943-2.225-2.167-2.225-1.207 0-2.166 1.024-2.166 2.225a2.66 2.66 0 0 0 .036.396l.002.02v.01c.185 1.025 1.055 1.8 2.126 1.8 1.06 0 1.922-.78 2.125-1.792l.002-.013.002-.014c.017-.117.038-.26.038-.407z" class="B F"/><path d="M188.59 109.33h5.53v73.514h-5.53V109.33z" class="I"/><path d="M196.43 182.845h9.473c1.003 0 1.81-.807 1.81-1.807v-54.644c0-1-.808-1.806-1.81-1.806h-9.473c-1.003 0-1.81.806-1.81 1.806v54.644c0 1 .808 1.807 1.81 1.807z" class="C"/><g class="B"><path d="M205.904 124.992a1.4 1.4 0 0 1 1.406 1.403v54.644a1.4 1.4 0 0 1-1.406 1.403h-9.474a1.4 1.4 0 0 1-1.406-1.403v-54.644a1.4 1.4 0 0 1 1.406-1.403h9.474zm2.215 1.403a2.21 2.21 0 0 0-2.215-2.209h-9.474a2.21 2.21 0 0 0-2.214 2.209v54.644a2.21 2.21 0 0 0 2.214 2.21h9.474a2.21 2.21 0 0 0 2.215-2.21v-54.644z" class="D"/><path d="M187.74 129.626l-9.765 50.613a1.16 1.16 0 0 1-1.14.944h-10.88a1.16 1.16 0 0 1-1.14-1.377l9.765-50.613a1.16 1.16 0 0 1 1.14-.944h10.88a1.16 1.16 0 0 1 1.14 1.377zm.953.18c.25-1.314-.754-2.526-2.093-2.526h-10.88a2.13 2.13 0 0 0-2.093 1.732l-9.765 50.612c-.25 1.314.754 2.526 2.093 2.526h10.88a2.13 2.13 0 0 0 2.093-1.732l9.765-50.612z" class="E"/></g><path d="M209.88 182.845h51.248c1.196 0 2.166-.968 2.166-2.162v-10.467c0-1.194-.97-2.16-2.166-2.16H209.88c-1.196 0-2.166.967-2.166 2.16v10.467c0 1.194.97 2.162 2.166 2.162z" class="F"/><path d="M401.8 3.43v33.354c0 6.532 5.32 11.838 11.866 11.838h37.07c-6.548 0-11.867-5.3-11.867-11.838V3.43H401.8z" class="C"/><path d="M439.264 3.027h-37.878v33.757c0 6.755 5.5 12.242 12.27 12.242h37.07v-.806c-6.325 0-11.462-5.1-11.462-11.435V3.027zm7.072 45.192h-32.68a11.46 11.46 0 0 1-11.462-11.435V3.834h36.26v32.95c0 5.225 3.275 9.675 7.88 11.435z" class="B D"/><path d="M418.9.205h2.99v7.113h-2.99V.205z" class="F"/><path d="M412.573 16.1a1.76 1.76 0 0 0 1.18-.468l1.245-1.097a.95.95 0 0 1 1.293 0l1.18 1.048c.695.613 1.665.613 2.377 0l1.083-.952a.95.95 0 0 1 1.293 0l1.002.887c.695.613 1.665.613 2.377 0l.824-.726a.95.95 0 0 1 1.294 0l.9.8c.695.613 1.665.613 2.376 0l.825-.726a.95.95 0 0 1 1.293 0c.162.145.42.13.566-.032s.13-.42-.033-.565c-.695-.613-1.665-.613-2.376 0l-.824.726a.95.95 0 0 1-1.294 0l-.9-.8c-.695-.613-1.665-.613-2.376 0l-.825.726a.95.95 0 0 1-1.293 0l-1.003-.887c-.695-.613-1.665-.613-2.376 0l-1.083.952a.95.95 0 0 1-1.293 0l-1.18-1.048c-.695-.613-1.665-.613-2.376 0l-1.245 1.097a.95.95 0 0 1-1.293 0l-1.293-1.145c-.696-.613-1.666-.613-2.377 0-.162.145-.178.403-.032.564s.404.177.566.032a.95.95 0 0 1 1.293 0l1.293 1.145c.388.306.792.468 1.213.468zm0 6.628a1.76 1.76 0 0 0 1.18-.468l1.245-1.097a.95.95 0 0 1 1.293 0l1.18 1.048c.695.613 1.665.613 2.377 0l1.083-.952a.95.95 0 0 1 1.293 0l1.002.887c.695.613 1.665.613 2.377 0l.824-.726a.95.95 0 0 1 1.294 0l.9.8c.695.613 1.665.613 2.376 0l.825-.726a.95.95 0 0 1 1.293 0c.162.145.42.13.566-.032s.13-.42-.033-.564c-.695-.613-1.665-.613-2.376 0l-.824.726a.95.95 0 0 1-1.294 0l-.9-.8c-.695-.613-1.665-.613-2.376 0l-.825.726a.95.95 0 0 1-1.293 0l-1.003-.887c-.695-.613-1.665-.613-2.376 0l-1.083.952a.95.95 0 0 1-1.293 0l-1.18-1.048c-.695-.613-1.665-.613-2.376 0l-1.245 1.097a.95.95 0 0 1-1.293 0l-1.293-1.145c-.696-.613-1.666-.613-2.377 0-.162.145-.178.403-.032.565s.404.177.566.032a.95.95 0 0 1 1.293 0l1.293 1.145c.388.323.792.468 1.213.468zm0 6.63a1.76 1.76 0 0 0 1.18-.468l1.245-1.097a.95.95 0 0 1 1.293 0l1.18 1.048c.695.613 1.665.613 2.377 0l1.083-.952a.95.95 0 0 1 1.293 0l1.002.887c.695.613 1.665.613 2.377 0l.824-.726a.95.95 0 0 1 1.294 0l.9.8c.695.613 1.665.613 2.376 0l.825-.726a.95.95 0 0 1 1.293 0c.162.145.42.13.566-.032s.13-.42-.033-.565c-.695-.613-1.665-.613-2.376 0l-.824.726a.95.95 0 0 1-1.294 0l-.9-.8c-.695-.613-1.665-.613-2.376 0l-.825.726a.95.95 0 0 1-1.293 0l-1.003-.887c-.695-.613-1.665-.613-2.376 0l-1.083.952a.95.95 0 0 1-1.293 0l-1.18-1.048c-.695-.613-1.665-.613-2.376 0l-1.245 1.097a.95.95 0 0 1-1.293 0l-1.293-1.145c-.696-.613-1.666-.613-2.377 0-.162.145-.178.403-.032.564s.404.177.566.032a.95.95 0 0 1 1.293 0l1.293 1.145c.388.323.792.468 1.213.468zm0 6.643a1.76 1.76 0 0 0 1.18-.468l1.245-1.097a.95.95 0 0 1 1.293 0l1.18 1.048c.695.613 1.665.613 2.377 0l1.083-.952a.95.95 0 0 1 1.293 0l1.002.887c.695.613 1.665.613 2.377 0l.824-.726a.95.95 0 0 1 1.294 0l.9.8c.695.613 1.665.613 2.376 0l.825-.726a.95.95 0 0 1 1.293 0c.162.145.42.13.566-.032s.13-.42-.033-.564c-.695-.613-1.665-.613-2.376 0l-.824.726a.95.95 0 0 1-1.294 0l-.9-.8c-.695-.613-1.665-.613-2.376 0l-.825.726a.95.95 0 0 1-1.293 0l-1.003-.887c-.695-.613-1.665-.613-2.376 0l-1.083.952a.95.95 0 0 1-1.293 0l-1.18-1.048c-.695-.613-1.665-.613-2.376 0l-1.245 1.097a.95.95 0 0 1-1.293 0l-1.293-1.145c-.696-.613-1.666-.613-2.377 0-.162.145-.178.403-.032.565s.404.177.566.032a.95.95 0 0 1 1.293 0l1.293 1.145c.388.306.792.468 1.213.468z" class="D"/><path d="M363.622 3.43h25.93V29.3h-25.93V3.43z" class="E"/><path d="M383.856 2.327l1.877-2.323 6.847 5.533-1.877 2.323-6.847-5.533zm-21.58 5.52l-1.88-2.32L367.25 0l1.88 2.32-6.853 5.525z" class="D"/><path d="M369.102 9.56h15.73v.968h-15.73V9.56zm0 4.176h15.73v.968h-15.73v-.968zm0 4.194h15.73v.968h-15.73v-.968zm0 4.177h15.73v.968h-15.73v-.968zm-104.597 160.74h60.446l-11.704-25.806-1.714-3.8h-33.6l-4.72 10.403-8.698 19.193z" class="C"/><g class="E"><path d="M311.847 152.766H277.61l-4.85 10.687-9.007 19.876h61.95l-13.857-30.563zm-.626.967l12.98 28.63h-58.943l12.98-28.63h32.984z" class="B"/><path d="M273.203 163.653l40.045-6.613-1.714-3.8h-33.6l-4.72 10.403z"/></g><path d="M223.492 153.25h142.28c5.222 0 9.44-4.225 9.44-9.42V51.17c0-5.2-4.235-9.42-9.44-9.42h-142.28c-5.222 0-9.44 4.226-9.44 9.42v92.643c0 5.21 4.235 9.435 9.44 9.435z" class="C"/><g class="E"><path d="M365.772 42.235c4.938 0 8.956 3.993 8.956 8.935v92.66a8.95 8.95 0 0 1-8.956 8.935h-142.28c-4.937 0-8.956-4.01-8.956-8.952V51.17c0-4.927 4.002-8.935 8.956-8.935h142.28zm9.926 8.935c0-5.477-4.453-9.903-9.926-9.903h-142.28c-5.5 0-9.926 4.443-9.926 9.903v92.642c0 5.477 4.452 9.92 9.926 9.92h142.28c5.5 0 9.926-4.443 9.926-9.903V51.17z" class="B"/><path d="M323.158 146.7h-57.035c-2.78 0-5.028-2.242-5.028-5.016v-6.887c0-2.774 2.247-5.016 5.028-5.016h57.035c2.78 0 5.028 2.242 5.028 5.016v6.887a5.03 5.03 0 0 1-5.028 5.016z"/></g><g class="C"><path d="M308.187 142.104h-3.847a1.73 1.73 0 0 1-1.73-1.726v-3a1.73 1.73 0 0 1 1.73-1.726h3.847a1.73 1.73 0 0 1 1.73 1.726v3a1.73 1.73 0 0 1-1.73 1.726zm4.898-.5l-1.423-.903c-.388-.242-.63-.678-.63-1.145v-1.355c0-.468.242-.903.63-1.145l1.423-.903c.34-.2.776.032.776.42v4.597c.016.403-.437.645-.776.435zm-19.48-1.018h-.355c-1.407 0-2.555-1.145-2.555-2.548v-1.5a.25.25 0 0 1 .243-.242h4.963c.13 0 .242.113.242.242v1.5c.016 1.403-1.13 2.548-2.538 2.548zm-2.425-3.806v1.258a2.07 2.07 0 0 0 2.07 2.064h.355a2.07 2.07 0 0 0 2.069-2.064v-1.258h-4.494zm2.248 6.596c-.13 0-.242-.113-.242-.242v-1.823c0-.13.113-.242.242-.242s.242.113.242.242v1.823c0 .13-.113.242-.242.242z"/><path d="M294.704 143.376h-2.538c-.13 0-.243-.112-.243-.24a.25.25 0 0 1 .243-.242h2.538c.13 0 .242.112.242.242s-.113.24-.242.24zm-1.164-3.918h-.227c-.808 0-1.455-.645-1.455-1.452v-2.935c0-.807.647-1.452 1.455-1.452h.227c.808 0 1.454.645 1.454 1.452v2.935c0 .807-.646 1.452-1.454 1.452zm-14.87-1.823l-.016.016c-.307.37-.2.936.194 1.275l1.487 1.193c.404.323.986.3 1.293-.08l.017-.016c.307-.37.9-.387 1.277-.048l1.342 1.2c.42.387.42 1.032 0 1.322-1.407.984-3.234.63-4.737-.58l-2.264-1.822c-1.503-1.226-2.23-2.935-1.568-4.516.2-.484.84-.613 1.294-.274l1.47 1.064c.404.323.5.887.2 1.258zm3.944.937c-.13 0-.227-.097-.243-.226-.08-1.16-1.083-2.048-2.247-1.968-.13 0-.243-.096-.26-.225s.097-.242.227-.258c1.438-.097 2.667 1 2.764 2.42.016.13-.08.242-.242.258zm1.52-.242c-.13 0-.226-.097-.242-.226-.065-.968-.5-1.87-1.245-2.516s-1.68-.968-2.65-.903c-.13 0-.243-.097-.26-.226s.097-.242.226-.258a4.19 4.19 0 0 1 3.007 1.016 4.12 4.12 0 0 1 1.407 2.84c.016.16-.097.274-.243.274z"/></g><g class="B"><path d="M250.473 47.525c.706 0 1.277.57 1.277 1.274s-.57 1.274-1.277 1.274-1.277-.57-1.277-1.274.572-1.274 1.277-1.274zm2.086 1.274c0-1.15-.934-2.08-2.086-2.08a2.08 2.08 0 1 0 0 4.16c1.152 0 2.086-.93 2.086-2.08zm-8.957-1.274c.705 0 1.277.57 1.277 1.274s-.572 1.274-1.277 1.274-1.277-.57-1.277-1.274.572-1.274 1.277-1.274zm2.086 1.274c0-1.15-.934-2.08-2.086-2.08a2.08 2.08 0 1 0 0 4.16c1.152 0 2.086-.93 2.086-2.08zm-8.972-1.274c.706 0 1.277.57 1.277 1.274s-.57 1.274-1.277 1.274-1.277-.57-1.277-1.274.572-1.274 1.277-1.274zm2.086 1.274c0-1.15-.934-2.08-2.086-2.08a2.08 2.08 0 0 0-2.085 2.08c0 1.15.934 2.08 2.085 2.08s2.086-.93 2.086-2.08z" class="D"/><path d="M351.286 93.49a2.31 2.31 0 0 1 2.312 2.306v27.064a2.31 2.31 0 0 1-2.312 2.307H300.62a2.31 2.31 0 0 1-2.312-2.307V95.798a2.31 2.31 0 0 1 2.312-2.306h50.665zm3.282 2.306a3.28 3.28 0 0 0-3.282-3.274H300.62a3.28 3.28 0 0 0-3.282 3.274v27.064a3.28 3.28 0 0 0 3.282 3.275h50.665a3.28 3.28 0 0 0 3.282-3.275V95.798z" class="E"/></g><path d="M236.716 125.652h50.665c1.552 0 2.797-1.258 2.797-2.8V95.798c0-1.548-1.26-2.8-2.797-2.8h-50.665c-1.552 0-2.797 1.258-2.797 2.8v27.064c0 1.532 1.245 2.8 2.797 2.8z" class="I"/><path d="M246.286 125.57h33.11c-3.346-4.112-8.455-6.758-14.178-6.758h-4.753c-5.723.017-10.83 2.646-14.178 6.758z" class="F"/><g class="C"><path d="M263.875 118.83a4.97 4.97 0 0 0 4.931 4.306c1.86 0 3.476-1.016 4.333-2.516a18.28 18.28 0 0 0-7.906-1.79h-1.358z"/><path d="M254.095 119.958a4.97 4.97 0 0 0 9.571-1.146h-3.218c-2.23.017-4.365.404-6.353 1.146z"/></g><path d="M257.732 111.637v7.322c0 1.145 2.296 2.065 5.11 2.065a14.63 14.63 0 0 0 1.487-.081c2.102-.258 3.62-1.048 3.62-1.984v-7.322h-10.217z" class="H"/><path d="M258.41 113.135c0 3.178 2.78 7.032 5.917 7.8 2.102-.258 3.62-1.048 3.62-1.983v-7.323h-9.376l-.162 1.516z" class="G"/><path d="M255.114 110.7v.178a2.27 2.27 0 0 0 2.263 2.258h2.166c.986 2.113 3.137 3.564 5.626 3.564h.42c2.78 0 5.028-2.242 5.028-5.016v-5.177c-3.217.2-7.307-2.597-7.307-2.597-1.342 5.177-5.173 5.113-6.952 4.774-.727.37-1.244 1.145-1.244 2.016z" class="H"/><path d="M258.298 111.492a.25.25 0 0 0 .243-.242c0-1.032-.84-1.87-1.876-1.87-.13 0-.242.113-.242.242s.113.242.242.242a1.39 1.39 0 0 1 1.391 1.387c0 .13.113.242.242.242z" class="G"/><path d="M257.732 113.136h-.356a2.27 2.27 0 0 1-2.263-2.258v-.177a2.24 2.24 0 0 1 1.245-2.017c.485.097 1.148.162 1.86.113 1.843-.145 4.122-1.145 5.092-4.887 0 0 4.09 2.807 7.308 2.597.598-.032 1.164-.177 1.665-.468 2.667-1.516-3.783-8.612-11.187-7.548-5.917.855-5.788 7.92-5.675 9.597a7.74 7.74 0 0 0-.873-.049c-4.332 0-7.84 3.323-7.84 7.436 0 2.677 1.487 5.032 3.734 6.338a18.13 18.13 0 0 1 7.291-2.79v-5.887z" class="D"/><path d="M267.35 111.668c.032 0 .065 0 .08-.016.13-.05.194-.194.145-.307 0-.016-.485-1.322.324-2.726.695-1.2 2.23-1 2.295-.984.13.017.26-.064.275-.2.016-.13-.065-.258-.2-.274-.08-.017-1.924-.275-2.797 1.225-.92 1.597-.372 3.08-.356 3.13.065.097.146.162.243.162zm-5.5-3.063c.048 0 .097-.017.145-.05 1.407-1.08 3.282-.95 3.298-.95.13.016.243-.097.26-.226s-.097-.242-.226-.258c-.08 0-2.07-.145-3.622 1.048-.113.08-.13.226-.048.34.064.064.13.097.194.097z" class="G"/><path d="M268.192 112.217s-.388 2.548-3.023.064c0 0 1.843.242 3.023-.064z" class="C"/><g class="G"><use xlink:href="#B"/><path d="M269.177 109.944c-.16 0-.29-.282-.29-.63s.13-.63.29-.63.29.28.29.63-.13.63-.29.63z"/></g><path d="M237.347 88.67h50.666c1.552 0 2.797-1.258 2.797-2.8V58.816c0-1.548-1.26-2.8-2.797-2.8h-50.666c-1.552 0-2.796 1.258-2.796 2.8V85.88c0 1.532 1.26 2.8 2.796 2.8z" class="E"/><path d="M247.662 88.67h30.926c-3.12-4.145-7.89-6.8-13.24-6.8h-4.446c-5.35 0-10.12 2.645-13.24 6.8z" class="D"/><path d="M264.765 87.283h-.695a5.48 5.48 0 0 1-5.48-5.468V77.93c0-.016.016-.032.032-.032h10.17c.016 0 .032.016.032.032v5.34a4.05 4.05 0 0 1-4.058 4.016z" class="C"/><path d="M268.808 77.897v5.45c-.145 3-7.63 1.823-9.878-5.45h9.878z" class="D"/><path d="M255.632 75.557c0 .645.26 1.226.695 1.66.42.42 1.002.677 1.665.677h2.215a5.56 5.56 0 0 0 5.206 3.581h1.73c2.41 0 4.35-1.952 4.35-4.34v-6.774c-2.49.2-4.59-1.8-4.672-1.87.032.113 1.293 3.66-1.568 3.855-2.845.194-3.783-1.855-3.815-1.935 0 .08-.016 2.822-2.264 2.968h-1.18c-1.31 0-2.36.887-2.36 2.177z" class="C"/><path d="M258.962 73.38h.194c2.247-.145 2.263-2.87 2.263-2.968.032.08.986 2.13 3.815 1.935 2.846-.194 1.6-3.742 1.57-3.855.08.065 2.182 2.08 4.672 1.87a4.2 4.2 0 0 0 1.665-.5c3.637-1.968 1.293-6.016-2.28-6.064-2.845-.032-4.057 1.516-4.057 1.516s-.615-3.177-4.107-2.63-2.86 3.63-2.86 3.63-2.926-1.355-4.543 1.145c-1.908 2.935.954 5.92 3.67 5.92z" class="F"/><g class="D"><path d="M268.517 76.33h.065c.13-.032.2-.16.178-.3 0-.016-.388-1.613.307-2.92.76-1.387 2.07-1.16 2.118-1.16.13.016.258-.064.275-.194.032-.13-.065-.258-.194-.274-.017 0-1.714-.306-2.636 1.403-.792 1.468-.37 3.194-.355 3.258.048.097.145.177.242.177zm-.857 1.873a3.27 3.27 0 0 0 .873-.113.241.241 0 0 0-.113-.468c-.08.016-1.924.5-2.603-.92-.064-.113-.194-.177-.323-.113s-.178.194-.113.323c.47 1.016 1.455 1.3 2.28 1.3z"/><use xlink:href="#B" x="1.181" y="-35.673"/><path d="M270.343 74.268c-.16 0-.3-.282-.3-.63s.13-.63.3-.63.3.282.3.63-.13.63-.3.63zm-11.138 2.177c.13 0 .242-.113.242-.242 0-1.032-.84-1.87-1.875-1.87-.13 0-.242.113-.242.242s.113.242.242.242a1.39 1.39 0 0 1 1.39 1.387c0 .13.113.242.243.242zm42.062 12.225h50.666c1.552 0 2.796-1.258 2.796-2.8V58.816c0-1.548-1.26-2.8-2.796-2.8h-50.666c-1.552 0-2.797 1.258-2.797 2.8V85.88c-.016 1.532 1.245 2.8 2.797 2.8z"/></g><path d="M313.506 88.67h31.427c-3.17-4.726-8.018-7.742-13.45-7.742h-4.527c-5.432 0-10.266 3.016-13.45 7.742z" class="C"/><path d="M313.506 88.67h31.427l-.3-.42c-.016-.032-.032-.065-.065-.08h-30.732c-.016.032-.032.048-.065.08l-.274.42zm1.324-1.758h28.776l-.436-.5h-27.903l-.437.5zm1.78-1.84h25.22l-.582-.5H317.2l-.582.5zm2.715-2.015h19.803l-.905-.5h-17.977l-.92.5z" fill="#feb040"/><path d="M324.208 74.895v7.2c0 .742 2.295 1.34 5.108 1.34 2.75 0 4.996-.564 5.11-1.3v-7.258h-10.217z" fill="#e57281"/><path d="M324.275 74.895v.16c0 3.548 4.413 7.613 7.598 8.08.5.08 2.053-.226 2.538-1V74.88h-10.136v.016z" fill="#9a3b82"/><path d="M321.427 72.622v.16a2.27 2.27 0 0 0 2.263 2.258h1.956a5.35 5.35 0 0 0 5.157 3.903h2.086c2.31 0 4.203-1.87 4.203-4.193v-9.177c-3.88 1.08-10.815.064-10.815.064s.63 2.258-.566 4.7h-2.037a2.29 2.29 0 0 0-2.247 2.274z" fill="#e57281"/><path d="M323.77 70.075h1.843c1.568-2.645.68-4.403.68-4.403s6.935 1 10.815-.064c1.762-.484 2.894-1.403 2.474-3.032-1.342-5.226-15.795.34-16.797 2.226-1.02 1.887.986 5.274.986 5.274z" class="C"/><path d="M336.495 60.772c1.505.177 2.488.767 2.774 1.882h0c.186.717.028 1.24-.344 1.648-.4.428-1.044.757-1.902.993-1.885.517-4.544.537-6.76.42l-2.79-.226-.832-.098-.266-.035-.03-.004-.005-.001-.615-.09.28.552.001.001h0l.024.056.068.204c.053.184.1.46.122.816.023.68-.117 1.662-.79 2.86h-1.467l-.197-.38c-.167-.34-.38-.808-.56-1.333s-.33-1.098-.37-1.644.023-1.045.237-1.443v-.002c.037-.07.12-.17.27-.303s.34-.274.577-.43c.477-.31 1.114-.656 1.864-1.005a30.98 30.98 0 0 1 5.354-1.881c1.938-.483 3.858-.737 5.36-.56zm-12.723 9.302l-.278.164.093.16h2.212l.094-.158c.816-1.376 1-2.537.973-3.37-.012-.326-.055-.6-.106-.812l.643.074 2.826.23c2.222.117 4.972.105 6.966-.443.905-.248 1.698-.62 2.208-1.18.53-.58.728-1.33.493-2.243-.385-1.498-1.712-2.172-3.325-2.362s-3.624.085-5.592.575c-1.974.492-3.936 1.208-5.47 1.922-.767.357-1.434.716-1.945 1.05a5.69 5.69 0 0 0-.653.487c-.173.153-.32.315-.41.482-.294.545-.36 1.18-.313 1.797s.21 1.25.403 1.805.418 1.053.594 1.41l.22.42.065.116.018.03.004.008.002.002v.001a20.07 20.07 0 0 0 .279-.164z" fill="#feb040" class="B"/><g fill="#9a3b82"><path d="M330.95 75.025c.048.048.097.064.162.064s.13-.032.177-.08l.227-.242c.695.613 1.358.92 1.972.92.065 0 .13 0 .178-.016.68-.064 1.018-.516 1.034-.532.08-.113.065-.258-.048-.34s-.26-.064-.34.048c-.016.016-.242.306-.7.355-.517.048-1.115-.226-1.762-.8l.13-.145c.097-.097.08-.258-.016-.34-.097-.097-.258-.08-.34.016l-.68.742c-.097.097-.08.242.016.34zm-2.46-4.807c.065 0 .13-.016.178-.064 1.423-1.387 3.233-1.113 3.25-1.113.13.016.26-.064.275-.194s-.064-.258-.194-.274a4.44 4.44 0 0 0-3.67 1.242c-.097.097-.097.242 0 .34.033.048.097.064.162.064zm5.515 3.387c.016 0 .048 0 .064-.016.13-.032.194-.177.162-.306 0-.016-.5-1.66.307-3.065.695-1.2 2.263-.84 2.28-.822a.24.24 0 0 0 .29-.177c.032-.13-.05-.258-.178-.3-.663-.16-2.118-.16-2.813 1.064-.922 1.597-.388 3.37-.356 3.45.05.097.13.16.243.16zm1.81-1.888c-.16 0-.3-.282-.3-.63s.13-.63.3-.63.3.282.3.63-.13.63-.3.63z"/><use xlink:href="#B" x="66.653" y="-38.224"/><path d="M324.952 73.444c.13 0 .243-.113.243-.242a1.91 1.91 0 0 0-1.908-1.903c-.13 0-.242.113-.242.242s.113.242.242.242c.792 0 1.423.63 1.423 1.42 0 .13.097.242.242.242z"/></g><path d="M241.726 377.71l.68-.194 5.287 17.274 19.9-5.21.243-.226s80.59-63.015 84.825-93.256c4.22-30.24-29.536-58.934-29.536-58.934s-71.99 135.755-80.897 140.2c-.177.097-.355.2-.5.355z" class="H"/><path d="M306.085 268.923c2.52 13.468 11.38 40.74 20.547 67.128 13.58-14.597 24.54-29.322 26.028-39.967 2.683-19.16-9.9-37.725-19.48-48.725-3.508-2.806-7.29-5.387-11.38-7.693l-15.713 29.257z" class="G"/><path d="M196.493 389.34l29.6 18.952 8.584-1.29 7.906 5-2.555 5.226 13.014 8.338c17.25-15.66 14.81-36.03 14.81-36.03l-20.143 5.274-5.287-17.274s-18.1 5.274-31.444 4.823c-13.385-.452-14.485 6.983-14.485 6.983z" class="C"/><g class="B F"><path d="M242.746 376.934l-.46.134.136.464-.136-.464-.012.003-.04.01-.152.044-.593.165-2.224.59-7.655 1.76c-6.182 1.26-13.998 2.456-20.616 2.232-6.786-.23-10.544 1.54-12.61 3.45-1.027.95-1.62 1.922-1.954 2.662-.167.37-.27.683-.333.907-.03.11-.052.2-.065.265-.007.032-.01.058-.015.077-.001.01-.003.017-.004.023l-.001.007v.004s0 .001.48.07l-.48-.07-.046.31 30.018 19.218 8.586-1.3 7.386 4.67-2.554 5.223 13.7 8.772.276-.25c8.715-7.913 12.458-17.02 14.02-24.143.78-3.56 1.017-6.63 1.06-8.81a34.42 34.42 0 0 0-.042-2.558l-.05-.7-.017-.18c-.003-.02-.004-.036-.006-.047l-.001-.013v-.004l-.001-.001s0-.001-.48.057l.48-.058-.066-.55-20.23 5.297-5.3-17.286zm24.673 13.21l.02.32a33.67 33.67 0 0 1 .04 2.485c-.04 2.13-.272 5.132-1.037 8.62a44.41 44.41 0 0 1-13.451 23.384l-12.337-7.905 2.556-5.228-8.425-5.328-8.583 1.3-29.16-18.668a5.49 5.49 0 0 1 .273-.733c.3-.64.8-1.5 1.73-2.35 1.83-1.695 5.316-3.417 11.916-3.194 6.735.228 14.64-.987 20.843-2.25a161.62 161.62 0 0 0 7.702-1.769l2.24-.594.35-.097 5.284 17.265 20.038-5.247z"/><path d="M229.715 379.206l.183-1.47.776-4.462c.353-1.6.8-3.2 1.394-4.38.3-.582.63-1.095 1.036-1.437.422-.355.94-.544 1.52-.4h.001l.001.001c.58.155.953.6 1.176 1.115.22.517.312 1.16.32 1.854.018 1.392-.302 3.116-.825 4.748s-1.266 3.217-2.125 4.318c-.43.55-.9 1.005-1.433 1.272-.538.274-1.13.35-1.724.107-1-.4-1.943-1.347-2.778-2.438-.845-1.104-1.627-2.43-2.3-3.694l-1.606-3.4-.45-1.085-.12-.303-.03-.08-.008-.02-.003-.007c0-.001 0-.001.454-.17l.454-.17v.001l.002.004.007.02.146.37.44 1.062 1.573 3.322c.65 1.24 1.404 2.512 2.203 3.556.575.75 1.15 1.354 1.706 1.75zm.927.446c.206.024.422-.02.657-.14.35-.178.726-.515 1.1-1.005.764-.978 1.462-2.448 1.966-4.018s.795-3.185.78-4.44c-.008-.63-.094-1.135-.245-1.5-.147-.346-.332-.503-.533-.558s-.402-.01-.645.195c-.26.22-.528.596-.794 1.13-.528 1.06-.966 2.577-1.315 4.158l-.762 4.384-.182 1.465-.035.32zm-33.177 7.518l28.17 17.547 9.35-1.5 9.812 5.85 19.974-.3-.015-.967-19.698.304-9.878-5.9-9.34 1.5-27.862-17.355-.514.82z"/><path d="M236.56 387.56l-1.843-8.564-.95.203 1.843 8.564.95-.203zm-4 .967l-1.843-8.564-.948.203 1.843 8.564.948-.203zm-4.188.695l-1.843-8.564-.95.203 1.843 8.565.95-.204z"/></g><path d="M329.962 230.57s-11.85 5.516-11.85 25.742c0 19.548 45.234 139.254 45.234 139.254l13.92 11.774 14.13-15.435c-6.904-6.548 12.916-124.932-61.433-161.335z" class="H"/><path d="M331.223 430.275l35.178.032 6.53-5.71 9.36-.05.68 5.774 13.8.016c7.5-23.29-5.432-38.45-5.432-38.45l-14.033 15.42-14.016-11.758s-12.157 14.225-23.635 21.032c-11.51 6.822-8.423 13.693-8.423 13.693z" class="C"/><g class="B F"><path d="M391.34 391.156l-14.09 15.482-14.028-11.767-.312.365.37.314-.37-.314-.008.01-.026.03-.103.12-.403.46-1.528 1.698-5.417 5.616c-4.466 4.4-10.342 9.624-16.03 12.997-5.836 3.46-8.043 6.976-8.75 9.7-.35 1.356-.325 2.493-.208 3.3.06.402.14.72.21.944a3.61 3.61 0 0 0 .089.259l.016.042.013.03a.22.22 0 0 0 .009.021l.003.007v.003c0 .001 0 .001.443-.197l-.443.198.13.286 35.674.032 6.533-5.7 8.745-.045.68 5.77 14.575.017.108-.336c3.788-11.76 2.418-21.48.094-28.264-1.16-3.4-2.56-6.045-3.67-7.855a29.65 29.65 0 0 0-1.386-2.07 18.65 18.65 0 0 0-.408-.535c-.048-.06-.086-.107-.112-.138l-.03-.036-.008-.01-.004-.004s0-.001-.37.313l.37-.314-.358-.42zm-.037 1.48l.176.236a28.48 28.48 0 0 1 1.34 2.001c1.08 1.76 2.445 4.35 3.58 7.663 2.245 6.555 3.587 15.94.007 27.318l-13.004-.015-.68-5.777-9.975.052-6.53 5.708-34.653-.03a5.57 5.57 0 0 1-.166-.767c-.1-.696-.128-1.702.187-2.917.627-2.417 2.63-5.746 8.306-9.1 5.79-3.434 11.733-8.725 16.215-13.14a155.66 155.66 0 0 0 5.452-5.652l1.54-1.712.235-.267 14.007 11.75 13.962-15.34z"/><path d="M347.082 390.585c-.72-.1-1.414.08-2.016.6-.597.518-.872 1.163-.87 1.872.002.684.26 1.395.652 2.087.782 1.383 2.2 2.856 3.678 4.188 1.498 1.34 3.116 2.567 4.356 3.46l1.434 1a5.41 5.41 0 0 1-.59.019c-.582-.01-1.317-.083-2.156-.2-1.677-.25-3.723-.694-5.713-1.177l-5.337-1.403-1.712-.5-.64-.19-.28.927.043.013.06.018.544.16 1.72.492 5.37 1.4 5.8 1.195c.86.128 1.64.2 2.284.22.615.01 1.2-.042 1.6-.256.534-.293.633-.927.614-1.46-.02-.576-.184-1.287-.44-2.055-.515-1.542-1.444-3.43-2.56-5.164s-2.44-3.35-3.77-4.325c-.664-.488-1.363-.84-2.062-.935zm7.86 12.463l-1.493-1.042-4.276-3.395c-1.472-1.316-2.78-2.702-3.48-3.943-.35-.62-.526-1.16-.527-1.614-.001-.428.152-.805.536-1.138a1.49 1.49 0 0 1 1.248-.373c.477.066 1.024.32 1.62.756 1.2.874 2.442 2.382 3.527 4.07 1.082 1.68 1.972 3.495 2.457 4.947.235.703.366 1.294.4 1.733zm43.938 7.104l-.518-.818-16.387 10.312h-11.498l-7.26 6.08h-32.27v.967h32.622l7.26-6.08h11.425l16.625-10.462z"/><path d="M364.885 406.336l-6.208-6.193-.686.684 6.208 6.193.686-.684zm-2.845 2.984l-6.208-6.193-.686.684 6.208 6.194.686-.685zm-3.137 2.838l-6.208-6.193-.685.684 6.207 6.193.686-.684z"/></g><path d="M329.963 230.57c27.952 13.677 42.598 38.967 50.342 65.53h84.825c21.712 0 37.894-19.984 33.32-41.16l-6.224-28.837H344.74a26.55 26.55 0 0 0-14.776 4.467z" class="F"/><path d="M392.948 258.215l-30.538-.065 4.526 7.404 26.012-7.34z" class="H"/><g class="B C"><path d="M460.052 225.63c-.262.055-.43.31-.375.573l1.18 5.645c2.782 13.328-7.4 25.836-21.043 25.836h-77.14c-8.138-11.246-18.76-20.904-32.658-27.708-.24-.118-.53-.02-.65.22s-.02.53.22.648c13.824 6.767 24.37 16.39 32.444 27.605l.145.202h77.637c14.26 0 24.9-13.073 21.992-27.002l-1.18-5.645c-.054-.26-.31-.43-.574-.375z"/><path d="M393.413 258.065c-.074-.257-.343-.405-.6-.33l-26.293 7.527.32.54c5.65 9.49 9.805 19.852 12.885 30.42.074.257.343.404.6.33s.405-.344.33-.6c-3.038-10.427-7.125-20.677-12.663-30.104l25.086-7.182c.258-.074.407-.342.333-.6z"/></g><g class="I"><path d="M512.045 148.634L496.51 209.44h28.986c16.878 0 27.742-17.886 19.917-32.805l-22.26-42.467c-6.305-12.016-18.77-19.548-32.365-19.548h-5.254c17.848-.016 30.926 16.758 26.513 34.015z"/><path d="M333.148 132.862c-9.134 0-16.732-1.21-18.575-2.903l28.34 61.29c5.125 11.096 16.264 18.193 28.502 18.193a31.31 31.31 0 0 0 10.443-1.79c3.33-1.178 6.467-2.904 9.264-5.162l17.863-14.386s1.78 10.435 14.47 13.096v24.87h68.788l19.804-77.45c4.413-17.258-8.665-34.048-26.513-34.048h-48.16a50.42 50.42 0 0 0-12.481 1.565c-11.058 2.806-20.984 9.3-28 18.58l-23.538 31.16-21.146-36.87c0 .033.016.08.016.113-.016 2.145-8.568 3.742-19.076 3.742z"/></g><path d="M512.323 148.167c-.26-.065-.523.094-.587.353l-15.213 61.3c-.064.26.094.522.354.586s.523-.094.587-.354l15.213-61.288c.064-.26-.094-.522-.354-.586zM422.67 174.22c-.195-.183-.502-.173-.685.02l-13.515 14.355c-.184.195-.174.5.02.684s.502.173.686-.02l13.515-14.355c.183-.195.174-.5-.022-.684z" class="B C"/><path d="M314.15 129.056l.42.903c1.843 1.7 9.44 2.903 18.575 2.903 10.508 0 19.06-1.596 19.06-3.71 0-.033 0-.08-.016-.113-.29-2.065-8.73-3.84-19.06-3.84-10.314 0-18.69 1.774-18.98 3.855z" class="F"/><path d="M305.682 98.09c0 .92.227 1.823.647 2.613s1.035 1.484 1.794 2.016l.372.258 2.894 15.403a9.24 9.24 0 0 0 4.106 6.08l3.96 2.517 3.136 2 1.455 3.468c2.7.274 5.788.436 9.086.436l9.2-.452V108.54c0-1.032-.227-2.048-.663-2.983l-5.27-11.323s-5.755 1.42-3.103 8.468c2.408 6.403-3.088 4.758-6.176 3.613-2.764-1.033-14.84-7.16-19.56-9.403-.873-.42-1.876.226-1.876 1.177z" class="H"/><path d="M310.65 112.128c-.22.04-.364.252-.323.47a9.61 9.61 0 0 0 4.286 6.33l7.097 4.516c.188.12.438.064.558-.123s.065-.437-.123-.557l-7.097-4.516a8.8 8.8 0 0 1-3.927-5.8.4.4 0 0 0-.47-.322zm-1.163-6.533a.4.4 0 0 0-.323.47c.5 2.6 2.042 4.9 4.286 6.33l7.097 4.517c.188.12.438.064.558-.124a.4.4 0 0 0-.123-.556l-7.097-4.516c-2.057-1.312-3.48-3.4-3.927-5.8a.4.4 0 0 0-.47-.322zm-.817-2.658c-.12.188-.064.437.124.557l11.414 7.225c.188.12.438.064.558-.124s.063-.437-.125-.557l-11.414-7.225c-.188-.12-.438-.064-.557.124z" class="B G"/><path d="M318.84 126.572l.63.403 3.137 2 1.455 3.468c2.7.274 5.787.435 9.085.435l9.2-.45v-6.7c-2.732-.322-5.87-.5-9.2-.5-5.707-.016-10.815.516-14.307 1.355z" class="G"/><path d="M426.395 115.766c2.344 3.145 11.074 10.548 40.464 10.548 37.813 0 13.612-11.677 13.612-11.677l-16.037-26.725-17.2 10.532v8.468c0 4.274-3.475 7.725-7.743 7.725h-1.116c-4.01-.016-8.148.162-11.98 1.13z" class="H"/><path d="M447.25 98.43v2.162l33.238 14.032-16.037-26.725-17.2 10.532z" class="G"/><path d="M446.345 99.476h-3.654c-3.363 0-6.095-2.726-6.095-6.08V73.1h21.81v14.355c0 6.645-5.4 12.032-12.06 12.032z" class="H"/><g class="G"><path d="M439.998 90.402V90.4H440m0 0l-.03.046a2.2 2.2 0 0 1-.117.154 3.12 3.12 0 0 1-.512.49c-.467.357-1.203.723-2.274.723-.224 0-.405.18-.405.403s.18.403.405.403c1.272 0 2.177-.44 2.765-.9a3.92 3.92 0 0 0 .646-.618l.16-.21.042-.064c.006-.008.01-.015.013-.02l.004-.007h.001l.001-.001h0c0 0 0 0-.35-.203" class="B"/><path d="M439.184 85.72c-.43 0-.776-.67-.776-1.5s.347-1.5.776-1.5.776.67.776 1.5-.347 1.5-.776 1.5z"/></g><path d="M454.25 75.202s-17.993 10.838-23.845 1.403c-5.14-8.274 17.637-12.532 25.59-12.564 8.65-.032 20.11 3.8 19.917 16.483-.162 10.45-.598 25.74 5.6 23.08 22.083-9.452 41.71.42 41.774 19.225s-21.81 20.564-22.358 15.71c-.566-4.838 13.58-3.725 11.672 8.84-1.892 12.564-10.33 28.273-29.6 28.273-23.28.017-38.104-30.563-23.7-33.676 11.042-2.387-11.252 18.87-17.864-3.226-7.113-23.8 18.592-31.58 19.222-45.95s-6.418-17.596-6.418-17.596z" class="D"/><g class="B"><path d="M469.5 67.174c-4.01-2.595-9.123-3.55-13.496-3.535-4.02.016-11.748 1.096-17.838 3.214-3.038 1.056-5.725 2.4-7.33 4.022-.808.82-1.36 1.74-1.525 2.754-.164 1.02.074 2.1.758 3.2 1.54 2.485 3.886 3.627 6.49 3.95 2.588.32 5.447-.166 8.086-.938s5.1-1.844 6.89-2.72a48.28 48.28 0 0 0 2.136-1.108l.59-.332c.035.01.062.025.092.043a6.81 6.81 0 0 1 .745.531c.62.502 1.452 1.323 2.27 2.586 1.63 2.522 3.22 6.835 2.91 13.95-.153 3.47-1.82 6.572-4.188 9.67-1.183 1.548-2.533 3.084-3.945 4.66l-.725.81-3.564 4.063c-2.82 3.374-5.424 7.073-6.866 11.445-1.447 4.38-1.72 9.412.082 15.436 1.676 5.6 4.373 8.537 7.37 9.75 1.583.64 3.222.787 4.796.612-.068 3.28 1.2 7.186 3.458 10.968 4.866 8.117 14.508 15.87 26.33 15.86 9.76 0 16.796-3.984 21.623-9.565 4.816-5.57 7.423-12.714 8.377-19.05.463-3.05.005-5.476-.983-7.327l.47-.18c5.654-2.233 11.237-7.505 11.204-17.103-.033-9.56-5.047-16.87-12.86-20.572-7.8-3.697-18.352-3.784-29.476.977h-.001c-.71.305-1.28.335-1.748.187s-.895-.495-1.276-1.056c-.773-1.14-1.287-3.047-1.61-5.437-.603-4.476-.508-10.403-.428-15.45l.015-.946c.1-6.493-2.794-10.75-6.826-13.358zm41.76 73.204c.937 1.69 1.4 3.97.96 6.94v.001c-.937 6.227-3.496 13.218-8.19 18.645-4.684 5.415-11.502 9.285-21.012 9.285h0c-11.46.008-20.87-7.52-25.634-15.47-2.255-3.76-3.442-7.57-3.34-10.673 1.1-.2 2.158-.55 3.128-.986 1.29-.578 2.438-1.316 3.35-2.08.906-.76 1.602-1.566 1.957-2.293.177-.362.284-.735.26-1.09a1.2 1.2 0 0 0-.513-.929c-.305-.218-.716-.323-1.2-.344s-1.085.042-1.795.196c-1.878.405-3.307 1.267-4.3 2.48-.97 1.184-1.5 2.677-1.655 4.347-1.503.186-3.055.057-4.538-.543-2.7-1.09-5.268-3.783-6.898-9.23-1.756-5.872-1.482-10.735-.1-14.954 1.396-4.23 3.924-7.836 6.72-11.18 1.16-1.387 2.36-2.722 3.542-4.04l.73-.812c1.412-1.577 2.78-3.134 3.985-4.71 2.406-3.147 4.19-6.41 4.352-10.124.318-7.255-1.3-11.74-3.037-14.423-.866-1.34-1.757-2.224-2.44-2.775a7.6 7.6 0 0 0-.834-.593c-.103-.062-.185-.108-.244-.14-.03-.015-.052-.027-.07-.035-.008-.004-.015-.007-.02-.01l-.006-.003-.003-.001c-.001 0-.001 0-.17.366l.17-.367-.195-.09-.183.1.006.01-.006-.01-.002.001-.01.005-.037.022-.15.087-.574.324c-.498.275-1.218.66-2.1 1.1-1.766.863-4.176 1.912-6.762 2.67s-5.327 1.212-7.76.91c-2.417-.3-4.516-1.34-5.9-3.573h-.001c-.6-.968-.775-1.842-.647-2.638.13-.802.574-1.575 1.304-2.317 1.47-1.495 4.01-2.78 7.018-3.825 6.002-2.088 13.64-3.153 17.575-3.17m-1.902 83.83c.167-1.457.647-2.714 1.455-3.702.863-1.054 2.122-1.83 3.845-2.202.67-.145 1.193-.196 1.588-.178s.636.102.765.194c.113.08.167.18.176.325.01.162-.038.39-.18.684-.286.586-.9 1.307-1.75 2.028s-1.94 1.415-3.16 1.963c-.862.387-1.784.697-2.737.888zm57.156-7.897c-2.398.764-4.746 1-6.62.802-1.098-.115-2.058-.382-2.775-.8s-1.23-1.018-1.32-1.792c-.082-.71.106-1.33.504-1.823.392-.487.968-.828 1.63-1.035 1.32-.412 3.072-.32 4.753.33 1.563.603 3.092 1.695 4.184 3.35a20.31 20.31 0 0 0 .591-.223c5.404-2.134 10.725-7.143 10.694-16.35-.032-9.245-4.863-16.275-12.4-19.846-7.55-3.577-17.853-3.7-28.81 1-.84.36-1.615.435-2.312.215s-1.252-.712-1.7-1.373c-.886-1.306-1.417-3.375-1.74-5.78-.612-4.54-.516-10.523-.435-15.552l.015-.965c.095-6.2-2.646-10.202-6.458-12.67-3.835-2.482-8.778-3.42-13.053-3.405M510.8 139.67c-.98-1.4-2.312-2.334-3.68-2.86-1.546-.596-3.106-.66-4.22-.312-.555.173-.976.44-1.242.77-.26.322-.39.725-.33 1.226v.001c.05.44.342.848.924 1.187s1.422.587 2.452.695c1.703.18 3.862-.023 6.095-.707z" class="C"/><g class="F"><path d="M442.642 84.315H455.5v-.968h-12.868v.968z"/><path d="M438.68 80.122c1.644 0 3.168 1.758 3.168 4.194s-1.524 4.193-3.168 4.193-3.17-1.758-3.17-4.193 1.524-4.193 3.17-4.193zm4.138 4.194c0-2.73-1.747-5.16-4.138-5.16s-4.14 2.43-4.14 5.16 1.747 5.16 4.14 5.16 4.138-2.43 4.138-5.16z"/></g><path d="M458.63 61.284c1.784 0 3.217 1.443 3.217 3.2v13.58h.97v-13.58c0-2.298-1.864-4.177-4.187-4.177h-4.04c-2.304 0-4.187 1.86-4.187 4.177h.97c0-1.78 1.446-3.2 3.217-3.2h4.04z" class="E"/></g><path d="M458.436 93.026h7.776c1.99 0 3.605-1.613 3.605-3.597V81.67c0-1.984-1.616-3.597-3.605-3.597h-7.776c-1.988 0-3.605 1.613-3.605 3.597v7.758c.016 1.984 1.617 3.597 3.605 3.597z" class="C"/><path d="M466.212 78.558a3.12 3.12 0 0 1 3.12 3.113v7.758a3.12 3.12 0 0 1-3.12 3.113h-7.776c-1.716 0-3.105-1.392-3.12-3.115V81.67a3.12 3.12 0 0 1 3.12-3.113h7.776zm4.1 3.113a4.09 4.09 0 0 0-4.09-4.081h-7.776a4.09 4.09 0 0 0-4.09 4.081v7.762a4.1 4.1 0 0 0 4.09 4.077h7.776a4.09 4.09 0 0 0 4.09-4.081V81.67z" class="B E"/><path d="M460.457 90.46h3.8c1.633 0 2.975-1.323 2.975-2.968v-3.8c0-1.63-1.326-2.968-2.975-2.968h-3.8c-1.633 0-2.974 1.323-2.974 2.968v3.8c0 1.645 1.325 2.968 2.974 2.968z" class="C"/><g class="B E"><path d="M464.256 81.22a2.49 2.49 0 0 1 2.489 2.484v3.8a2.49 2.49 0 0 1-2.489 2.484h-3.8a2.48 2.48 0 0 1-2.49-2.484v-3.8a2.49 2.49 0 0 1 2.49-2.484h3.8zm3.46 2.484a3.46 3.46 0 0 0-3.459-3.452h-3.8a3.46 3.46 0 0 0-3.46 3.452v3.8c0 1.912 1.543 3.45 3.46 3.45h3.8a3.46 3.46 0 0 0 3.459-3.451v-3.8z"/><path d="M466.1 89.8l-6.758-8.968-.775.582 6.757 8.968.776-.582zm1.324-1.535l-5.852-7.742-.775.583 5.852 7.742.775-.583zm-3.54 1.905l-5.853-7.742-.774.583 5.852 7.742.775-.583zm-2.345 0l-3.67-4.855-.774.583 3.67 4.855.774-.583zm6.062-4.824l-3.654-4.823-.774.584 3.654 4.822.774-.584zm.97 228.818v-8.887h-.97v8.887c0 4.558 3.7 8.258 8.278 8.258h19.98v-.968h-19.98c-4.033 0-7.308-3.267-7.308-7.3zm-7.453 72.74v-81.53h-.97v81.53h.97z"/><path d="M464.726 387.388c17.546 0 31.605 11.58 31.605 25.66h.97c0-14.79-14.686-26.628-32.575-26.628h-8.05c-17.9 0-32.576 11.84-32.576 26.628h.97c0-14.08 14.06-25.66 31.606-25.66h8.05z"/></g><g class="D"><path d="M382.892 306.617H500.26c5.885 0 10.637-4.758 10.637-10.613H380.11l2.78 10.613z"/><use xlink:href="#C"/><path d="M501.94 324.147h-17.395c-1.422 0-2.57-1.146-2.57-2.565v-.193c0-1.42 1.148-2.565 2.57-2.565h17.395c1.423 0 2.57 1.145 2.57 2.565v.193c0 1.42-1.148 2.565-2.57 2.565z"/><g class="B"><path d="M538.254 221.313c2.15-6.025-2.32-12.356-8.734-12.356h-61.222c-5.96 0-11.268 3.742-13.276 9.337h0L426.936 296.8h84.302l27.016-75.497zm-.913-.325c1.924-5.395-2.078-11.063-7.82-11.063h-61.222c-5.55 0-10.492 3.484-12.363 8.695l-27.623 77.222h82.243l26.786-74.854z"/><path d="M535.663 211.844H473.68a13.63 13.63 0 0 0-12.84 9.03v.001l-27.148 75.934h73.08v-.967H435.07l26.685-74.642c1.807-5.034 6.57-8.39 11.927-8.39h61.982v-.967z"/></g><use xlink:href="#C" x="-72.797"/></g><defs ><path id="B" d="M264.134 110.07c-.187 0-.34-.34-.34-.758s.152-.758.34-.758.34.34.34.758-.152.758-.34.758z"/><path id="C" d="M497.527 430.34c-4.786 0-8.665-3.87-8.665-8.645s3.88-8.645 8.665-8.645 8.665 3.87 8.665 8.645-3.88 8.645-8.665 8.645z"/></defs></svg>