<svg xmlns="http://www.w3.org/2000/svg" xmlns:xlink="http://www.w3.org/1999/xlink" width="1918" height="994" fill="none" xmlns:v="https://vecta.io/nano"><path opacity=".2" fill="url(#A)" d="M0 0h1918v994H0z"/><g opacity=".8" clip-path="url(#B)" fill="#fff"><path d="M90.907 828.537c-1.287 0-2.25-.972-2.25-2.27S89.62 824 90.907 824s2.25.972 2.25 2.268-1.072 2.27-2.25 2.27zm0 19.333c-1.287 0-2.25-.972-2.25-2.27s.965-2.268 2.25-2.268 2.25.972 2.25 2.268c0 1.2-1.072 2.27-2.25 2.27z"/><use xlink:href="#D"/><path d="M90.907 886.433c-1.287 0-2.25-.972-2.25-2.268s.965-2.27 2.25-2.27 2.25.973 2.25 2.27-1.072 2.268-2.25 2.268zm0 19.337c-1.287 0-2.25-.972-2.25-2.268s.965-2.27 2.25-2.27 2.25.973 2.25 2.27c0 1.188-1.072 2.268-2.25 2.268zm0 19.333c-1.287 0-2.25-.972-2.25-2.268s.965-2.27 2.25-2.27 2.25.973 2.25 2.27-1.072 2.268-2.25 2.268zm0 19.227c-1.287 0-2.25-.972-2.25-2.27s.965-2.268 2.25-2.268 2.25.972 2.25 2.268-1.072 2.27-2.25 2.27zm0 19.336c-1.287 0-2.25-.973-2.25-2.27s.965-2.268 2.25-2.268 2.25.972 2.25 2.268-1.072 2.27-2.25 2.27zm0 19.334c-1.287 0-2.25-.973-2.25-2.27s.965-2.268 2.25-2.268 2.25.972 2.25 2.268c0 1.188-1.072 2.27-2.25 2.27z"/><use xlink:href="#E"/><use xlink:href="#F"/><use xlink:href="#G"/><path d="M74.934 886.433c-1.287 0-2.25-.972-2.25-2.268s.965-2.27 2.25-2.27 2.25.973 2.25 2.27-.965 2.268-2.25 2.268z"/><use xlink:href="#H"/><path d="M74.934 925.103c-1.287 0-2.25-.972-2.25-2.268s.965-2.27 2.25-2.27 2.25.973 2.25 2.27-.965 2.268-2.25 2.268zm0 19.227c-1.287 0-2.25-.972-2.25-2.27s.965-2.268 2.25-2.268 2.25.972 2.25 2.268-.965 2.27-2.25 2.27z"/><use xlink:href="#I"/><use xlink:href="#J"/><use xlink:href="#K"/><use xlink:href="#L"/><path d="M122.75 867.1c-1.287 0-2.252-.972-2.252-2.268s.965-2.27 2.252-2.27 2.25 1.08 2.25 2.27c0 1.296-.965 2.268-2.25 2.268zm0 19.333c-1.287 0-2.252-.972-2.252-2.268s.965-2.27 2.252-2.27 2.25 1.08 2.25 2.27-.965 2.268-2.25 2.268zm0 19.337c-1.287 0-2.252-.972-2.252-2.268s.965-2.27 2.252-2.27 2.25.973 2.25 2.27c0 1.188-.965 2.268-2.25 2.268zm0 19.333c-1.287 0-2.252-.972-2.252-2.268s.965-2.27 2.252-2.27 2.25.973 2.25 2.27-.965 2.268-2.25 2.268zm0 19.227c-1.287 0-2.252-.972-2.252-2.27s.965-2.268 2.252-2.268 2.25.972 2.25 2.268-.965 2.27-2.25 2.27zm0 19.336c-1.287 0-2.252-.973-2.252-2.27s.965-2.268 2.252-2.268 2.25.972 2.25 2.268-.965 2.27-2.25 2.27zm0 19.334c-1.287 0-2.252-.973-2.252-2.27s.965-2.268 2.252-2.268 2.25.972 2.25 2.268c0 1.188-.965 2.27-2.25 2.27zm-15.976-154.463c-1.286 0-2.25-.972-2.25-2.27s1.072-2.268 2.25-2.268c1.287 0 2.252.972 2.252 2.268s-.965 2.27-2.252 2.27zm0 19.333c-1.286 0-2.25-.972-2.25-2.27s.965-2.268 2.25-2.268 2.252.972 2.252 2.268c0 1.2-.965 2.27-2.252 2.27z"/><use xlink:href="#M"/><path d="M106.774 886.433c-1.286 0-2.25-.972-2.25-2.268s.965-2.27 2.25-2.27 2.252.973 2.252 2.27-.965 2.268-2.252 2.268zm0 19.337c-1.286 0-2.25-.972-2.25-2.268s.965-2.27 2.25-2.27 2.252.973 2.252 2.27c0 1.188-.965 2.268-2.252 2.268zm0 19.333c-1.286 0-2.25-.972-2.25-2.268s.965-2.27 2.25-2.27 2.252.973 2.252 2.27-.965 2.268-2.252 2.268zm0 19.227c-1.286 0-2.25-.972-2.25-2.27s.965-2.268 2.25-2.268 2.252.972 2.252 2.268-.965 2.27-2.252 2.27zm0 19.336c-1.286 0-2.25-.973-2.25-2.27s.965-2.268 2.25-2.268 2.252.972 2.252 2.268-.965 2.27-2.252 2.27zm0 19.334c-1.286 0-2.25-.973-2.25-2.27s.965-2.268 2.25-2.268 2.252.972 2.252 2.268c0 1.188-.965 2.27-2.252 2.27zM59.067 828.537c-1.286 0-2.25-.972-2.25-2.27S57.78 824 59.067 824s2.25.972 2.25 2.268-1.072 2.27-2.25 2.27z"/><use xlink:href="#N"/><use xlink:href="#O"/><path d="M59.067 886.433c-1.286 0-2.25-.972-2.25-2.268s.965-2.27 2.25-2.27 2.25.973 2.25 2.27-1.072 2.268-2.25 2.268z"/><use xlink:href="#P"/><path d="M59.067 925.103c-1.286 0-2.25-.972-2.25-2.268s.965-2.27 2.25-2.27 2.25.973 2.25 2.27-1.072 2.268-2.25 2.268z"/><use xlink:href="#Q"/><use xlink:href="#R"/><use xlink:href="#S"/><use xlink:href="#T"/><path d="M43.092 847.87c-1.286 0-2.25-.972-2.25-2.27s.965-2.268 2.25-2.268 2.25.972 2.25 2.268c0 1.19-.965 2.27-2.25 2.27z"/><use xlink:href="#U"/><path d="M40.84 884.165a2.26 2.26 0 0 0 2.251 2.268 2.269 2.269 0 1 0 0-4.537 2.26 2.26 0 0 0-2.251 2.269zm2.252 21.605c-1.286 0-2.25-.972-2.25-2.268s.965-2.27 2.25-2.27 2.25.973 2.25 2.27c0 1.188-.965 2.268-2.25 2.268zm0 19.333c-1.286 0-2.25-.972-2.25-2.268s.965-2.27 2.25-2.27 2.25.973 2.25 2.27-.965 2.268-2.25 2.268zm0 19.227c-1.286 0-2.25-.972-2.25-2.27s.965-2.268 2.25-2.268 2.25.972 2.25 2.268-.965 2.27-2.25 2.27zm-2.252 17.067a2.26 2.26 0 0 0 2.251 2.269 2.269 2.269 0 1 0 0-4.537 2.26 2.26 0 0 0-2.251 2.268zM43.092 983c-1.286 0-2.25-.973-2.25-2.27s.965-2.268 2.25-2.268 2.25.972 2.25 2.268c0 1.188-.965 2.27-2.25 2.27zM27.118 828.537c-1.287 0-2.25-.972-2.25-2.27s.965-2.268 2.25-2.268 2.25.972 2.25 2.268-.965 2.27-2.25 2.27zm0 19.333c-1.287 0-2.25-.972-2.25-2.27s.965-2.268 2.25-2.268 2.25.972 2.25 2.268c0 1.2-.965 2.27-2.25 2.27zm0 19.23c-1.287 0-2.25-.972-2.25-2.268s.965-2.27 2.25-2.27 2.25.973 2.25 2.27-.965 2.268-2.25 2.268zm0 19.333c-1.287 0-2.25-.972-2.25-2.268s.965-2.27 2.25-2.27 2.25.973 2.25 2.27-.965 2.268-2.25 2.268zm0 19.337c-1.287 0-2.25-.972-2.25-2.268s.965-2.27 2.25-2.27 2.25.973 2.25 2.27c0 1.188-.965 2.268-2.25 2.268zm0 19.333c-1.287 0-2.25-.972-2.25-2.268s.965-2.27 2.25-2.27 2.25.973 2.25 2.27-.965 2.268-2.25 2.268zm0 19.227c-1.287 0-2.25-.972-2.25-2.27s.965-2.268 2.25-2.268 2.25.972 2.25 2.268-.965 2.27-2.25 2.27zm0 19.336c-1.287 0-2.25-.973-2.25-2.27s.965-2.268 2.25-2.268 2.25.972 2.25 2.268-.965 2.27-2.25 2.27zm0 19.334c-1.287 0-2.25-.973-2.25-2.27s.965-2.268 2.25-2.268 2.25.972 2.25 2.268c0 1.188-.965 2.27-2.25 2.27zM11.252 828.537c-1.286 0-2.25-.972-2.25-2.27S9.965 824 11.252 824s2.25.972 2.25 2.268-1.072 2.27-2.25 2.27zm0 19.333c-1.286 0-2.25-.972-2.25-2.27s.965-2.268 2.25-2.268 2.25.972 2.25 2.268c0 1.2-1.072 2.27-2.25 2.27zm0 19.23c-1.286 0-2.25-.972-2.25-2.268s.965-2.27 2.25-2.27 2.25.973 2.25 2.27-1.072 2.268-2.25 2.268zm0 19.333c-1.286 0-2.25-.972-2.25-2.268s.965-2.27 2.25-2.27 2.25.973 2.25 2.27-1.072 2.268-2.25 2.268zm0 19.337c-1.286 0-2.25-.972-2.25-2.268s.965-2.27 2.25-2.27 2.25.973 2.25 2.27c0 1.188-1.072 2.268-2.25 2.268zm0 19.333c-1.286 0-2.25-.972-2.25-2.268s.965-2.27 2.25-2.27 2.25.973 2.25 2.27-1.072 2.268-2.25 2.268zm0 19.227c-1.286 0-2.25-.972-2.25-2.27s.965-2.268 2.25-2.268 2.25.972 2.25 2.268-1.072 2.27-2.25 2.27zm0 19.336c-1.286 0-2.25-.973-2.25-2.27s.965-2.268 2.25-2.268 2.25.972 2.25 2.268-1.072 2.27-2.25 2.27zm0 19.334c-1.286 0-2.25-.973-2.25-2.27s.965-2.268 2.25-2.268 2.25.972 2.25 2.268c0 1.188-1.072 2.27-2.25 2.27z"/></g><g opacity=".2" clip-path="url(#C)" fill="#fff"><path d="M1837.1 7C1758.54 7 1695 70.544 1695 149.097c0 78.36 63.54 142.098 142.1 142.098 78.36 0 142.1-63.544 142.1-142.098C1979 70.544 1915.46 7 1837.1 7zm0 275.034c-73.5 0-132.94-59.45-132.94-132.937S1763.6 16.16 1837.1 16.16c73.48 0 132.93 59.45 132.93 132.936 0 73.3-59.64 132.937-132.93 132.937zm0-244.43c-61.4 0-111.3 49.9-111.3 111.3s49.9 111.3 111.3 111.3S1948.4 210.5 1948.4 149.1c0-61.595-49.9-111.495-111.3-111.495zm0 205.642c-52.05 0-94.34-42.298-94.34-94.342s42.3-94.34 94.34-94.34 94.34 42.298 94.34 94.34-42.3 94.342-94.34 94.342zm0-156.72c-34.5 0-62.57 28.07-62.57 62.57s27.87 62.57 62.57 62.57c34.5 0 62.57-28.07 62.57-62.57-.2-34.5-28.07-62.57-62.57-62.57zm0 96.096c-18.52 0-33.53-15-33.53-33.526s15-33.526 33.53-33.526 33.52 15.008 33.52 33.526-15 33.526-33.52 33.526z"/></g><defs><linearGradient id="A" x1="0" y1="994" x2="1190.21" y2="-558.099" gradientUnits="userSpaceOnUse"><stop stop-color="#ff3f3a"/><stop offset="1" stop-color="#f75e05"/></linearGradient><clipPath id="B"><path fill="#fff" transform="matrix(0 1 -1 0 125 824)" d="M0 0h159v116H0z"/></clipPath><clipPath id="C"><path fill="#fff" transform="translate(1695 7)" d="M0 0h223v284H0z"/></clipPath><path id="D" d="M90.907 867.1c-1.287 0-2.25-.972-2.25-2.268s.965-2.27 2.25-2.27 2.25.973 2.25 2.27-1.072 2.268-2.25 2.268z"/><path id="E" d="M74.934 828.537c-1.287 0-2.25-.972-2.25-2.27s.965-2.268 2.25-2.268 2.25.972 2.25 2.268-.965 2.27-2.25 2.27z"/><path id="F" d="M74.934 847.87c-1.287 0-2.25-.972-2.25-2.27s.965-2.268 2.25-2.268 2.25.972 2.25 2.268c0 1.19-.965 2.27-2.25 2.27z"/><path id="G" d="M74.934 867.1c-1.287 0-2.25-.972-2.25-2.268s.965-2.27 2.25-2.27 2.25.973 2.25 2.27-.965 2.268-2.25 2.268z"/><path id="H" d="M74.934 905.77c-1.287 0-2.25-.972-2.25-2.268s.965-2.27 2.25-2.27 2.25.973 2.25 2.27c0 1.188-.965 2.268-2.25 2.268z"/><path id="I" d="M74.934 963.666c-1.287 0-2.25-.973-2.25-2.27s.965-2.268 2.25-2.268 2.25.972 2.25 2.268-.965 2.27-2.25 2.27z"/><path id="J" d="M74.934 983c-1.287 0-2.25-.973-2.25-2.27s.965-2.268 2.25-2.268 2.25.972 2.25 2.268c0 1.188-.965 2.27-2.25 2.27z"/><path id="K" d="M122.75 828.537c-1.287 0-2.252-.972-2.252-2.27s.965-2.268 2.252-2.268 2.25.972 2.25 2.268-.965 2.27-2.25 2.27z"/><path id="L" d="M122.75 847.873c-1.287 0-2.252-.973-2.252-2.27s.965-2.268 2.252-2.268 2.25.972 2.25 2.268c0 1.188-.965 2.27-2.25 2.27z"/><path id="M" d="M106.774 867.1c-1.286 0-2.25-.972-2.25-2.268s.965-2.27 2.25-2.27 2.252.973 2.252 2.27-.965 2.268-2.252 2.268z"/><path id="N" d="M59.067 847.87c-1.286 0-2.25-.972-2.25-2.27s.965-2.268 2.25-2.268 2.25.972 2.25 2.268c0 1.19-1.072 2.27-2.25 2.27z"/><path id="O" d="M59.067 867.1c-1.286 0-2.25-.972-2.25-2.268s.965-2.27 2.25-2.27 2.25.973 2.25 2.27-1.072 2.268-2.25 2.268z"/><path id="P" d="M59.067 905.77c-1.286 0-2.25-.972-2.25-2.268s.965-2.27 2.25-2.27 2.25.973 2.25 2.27c0 1.188-1.072 2.268-2.25 2.268z"/><path id="Q" d="M59.067 944.33c-1.286 0-2.25-.972-2.25-2.27s.965-2.268 2.25-2.268 2.25.972 2.25 2.268-1.072 2.27-2.25 2.27z"/><path id="R" d="M59.067 963.666c-1.286 0-2.25-.973-2.25-2.27s.965-2.268 2.25-2.268 2.25.972 2.25 2.268-1.072 2.27-2.25 2.27z"/><path id="S" d="M59.067 983c-1.286 0-2.25-.973-2.25-2.27s.965-2.268 2.25-2.268 2.25.972 2.25 2.268c0 1.188-1.072 2.27-2.25 2.27z"/><path id="T" d="M43.092 828.537c-1.286 0-2.25-.972-2.25-2.27s.965-2.268 2.25-2.268 2.25.972 2.25 2.268-.965 2.27-2.25 2.27z"/><path id="U" d="M43.092 867.1c-1.286 0-2.25-.972-2.25-2.268s.965-2.27 2.25-2.27 2.25.973 2.25 2.27-.965 2.268-2.25 2.268z"/></defs></svg>