<svg xmlns="http://www.w3.org/2000/svg" width="48" height="48" fill="none" xmlns:v="https://vecta.io/nano"><g clip-path="url(#A)" fill="#ff5a30"><path d="M28.922 21.094c-1.957 0-3.657.892-4.922 2.58-1.266-1.7-2.965-2.58-4.922-2.58-3.655 0-6.328 3.004-6.328 6.7 0 4.766 4.62 7.76 10.335 12.658a1.4 1.4 0 0 0 .915.338c.326 0 .652-.113.915-.338 5.723-4.905 10.335-7.894 10.335-12.658 0-3.683-2.67-6.7-6.328-6.7h0zM24 37.53c-5.15-4.35-8.437-6.697-8.437-9.744 0-2.2 1.5-3.878 3.516-3.878 2.606 0 3.53 3.06 3.57 3.197.172.604.724 1.02 1.353 1.02a1.41 1.41 0 0 0 1.354-1.027c.01-.032.924-3.2 3.568-3.2 2.004 0 3.516 1.667 3.516 3.878 0 3.05-3.292 5.398-8.437 9.744h0zm22.593 7.658h-4.22V23.345l.024.017c.62.446 1.485.313 1.944-.3l3.376-4.5a1.41 1.41 0 0 0-.302-1.985L24.83.272a1.41 1.41 0 0 0-1.656-.003l-9.112 6.58V4.22c0-.777-.63-1.406-1.406-1.406H7.03c-.777 0-1.406.63-1.406 1.406v8.72l-5.04 3.64c-.306.22-.5.556-.567.93s.04.754.266 1.055l3.375 4.5c.46.612 1.323.745 1.944.3l.024-.017v21.844h-4.22c-.777 0-1.406.63-1.406 1.406S.63 48 1.406 48h45.187C47.37 48 48 47.37 48 46.595a1.41 1.41 0 0 0-1.406-1.407h0zM8.438 5.626h2.813V8.88L8.44 10.9V5.626zM5.08 20.274l-1.7-2.253L24 3.142l20.6 14.88-1.7 2.253L24.823 7.298c-.5-.354-1.155-.354-1.645 0L5.08 20.274zm3.357 1.054L24 10.17l15.563 11.16V45.2H8.438V21.33z"/></g><defs><clipPath id="A"><path fill="#fff" d="M0 0h48v48H0z"/></clipPath></defs></svg>