<svg xmlns="http://www.w3.org/2000/svg" width="48" height="48" fill="none" xmlns:v="https://vecta.io/nano"><g clip-path="url(#A)" fill="#ff5a30"><path d="M29.558 11.34a8.23 8.23 0 0 0 2.692-6.09V1.5a1.5 1.5 0 0 0-.623-1.217 1.5 1.5 0 0 0-1.351-.206l-2.748.916a11.23 11.23 0 0 1-7.056 0L17.724.077a1.5 1.5 0 0 0-1.351.206A1.5 1.5 0 0 0 15.75 1.5v3.75a8.23 8.23 0 0 0 2.692 6.091C10.808 13.715 5.25 20.846 5.25 29.25v12.563c0 3.41 2.776 6.187 6.188 6.187h25.125c3.412 0 6.188-2.776 6.188-6.187V29.25c0-8.404-5.558-15.535-13.192-17.9zM18.75 5.25V3.58l.773.258a14.25 14.25 0 0 0 8.953 0l.773-.258v1.67A5.26 5.26 0 0 1 24 10.5a5.26 5.26 0 0 1-5.25-5.25zm21 36.562A3.19 3.19 0 0 1 36.563 45H11.438a3.19 3.19 0 0 1-3.187-3.187V29.25c0-8.685 7.065-15.75 15.75-15.75s15.75 7.065 15.75 15.75v12.563zM24 27.75c-1.654 0-3-1.346-3-3s1.346-3 3-3 3 1.346 3 3a1.5 1.5 0 1 0 3 0 5.99 5.99 0 0 0-4.5-5.8V18a1.5 1.5 0 1 0-3 0v.94a6.01 6.01 0 0 0-4.5 5.8 6.01 6.01 0 0 0 6 6c1.654 0 3 1.346 3 3s-1.346 3-3 3-3-1.346-3-3a1.5 1.5 0 1 0-3 0 5.99 5.99 0 0 0 4.5 5.8v.94a1.5 1.5 0 1 0 3 0v-.94a6.01 6.01 0 0 0 4.5-5.8 6.01 6.01 0 0 0-6-6z"/></g><defs><clipPath id="A"><path fill="#fff" d="M0 0h48v48H0z"/></clipPath></defs></svg>