<svg xmlns="http://www.w3.org/2000/svg" width="53" height="52" fill="none" xmlns:v="https://vecta.io/nano"><g clip-path="url(#A)" fill="#ff5a30"><path d="M46.406 3.148a6.1 6.1 0 0 0-5.276 3.047H2.023C1.182 6.195.5 6.877.5 7.72v39.6c0 .84.682 1.523 1.523 1.523h44.383c3.36 0 6.094-2.734 6.094-6.094V9.242c0-3.36-2.734-6.094-6.094-6.094zm0 42.656H3.547V9.242h36.766v33.516c0 .84.682 1.523 1.523 1.523s1.523-.682 1.523-1.523a3.05 3.05 0 0 1 3.047-3.047 3.05 3.05 0 0 1 3.047 3.047 3.05 3.05 0 0 1-3.047 3.047zm3.047-8.323c-.897-.52-1.938-.818-3.047-.818s-2.15.298-3.047.818V9.242a3.05 3.05 0 0 1 3.047-3.047 3.05 3.05 0 0 1 3.047 3.047v28.24zM35.64 12.3H8.22c-.84 0-1.523.682-1.523 1.523v27.422c0 .84.682 1.523 1.523 1.523h15.234c.404 0 .8-.16 1.077-.446a1.52 1.52 0 0 0 .446-1.077v-3.047a4.58 4.58 0 0 1 3.047-4.309v7.356c0 .84.682 1.523 1.524 1.523h6.094c.84 0 1.523-.682 1.523-1.523V13.813c0-.84-.682-1.523-1.523-1.523zM34.117 39.7H31.07v-7.617c0-.84-.682-1.524-1.523-1.524a7.63 7.63 0 0 0-7.617 7.617v1.523H9.742v-9.14h6.094v4.57c0 .84.682 1.523 1.524 1.523s1.523-.682 1.523-1.523v-6.094c0-.84-.682-1.524-1.523-1.524H9.742V15.336h9.14v6.094h-4.57c-.84 0-1.523.682-1.523 1.523s.682 1.524 1.523 1.524H26.5c.84 0 1.523-.682 1.523-1.524S27.34 21.43 26.5 21.43h-4.57v-6.094h12.187V39.7z"/></g><defs><clipPath id="A"><path fill="#fff" transform="translate(.5)" d="M0 0h52v52H0z"/></clipPath></defs></svg>