<svg xmlns="http://www.w3.org/2000/svg" width="48" height="48" fill="none" xmlns:v="https://vecta.io/nano"><g clip-path="url(#A)" fill="#ff5a30"><path d="M38.053 2.1c-6.17-.648-11.716 3.843-12.364 10.012l-1.127 10.722a1.41 1.41 0 0 0 1.252 1.546l.466.05-1.176 11.188a9.39 9.39 0 0 0 8.344 10.304 9.39 9.39 0 0 0 10.304-8.344L44.928 26.4l.466.05a1.41 1.41 0 0 0 1.546-1.252l1.127-10.722c.648-6.17-3.843-11.716-10.012-12.364zm-.294 2.797a8.45 8.45 0 0 1 7.509 9.273l-.392 3.73-16.783-1.764.392-3.73a8.45 8.45 0 0 1 9.273-7.509zM27.506 21.72l.294-2.797 16.783 1.764-.294 2.797-16.783-1.764zm13.448 15.553a6.57 6.57 0 0 1-7.212 5.84 6.57 6.57 0 0 1-5.841-7.212l1.176-11.188 13.053 1.372-1.176 11.188zm-8.784 2.85l3.73.392a1.41 1.41 0 0 0 1.546-1.252c.082-.772-.48-1.464-1.252-1.545l-3.73-.392a1.41 1.41 0 0 0-1.546 1.252c-.082.772.48 1.464 1.252 1.545zM9.947 2.1A11.25 11.25 0 0 0-.065 14.454l1.127 10.722c.08.772.773 1.333 1.546 1.252l.466-.05 1.176 11.19a9.39 9.39 0 0 0 10.304 8.344 9.39 9.39 0 0 0 8.344-10.304L21.72 24.42l.466-.05c.772-.08 1.333-.773 1.252-1.546L22.31 12.102A11.25 11.25 0 0 0 9.947 2.1zM3.712 23.484l-.294-2.797L20.2 18.923l.294 2.797L3.71 23.484zM20.1 35.9a6.57 6.57 0 0 1-5.84 7.212 6.57 6.57 0 0 1-7.213-5.841L5.87 26.085l13.053-1.372L20.1 35.9zm-.193-19.776L3.124 17.9l-.392-3.73a8.45 8.45 0 0 1 7.509-9.273 8.45 8.45 0 0 1 9.273 7.509l.392 3.73zM12.1 40.513l3.73-.392c.772-.08 1.333-.773 1.252-1.546s-.773-1.333-1.546-1.252l-3.73.392c-.772.08-1.333.773-1.252 1.546s.773 1.333 1.545 1.252z"/></g><defs><clipPath id="A"><path fill="#fff" d="M0 0h48v48H0z"/></clipPath></defs></svg>