<svg xmlns="http://www.w3.org/2000/svg" width="48" height="48" fill="none" xmlns:v="https://vecta.io/nano"><path d="M42.827 15.062h-6.125v-4.718h9.9c.78 0 1.408-.63 1.408-1.406a1.4 1.4 0 0 0-.456-1.037l-2.73-2.73 2.772-2.77c.402-.402.522-1.007.305-1.532S47.16 0 46.592 0H35.295C34.52 0 33.9.63 33.9 1.406v13.656h-1.607a5.18 5.18 0 0 0-5.172 5.172v2.93a5.14 5.14 0 0 0-2.359-.572h-1.506a5.18 5.18 0 0 0-5.172 5.172v2.93c-.708-.364-1.5-.572-2.36-.572H14.21a5.18 5.18 0 0 0-5.172 5.172v2.93c-.708-.365-1.5-.572-2.36-.572H5.172A5.18 5.18 0 0 0 0 42.827v3.765c0 .777.63 1.406 1.406 1.406h45.186c.777 0 1.406-.63 1.406-1.406V20.234a5.18 5.18 0 0 0-5.172-5.172zm-6.125-12.25h6.496l-1.365 1.365c-.264.264-.412.62-.412.994s.148.73.412.995l1.365 1.365h-6.495v-4.72zM2.812 42.827c0-1.3 1.058-2.36 2.36-2.36h1.506c1.3 0 2.36 1.058 2.36 2.36v2.36H2.812v-2.36zm9.037 0v-7.53c0-1.3 1.058-2.36 2.36-2.36h1.506c1.3 0 2.36 1.058 2.36 2.36v9.9H11.85v-2.36zm9.037-7.53v-7.53c0-1.3 1.06-2.36 2.36-2.36h1.506c1.3 0 2.36 1.058 2.36 2.36v17.42h-6.225v-9.9zm24.3 9.9H29.924V20.234c0-1.3 1.058-2.36 2.36-2.36h10.544c1.3 0 2.36 1.058 2.36 2.36v24.952z" fill="#ff5a30"/></svg>