<svg xmlns="http://www.w3.org/2000/svg" width="1920" height="556" fill="none" xmlns:v="https://vecta.io/nano"><g clip-path="url(#A)"><g opacity=".4" stroke="#00f0b5"><path d="M1817.5 381.457c-25.62-10.413-42.28-23.356-50.12-38.777-7.83-15.398-6.92-33.377 2.87-54.005 19.66-41.423 39.84-77.633 60.54-108.633 20.64-30.903 53.56-53.116 98.82-66.606 45.17-13.466 90.47-4.927 135.94 25.69 22.73 15.31 39 32.254 48.83 50.824 9.83 18.564 13.25 38.78 10.25 60.662-6.04 43.953-12.5 81.578-19.38 112.878-6.86 31.184-25 58.136-54.47 80.856-14.7 11.33-30.36 17.092-47 17.31s-34.3-5.108-52.98-16.024c-37.5-21.912-81.94-43.303-133.3-64.175z"/><path d="M1845.88 361.917c-20.8-8.457-34.32-18.957-40.68-31.45-6.34-12.467-5.6-27.03 2.32-43.752 15.95-33.614 32.32-62.995 49.12-88.146 16.73-25.055 43.43-43.063 80.17-53.994 36.65-10.905 73.4-3.967 110.32 20.887 18.45 12.428 31.66 26.178 39.64 41.238 7.98 15.053 10.76 31.443 8.33 49.186-4.88 35.674-10.12 66.2-15.7 91.612-5.56 25.284-20.27 47.137-44.17 65.558-11.92 9.182-24.62 13.844-38.1 14.016s-27.8-4.15-42.98-13.012c-30.47-17.802-66.56-35.183-108.27-52.144z"/><path d="M1863.32 349.946c-17.82-7.248-29.4-16.242-34.83-26.93-5.43-10.664-4.8-23.125 1.98-37.45 13.68-28.82 27.7-54.008 42.1-75.57 14.34-21.466 37.22-36.898 68.7-46.267 31.4-9.343 62.9-3.4 94.53 17.9 15.82 10.65 27.13 22.432 33.97 35.332 6.84 12.894 9.22 26.93 7.14 42.13-4.2 30.586-8.68 56.766-13.46 78.543-4.76 21.66-17.36 40.384-37.85 56.17-10.2 7.865-21.08 11.856-32.62 12.003-11.56.147-23.83-3.554-36.82-11.147-26.13-15.266-57.08-30.17-92.85-44.714z"/></g></g><defs><clipPath id="A"><path fill="#fff" d="M0 0h1920v556H0z"/></clipPath></defs></svg>