<svg xmlns="http://www.w3.org/2000/svg" width="48" height="48" fill="#7772f1" xmlns:v="https://vecta.io/nano"><path d="M33.3 37a.959.959 0 0 0-1.376 1.335.95.95 0 0 0 .674.282c.227 0 .464-.084.665-.28A.94.94 0 0 0 33.299 37zm8.5-18.048a.94.94 0 0 0-1.205-.553c-.486.18-.733.72-.553 1.205a19.62 19.62 0 0 1 1.22 6.837c0 10.854-8.83 19.685-19.685 19.685a19.57 19.57 0 0 1-11.197-3.492c-.425-.295-1-.2-1.304.237s-.2 1 .237 1.304A21.39 21.39 0 0 0 21.567 48c5.76 0 11.173-2.243 15.245-6.315s6.315-9.486 6.315-15.245a21.5 21.5 0 0 0-1.336-7.488zM28.823 6.134a21.5 21.5 0 0 0-7.26-1.253c-5.76 0-11.173 2.243-15.245 6.315S.004 20.682.004 26.44c0 4.466 1.353 8.75 3.914 12.4.182.26.473.398.768.398.186 0 .374-.055.538-.17a.94.94 0 0 0 .227-1.306C3.114 34.43 1.88 30.518 1.88 26.44c0-10.854 8.83-19.685 19.685-19.685a19.63 19.63 0 0 1 6.629 1.144.94.94 0 0 0 1.198-.567.94.94 0 0 0-.567-1.198zm19.1 1.64a.94.94 0 0 0-.866-.58H42.13l.53-.53a.94.94 0 0 0 0-1.326.94.94 0 0 0-1.326 0l-.536.536V.937a.94.94 0 0 0-.579-.866c-.35-.145-.754-.065-1.02.203l-8.264 8.263c-.176.176-.275.414-.275.663v3.252c-2.704-1.77-5.82-2.697-9.1-2.697-9.2 0-16.685 7.485-16.685 16.685S12.36 43.126 21.56 43.126a16.66 16.66 0 0 0 8.639-2.408.94.94 0 0 0 .316-1.288.94.94 0 0 0-1.288-.316 14.78 14.78 0 0 1-7.667 2.136A14.83 14.83 0 0 1 6.75 26.44a14.83 14.83 0 0 1 14.81-14.81c3.335 0 6.48 1.08 9.1 3.126v1.26l-1.708 1.708c-1.995-1.694-4.576-2.718-7.392-2.718-6.306 0-11.436 5.13-11.436 11.436s5.13 11.436 11.436 11.436 11.436-5.13 11.436-11.436c0-2.816-1.024-5.397-2.718-7.392l1.715-1.715h1.247c2.02 2.6 3.13 5.8 3.13 9.107a14.77 14.77 0 0 1-2.215 7.795c-.273.44-.137 1.018.303 1.3.154.095.325.14.493.14.314 0 .62-.157.798-.443 1.633-2.633 2.496-5.67 2.496-8.783 0-3.238-.95-6.413-2.704-9.107h3.252a.94.94 0 0 0 .663-.275l8.264-8.263a.93.93 0 0 0 .203-1.02zm-16.8 18.667c0 5.272-4.3 9.56-9.56 9.56S12 31.713 12 26.44s4.3-9.56 9.56-9.56c2.3 0 4.4.816 6.062 2.173l-2.135 2.135c-1.096-.82-2.456-1.308-3.927-1.308a6.57 6.57 0 0 0-6.562 6.561 6.57 6.57 0 0 0 6.562 6.562 6.57 6.57 0 0 0 6.562-6.562c0-1.472-.487-2.832-1.308-3.927l2.135-2.135c1.357 1.65 2.173 3.763 2.173 6.062zm-10.224.663c.183.183.423.275.663.275s.48-.1.663-.275l3.246-3.245a4.66 4.66 0 0 1 .779 2.583c0 2.584-2.102 4.687-4.687 4.687s-4.687-2.103-4.687-4.687 2.102-4.687 4.687-4.687a4.66 4.66 0 0 1 2.583.779L20.9 25.78a.94.94 0 0 0 0 1.326zM32.536 14.14V9.6l6.4-6.4v4.55l-6.4 6.4zm5.87 1.32H33.87l6.4-6.4h4.537l-6.4 6.4zM7.623 40.34c-.174-.174-.416-.275-.663-.275a.94.94 0 0 0-.662 1.6c.174.174.415.275.663.275a.94.94 0 0 0 .663-.275c.175-.175.275-.416.275-.663s-.1-.487-.275-.663z"/></svg>