<svg xmlns="http://www.w3.org/2000/svg" xmlns:xlink="http://www.w3.org/1999/xlink" width="48" height="48" fill="none" xmlns:v="https://vecta.io/nano"><g fill="#7772f1"><path d="M47.725 8.805l-8.53-8.53C39.018.1 38.78 0 38.53 0H10.688c-1.55 0-2.812 1.262-2.812 2.813V4.6C3.27 6.406 0 10.895 0 16.134a.94.94 0 0 0 .938.938h11.446a.94.94 0 0 0 .938-.937V4.688a.94.94 0 0 0-.937-.937 12.38 12.38 0 0 0-2.633.283v-1.22a.94.94 0 0 1 .938-.937h26.906v5.72c0 1.55 1.262 2.812 2.812 2.812h5.72v34.78a.94.94 0 0 1-.937.938h-34.5a.94.94 0 0 1-.937-.937v-8.03a.94.94 0 0 0-.937-.937.94.94 0 0 0-.937.938v8.03a2.82 2.82 0 0 0 2.813 2.813h34.5A2.82 2.82 0 0 0 48 45.188V9.468a.94.94 0 0 0-.275-.663zm-36.28-3.138v9.53h-9.53a10.53 10.53 0 0 1 9.529-9.529zm28.96 2.865a.94.94 0 0 1-.937-.937V3.2l5.33 5.33h-4.394zM9.475 33.087a.94.94 0 0 0-.663-.275c-.247 0-.488.1-.663.275s-.275.416-.275.663.1.488.275.663.416.275.663.275.488-.1.663-.275.275-.416.275-.663-.1-.488-.275-.663zM15.74 7.1a.94.94 0 0 0-.937.938v10.508h-10.5a.94.94 0 0 0-.938.938 12.4 12.4 0 0 0 12.383 12.384 12.4 12.4 0 0 0 12.384-12.384A12.4 12.4 0 0 0 15.739 7.109zm.938 1.917a10.46 10.46 0 0 1 5.797 2.407l-5.797 5.797V9.026zM15.74 30c-5.478 0-10-4.214-10.467-9.57H15.74c.26 0 .493-.105.663-.274l7.398-7.398a10.46 10.46 0 0 1 2.448 6.735c0 5.794-4.714 10.5-10.508 10.5zm25.327-.412c-1.55 0-2.812 1.262-2.812 2.812a2.79 2.79 0 0 0 .223 1.096l-5.4 5.4c-.37-.18-.788-.282-1.228-.282a2.78 2.78 0 0 0-1.2.27l-3.587-3.587a2.8 2.8 0 0 0 .193-1.023c0-1.55-1.262-2.812-2.812-2.812s-2.812 1.262-2.812 2.813c0 .42.093.82.26 1.177l-3.44 3.44a2.8 2.8 0 0 0-1.21-.274c-1.55 0-2.812 1.262-2.812 2.813s1.262 2.813 2.812 2.813a2.82 2.82 0 0 0 2.813-2.812 2.8 2.8 0 0 0-.276-1.214l3.42-3.42a2.8 2.8 0 0 0 1.245.292c.505 0 .98-.134 1.4-.368l3.486 3.486c-.18.37-.28.785-.28 1.223a2.82 2.82 0 0 0 2.813 2.813c1.55 0 2.813-1.262 2.813-2.812a2.8 2.8 0 0 0-.267-1.196l5.35-5.35a2.81 2.81 0 0 0 1.323.33 2.82 2.82 0 0 0 2.813-2.812c0-1.55-1.262-2.812-2.812-2.812zM17.238 42.37a.94.94 0 0 1-.937-.937.94.94 0 0 1 1.588-.675l.025.025c.163.17.264.398.264.65a.94.94 0 0 1-.937.938zm7.203-7.156a.94.94 0 0 1-.937-.937.94.94 0 0 1 .938-.937.94.94 0 0 1 .938.938.94.94 0 0 1-.937.938zm7.407 7.152a.94.94 0 0 1-.937-.937.94.94 0 0 1 .938-.937.94.94 0 0 1 .938.938.94.94 0 0 1-.937.938zm9.22-9.027a.94.94 0 0 1-.937-.937.94.94 0 0 1 .938-.937.94.94 0 0 1 .938.938.94.94 0 0 1-.937.938zm-4.686-11.31h-4.948a.94.94 0 0 0-.937.938.94.94 0 0 0 .938.937h4.948a.94.94 0 0 0 .938-.937.94.94 0 0 0-.937-.938zm4.933.276c-.174-.174-.416-.275-.663-.275s-.488.1-.663.275-.275.416-.275.663.1.488.275.663a.94.94 0 0 0 1.326 0 .95.95 0 0 0 .275-.663.94.94 0 0 0-.275-.663z"/><use xlink:href="#B"/><use xlink:href="#B" y="4.5"/></g><defs ><path id="B" d="M42.886 13.03H31.434a.94.94 0 0 0-.937.938.94.94 0 0 0 .938.937h11.452a.94.94 0 0 0 .938-.937.94.94 0 0 0-.937-.938z"/></defs></svg>