<svg xmlns="http://www.w3.org/2000/svg" width="120" height="64" fill="none" fill-rule="evenodd" xmlns:v="https://vecta.io/nano"><path d="M21.644 30.8H0v-4.666h21.644V30.8zm0 7.617H0v-4.665h21.644v4.665zm0 7.617H0V41.36h21.644v4.665zM4.664 22.236H25.4v20.088l4.925-5.313V17.7H9.46l-4.795 4.537z" fill="#cc2229"/><path d="M47.044 17.406c-.106.315-.24.653-.3.968s-.06.653-.075.967c-1.338-.18-2.834-.36-5.138-.315l-.94 4.84h2.34c1.013 0 1.953-.1 2.808-.203l-.3.968c-.06.315-.06.653-.075.968-.904-.13-1.816-.2-2.73-.203h-2.34l-1.112 5.718 5.26-.315c-.106.315-.24.652-.3.968s-.06.652-.076.968H35.5l2.98-15.33 8.575.001zm2.972 0l1.666.113c.563 0 1.138-.068 1.7-.113l-3 15.44-1.666-.112c-.563 0-1.138.067-1.7.112l3-15.44zm7.578 15.44l-1.666-.112c-.563 0-1.138.067-1.7.112l3.002-15.44h8.576c-.105.315-.24.653-.3.968s-.06.653-.076.967a39.43 39.43 0 0 0-5.138-.315l-.94 4.84h2.386c.877 0 1.797-.1 2.763-.203-.106.316-.24.654-.3.968s-.06.653-.074.968l-2.707-.203h-2.363l-1.45 7.452zm11.255 0l-1.665-.112c-.563 0-1.14.067-1.7.112l3-15.44h8.576c-.106.315-.24.653-.3.968s-.06.653-.074.967c-1.343-.157-2.775-.315-5.138-.315l-.942 4.84h2.387c.877 0 1.795-.1 2.762-.203-.105.316-.24.654-.3.968s-.06.653-.076.968l-2.706-.203h-2.364l-1.45 7.452zm11.09-6.078l3.135-5.245.984 5.245h-4.12zm4.37 1.374c.315 1.508.5 3.038.684 4.705l1.957-.112c.652 0 1.27.067 1.914.112l-3.24-15.644c-.288.045-.578.067-.87.068s-.557-.023-.84-.068l-9.47 15.598 1.094-.067c.36 0 .7.044 1.045.067l2.48-4.66h5.244zm20.925 3.984c-2.135.563-4.226 1.013-6.208 1.013-4.75 0-8.518-2.387-7.5-7.677C92.624 19.86 97.277 17 102.476 17c1.937 0 3.658.406 5.16 1.373-.456.72-.834 1.508-1.072 2.274h-.317c-.74-1.508-2.21-2.296-3.987-2.296-3.76 0-6.265 3.4-7 7.18-.76 3.916.765 6.26 4.186 6.26.905.005 1.797-.212 2.6-.63l1.023-5.267c.554.045 1.104.113 1.667.113s1.14-.068 1.71-.113l-1.2 6.235zM120 17.406c-.105.315-.24.653-.3.968s-.06.653-.075.967c-1.338-.18-2.834-.36-5.14-.315l-.94 4.84h2.342c1.012 0 1.953-.1 2.807-.203-.105.316-.24.654-.3.968s-.06.653-.074.968c-.904-.13-1.817-.2-2.73-.203h-2.342l-1.11 5.718c2.3-.023 3.853-.134 5.26-.315-.107.315-.24.652-.3.968s-.06.652-.075.968h-8.576l2.98-15.33 8.575.001zM41.156 44.812l-.4.892c-.685.322-1.446.447-2.14.447-2.22 0-3.635-1.37-3.22-3.497.526-2.707 2.633-3.942 4.895-3.942.684 0 1.48.176 2.018.508-.162.354-.293.705-.446 1.068h-.145c-.142-.286-.36-.527-.633-.695a1.72 1.72 0 0 0-.904-.258c-1.722 0-2.738 1.65-3.034 3.174-.345 1.775.285 3.02 1.882 3.02.643 0 1.454-.332 2.008-.778l.122.06zm5.92-5.477c1.556 0 1.88 1.535 1.62 2.874-.335 1.72-1.36 3.32-2.96 3.32-1.556 0-1.9-1.433-1.628-2.78.452-2.323 1.525-3.413 2.967-3.413zm3.304 3.07c.302-1.608-.164-3.694-3.12-3.694-2.584 0-4.412 1.67-4.814 3.736-.457 2.354.825 3.703 3.12 3.703 2.54 0 4.432-1.723 4.815-3.745zm1.906-3.507h1.027c1.16 1.608 2.4 3.185 3.538 4.855l.944-4.855a2.86 2.86 0 0 0 .83 0l-1.383 7.118-.88-.01-2.748-3.85-.9-1.183-.976 5.02c-.132-.01-.274-.03-.41-.03s-.285.02-.42.03l1.38-7.096zm10.975 1.338c-.1-.55-.427-.903-1.017-.903-.82 0-1.224.425-1.34 1.016-.272 1.4 2.933 1.142 2.47 3.518-.26 1.327-1.585 2.282-3.193 2.282-.57 0-1.156-.134-1.583-.447.21-.435.408-.87.556-1.318h.197c.016.716.494 1.142 1.21 1.142.643 0 1.284-.363 1.423-1.08.323-1.66-2.886-1.06-2.4-3.558.232-1.194 1.243-2.18 2.82-2.18.747 0 1.356.28 1.542.498-.188.332-.358.675-.53 1.028h-.156 0zm3.723 5.78c-.256-.02-.51-.052-.768-.052s-.526.03-.788.052l1.24-6.38c-.737 0-1.404.073-1.958.145.048-.145.108-.29.14-.445.028-.145.025-.29.032-.436h5.344c-.05.145-.11.29-.137.436-.03.156-.027.3-.035.445-.597-.072-1.196-.145-1.828-.145l-1.24 6.38zm5.684-6.557c.632 0 1.427-.083 1.426.78a2.7 2.7 0 0 1-.049.519c-.208 1.068-.848 1.587-1.918 1.483l.54-2.78zm-2.83 6.557c.264-.02.53-.052.788-.052s.514.03.768.052l.647-3.33h.073l.45 1.15.812 2.18c.315-.02.632-.052.943-.052.323 0 .627.03.935.052l-.28-.644c-.435-.964-.892-1.92-1.27-2.916 1.006-.207 1.784-.85 1.98-1.867.137-.705-.084-1.172-.615-1.483-.4-.228-1.152-.208-1.64-.208h-2.2l-1.383 7.118zm7.867-7.117c.256.02.51.052.768.052s.526-.03.788-.052l-.572 2.946c-.112.57-.298 1.422-.31 1.962-.004.508.016.83.32 1.192.27.312.64.447 1.096.447.964 0 1.552-.354 2.1-1.256.276-.456.505-1.64.604-2.147l.612-3.144c.275.04.555.04.83 0l-.72 3.693c-.26 1.183-.46 2.26-1.684 3.008-.64.406-1.383.55-2.067.55-1.255 0-2.538-.395-2.66-1.743-.036-.404.001-.862.08-1.276l.823-4.23zm12.452 5.913l-.402.892c-.685.322-1.445.447-2.142.447-2.22 0-3.634-1.37-3.22-3.497.526-2.707 2.634-3.942 4.896-3.942.684 0 1.48.176 2.018.508-.162.354-.294.705-.447 1.068H90.7c-.142-.286-.36-.527-.633-.695s-.584-.258-.904-.258c-1.723 0-2.738 1.65-3.035 3.174-.344 1.775.285 3.02 1.883 3.02.642 0 1.455-.332 2.008-.778l.123.06zm3.926 1.204c-.256-.02-.51-.052-.768-.052s-.526.03-.788.052l1.24-6.38c-.736 0-1.404.073-1.957.145.05-.145.108-.29.14-.445.028-.145.025-.29.033-.436h5.342c-.05.145-.108.29-.137.436-.03.156-.027.3-.035.445-.597-.072-1.196-.145-1.83-.145l-1.24 6.38zM98.48 38.9c.255.02.51.052.768.052s.524-.03.788-.052l-1.383 7.118c-.256-.02-.51-.052-.768-.052s-.526.03-.788.052L98.48 38.9zm6.815.436c1.556 0 1.88 1.535 1.62 2.874-.336 1.72-1.36 3.32-2.96 3.32-1.556 0-1.9-1.433-1.628-2.78.452-2.323 1.524-3.413 2.967-3.413zm3.303 3.07c.303-1.608-.163-3.694-3.12-3.694-2.583 0-4.413 1.67-4.813 3.736-.457 2.354.826 3.703 3.118 3.703 2.542 0 4.432-1.723 4.815-3.745zm1.906-3.507h1.027c1.16 1.608 2.4 3.185 3.538 4.855l.945-4.855c.275.04.554.04.83 0l-1.382 7.118-.88-.01-2.747-3.85-.9-1.183-.976 5.02c-.132-.01-.273-.03-.408-.03s-.285.02-.422.03l1.378-7.096z" fill="#000"/></svg>