<svg xmlns="http://www.w3.org/2000/svg" xmlns:xlink="http://www.w3.org/1999/xlink" width="120" height="64" fill="none" xmlns:v="https://vecta.io/nano"><g fill-rule="evenodd"><path d="M120 34.657l-.092-.59-3.83.602V18.554c0-2.103-.824-4.085-2.322-5.583s-3.48-2.322-5.582-2.322H81.088l19.003-3.06-.095-.59-22.66 3.65h-64.91c-4.358 0-7.905 3.546-7.905 7.904v3.824L0 23.107l.095.59 4.427-.713v19.135c0 2.103.825 4.086 2.322 5.582a7.85 7.85 0 0 0 2.559 1.72c.958.398 1.986.603 3.024.6h5.826l-9.526 1.495.092.59L22.1 50.02h86.074c2.103 0 4.084-.824 5.582-2.322.737-.73 1.322-1.6 1.72-2.56s.603-1.986.602-3.024v-6.844l3.923-.617z" fill="#000"/><path d="M5.414 18.557a6.96 6.96 0 0 1 2.059-4.95 6.96 6.96 0 0 1 4.95-2.059h59.354l-66.364 10.7v-3.68zM115.18 42.12a7.02 7.02 0 0 1-7.01 7.01h-80.37l40.06-6.287-.094-.59L23.95 49.13H12.424c-1.864 0-3.622-.73-4.95-2.06a6.96 6.96 0 0 1-2.059-4.95V22.84L75.53 11.547h32.64c1.863 0 3.622.73 4.95 2.06a6.96 6.96 0 0 1 1.526 2.269 6.97 6.97 0 0 1 .535 2.682v16.255l-10.497 1.648.092.588 10.405-1.633v6.704z" fill="#fff"/><path d="M10.682 31.3c-.12-.752-.118-.877-.866-.988-.277-.04-.5-.193-.534-.478-.094-.6.57-.737.652-.75l5.366-.85 2.05 12.927c.12.752.118.877.865.988.277.04.5.193.535.477.093.6-.57.738-.652.75l-5.753.913c-.08.012-.76.08-.852-.5-.045-.285.1-.498.36-.62.676-.336.636-.455.517-1.207L10.682 31.3zm5.533-3.212l4.533-.72.654 4.126c.016.102.057.492-.553.587-.345.055-.48-.132-.63-.42-.8-1.563-1.984-2.394-3.82-2.395l-.187-1.18zm1.078 6.788c.818-.358 1.08-1.212 1.14-2.014.047-.36.117-.707.544-.774.63-.1.645.647.67.8l.697 4.4c.026.163.244.88-.387.98-.427.068-.6-.24-.756-.568-.305-.743-.817-1.474-1.707-1.563l-.2-1.26zm9.352-3.17l-.808 7.255c-.128 1.3.2 1.592.95 1.787.348.1.652.168.716.575.1.568-.563.652-.97.716l-2.337.37c-.406.064-1.142.16-1.235-.43-.077-.488.27-.523.683-.816.4-.292.866-.847 1.023-2.35l1.023-9.3.06-.01.892 2.212zm3.155 5.76l-2.967.47.098-1.224 2.48-.393-3.478-8.658.1-1.14 4.492-.713 5.087 12.363c.212.55.294.932.9 1.086.304.077.55.184.608.55.087.548-.648.644-1.034.705l-5.062.803c-.406.064-1.002.117-1.086-.4-.05-.326.055-.447.296-.63.48-.4.54-.544.23-1.308l-.655-1.5zM42.83 23.54c.755-.1 2.447.446 2.974.362.305-.05.408-.2.487-.473s.197-.47.48-.514c.65-.103.75.527.767.63l.748 4.715c.016.1.116.732-.535.835-.427.068-.725-.24-.868-.612-.607-1.592-1.898-3.554-3.87-3.762l-.187-1.18zm5.765 10.463c.386-.06.662.228.72.593.224 1.674-1.85 4.502-3.975 4.757l-.187-1.18c1.5-.593 2.667-1.84 2.875-3.415.068-.365.14-.7.567-.756zm-4.17 5.496c-4.485.628-7.137-2.43-7.798-6.6-.745-4.695 1.37-8.448 5.3-9.216l.187 1.18c-.944.358-1.137 1.243-1 2.097l1.53 9.635c.135.853.593 1.635 1.607 1.724l.186 1.18zm8.125-17.2l4.98-.8 2.05 12.927c.12.752.118.877.866.988.277.04.488.193.533.477.094.6-.57.737-.652.75l-5.752.912c-.08.012-.76.078-.852-.5-.045-.285.108-.498.36-.62.676-.336.636-.455.517-1.207L52.55 22.3zm9.573 3.337c.014.08.033.6-.578.696-.57.1-.754-.422-.886-.86-.354-1.05-.852-2.345-2.028-2.93l-.187-1.18 2.927-.464.75 4.736zM48.708 22.92l2.927-.465.187 1.18c-.937.92-1 2.306-1.022 3.413.01.457-.008 1-.577 1.092a.62.62 0 0 1-.765-.483l-.75-4.736zm19.63-2.218c-.9.497-.884 1.12-.804 1.628l1.67 10.53c.08.507.26 1.104 1.268 1.3l.186 1.178c-4.37.3-6.933-2.858-7.575-6.903s.82-7.84 5.066-8.9l.188 1.18zm3.05 13.3c.9-.498.886-1.12.804-1.63l-1.67-10.53c-.08-.508-.26-1.105-1.27-1.3l-.186-1.18c4.37-.298 6.935 2.86 7.576 6.904s-.82 7.84-5.068 8.9l-.188-1.178zm7-13.47c-.12-.752-.12-.877-.866-.987-.277-.04-.5-.193-.535-.478-.094-.6.57-.737.652-.75l5.366-.85 2.05 12.928c.12.752.12.877.866.988.276.04.488.193.533.478.094.6-.57.737-.652.75l-5.752.914c-.08.012-.76.077-.852-.5-.045-.285.108-.498.36-.62.676-.337.636-.455.518-1.207L78.4 20.544zm5.533-3.2l.1-.016c1.322-.2 2.696-.47 4-.074 1.468.455 2.337 1.463 2.602 3.004.412 2.33-.972 3.593-2.968 4.4l.007.04c1.85-.023 3.662.232 4.045 2.38l.283 1.8c.03.183.034.6.298.557.326-.052.292-.65.78-.728.264-.042.638.212.683.496.095.6-.457 1.448-.85 1.865-.602.68-1.307.958-2.18 1.096s-1.702.04-2.43-.5c-.828-.62-1.07-1.497-1.223-2.453l-.22-1.382c-.148-.935-.348-2.07-1.587-1.998l-.2-1.2c1.082-.276 1.118-.97.96-1.964l-.4-2.46c-.16-1.017-.463-1.47-1.538-1.674l-.2-1.2zm17.143 3.094l.683-2.526c.108-.37.2-.72.134-1.125-.193-1.22-1.505-.553-1.637-1.387-.116-.732.733-.763 1.222-.84l2.256-.358c.467-.074 1.043-.124 1.14.486.054.345-.147.523-.413.7-.78.477-.953.818-1.208 1.712l-1.298 4.686-.88-1.34zm-4.18 4.393l-4.224-6.8c-.2-.344-.344-.6-.724-.76-.287-.1-.507-.17-.56-.515-.1-.63.557-.692.984-.76l5.02-.797c.448-.07 1.112-.218 1.215.433.05.305-.15.503-.35.68-.204.157-.354.265-.308.55.042.264.185.512.326.74l3.432 5.352.746 4.695c.118.753.118.877.865.988.278.04.5.193.534.478.093.6-.57.737-.652.75l-5.752.913c-.08.013-.76.08-.852-.5-.045-.285.1-.497.36-.62.676-.337.636-.455.518-1.207l-.574-3.618zm-21.2 19.244L75.718 46c-.384.148-1.478.363-2.57.35-3.082-.027-4.606-1.8-4.606-3.96 0-1.584 1.3-4.698 5.897-5.973l.42 2.027c-2.012.4-4.222 1.906-4.222 3.865a2.24 2.24 0 0 0 .174.867 2.23 2.23 0 0 0 .496.732 2.24 2.24 0 0 0 1.61.643c.327 0 .64 0 .85-.04v-1.544a26.12 26.12 0 0 0-.023-1.047H75.7c-.012.444-.012.752-.012 1.155v.98h.001zm6.986 2.214c-.232 0-4.025-.133-4.7-.133.06-.712.06-3.585.06-3.906v-1.785l-.046-3.785h2.093c-.022.3-.07 3.02-.07 4.7v3.006c.28 0 1.65 0 2.653-.053l.01 1.946zm.36-.898l4.525-9.194h.08c1.244 2.215 4.222 8.04 4.827 9.072l-1.768 1.235-1.268-2.63-3.722.2-.978 2.442-1.697-1.127z" fill="#000"/><path d="M88.834 42.372l-1.268-2.806-1.245 2.94 2.513-.134z" fill="#fff"/><path d="M93.45 44.6c1.128-.08 2.443-.563 2.443-1.355 0-.43-.245-.657-1.153-1.248-.838-.55-1.63-1.168-1.63-2.242 0-1.476 1.732-2.98 4.13-3.33l.28 1.758c-1.153.055-2.28.484-2.28 1.263 0 .456.547.764 1.2 1.167.71.442 1.605.967 1.605 2.134 0 1.41-1.28 3.114-4.28 3.638L93.45 44.6zm6.268 0c1.128-.08 2.443-.563 2.443-1.355 0-.43-.244-.657-1.153-1.248-.838-.55-1.628-1.168-1.628-2.242 0-1.476 1.733-2.98 4.13-3.33l.278 1.758c-1.152.055-2.28.484-2.28 1.263 0 .456.547.764 1.2 1.167.71.442 1.604.967 1.604 2.134 0 1.41-1.278 3.114-4.28 3.638L99.72 44.6zm-80.604 8.83l.564-.95h.375l-.31.95h-.628zm-.95 0l.564-.95h.375l-.31.95h-.628zm4.804 2.63h-2.506l.182-3.58h.838l-.15 3.01h.65l1.025-.016-.038.584zm1.32-2.667l-.102 2.667h-.8l.124-2.667h.778zm-.763-.45l.01-.506h.773l-.02.506h-.763zm1.32.976l.027-.526h.36v-.328c0-.644.537-.714.822-.714.22 0 .435.027.65.085l.027.51a1.35 1.35 0 0 0-.462-.102c-.376 0-.376.264-.376.548h.666l-.027.526H25.9l-.075 2.142h-.762l.113-2.142h-.328 0zm2.775.85v.087c0 .498.338.778.82.778.306 0 .6-.08.89-.17l-.097.563a3.86 3.86 0 0 1-.869.102c-1.38 0-1.493-.935-1.493-1.304 0-.5.188-1.493 1.45-1.493.724 0 1.25.364 1.25 1.127a1.77 1.77 0 0 1-.032.311h-1.922 0z" fill="#000"/><use xlink:href="#B" fill="#fff"/><path d="M31.044 53.92l-.06 1.23c0 .225.043.408.28.408.214 0 .3-.032.43-.064l-.096.552a2.25 2.25 0 0 1-.601.081c-.505 0-.757-.167-.757-.694 0-.273.075-1.395.086-1.514h-.376l.02-.526h.397l.027-.488.692-.15-.02.64h.67l-.022.526h-.67zm2.033-.525l-.102 2.667h-.8l.124-2.667h.778zm-.763-.45l.01-.506h.773l-.02.506h-.763zm2.24.858l.01.01c.177-.323.5-.483.87-.483.36 0 .677.133.8.488.2-.35.52-.488.907-.488.472 0 .86.214.86.724l-.097 2.007h-.746l.097-1.686c0-.268-.102-.445-.397-.445-.35 0-.52.27-.574.575-.06.328-.075 1.288-.08 1.556h-.752l.086-1.668c0-.26-.09-.463-.386-.463-.36 0-.52.29-.574.607-.064.376-.075 1.277-.075 1.524h-.757l.118-2.667h.714l-.022.408zm4.78.966v.087c0 .498.338.778.82.778.306 0 .6-.08.89-.17l-.097.563a3.86 3.86 0 0 1-.869.102c-1.38 0-1.493-.935-1.493-1.304 0-.5.188-1.493 1.45-1.493.724 0 1.25.364 1.25 1.127 0 .112-.016.225-.032.31h-1.922v.001z" fill="#000"/><use xlink:href="#B" x="11.714" fill="#fff"/><path d="M46.124 56.06h-2.507l.182-3.58h.838l-.15 3.01h.65l1.025-.016-.038.584zm1.09-1.293v.087c0 .498.338.778.82.778.306 0 .6-.08.89-.17l-.097.563a3.86 3.86 0 0 1-.869.102c-1.38 0-1.493-.935-1.493-1.304 0-.5.188-1.493 1.45-1.493.725 0 1.25.364 1.25 1.127 0 .112-.016.225-.032.31h-1.922v.001z" fill="#000"/><use xlink:href="#B" x="19.593" fill="#fff"/><path d="M50.972 56.077a2.5 2.5 0 0 1-.494.048c-.864 0-.955-.516-.955-.757 0-1.084 1.9-.735 1.9-1.315 0-.257-.3-.295-.488-.295-.36 0-.714.096-1.047.225l.08-.5c.382-.09.768-.155 1.16-.155.472 0 1.04.112 1.04.697l-.09 2.034h-.746l.09-1.38c-.28.246-1.176.22-1.176.697 0 .252.236.318.45.318.145 0 .285-.032.42-.08l-.135.464zm1.846-.017l.145-3.58h.757l-.15 3.58h-.752zm1.6-1.487l1.058 1.487h-.827c-.296-.52-.67-.987-.988-1.493l.93-1.175h.843l-1.014 1.18zm2.2 2.7h-.767l.172-3.785c.424-.08.853-.15 1.342-.15 1.256 0 1.44.843 1.44 1.368 0 .73-.392 1.428-1.202 1.428-.36 0-.71-.145-.93-.43h-.01l-.043 1.567z" fill="#000"/><path d="M56.742 53.964c-.04.297-.057.596-.054.896 0 .418.3.74.677.74.483 0 .682-.504.682-.918 0-.472-.22-.827-.73-.827a1.93 1.93 0 0 0-.575.108z" fill="#fff"/><path d="M60.143 53.752h.01c.167-.264.386-.424.72-.424a1.11 1.11 0 0 1 .231.027l.02.628a.86.86 0 0 0-.289-.055c-.386 0-.607.253-.683.628-.06.29-.064.86-.064 1.17v.332h-.746l.102-2.667h.714l-.016.36zm4.108.93c0 .52-.28 1.444-1.515 1.444-1.084 0-1.433-.752-1.433-1.33 0-.914.623-1.465 1.52-1.465.843-.001 1.428.482 1.428 1.352z" fill="#000"/><path d="M62.05 54.812c0 .43.236.788.697.788.537 0 .757-.456.757-.933 0-.445-.2-.81-.687-.81-.558.001-.767.457-.767.957z" fill="#fff"/><path d="M67.674 54.684c0 .52-.28 1.444-1.514 1.444-1.086 0-1.434-.753-1.434-1.33 0-.914.623-1.465 1.52-1.465.843-.001 1.428.482 1.428 1.352z" fill="#000"/><path d="M65.477 54.812c0 .43.236.788.698.788.536 0 .756-.456.756-.933 0-.445-.2-.81-.687-.81-.558.001-.767.457-.767.957z" fill="#fff"/><path d="M68.12 53.92l.027-.526h.36v-.328c0-.644.536-.714.82-.714a2.44 2.44 0 0 1 .649.085l.027.51c-.145-.055-.306-.102-.462-.102-.376 0-.376.264-.376.548h.666l-.027.526h-.634l-.074 2.142h-.763l.113-2.142h-.328 0zm3.693-1.437h.816l1.04 3.028.584-1.256-.628-1.77h.784l.263.933h.01l.403-.933h.73l-.816 1.728.445 1.278 1.385-3.006h.8l-1.75 3.58h-.967l-.337-1.04-.472 1.04h-.972l-1.33-3.58zm7.072 3.596c-.16.032-.323.048-.495.048-.864 0-.955-.516-.955-.757 0-1.084 1.9-.735 1.9-1.315 0-.257-.29-.295-.5-.295-.36 0-.713.096-1.047.225l.08-.5c.382-.09.767-.155 1.16-.155.472 0 1.04.112 1.04.697l-.09 2.034h-.747l.092-1.38c-.28.247-1.177.22-1.177.697 0 .252.236.318.45.318.145 0 .285-.032.42-.08l-.132.464zm2.646-2.324h.01c.167-.264.386-.424.72-.424a1.1 1.1 0 0 1 .231.027l.023.628a.87.87 0 0 0-.291-.055c-.386 0-.607.253-.68.628-.06.29-.064.86-.064 1.17v.332h-.747l.103-2.667h.713l-.016.36zm2.195 0h.01c.167-.264.386-.424.72-.424.08 0 .155.01.23.027l.02.628a.87.87 0 0 0-.291-.055c-.385 0-.606.253-.68.628-.06.29-.064.86-.064 1.17v.332h-.747l.103-2.667h.713l-.016.36zm2.706 2.324a2.5 2.5 0 0 1-.494.048c-.866 0-.956-.516-.956-.757 0-1.084 1.9-.735 1.9-1.315 0-.257-.3-.295-.488-.295-.36 0-.715.096-1.047.225l.08-.5c.382-.09.768-.155 1.16-.155.472 0 1.04.112 1.04.697l-.09 2.034h-.747c.028-.236.044-.477.092-1.38-.28.247-1.176.22-1.176.697 0 .252.238.318.45.318.145 0 .285-.032.42-.08l-.134.464zm2.716-2.25h.01c.225-.37.59-.498 1.025-.498.568 0 .998.22.998.848l-.074 1.883h-.795c.07-.515.124-1.04.124-1.556 0-.386-.178-.575-.57-.575-.424 0-.655.312-.73.7-.08.43-.085 1.19-.09 1.432h-.768l.145-2.667h.752l-.028.434zm3.67.1l-.06 1.23c0 .225.042.408.28.408.214 0 .3-.032.43-.064l-.098.552a2.25 2.25 0 0 1-.602.081c-.504 0-.756-.167-.756-.694 0-.273.075-1.395.085-1.514h-.376l.02-.526h.397l.027-.488.694-.15-.02.64h.67l-.02.526h-.67zm.922-.525h.768l.585 2.072h.01l.8-2.072h.74l-1.44 3.258c-.133.3-.337.683-1.04.683a2.34 2.34 0 0 1-.547-.066l-.076-.58a1.03 1.03 0 0 0 .511.117c.354 0 .515-.376.634-.687l-.946-2.726zm4.145.037l.312-.95h.628l-.564.95h-.376zm-.95 0l.31-.95h.628l-.565.95h-.374z" fill="#000"/></g><defs ><path id="B" d="M28.86 54.407c0-.413-.145-.634-.553-.634-.376 0-.617.284-.666.634h1.22z"/></defs></svg>