<svg xmlns="http://www.w3.org/2000/svg" width="120" height="64" fill="none" fill-rule="evenodd" xmlns:v="https://vecta.io/nano"><path d="M23.39 13v19.802s1.765-1.636 4.942-1.508c3.21.192 5.68 3.98 9.21 3.98 3.402 0 4.43-1.638 4.43-1.638s-.93-.128-3.402-1.154C36.1 31.487 33.5 28.6 30.71 28.6s-4.43 1.637-4.43 1.637h-.417l1.766-1.86v-15.02c8.57 1.765 15.084 9.404 15.084 18.455 0 10.335-8.473 18.808-18.872 18.808C13.473 50.616 5 42.143 5 31.808c-.001-2.704.58-5.376 1.704-7.835a18.82 18.82 0 0 1 4.811-6.415v27.73s-.097 0 0 0v.096l.417-.385c.802-.418 2.567-1.348 5.873-1.348 4.558 0 6.29 2.15 12.614 2.054 6.387 0 10.1-5.36 10.1-5.36s-3.5 1.123-8.794 1.123c-5.36 0-6.707-1.54-10.43-1.54-3.7 0-6.707 2.568-6.707 2.568h-.29l1.54-1.733V14.765c.5-.252 1.016-.477 1.54-.674V39.19l.097-.096-.097.096s2.6-2.567 6.3-2.567c3.724 0 5.586 2.984 10.752 2.984s7.35-3.595 7.35-3.595-2.375.3-5.168.3-5.488-2.985-9.404-2.985c-4.043 0-6.61 2.89-6.61 2.89h-.32l1.573-1.637V13.064C22.364 13 22.877 13 23.39 13z" fill="#cc2229"/><path d="M60.17 35.37c-.257 1.413-1.733 3.21-3.435 4.333-3.242 2-5.52 3.113-6.483 3.273-1.188.322-.674 2.023.64 2.023s6.066-.9 8.633-2.28c2.407-1.413 5.553-4.975 5.553-4.975s2.118 3.113 4.942 4.75c2.76 1.604 7.2 2.086 8.986 2.086 1.605 0 1.092-1.766.13-2.086-1.092-.3-5.39-1.798-6.74-3.435-.707-.803-1.893-2.343-2.247-3.69h9.917c1.284-1.06 1.284-2.118 0-3.048H67.874v-2.44H80.07c1.027 0 .963-2.696 0-2.696H55.968v-2.568H80.07V16.24H50.96c-1.027-.097-1.188 2.76 0 2.89h23.3v2.6H51.378c-1.09.095-1.348.834-1.09 1.604v6.515H62.13v2.536H50.287c-1.54.995-1.54 1.958 0 2.985h9.885zm42.655-11.78h-7.2c-1.187.096-1.218 2.792 0 2.89h7.2v3.66c-.578.834-1.637 2.183-2.89 2.183H91.11V19.353h8.376c1.54 0 2-2.73 0-2.73H85.366c-.033.096.128 18.97.128 18.97h14.925c1.22 0 2-.514 2.407-1.09v10.783c-.096 1.155 4.3 1.445 4.3 0v-28.82c-.386-1.348-4.397-1.348-4.3 0l.001 7.125zm6.964-7.478c.065-1.67 4.622-1.348 4.622 0V45.03c-.225 1.958-4.557 1.54-4.622 0V16.11z" fill="#000"/></svg>