<svg xmlns="http://www.w3.org/2000/svg" width="120" height="64" fill="none" xmlns:v="https://vecta.io/nano"><path fill-rule="evenodd" d="M0 42.736v-20.35h8.016l5.952 9.504v-9.504h6.192v20.352h-6.192l-7.68-12.384v12.384H0v-.001zM108.528 22v11.184h1.583l2.785-5.376h6.576l-4.512 7.152 5.04 7.776h-6.864l-3.265-5.903h-1.343v5.903h-5.713V22h5.713zm-22.08 20.736V27.81h5.52v1.583c.48-1.104 1.344-1.583 2.45-1.583h3.792c2.352 0 3.072 1.103 3.072 3.456v4.56h-5.087v-2.88h-4.225v9.792h-5.52zm-13.344-4.99H78v-5.088h-4.896v5.088zm4.992 3.024c-.576 1.488-1.92 1.968-3.41 1.968h-3.023c-1.44 0-2.545-.432-3.313-1.248-.72.67-1.633 1.248-2.735 1.248H62.88c-2.832 0-3.696-1.632-3.696-4.224v-5.568h-3.12v9.792H50.11v-9.792H46.56v9.792H40.75V27.81h5.808v1.583a3.35 3.35 0 0 1 2.881-1.583h2.544c1.296 0 2.64.528 3.072 1.536.672-1.008 1.632-1.536 2.688-1.536h2.688c3.073 0 4.225.816 4.225 3.792v5.808h2.593v-5.712c0-2.64 1.103-3.936 3.792-3.888h3.983c1.248.048 2.45.24 3.12 1.392V27.81h5.76v9.6h1.008v5.328H81.17c-1.586-.001-2.402-.53-3.074-1.968zM38.64 27.81v8.544c0 .815 0 1.056.864 1.056v5.328h-2.688c-1.583 0-2.83 0-3.744-1.68-1.153 1.103-2.448 1.68-4.08 1.68h-3.456c-2.88 0-3.983-2.112-3.983-4.656V27.81h6.144v9.6h4.8v-9.6h6.144z" fill="#747778"/></svg>