<svg xmlns="http://www.w3.org/2000/svg" width="120" height="64" fill="none" xmlns:v="https://vecta.io/nano"><g clip-path="url(#A)" fill-rule="evenodd" fill="#b3b7bc"><path d="M5.44 29.545c-2.937-.326-4.352-.98-4.787-1.088C0 28.24 0 29 0 29v.544c.1.762.435.762.435.762-.217.1-.326.218 0 .98.218.762.76.87.76.87.1 1.198 1.414 1.306 1.414 1.306-.217 1.198 1.74 1.088 1.74 1.088-.1 1.198 1.414.76 1.414.76 0 .653 1.306.217 1.306.217-.326.87 1.306.1 1.306.1.1.76.76.217.76.217.436-.652.326-.544.98-1.088.544-.544.98.436.98.436a5.27 5.27 0 0 1 .435 1.196c1.088 3.046 2.067 3.482 2.067 3.482.218.108.653.108.762.543.217.436-.1.763-.1.763-.653.98-.436 1.196-.436 1.196-.1.544.436.76.436.76-.327-.327-.1-.544-.1-.544.1-.1.1-.217.218-.435.217-.327.653-.327.653-.327.332.264.698.484 1.088.652.327.22.327.654.327.654.326-.435.217-.76.217-.76.1-.327-.653-.76-.653-.76l.218.108c.326-.326.653.1.653.1 0-.76-.653-.652-.653-.652-.326-.1-.653-.1-1.197-.653-.543-.652-.543-.87-.543-.87h.1c.326 0 .544-2.72.544-2.72.218.76.653 1.413 1.088 1.958s.87.436.87.436c.217 0 .544.217.98.544.326.435.218.98.218.98-.1 1.196.218 1.413.218 1.413.217.544.87.436.87.436-.435-.1-.326-.544-.326-.544 0-.1-.1-.217-.1-.544.1-.327.435-.653.435-.653.76.218 1.523 0 1.523 0 .435.1.543.544.543.544.218-.544-.108-.87-.108-.87-.1-.327-.98-.327-.98-.327l.1-.1c.218-.544.87-.217.87-.217-.544-.652-1.088-.217-1.088-.217-.326 0-.653.435-1.523.1s-1.088-1.415-1.088-1.415c.217-.435.217-1.306.326-2.067 0-.652-.1-1.196-.1-1.196l-.326-.1c4.57.435 5.113.98 5.113 1.306v.1c.03-.07.085-.077.128-.136.936-1.3-.78-2.9-.78-2.9-.653-.652-1.74-1.087-2.176-1.958-.436-.76-.544-1.632-.544-1.632.76.1.653-.217.653-.217.435.108.653 0 .76-.1.87.1.76-.217.76-.217 1.088.1.98-.326.98-.326 1.306 0 .98-.435.98-.435 1.197.217 1.197-.326 1.197-.326 1.416.213 1.416-.44 1.416-.44 1.414.218 1.414-.326 1.414-.326 2.067.218 1.523-.435 1.523-.435 2.176.217 1.415-.436 1.415-.436 2.393.217 2.6-.435 2.6-.435-.87-.1-.87-.326-.87-.326 3.264-.1 3.372-.98 3.372-.98-1.088.1-1.414-.218-1.414-.218 3.6-.435 3.372-1.306 3.372-1.306-1.197.544-2.72.218-2.72.218 4.026-1.088 3.808-1.85 3.808-1.85-1.088.653-2.6.435-2.6.435 2.937-1.197 3.046-2.6 3.046-2.6-.326.87-3.6 1.74-3.6 1.74C38.6 19.643 38.5 18.01 38.5 18.01c-.1 1.306-4.896 2.72-4.896 2.72 3.372-1.85 3.264-3.6 3.264-3.6-.326 1.088-3.7 2.285-3.7 2.285 2.502-2.285 2.285-3.6 2.285-3.6-.436 1.306-6.2 4.46-5.44 3.808.653-.653.98-1.85.98-1.85-1.306 1.74-7.724 4.352-9.356 5.005-.543.1-2.285.653-4.025 1.74-2.394 1.632-2.938 3.264-2.938 3.264-.543-1.196-1.196-1.632-1.414-2.285s-.435-1.196-.435-3.6c.1-2.393 0-2.937 0-3.6-.1-.544-.98-4.46-1.74-6.092C8.704 7.57 9.356 5.72 9.356 5.72c-1.632 2.83.1 7.507.1 7.507C5.766 5.6 6.854 3 6.854 3c-1.306 1.306-.327 6.637-.327 6.637C3.807 5.83 4.57 3.653 4.57 3.653c-1.306 2.285.544 6.42.544 6.42-2.6-2.6-2.067-4.68-2.067-4.68-.98 2.502 1.088 6.202 1.088 6.202-1.958-2.285-1.85-4.243-1.85-4.243C1.523 10.072 3.6 13 3.6 13c-1.85-1.632-1.85-3.482-1.85-3.482-.544 2.393 1.197 4.026 1.197 4.026-.87-.653-1.197-1.414-1.197-1.414.436 2.176 1.197 2.393 1.197 2.393-.327-.1-.76-.544-.76-.544.1 1.197.76 1.74.76 1.74-1.414-1.197 0 1.088 0 1.088-1.088-.326 0 1.088 0 1.088-.653 0 .217 1.088.217 1.088-.76.1.218.98.218.98-.762 0 .1.87.1.87-.544.326.436 1.088.436 1.088-.762 0 .1 1.088.1 1.088-.87.217.1 1.088.1 1.088-.436.436.435 1.088.435 1.088-.87.217.218.98.218.98-.436.653.326.87.326.87 0 .653.762.87.762.87 0 .76.544.76.544.76.1.436.76.653.76.653.436 0 .653.1.87.217l.218.218c-1.088-.002-1.958-.1-2.83-.22zm6.2 21.217V49.02c0-.326-.1-.435-.436-.544h-.326c0-.108 0-.108.1-.108h4.134c0 .108 0 .217-.1.435v.544h-.217v-.327c-.1-.108-.326-.326-.653-.326H12.62c-.108 0-.108 0-.108.108v2.285h1.74c.217 0 .326 0 .435-.108l.1-.1s.1 0 .1.1c0 0-.1.217-.1.435 0 .1-.1.435-.1.544v.108h-.1v-.326c-.1-.1-.217-.217-.544-.327H12.62c-.108 0-.108 0-.108.1v2.392c.108.327.108.436.435.544h.544c0 .1-.1.1-.218.1h-2.176c-.1 0-.1 0-.1-.1h.326c.217-.108.326-.217.326-.544l-.001-3.153zm7.616 1.413c0 1.196 0 1.74.217 1.85.1.217.436.217 1.197.217.544 0 .98 0 1.197-.217a.83.83 0 0 0 .217-.544s0-.1.1-.1v.218s0 .544-.1.76-.108.217-.653.217h-3.48c-.1 0-.217 0-.217-.1h.435c.1-.108.218-.217.218-.544.1-.326.1-.98.1-1.74V50.76c0-1.306 0-1.523-.1-1.742a.5.5 0 0 0-.326-.544h-.435c0-.108 0-.108.108-.108h2.175c.1 0 .1 0 .1.108h-.326c-.327.1-.436.218-.436.544v3.156h.001zm5.548-.978c0-1.74 1.196-2.6 2.828-2.6 1.523 0 2.938.98 2.938 2.938 0 2.393-1.74 2.83-2.6 2.83-1.85-.001-3.155-1.198-3.155-3.156zm-.98.217c0 1.523 1.088 3.263 3.807 3.263 2.394 0 3.917-1.523 3.917-3.372s-1.632-3.046-3.808-3.046c-2.72 0-3.916 1.85-3.916 3.155zm10.988-.217c0-1.74 1.196-2.6 2.83-2.6 1.523 0 2.937.98 2.937 2.938 0 2.393-1.74 2.83-2.6 2.83-1.85-.001-3.155-1.198-3.155-3.156zm-.98.217c0 1.523 1.088 3.263 3.808 3.263 2.393 0 3.916-1.523 3.916-3.372s-1.632-3.046-3.808-3.046c-2.72 0-3.917 1.85-3.917 3.155zm11.532-2.6c0-.108 0-.108.1-.108h.653c1.088 0 1.632.544 1.632 1.63 0 .544-.218.98-.544 1.198-.217.108-.543.217-.76.217-.435 0-.87-.1-.98-.217-.1 0-.1 0-.1-.1v-2.612zm-.76 3.372v1.74c-.1.327-.1.436-.326.544h-.326c0 .1 0 .1.1.1h2.067c.1 0 .218 0 .218-.1h-.544c-.326-.108-.326-.217-.326-.544-.1-.326-.1-.98-.1-1.74v-.217h1.414l1.088 1.196c.544.653.87 1.088 1.306 1.198.218.108.544.217 1.088.217h.653c.218 0 .218 0 .218-.1H50.7c-.218-.108-.653-.217-1.197-.652s-1.306-1.198-2.067-2.067c.87-.654 1.196-1.306 1.196-1.85 0-.652-.435-.98-.653-1.196-.544-.218-1.197-.327-1.85-.327h-2.175c-.1 0-.218 0-.218.108h.436c.326.1.435.218.435.544v3.155zm23.716 1.306c0 .327 0 .76.436.87a1.93 1.93 0 0 0 .652.108h.1c0 .1-.1.1-.217.1-.217 0-1.306 0-1.633-.1h-.327c0-.108.1-.108.1-.108.108 0 .108-.1 0-.327l-.435-4.134-2.394 4.244c-.217.326-.217.435-.327.435s-.1-.1-.327-.435-1.087-1.742-1.087-1.85c-.1-.1-1.198-2.067-1.307-2.286h-.108l-.327 3.7v.436c0 .108.1.217.217.217.217.108.327.108.436.108 0 .1 0 .1-.1.1h-1.74c-.108 0-.217 0-.217-.1h.435c.327-.108.327-.435.327-.76l.76-5.222c0-.108 0-.217.108-.217 0 0 .1 0 .1.1l3.046 5.113 2.83-5.113.1-.1c.108 0 .108.1.108.217l.763 5.006zM73 51.85s-.108 0 0 0l.87-2.285c0-.108 0-.108.1 0l.87 2.285H73zm-1.413 1.85c-.1.327-.327.653-.76.76h-.435c0 .1.108.1.217.1h1.85c.108 0 .217 0 .217-.1h-.217c-.218 0-.436-.108-.436-.217a.84.84 0 0 1 .217-.544l.544-1.523h2.284l.87 2.067c.1.1 0 .217 0 .217h-.1c0 .1.1.1.327.1h1.523c.1 0 .22 0 .22-.1h-.1c-.1 0-.217 0-.435-.108-.218 0-.436-.1-.76-.87-.654-1.196-2.177-4.57-2.286-4.896-.108-.217-.217-.327-.217-.327-.108 0-.108.1-.217.327L71.6 53.7zm10.008-1.523c0 .76 0 1.415.1 1.74 0 .327.108.436.327.544h.543c0 .1 0 .1-.108.1H80.3c-.108 0-.217 0-.217-.1h.435c.22-.108.22-.217.22-.544.108-.326.108-.98.108-1.74v-3.48H79.42c-.653.108-.87.108-.98.326l-.22.22c0 .108-.108.108-.108.108v-.108s.108-.763.217-.763c0-.108 0-.217.1-.217a.47.47 0 0 0 .326.11h5.44c.1 0 .1 0 .1.108 0 .218-.1.763-.1.87v.1c-.108 0-.108 0-.108-.217-.1-.327-.327-.436-1.198-.544h-1.306v3.48zM86.6 54.46c-.217-.108-.217-.108-.217-.326 0-.436.108-.763.108-.87v-.1c.1 0 .1 0 .1.1v.327c.217.544.87.76 1.523.76.87 0 1.305-.544 1.305-1.088s-.217-.87-1.088-1.415l-.435-.326c-.98-.76-1.306-1.198-1.306-1.742 0-.87.87-1.523 2.067-1.523.327 0 .652 0 .87.1h.326c.1 0 .1 0 .1.108v.87c0 .1 0 .217-.1.217v-.108c0-.1-.108-.327-.217-.436 0-.108-.217-.435-1.196-.435-.653 0-1.198.327-1.198.98 0 .435.327.654 1.198 1.306l.326.217c1.088.76 1.415 1.198 1.415 1.85 0 .327-.217.98-.87 1.415a3.35 3.35 0 0 1-1.413.326 4.03 4.03 0 0 1-1.305-.216z"/><path d="M81.92 59.352c10.553-1.306 12.837-9.464 13.273-11.532.435-1.96.544-6.093-1.088-8.05-1.74-2.067-3.482-2.502-4.896-1.74-1.415.652-1.523 3.155-1.523 3.155-.76-.544-.436-2.394-.436-2.394.327-1.523 1.198-2.394 3.372-2.72 2.83-.217 4.897 2.067 5.44 5.984 1.633 11.097-7.3 16.646-10.88 17.515-16.645 3.916-26.872-3.48-29.7-5.875 0 0-3.046-2.72-5.33-5.113-1.633-1.85-11.75-12.73-12.512-13.6-.1-.108-.217-.108-.435-.108l-4.787-.1c-.218 0-.326.1-.326.217v.87c0 3.046 0 5.657.218 6.962.1.98.326 1.633 1.523 1.85.544 0 1.414.1 1.74.1.218 0 .326.108.326.217s-.218.217-.653.217c-2.176 0-4.57-.1-4.787-.1l-3.6.1c-.436 0-.653-.1-.653-.217s.1-.217.327-.217c.326 0 .76-.1 1.088-.1.87-.217.98-.87 1.197-1.85.218-1.306.218-3.916.218-6.962v-5.766c0-5.004 0-5.984-.1-6.963-.1-1.088-.435-1.633-1.632-1.85-.326-.1-.98-.1-1.414-.1-.057-.004-.1-.028-.15-.068s-.064-.093-.068-.15c0-.217.108-.217.543-.217 1.74 0 4.243.108 4.46.108.435 0 3.372-.108 4.57-.108 2.393 0 5.005.217 7.072 1.414.98.543 2.72 2.176 2.72 4.352 0 2.393-1.196 4.787-4.787 7.507L54.7 49.45c.003 0 9.577 12.075 27.2 9.9zM32.092 32.915c0 .218.1.327.326.436.544.217 2.285.435 4.026.435.98 0 2.067 0 2.937-.544 1.306-.76 2.393-2.503 2.393-5.004 0-4.026-2.6-6.528-6.745-6.528-1.196 0-2.176.1-2.6.217-.218.1-.326.218-.326.435v10.553zm26.658-8.048c7.18 0 12.512 3.7 12.512 9.9 0 5.876-5.005 10.77-12.62 10.77-8.704 0-12.294-5.55-12.294-10.336 0-4.352 3.7-10.335 12.402-10.335zm.653 19.7c2.938 0 8.813-1.413 8.813-9.03 0-6.418-4.68-9.8-9.683-9.8-5.222 0-9.248 2.937-9.248 8.704 0 6.202 4.46 10.117 10.118 10.117zm16.644-6.202c0-1.413-.327-2.067-.653-2.83-.217-.326-4.46-6.2-5.657-7.615-.76-.98-1.523-1.632-2.067-1.958-.544-.218-1.088-.326-1.415-.326-.108 0-.326-.1-.326-.218s.108-.217.435-.217l3.155.1 2.6-.1c.327 0 .435.1.435.217s-.217.1-.435.218c-.327.108-.436.326-.436.435 0 .326.1.653.436 1.088.435.76 5.222 7.615 5.766 8.377.652-1.196 4.677-6.962 5.22-7.833.436-.544.544-.98.544-1.306 0-.435-.108-.653-.435-.76s-.544-.1-.544-.218.217-.217.544-.217c.87 0 1.85.1 2.067.1s2.502-.1 3.046-.1c.217 0 .435.1.435.217s-.108.218-.435.218-.87.108-1.413.326c-.654.326-.98.653-1.633 1.305-1.088 1.088-5.55 7.3-6.093 8.487-.435.87-.435 1.74-.435 2.6v2.286c0 .435 0 1.523.1 2.6 0 .76.326 1.413 1.306 1.413.435.1 1.087.1 1.413.1.056.004.1.028.15.068s.064.093.068.15c0 .108-.217.217-.544.217-1.74 0-3.698-.1-3.807-.1-.217 0-2.175.1-3.155.1-.326 0-.544-.1-.544-.217s.1-.217.327-.217.653 0 .87-.1c.652 0 .98-.652.98-1.413.1-1.088.1-2.177.1-2.6v-2.285h.001z"/><path d="M87.905 36.3l2.83-7.18c.11-.327.327-.327.435 0l3.046 7.18.544 1.306 2.938 6.42c.217.435 0 .652-.217.76-.056.004-.1.028-.15.068s-.064.093-.068.15c0 .108.435.108.98.108l5.005.11c.325 0 .652-.11.652-.217s-.217-.217-.327-.217c-.326 0-.87 0-1.306-.11-.652-.11-1.522-.544-2.72-2.938-1.958-4.025-6.855-14.905-7.398-15.883-.327-.87-.436-.98-.653-.98s-.327.11-.652.98l-7.3 16.428c-.544 1.306-1.198 2.394-2.61 2.503h-.87c-.217 0-.327.108-.327.217s.22.217.544.217c1.523 0 3.264-.11 3.6-.11.436 0 1.742.11 2.503.11.326 0 .435-.11.435-.217s0-.217-.217-.217h-.327c-.544 0-1.196-.218-1.196-.76 0-.436.108-1.088.435-1.742l1.85-4.678.542-1.305z"/><path d="M104.987 37.596c0 3.917.1 5.55.652 6.093.545.327 1.307.544 3.81.544 1.633 0 3.046 0 3.807-.76.435-.436.762-1.088.87-1.633 0-.217.108-.327.217-.327.217 0 .217.11.217.436a18.12 18.12 0 0 1-.435 2.61c-.217.654-.327.763-2.067.763-4.46 0-6.637-.218-8.487-.218l-3.046.11c-.327 0-.544-.11-.544-.217s.11-.217.327-.217.654 0 .87-.11c.652 0 .87-.652.98-1.413.108-1.088.108-3.155.108-5.766V27.154c-.108-.87-.326-1.306-1.414-1.523h-1.088c-.108 0-.217-.11-.217-.218s.11-.217.544-.217l3.48.11 3.482-.11c.327 0 .544.11.544.217s-.217.218-.327.218h-.98c-.98.218-1.196.653-1.305 1.523v10.443z"/><path d="M118.478 44.67l.76-1.958h.76v2.72h-.435v-2.175l-.87 2.175h-.327l-.87-2.175v2.175h-.436v-2.72h.654l.762 1.958zm-1.958-1.632h-.763v2.394h-.544v-2.394h-.76v-.326h2.067v.326z"/></g><defs><clipPath id="A"><path fill="#fff" d="M0 0h120v64H0z"/></clipPath></defs></svg>