<svg xmlns="http://www.w3.org/2000/svg" width="120" height="64" fill="none" xmlns:v="https://vecta.io/nano"><g clip-path="url(#A)" fill-rule="evenodd"><path d="M4.067 43v2.717h3.79v1.6h-3.79V52.7H2.344V41.39h5.644V43H4.067zm14.086 4.734l-.017.196-.047.178-.1.164-.112.128-.13.114-.164.1-.178.05-.18.016-.196-.016-.178-.05-.146-.1-.147-.114-.114-.128-.08-.164-.067-.178-.016-.18.016-.197.05-.178.098-.162.114-.148.147-.112.162-.08.18-.05.194-.015.18.015.18.05.147.098.146.114.114.13.082.162.047.178.017.18zm24.007 0l-.017.196-.05.178-.098.164-.113.128-.13.114-.164.1-.178.05-.178.016-.196-.016-.18-.05-.146-.1-.147-.114-.114-.128-.098-.164-.048-.178-.016-.18.016-.197.048-.178.098-.162.114-.148.147-.112.162-.08.178-.05.196-.015.18.015.162.05.164.098.146.114.113.13.082.162.05.178.017.18zm30.512 0l-.017.196-.047.178-.1.164-.114.128-.13.114-.164.1-.18.05-.178.016-.196-.016-.18-.05-.162-.1-.132-.114-.114-.128-.097-.164-.05-.178-.017-.18.017-.197.05-.178.097-.162.114-.148.132-.112.162-.08.195-.05.197-.015.178.015.162.05.164.098.13.114.114.13.1.162.047.178.017.18zm30.755 0l-.013.196-.05.178-.1.164-.114.128-.13.114-.162.1-.18.05-.18.016-.195-.016-.178-.05-.163-.1-.132-.114-.11-.128-.1-.164-.05-.178-.015-.18.015-.197.05-.178.1-.162.11-.148.132-.112.163-.08.178-.05.195-.015.195.015.164.05.162.098.13.114.114.13.1.162.05.178.013.18zM29.034 51.1h3.333v1.61h-5.04V41.39h1.708V51.1zm33.327-4.05l-.035.618-.096.572-.147.57-.196.536-.244.522-.308.487-.342.44-.39.422-.423.373-.454.343-.49.292-.52.244-.553.196-.568.146-.602.08-.602.033-.65-.033-.634-.113-.635-.18-.6-.26-.587-.31-.536-.373-.504-.44-.44-.472-.292-.388-.26-.423-.228-.44-.163-.455-.146-.473-.098-.502-.065-.52-.017-.536.033-.586.08-.57.162-.568.196-.52.244-.52.31-.472.34-.456.39-.407.423-.388.454-.343.49-.292.52-.244.537-.196.57-.147.585-.08.602-.033.602.033.585.08.553.147.537.196.52.244.488.31.455.34.407.373.39.423.34.456.293.472.244.52.196.536.147.57.096.586.035.582zm-10.118-.033l.033.49.065.456.098.438.164.41.195.39.228.373.293.34.325.31.292.244.325.228.342.178.342.147.357.13.375.1.36.046.373.017.44-.017.423-.064.407-.096.4-.148.374-.178.357-.212.326-.243.294-.278.276-.292.245-.326.21-.357.163-.375.146-.39.098-.406.065-.423.015-.44-.015-.455-.065-.422-.098-.423-.132-.39-.177-.375-.21-.357-.228-.325-.276-.294-.294-.277-.325-.242-.342-.213-.357-.178-.4-.146-.408-.098-.423-.067-.437-.016-.44.016-.42.067-.39.098-.4.146-.375.178-.34.213-.325.242-.292.263-.278.308-.244.325-.212.342-.178.373-.13.39-.114.41-.048.423-.033.44zm40.807.033l-.033.618-.096.572-.146.57-.197.536-.26.522-.293.487-.34.44-.39.422-.423.373-.456.343-.49.292-.52.244-.552.196-.57.146-.602.08-.602.033-.652-.033-.634-.113-.635-.18-.602-.26-.584-.31-.54-.373-.505-.44-.44-.472-.293-.388-.26-.423-.227-.44-.18-.455-.13-.473-.096-.502-.067-.52-.016-.536.033-.586.08-.57.148-.568.212-.52.243-.52.31-.472.342-.456.39-.407.423-.388.456-.343.487-.292.52-.244.536-.196.57-.147.585-.08.602-.033.602.033.57.08.57.147.537.196.52.244.49.31.453.34.41.373.39.423.34.456.292.472.244.52.197.536.146.57.096.586.033.582zm-10.117-.033l.02.49.065.456.113.438.147.41.194.39.244.373.278.34.34.31.292.244.326.228.342.178.34.147.36.13.373.1.36.046.375.017.44-.017.422-.064.406-.096.39-.148.375-.178.357-.212.327-.243.292-.278.277-.292.227-.326.212-.357.178-.375.148-.39.097-.406.066-.423.015-.44-.015-.455-.066-.422-.097-.423-.148-.39L90.84 45l-.212-.357-.228-.325-.276-.294-.293-.277-.326-.242-.34-.213-.377-.178-.372-.146-.406-.098-.423-.067-.44-.016-.44.016-.422.067-.407.098-.375.146-.372.178-.343.213-.325.242-.308.263-.263.308-.242.325-.213.342-.178.373-.13.39-.113.41-.065.423-.02.44zM120 52.7h-2.082l-3.22-4.634h-.3V52.7h-1.72V41.39h2l.99.034.407.05.375.08.342.08.31.114.293.147.275.163.294.227.277.277.227.294.196.34.147.358.13.375.065.39.015.406v.292l-.033.277-.064.277-.08.26-.1.26-.114.243-.13.23-.163.2-.178.196-.18.194-.21.163-.456.294-.26.114-.26.08-.28.08L120 52.7zm-5.076-6.13l.554-.033.5-.08.42-.148.343-.212.147-.113.13-.148.097-.144.096-.166.066-.178.048-.196.032-.2v-.212l-.032-.407-.114-.34-.08-.163-.1-.147-.13-.13-.13-.114-.342-.178-.407-.147-.47-.08-.553-.034h-.604v3.58h.537 0z" fill="#000"/><path d="M15.9 35l.716-.033.684-.097.666-.178.65-.228.602-.294.57-.357.537-.392.504-.453.44-.5.407-.536.342-.585.292-.6.244-.636.162-.666.113-.7.033-.715-.033-.715-.113-.684-.162-.666-.244-.634-.292-.62-.342-.568-.407-.537-.44-.504-.504-.44-.537-.408-.57-.34-.602-.294-.65-.243-.666-.163-.684-.114-.716-.03H7.14l-.325-.033-.31-.098-.278-.147-.244-.21-.212-.244-.145-.277-.098-.31-.033-.342.033-.325.098-.31.145-.276.212-.245.244-.212.278-.146.31-.098.325-.032h15.614l-4.718-5.465H6.96l-.715.033-.684.114-.666.162-.634.244-.62.293-.568.342-.537.407-.504.44-.44.504-.407.536-.342.57-.292.602-.244.65-.163.668-.114.682L0 19.27l.033.715.114.682.163.667.244.65.292.6.342.587.407.536.44.49.504.455.537.4.568.358.62.292.634.228.666.178.684.098.715.033 8.588-.033.342.05.308.08.277.163.243.195.212.244.147.276.098.308.033.343-.033.325-.098.31-.147.292-.212.245-.243.195-.277.146-.308.098-.342.03H.08L4.766 35H15.9zm8.93-22.478h5.758v6.034l8.245-6.034h8.133L36.4 21.205 46.956 34.9H40.4L30.577 23v11.9H24.82V12.52zm48.696 0h5.53L84.7 23l5.87-10.5h5.53V34.9h-5.53V23L84.7 34.9 79.045 23v11.9h-5.53V12.52zm45.962 22.38l-8.928-22.38h-5.53L96.09 34.9h5.822l5.823-15.337 5.92 15.337h5.822z" fill="#27824d"/><path d="M43.148 19.562l21.095-6.117 3.562 4.782L46.7 24.344l-3.56-4.782z" fill="#c6c7c9"/><path d="M43.344 18.62l21.094-6.116 3.546 4.8-21.08 6.116-3.56-4.798z" fill="#27824d"/><path d="M45.266 27.58l21.094-6.115 3.548 4.798-21.08 6.115-3.56-4.798z" fill="#c6c7c9"/><path d="M45.46 26.64l21.078-6.115 3.563 4.8-21.095 6.115-3.546-4.798z" fill="#27824d"/><path d="M47.38 35.6l21.077-6.114 3.563 4.797-21.095 6.116L47.38 35.6z" fill="#c6c7c9"/><path d="M47.555 34.656L68.65 28.54l3.546 4.798-21.078 6.116-3.563-4.798z" fill="#27824d"/><path d="M113.836 12h.49l.26.017.213.048.195.1.178.13.163.196.13.244.083.26.015.293-.015.292-.083.26-.13.243-.18.196-.162.13-.195.098-.227.05-.262.015h-.472V12zm.488 2.31l.196-.016.177-.048.163-.065.132-.113.127-.147.1-.195.065-.212.017-.227-.017-.228-.065-.212-.1-.195-.127-.147-.132-.114-.163-.065-.177-.05-.196-.015h-.227V14.3h.227v-.001zm1.985-2.05v.764h.9v.277h-.9v1.008h.925v.26h-1.185V12h1.185v.26h-.925zm1.66 2.31h-.262V12h.423l.196.017.163.016.114.065.113.08.1.114.065.13.033.147.016.146v.163l-.05.146-.065.13-.083.098-.098.082-.127.065-.148.033-.16.015h-.228v1.123h-.001zm.2-1.382l.213-.033.16-.098.1-.146.033-.196-.033-.195-.05-.08-.05-.066-.16-.08-.23-.032h-.194v.927h.2zm1.138 1.236l-.016.066-.032.065-.05.05h-.13l-.066-.05-.03-.065-.018-.066.018-.08.03-.065.066-.033.065-.016.065.016.05.033.032.065.016.08z" fill="#000"/></g><defs><clipPath id="A"><path fill="#fff" d="M0 0h120v64H0z"/></clipPath></defs></svg>