<svg xmlns="http://www.w3.org/2000/svg" width="120" height="64" fill="none" fill-rule="evenodd" xmlns:v="https://vecta.io/nano"><path d="M34.488 32.197l5.423-7.41v14.46l-5.423-7.05z" fill="#5a74b0"/><path d="M15.653 44.85H9l8.894-13.268-8.388-12.148h7.05l5.423 8.894 5.206-8.894h6.797l-8.243 12.04 9.183 13.377H27.91L21.69 34.618 15.653 44.85zM60.34 27.1c0 1.23-.542 2.06-1.59 2.46-.65.253-1.7.398-3.1.398h-3.326V24.17H56c2.892 0 4.34.976 4.34 2.928zm-8.026 7.593h2.784l5.315 10.16h6.724l-6.47-10.738c1.735-.3 3.11-1.12 4.085-2.386.94-1.23 1.41-2.748 1.41-4.59 0-5.134-3.22-7.7-9.582-7.7h-9.87V44.85h5.604V34.69zm16.34-7.304h5.423V44.85h-5.423V27.388zm-.398-5.28c0-.868.3-1.59.903-2.205S70.5 19 71.366 19s1.592.29 2.206.904a2.97 2.97 0 0 1 .903 2.205c0 .867-.288 1.627-.903 2.206-.614.615-1.337.94-2.206.94s-1.59-.325-2.206-.94c-.614-.578-.903-1.338-.903-2.206zm16.126 5.28h4.736v4.34h-4.736v5.82c0 1.084.108 1.843.36 2.277.36.615 1.085.94 2.17.94 1.12 0 1.843-.18 2.206-.505v4.483c-.976.36-2.242.542-3.796.542-4.23 0-6.364-1.735-6.364-5.28v-8.28h-3.434v-4.338h3.434v-5.17h5.424l.001 5.17zm11.967 4.448c.687-.65 1.59-.976 2.71-.976.94 0 1.735.326 2.386.976.615.65.94 1.41.905 2.314h-7.123c.072-.904.47-1.663 1.12-2.314zm2.965 9.364c-1.048 0-1.916-.29-2.64-.903-.76-.615-1.23-1.447-1.445-2.458h12.51v-1.7c0-2.82-.723-5.025-2.206-6.69s-3.47-2.495-5.965-2.495c-2.783 0-5.062.832-6.868 2.495-1.916 1.736-2.856 3.94-2.856 6.69 0 2.71.94 4.954 2.856 6.69 1.807 1.627 4.085 2.458 6.868 2.458 3.073 0 5.53-1.12 7.34-3.435l-3.76-2.783c-1.013 1.41-2.313 2.133-3.832 2.133zm8.135-13.052c0-1.12.868-1.916 1.953-1.916 1.048 0 1.95.796 1.95 1.916a1.94 1.94 0 0 1-.146.749c-.097.237-.24.453-.423.635a1.94 1.94 0 0 1-1.382.57 1.92 1.92 0 0 1-1.953-1.953zm1.952 1.627c.867 0 1.554-.687 1.554-1.627 0-.904-.687-1.59-1.554-1.59-.905 0-1.592.687-1.592 1.59.001.94.687 1.627 1.592 1.627zm-.397-.506h-.363v-2.242h.87c.505 0 .76.217.76.65 0 .398-.217.58-.578.614l.65.976h-.36l-.616-.976h-.36v.977zm.397-1.265c.29 0 .542 0 .542-.362 0-.253-.253-.326-.505-.326h-.434v.687h.397z" fill="#0c0e0f"/></svg>