<svg width="390" height="338" viewBox="0 0 390 338" fill="none" xmlns="http://www.w3.org/2000/svg">
<path d="M291.5 201C291.1 197.8 265.333 194.667 252.5 193.5C254.5 192.7 252.667 181.833 251.5 176.5C252.667 176.5 255.2 176.3 256 175.5C256.8 174.7 256.333 173.5 256 173C257.667 172.833 261.5 172.3 263.5 171.5C265.1 171.1 263.167 167.667 262 166C262.667 165.5 264.1 164.2 264.5 163C265 161.5 260 158 261 158C261.8 158 262.667 156.333 263 155.5L272 153.5C273 153.5 276.5 153.6 282.5 154C298.9 154.8 329 162.667 342 166.5C345 168 350.8 176 350 196C349.2 216 329.667 261.667 320 282L272.5 253C277.833 241 289.1 215.6 291.5 210C291.5 205 292 205 291.5 201Z" fill="white"/>
<path d="M187.002 161.5C182.602 151.5 188.835 146.667 192.502 145.5C198.002 166.5 228 174 249.5 177.5C256.5 193.5 249.5 213.5 249.5 221C249.1 229.8 197 291 171 320.5L117 288.5C145.333 260.667 202.4 203.6 204 198C206 191 192.502 174 187.002 161.5Z" fill="white"/>
<path d="M273.704 242.018L273.74 242.053C273.919 242.232 274.169 242.375 274.42 242.446C272.095 245.018 271.558 248.946 273.275 252.089L273.347 252.197C273.597 252.625 273.847 253.018 274.169 253.375C274.92 254.304 275.636 255.197 276.279 256.054C275.957 256.018 275.671 256.09 275.385 256.233C274.813 255.482 274.169 254.697 273.525 253.875C273.204 253.482 272.917 253.09 272.667 252.661L272.596 252.554C270.664 249.196 271.201 244.839 273.704 242.018Z" fill="#1E212C"/>
<path d="M229.392 225.446C232.861 223.768 236.438 222.339 240.407 221.268C240.586 221.41 240.801 221.518 241.015 221.589C241.158 221.625 241.301 221.625 241.444 221.625C241.516 221.696 241.623 221.768 241.731 221.803C241.766 221.803 241.802 221.839 241.838 221.839C237.51 222.946 233.362 224.375 229.714 226.161C228.927 226.554 228.14 226.946 227.389 227.375C227.282 227.125 227.067 226.911 226.853 226.732C227.711 226.303 228.534 225.875 229.392 225.446Z" fill="#1E212C"/>
<path d="M246.988 230.661C247.06 229.661 247.417 228.947 248.025 228.518C249.027 227.768 250.457 228.09 250.493 228.09L250.672 227.304C250.6 227.304 248.884 226.911 247.56 227.875C246.774 228.447 246.309 229.375 246.201 230.59L246.988 230.661Z" fill="#1E212C"/>
<path d="M216.337 302.808C219.055 302.772 226.529 302.058 233.039 296.451C239.762 290.629 243.625 281.414 244.447 268.985L243.625 268.914C242.802 281.093 239.047 290.165 232.502 295.808C225.421 301.951 217.195 302.022 215.586 301.986C212.117 289.914 214.262 279.771 221.88 271.807C227.602 265.806 234.469 263.413 234.541 263.378L234.29 262.592C234.219 262.628 227.173 265.092 221.308 271.235C215.872 276.914 210.364 286.914 214.906 302.487L214.978 302.772L215.264 302.808C215.3 302.808 215.657 302.808 216.337 302.808Z" fill="#1E212C"/>
<path d="M216.124 297.666L216.946 297.559C215.373 286.022 220.487 278.058 225.065 273.379C230.036 268.307 235.472 265.95 235.508 265.914L235.186 265.164C235.114 265.2 229.571 267.593 224.492 272.772C219.772 277.593 214.514 285.808 216.124 297.666Z" fill="#1E212C"/>
<path d="M218.984 299.7L219.77 299.521C217.374 289.449 222.059 280.556 222.131 280.485L221.416 280.092C221.344 280.163 216.516 289.307 218.984 299.7Z" fill="#1E212C"/>
<path d="M225.885 295.95C236.436 292.414 240.298 276.592 240.441 275.913L239.655 275.734C239.619 275.877 235.721 291.807 225.635 295.2L225.885 295.95Z" fill="#1E212C"/>
<path d="M258.182 268.414L230.751 250.949L234.72 259.021L234.828 259.092L247.452 267.093H247.56L258.182 268.414ZM232.753 253.164L254.677 267.129L247.703 266.271L235.328 258.45L232.753 253.164Z" fill="#1E212C"/>
<path d="M141.665 273.631C141.701 273.667 141.737 273.702 141.808 273.738C141.951 273.809 142.059 273.881 142.202 273.988C142.273 274.024 142.345 274.059 142.416 274.059C139.984 276.667 139.484 280.703 141.272 283.881L141.343 283.988C141.594 284.381 141.88 284.81 142.202 285.167C142.989 286.06 143.704 286.953 144.348 287.81C144.026 287.81 143.74 287.881 143.489 288.024C142.881 287.274 142.273 286.488 141.594 285.703C141.272 285.31 140.986 284.917 140.736 284.524L140.664 284.417C138.554 280.953 139.09 276.524 141.665 273.631Z" fill="#1E212C"/>
<path d="M96.9234 257.987C100.392 256.237 103.969 254.737 107.974 253.594C108.296 253.844 108.618 254.058 108.904 254.344C104.756 255.487 100.786 256.951 97.281 258.737C96.4942 259.13 95.7074 259.558 94.9563 259.987C94.8133 259.737 94.6345 259.523 94.4199 259.344C95.2424 258.844 96.1008 258.415 96.9234 257.987Z" fill="#1E212C"/>
<path d="M114.625 262.881C114.697 261.881 115.019 261.166 115.627 260.738C116.628 259.988 118.059 260.238 118.095 260.274L118.273 259.488C118.202 259.488 116.449 259.131 115.162 260.131C114.375 260.738 113.946 261.631 113.839 262.881H114.625Z" fill="#1E212C"/>
<path d="M84.2253 335.521C86.9434 335.414 94.3823 334.628 100.82 328.878C107.436 322.949 111.12 313.663 111.764 301.234L110.941 301.198C110.297 313.413 106.721 322.521 100.248 328.271C93.2736 334.521 85.0479 334.736 83.4385 334.736C79.7906 322.735 81.7218 312.556 89.2323 304.449C94.883 298.377 101.678 295.841 101.75 295.805L101.464 295.02C101.392 295.055 94.3823 297.627 88.6243 303.877C83.2955 309.627 77.9308 319.735 82.759 335.236L82.8305 335.521H83.1166C83.1524 335.521 83.5458 335.557 84.2253 335.521Z" fill="#1E212C"/>
<path d="M83.9038 330.377L84.7264 330.27C82.9739 318.769 87.9451 310.698 92.4513 305.983C97.351 300.84 102.716 298.376 102.787 298.34L102.465 297.59C102.394 297.626 96.8861 300.126 91.9149 305.376C87.2298 310.269 82.1156 318.555 83.9038 330.377Z" fill="#1E212C"/>
<path d="M86.8016 332.344L87.5884 332.129C85.0134 322.093 89.5554 313.128 89.627 313.057L88.9117 312.664C88.8759 312.807 84.1551 322.022 86.8016 332.344Z" fill="#1E212C"/>
<path d="M93.6331 328.485C104.112 324.77 107.724 308.877 107.867 308.198L107.08 308.02C107.045 308.198 103.432 324.163 93.3827 327.699L93.6331 328.485Z" fill="#1E212C"/>
<path d="M126.426 300.413L98.7087 283.377L102.786 291.413L102.893 291.484L115.625 299.271H115.732L126.426 300.413ZM100.747 285.627L122.885 299.235L115.875 298.485L103.394 290.877L100.747 285.627Z" fill="#1E212C"/>
<path d="M100.677 249.092C101.428 248.449 174.923 184.696 175.46 170.339C175.674 164.803 172.205 159.767 168.521 154.445C162.62 145.909 156.505 137.087 165.446 125.301L166.089 125.801C157.506 137.123 163.443 145.695 169.165 153.981C172.92 159.409 176.461 164.553 176.246 170.374C175.71 184.696 108.259 243.592 101.607 249.342L147.278 276.808C151.569 272.057 214.299 202.269 217.232 188.732C221.738 168.017 217.304 152.873 217.268 152.695L218.055 152.445C218.09 152.552 219.736 158.159 220.022 167.16C223.598 167.553 247.345 170.124 252.352 173.017C253.783 173.839 253.747 176.625 252.245 181.803C251.101 185.696 249.134 190.875 246.415 197.197C242.231 206.876 237.439 216.376 236.473 218.269L277.244 243.306C282.68 233.127 290.548 214.983 296.128 197.018C300.705 182.161 305.355 162.195 301.456 151.195C300.24 147.766 298.202 145.445 295.448 144.302C275.134 135.908 235.329 132.765 234.935 132.73L235.007 131.908C235.4 131.944 275.349 135.087 295.77 143.516C298.774 144.766 300.956 147.23 302.243 150.909C306.249 162.088 301.564 182.268 296.95 197.233C291.299 215.483 283.252 233.877 277.816 244.02L277.602 244.413L235.758 218.734L235.436 218.519L235.615 218.198C235.686 218.091 241.051 207.59 245.7 196.84C254.069 177.482 252.889 174.196 251.995 173.696C247.238 170.946 223.884 168.374 220.093 167.981C220.236 173.803 219.807 180.91 218.09 188.875C215.015 203.019 150.461 274.522 147.707 277.558L147.492 277.808L100.284 249.414L100.677 249.092Z" fill="#1E212C"/>
<path d="M277.78 100.835C289.546 96.656 297.808 86.977 302.636 79.6195C308.394 70.7976 311.863 61.3686 312.722 55.9041C313.651 50.011 312.865 49.3324 312.686 49.2252C312.364 49.0824 311.684 49.6895 311.291 50.1538L310.933 50.6181C308.537 58.9042 302.565 67.5475 302.529 67.6546L301.921 67.1903C301.992 67.1189 308.036 58.2971 310.325 50.0467C310.826 48.2252 311.112 46.7965 311.219 45.6894C311.327 43.0821 310.755 42.2249 310.325 41.9749C310.147 41.8677 309.932 41.7963 309.682 41.7963H309.646C309.36 41.7963 309.109 41.8677 308.859 41.9392C308.072 42.1892 307.285 42.7606 306.856 43.1178C306.892 43.6893 306.856 44.3321 306.713 45.0465C305.998 49.2252 302.779 55.9398 296.735 66.0474L296.091 65.6188C300.848 57.6899 306.785 47.0466 306.034 42.5821C305.712 41.5106 305.211 40.9034 304.603 40.7606C304.567 40.7606 304.532 40.7606 304.496 40.7606C303.53 40.7248 302.457 41.5106 301.814 42.082C301.635 42.2249 301.492 42.3678 301.349 42.5464C301.313 42.5821 301.313 42.5821 301.313 42.5821C300.741 43.1535 300.276 43.6893 299.99 44.0821C298.631 50.1181 291.12 63.333 290.798 63.9045L290.154 63.4759C290.226 63.333 297.271 50.9753 299.06 44.725L299.274 43.8321C299.346 43.475 299.417 43.1535 299.453 42.8678C299.525 42.082 299.453 41.3677 299.095 41.1177C298.809 40.9391 297.879 40.7963 295.233 43.2964C293.23 45.1536 291.084 49.0824 288.581 53.6183C284.754 60.5829 279.962 69.2261 273.202 75.4407C268.732 79.5123 263.296 80.6909 257.502 78.4051C257.18 78.048 257.287 77.8694 257.323 77.6908C257.323 77.6194 257.359 77.548 257.359 77.4765C262.902 79.6909 268.481 78.7266 272.737 74.8335C279.425 68.7261 284.146 60.1186 287.973 53.2254C290.512 48.6181 292.694 44.6536 294.804 42.6892C295.448 42.082 296.02 41.6177 296.556 41.2249C296.771 41.0463 298.595 39.5105 299.703 40.2605C300.24 40.6177 300.454 41.4034 300.347 42.6178C300.526 42.4392 300.705 42.2606 300.884 42.0463C300.919 42.0106 301.241 41.6535 301.742 41.2606C302.708 40.4748 303.852 39.8319 304.889 40.0105C305.461 40.082 305.962 40.3677 306.32 40.9034C306.606 41.2606 306.785 41.7249 306.892 42.2249C307.178 42.0106 307.536 41.7606 307.965 41.5463C308.001 41.5106 308.394 41.2963 308.931 41.1534C308.966 41.1534 309.002 41.1534 309.002 41.1177C309.038 41.1177 309.074 41.082 309.145 41.082C309.217 41.082 309.288 41.0463 309.324 41.0463H309.36C309.431 41.0463 309.503 41.0463 309.574 41.0106C309.61 41.0106 309.646 41.0106 309.682 41.0106C309.717 41.0106 309.753 41.0106 309.825 41.0106C310.29 41.0106 310.79 41.1177 311.184 41.4749C312.042 42.1892 312.328 43.6178 312.114 45.8322C312.078 46.6894 311.971 47.6894 311.756 48.7966V48.8324C312.185 48.5109 312.686 48.2966 313.186 48.5466C313.866 48.8681 314.617 49.9753 313.651 56.0827C313.651 56.1541 313.616 56.2255 313.616 56.297C312.757 61.4758 309.574 70.7262 303.387 80.1195C298.487 87.5841 290.119 97.406 278.138 101.656C272.308 103.728 266.657 104.656 261.364 104.406C259.433 104.335 257.609 104.085 255.857 103.692C255.892 103.371 255.785 103.049 255.606 102.763C262.151 104.299 269.733 103.656 277.78 100.835Z" fill="#1E212C"/>
<path d="M183.722 99.5146C184.151 97.3359 184.83 95.2287 185.868 93.3C185.868 93.3 185.975 89.5856 188.908 85.1211C190.338 85.5854 191.769 86.0854 193.199 86.5497C192.842 87.9784 192.412 89.407 192.305 90.8356C192.305 91.0499 192.305 91.2285 192.377 91.4071C192.126 92.1928 192.055 92.9786 192.019 93.8358C191.983 94.5858 191.804 95.3359 191.697 96.1216C191.518 96.3359 191.411 96.5502 191.339 96.8359C191.304 97.0145 191.304 97.1931 191.268 97.3359C191.268 97.4788 191.268 97.6217 191.304 97.7645C191.196 98.3003 191.125 98.836 191.053 99.4432C190.946 100.622 190.696 101.729 190.517 102.908C190.338 103.193 190.231 103.515 190.195 103.943C190.159 105.872 189.551 107.765 189.337 109.694C189.337 109.801 189.337 109.908 189.337 110.015C189.337 110.051 189.301 110.087 189.301 110.158C189.086 111.087 188.908 111.979 188.764 112.908C188.478 112.765 188.192 112.658 187.87 112.587C187.513 112.158 187.155 111.694 186.833 111.265C185.975 110.051 185.51 108.444 184.759 107.158C184.652 106.801 184.544 106.408 184.473 106.015C184.044 104.158 183.936 102.479 184.008 100.586C183.972 100.158 183.865 99.8003 183.722 99.5146Z" fill="#00F0B5"/>
<path d="M157.293 95.3712C171.777 55.5837 213.657 57.8338 213.657 57.8338C216.732 65.977 221.811 59.0838 221.811 59.0838C248.491 63.2626 264.656 78.549 264.656 78.549L256.86 104.372L244.163 100.479L238.835 132.266L227.891 134.302C227.891 134.302 227.962 132.944 224.422 130.801C220.881 128.658 206.182 123.301 206.182 123.301C206.182 123.301 189.766 115.765 187.263 111.443C186.405 109.943 186.798 104.443 187.799 97.7285L184.259 98.3714L157.293 95.3712Z" fill="#00F0B5"/>
<path d="M159.368 95.5864L160.19 95.6936C158.33 104.301 160.011 113.909 165.09 123.623C171.17 135.231 182.078 142.124 190.16 145.874C199.817 150.375 209.723 152.339 215.231 152.268C221.204 152.232 221.74 151.268 221.812 151.053C221.919 150.696 221.204 150.089 220.667 149.767L220.131 149.446C211.547 148.41 202.034 143.696 201.927 143.66L202.284 142.946C202.392 142.981 212.084 147.767 220.596 148.696C222.491 148.91 223.957 148.946 225.066 148.839C227.641 148.517 228.392 147.767 228.607 147.232C228.678 147.017 228.714 146.767 228.678 146.517V146.482C228.607 146.196 228.499 145.91 228.392 145.696C227.999 144.946 227.319 144.196 226.89 143.803C226.318 143.946 225.674 144.017 224.959 144.017C220.739 144.017 213.55 141.839 202.535 137.267L202.857 136.517C211.476 140.088 222.956 144.41 227.248 142.874C228.249 142.339 228.786 141.731 228.821 141.053C228.821 141.017 228.821 140.981 228.821 140.91C228.714 139.91 227.713 138.91 227.069 138.338C226.89 138.196 226.711 138.053 226.568 137.91C226.532 137.874 226.497 137.874 226.497 137.874C225.853 137.374 225.209 136.981 224.78 136.767C218.593 136.41 204.287 130.874 203.679 130.624L203.965 129.874C204.108 129.945 217.484 135.124 223.957 135.874L224.887 135.945C225.281 135.981 225.603 135.981 225.889 135.945C226.675 135.874 227.391 135.66 227.534 135.267C227.677 134.945 227.641 133.945 224.744 131.588C222.563 129.838 218.342 128.266 213.443 126.445C205.932 123.659 196.598 120.195 189.338 114.194C184.545 110.23 182.507 104.73 183.794 98.2651L185.583 90.6934L186.369 90.8719L184.617 98.3723C183.544 104.373 185.404 109.873 189.838 113.516C196.991 119.445 206.254 122.873 213.693 125.624C218.664 127.481 222.956 129.052 225.245 130.909C225.924 131.481 226.497 131.981 226.962 132.481C227.176 132.66 228.964 134.338 228.464 135.588C228.213 136.231 227.462 136.588 226.246 136.695C226.461 136.838 226.675 136.981 226.89 137.16C226.926 137.195 227.319 137.481 227.82 137.91C228.786 138.767 229.608 139.874 229.572 140.981C229.608 141.589 229.394 142.16 228.929 142.66C228.607 143.017 228.213 143.303 227.713 143.517C227.963 143.767 228.285 144.124 228.571 144.517C228.607 144.553 228.893 144.946 229.143 145.482C229.143 145.517 229.179 145.553 229.179 145.553C229.215 145.589 229.215 145.624 229.25 145.696C229.286 145.767 229.286 145.839 229.322 145.874V145.91C229.358 145.982 229.358 146.053 229.394 146.124C229.394 146.16 229.394 146.196 229.429 146.232C229.429 146.267 229.465 146.339 229.465 146.374C229.537 146.874 229.501 147.375 229.25 147.875C228.678 148.91 227.319 149.482 225.102 149.625C224.243 149.732 223.242 149.803 222.098 149.767H222.062C222.42 150.16 222.741 150.66 222.598 151.196C222.42 151.946 221.418 152.946 215.231 153.018C215.159 153.018 215.088 153.018 215.016 153.018C209.759 153.018 200.103 151.339 189.767 146.517C181.577 142.696 170.49 135.695 164.303 123.873C161.299 118.123 159.439 112.373 158.795 106.801C158.438 102.944 158.581 99.2295 159.368 95.5864Z" fill="#1E212C"/>
<path d="M268.678 288.112L269.09 288.455L234.104 330.428L233.691 330.085L268.678 288.112Z" fill="#00F0B5"/>
<path d="M249.654 295.534L250.066 295.877L215.08 337.85L214.668 337.507L249.654 295.534Z" fill="#00F0B5"/>
<path d="M225.22 209.519L225.633 209.861L190.646 251.834L190.234 251.492L225.22 209.519Z" fill="#00F0B5"/>
<path d="M146.789 174.899L147.201 175.242L112.215 217.215L111.802 216.872L146.789 174.899Z" fill="#00F0B5"/>
<path d="M147.678 114.376L148.09 114.719L113.103 156.692L112.691 156.349L147.678 114.376Z" fill="#00F0B5"/>
<path d="M140.385 135.251L140.797 135.594L105.811 177.567L105.398 177.224L140.385 135.251Z" fill="#00F0B5"/>
<path d="M174.59 53.8096L175.002 54.1523L140.016 96.1253L139.603 95.7825L174.59 53.8096Z" fill="#00F0B5"/>
<path d="M80.4881 250.915L80.9004 251.258L45.914 293.231L45.5017 292.888L80.4881 250.915Z" fill="#00F0B5"/>
<path d="M197.687 291.821L198.1 292.164L163.113 334.137L162.701 333.794L197.687 291.821Z" fill="#00F0B5"/>
<path d="M318.408 57.1879C319.874 55.1521 320.411 53.2948 319.982 51.6876C319.481 49.759 317.764 48.9375 317.693 48.9375L317.335 49.6875C317.335 49.6875 318.801 50.3661 319.195 51.9376C319.552 53.2948 319.052 54.902 317.764 56.7236L318.408 57.1879Z" fill="#00F0B5"/>
<path d="M321.699 57.1542C323.13 54.547 323.487 52.154 322.808 50.1182C321.914 47.3681 319.482 46.2252 319.375 46.1895L319.017 46.9395C319.053 46.9395 321.234 48.011 322.021 50.4039C322.629 52.2254 322.272 54.4041 320.948 56.7971L321.699 57.1542Z" fill="#00F0B5"/>
<path d="M293.087 39.0461C293.087 39.0461 293.266 37.4389 294.589 36.546C295.733 35.7602 297.414 35.6888 299.596 36.3317L299.811 35.5459C297.379 34.8316 295.483 34.9388 294.124 35.8674C292.479 36.9746 292.264 38.8675 292.264 38.939L293.087 39.0461L292.694 39.0104L293.087 39.0461Z" fill="#00F0B5"/>
<path d="M289.907 38.3672C289.907 38.3315 290.193 35.9386 292.195 34.4028C293.733 33.2242 295.879 32.867 298.597 33.2956L298.74 32.4741C295.808 31.9741 293.447 32.4027 291.695 33.7242C289.406 35.4743 289.12 38.1529 289.084 38.2601L289.907 38.3672Z" fill="#00F0B5"/>
<path d="M214.587 238.378L282.789 282.13C282.789 282.13 289.977 269.308 274.062 253.201L229.393 225.449C223.349 227.271 217.126 231.199 214.587 238.378Z" fill="#00F0B5"/>
<path d="M82.3346 271.128L151.252 313.773C151.252 313.773 158.226 300.844 142.061 284.986L96.9621 257.984C90.8822 259.877 84.7308 263.913 82.3346 271.128Z" fill="#00F0B5"/>
<path d="M233.263 34.4283L236.787 54.5696L212.818 65.052L206.87 31.0624L230.84 20.5801L233.263 34.4283Z" fill="#D7DADD"/>
<path d="M233.264 34.427C233.264 34.427 226.399 32.8311 223.875 27.9382C223.875 27.9382 221.164 38.6523 212.764 41.6137" stroke="#1E212C" stroke-width="1.5" stroke-linecap="round" stroke-linejoin="round"/>
<path d="M220.337 43.8549C219.968 43.9191 219.616 43.6725 219.551 43.3041C219.487 42.9356 219.734 42.5848 220.104 42.5206C220.474 42.4564 220.826 42.703 220.89 43.0714C220.955 43.4399 220.707 43.7906 220.337 43.8549Z" fill="#1E212C"/>
<path d="M230.621 42.0697C230.251 42.134 229.899 41.8873 229.834 41.5189C229.77 41.1504 230.017 40.7997 230.387 40.7355C230.757 40.6712 231.109 40.9178 231.173 41.2863C231.238 41.6547 230.99 42.0055 230.621 42.0697Z" fill="#1E212C"/>
<path d="M228.182 45.9054L226.383 35.6245L231.553 34.7266" stroke="#1E212C" stroke-width="1.5" stroke-linecap="round" stroke-linejoin="round"/>
<path d="M217.858 37.1058L223.027 36.2078" stroke="#1E212C" stroke-width="1.5" stroke-linecap="round" stroke-linejoin="round"/>
<path d="M210.796 43.7627L211.421 47.333C209.488 47.6688 207.648 46.3797 207.311 44.4538C207.292 44.3468 207.278 44.2402 207.27 44.1339C207.087 41.9345 210.416 41.5885 210.796 43.7627Z" fill="#EDEEEF"/>
<path d="M211.419 47.3309C209.486 47.6666 207.646 46.3776 207.309 44.4517" stroke="#1E212C" stroke-width="1.5" stroke-linecap="round" stroke-linejoin="round"/>
<path d="M226.37 48.8341C225.43 48.9973 224.464 48.7819 223.684 48.2355C222.904 47.689 222.373 46.8561 222.21 45.92" stroke="#1E212C" stroke-width="1.5" stroke-linecap="round" stroke-linejoin="round"/>
<path d="M236.791 54.5723L212.822 65.0549" stroke="#1E212C" stroke-width="1.5" stroke-linecap="round" stroke-linejoin="round"/>
<path d="M228.184 45.9141L226.02 46.8605" stroke="#1E212C" stroke-width="1.5" stroke-linecap="round" stroke-linejoin="round"/>
<path d="M233.978 38.5031C233.978 38.5031 240.78 14.2999 220.201 20.0556C220.201 20.0556 189.205 30.1237 210.466 51.5936" stroke="#1E212C" stroke-width="1.5" stroke-linecap="round" stroke-linejoin="round"/>
</svg>
