<svg width="390" height="338" viewBox="0 0 390 338" fill="none" xmlns="http://www.w3.org/2000/svg">
<path d="M39.8313 175.061L2.1582 171.559L1.24555 181.322L38.9187 184.825L39.8313 175.061Z" fill="white"/>
<path d="M38.8986 185.114L1.21963 181.611C1.14336 181.603 1.0734 181.565 1.0244 181.506C0.975399 181.447 0.951171 181.371 0.956809 181.295L1.86947 171.531C1.87663 171.455 1.91404 171.384 1.97347 171.335C2.03289 171.286 2.10945 171.262 2.18632 171.269L39.8652 174.772C39.9421 174.779 40.013 174.816 40.0623 174.876C40.1116 174.935 40.1352 175.011 40.1281 175.088L39.2154 184.852C39.2082 184.928 39.1708 184.999 39.1114 185.048C39.052 185.097 38.9754 185.121 38.8986 185.114ZM1.5635 181.06L38.6627 184.509L39.5235 175.3L2.42429 171.851L1.5635 181.06Z" fill="#B3B7BC"/>
<path d="M60.6254 176.993L29.9199 174.139L29.0073 183.903L59.7127 186.757L60.6254 176.993Z" fill="#B3B7BC"/>
<path d="M59.6905 187.047L28.9677 184.191C28.8908 184.184 28.8199 184.147 28.7706 184.087C28.7213 184.028 28.6977 183.952 28.7049 183.875L29.6175 174.111C29.6247 174.035 29.6621 173.964 29.7215 173.915C29.7809 173.866 29.8575 173.842 29.9344 173.849L60.6572 176.705C60.734 176.712 60.8049 176.75 60.8542 176.809C60.9035 176.868 60.9271 176.945 60.92 177.021L60.0073 186.785C59.9987 186.861 59.9609 186.931 59.9018 186.98C59.8428 187.029 59.767 187.053 59.6905 187.047ZM29.3231 183.641L59.4662 186.443L60.327 177.234L30.1839 174.432L29.3231 183.641Z" fill="#B3B7BC"/>
<path d="M36.6115 164.913L6.42773 162.107L5.51508 171.871L35.6988 174.677L36.6115 164.913Z" fill="white"/>
<path d="M35.6711 174.945L5.48742 172.139C5.41055 172.132 5.33968 172.094 5.29039 172.035C5.2411 171.976 5.21743 171.899 5.2246 171.823L6.13509 162.082C6.14226 162.005 6.17967 161.935 6.23909 161.886C6.29851 161.836 6.37508 161.813 6.45195 161.82L36.6356 164.626C36.7125 164.633 36.7834 164.67 36.8327 164.73C36.882 164.789 36.9056 164.865 36.8985 164.942L35.9858 174.706C35.972 174.777 35.9322 174.841 35.8742 174.885C35.8161 174.929 35.7438 174.95 35.6711 174.945V174.945ZM5.83129 171.588L35.4353 174.34L36.2918 165.177L6.68775 162.425L5.83129 171.588Z" fill="#B3B7BC"/>
<path d="M56.7898 166.79L36.6113 164.914L35.6987 174.678L55.8772 176.554L56.7898 166.79Z" fill="#B3B7BC"/>
<path d="M55.8515 176.817L35.673 174.942C35.5961 174.934 35.5252 174.897 35.4759 174.838C35.4266 174.779 35.403 174.702 35.4101 174.626L36.3206 164.885C36.3278 164.808 36.3652 164.737 36.4246 164.688C36.4841 164.639 36.5606 164.616 36.6375 164.623L56.816 166.498C56.8929 166.506 56.9637 166.543 57.013 166.602C57.0623 166.661 57.086 166.738 57.0788 166.814L56.1662 176.578C56.1535 176.65 56.1141 176.715 56.0558 176.759C55.9974 176.804 55.9245 176.824 55.8515 176.817ZM36.0168 174.39L55.6331 176.214L56.4895 167.051L36.8733 165.228L36.0168 174.39Z" fill="#B3B7BC"/>
<path d="M42 172.492C43.1813 172.602 44.2283 171.736 44.3384 170.558C44.4485 169.38 43.5801 168.336 42.3988 168.226C41.2174 168.116 40.1705 168.982 40.0604 170.16C39.9503 171.339 40.8187 172.383 42 172.492Z" fill="white"/>
<path d="M36.4006 159.93L9.83984 157.461L9.38054 162.375L35.9413 164.844L36.4006 159.93Z" fill="white"/>
<path d="M35.9109 165.138L9.35018 162.669C9.27331 162.662 9.20244 162.625 9.15315 162.565C9.10386 162.506 9.08019 162.43 9.08736 162.353L9.5472 157.434C9.55437 157.357 9.59178 157.286 9.6512 157.237C9.71062 157.188 9.78719 157.164 9.86406 157.171L36.4248 159.641C36.5017 159.648 36.5725 159.685 36.6218 159.744C36.6711 159.804 36.6948 159.88 36.6876 159.957L36.2278 164.876C36.2206 164.953 36.1832 165.023 36.1238 165.073C36.0643 165.122 35.9878 165.145 35.9109 165.138ZM9.69405 162.118L35.6751 164.533L36.0809 160.192L10.0999 157.777L9.69405 162.118Z" fill="#B3B7BC"/>
<path d="M52.5552 161.435L27.2871 159.086L26.8278 164L52.0959 166.349L52.5552 161.435Z" fill="#B3B7BC"/>
<path d="M52.0655 166.641L26.7974 164.292C26.7206 164.285 26.6497 164.248 26.6004 164.188C26.5511 164.129 26.5275 164.053 26.5346 163.976L26.9945 159.057C27.0016 158.98 27.039 158.909 27.0985 158.86C27.1579 158.811 27.2345 158.787 27.3113 158.795L52.5794 161.143C52.6556 161.152 52.7256 161.19 52.7746 161.249C52.8236 161.308 52.8478 161.383 52.8422 161.459L52.3824 166.379C52.3737 166.455 52.3359 166.525 52.2769 166.574C52.2178 166.623 52.142 166.647 52.0655 166.641V166.641ZM27.1413 163.741L51.8297 166.036L52.2355 161.695L27.5471 159.4L27.1413 163.741Z" fill="#B3B7BC"/>
<path d="M34.0273 181.596C35.2087 181.706 36.2556 180.84 36.3657 179.662C36.4758 178.484 35.6074 177.44 34.4261 177.33C33.2448 177.22 32.1978 178.086 32.0877 179.264C31.9776 180.442 32.846 181.486 34.0273 181.596Z" fill="white"/>
<path d="M55.8533 176.817L37.4428 175.105C37.3666 175.096 37.2966 175.059 37.2476 175C37.1986 174.941 37.1744 174.865 37.18 174.789C37.1872 174.712 37.2246 174.642 37.284 174.593C37.3434 174.543 37.42 174.52 37.4969 174.527L55.9074 176.238C55.9842 176.246 56.0551 176.283 56.1044 176.342C56.1537 176.401 56.1774 176.478 56.1702 176.554C56.163 176.631 56.1256 176.702 56.0662 176.751C56.0068 176.8 55.9302 176.824 55.8533 176.817Z" fill="white"/>
<path d="M52.0666 166.64L36.5835 165.201C36.5066 165.194 36.4357 165.156 36.3864 165.097C36.3371 165.038 36.3135 164.961 36.3206 164.885C36.3278 164.808 36.3652 164.737 36.4246 164.688C36.4841 164.639 36.5606 164.616 36.6375 164.623L52.1206 166.062C52.1975 166.069 52.2684 166.106 52.3176 166.166C52.3669 166.225 52.3906 166.301 52.3834 166.378C52.3748 166.454 52.337 166.524 52.278 166.573C52.2189 166.622 52.1431 166.646 52.0666 166.64V166.64Z" fill="white"/>
</svg>
