<svg xmlns="http://www.w3.org/2000/svg" xmlns:xlink="http://www.w3.org/1999/xlink" width="284" height="216" fill="none" xmlns:v="https://vecta.io/nano"><g clip-path="url(#A)"><path d="M14.28 167.68h200.585c7.544 0 13.643-6.08 13.643-13.6V14.234c0-7.52-6.1-13.6-13.643-13.6H14.28C6.737.635.638 6.714.638 14.234V154.06c-.02 7.52 6.1 13.62 13.643 13.62z" fill="#fff"/><path d="M14.28 168.317h200.586c7.884 0 14.28-6.376 14.28-14.234V14.235c0-7.86-6.396-14.235-14.28-14.235H14.28C6.397 0 0 6.376 0 14.235V154.06c-.02 3.792 1.466 7.372 4.165 10.062a14.16 14.16 0 0 0 10.115 4.194zM214.866 1.27c7.16 0 13.005 5.825 13.005 12.964v139.848c0 7.138-5.844 12.963-13.005 12.963H14.28c-3.485 0-6.758-1.355-9.223-3.813-2.444-2.457-3.804-5.72-3.783-9.172V14.235C1.275 7.096 7.12 1.27 14.28 1.27h200.586z" fill="#3fb1b5"/><g fill="#66b0f0"><path d="M14.153 154.68h198.65a5.33 5.33 0 0 0 5.334-5.317V15.573a5.33 5.33 0 0 0-5.334-5.317H14.153a5.33 5.33 0 0 0-5.334 5.317V149.34c-.02 2.944 2.38 5.338 5.334 5.338z"/><path d="M14.153 155.313h198.65a5.97 5.97 0 0 0 5.972-5.952V15.572a5.97 5.97 0 0 0-5.972-5.952H14.153c-3.294 0-5.97 2.67-5.97 5.952v133.77a5.81 5.81 0 0 0 1.721 4.215c1.148 1.123 2.635 1.758 4.25 1.758zM212.804 10.9c2.593 0 4.697 2.097 4.697 4.68v133.79c0 2.584-2.104 4.68-4.697 4.68H14.153c-1.254 0-2.444-.487-3.336-1.376s-1.36-2.055-1.36-3.305V15.572c0-2.584 2.104-4.68 4.696-4.68h198.65z"/></g><g fill="#fff"><path d="M205.685 23.386h3.145a2.51 2.51 0 0 0 2.508-2.5V17.75a2.51 2.51 0 0 0-2.508-2.499h-3.145a2.51 2.51 0 0 0-2.507 2.499v3.135c.02 1.398 1.126 2.5 2.507 2.5zm3.145-6.863a1.23 1.23 0 0 1 1.233 1.23v3.135c0 .678-.553 1.23-1.233 1.23h-3.145c-.68 0-1.2-.55-1.232-1.25v-3.114a1.23 1.23 0 0 1 1.232-1.229h3.145zm-17.446 6.863h3.145a2.51 2.51 0 0 0 2.507-2.5V17.75a2.51 2.51 0 0 0-2.507-2.499h-3.145a2.51 2.51 0 0 0-2.508 2.499v3.135a2.51 2.51 0 0 0 2.508 2.5zm3.145-6.863a1.23 1.23 0 0 1 1.232 1.229v3.135a1.23 1.23 0 0 1-1.232 1.229h-3.145a1.23 1.23 0 0 1-1.233-1.23V17.75c0-.678.553-1.23 1.233-1.23h3.145zm-17.447 6.863h3.145a2.51 2.51 0 0 0 2.508-2.5V17.75a2.51 2.51 0 0 0-2.508-2.499h-3.145a2.51 2.51 0 0 0-2.508 2.499v3.135a2.51 2.51 0 0 0 2.508 2.5zm3.145-6.863a1.23 1.23 0 0 1 1.233 1.23v3.135c0 .678-.553 1.23-1.233 1.23h-3.145c-.7 0-1.233-.53-1.233-1.23v-3.135c0-.678.553-1.23 1.233-1.23h3.145zM49.712 23.386h3.145a2.51 2.51 0 0 0 2.508-2.5V17.75a2.51 2.51 0 0 0-2.508-2.499h-3.145a2.51 2.51 0 0 0-2.507 2.499v3.135c.02 1.398 1.126 2.5 2.507 2.5zm3.145-6.863a1.23 1.23 0 0 1 1.233 1.229v3.135a1.23 1.23 0 0 1-1.233 1.229h-3.145c-.68 0-1.2-.55-1.232-1.25v-3.114a1.23 1.23 0 0 1 1.232-1.229h3.145zM35.4 23.386h3.145a2.51 2.51 0 0 0 2.508-2.5V17.75a2.51 2.51 0 0 0-2.508-2.499H35.4a2.51 2.51 0 0 0-2.508 2.499v3.135a2.51 2.51 0 0 0 2.508 2.5zm3.145-6.863a1.23 1.23 0 0 1 1.233 1.229v3.135a1.23 1.23 0 0 1-1.233 1.229H35.4a1.23 1.23 0 0 1-1.233-1.229v-3.135a1.23 1.23 0 0 1 1.233-1.229h3.145zM21.1 23.386h3.145a2.51 2.51 0 0 0 2.508-2.5V17.75a2.51 2.51 0 0 0-2.508-2.499H21.1a2.51 2.51 0 0 0-2.508 2.499v3.135a2.51 2.51 0 0 0 2.508 2.5zm3.145-6.863a1.23 1.23 0 0 1 1.233 1.229v3.135a1.23 1.23 0 0 1-1.233 1.229H21.1c-.7 0-1.232-.53-1.232-1.23V17.75a1.23 1.23 0 0 1 1.232-1.229h3.145zM72.23 215.366h77.862l-15.28-47.682H87.53l-15.3 47.682z"/></g><g fill="#3fb1b5"><path d="M71.36 216h79.605l-15.683-48.953H87.064L71.36 216zm77.862-1.27h-76.12L88 168.318h46.348l14.875 46.41z"/><path d="M143.973 196.28l-9.16-28.596H87.53l56.442 28.596z"/></g><g fill="#fff"><path d="M25.84 54.757h37.847c3.89 0 7.055-3.156 7.055-7.033v-24.36c0-3.876-3.166-7.033-7.055-7.033H25.84c-3.89 0-7.055 3.156-7.055 7.033v24.36c0 3.877 3.166 7.033 7.055 7.033zm37.847-37.154c3.188 0 5.78 2.584 5.78 5.762v24.36c0 3.177-2.593 5.762-5.78 5.762H25.84a5.78 5.78 0 0 1-5.78-5.762v-24.36a5.78 5.78 0 0 1 5.78-5.762h37.847z"/><use xlink:href="#B"/><path d="M30.4 32.853h28.88c.36 0 .638-.275.638-.636s-.276-.636-.638-.636H30.4c-.36 0-.638.275-.638.636s.276.636.638.636zm0 6.567h28.88c.36 0 .638-.275.638-.636s-.276-.636-.638-.636H30.4c-.36 0-.638.275-.638.636s.276.636.638.636zm0 6.566h28.88c.36 0 .638-.275.638-.636s-.276-.636-.638-.636H30.4c-.36 0-.638.275-.638.636s.276.636.638.636zM15.26 154.678h150.433l8.82 12.604c9.967 14.235 31.026 14.447 41.27.403l53.722-73.652c-2.253 2.796-12.56-.318-22.377-6.757-9.967-6.545-16.406-14.785-14.387-17.836l-37.252 47.322-11.412-20.08c-3.124-5.317-8.3-9.13-14.344-10.528l-38.825-8.198h-33.47l-36.9 8.113a22.61 22.61 0 0 0-14.939 11.417l-30.35 57.192z"/></g><g fill="#3fb1b5"><path d="M195.294 178.72c8.394 0 16.044-3.877 20.996-10.676l53.72-73.652-1.02-.763c-1.806 2.224-11.4-.233-21.527-6.884-4.717-3.093-8.82-6.672-11.54-10.104-2.465-3.093-3.463-5.656-2.656-6.863l-1.04-.74-36.658 46.58-10.944-19.255a23.21 23.21 0 0 0-14.748-10.824l-38.9-8.22H97.37l-.064.02-36.89 8.113c-6.588 1.504-12.198 5.783-15.364 11.735l-30.835 58.125h151.156L174 167.642c4.866 6.948 12.538 10.994 21.06 11.08h.234zm72.252-83.1l-52.298 71.682c-4.76 6.525-12.112 10.232-20.21 10.147s-15.385-3.92-20.018-10.528l-9-12.88H16.3l29.857-56.26a21.95 21.95 0 0 1 14.514-11.1l36.827-8.092h33.343l38.76 8.176c5.823 1.356 10.902 5.084 13.92 10.23l11.88 20.907 36.424-46.262c.297 1.59 1.34 3.58 3.124 5.804 2.805 3.516 7.013 7.202 11.836 10.358 6.737 4.406 14.833 7.88 19.657 7.88.383 0 .765-.02 1.105-.064z"/><path d="M56.55 154.445a.67.67 0 0 0 .574-.339l10.7-21.035c.15-.317.043-.7-.276-.847s-.7-.042-.85.276l-10.7 21.034c-.15.318-.043.7.276.847a.58.58 0 0 0 .276.064zm109.992 1.97a.74.74 0 0 0 .298-.063c.32-.15.446-.55.276-.848l-10.583-20.822a.62.62 0 0 0-.85-.276c-.32.15-.446.55-.276.848L166 156.075a.61.61 0 0 0 .552.339zm19.2-26.477c.2 0 .382-.085.5-.254l24.247-30.905a.65.65 0 0 0-.106-.9.64.64 0 0 0-.893.106L185.243 128.9a.65.65 0 0 0 .106.9c.107.106.255.148.383.148zM101.154 99.86l9.33-11.333a.63.63 0 0 0-.085-.9.62.62 0 0 0-.893.085l-8.52 10.316L81.5 81.548c-.276-.233-.68-.2-.892.064-.234.275-.2.678.064.9l20.486 17.35zm24.226.4l22.462-17.73c.276-.212.318-.614.106-.9a.64.64 0 0 0-.893-.106L125.613 98.46l-8.266-10.528a.64.64 0 0 0-.893-.106c-.276.212-.318.614-.106.9l9.032 11.545zm133.9 5.2c2.018 0 3.08-.614 3.612-1.292.213-.275.17-.678-.106-.9a.64.64 0 0 0-.893.106c-.892 1.122-3.803 1.06-7.777-.128-4.23-1.27-9.33-3.77-13.962-6.842-4.74-3.135-8.862-6.757-11.603-10.23-2.486-3.135-3.485-5.72-2.677-6.948.2-.296.106-.678-.192-.9-.297-.2-.68-.106-.892.2-1.148 1.758-.17 4.745 2.74 8.43 2.826 3.56 7.055 7.287 11.9 10.485 4.803 3.178 9.882 5.677 14.302 7.012 2.4.72 4.208.995 5.547.995zm-27.264-20.566c1.678 0 3.038-1.356 3.038-3.03s-1.36-3.03-3.038-3.03-3.04 1.356-3.04 3.03 1.36 3.03 3.04 3.03zm0-4.787c.977 0 1.763.784 1.763 1.758s-.786 1.758-1.763 1.758-1.764-.784-1.764-1.758.786-1.758 1.764-1.758zm-118.58 19.826c1.68 0 3.04-1.356 3.04-3.03s-1.36-3.03-3.04-3.03-3.04 1.356-3.04 3.03 1.36 3.03 3.04 3.03zm0-4.787c.977 0 1.764.784 1.764 1.758s-.787 1.758-1.764 1.758-1.764-.784-1.764-1.758.786-1.758 1.764-1.758z"/><path d="M113.437 119.218c1.68 0 3.04-1.355 3.04-3.03s-1.36-3.03-3.04-3.03-3.04 1.356-3.04 3.03 1.36 3.03 3.04 3.03zm0-4.787c.977 0 1.764.784 1.764 1.758s-.787 1.758-1.764 1.758-1.764-.783-1.764-1.758.786-1.758 1.764-1.758zm61.84 53.867l-9.584-13.62v13.62h9.584z"/></g><path d="M247.358 86.64c9.818 6.44 20.125 9.553 22.377 6.757.043-.042.064-.085.106-.148.468-.7.425-1.652 0-2.817-1.466-3.834-7.522-9.765-15.215-14.807-6.12-4.025-12.155-6.82-16.342-7.69-2.422-.487-4.23-.34-5.1.593l-.213.254c-1.997 3.05 4.42 11.312 14.387 17.857z" fill="#fe5244"/><path d="M247.36 86.638c5.59 3.665 11.347 6.27 15.683 7.287l19.402-27.283c2.698-3.813 1.806-9.087-2.04-11.778L262.935 42.62l9.903-16.798c1.445-2.436.616-5.592-1.85-7.01-.807-.466-1.678-.678-2.55-.678-1.678 0-3.336.826-4.314 2.35l-31.174 48.34c-1.977 3.008 4.44 11.27 14.408 17.815z" fill="#e57281"/><g fill="#9a3b82"><path d="M257.452 66.96a3.67 3.67 0 0 0 .829-.085 3.95 3.95 0 0 0 2.55-1.737l10.222-15.25c.19-.297.106-.678-.17-.9a.67.67 0 0 0-.893.169L259.77 64.42a2.73 2.73 0 0 1-1.743 1.186c-.722.148-1.466 0-2.082-.402l-2.402-1.568c-1.275-.826-1.636-2.52-.828-3.792L263.53 43.13a.62.62 0 0 0-.191-.868c-.298-.19-.68-.106-.87.19L251.65 59.166c-1.2 1.864-.638 4.343 1.21 5.53l2.402 1.567c.637.466 1.402.7 2.188.7z"/><path d="M265.38 72.024c1.318 0 2.614-.636 3.4-1.8.19-.297.106-.678-.19-.9-.298-.19-.68-.106-.893.19a2.79 2.79 0 0 1-3.803.805l-2.19-1.377a2.74 2.74 0 0 1-1.212-1.758c-.148-.74-.02-1.483.383-2.097.19-.297.106-.678-.19-.9-.298-.19-.68-.106-.893.19a4.01 4.01 0 0 0-.574 3.071c.234 1.06.872 1.97 1.785 2.563l2.19 1.377c.68.402 1.445.614 2.19.614z"/><path d="M273.157 76.767a4.03 4.03 0 0 0 3.315-1.716l5.8-8.155c.213-.297.128-.678-.148-.9s-.68-.127-.893.148l-5.8 8.155c-.872 1.207-2.508 1.525-3.74.74l-.043-.02-2.02-1.123c-.637-.402-1.062-1.017-1.232-1.737-.17-.74-.022-1.483.382-2.118l10.01-14.828c.192-.297.128-.678-.17-.9-.297-.19-.68-.127-.892.17l-10.01 14.828c-.617.932-.808 2.033-.574 3.093s.87 1.97 1.806 2.542l.02.02 2.02 1.123c.702.466 1.445.657 2.168.657z"/></g><path d="M240.388 57.3l5.08-7.86c1.68-2.605 5.185-3.326 7.757-1.59l12.6 8.516s-3.655 6.545-12.538 1.356l-2.975 4.724c6.078 3.834 7.82 11.905 3.868 17.9L240.388 57.3z" fill="#e57281"/><g fill="#9a3b82"><path d="M254.18 80.983c.212 0 .404-.106.53-.296 1.998-3.05 2.7-6.694 1.913-10.253a13.38 13.38 0 0 0-5.44-8.176l2.316-3.686c3.06 1.673 5.844 2.16 8.31 1.504 3.124-.847 4.526-3.305 4.6-3.39l.276-.508-12.4-8.642c-1.403-.932-3.06-1.27-4.696-.932s-3.04 1.292-3.953 2.71l-5.08 7.86a.62.62 0 0 0 .191.868c.298.19.68.106.872-.19l5.078-7.86a4.78 4.78 0 0 1 3.146-2.139c1.296-.275 2.635 0 3.718.74l11.412 7.944c-.5.657-1.658 1.843-3.485 2.33-2.253.614-4.888.042-7.842-1.673l-.53-.318-3.634 5.783.532.34c2.783 1.758 4.717 4.512 5.418 7.732a12.03 12.03 0 0 1-1.742 9.278c-.19.297-.106.678.19.9.085.042.19.085.32.085z"/><path d="M247.36 86.637c5.59 3.665 11.347 6.27 15.683 7.287l4.823-6.78c-2.698-3.516-7.522-7.753-13.24-11.502-6.12-4.025-12.155-6.82-16.34-7.69-2.423-.487-4.23-.34-5.1.593l-.212.254c-.02.042-.043.064-.064.106-.02.02-.02.042-.042.085s-.043.064-.064.106c-1.445 3.24 4.91 11.184 14.557 17.54z"/></g><path d="M97.457 59.31v18.62c0 5.402 7.522 9.765 16.766 9.765 9.266 0 16.767-4.364 16.767-9.765V59.31H97.457z" fill="#e57281"/><path d="M126.08 84.836c3.04-1.758 4.93-4.215 4.93-6.906V59.31H97.456v5.17c0 5.36 3.273 10.168 8.246 12.18l20.38 8.177z" fill="#9a3b82"/><path d="M88.106 58.212v.318c0 3.22 2.614 5.825 5.844 5.825h3.846a12.01 12.01 0 0 0 11.667 9.087h9.52c5.632 0 10.37-3.855 11.646-9.087h3.846c3.23 0 5.844-2.606 5.844-5.825v-.318c0-3.22-2.614-5.825-5.844-5.825H131V47.8c0-4.914-3.634-8.98-8.373-9.66-1.04 1.737-4.186 5.89-10.604 5.656-3.017-.106-5.823-.678-8.14-1.356-2.784-.805-5.567.9-6.27 3.538-.106.593-.17 1.186-.17 1.8v4.597H93.95c-3.21 0-5.844 2.627-5.844 5.846z" fill="#e57281"/><g fill="#9a3b82"><path d="M94.78 52.365h2.678V47.26c0-.445.064-.9.17-1.292.7-2.648 3.486-4.343 6.27-3.538 2.317.678 5.1 1.25 8.14 1.356 6.418.233 9.563-3.92 10.605-5.656 4.738.678 8.372 4.745 8.372 9.66v4.597h3.337s3.825-13.8.956-17.687c-2.826-3.834-6.227-2.16-6.227-2.16s2.04-11.48-9.35-11.27c-11.37.212-26.16 13.366-27.243 15.78-1.7 3.707 2.295 15.315 2.295 15.315zm1.38 7.455c.297 0 .53-.233.53-.53 0-2.542-2.083-4.618-4.633-4.618-.297 0-.53.233-.53.53s.234.53.53.53a3.56 3.56 0 0 1 3.57 3.559c0 .297.234.53.53.53zm36.084 0c.297 0 .53-.233.53-.53a3.56 3.56 0 0 1 3.57-3.559c.298 0 .53-.233.53-.53s-.233-.53-.53-.53c-2.55 0-4.632 2.076-4.632 4.618 0 .297.233.53.53.53zM102.8 48.317c.107 0 .213-.042.32-.106.106-.085 2.848-2.012 6.354-.55.276.106.574-.02.7-.297.107-.275-.02-.572-.297-.7-4.08-1.673-7.247.572-7.374.678-.234.17-.298.508-.106.74.085.148.233.233.403.233zm23.037-.002c.17 0 .32-.085.425-.212.17-.233.128-.572-.106-.74-.128-.106-3.315-2.35-7.374-.678a.54.54 0 0 0-.298.699c.107.275.425.403.702.297 3.527-1.462 6.3.53 6.354.55.085.042.2.085.297.085zm-12.963 17.837c.83 0 1.785-.17 2.87-.572.276-.106.425-.403.32-.678s-.404-.424-.68-.318c-4.463 1.652-5.93-1.27-5.993-1.398-.128-.254-.446-.38-.7-.254s-.383.445-.255.7c.02.042 1.232 2.52 4.44 2.52zm1.51-3.982l1.466-.042c.298-.02.5-.275.5-.572s-.276-.508-.574-.487c-1.253.085-3.187 0-3.2 0-.297-.02-.53.212-.552.508s.212.53.5.55l1.87.042zm-8.16-5.55c-.587 0-1.063-.797-1.063-1.78s.476-1.78 1.063-1.78 1.062.797 1.062 1.78-.476 1.78-1.062 1.78zm15.237 0c-.587 0-1.062-.797-1.062-1.78s.475-1.78 1.062-1.78 1.063.797 1.063 1.78-.476 1.78-1.063 1.78z"/></g><g fill="#fff"><path d="M118.94 61.366h6.694a2.88 2.88 0 0 0 2.869-2.86v-6.672a2.88 2.88 0 0 0-2.869-2.86h-6.694c-1.572 0-2.87 1.292-2.87 2.86v6.672c-.02.74.277 1.462.808 2 .552.572 1.275.868 2.06.868zm6.694-11.333a1.8 1.8 0 0 1 1.806 1.801v6.672a1.8 1.8 0 0 1-1.806 1.8h-6.694a1.77 1.77 0 0 1-1.296-.551c-.34-.34-.5-.784-.5-1.25v-6.672a1.8 1.8 0 0 1 1.806-1.801h6.694zm-23.077 11.333h6.694a2.88 2.88 0 0 0 2.869-2.86v-6.672a2.88 2.88 0 0 0-2.869-2.86h-6.694c-1.572 0-2.87 1.292-2.87 2.86v6.672c0 1.568 1.297 2.86 2.87 2.86zm6.694-11.333a1.8 1.8 0 0 1 1.806 1.801v6.672a1.8 1.8 0 0 1-1.806 1.8h-6.694a1.8 1.8 0 0 1-1.806-1.8v-6.672a1.8 1.8 0 0 1 1.806-1.801h6.694z"/><path d="M111.588 53.38h4.994v1.06h-4.994v-1.06z"/></g><g fill="#66b0f0"><path d="M124.02 147.092h-23.227c-2.465 0-4.462-2-4.462-4.448v-12.307c0-2.457 1.998-4.448 4.462-4.448h23.227c2.465 0 4.463 2 4.463 4.448v12.307c0 2.457-1.998 4.448-4.463 4.448zm-23.227-19.932a3.18 3.18 0 0 0-3.187 3.177v12.307a3.18 3.18 0 0 0 3.187 3.178h23.227a3.18 3.18 0 0 0 3.188-3.178v-12.307a3.18 3.18 0 0 0-3.188-3.177h-23.227zM113 141.5h-7.863c-1.253 0-2.274-1.017-2.274-2.267v-5.486c0-1.25 1.02-2.267 2.274-2.267H113c1.254 0 2.274 1.017 2.274 2.267v5.486c0 1.25-1.02 2.267-2.274 2.267zm7.65-.147l-2.422-1.6c-.66-.445-1.063-1.208-1.063-2.034v-2.415a2.45 2.45 0 0 1 1.063-2.033l2.422-1.6c.574-.38 1.318.042 1.318.762v8.198a.85.85 0 0 1-1.318.742z"/></g></g><defs><clipPath id="A"><path fill="#fff" d="M0 0h284v216H0z"/></clipPath><path id="B" d="M30.4 26.287h28.88c.36 0 .638-.275.638-.636s-.276-.636-.638-.636H30.4c-.36 0-.638.275-.638.636s.276.636.638.636z"/></defs></svg>