<svg xmlns="http://www.w3.org/2000/svg" width="600" height="468" fill="none" xmlns:v="https://vecta.io/nano"><path d="M90.135 423.16s-18.77-16.98-18.4-29.172c.424-13.948 13.73-7.214 14.432-12.246.72-5.013-14.044-39.272 6.515-39.013s11 33.112 16.573 36.146c5.573 3.015 14.82-.592 12.328 12.708-2.49 13.32-23.272 31.41-23.272 31.41l-8.176.166z" fill="#3fb1b5"/><g fill="#ffcf2d"><path d="M33.773 423.287c-3.2 0-6.44-1.498-9.062-4.2-2.473-2.553-4.2-5.993-4.725-9.453-1.107-7.288 2.934-13.134 10.833-15.612 7.4-2.33 11.96-1 14.7.98.572-2.72 1.587-5.53 3.2-8.12 3.544-5.642 11.036-11.913 26.668-9.7 9.763 1.368 16.315 5.3 19.452 11.672 1.956 3.96 2.362 8.472 2.03 12.783l.6-2.683c1.68-8.36 2.196-16.833 1.513-25.14-.85-10.378-3.58-20.57-8.102-30.282-.13-.278-.018-.6.258-.74s.6-.02.738.277c4.577 9.842 7.345 20.164 8.194 30.7.683 8.417.166 16.982-1.55 25.454-2.916 14.43-8.38 23.734-8.434 23.826l-.96-.555c.037-.055 2.842-5.087 4.817-11.672 3.267-10.933 1.753-17.703-.1-21.458-2.97-6.03-9.228-9.75-18.603-11.063-8.305-1.165-19.47-.5-25.56 9.213-1.66 2.645-2.658 5.568-3.174 8.324.13.13.258.24.388.37 2.898 2.923 3.617 7.066 2.842 9.5-.37 1.128-1.052 1.85-1.938 1.998-.332.055-.996.018-1.587-.888-1.1-1.647-1.66-5.827-.904-10.526-2.455-1.98-6.773-3.46-14.137-1.147-3.968 1.24-6.828 3.293-8.545 6.068-1.476 2.386-2.012 5.272-1.532 8.324.498 3.237 2.104 6.456 4.43 8.842 2.418 2.497 5.352 3.866 8.268 3.866.314 0 .554.24.554.555s-.258.518-.572.518zm12.513-26.138c-.554 4.088-.074 7.62.85 9 .185.277.37.425.498.407.6-.093.923-.814 1.052-1.24.664-2.1-.055-5.68-2.4-8.176zm81.554 26.14a.54.54 0 0 1-.517-.37c-.092-.296.055-.6.35-.703.074-.018 6.957-2.368 13.933-5.938 9.1-4.643 14.23-9.23 14.783-13.245.35-2.497-1.07-4.883-4.245-7.084-3.266-2.276-6.8-2.942-10.5-1.96-13.804 3.662-25.892 28.728-26.003 28.987-.13.277-.462.388-.738.26s-.388-.463-.26-.74c.037-.056 3.12-6.493 7.9-13.3 6.46-9.193 12.808-14.67 18.825-16.26 4.023-1.073 7.862-.35 11.423 2.128 3.544 2.46 5.13 5.198 4.706 8.157-1.476 10.5-28.328 19.683-29.473 20.07-.073-.018-.13 0-.184 0z"/><path d="M122 422.938c-.1 0-.24-.037-.333-.1a.56.56 0 0 1-.11-.777c.055-.056 4.724-6.308 10.833-12.7 8.25-8.62 15.078-13.393 20.264-14.17.295-.037.6.166.627.462s-.166.592-.46.63c-11.848 1.776-30.175 26.157-30.36 26.416a.53.53 0 0 1-.461.241zm-23.375.1c-.074 0-.148-.02-.22-.037-.277-.13-.406-.444-.295-.722.092-.24 10.132-23.585 18.935-37.3.166-.26.517-.333.757-.166.258.166.332.518.166.758-8.748 13.652-18.75 36.923-18.843 37.145-.074.203-.277.333-.498.333z"/><path d="M108.222 402.977l.443-.888c.406-.814 4.023-8.084 6.016-9.47a4.88 4.88 0 0 1 3.636-.796 4.86 4.86 0 0 1 3.119 2.035c.738 1.073 1.015 2.386.775 3.663a4.79 4.79 0 0 1-2.012 3.089c-2.03 1.406-10.058 2.183-10.98 2.275l-.996.093zm9.2-10.137c-.757 0-1.495.222-2.123.666-1.3.925-3.875 5.586-5.204 8.157 2.86-.314 8.12-1.054 9.45-1.98a3.7 3.7 0 0 0 1.55-2.386 3.74 3.74 0 0 0-.61-2.83 3.73 3.73 0 0 0-2.399-1.573c-.22-.018-.443-.055-.664-.055zm-1.46-5.828l.443-.888c.406-.814 4.023-8.084 6.016-9.47a4.88 4.88 0 0 1 3.636-.795c1.273.24 2.38.962 3.12 2.034s1.015 2.387.775 3.663a4.79 4.79 0 0 1-2.012 3.089c-2.03 1.406-10.058 2.183-10.98 2.276l-.996.092zm9.2-10.118c-.757 0-1.495.222-2.122.665-1.3.925-3.876 5.587-5.205 8.158 2.86-.314 8.12-1.054 9.45-1.98a3.7 3.7 0 0 0 1.55-2.386c.184-1-.037-1.998-.6-2.83s-1.42-1.387-2.4-1.572a4.01 4.01 0 0 0-.664-.055z"/><path d="M121.27 377.837l.056-.98c.037-.907.498-9 1.808-11.08 1.42-2.275 4.43-2.96 6.7-1.535 2.25 1.424 2.934 4.42 1.513 6.715-1.292 2.072-8.397 5.975-9.2 6.42l-.886.462zm5.98-13.245a3.73 3.73 0 0 0-3.174 1.758c-.868 1.37-1.385 6.66-1.588 9.545 2.5-1.424 7.05-4.18 7.9-5.55 1.108-1.757.6-4.088-1.162-5.18-.6-.4-1.292-.574-1.975-.574zm-19.36 38.422l-.48-.87c-.443-.795-4.32-7.917-4.3-10.377a4.88 4.88 0 0 1 1.458-3.423c.905-.888 2.104-1.387 3.378-1.387H108a4.81 4.81 0 0 1 3.433 1.424c.904.925 1.402 2.146 1.402 3.46-.018 2.44-3.986 9.508-4.43 10.303l-.517.87zm.056-14.947c-.978 0-1.9.37-2.602 1.073-.72.703-1.108 1.646-1.126 2.645-.02 1.628 2.325 6.4 3.672 8.953 1.384-2.534 3.784-7.288 3.802-8.88.02-1-.37-1.96-1.07-2.664-.702-.74-1.66-1.128-2.676-1.128z"/><path d="M116.582 387.254l-.48-.87c-.443-.795-4.32-7.917-4.3-10.377.018-2.645 2.214-4.8 4.872-4.8a4.81 4.81 0 0 1 3.433 1.425c.904.925 1.402 2.145 1.402 3.46-.018 2.442-3.986 9.508-4.43 10.303l-.498.87zm-3.673-11.247c-.018 1.628 2.325 6.4 3.673 8.953 1.384-2.534 3.783-7.288 3.802-8.898.018-1-.37-1.96-1.07-2.663s-1.642-1.1-2.64-1.1c-2.085.018-3.746 1.646-3.765 3.718z"/></g><path d="M599.704 422.143H0v1.11h599.704v-1.11z" fill="#66b0f0"/><path d="M248.297 52.23h148.325c30 0 58.005 14.8 74.966 39.53l67.952 100.335c5.6 8.158.535 19.275-9.357 19.275h-75.63l-30.21-39.568c-3.562-5.013-11.424-2.81-11.922 3.35l-6.1 74.53H244.57l-13.62-75.77c-.83-5.92-8.47-7.732-11.922-2.85l-27.756 35.813h-90.45l70.573-112.1c16.684-26.508 45.714-42.546 76.903-42.546z" fill="#fff"/><path d="M406.828 250.2H244.1l-.074-.462-13.64-75.807a5.9 5.9 0 0 0-4.54-5.013c-2.473-.592-4.91.333-6.385 2.405l-.02.018-27.922 36.035H99.788l71.108-112.95c8.25-13.078 19.73-23.937 33.22-31.392s28.77-11.414 44.163-11.414h148.325c30.137 0 58.337 14.873 75.408 39.772l67.953 100.335c2.842 4.144 3.21 9.398.94 13.708-2.123 4.032-6.146 6.437-10.76 6.437h-75.87l-30.396-39.808c-1.8-2.535-4.54-2.85-6.496-2.313-1.975.555-4.17 2.24-4.43 5.365l-6.127 75.085zm-161.816-1.1h160.783l6.053-74.012a7.1 7.1 0 0 1 5.241-6.345c2.953-.814 5.906.222 7.696 2.72l30.045 39.346h75.372c4.207 0 7.862-2.182 9.78-5.845 2.067-3.94 1.735-8.75-.886-12.56L471.145 92.057c-16.868-24.603-44.717-39.29-74.504-39.29H248.316c-15.207 0-30.304 3.903-43.628 11.266-13.325 7.38-24.675 18.09-32.832 31.003l-70.038 111.23h89.157l27.573-35.59c1.734-2.46 4.613-3.552 7.548-2.83 2.897.703 4.964 2.978 5.37 5.92l13.546 75.326z" fill="#3fb1b5"/><path d="M338.673 90.928l24.03 80.024h-59.39l26.372-80.024h8.988z" fill="#fe5244"/><g opacity=".2"><path opacity=".008" d="M319.516 121.857v49.095H317.9v-44.285l.535-1.628 1.07-3.182zM336.42 91.1h-1.588v79.84h1.588V91.1zm16.925 48.7v31.152h-1.587V134.5l1.587 5.3z" fill="#fff"/><path opacity=".008" d="M359.6 160.6h-52.893l.535-1.628h51.86l.5 1.628zm-5.112-16.96h-42.17l.535-1.628H354l.498 1.628zm-5.075-16.965H317.9l.535-1.628h30.47l.498 1.628zm-5.11-16.963h-20.78l.535-1.628h19.766l.48 1.628zM339.2 92.74h-10.06l.517-1.628h9.098l.443 1.628z" fill="#fff"/></g><path d="M349.413 90.097l9.69 10.433 31.245-48.3h-27.683l-13.25 37.866z" fill="#fff"/><path d="M359.195 101.417l-10.41-11.2 13.49-38.55h29.086l-32.168 49.76zm-9.154-11.45l8.988 9.675 30.285-46.856h-26.262l-13.01 37.182z" fill="#3fb1b5"/><path d="M320.678 90.097l-9.726 10.433-33.847-48.3H307.4l13.288 37.866z" fill="#fff"/><path d="M310.897 101.4l-34.844-49.743h31.743l13.528 38.55-10.427 11.192zm-32.72-48.614l32.832 46.875 9.043-9.693-13.048-37.182h-28.827z" fill="#3fb1b5"/><path d="M551.425 220.545c0 18.905-13.435 36.812-34.345 39.883l-104.475 15.41v-73.014l5.795-1.37 83.584-19.885c16.13-3.83 32.942 2.663 42.318 16.352 4.9 7.067 7.123 14.93 7.123 22.624z" fill="#a0505a"/><path d="M431.41 273.063l-18.806 2.774v-73.013l5.795-1.37 13.01 71.608z" fill="#73325a"/><path d="M412.605 294.504H232.518V186.177c0-8.416 6.8-15.224 15.19-15.224h149.69c8.397 0 15.188 6.826 15.188 15.224l.02 108.327z" fill="#ffcf2d"/><path d="M333.67 241.837h-22.22c-2.5 0-4.558-2.053-4.558-4.57v-9.34c0-2.516 2.048-4.57 4.558-4.57h22.22c2.5 0 4.56 2.054 4.56 4.57v9.34c-.02 2.534-2.05 4.57-4.56 4.57zm-22.22-17.518a3.65 3.65 0 0 0-3.636 3.645v9.34c0 1.998 1.624 3.644 3.636 3.644h22.22c1.994 0 3.636-1.627 3.636-3.644v-9.34a3.65 3.65 0 0 0-3.636-3.645h-22.22z" fill="#fff"/><path d="M295.765 293.32l190.643-28.58c37.095-5.66 70.536 23.14 70.536 60.785 0 33.964-27.443 61.47-61.327 61.47H297.02l-1.255-93.676z" fill="#0096a0"/><path d="M270 403.754l-114.736 22.2c-14.617 3.107-29.307-9.102-29.953-24.9l-1.698-41.973c-.868-21.255 19.452-34.038 38.608-24.936L270 403.754z" fill="#fff"/><g fill="#fe5244"><path d="M150.65 426.988c-5.352 0-10.74-1.868-15.28-5.42-6.423-4.994-10.298-12.468-10.612-20.496L123.06 359.1c-.203-5.16.775-9.952 2.934-14.225 2.012-3.996 5.057-7.418 8.767-9.878 7.99-5.29 18.344-5.8 27.7-1.35l.055.037 108.942 70.35-116.102 22.457c-1.55.333-3.12.5-4.706.5zm-1.218-95.23c-5.02 0-9.892 1.406-14.082 4.18-7.51 4.995-11.608 13.41-11.202 23.142l1.698 41.973c.314 7.695 4.023 14.854 10.187 19.663 5.63 4.385 12.587 6.105 19.083 4.718l113.408-21.94-106.58-68.85c-4.078-1.942-8.34-2.886-12.512-2.886z"/><path d="M158.66 425.435c-5.204 0-10.445-1.83-14.874-5.272-6.275-4.884-10.06-12.153-10.4-19.997l-1.772-40.752c-.424-9.823 3.654-18.332 11.24-23.363 7.696-5.106 17.736-5.57 26.816-1.22l-.48.998c-8.73-4.18-18.345-3.755-25.727 1.147-7.234 4.8-11.147 12.968-10.74 22.384l1.772 40.752c.332 7.5 3.968 14.484 9.984 19.164 5.445 4.236 12.162 5.92 18.437 4.606l.222 1.092c-1.477.314-2.972.462-4.467.462zm3.544-91.3L270 403.753l-24.582 4.736-83.215-74.364z"/><path d="M159.768 397.3l-1.015-.444 16.24-37.422c.092-.204.295-.333.516-.333s.425.13.5.333l13.583 32.205 13.657-27.266.996.5-14.192 28.34c-.092.185-.295.314-.517.314s-.406-.148-.498-.333l-13.546-32.132-15.724 36.24z"/><path d="M174.366 394.784h-.018c-.222 0-.406-.148-.5-.35L157.94 354.66l1.033-.407 15.43 38.606 15.004-30.633c.092-.185.295-.315.498-.315.222 0 .406.13.5.333l12.07 26.5-1.016.463-11.59-25.417-15.04 30.707c-.056.167-.26.296-.462.296z"/></g><path d="M359.103 351.72c-6.367-5.235-24.767 6.678-41.12 26.6s-24.453 40.345-18.104 45.58c-.942-.573-120.458-75.695-194.63-126.973-18.862-13.023-28.81-33.89-28.81-55.014 0-14.725 4.854-29.56 14.875-41.973 25.136-31.078 71.7-33.168 99.53-4.477L359.103 351.72z" fill="#3fb1b5"/><path d="M340.934 397.28c16.348-19.923 24.444-40.324 18.084-45.567s-24.77 6.656-41.117 26.578-24.444 40.324-18.084 45.567 24.77-6.656 41.117-26.578z" fill="#fe5244"/><g fill="#fff"><path d="M303.754 425.64c-1.716 0-3.155-.444-4.263-1.35-3.285-2.7-3.156-9.064.37-17.907 3.433-8.657 9.708-18.757 17.644-28.432s16.628-17.795 24.434-22.845c7.99-5.16 14.192-6.512 17.46-3.81 3.285 2.7 3.156 9.064-.37 17.906-3.433 8.658-9.708 18.758-17.643 28.433s-16.63 17.795-24.435 22.845c-5.278 3.422-9.8 5.16-13.196 5.16zm51.398-74.604c-3.156 0-7.51 1.702-12.605 4.995-7.714 4.994-16.314 13.022-24.176 22.605-7.88 9.6-14.08 19.59-17.477 28.136-3.267 8.25-3.525 14.318-.683 16.648s8.73.925 16.167-3.884c7.714-4.995 16.314-13.023 24.176-22.605 7.88-9.6 14.082-19.6 17.477-28.136 3.267-8.25 3.525-14.318.683-16.65-.904-.74-2.104-1.1-3.562-1.1z"/><path d="M411.738 417.296l-21.28 36.202c-10.796 18.332-35.176 18.665-46.34.6l-35.822-57.826c3.064-5.087 6.847-10.396 11.202-15.705 7.88-9.6 16.24-17.333 23.512-22.198l57.01 21.736c13.952 5.346 19.69 23.567 11.72 37.18z"/></g><g fill="#fe5244"><path d="M367.076 468c-4.466 0-8.896-1.147-12.826-3.33-4.282-2.368-7.862-5.827-10.612-10.285l-35.988-58.122.184-.296c3.1-5.143 6.884-10.452 11.258-15.78 7.622-9.304 16.02-17.222 23.623-22.31l.24-.166.258.092 57.01 21.736c6.514 2.497 11.663 7.99 14.136 15.04 2.676 7.677 1.9 16.038-2.16 22.957l-21.28 36.2c-2.676 4.532-6.182 8.103-10.445 10.58a26.75 26.75 0 0 1-13.122 3.645c-.074.037-.166.037-.277.037zm-58.116-71.737l35.637 57.548c2.64 4.292 6.072 7.603 10.206 9.897 3.857 2.127 8.194 3.237 12.568 3.182 4.393-.056 8.73-1.258 12.568-3.497 4.097-2.386 7.475-5.827 10.058-10.192L411.276 417c3.876-6.622 4.633-14.65 2.067-22.013-2.362-6.752-7.27-11.987-13.5-14.373l-56.75-21.643c-7.456 5.03-15.67 12.8-23.143 21.92-4.282 5.217-7.973 10.378-11 15.373z"/><path d="M362.24 461.766c-4.208 0-8.38-1.1-12.107-3.18-4.06-2.276-7.437-5.605-10.04-9.878l.942-.574c2.5 4.107 5.758 7.288 9.633 9.47 3.636 2.035 7.733 3.1 11.85 3.034 4.134-.055 8.212-1.22 11.8-3.348 3.857-2.294 7.03-5.587 9.43-9.767l20.06-34.722c3.783-6.567 4.576-14.65 2.122-21.625-2.16-6.123-6.46-10.692-12.144-12.912l.406-1.035c5.98 2.33 10.52 7.14 12.77 13.577 2.566 7.27 1.735 15.706-2.196 22.55l-20.06 34.722c-2.5 4.347-5.813 7.77-9.836 10.155-3.765 2.24-8.028 3.46-12.347 3.515-.092 0-.203.018-.295.018zm-17.9-44.6a.59.59 0 0 1-.332-.111.54.54 0 0 1-.203-.574l8.415-33.852-27.923 14.17-.498-1 28.993-14.725a.57.57 0 0 1 .591.056.55.55 0 0 1 .185.573l-8.38 33.704 33.515-20.607.572.944-34.678 21.328c-.055.074-.147.093-.258.093z"/><path d="M355.892 430.78l-1.09-.24 8.766-39.66-28.532 14.095c-.184.093-.406.074-.572-.055s-.258-.333-.22-.537l4.54-27.1 1.09.185-4.356 26.027 28.606-14.132c.184-.093.424-.074.6.055a.58.58 0 0 1 .203.555l-9.024 40.808z"/></g><path d="M377.964 58.777c-.148 2.423-1.218 4.588-2.88 6.14s-3.858 2.497-6.294 2.497h-8.36l-.535 8.842c-.46 7.288-7.677 14.725-15.226 14.725h-21.168c-7.493 0-14.764-7.436-15.225-14.725l-.536-8.842h-8.47c-2.418 0-4.65-.943-6.294-2.497-1.66-1.554-2.73-3.718-2.88-6.178-.295-5.31 4.042-9.712 9.357-9.712h7.16l-.794-13.467c-.148-2.85 2.086-5.235 4.928-5.235h46.7c2.842 0 5.075 2.386 4.927 5.235l-.793 13.467h7.234a9.24 9.24 0 0 1 9.136 9.749z" fill="#a0505a"/><g fill="#73325a"><path d="M361.576 49.03h7.603s7.272-26.453.26-33.242c-6.995-6.8-50.014-22.42-63.9-12.67-10.15 7.14-4.614 45.913-4.614 45.913h5.6s22.608-16.242 26.15-14.836c3.562 1.406-10.224 8.232-7.456 9.564 10.335 4.976 28.92-13.06 33.2-13.06s3.156 18.332 3.156 18.332zm-9.578 6.935c-.074 0-.166-.018-.24-.074-.055-.037-4.872-3.848-10.944-1.35-.185.074-.406-.018-.48-.203s.02-.407.203-.48c6.496-2.664 11.645 1.424 11.7 1.46.166.13.184.37.055.518a.42.42 0 0 1-.295.13z"/><path d="M351.998 56.336a.71.71 0 0 1-.462-.166c-.037-.037-4.724-3.7-10.574-1.295-.37.148-.812-.018-.96-.407-.148-.37.018-.814.406-.962 6.7-2.756 12.014 1.46 12.07 1.517a.84.84 0 0 1 .276.499.69.69 0 0 1-.166.536c-.166.185-.37.278-.6.278zm-.037-.758c.018.02.037.02.037.02s-.02 0-.037-.02zm-16.7 25.692c-1.292 0-2.787-.26-4.522-.888-.184-.074-.295-.277-.22-.48.074-.185.277-.296.48-.222 3.266 1.202 6.127 1.128 8.268-.24 1.605-1.017 2.25-2.368 2.25-2.386.093-.185.314-.26.5-.185.184.093.258.314.184.5-.037.055-1.9 3.903-6.94 3.903z"/><path d="M335.26 81.64c-1.44 0-3.008-.314-4.65-.906a.79.79 0 0 1-.424-.388c-.074-.185-.092-.388-.02-.573a.78.78 0 0 1 .388-.425c.185-.074.387-.093.572-.018 3.156 1.165 5.887 1.1 7.936-.203 1.495-.944 2.122-2.22 2.122-2.238.074-.185.24-.314.425-.388s.387-.055.572.02a.72.72 0 0 1 .35.98c-.037.092-1.993 4.144-7.27 4.144zm-4.392-1.6c1.68.6 3.266.906 4.687.87-1.44.037-3.008-.24-4.687-.87zm1.954-3.958c-.812 0-1.66-.02-2.4-.074-1.402-.093-1.698-3.145-2.067-8.528-.24-3.44-.517-7.344-1.347-9.064-2.86-5.882-12.55-3.8-12.642-3.792-.203.037-.387-.074-.443-.278s.074-.388.277-.444c.1-.018 2.602-.573 5.5-.352 3.912.296 6.662 1.868 7.972 4.532.886 1.83 1.163 5.642 1.42 9.323.148 2.1.296 4.107.536 5.605.35 2.1.775 2.238.85 2.238 2.103.148 5.333 0 5.37 0 .203-.02.37.148.388.352s-.148.37-.35.388c-.092.018-1.495.093-3.064.093z"/><path d="M332.822 76.444c-.94 0-1.772-.02-2.418-.074-1.716-.13-2-3.126-2.417-8.88-.24-3.404-.517-7.27-1.3-8.916-2.732-5.605-12.144-3.607-12.236-3.6-.185.037-.388 0-.554-.092a.83.83 0 0 1-.332-.462c-.055-.185 0-.4.092-.555a.84.84 0 0 1 .46-.333c.1-.018 2.658-.573 5.6-.35 4.06.314 6.92 1.942 8.268 4.736.923 1.905 1.18 5.753 1.458 9.47.147 2.1.295 4.088.535 5.568.24 1.46.498 1.85.572 1.942 2.067.13 5.223 0 5.26 0a.71.71 0 0 1 .535.185c.148.13.24.314.24.518.018.407-.295.758-.7.777-.148 0-1.532.055-3.064.055zm-2.38-.814c.665.056 1.458.074 2.38.074 1.513 0 2.86-.055 3.045-.074-.147.02-3.322.148-5.426 0zm-3.063-17.314c.83 1.813 1.107 5.698 1.347 9.12l.055.795-.055-.795c-.258-3.6-.517-7.307-1.347-9.12zm-9.136-4.42c2.64 0 5.96.518 8.028 2.775-1.44-1.572-3.7-2.516-6.588-2.738-2.842-.222-5.297.314-5.4.333.037 0 1.735-.37 3.95-.37zm26.963 12.022c.978 0 1.772-1.325 1.772-2.96s-.794-2.96-1.772-2.96-1.772 1.325-1.772 2.96.793 2.96 1.772 2.96zm-23.014 0c.98 0 1.772-1.325 1.772-2.96s-.793-2.96-1.772-2.96-1.772 1.325-1.772 2.96.794 2.96 1.772 2.96zM304.8 60.516a.38.38 0 0 1-.369-.351 6.67 6.67 0 0 0-6.644-6.252.37.37 0 0 1 0-.74 7.39 7.39 0 0 1 7.364 6.955.36.36 0 0 1-.351.388z"/><path d="M304.8 60.887c-.387 0-.72-.296-.738-.703a6.29 6.29 0 0 0-6.275-5.901.74.74 0 0 1 0-1.48c4.097 0 7.493 3.2 7.733 7.288a.71.71 0 0 1-.185.537c-.13.148-.313.24-.516.24 0 .018 0 .018-.02.018zm-2.547-5.716a7.03 7.03 0 0 1 2.547 4.995v.37-.37c-.13-2.016-1.1-3.792-2.547-4.995zm60.644 5.55h-.02c-.203-.02-.35-.185-.35-.4.24-4.125 3.635-7.362 7.75-7.362a.37.37 0 0 1 0 .74c-3.7 0-6.792 2.923-7.013 6.678 0 .166-.166.333-.37.333z"/><path d="M362.886 61.1h-.037c-.406-.02-.72-.37-.7-.777.258-4.33 3.82-7.714 8.12-7.714a.74.74 0 0 1 .739.74.74.74 0 0 1-.739.74c-3.525 0-6.44 2.775-6.644 6.326-.018.37-.332.684-.738.684zm0-.74v.37-.37z"/></g><path d="M533.19 421.31s43.998-79.118 17.275-79.562c-12.476-.204-25.23 42.602-20.393 79.562h3.118z" fill="#3fb1b5"/><g fill="#ffcf2d"><path d="M531.3 421.44c-.037 0-.074 0-.13-.02a.58.58 0 0 1-.424-.665c.018-.1 2.602-11.636 8-24.696 3.175-7.677 6.718-14.373 10.483-19.923 4.743-6.955 9.892-12.098 15.318-15.28 7.087-4.162 14.7-5.032 22.663-2.627 7.456 2.257 11.682 6.05 12.605 11.284.775 4.458-.886 9.97-4.946 16.4-3.2 5.068-7.936 10.73-14.026 16.833-10.354 10.36-21.242 18.5-21.353 18.6-.24.185-.6.13-.775-.1a.56.56 0 0 1 .111-.777c.1-.074 10.944-8.176 21.242-18.48 9.43-9.434 20.32-22.697 18.658-32.242-.83-4.792-4.817-8.288-11.83-10.415-7.66-2.312-14.985-1.46-21.777 2.516-5.278 3.107-10.316 8.14-14.967 14.946-3.728 5.476-7.235 12.117-10.4 19.72-5.37 12.967-7.917 24.4-7.954 24.5-.037.26-.277.444-.516.444zm-52.8 1.276h-.056c-3.488-.333-6.754-2.1-9.43-5.124-2.492-2.812-4.263-6.493-5.002-10.396-.738-3.866-.406-7.66.942-10.97 1.513-3.68 4.3-6.64 8.083-8.546 4.706-2.386 9.117-3.46 13.103-3.2 2.898.185 5.518 1.054 7.825 2.6.148-3.366.868-6.4 2.16-8.786 2.363-4.44 6.6-6.66 12.2-6.438 4.78.204 8.877 2.96 12.18 8.195 2.602 4.107 4.706 9.767 6.293 16.797 2.676 11.93 2.898 23.918 2.898 24.03 0 .315-.24.555-.554.555-.295 0-.554-.24-.554-.555 0-.1-.22-12.005-2.88-23.826-1.55-6.9-3.617-12.43-6.145-16.445-3.1-4.902-6.903-7.473-11.276-7.658-5.223-.222-8.988 1.738-11.166 5.845-1.292 2.423-1.993 5.568-2.048 9.064.018.02.036.037.055.037 2.14 1.72 3.894 4.088 4.983 6.678.94 2.257 1.273 4.514.904 5.994-.258.98-.83 1.6-1.605 1.74-.554.092-1.422-.056-2.363-1.35-1.44-1.98-2.602-5.9-2.953-10a30.5 30.5 0 0 1-.11-2.553c-3.784-2.8-10.28-4.846-20.393.26-3.58 1.813-6.128 4.495-7.55 7.992-1.273 3.1-1.568 6.678-.885 10.34.7 3.7 2.38 7.215 4.743 9.86 2.5 2.812 5.5 4.458 8.7 4.754.296.037.536.296.5.6-.093.278-.332.5-.6.5zm16.554-33.37a46.83 46.83 0 0 0 .092 1.535c.333 3.903 1.42 7.62 2.75 9.434.462.648.94.98 1.274.925.35-.055.6-.37.738-.925.6-2.33-.978-7.455-4.854-10.97z"/><path d="M547.808 421.44a.68.68 0 0 1-.203-.037c-.277-.1-.424-.444-.295-.722.055-.13 5.352-12.967 13.085-26.896 4.54-8.195 9.043-15.15 13.343-20.682 5.407-6.955 10.556-11.672 15.3-14.04.277-.13.6-.018.74.24.13.277.018.6-.24.74-5.758 2.868-15.337 11.155-28.163 34.26-7.714 13.873-12.993 26.656-13.03 26.785a.59.59 0 0 1-.535.352zm-22.922-27.008c-.055-.278-4.946-27.7-5.15-45.6l1.108-.02c.1 9.305 1.495 21.144 2.64 29.45 1.236 9 2.473 15.9 2.5 15.964l-1.1.204z"/><path d="M522.487 370.57l-.13-.98c-.13-1-1.2-9.822-.203-12.3a5.13 5.13 0 0 1 2.824-2.868c1.292-.554 2.73-.554 4.023-.018 2.694 1.1 4.005 4.18 2.934 6.88-.996 2.498-7.88 8.047-8.674 8.676l-.775.6zm4.54-15.465c-.553 0-1.1.1-1.605.333a4.08 4.08 0 0 0-2.215 2.257c-.683 1.683-.185 7.62.148 10.747 2.417-1.998 6.883-5.92 7.548-7.603.867-2.145-.185-4.587-2.307-5.438a4.21 4.21 0 0 0-1.57-.296zm-7.05-3.848l-.13-.98c-.13-1-1.2-9.823-.203-12.302.517-1.313 1.532-2.33 2.824-2.867 1.292-.555 2.73-.555 4.023-.018 2.73 1.146 4.023 4.162 2.934 6.88-.996 2.497-7.88 8.047-8.674 8.676l-.775.6zm4.54-15.465c-.553 0-1.1.1-1.605.333-1.015.426-1.8 1.24-2.215 2.257-.683 1.684-.184 7.622.148 10.748 2.417-1.998 6.884-5.92 7.548-7.603.867-2.146-.148-4.532-2.325-5.44-.5-.185-1.034-.296-1.55-.296zm-2.4 35.008l-.868-.463c-.886-.462-8.7-4.606-10.15-6.863-1.587-2.46-.923-5.68 1.532-7.307 2.454-1.6 5.72-.888 7.3 1.536 1.44 2.238 2.067 11.08 2.14 12.08l.056 1.018zm-10.095-7.936c.978 1.517 6.108 4.513 8.858 6.012-.258-3.127-.904-9.046-1.882-10.563-1.237-1.924-3.82-2.46-5.758-1.22-1.938 1.295-2.473 3.83-1.218 5.772z"/></g></svg>