<svg xmlns="http://www.w3.org/2000/svg" xmlns:xlink="http://www.w3.org/1999/xlink" width="41" height="40" fill="none" xmlns:v="https://vecta.io/nano"><g clip-path="url(#A)" fill="#7772f1"><path d="M38.787 22.035c1.446-2.292 2.2-4.93 2.2-7.66C40.996 6.45 34.547 0 26.62 0c-2.655 0-5.25.73-7.5 2.1a.781.781 0 1 0 .817 1.332c2.007-1.23 4.318-1.88 6.685-1.88a12.83 12.83 0 0 1 12.812 12.812c0 2.562-.754 5.035-2.18 7.15a.78.78 0 0 0 .022.904l.856 3.195-3.436-.92a.78.78 0 0 0-.655.118c-2.175 1.547-4.74 2.365-7.42 2.365a12.76 12.76 0 0 1-4.438-.791c-1-3.68-3.903-6.584-7.583-7.583a12.76 12.76 0 0 1-.791-4.438 12.78 12.78 0 0 1 1.919-6.749.781.781 0 1 0-1.328-.824 14.34 14.34 0 0 0-2.154 7.573c0 1.405.202 2.785.6 4.116a10.87 10.87 0 0 0-1.068-.053c-5.945 0-10.78 4.837-10.78 10.78a10.71 10.71 0 0 0 1.787 5.947l-.836 3.12a.78.78 0 0 0 .957.957l3.198-.857C7.805 39.443 9.76 40 11.777 40a10.75 10.75 0 0 0 5.776-1.676.781.781 0 1 0-.838-1.319 9.19 9.19 0 0 1-4.938 1.433 9.12 9.12 0 0 1-5.1-1.545.78.78 0 0 0-.636-.105l-2.225.596.58-2.162a.78.78 0 0 0-.119-.656C3.15 33 2.56 31.15 2.56 29.22A9.23 9.23 0 0 1 11.777 20a9.23 9.23 0 0 1 9.219 9.219 9.19 9.19 0 0 1-.555 3.158.781.781 0 1 0 1.468.535 10.77 10.77 0 0 0 .65-3.693 10.86 10.86 0 0 0-.053-1.068 14.32 14.32 0 0 0 4.115.6 14.28 14.28 0 0 0 8.02-2.443l4.394 1.177a.78.78 0 0 0 .957-.957l-1.204-4.493zm-8.14-5.995H22.7a.78.78 0 0 0-.781.781c0 2.625 2.135 4.76 4.76 4.76s4.76-2.135 4.76-4.76a.78.78 0 0 0-.781-.781zm-3.98 3.98c-1.494 0-2.75-1.03-3.1-2.416h6.202c-.35 1.387-1.607 2.416-3.1 2.416z"/><use xlink:href="#B"/><path d="M22.02 11.704a.78.78 0 0 0-1.075-.255l-.102.063a.78.78 0 0 0 .411 1.446c.14 0 .282-.038.4-.117l.1-.062a.78.78 0 0 0 .255-1.075z"/><use xlink:href="#C"/><path d="M12.33 28.666a.79.79 0 0 0-.552-.23c-.205 0-.407.084-.552.23a.79.79 0 0 0-.23.552c0 .205.084.407.23.552a.79.79 0 0 0 .552.23c.205 0 .407-.084.552-.23a.79.79 0 0 0 .23-.552c0-.205-.084-.407-.23-.552zm4.297 0a.79.79 0 0 0-.552-.23c-.205 0-.407.084-.552.23a.79.79 0 0 0-.23.552c0 .205.084.407.23.552a.79.79 0 0 0 .552.23c.205 0 .407-.084.552-.23a.79.79 0 0 0 .23-.552c0-.205-.084-.407-.23-.552zm3.497 6.266a.79.79 0 0 0-.552-.23c-.205 0-.407.084-.552.23a.79.79 0 0 0-.23.552c0 .205.084.407.23.552a.79.79 0 0 0 .552.23c.206 0 .407-.084.552-.23a.79.79 0 0 0 .23-.552c0-.205-.084-.407-.23-.552zM17.588 4.185c-.145-.145-.347-.228-.552-.228s-.407.083-.552.228a.79.79 0 0 0-.23.553.78.78 0 0 0 .23.552.79.79 0 0 0 .552.228c.206 0 .407-.083.552-.228a.79.79 0 0 0 .23-.552.79.79 0 0 0-.229-.553z"/></g><defs><clipPath id="A"><path fill="#fff" transform="translate(.996)" d="M0 0h40v40H0z"/></clipPath><path id="B" d="M32.755 11.704a.78.78 0 0 0-1.075-.255l-.102.063a.78.78 0 0 0 .411 1.446c.14 0 .282-.038.4-.117l.1-.062a.78.78 0 0 0 .255-1.075z"/><path id="C" d="M8.033 28.666c-.145-.145-.347-.23-.552-.23s-.407.084-.552.23-.23.347-.23.552.084.407.23.552.347.23.552.23.407-.084.552-.23.23-.347.23-.552-.084-.407-.23-.552z"/></defs></svg>