<svg xmlns="http://www.w3.org/2000/svg" width="41" height="40" fill="none" xmlns:v="https://vecta.io/nano"><g clip-path="url(#A)" fill="#7772f1"><path d="M20.996 9.375a10.54 10.54 0 0 0-4.397.95.781.781 0 0 0 .647 1.422 8.99 8.99 0 0 1 3.75-.81c4.997 0 9.063 4.065 9.063 9.063s-4.065 9.063-9.062 9.063-9.062-4.065-9.062-9.062a8.96 8.96 0 0 1 .998-4.139.781.781 0 1 0-1.389-.715 10.69 10.69 0 0 0-1.17 4.854 10.64 10.64 0 0 0 10.625 10.625A10.64 10.64 0 0 0 31.621 20 10.64 10.64 0 0 0 20.996 9.375zm19.46 9.585l-1.15-1.475c-.9-1.08-2.343-2.716-4.2-4.375-2.065-1.844-4.177-3.316-6.277-4.375-2.65-1.337-5.286-2.015-7.832-2.015-5.755 0-10.85 3.46-14.1 6.36-1.87 1.666-3.318 3.298-4.203 4.373a28.11 28.11 0 0 0-1.152 1.49c-.473.66-.536.812-.536 1.06 0 .26.07.395.54 1.04a30.85 30.85 0 0 0 1.149 1.475c.9 1.08 2.343 2.716 4.2 4.375 2.065 1.844 4.177 3.316 6.278 4.375 2.65 1.337 5.286 2.015 7.832 2.015 3.984 0 8.1-1.616 12.235-4.805a.781.781 0 1 0-.954-1.237c-3.855 2.972-7.65 4.48-11.28 4.48-5.14 0-9.796-3.13-12.797-5.753-2.847-2.5-4.83-5.04-5.495-5.975.642-.92 2.612-3.477 5.518-6.005 3-2.603 7.635-5.705 12.775-5.705s9.796 3.13 12.797 5.753c2.848 2.5 4.832 5.042 5.496 5.976-.44.632-1.494 2-3.015 3.605a.781.781 0 1 0 1.131 1.078 38.04 38.04 0 0 0 2.538-2.943c1.052-1.363 1.052-1.533 1.052-1.75 0-.26-.07-.395-.54-1.04zm-13.67-1.705a.78.78 0 0 0-1.462.139c-.16.62-.72 1.052-1.36 1.052a1.41 1.41 0 0 1-1.406-1.406c0-.642.433-1.202 1.054-1.362a.78.78 0 0 0 .142-1.462 6.35 6.35 0 0 0-2.755-.622c-3.532 0-6.406 2.874-6.406 6.406s2.874 6.406 6.406 6.406 6.406-2.874 6.406-6.406a6.35 6.35 0 0 0-.617-2.745zm-5.8 7.6A4.85 4.85 0 0 1 16.152 20a4.85 4.85 0 0 1 4.844-4.844c.215 0 .427.014.637.04a2.96 2.96 0 0 0-.64 1.842c0 1.637 1.332 2.97 2.97 2.97.686 0 1.327-.235 1.838-.637a4.91 4.91 0 0 1 .04.629 4.85 4.85 0 0 1-4.844 4.844zM20.996 0a.78.78 0 0 0-.781.781V5a.781.781 0 1 0 1.563 0V.78a.78.78 0 0 0-.782-.78z"/><path d="M34.383 2.3a.78.78 0 0 0-1.105 0l-3.7 3.7a.78.78 0 1 0 1.104 1.105l3.702-3.702a.78.78 0 0 0 0-1.105zM12.418 6L8.716 2.3a.781.781 0 1 0-1.105 1.105l3.702 3.702a.78.78 0 1 0 1.105-1.105zm8.578 28.22a.78.78 0 0 0-.781.781v4.22a.781.781 0 1 0 1.563 0V35a.78.78 0 0 0-.781-.781zm-8.578-1.327a.78.78 0 0 0-1.105 0L7.61 36.595A.78.78 0 1 0 8.715 37.7l3.702-3.702a.78.78 0 0 0 0-1.105zm21.964 3.704l-3.702-3.702A.781.781 0 1 0 29.576 34l3.702 3.702a.78.78 0 1 0 1.105-1.105zM14.774 12.305a.79.79 0 0 0-.552-.23c-.205 0-.407.084-.552.23a.79.79 0 0 0-.23.552c0 .205.084.407.23.552a.79.79 0 0 0 .552.23c.205 0 .407-.084.552-.23a.79.79 0 0 0 .23-.552c0-.205-.084-.407-.23-.552zm20.662 13.2c-.145-.145-.347-.228-.552-.228s-.407.083-.552.228a.79.79 0 0 0-.229.553.79.79 0 0 0 .781.782.78.78 0 0 0 .552-.23.79.79 0 0 0 .229-.552.79.79 0 0 0-.229-.553z"/></g><defs><clipPath id="A"><path fill="#fff" transform="translate(.996)" d="M0 0h40v40H0z"/></clipPath></defs></svg>