<svg xmlns="http://www.w3.org/2000/svg" width="495" height="584" fill="none" xmlns:v="https://vecta.io/nano"><style><![CDATA[.B{fill-rule:evenodd}.C{fill:#fff}.D{fill:#9a3b82}.E{fill:#73325a}.F{fill:#a0505a}.G{fill:#ffcf2d}.H{fill:#fe5244}]]></style><path d="M492.443 583.257l-155.258.434-60.212.31c-51.033 0-97.68-.66-133.357-1.753H0c0-39.734 27.92-22.28 35.282-15.267 8.56 8.15-2.463-35.235 15.014-35.235 14.96 0 23.52 11.78 23.52 11.78s.408-22.9 14.592-23.23 23.192 19.248 34.387 35.36c4.622 6.642 10.18 11.924 15.434 15.947 36.31-1.197 85.1-1.94 138.744-1.94l72.157.475c39.85 0 76.344-32.822 86.696-41.054 25.575-20.382 13.46 28.2 13.46 28.2S469 544.288 482.868 544.39c19.584.124 9.575 38.866 9.575 38.866z" fill="#d0f0e4"/><g class="B"><g class="G"><path d="M331.603 508.148l.778.348c20.12 9 28.6 27.48 32.062 43.6 1.73 8.067 2.212 15.57 2.26 21.054a99.34 99.34 0 0 1-.149 6.541l-.127 1.8-.06.628-.001.008-.001.003s0 .001-.6-.068l-.61-.068v-.001l.001-.007.003-.028.012-.115.04-.458c.035-.404.08-1 .125-1.766.09-1.533.17-3.746.147-6.458-.048-5.427-.524-12.842-2.234-20.805-3.374-15.723-11.528-33.476-30.576-42.373l-.134 1.697c-.12 1.63-.272 3.956-.392 6.734-.238 5.56-.35 12.923.154 20.156.34 4.876.96 9.664 1.995 13.79 2.865 1.133 5.353 2.392 7.41 3.666 3.183 1.97 5.405 4.022 6.34 5.75.465.86.675 1.766.346 2.56-.337.813-1.14 1.28-2.165 1.485h-.001c-2.64.524-4.89-.018-6.77-1.39-1.858-1.355-3.312-3.488-4.454-6.082-.674-1.528-1.247-3.234-1.733-5.067-5.572-2.13-12.56-3.775-20.56-4.094l.292.458a99.76 99.76 0 0 0 2.572 3.797c2.235 3.148 5.464 7.348 9.443 11.56 7.986 8.455 18.868 16.826 30.71 17.058l-.024 1.235c-12.365-.242-23.548-8.943-31.576-17.442-4.03-4.264-7.294-8.512-9.552-11.692-1.13-1.6-2.007-2.916-2.604-3.844l-.68-1.08-.175-.286-.044-.075-.012-.02-.004-.006c0-.001 0-.001.528-.317l-.528.316-.568-.96 1.1.026c8.233.196 15.475 1.78 21.31 3.912-.943-4.04-1.51-8.597-1.828-13.174-.51-7.298-.396-14.71-.156-20.296a222.88 222.88 0 0 1 .393-6.773l.153-1.908.045-.505.012-.13.004-.034v-.01c0-.001 0-.001.61.06l-.61-.06.083-.853zm3.088 45.7c.415 1.437.887 2.778 1.423 3.995 1.096 2.487 2.437 4.403 4.053 5.58 1.593 1.163 3.495 1.638 5.81 1.178.833-.166 1.158-.478 1.27-.748.12-.29.1-.772-.292-1.496-.78-1.44-2.777-3.352-5.904-5.288-1.788-1.108-3.922-2.21-6.36-3.222z"/><path d="M386.09 549.277c-.876.093-1.978.34-3.336.776-12.05 3.87-18.633 12.012-22.215 19.205-1.792 3.6-2.83 6.957-3.42 9.415a37.13 37.13 0 0 0-.585 2.921l-.112.794-.023.203c-.003.023-.004.04-.005.05l-.001.01-.001.003-.61-.056-.612-.057v-.006l.002-.016a1.31 1.31 0 0 1 .006-.059c.005-.052.014-.126.026-.223.023-.194.06-.476.117-.836.113-.72.3-1.755.604-3.02a45.97 45.97 0 0 1 3.516-9.678c3.688-7.408 10.497-15.833 22.94-19.83h.001c1.406-.45 2.593-.723 3.58-.828.98-.104 1.807-.048 2.462.202.68.26 1.157.725 1.4 1.364.232.61.227 1.32.086 2.06-.28 1.47-1.15 3.3-2.345 5.286-1.205 2.002-2.775 4.22-4.5 6.484-3.47 4.528-7.632 9.27-10.92 12.878l-4.09 4.4-1.194 1.248-.403.417-.028.028c-.001.001-.001.001-.44-.432l-.438-.434.027-.027c.018-.02.046-.047.082-.084l.317-.328 1.187-1.242 4.074-4.38c3.278-3.597 7.412-8.31 10.852-12.798 1.72-2.244 3.26-4.422 4.432-6.37 1.18-1.962 1.952-3.635 2.2-4.88.118-.62.09-1.072-.028-1.385-.108-.285-.31-.505-.69-.65-.403-.154-1.013-.222-1.896-.128z"/></g><g class="H"><path d="M122.274 485.043l-.42.294.42-.293.001.001.001.003.006.008.02.03.066.104.24.41a20.87 20.87 0 0 1 .833 1.717c.69 1.577 1.608 4.063 2.552 7.73 1.83 7.1 3.753 18.634 4.273 36.574l1.79-2.916c1.69-2.715 4.07-6.428 6.822-10.418 5.5-7.96 12.516-17.1 18.552-21.584l.865-.643-.05 1.08-.512-.024.512.025-.002.026a2.85 2.85 0 0 0-.003.078l-.016.304-.067 1.168-.303 4.3c-.287 3.637-.76 8.677-1.497 14.288-1.39 10.546-3.727 23.17-7.58 32.28.183-.115.38-.235.592-.36 1.307-.77 3.144-1.7 5.253-2.33 4.225-1.26 9.62-1.327 13.958 3.605 2.2 2.49 2.76 5.282 2.383 8.038-.373 2.733-1.676 5.424-3.214 7.776s-3.343 4.408-4.755 5.867a44.71 44.71 0 0 1-1.753 1.716l-.512.464-.138.12c-.016.013-.03.024-.037.03l-.01.01-.003.002c-.001.001-.001.001-.33-.393l-.306-.364-.024-.03h.002l.008-.006c.007-.007.018-.016.033-.03l.072-.063.058-.05a27.15 27.15 0 0 0 .495-.448 42.85 42.85 0 0 0 1.712-1.677c1.385-1.43 3.14-3.43 4.633-5.714 1.498-2.3 2.712-4.83 3.056-7.35.342-2.498-.17-4.98-2.136-7.215-3.976-4.52-8.892-4.495-12.9-3.3-2.007.6-3.767 1.488-5.027 2.23-.63.37-1.132.703-1.476.942a12.91 12.91 0 0 0-.392.281l-.1.074-.024.018-.006.004-.001.001-1.688 1.322.91-1.947c4.223-9.034 6.755-22.443 8.23-33.64.735-5.59 1.206-10.61 1.492-14.235l.3-4.282.027-.446c-5.686 4.576-12.218 13.088-17.444 20.665-2.74 3.974-5.1 7.672-6.795 10.377l-1.973 3.222-.527.882-.135.23-.035.06-.01.018-.001.001-.44-.26.44.26-.91 1.56-.042-1.8c-.44-18.895-2.423-30.87-4.287-38.11-.932-3.618-1.834-6.052-2.498-7.573-.293-.67-.54-1.164-.722-1.504-3.01 3.73-5.62 9.112-7.845 15.174-2.333 6.36-4.228 13.425-5.718 20.026s-2.57 12.725-3.28 17.2l-.79 5.328-.194 1.458-.048.38-.01.097-.004.03-.51-.06.51.06-.165 1.385-.77-1.16c-6.52-9.836-17.495-17.097-26.89-21.908-4.7-2.402-8.97-4.185-12.077-5.367a99.62 99.62 0 0 0-3.683-1.324l-.473-.157c5.03 19.21 16.035 34.74 25.866 45.52 5 5.472 9.672 9.714 13.105 12.587a103.66 103.66 0 0 0 4.093 3.265l1.123.83.29.207.074.052.018.012.004.003.001.001-.29.425-.3.424-.007-.005-.02-.014c-.018-.012-.044-.03-.078-.054l-.3-.214-1.14-.842c-.986-.744-2.403-1.848-4.134-3.297-3.46-2.897-8.178-7.17-13.204-12.683-10.05-11.02-21.36-27.012-26.334-46.863l-.22-.88.863.26-.147.493.147-.493.006.002.018.005.07.02.267.084 1.017.333c.88.297 2.154.742 3.72 1.338a123.07 123.07 0 0 1 12.179 5.412c9.094 4.658 19.78 11.653 26.514 21.143l.087-.65.793-5.35c.712-4.49 1.798-10.64 3.294-17.266s3.4-13.738 5.756-20.155c2.35-6.407 5.164-12.163 8.5-16.043l.43-.503.377.545z"/><path d="M121.362 486.68c0-.001 0-.001.512-.003l.512-.002.001.237.002.692.004 2.638-.01 9.493-.288 29.534-.988 31.55c-.246 4.623-.538 8.732-.887 12.023-.346 3.274-.753 5.79-1.24 7.19l-.966-.34c.443-1.272.84-3.673 1.19-6.957.346-3.265.637-7.355.883-11.97.49-9.228.797-20.535.986-31.512l.288-29.52.004-13.052z"/><path d="M156.108 499c0-.001 0-.001.477.186l.477.187-.018.046-.26.67-.8 2.04-2.962 7.4-9.912 23.667c-3.913 9-8.254 18.55-12.468 26.94-4.2 8.38-8.3 15.634-11.742 20.022l-.805-.636c3.365-4.302 7.426-11.475 11.633-19.85 4.203-8.365 8.535-17.895 12.444-26.887l9.9-23.643 2.96-7.402.8-2.036.26-.668.018-.045zm-15.748 57.878c-.9 1.14-1.222 2.1-1 2.812.13.414.287.537.38.576.1.042.288.052.6-.097.656-.304 1.513-1.1 2.416-2.2a27.65 27.65 0 0 0 2.486-3.627c.54-.933.97-1.8 1.24-2.512l-2.445 1.672c-1.48 1.096-2.808 2.26-3.688 3.375zm6.926-5.538c1.917-1.165 3.654-2.037 4.52-2.36l-.357-.965c-1.458.545-4.992 2.425-8 4.66-1.5 1.118-2.92 2.346-3.883 3.564-.94 1.192-1.56 2.514-1.177 3.757v.002c.177.57.483 1.02.967 1.22.477.198.983.093 1.43-.114.882-.408 1.863-1.366 2.777-2.477.93-1.13 1.844-2.485 2.583-3.767.735-1.274 1.318-2.513 1.56-3.407l-.413-.113zm-42.92 5.453c.228.45.454.572.653.58h.001c.65.026 1.073-.084 1.346-.247.26-.156.426-.386.518-.7.2-.698.03-1.77-.418-3.075-.633-1.846-1.724-3.902-2.606-5.527l-.036.518c-.157 2.367-.196 4.705.027 6.448.112.877.285 1.56.515 2.012zm-1.392-10.688l-.026.014.02.04-.167 2.104c-.158 2.383-.203 4.803.033 6.65.118.918.3 1.738.62 2.348s.8 1.112 1.525 1.14c.77.03 1.4-.092 1.9-.4.512-.307.825-.77.98-1.3.293-1.03.02-2.37-.435-3.694-.714-2.083-1.997-4.44-2.9-6.118l-.507-.938.468-4.105.3-2.136.092-.598.025-.156.007-.04.002-.013-1-.168-.003.015-.006.04-.026.16-.093.605-.303 2.155-.496 4.395z"/></g></g><path d="M268.093 512.48c-13.926 6.857-12.615 20.016-12.738 28.85-.143 9.41-18 14.333-18 14.333 4.752-15.053 1.373-30.56 1.373-30.56l29.366-12.623z" class="F"/><path d="M282.858 547.137l-3.174 1.73-6.656-15.3a2.11 2.11 0 0 0-1.925-1.277c-.266 0-.553.062-.82.165-.676.288-1.167.927-1.25 1.668l-2.93 22.18-38.52 21.087c-1.146-2.76 6-9.678 9.79-21.725 0 0 17.878-4.922 18-14.333.123-8.835-1.168-22.014 12.737-28.85l2.93-1.256c15.973 7.393 11.816 35.914 11.816 35.914z" class="G"/><path d="M271.022 402.574v108.65l-31.864 13.9-23.878-109.082c10.7.412 28.506-1.853 55.742-13.468z" class="C"/><g class="B D"><path d="M271.534 401.797V511.56l-32.742 14.284-24.154-110.343.662.026c10.596.408 28.336-1.834 55.522-13.428l.712-.303zm-55.612 14.782l23.602 107.824 30.986-13.517V403.35c-26.34 11.14-43.837 13.522-54.588 13.228z"/><path d="M253.37 518.69l-6.287-106.528 1.022-.06 6.287 106.528-1.022.06z"/></g><path d="M271.022 402.574v28.44l-54.227-7.887-1.515-7.084c10.7.412 28.506-1.853 55.742-13.468z" class="D"/><path d="M431.616 328.85l-20.602 4.366c-.696.144-1.392-.083-1.884-.597-.348-.392-.532-.865-.532-1.36a1.96 1.96 0 0 1 .635-1.462l11.468-10.81-2.54-2.286s-26.622 5.25-28.137 21.952l2.027 2.224c10.465 10.338 21.748 5.004 29.633 2.327 7.536-2.553 16.526 9.205 18.307 11.635h.082c11.878-.39 20.294 3.85 22.363 1.936l-30.82-27.924z" class="G"/><path d="M392.072 340.877c10.464 10.338 21.748 5.004 29.632 2.327 8.396-2.842 18.4 11.635 18.4 11.635-14.867.474-27.543 8.402-27.543 8.402l-20.5-22.364z" class="F"/><path d="M264.86 403.5s5.18 35.194 44.93 34.535 102.352-75 102.352-75l-22.015-24.26L264.86 403.5z" class="C"/><g class="B D"><path d="M390.24 338.14l22.58 24.883-.29.346-.4-.333.4.334-.01.013-.035.04-.136.16-.534.624-2.058 2.365-7.645 8.44c-6.497 6.987-15.575 16.31-25.9 25.658s-21.9 18.722-33.395 25.806c-11.482 7.078-22.944 11.906-33.02 12.073-20.056.333-31.44-8.393-37.794-17.233-3.17-4.4-5.08-8.838-6.198-12.163-.56-1.663-.922-3.052-1.145-4.027a27.19 27.19 0 0 1-.236-1.137l-.054-.304-.013-.08-.003-.02-.001-.006v-.002c0-.001 0-.001.506-.076l-.506.075-.054-.365 125.94-65.072zm-124.813 65.647c.05.267.123.637.23 1.1.216.947.57 2.302 1.117 3.928 1.094 3.254 2.963 7.583 6.058 11.9 6.175 8.59 17.255 17.133 36.947 16.807 9.798-.163 21.068-4.874 32.502-11.92 11.422-7.04 22.948-16.372 33.245-25.694s19.353-18.624 25.836-25.596l7.626-8.42 2.05-2.356.417-.488-21.446-23.632-124.584 64.372z"/><path d="M337.06 405.72c-8.012 3.886-15.815 6.314-22.922 6.43-9.505.156-15.898-1.965-20.09-5.368s-6.114-8.04-6.782-12.764l1.014-.145c.642 4.544 2.47 8.91 6.41 12.108s10.074 5.293 19.43 5.14h0c6.9-.112 14.55-2.475 22.494-6.328s16.138-9.174 24.13-15.173c15.982-11.997 31.09-26.663 41.545-37.548l.736.716c-10.473 10.902-25.623 25.613-41.67 37.658-8.023 6.022-16.28 11.386-24.297 15.275z"/></g><g class="H"><path d="M438.352 266.99c-3.625-1.38-12.246 3.357-18.738 11.594-6.983 8.835-9.81 18.225-6.737 20.676l-98.358-52.595c-4.833-2.574-10.403 1.833-9.03 7.146l29.775 113.427c-100.856 65.815-133.19 46.087-133.19 46.087V40.59c0 .02 0 .02.02.04.86 2.203 10.096.66 20.643-3.48 9.706-3.79 17.12-8.443 17.6-10.873l.02-.02v117.442c0 7.373 3.952 14.148 10.342 17.752l187.664 105.54z"/><path d="M438.352 266.99c-3.625-1.38-12.246 3.357-18.738 11.594-6.983 8.835-9.81 18.225-6.737 20.676l-98.358-52.595c-4.833-2.574-10.403 1.833-9.03 7.146l29.775 113.88c-25.64 16.742-46.854 27.49-64.24 34.905-27.237 11.594-45.053 13.88-55.743 13.468-9.317-.35-13.208-2.74-13.208-2.74V40.59c0 .02 0 .02.02.04.86 2.203 10.096.66 20.643-3.48 9.706-3.79 17.12-8.443 17.6-10.873l.02-.02v117.442c0 7.373 3.952 14.148 10.342 17.752l187.664 105.54z"/></g><path d="M296.735 237.226c.16-.3.534-.41.833-.25l115.6 63.056a.62.62 0 0 1 .247.838.61.61 0 0 1-.833.248l-115.6-63.056a.62.62 0 0 1-.247-.837z" class="B C"/><path d="M253.432 162.973l-12.963 75.762 66.166-45.82-53.203-29.942z" class="G"/><g class="C"><path d="M253.536 162.365c.334.057.56.377.5.713l-12.715 74.317 64.964-44.988c.28-.194.662-.123.855.158a.62.62 0 0 1-.158.86l-67.367 46.65 13.2-77.207c.058-.337.376-.562.7-.504z" class="B"/><path d="M252.9 16.743L167.484 34.35c-3.154.66-6.4-2.162-7.25-6.302s1.045-8.01 4.2-8.67L249.848 1.77l3.05 14.97z"/></g><path d="M250.247 1.162l3.256 15.98-85.915 17.7m-.001 0c-1.765.368-3.524-.245-4.93-1.466s-2.484-3.065-2.924-5.237c-.87-4.287 1.052-8.536 4.595-9.277h.002l85.917-17.7m-.798 1.215L164.537 19.88c-2.765.578-4.6 4.072-3.8 8.063.4 1.968 1.37 3.603 2.6 4.663s2.665 1.527 4.054 1.237h.001l84.914-17.504-2.846-13.963z" fill="#3fb1b5" class="B"/><path d="M252.87 16.755c3.158-.65 5.034-4.53 4.192-8.663s-4.085-6.957-7.243-6.306-5.034 4.53-4.192 8.663 4.086 6.957 7.243 6.306z" class="C"/><path d="M246.682 5.038c-.705 1.457-.955 3.343-.554 5.31s1.368 3.6 2.586 4.66 2.66 1.53 4.052 1.244 2.534-1.3 3.24-2.746.955-3.343.554-5.31-1.368-3.6-2.587-4.66-2.66-1.53-4.05-1.244-2.534 1.3-3.24 2.746zm-.92-.45c.813-1.68 2.187-2.94 3.954-3.304s3.524.252 4.927 1.474 2.478 3.065 2.92 5.233.175 4.288-.637 5.966-2.186 2.94-3.953 3.304-3.524-.252-4.928-1.474-2.478-3.065-2.92-5.233-.175-4.288.637-5.966z" fill="#3fb1b5" class="B"/><path d="M204.162 24.237s-27.626 31.22-24.616 38.097c3.932 3.933 7.127 5.663 6.656 7.125-.512 1.586-7.127 11.162-7.127 11.162l-.655-7.105-6.328 2.1s6.676-9.802 7.106-12.81c-2.744-2.1-8.334-6.466-8.15-9.514.205-3.233 9.993-14.724 17.1-22.652l-10.7 3.563-2.11-9.946 19.27-3.563 9.564 3.542z" class="H"/><path d="M200.413 25.597c3.212 0 5.816-2.62 5.816-5.85s-2.604-5.848-5.816-5.848-5.816 2.618-5.816 5.848 2.604 5.85 5.816 5.85z" class="C"/><path d="M200.413 14.414c-2.93 0-5.304 2.388-5.304 5.334s2.375 5.334 5.304 5.334 5.304-2.388 5.304-5.334-2.374-5.334-5.304-5.334zm-6.328 5.334c0-3.514 2.834-6.363 6.328-6.363s6.328 2.85 6.328 6.363-2.833 6.363-6.328 6.363-6.328-2.85-6.328-6.363z" class="B H"/><path d="M240.327 26.277c-.47 2.43-7.884 7.084-17.59 10.873-10.547 4.12-19.782 5.684-20.642 3.48 0-.02-.001-.02-.02-.04-.737-2.224 7.086-7.31 17.57-11.41 10.546-4.12 19.782-5.684 20.642-3.48.06.165.082.35.04.577z" class="D"/><path d="M233.22 8.98l-1.127 16.35-.532 7.825c-2.56 1.36-5.57 2.718-8.826 3.995-5.53 2.162-10.7 3.604-14.48 4.2v-14.95L223.8 23.2s.86-5.58 2.498-10.255c1.618-4.695 6.922-3.954 6.922-3.954z" class="F"/><g class="E"><path d="M224.325 22.1c.22.054.355.277.3.498-.038.156-.13.28-.21.37a2.32 2.32 0 0 1-.304.27c-.225.172-.524.36-.855.565l-.298.183-2.063 1.356c-1.694 1.257-3.24 2.926-3.24 5.2a.41.41 0 1 1-.82 0c0-2.678 1.833-4.56 3.574-5.853.753-.56 1.512-1.023 2.128-1.4l.29-.18.788-.52c.094-.072.156-.128.194-.17a.25.25 0 0 0 .027-.032.41.41 0 0 1 .488-.279z" class="B"/><path d="M232.093 25.33l-.533 7.825c-2.56 1.36-5.57 2.718-8.826 3.995-5.53 2.162-10.7 3.604-14.48 4.2v-6.754c3.03-1.792 6.984-3.686 11.387-5.416 4.587-1.812 8.928-3.13 12.45-3.85z"/></g><path d="M221.916 17.154L204.57 21.15c-.922.206-1.782-.535-1.782-1.565V9c0-1.42.86-2.657 2.11-3.068L222.04.31c1.085-.35 2.17.515 2.17 1.73v12.068c-.02 1.462-.962 2.74-2.293 3.048z" class="F"/><path d="M209.653 4.783a.41.41 0 0 1-.274.513c-1.117.34-1.88 1.372-1.88 2.55V18c0 .726.66 1.25 1.347 1.1a.41.41 0 0 1 .487.315c.048.222-.092.442-.313.5-1.197.262-2.34-.655-2.34-1.906V7.847c0-1.54 1-2.895 2.462-3.34a.41.41 0 0 1 .511.275zm4.997-1.525a.41.41 0 0 1-.274.513c-1.107.336-1.88 1.404-1.88 2.633v10.46c0 .758.67 1.3 1.346 1.142a.41.41 0 0 1 .488.315c.048.222-.093.442-.314.5-1.208.264-2.34-.687-2.34-1.947V6.404c0-1.572 1-2.975 2.462-3.422a.41.41 0 0 1 .51.275zm5.588-1.715a.41.41 0 0 1-.266.517c-1.105.353-1.885 1.46-1.885 2.738V15.63c0 .8.682 1.328 1.346 1.183a.41.41 0 0 1 .487.315c.048.222-.092.442-.313.5-1.22.267-2.34-.72-2.34-1.988V4.798c0-1.605.98-3.052 2.456-3.523a.41.41 0 0 1 .514.268z" class="B E"/><path d="M430.734 287.458c-6.983 8.855-14.806 14.23-17.878 11.78s-.246-11.82 6.737-20.675c6.513-8.238 15.113-12.974 18.738-11.594l.717.412c3.092 2.47-1.33 11.244-8.314 20.078z" class="D"/><path d="M462.332 302.348l-4.648 2.47c-1.843.99-4.137.288-5.12-1.565l-4.894-9.143-7.413-2.554c.82.31 4.013 1.956 3 7.95l-23.386-8.773-5.673-3.645c1.33-2.718 3.154-5.642 5.427-8.505 1.904-2.41 3.973-4.51 6.04-6.24l5.918 4.16 6.062.66 9.85 1.05c1.577.165 3.092.7 4.423 1.544l7.864 5.622c1.147.824 1.904 2.06 2.09 3.46l1.597 11.244a2.19 2.19 0 0 1-1.147 2.265z" class="F"/><path d="M450.552 283.8a.41.41 0 0 1 .571-.097l6.82 4.88a4.94 4.94 0 0 1 2 3.28l1.394 9.1c.124.968-.345 1.922-1.222 2.375a.41.41 0 0 1-.552-.178c-.103-.202-.024-.45.177-.554.556-.288.865-.896.786-1.533l-1.392-9.077c-.168-1.108-.766-2.1-1.655-2.733l-6.82-4.88c-.184-.13-.227-.4-.096-.574zm-4.222 1.63a.41.41 0 0 1 .571-.097l6.82 4.88c1.077.768 1.8 1.96 2 3.28l1.394 9.1c.123.968-.346 1.922-1.223 2.375a.411.411 0 1 1-.374-.732c.555-.288.864-.896.785-1.533l-1.392-9.077c-.168-1.108-.765-2.1-1.655-2.733h0l-6.82-4.88c-.184-.132-.227-.4-.096-.574zm-11.418 4.285a.41.41 0 0 1 .52-.258l4.955 1.7c.214.073.33.307.257.522a.41.41 0 0 1-.52.258l-4.955-1.688c-.214-.073-.33-.307-.257-.523z" class="B E"/><path d="M437.656 277.163c-1.66 3.15-4.075 6.734-6.9 10.317-1.618 2.038-3.257 3.892-4.895 5.498l-5.98-2.245-5.673-3.645c1.33-2.718 3.154-5.642 5.427-8.505 1.904-2.41 3.973-4.51 6.04-6.24l5.918 4.16 6.062.66z" class="E"/><path d="M258.837 108l43.803 19.543 15.625 45.964-31.74-22.817-14.806-18.184L258.837 108z" class="H"/><path d="M271.72 132.496s14.335 2.47 20.1 18.534l3.05-3.09s-5.55-15.63-20.212-19.646l-2.95 4.2z" class="D"/><path d="M357.153 152.45c-4.915-2.8-9.46-4.345-10.915-3.79.102-.247.164-.535.143-.823-.082-.907-.82-1.586-1.7-1.586h-.143c-.942.082-1.638.906-1.577 1.853 0 .062.02.124.02.165l-5.202 3.357c-1.167.762-2.6.803-3.83.123s-1.946-1.915-1.946-3.315v-7.517c0-3.274-1.617-6.3-4.34-8.113s-6.144-2.1-9.134-.824l-9.91 4.448-3.768-11.1-44.03-19.625c-.266-.124-.594 0-.716.288-.123.268 0 .597.286.72l43.578 19.44 15.543 45.737c.082.227.287.37.512.37.062 0 .123-.02.185-.02.286-.103.43-.412.348-.7l-11.57-34.06 9.993-4.49c2.662-1.153 5.693-.886 8.09.72 2.416 1.606 3.85 4.283 3.85 7.207v7.517c0 1.812.942 3.418 2.52 4.283a4.77 4.77 0 0 0 2.334.618c.9 0 1.802-.268 2.6-.783l5.16-3.315c.307.288.716.453 1.146.453h.144c.368-.02.696-.165.942-.39 0 1.462 3.727 4.736 8.847 7.66a44.84 44.84 0 0 0 3.256 1.709c.634-.535 1.167-1.173 1.597-1.935a6.67 6.67 0 0 0 .819-2.368l-3.133-1.916zm-12.43-3.624c-.47.04-.86-.31-.9-.762s.308-.865.758-.906.86.31.9.762-.307.865-.758.906z" class="G"/><path d="M268.872 159.574l-7.577 42.38 25.823-20.016v-26.42l-18.246 4.056z" class="F"/><path d="M268.872 159.574l-.942 5.313 11.427 23.065 7.76-6.013v-26.42l-18.246 4.056z" class="E"/><path d="M272.147 132.928s-12.922-3.233-16.956 4.304 7.76 9.617 8.253 6.98c.225-1.154-21.236-1.133-17.632 15.197 3.747 17 20.642 11.162 20.642 11.162l1.966-10.997 3.727-26.647z" class="C"/><path d="M272.246 132.528c.001 0 .001 0-.098.4l.1-.4.358.09-3.78 27.023-2 11.242-.227.08-.133-.39.133.39-.001.001-.003.001-.01.003-.04.013-.15.048-.557.16-2.002.438c-1.67.287-3.943.49-6.344.152s-4.947-1.228-7.132-3.137-3.984-4.817-4.937-9.142c-.92-4.174-.248-7.355 1.324-9.742 1.565-2.376 3.986-3.917 6.477-4.886.9-.354 1.834-.634 2.735-.85-.68-.526-1.254-1.182-1.612-1.978-.6-1.355-.56-3.035.494-5.006 2.126-3.972 6.568-5.06 10.337-5.195 1.9-.068 3.666.104 4.956.29.646.094 1.174.193 1.542.268l.426.09.143.034.008.002h.003v.001zm-15.327 12.12c-1.1.226-2.272.548-3.4.99-2.396.933-4.65 2.387-6.09 4.572-1.43 2.174-2.088 5.12-1.207 9.1.92 4.18 2.64 6.92 4.675 8.698s4.42 2.62 6.708 2.943 4.475.13 6.09-.148a21.37 21.37 0 0 0 1.928-.422c.2-.054.363-.102.48-.138l1.92-10.744 3.674-26.264-.187-.04a26.76 26.76 0 0 0-1.496-.259c-1.258-.183-2.974-.35-4.8-.283-3.7.132-7.736 1.197-9.645 4.762-.962 1.797-.95 3.204-.47 4.276.388.86 1.102 1.556 1.975 2.078 1.16-.22 2.254-.342 3.2-.388.978-.048 1.81-.02 2.402.064a3.19 3.19 0 0 1 .739.175c.093.04.202.095.29.182.095.093.198.26.157.475-.094.5-.45.843-.88 1.058s-.976.327-1.564.358c-1.18.06-2.64-.2-3.95-.793-.18-.08-.36-.17-.534-.264zm1.456-.25a21.96 21.96 0 0 1 1.923-.182c.946-.047 1.724-.017 2.25.057.167.023.298.05.397.075-.07.09-.18.18-.343.262-.294.146-.72.245-1.242.272-.876.046-1.953-.112-2.984-.484z" class="B D"/><path d="M286.912 157.31s-19.29 25.29-2.334 36.038c13.597 8.608 17.1-3.52 13.454-5.19-3.952-1.812-13.024 32.372 14.908 32.27 27.994-.103 19.434-35.255 5.325-46.91-6.738-5.56-29.223-21.108-29.223-21.108l-2.13 4.9z" class="C"/><path d="M289.274 152.07l-.232.34.232-.34.98.68 2.64 1.838 8.47 5.954c6.46 4.58 13.78 9.866 17.16 12.658 7.152 5.908 12.868 17.723 13.276 28.1.205 5.19-.92 10.073-3.92 13.67-3 3.607-7.85 5.855-14.938 5.88-7.07.026-11.858-2.12-14.967-5.38-3.1-3.25-4.484-7.558-4.854-11.77a29.88 29.88 0 0 1 .218-6.874c-2.344.055-5.33-.807-8.98-3.118h0c-4.344-2.755-6.382-6.458-6.975-10.454-.6-3.976.253-8.218 1.616-12.082 1.365-3.87 3.26-7.393 4.813-9.946.777-1.278 1.47-2.315 1.967-3.033l.59-.83.16-.217.026-.036 2.31-5.313.41.283zm4.903 44.684c-.326 2.128-.45 4.487-.24 6.862.36 4.094 1.698 8.2 4.63 11.274 2.923 3.064 7.477 5.152 14.373 5.126 6.91-.025 11.495-2.21 14.313-5.587 2.827-3.388 3.93-8.042 3.73-13.108-.4-10.15-6.02-21.738-12.977-27.486-3.355-2.768-10.647-8.036-17.114-12.62l-8.464-5.95-2.64-1.837-.57-.396-1.95 4.5-.03.04-.216-.167.216.167-.001.001-.002.003-.01.013c-.01.01-.022.03-.04.052l-.155.21a35.67 35.67 0 0 0-.578.813c-.5.706-1.173 1.73-1.94 3-1.535 2.525-3.4 5.995-4.74 9.792s-2.14 7.897-1.578 11.686c.56 3.77 2.468 7.257 6.602 9.878 3.656 2.314 6.518 3.082 8.677 2.985.235-1.338.546-2.577.904-3.664.492-1.495 1.08-2.73 1.688-3.54.304-.404.632-.73.98-.92.36-.197.764-.257 1.155-.078 1.122.513 1.618 1.788 1.588 3.11-.03 1.34-.592 2.844-1.726 4.003-.935.954-2.226 1.65-3.886 1.858zm.144-.855c.222-1.21.51-2.33.834-3.32.477-1.453 1.03-2.592 1.564-3.302.268-.358.513-.58.717-.692.193-.105.323-.1.426-.052h0c.7.32 1.134 1.188 1.108 2.34-.026 1.135-.506 2.438-1.49 3.444-.734.75-1.776 1.355-3.158 1.58z" class="B D"/><path d="M286.34 150.967l1.454.927a3.07 3.07 0 0 1 .942 4.201l-.287.433c-.9 1.42-2.764 1.853-4.177.947l-1.557-.99c-1.72 1.236-12.06 8.176-18.45 1.277-6.205-6.693 8.13-26.277 8.13-26.277 12.164 3.83 16.915 14.704 16.915 14.704l-2.97 4.777z" class="F"/><path d="M268.017 135.8a.41.41 0 0 1 .526-.243l-.143.386.144-.385h.001l.003.001.01.004.033.013.117.05.402.194c.328.173.764.437 1.193.8.854.724 1.72 1.887 1.535 3.53-.167 1.478-1 3.337-1.674 4.885l-.07.16-.85 2.08c-.1.28-.14.498-.15.655-.007.105.004.15.008.16.304.328.662.527.95.644a2.63 2.63 0 0 0 .356.118l.098.022.022.004h.004a.412.412 0 1 1-.123.814l.06-.407-.06.407h-.002l-.005-.001-.054-.01-.14-.032a3.67 3.67 0 0 1-.462-.152 3.47 3.47 0 0 1-1.257-.86c-.207-.226-.23-.53-.213-.77.02-.255.1-.546.2-.85.197-.6.53-1.366.88-2.162l.04-.087c.7-1.605 1.5-3.367 1.64-4.716.143-1.26-.506-2.178-1.25-2.808-.37-.314-.753-.545-1.045-.7l-.35-.17-.095-.04-.023-.01h-.005m-.24-.53c-.08.213.03.45.24.53zm-.438 15.236l-.2.36v.001l.003.001.007.004c.006.004.015.008.026.014l.095.05.35.16a9.79 9.79 0 0 0 1.285.441 10.58 10.58 0 0 0 4.393.241.41.41 0 1 0-.126-.813 9.77 9.77 0 0 1-4.055-.222c-.503-.136-.904-.288-1.176-.404l-.308-.142-.076-.04-.02-.01a.41.41 0 0 0-.557.16c-.1.198-.04.45.16.56l.2-.36z" class="B E"/><path d="M278.287 146.907c.3-.765.2-1.513-.22-1.67s-.98.334-1.27 1.1-.2 1.514.22 1.672.98-.334 1.27-1.1zm-9.454-4.363c.242-.637.155-1.262-.193-1.396s-.828.275-1.07.912-.154 1.263.194 1.397.828-.275 1.07-.913z" class="E"/><path d="M287.715 154.26a1.51 1.51 0 0 0-2.097.471c-.12.192-.374.248-.565.126s-.247-.377-.126-.57c.695-1.097 2.135-1.422 3.228-.723.2.122.247.377.126.568a.41.41 0 0 1-.566.127zm-10.395-12.895a.41.41 0 0 1 .502-.29l-.107.398.108-.398h.001l.012.004.027.008.095.03.33.13a6.3 6.3 0 0 1 1.07.599c.837.58 1.84 1.552 2.522 3.128.1.2-.005.45-.213.542a.41.41 0 0 1-.539-.214c-.6-1.4-1.5-2.27-2.234-2.777a5.52 5.52 0 0 0-.93-.521l-.272-.107-.068-.022-.017-.005c-.217-.06-.346-.286-.287-.505z" class="B E"/><path d="M281.444 136.47s-2.723 9.08 5.08 15.28c4.587 3.645 4.853-.74 4.853-.74s-.594-8.917-9.932-14.54z" class="C"/><path d="M281.204 135.846l.45.27c4.753 2.86 7.287 6.567 8.63 9.562.67 1.496 1.045 2.814 1.252 3.76.103.473.165.855.2 1.12.018.132.03.235.036.307.004.035.006.063.008.082.001.01.001.018.002.023v.01s0 .001-.408.028l.408.026v.006l-.005.057c-.004.037-.01.088-.02.152a4.11 4.11 0 0 1-.103.497c-.105.385-.306.898-.7 1.292-.412.412-1.005.662-1.803.54-.772-.117-1.715-.575-2.887-1.506-4.007-3.184-5.316-7.118-5.62-10.248a16.74 16.74 0 0 1 .085-3.897c.07-.487.147-.878.21-1.148a8.1 8.1 0 0 1 .076-.313l.023-.084.007-.023.002-.006v-.003s.001 0 .393.118l-.392-.118.15-.506zm.505 1.27c-.05.24-.1.552-.162.927-.13.924-.225 2.22-.08 3.702.286 2.96 1.516 6.667 5.31 9.68 1.122.892 1.932 1.252 2.5 1.338.54.082.875-.082 1.103-.3.247-.248.4-.603.487-.926a3.53 3.53 0 0 0 .083-.397c.007-.05.01-.09.014-.115a.84.84 0 0 0-.005-.068c-.006-.062-.016-.156-.033-.278a13.54 13.54 0 0 0-.189-1.055c-.197-.9-.555-2.163-1.2-3.6-1.242-2.768-3.55-6.184-7.83-8.9zm9.668 13.892l.408.025.002-.026-.002-.026-.408.027z" class="B D"/></svg>