<svg width="48" height="48" viewBox="0 0 48 48" fill="none" xmlns="http://www.w3.org/2000/svg">
<g clip-path="url(#clip0)">
<path d="M47.2439 1.61044C47.2231 1.40157 47.1326 1.20019 46.9768 1.04316L46.9668 1.03304C46.8089 0.873757 46.6047 0.780851 46.3927 0.759945C41.4092 -0.373586 36.1825 -0.23043 31.2684 1.17554C26.3112 2.59369 21.764 5.27044 18.1181 8.91629L17.494 9.54047H8.94406C8.69543 9.54047 8.45702 9.63929 8.28115 9.81507L0.274618 17.8215C-0.0914753 18.1876 -0.0914753 18.7813 0.274618 19.1475L4.08077 22.9538L3.23084 23.8037C2.86474 24.1698 2.86474 24.7635 3.23084 25.1297L6.47984 28.3787L3.92918 32.8933C3.72209 33.26 3.78481 33.7197 4.08256 34.0175L5.26784 35.2028C3.28146 37.4014 1.83659 40.0503 1.07121 42.9203L0.0317122 46.8175C-0.0545378 47.1408 0.0379934 47.4855 0.274618 47.7221C0.452743 47.9002 0.692181 47.9967 0.937618 47.9967C1.01806 47.9967 1.09934 47.9864 1.17912 47.965L5.07631 46.9255C7.94627 46.1602 10.5953 44.7153 12.794 42.7287L13.9768 43.9116C14.1574 44.092 14.3973 44.1862 14.64 44.1862C14.7977 44.1862 14.9565 44.1464 15.1009 44.0649L19.6156 41.5144L22.8741 44.7729C23.0572 44.9558 23.2971 45.0474 23.537 45.0474C23.7769 45.0474 24.0168 44.9558 24.1999 44.7729L25.0499 43.9228L28.8418 47.7148C29.0177 47.8906 29.2561 47.9894 29.5047 47.9894C29.7534 47.9894 29.9918 47.8906 30.1676 47.7148L38.1741 39.7084C38.3499 39.5325 38.4487 39.2941 38.4487 39.0455V30.524L39.0871 29.8855C42.7329 26.2397 45.4096 21.6924 46.8279 16.7353C48.2343 11.8209 48.3775 6.59391 47.2439 1.61044ZM2.26352 18.4844L9.33246 11.4156H15.6188L7.12249 19.9119C7.12231 19.9121 7.12203 19.9123 7.12184 19.9126C7.12165 19.9129 7.12146 19.9131 7.12118 19.9133L5.40677 21.6278L2.26352 18.4844ZM4.59321 45.1137L2.2609 45.7358L2.88293 43.4034C3.56346 40.8518 4.84062 38.4942 6.59524 36.5299L11.4666 41.4012C9.50234 43.156 7.14481 44.4333 4.59321 45.1137ZM14.7991 42.0818L13.5496 40.8323C13.5281 40.8053 13.5051 40.7792 13.4801 40.7542C13.4552 40.7292 13.429 40.7063 13.4021 40.6848L7.31206 34.5948C7.29049 34.5678 7.26752 34.5416 7.24259 34.5166C7.21765 34.4917 7.1914 34.4688 7.16449 34.4472L5.91246 33.1953L7.85609 29.7548L18.2396 40.1383L14.7991 42.0818ZM36.5741 38.6572L29.5052 45.7261L26.3762 42.597L36.5741 32.3992V38.6572ZM37.7618 28.5597L24.3882 41.9332C24.388 41.9334 24.3876 41.9337 24.3873 41.934C24.387 41.9343 24.3867 41.9347 24.3865 41.9349L23.5374 42.784L20.4382 39.6848L20.4381 39.6848L8.30965 27.5564C8.30946 27.5562 8.30918 27.556 8.30899 27.5558L5.21974 24.4666L7.78484 21.9015L20.2973 34.4139C20.4804 34.5969 20.7203 34.6885 20.9602 34.6885C21.2001 34.6885 21.44 34.5969 21.6231 34.4139C21.9892 34.0479 21.9892 33.4541 21.6231 33.0879L9.11074 20.5755L19.4441 10.2421C26.323 3.3631 36.03 0.487695 45.5166 2.48738C47.5161 11.9739 44.6407 21.6807 37.7618 28.5597Z" fill="#7772F1"/>
<path d="M34.936 19.0596C34.4184 19.0596 33.9985 19.4794 33.9985 19.9972L33.9981 20.0566C33.9939 20.5744 34.4102 20.9975 34.928 21.0017C34.9306 21.0017 34.9332 21.0018 34.9359 21.0018C35.45 21.0018 35.869 20.5869 35.8733 20.0717L35.8736 19.9972C35.8736 19.4794 35.4538 19.0596 34.936 19.0596Z" fill="#7772F1"/>
<path d="M34.4645 22.6816C34.0173 22.4203 33.4432 22.5711 33.182 23.0182C32.1086 24.8557 30.1217 25.9971 27.9966 25.9971C24.6879 25.9971 21.9962 23.3054 21.9962 19.9967C21.9962 16.6881 24.6879 13.9964 27.9966 13.9964C29.7752 13.9964 31.4516 14.7788 32.5961 16.143C32.929 16.5399 33.5206 16.5913 33.917 16.2587C34.3136 15.9259 34.3655 15.3346 34.0327 14.9378C32.5311 13.1477 30.331 12.1211 27.9966 12.1211C23.6541 12.1211 20.1211 15.6541 20.1211 19.9966C20.1211 24.3391 23.6541 27.872 27.9966 27.872C30.7855 27.872 33.3929 26.3745 34.801 23.9638C35.0623 23.517 34.9115 22.9428 34.4645 22.6816Z" fill="#7772F1"/>
<path d="M23.823 35.2885C23.6486 35.113 23.4077 35.0137 23.1602 35.0137C22.9136 35.0137 22.6717 35.1131 22.4974 35.2885C22.3231 35.4627 22.2227 35.7038 22.2227 35.9512C22.2227 36.1977 22.323 36.4396 22.4974 36.614C22.6717 36.7884 22.9136 36.8887 23.1602 36.8887C23.4078 36.8887 23.6486 36.7885 23.823 36.614C23.9983 36.4387 24.0977 36.1977 24.0977 35.9512C24.0977 35.7046 23.9983 35.4627 23.823 35.2885Z" fill="#7772F1"/>
</g>
<defs>
<clipPath id="clip0">
<rect width="48" height="48" fill="white"/>
</clipPath>
</defs>
</svg>
