<svg width="86" height="102" viewBox="0 0 86 102" fill="none" xmlns="http://www.w3.org/2000/svg">
<path d="M0 50.8754C0 19.5436 16.7285 0.539062 44.1023 0.539062C64.8861 0.539062 81.6146 13.38 84.6562 32.3845C85.1631 34.4391 83.6423 35.98 81.6146 35.98H68.4346C66.9138 35.98 65.9 34.9527 65.3931 33.4118C62.8585 23.6527 54.7477 17.4891 44.1023 17.4891C29.4015 17.4891 20.2769 30.33 20.2769 50.8754C20.2769 71.4209 29.4015 84.2618 44.6092 84.2618C55.2546 84.2618 62.8585 78.6118 65.9 69.3663C66.4069 67.8254 67.4208 66.7981 68.9415 66.7981H82.1215C84.1492 66.7981 85.67 68.8527 85.1631 70.3936C82.1215 88.8845 65.9 101.212 44.6092 101.212C16.7285 101.212 0 81.6936 0 50.8754Z" fill="#1E212C"/>
</svg>
