<svg xmlns="http://www.w3.org/2000/svg" width="590" height="526" fill="none" xmlns:v="https://vecta.io/nano"><path d="M485.42 225.308l-162.44-55.29 20.7-83.615 174.6 6.345-32.86 132.56z" fill="#b3b7bc"/><path d="M396.565 349.71L216.367 224.173l106.614-54.27 162.44 55.404-88.855 124.403z" fill="#e5e8ed"/><g fill="#1e212c"><path d="M395.268 303.82l-132.63-85.145 1.527-.567 131.783 84.58-.68 1.133zm18.666-24.642l-131.5-72.002 1.3-.793 131.218 71.605-1.018 1.2zM432.1 257.14l-129.012-60.276 1.244-.85 128.503 60.048-.735 1.077zm18.483-22.77L320.95 184.744l1.358-.85 129.292 49.23-1.018 1.247z"/><path d="M268.8 236.918l-1.47-.793 79.353-45.887 1.64.567-79.522 46.113zm33.997 22.66l-1.414-.736 71.547-59.822 1.47.453-71.604 60.105zm35.23 23.795l-1.245-.793 67.25-72.342 1.414.34-67.418 72.795zm36.146 23.904l-.96-.793 67.362-82.086 1.244.454-67.645 82.425z"/></g><path d="M526.538 88.325c-.17-.113-.396-.17-.622-.17L363.704 83l-20.022 3.4 5.6.227 14.48-2.323 160.232 5.1-5.656 3.342-.396 1.7 7.4-4.532L489.03 237.77l-3.506-12.633-159.667-54.27-1.64.85L484.62 226.44l3.676 13.993L395.538 371l2.036-22.773-1.018 1.473-2.093 22.943-176.07-131.2-.678-16.315-1.358-.963.792 17.958 177.313 132.4 95.2-133.807 37.16-151.595c.057-.283-.057-.567-.283-.793zM367.78 155.98a22.28 22.28 0 0 1-4.415-1.719 20.25 20.25 0 0 1-3.796-2.5 20.45 20.45 0 0 1-3.046-2.967 16.65 16.65 0 0 1-2.21-3.573l11.993-7.5a11.58 11.58 0 0 0 2.377 3.916 8.8 8.8 0 0 0 4.134 2.565 4.85 4.85 0 0 0 2.163.079 2.06 2.06 0 0 0 .981-.452 2.03 2.03 0 0 0 .612-.882c.164-.352.207-.747.12-1.124a2.84 2.84 0 0 0-.68-1.175 10.57 10.57 0 0 0-1.68-1.566l-2.805-2.206c-1.085-.83-2.087-1.76-2.994-2.776a11.15 11.15 0 0 1-2.152-3.318 10.79 10.79 0 0 1-.706-4.114 14.57 14.57 0 0 1 1.281-5.162c.974-2.45 2.475-4.66 4.4-6.485a18.28 18.28 0 0 1 5.745-3.61c2.015-.773 4.156-1.174 6.317-1.182 2.05-.024 4.093.224 6.075.737a18.76 18.76 0 0 1 7.004 3.752 17.44 17.44 0 0 1 4.905 6.673l-11.953 6.907a7.4 7.4 0 0 0-2.02-3.658c-.824-.875-1.873-1.516-3.035-1.856-.798-.252-1.645-.313-2.472-.18-.337.07-.65.22-.914.44a2.03 2.03 0 0 0-.587.819c-.167.272-.24.6-.2.904a1.45 1.45 0 0 0 .382.845c.735.73 1.533 1.393 2.385 1.986l3.605 2.912a15.99 15.99 0 0 1 3.149 3.676 11.61 11.61 0 0 1 1.558 4.684 12.54 12.54 0 0 1-1.135 5.965 19.6 19.6 0 0 1-4.305 6.442 18.67 18.67 0 0 1-5.722 3.837c-1.996.88-4.138 1.4-6.318 1.5-2.034.1-4.07-.116-6.033-.644h0zm39.4-39.076l26.343 7.33-5.1 12.273-14.27-3.954-1.567 3.768 13.357 3.714-4.684 11.502-13.523-3.73-1.698 4.113 15.148 4.2-5.1 12.273-27.256-7.572 18.35-43.917zm21.942 30.378c1.364-3.313 3.303-6.363 5.73-9a27.22 27.22 0 0 1 7.522-5.937c5.472-2.918 11.86-3.634 17.842-2 2.865.736 5.537 2.073 7.836 3.92a17.13 17.13 0 0 1 4.868 6.383c1.125 2.65 1.635 5.52 1.492 8.393a28.4 28.4 0 0 1-2.333 9.9c-1.393 3.316-3.326 6.382-5.722 9.076-2.155 2.477-4.743 4.548-7.638 6.112a24.63 24.63 0 0 1-8.785 2.876 23.93 23.93 0 0 1-9.169-.668 20.23 20.23 0 0 1-7.806-3.956 17.22 17.22 0 0 1-4.785-6.555c-1.07-2.725-1.54-5.647-1.377-8.57a28.11 28.11 0 0 1 2.326-9.954h0zm13.6 3.742a14.99 14.99 0 0 0-1.086 4.082 9.72 9.72 0 0 0 .347 3.514 6.2 6.2 0 0 0 1.588 2.668c.768.73 1.708 1.258 2.734 1.535a7.52 7.52 0 0 0 3.32.098 8.8 8.8 0 0 0 3.178-1.334 12.28 12.28 0 0 0 3.049-2.634 15.62 15.62 0 0 0 2.2-3.768 13.45 13.45 0 0 0 1.06-4.014c.122-1.095.013-2.203-.322-3.253-.327-.966-.9-1.835-1.64-2.53a6.02 6.02 0 0 0-2.73-1.503 7.98 7.98 0 0 0-3.327-.163 9.95 9.95 0 0 0-3.191 1.203 11.21 11.21 0 0 0-2.793 2.544 14.43 14.43 0 0 0-2.265 3.543l-.13.013z" fill="#fff"/></svg>