<svg xmlns="http://www.w3.org/2000/svg" xmlns:xlink="http://www.w3.org/1999/xlink" width="590" height="526" fill="none" xmlns:v="https://vecta.io/nano"><style><![CDATA[.B{stroke-width:1.5}.C{stroke-linecap:round}.D{stroke-linejoin:round}.E{stroke:#1e212c}.F{stroke:#fff}]]></style><g clip-path="url(#A)"><path d="M72.816 305.835l81.708 73.306 36.265 147.074 59.117-14.326-9.902-10.534s-2.275-221.18-98.21-256.695" fill="#b3b7bc"/><rect x="27.676" y="303.973" width="92.177" height="33.109" rx="16.555" fill="#00f0b5"/><path d="M103.323 337.08h-59.12" class="B C D E"/><path d="M78.52 63.984v27.264l33.72 8.302v-46l-33.72-8.3v18.746z" fill="#d7dadd"/><path d="M82.393 77.828c-.3.374-.38.88-.213 1.328a1.36 1.36 0 0 0 1.03.864c1.887.658 5.256-2.82 7.55-.448 0 0 .907-2.868 7.013-.38s4.423-1.936 4.423-1.936" class="B C D F"/><g fill="#1e212c"><use xlink:href="#B"/><path d="M83.722 73.416c.498 0 .902-.404.902-.903s-.404-.903-.902-.903-.902.404-.902.903.404.903.902.903z"/></g><g class="B C D E"><path d="M87.78 77.902V63.984h-6.96m18.446.002h-6.96"/></g><path d="M110.023 71.114v4.833c2.603 0 4.713-2.113 4.713-4.72l-.02-.43c-.264-2.93-4.694-2.626-4.694.317z" fill="#e5e8ed"/><g class="B C D E"><path d="M110.023 75.947c2.603 0 4.713-2.113 4.713-4.72m-13.3 25.66l10.814 2.662M87.785 77.914l3.044.75"/></g><g class="F B C D"><path d="M78.52 74.86s-7.835 16.767 4.3 22.073 29.448-8.085 27.2-23.515M77.262 56.5s2.7 4.997 12.047 5.205v-3.082a25.17 25.17 0 0 0 13.806 3.714v-2.44s5.827 6.555 1.165 11.714"/></g><path d="M91.47 83.286c1.956 0 3.542-1.588 3.542-3.548" class="B C D E"/><path d="M78.526 70.138s-13.624-23.56 1.22-26.424 25.014 3.82 25.014 3.82 22.445 4.56 7.488 21.223" class="B C D F"/><path d="M50.25 148.373v73.753l104.314 25.68v-82.14c0-29.126-19.852-54.49-48.09-61.44h0c-13.542-3.333-27.863-.247-38.838 8.37a45.49 45.49 0 0 0-17.385 35.778h0z" fill="#00f0b5"/><path d="M50.252 222.125S32.127 347.905 165.624 327.85l.636 105.725h64.573l-9.903-8.628s57.213-157.906-66.364-177.143" fill="#d7dadd"/><g class="B C D E"><path d="M166.258 433.576h64.573m-180.58-211.45S32.127 347.905 165.624 327.85l.636 105.725"/></g><g class="F B C D"><path d="M0 433.354h154.52M73.816 336.97v96.2m-1-324.096s-43.23 24.895-37.72 84.747 100.385 22.497 126.264 3.82c0 0 14-10.27 10.62-27.03l8.13-5.498-2.196-4.827-97.1 15.06 3.8-23.55"/></g><path d="M54.203 222.59c7.6 11.722 29.754 16.75 53.674 11.252 21.512-4.945 38.034-16.932 42.4-29.38-24.884 13.536-70.244 29.335-96.074 18.128z" fill="#1e212c"/><path d="M120.43 109.472l64.26 29.592s14.833-58.676 32.208-61.81 17.25-1.304 17.25-1.304l-.985 4.605-8.263 2.733s3.864 19.085-6.307 19.603c0 0 31.584 115.52-65.578 100.042" class="B C D F"/></g><defs><clipPath id="A"><path fill="#fff" d="M0 0h590v526H0z"/></clipPath><path id="B" d="M97.57 73.416c.498 0 .902-.404.902-.903s-.404-.903-.902-.903-.902.404-.902.903.404.903.902.903z"/></defs></svg>