<svg width="75" height="96" viewBox="0 0 75 96" fill="none" xmlns="http://www.w3.org/2000/svg">
<path d="M18.1807 95.6457H3.47993C1.95916 95.6457 0.945312 94.6185 0.945312 93.0776V4.21847C0.945312 2.16392 2.97301 0.109375 5.0007 0.109375H40.4853C61.2692 0.109375 73.9422 11.923 73.9422 30.4139C73.9422 41.2003 68.873 50.9594 60.2553 56.0957C58.2276 57.123 57.7207 59.6912 58.7345 61.2321L74.4492 91.5367C75.463 93.0776 73.9422 95.1321 72.4215 95.1321H55.693C54.6792 95.1321 53.6653 94.6185 53.1584 93.5912L38.4576 62.773C37.9507 61.2321 36.4299 60.7185 34.9092 60.7185H23.2499C21.7292 60.7185 20.7153 61.7457 20.7153 63.2866V93.5912C21.2222 94.6185 19.7015 95.6457 18.1807 95.6457ZM21.2222 43.2548C21.2222 44.7957 22.2361 45.823 23.7568 45.823H38.9645C49.103 45.823 54.6792 40.173 54.6792 30.9276C54.6792 21.6821 48.5961 16.0321 38.9645 16.0321H24.2638C22.743 16.0321 21.7292 17.0594 21.7292 18.6003L21.2222 43.2167V43.2548Z" fill="#1E212C"/>
</svg>
