<svg width="78" height="98" viewBox="0 0 78 98" fill="none" xmlns="http://www.w3.org/2000/svg">
<path d="M29.4727 93.0522V20.1158C29.4727 18.5749 28.4589 17.5477 26.9381 17.5477H4.63349C2.60579 17.5477 0.578125 16.0067 0.578125 13.4386V4.70675C0.578125 2.6522 2.09887 0.597656 4.63349 0.597656H73.575C75.6027 0.597656 77.6304 2.13857 77.6304 4.70675V13.4386C77.6304 15.4931 76.1096 17.5477 73.575 17.5477H51.2704C49.7497 17.5477 48.7358 18.5749 48.7358 20.1158V93.5658C48.7358 95.6204 47.215 97.1613 45.1873 97.1613H32.5142C30.9935 96.6477 29.4727 95.1068 29.4727 93.0522Z" fill="#1E212C"/>
</svg>
