<svg xmlns="http://www.w3.org/2000/svg" width="48" height="48" fill="#7772f1" xmlns:v="https://vecta.io/nano"><path d="M24 11.25a12.65 12.65 0 0 0-5.277 1.14.94.94 0 0 0-.465 1.242.94.94 0 0 0 1.242.465 10.78 10.78 0 0 1 4.5-.972A10.89 10.89 0 0 1 34.875 24 10.89 10.89 0 0 1 24 34.875 10.89 10.89 0 0 1 13.125 24c0-1.75.403-3.422 1.198-4.967a.94.94 0 0 0-.405-1.263.94.94 0 0 0-1.263.405A12.79 12.79 0 0 0 11.25 24c0 7.03 5.72 12.75 12.75 12.75S36.75 31.03 36.75 24 31.03 11.25 24 11.25zm23.352 11.5l-1.38-1.77c-1.07-1.296-2.8-3.26-5.042-5.25-2.478-2.212-5.012-3.98-7.533-5.25-3.18-1.604-6.343-2.418-9.398-2.418-6.906 0-13.02 4.15-16.93 7.632a47.79 47.79 0 0 0-5.044 5.248C1.367 21.744.9 22.357.644 22.73.076 23.523 0 23.704 0 24c0 .3.085.474.648 1.25a36.94 36.94 0 0 0 1.379 1.77c1.07 1.296 2.8 3.26 5.042 5.25 2.478 2.212 5.012 3.98 7.533 5.25 3.18 1.604 6.343 2.418 9.4 2.418 4.78 0 9.72-1.94 14.682-5.766a.94.94 0 0 0 .17-1.315.94.94 0 0 0-1.315-.17c-4.626 3.567-9.18 5.375-13.537 5.375-6.168 0-11.756-3.754-15.357-6.904C5.23 28.17 2.85 25.1 2.05 23.988c.77-1.102 3.134-4.172 6.622-7.206C12.26 13.66 17.833 9.938 24 9.938s11.756 3.754 15.357 6.904c3.417 3 5.798 6.05 6.595 7.17-.53.76-1.793 2.4-3.617 4.326a.94.94 0 0 0 .032 1.326.94.94 0 0 0 1.326-.032c1.392-1.46 2.424-2.727 3.045-3.532C48 24.465 48 24.26 48 24c0-.3-.085-.474-.648-1.25zm-16.405-2.044c-.17-.356-.543-.57-.936-.53s-.72.316-.82.698c-.193.743-.864 1.262-1.633 1.262a1.69 1.69 0 0 1-1.687-1.687c0-.77.52-1.443 1.265-1.634a.94.94 0 0 0 .17-1.754A7.62 7.62 0 0 0 24 16.313 7.7 7.7 0 0 0 16.313 24 7.7 7.7 0 0 0 24 31.688 7.7 7.7 0 0 0 31.688 24a7.62 7.62 0 0 0-.741-3.294zM24 29.813A5.82 5.82 0 0 1 18.188 24 5.82 5.82 0 0 1 24 18.188a5.86 5.86 0 0 1 .764.05 3.56 3.56 0 0 0-.768 2.21 3.57 3.57 0 0 0 3.563 3.563 3.56 3.56 0 0 0 2.205-.764 5.88 5.88 0 0 1 .048.754A5.82 5.82 0 0 1 24 29.813zM24 0a.94.94 0 0 0-.937.938V6a.94.94 0 0 0 .938.938.94.94 0 0 0 .938-.937V.938A.94.94 0 0 0 24 0z"/><path d="M40.066 2.76a.94.94 0 0 0-1.326 0L34.298 7.2a.94.94 0 0 0 0 1.326c.183.183.423.275.663.275s.48-.092.663-.275l4.442-4.442a.94.94 0 0 0 0-1.326zM13.707 7.2L9.264 2.76a.94.94 0 0 0-1.326 0 .94.94 0 0 0 0 1.326l4.442 4.442c.183.183.423.275.663.275s.48-.092.663-.275a.94.94 0 0 0 0-1.326zM24 41.063a.94.94 0 0 0-.937.938v5.063A.94.94 0 0 0 24 48a.94.94 0 0 0 .938-.937V42a.94.94 0 0 0-.937-.937zm-10.293-1.6a.94.94 0 0 0-1.326 0l-4.44 4.442a.94.94 0 0 0 0 1.326c.183.183.423.275.663.275s.48-.092.663-.275l4.442-4.442a.94.94 0 0 0 0-1.326zm26.355 4.443l-4.442-4.442a.94.94 0 0 0-1.326 0 .94.94 0 0 0 0 1.326l4.442 4.442c.183.183.423.275.663.275s.48-.092.663-.275a.94.94 0 0 0 0-1.326zm-23.528-29.15a.94.94 0 0 0-.663-.275c-.247 0-.488.1-.663.275s-.275.416-.275.663.1.488.275.663.416.275.663.275.488-.1.663-.275.275-.416.275-.663-.1-.488-.275-.663zM41.33 30.62c-.174-.174-.416-.274-.663-.274s-.488.1-.663.274a.94.94 0 0 0 0 1.327c.175.175.416.275.663.275a.94.94 0 0 0 .663-.275.95.95 0 0 0 .275-.663c0-.247-.1-.5-.275-.664z"/></svg>