<svg xmlns="http://www.w3.org/2000/svg" width="48" height="48" fill="#7772f1" xmlns:v="https://vecta.io/nano"><path d="M28.553 12.378h-.386c.878-.986 1.413-2.285 1.413-3.706v-3.1A5.59 5.59 0 0 0 23.999 0a5.59 5.59 0 0 0-5.581 5.581v3.1a5.56 5.56 0 0 0 1.413 3.706h-.386a6.95 6.95 0 0 0-6.937 6.938V24a.94.94 0 0 0 .938.938h21.108a.94.94 0 0 0 .938-.937v-4.685a6.95 6.95 0 0 0-6.937-6.937zM24 1.875a3.71 3.71 0 0 1 3.666 3.163l-1.654-.972a.94.94 0 0 0-1.194.206c-.793.947-1.957 1.5-3.192 1.5h-1.333v-.18a3.71 3.71 0 0 1 3.706-3.706zm-3.706 5.762h1.333c1.52 0 2.967-.568 4.073-1.58l2.006 1.18v1.436A3.71 3.71 0 0 1 24 12.379a3.71 3.71 0 0 1-3.706-3.706V7.637zm13.323 15.426H14.383v-3.747a5.07 5.07 0 0 1 5.063-5.062h3.617v1.872a.94.94 0 0 0 .938.938.94.94 0 0 0 .938-.937v-1.872h3.616a5.07 5.07 0 0 1 5.063 5.063v3.747zm-19.18 14.33h-1.293a4.34 4.34 0 0 0 .783-2.489v-.857a4.37 4.37 0 0 0-4.364-4.364A4.37 4.37 0 0 0 5.2 34.047v.857a4.34 4.34 0 0 0 .783 2.489H4.688C2.103 37.393 0 39.496 0 42.08v4.982A.94.94 0 0 0 .938 48h17.25a.94.94 0 0 0 .938-.937V42.08c0-2.585-2.103-4.687-4.687-4.687zm-7.364-3.346c0-1.373 1.117-2.5 2.5-2.5s2.5 1.117 2.5 2.5v.857c0 1.373-1.117 2.5-2.5 2.5s-2.5-1.117-2.5-2.5v-.857zM17.25 46.125H1.875V42.08c0-1.55 1.262-2.812 2.813-2.812h3.938v1.888a.94.94 0 0 0 .938.938.94.94 0 0 0 .938-.937V39.27h3.938a2.82 2.82 0 0 1 2.813 2.813v4.044zm26.063-8.732H42.02a4.34 4.34 0 0 0 .783-2.489v-.857a4.37 4.37 0 0 0-4.364-4.364 4.37 4.37 0 0 0-4.364 4.364v.857a4.34 4.34 0 0 0 .783 2.489h-1.293c-2.585 0-4.687 2.103-4.687 4.688v4.982a.94.94 0 0 0 .938.938h17.25a.94.94 0 0 0 .938-.937V42.08c0-2.585-2.103-4.687-4.687-4.687zm-7.364-3.346c0-1.373 1.117-2.5 2.5-2.5s2.5 1.117 2.5 2.5v.857c0 1.373-1.117 2.5-2.5 2.5s-2.5-1.117-2.5-2.5v-.857zm10.177 12.078H30.75V42.08c0-1.55 1.262-2.812 2.813-2.812H37.5v1.888a.94.94 0 0 0 .938.938.94.94 0 0 0 .938-.937V39.27h3.938a2.82 2.82 0 0 1 2.813 2.813v4.044zm-16.278-9.57l-4.9-4.9v-3.943a.94.94 0 0 0-.937-.937.94.94 0 0 0-.937.938v3.943l-4.9 4.9a.94.94 0 0 0 0 1.326.94.94 0 0 0 1.326 0L24 33.36l4.52 4.522c.183.183.423.275.663.275s.48-.092.663-.275a.94.94 0 0 0 0-1.326zm-5.185-17.484c-.174-.174-.416-.275-.663-.275s-.488.1-.663.275-.275.416-.275.663.1.488.275.663.416.275.663.275.488-.1.663-.275.275-.416.275-.663a.94.94 0 0 0-.275-.663z"/></svg>