<svg xmlns="http://www.w3.org/2000/svg" width="495" height="410" fill="none" xmlns:v="https://vecta.io/nano"><path d="M122.29 193.447C54.86 193.447 0 151.41 0 99.715S54.8 6 122.29 6 244.6 48.038 244.6 99.715s-54.912 93.732-122.308 93.732zm0-185.756c-66.5 0-120.6 41.277-120.6 92.024s54.134 92.04 120.6 92.04 120.616-41.277 120.616-92.04S188.757 7.69 122.29 7.69h0z" fill="#d7dadd"/><path d="M101.112 113.497c-.98-12.632 3.992-20.934 18.016-30.98 12.637-8.895 16.24-13.528 15.7-20.58-.66-8.455-8.306-13.105-19.708-12.226-14.092 1.1-22.076 10.873-21.856 27.056l-30.84.102c-1.353-30.928 18.828-52.708 50.75-55.177 28.386-2.198 50.428 13.376 52.238 36.78 1.117 14.29-5.075 24.976-20.926 36.407-12.806 9.537-15.63 13.29-15.072 20.546l.558 7.254-27.98 2.215-.88-11.397zm0 25.838l33.02-2.57 2.487 32.13-33.106 2.537-2.402-32.096z" fill="#1e212c"/></svg>