<svg xmlns="http://www.w3.org/2000/svg" xmlns:xlink="http://www.w3.org/1999/xlink" width="1920" height="1139" fill="none" xmlns:v="https://vecta.io/nano"><path d="M1773.7 1064.56V1054h28.23v28.07h-10.54v-17.5h-17.7zm-19.06 18.94v-10.48h28.22v28h-10.6v-17.5h-17.6zm-19.06 19.04v-10.56h28.15v28.07h-10.54v-17.5h-17.6zm-19.13 18.96v-10.56h28.22V1139h-10.6v-17.5h-17.6z" opacity=".2" fill="#ffcf2d"/><g opacity=".8" clip-path="url(#A)" fill="#ffcf2d"><use xlink:href="#B"/><use xlink:href="#C"/><path d="M1886.6 49c-1 .582-2.2.262-2.8-.748a1.99 1.99 0 0 1 .75-2.786 1.98 1.98 0 0 1 2.78.748c.6 1 .18 2.252-.74 2.786z"/><use xlink:href="#D"/><use xlink:href="#E"/><path d="M1912.67 94.177a1.98 1.98 0 0 1-2.78-.748 1.98 1.98 0 0 1 .74-2.786c1-.582 2.2-.262 2.8.748.58 1 .18 2.252-.75 2.786zm8.65 14.975c-1 .583-2.2.262-2.8-.748a1.99 1.99 0 0 1 .75-2.785 1.98 1.98 0 0 1 2.78.747c.6 1 .18 2.253-.74 2.786z"/><use xlink:href="#F"/><path d="M1865.42 41.253a1.98 1.98 0 0 1-2.78-.748 1.98 1.98 0 0 1 .74-2.786c1-.582 2.2-.262 2.8.748.53.925.26 2.203-.75 2.786zm8.65 14.977c-1 .582-2.2.262-2.8-.748a1.99 1.99 0 0 1 .75-2.786c1-.582 2.2-.262 2.78.748s.26 2.204-.74 2.786z"/><use xlink:href="#G"/><use xlink:href="#H"/><path d="M1900.15 101.407a2.04 2.04 0 0 1-2.04-3.533c1-.582 2.2-.262 2.8.748a1.99 1.99 0 0 1-.75 2.786zm8.65 14.975c-1 .582-2.2.262-2.8-.748a1.99 1.99 0 0 1 .75-2.786c1-.582 2.2-.262 2.78.748s.26 2.204-.74 2.786zm8.7 15.058a2.04 2.04 0 1 1-2.04-3.533c1-.583 2.2-.262 2.8.748a1.99 1.99 0 0 1-.75 2.785z"/><use xlink:href="#I"/><use xlink:href="#J"/><path d="M1911.55 34.588c-1 .582-2.2.262-2.8-.748a1.99 1.99 0 0 1 .75-2.786c1-.582 2.25-.178 2.78.748a1.98 1.98 0 0 1-.74 2.786zm8.7 15.06a1.98 1.98 0 0 1-2.78-.748 1.99 1.99 0 0 1 .74-2.786c1-.582 2.25-.178 2.8.748.53.925.26 2.204-.75 2.786zm-38.54-37.865c-1 .582-2.2.262-2.8-.748s-.18-2.252.75-2.786c1-.582 2.2-.262 2.78.748s.26 2.204-.74 2.786zm8.68 15.06a1.98 1.98 0 0 1-2.78-.748 1.98 1.98 0 0 1 .74-2.786c1-.582 2.2-.262 2.8.748.53.925.26 2.204-.75 2.786zm8.65 14.975c-1 .582-2.2.262-2.8-.748a1.99 1.99 0 0 1 .75-2.786c1-.582 2.2-.262 2.78.748s.27 2.204-.74 2.786zm8.7 15.06a1.98 1.98 0 0 1-2.78-.748 1.98 1.98 0 0 1 .74-2.786c1-.582 2.2-.262 2.8.748a1.99 1.99 0 0 1-.75 2.786zm8.7 15.06c-1 .582-2.2.262-2.8-.748a1.99 1.99 0 0 1 .75-2.786c1-.582 2.2-.262 2.78.748.53.925.26 2.204-.74 2.786zm-72.12-38.563c-1 .582-2.2.262-2.8-.748a1.99 1.99 0 0 1 .75-2.786 1.98 1.98 0 0 1 2.78.748c.58 1 .18 2.252-.74 2.786zm8.68 15.06a1.98 1.98 0 0 1-2.78-.748 1.98 1.98 0 0 1 .74-2.786c1-.582 2.2-.262 2.8.748.53.925.18 2.252-.75 2.786zm8.65 14.976c-1 .582-2.2.262-2.8-.748a1.99 1.99 0 0 1 .75-2.786 1.98 1.98 0 0 1 2.78.748c.6 1 .18 2.252-.74 2.786zm8.7 15.06a1.98 1.98 0 0 1-2.78-.748 1.98 1.98 0 0 1 .74-2.786c1-.582 2.2-.262 2.8.748.58 1 .18 2.252-.75 2.786zm8.7 15.058c-1 .582-2.2.262-2.8-.748a1.99 1.99 0 0 1 .75-2.786 1.98 1.98 0 0 1 2.78.748c.54.925.18 2.252-.74 2.786zm8.68 15.06a2.04 2.04 0 0 1-2.04-3.534c1-.582 2.2-.262 2.8.748.58 1 .18 2.252-.75 2.786z"/><use xlink:href="#K"/><path d="M1905.05 138.623a2.04 2.04 0 0 1-2.04-3.534c1-.582 2.2-.26 2.8.748.58 1 .18 2.252-.75 2.786zm8.7 15.06c-1 .582-2.2.26-2.8-.748a1.99 1.99 0 0 1 .75-2.786 1.98 1.98 0 0 1 2.78.748c.54.925.18 2.252-.74 2.786zm-81.98-113.08c-1 .582-2.2.262-2.8-.748a1.99 1.99 0 0 1 .75-2.786c1-.582 2.2-.262 2.78.748s.26 2.204-.74 2.786z"/><use xlink:href="#L"/><path d="M1849.1 70.64c-1 .582-2.2.262-2.8-.748a1.99 1.99 0 0 1 .75-2.786c1-.582 2.2-.262 2.78.748s.26 2.204-.74 2.786zm5.92 14.3c.56.976 1.8 1.3 2.78.748a2.04 2.04 0 0 0 .75-2.786c-.57-.976-1.8-1.3-2.8-.748-.97.563-1.3 1.8-.74 2.786zm11.48 15.808c-1 .582-2.2.262-2.8-.748a1.99 1.99 0 0 1 .75-2.786c1-.582 2.2-.262 2.78.748.53.925.26 2.204-.74 2.786zm8.7 15.06c-1 .583-2.2.262-2.8-.747a1.99 1.99 0 0 1 .75-2.786 2.04 2.04 0 1 1 2.04 3.533zm8.64 14.976c-1 .582-2.2.262-2.8-.748a1.99 1.99 0 0 1 .75-2.786c1-.582 2.2-.262 2.78.748s.26 2.204-.74 2.786zm5.9 14.312c.56.975 1.8 1.3 2.78.748a2.04 2.04 0 0 0 .75-2.786c-.57-.976-1.8-1.3-2.8-.748-.97.563-1.3 1.8-.74 2.786zm11.48 15.807c-1 .582-2.2.262-2.8-.748s-.26-2.203.74-2.786 2.2-.26 2.8.748c.53.926.26 2.204-.74 2.786zm-82-113.078a1.98 1.98 0 0 1-2.78-.748 1.99 1.99 0 0 1 .74-2.786c1-.582 2.2-.262 2.8.748a1.99 1.99 0 0 1-.75 2.786zm8.7 15.06c-1 .582-2.2.262-2.8-.748a1.99 1.99 0 0 1 .75-2.786 1.98 1.98 0 0 1 2.78.748c.54.925.27 2.204-.74 2.786zm8.64 14.976c-1 .582-2.2.262-2.78-.748s-.27-2.204.74-2.786 2.2-.262 2.8.748a1.99 1.99 0 0 1-.75 2.786zm8.7 15.06c-1 .582-2.2.262-2.8-.748a1.99 1.99 0 0 1 .75-2.786 1.98 1.98 0 0 1 2.78.748 1.98 1.98 0 0 1-.74 2.786zm8.7 15.058a1.98 1.98 0 0 1-2.78-.748c-.58-1-.27-2.203.74-2.785s2.2-.262 2.8.747c.53.926.26 2.204-.75 2.786zm8.7 15.06c-1 .582-2.2.262-2.8-.748a1.99 1.99 0 0 1 .75-2.786 2.04 2.04 0 1 1 2.04 3.534zm8.63 14.974c-1 .583-2.2.262-2.78-.747s-.27-2.204.74-2.786a2.04 2.04 0 1 1 2.04 3.533zm8.7 15.06c-1 .582-2.2.262-2.8-.748a1.99 1.99 0 0 1 .75-2.786c1-.582 2.2-.26 2.78.748a1.98 1.98 0 0 1-.74 2.786zm8.7 15.06c-1 .582-2.2.26-2.78-.748a1.98 1.98 0 0 1 .74-2.786c1-.582 2.2-.262 2.8.748.53.925.26 2.203-.75 2.786zm-81.9-113.127c-1 .582-2.2.262-2.78-.748s-.26-2.204.74-2.786 2.2-.262 2.8.748.18 2.252-.75 2.786zm8.7 15.06c-1 .582-2.2.262-2.8-.748a1.99 1.99 0 0 1 .75-2.786 1.98 1.98 0 0 1 2.78.748c.54.925.18 2.252-.74 2.786zm8.65 14.976c-1 .582-2.2.262-2.8-.748a1.99 1.99 0 0 1 .75-2.786c1-.582 2.2-.262 2.78.748s.18 2.252-.74 2.786zm8.7 15.06a1.98 1.98 0 0 1-2.78-.747 1.98 1.98 0 0 1 .74-2.786c1-.582 2.2-.262 2.8.748.58 1 .17 2.252-.75 2.785zm8.7 15.06c-1 .582-2.2.262-2.78-.748s-.26-2.203.74-2.786 2.2-.262 2.8.748c.53.926.18 2.252-.75 2.786zm8.7 15.058c-1 .583-2.2.262-2.8-.747a1.99 1.99 0 0 1 .75-2.786 1.98 1.98 0 0 1 2.78.748c.6 1 .18 2.252-.74 2.785zm8.65 14.976c-1 .582-2.2.262-2.8-.748a1.99 1.99 0 0 1 .75-2.786c1-.582 2.2-.26 2.78.748s.18 2.252-.74 2.786zm8.7 15.06c-1 .582-2.2.26-2.78-.748a1.98 1.98 0 0 1 .74-2.786c1-.582 2.2-.262 2.8.748.58 1 .17 2.252-.75 2.786zm8.7 15.06c-1 .583-2.2.262-2.78-.748s-.26-2.203.74-2.785 2.2-.262 2.8.747c.53.926.18 2.252-.75 2.786z"/></g><path d="M118.708 677.152c10.1 0 18.346-8.168 18.346-18.196s-8.236-18.196-18.346-18.196v36.392zm-28.62 0c10.1 0 18.345-8.168 18.345-18.196s-8.235-18.196-18.345-18.196v36.392zm-28.62 0c10.1 0 18.346-8.168 18.346-18.196s-8.236-18.196-18.346-18.196v36.392z" opacity=".2" fill="#ffcf2d"/><defs><clipPath id="A"><path fill="#fff" transform="matrix(.502071 .864826 -.867216 .497932 1848.1 0)" d="M0 0h143.198v105.436H0z"/></clipPath><path id="B" d="M1869.25 18.964c-1 .582-2.2.262-2.8-.748a1.99 1.99 0 0 1 .75-2.786 1.98 1.98 0 0 1 2.78.748c.6 1 .18 2.252-.74 2.786z"/><path id="C" d="M1877.94 34.023a1.98 1.98 0 0 1-2.78-.748 1.98 1.98 0 0 1 .74-2.786c1-.582 2.2-.262 2.8.748.53.925.18 2.252-.75 2.786z"/><path id="D" d="M1895.28 64.058a1.98 1.98 0 0 1-2.78-.748 1.98 1.98 0 0 1 .74-2.786c1-.582 2.2-.262 2.8.748.58 1 .18 2.252-.75 2.786z"/><path id="E" d="M1903.98 79.117c-1 .582-2.2.262-2.8-.748a1.99 1.99 0 0 1 .75-2.786 1.98 1.98 0 0 1 2.78.748c.54.925.18 2.252-.74 2.786z"/><path id="F" d="M1856.73 26.193c-1 .582-2.2.262-2.8-.748a1.99 1.99 0 0 1 .75-2.786c1-.582 2.2-.262 2.78.748s.26 2.204-.74 2.786z"/><path id="G" d="M1882.76 71.288a1.98 1.98 0 0 1-2.78-.748 1.98 1.98 0 0 1 .74-2.786c1-.582 2.2-.262 2.8.748a1.99 1.99 0 0 1-.75 2.786z"/><path id="H" d="M1891.46 86.348c-1 .582-2.2.262-2.8-.748a1.99 1.99 0 0 1 .75-2.786c1-.582 2.2-.262 2.78.748.53.925.26 2.204-.74 2.786z"/><path id="I" d="M1894.2 4.553c-1 .582-2.2.262-2.8-.748a1.99 1.99 0 0 1 .75-2.786 1.98 1.98 0 0 1 2.78.748 1.98 1.98 0 0 1-.74 2.786z"/><path id="J" d="M1902.9 19.612a1.98 1.98 0 0 1-2.78-.748 1.98 1.98 0 0 1 .74-2.786c1-.582 2.2-.262 2.8.748.53.925.26 2.204-.75 2.786z"/><path id="K" d="M1896.36 123.563c-1 .583-2.2.262-2.8-.747a1.99 1.99 0 0 1 .75-2.786 1.98 1.98 0 0 1 2.78.748c.6 1.01.18 2.252-.74 2.785z"/><path id="L" d="M1840.46 55.663c-1 .582-2.2.262-2.8-.748a1.99 1.99 0 0 1 .75-2.786 1.98 1.98 0 0 1 2.78.748c.54.925.27 2.204-.74 2.786z"/></defs></svg>