<svg xmlns="http://www.w3.org/2000/svg" width="1920" height="2400" fill="none" xmlns:v="https://vecta.io/nano"><g clip-path="url(#A)"><g opacity=".3" fill="#00f0b5"><path d="M188.822 304.09c0 7.45-2.794 14.902-8.454 20.562L-32.567 537.586c-11.32 11.32-29.733 11.32-41.054 0-5.517-5.517-8.526-12.825-8.526-20.563s3.01-15.046 8.526-20.562l212.935-212.935c5.517-5.517 12.753-8.526 20.563-8.526 7.738 0 15.046 3.01 20.563 8.526 5.588 5.732 8.382 13.11 8.382 20.563zM-80.713 517.023c0 7.38 2.866 14.33 8.096 19.488 10.747 10.747 28.3 10.747 39.048 0l212.935-212.934c10.747-10.747 10.747-28.3 0-39.048-5.23-5.23-12.18-8.096-19.488-8.096-7.38 0-14.33 2.866-19.488 8.096L-72.617 497.535c-5.23 5.16-8.096 12.11-8.096 19.488z"/><path d="M173.97 374.012c0 7.452-2.794 14.903-8.455 20.563L-47.42 607.5c-11.32 11.32-29.734 11.32-41.054 0C-93.99 601.993-97 594.685-97 586.947s3.01-15.046 8.526-20.563L124.46 353.45c5.517-5.517 12.753-8.526 20.562-8.526 7.738 0 15.046 3.01 20.563 8.526a29.3 29.3 0 0 1 8.383 20.562zM-95.567 586.947c0 7.38 2.866 14.33 8.096 19.488 10.747 10.747 28.3 10.747 39.048 0L164.51 393.5c10.747-10.747 10.747-28.3 0-39.047-5.23-5.23-12.18-8.096-19.488-8.096-7.38 0-14.33 2.866-19.488 8.096L-87.47 567.46c-5.23 5.16-8.096 12.11-8.096 19.488z"/></g><g opacity=".3" fill="#00f0b5"><path d="M1842.86 1872.26c0 7.5-2.8 15-8.5 20.7l-214.2 214.2c-11.4 11.38-29.9 11.38-41.3 0-5.55-5.55-8.57-12.9-8.57-20.7 0-7.78 3.02-15.13 8.57-20.68l214.2-214.2c5.55-5.55 12.83-8.58 20.7-8.58 7.78 0 15.13 3.03 20.68 8.58a29.47 29.47 0 0 1 8.43 20.68zm-271.12 214.2c0 7.42 2.88 14.42 8.14 19.6 10.8 10.8 28.47 10.8 39.28 0l214.2-214.2c10.8-10.8 10.8-28.46 0-39.27-5.26-5.26-12.25-8.15-19.6-8.15-7.43 0-14.42 2.9-19.6 8.15l-214.26 214.26c-5.26 5.2-8.14 12.18-8.14 19.6z"/><path d="M1777.57 1880.9c0 7.5-2.8 15-8.5 20.68l-214.2 214.2c-11.38 11.4-29.9 11.4-41.3 0-5.55-5.55-8.58-12.9-8.58-20.68s3.03-15.13 8.58-20.68l214.2-214.2c5.55-5.55 12.83-8.58 20.68-8.58a29.04 29.04 0 0 1 20.68 8.58 29.42 29.42 0 0 1 8.44 20.68zm-271.13 214.2c0 7.42 2.88 14.4 8.15 19.6 10.8 10.8 28.46 10.8 39.27 0l214.2-214.2c10.8-10.8 10.8-28.46 0-39.28-5.26-5.26-12.25-8.14-19.6-8.14-7.42 0-14.4 2.88-19.6 8.14L1514.6 2075.5c-5.27 5.2-8.15 12.18-8.15 19.6z"/></g><g opacity=".4" stroke="#00f0b5"><path d="M242.564 1426.67l-18.08-19.2c-19.727-21.2-40.42-43.42-63.087-60.38-29.662-22.2-62.608-35.3-101.04-25.23-37.305 9.78-55.85 39.43-71.026 74.38-3.793 8.73-7.37 17.8-10.98 26.94l-.256.65-10.898 26.85c-7.815 18.2-16.718 35.86-28.65 51.08-13.08 16.7-30.34 31.1-48.8 44.56-9.227 6.73-18.76 13.22-28.22 19.64l-1.87 1.27-25.943 17.93c-35.87 25.77-64.56 52.88-62.922 91.84 1.747 41.6 26.372 79.08 61.527 107.13s80.776 46.62 124.393 50.4c37.612 3.26 68.237-16.48 97.974-42.3 8.975-7.8 17.847-16.12 26.802-24.52l17.825-16.54c15.14-13.75 30.804-26.86 47.746-37.16 16.245-9.88 34.64-17.35 53.43-24.07l22.408-7.74 33.445-11.84c35.755-13.76 66.054-31.07 77.32-65.03 11.727-35.34 1.296-67.22-18.266-96.68-15.948-24.02-37.922-46.37-58.83-67.63l-14.016-14.35z"/><path d="M197.09 1458.22l-14.24-15.12c-15.53-16.68-31.815-34.17-49.652-47.52-23.34-17.47-49.248-27.78-79.464-19.85-29.32 7.7-43.904 31-55.85 58.5-2.985 6.88-5.802 14-8.644 21.2l-.202.5-8.58 21.15c-6.154 14.33-13.168 28.24-22.57 40.24-10.307 13.15-23.906 24.5-38.436 35.1-7.266 5.3-14.772 10.42-22.22 15.47l-1.47 1-20.426 14.12c-28.244 20.3-50.783 41.6-49.496 72.22 1.374 32.7 20.74 62.2 48.403 84.27 27.66 22.07 63.563 36.68 97.884 39.66 29.568 2.56 53.65-12.96 77.06-33.28 7.066-6.14 14.047-12.68 21.096-19.3l14.04-13.02c11.92-10.83 24.26-21.16 37.61-29.27 12.8-7.8 27.293-13.68 42.088-18.97l17.647-6.1 26.326-9.32c28.148-10.83 51.96-24.45 60.813-51.13 9.22-27.8 1.023-52.85-14.37-76.03-12.55-18.9-29.842-36.5-46.303-53.24l-11.04-11.3z"/><path d="M164.236 1481.02l-11.467-12.17c-12.5-13.43-25.597-27.5-39.946-38.24-18.772-14.05-39.594-22.32-63.874-15.95-23.552 6.17-35.273 24.9-44.886 47.02-2.402 5.54-4.67 11.27-6.956 17.07l-.163.4-6.907 17.02c-4.955 11.54-10.604 22.75-18.18 32.42-8.304 10.6-19.258 19.74-30.955 28.27-5.85 4.26-11.892 8.38-17.887 12.45l-1.182.8-16.438 11.36c-22.734 16.33-40.828 33.46-39.796 58.04 1.105 26.28 16.67 50 38.92 67.75 22.25 17.75 51.127 29.5 78.73 31.9 23.756 2.05 43.113-10.4 61.95-26.76 5.686-4.94 11.302-10.2 16.974-15.53l11.303-10.5c9.596-8.7 19.534-17.03 30.284-23.57 10.3-6.27 21.982-11 33.892-15.27l14.208-4.9 21.18-7.5c22.653-8.72 41.778-19.66 48.887-41.1 7.407-22.33.826-42.47-11.553-61.1-10.096-15.2-24.005-29.35-37.253-42.83l-8.888-9.1z"/></g></g><defs><clipPath id="A"><path fill="#fff" d="M0 0h1920v2400H0z"/></clipPath></defs></svg>