<svg xmlns="http://www.w3.org/2000/svg" width="1920" height="1800" fill="none" xmlns:v="https://vecta.io/nano"><g clip-path="url(#A)"><g opacity=".4" stroke="#00f0b5"><path d="M1721.2 816.085l28.8 21.597c31.48 23.9 64.53 48.983 99 66.52 45.1 22.95 92.55 32.916 141.96 10.35 47.98-21.912 66.02-66.2 78.28-116.766 3.07-12.638 5.77-25.657 8.5-38.81l.2-.934 8.4-38.657c6.26-26.307 14.1-52.12 26.6-75.365 13.7-25.482 33.53-48.89 55.2-71.292 10.84-11.202 22.14-22.16 33.37-33l2.22-2.138 30.72-30.183c42.23-43.038 74.57-86.278 63.24-138.41-12.07-55.607-54-100.32-107.87-129.864-53.86-29.54-119.6-43.877-179.2-38.77-51.43 4.408-88.06 38.174-122.04 79.844-10.26 12.576-20.26 25.848-30.34 39.24l-20.1 26.404c-17.16 22.03-35.16 43.31-55.53 61.113-19.53 17.07-42.52 31.413-66.22 44.84L1688 467.438l-42.24 23.737c-44.9 26.86-81.68 57.266-88.92 105.662-7.53 50.365 13.98 90.865 47.2 125.95 27.07 28.6 61.87 53.548 94.96 77.274l22.2 16.024z"/><path d="M1775 763.017l22.67 17.01c24.8 18.816 50.8 38.557 77.93 52.36 35.5 18.063 72.82 25.896 111.68 8.147 37.73-17.23 51.93-52.055 61.58-91.862 2.4-9.948 4.53-20.197 6.67-30.554l.16-.734 6.6-30.44c4.93-20.717 11.12-41.05 20.95-59.365 10.78-20.076 26.4-38.514 43.48-56.155 8.53-8.82 17.44-17.45 26.28-25.985l1.74-1.683 24.18-23.763c33.26-33.888 58.67-67.893 49.77-108.877-9.5-43.742-42.48-78.925-84.87-102.177-42.4-23.25-94.14-34.532-141.04-30.513-40.45 3.466-69.26 30.02-96.02 62.825-8.07 9.9-15.94 20.347-23.88 30.9l-15.84 20.794c-13.5 17.346-27.68 34.108-43.73 48.13-15.4 13.447-33.5 24.744-52.16 35.318l-22.3 12.313-33.25 18.686c-35.34 21.146-64.26 45.063-69.95 83.115-5.93 39.61 11 71.464 37.13 99.076 21.3 22.51 48.7 42.145 74.75 60.826l17.48 12.62z"/><path d="M1813.87 724.677l18.26 13.694c19.95 15.143 40.87 31.024 62.7 42.128 28.56 14.53 58.56 20.825 89.8 6.556 30.32-13.848 41.74-41.835 49.5-73.868 1.94-8.005 3.66-16.253 5.38-24.59l.12-.59 5.32-24.502c3.97-16.677 8.94-33.053 16.87-47.804 8.68-16.17 21.27-31.017 35-45.218 6.87-7.1 14.03-14.047 21.15-20.917l1.4-1.355 19.46-19.123c26.77-27.276 47.2-54.6 40.03-87.54-7.63-35.17-34.15-63.466-68.26-82.172s-75.73-27.78-113.46-24.547c-32.5 2.786-55.68 24.13-77.2 50.53-6.5 7.968-12.83 16.372-19.22 24.855l-12.75 16.74c-10.87 13.963-22.3 27.46-35.2 38.753-12.4 10.83-26.97 19.925-42 28.436l-17.96 9.913-26.76 15.036c-28.44 17.018-51.68 36.247-56.26 66.825-4.76 31.837 8.84 57.447 29.86 79.658 17.15 18.11 39.18 33.907 60.15 48.94l14.07 10.16z"/></g><g opacity=".3" fill="#00f0b5"><path d="M232.002 1265c0 7.95-2.978 15.9-9.01 21.92L-3.966 1513.88c-12.066 12.06-31.692 12.06-43.757 0-5.88-5.88-9.087-13.67-9.087-21.92s3.207-16.04 9.087-21.92l226.957-226.95a30.66 30.66 0 0 1 21.917-9.09c8.247 0 16.037 3.2 21.917 9.1 5.956 6.1 8.934 13.97 8.934 21.9zm-287.285 226.96c0 7.87 3.055 15.27 8.63 20.77 11.455 11.46 30.164 11.46 41.62 0l226.957-226.95c11.455-11.46 11.455-30.17 0-41.62-5.574-5.58-12.982-8.63-20.77-8.63-7.866 0-15.273 3.05-20.77 8.63L-46.654 1471.2c-5.575 5.5-8.63 12.9-8.63 20.77z"/><path d="M162.813 1274.17c0 7.94-2.978 15.88-9.01 21.92l-226.957 226.95c-12.066 12.07-31.692 12.07-43.758 0-5.88-5.88-9.087-13.67-9.087-21.9 0-8.25 3.207-16.04 9.087-21.92l226.958-226.96a30.66 30.66 0 0 1 21.916-9.09 30.79 30.79 0 0 1 21.917 9.09c5.957 6.1 8.935 13.98 8.935 21.92zm-287.286 226.96c0 7.86 3.055 15.27 8.63 20.77 11.454 11.45 30.164 11.45 41.62 0l226.957-226.96c11.455-11.45 11.455-30.16 0-41.62-5.575-5.57-12.982-8.63-20.772-8.63-7.865 0-15.273 3.06-20.77 8.63l-227.033 227.03c-5.575 5.5-8.63 12.9-8.63 20.78z"/></g></g><defs><clipPath id="A"><path fill="#fff" d="M0 0h1920v1800H0z"/></clipPath></defs></svg>