<svg xmlns="http://www.w3.org/2000/svg" width="300" height="100" fill="none" xmlns:v="https://vecta.io/nano"><path fill="#262f56" d="M0 100h300V0H0z"/><path d="M31.848 61V40.196h3.458V48.2a7.32 7.32 0 0 1 1.848-1.288c.672-.327 1.46-.5 2.366-.5.784 0 1.48.135 2.086.406a3.96 3.96 0 0 1 1.512 1.12c.41.476.72 1.05.924 1.722.215.663.322 1.395.322 2.198V61h-3.458v-9.142c0-.877-.205-1.554-.616-2.03-.4-.485-1.008-.728-1.82-.728a3.6 3.6 0 0 0-1.68.406 6.02 6.02 0 0 0-1.484 1.106V61h-3.458zm21.85-14.588c.905 0 1.736.145 2.492.434.765.29 1.423.714 1.974 1.274.55.55.98 1.232 1.288 2.044.308.803.462 1.722.462 2.758a4.32 4.32 0 0 1-.042.658c-.02.168-.06.303-.126.406-.056.093-.135.163-.238.2-.103.037-.233.056-.392.056H50.24c.103 1.475.5 2.557 1.2 3.248s1.605 1.036 2.744 1.036c.56 0 1.04-.065 1.442-.196.41-.13.765-.275 1.064-.434l.798-.434c.233-.13.457-.196.672-.196a.75.75 0 0 1 .364.084c.103.056.19.135.266.238l1.008 1.26a5.92 5.92 0 0 1-1.288 1.134 7.66 7.66 0 0 1-1.498.728 8.32 8.32 0 0 1-1.582.378c-.532.075-1.05.112-1.554.112-1 0-1.927-.163-2.786-.5a6.36 6.36 0 0 1-2.24-1.47c-.635-.653-1.134-1.456-1.498-2.408-.364-.96-.546-2.072-.546-3.332 0-.98.16-1.9.476-2.758.317-.868.77-1.62 1.358-2.254.597-.644 1.32-1.153 2.17-1.526.86-.373 1.825-.56 2.898-.56zm.07 2.478c-1.008 0-1.797.285-2.366.854s-.933 1.377-1.092 2.422h6.496a4.24 4.24 0 0 0-.182-1.26c-.12-.4-.308-.75-.56-1.05a2.58 2.58 0 0 0-.952-.7c-.383-.177-.83-.266-1.344-.266zM66.4 40.196V61h-3.458V40.196H66.4zm7.602 0V61h-3.458V40.196h3.458zm10.05 6.216c1.073 0 2.044.173 2.912.518a6.28 6.28 0 0 1 2.24 1.47c.616.635 1.092 1.41 1.428 2.324s.504 1.937.504 3.066c0 1.14-.168 2.165-.504 3.08s-.812 1.694-1.428 2.338a6.19 6.19 0 0 1-2.24 1.484c-.868.345-1.84.518-2.912.518s-2.05-.173-2.926-.518-1.63-.84-2.254-1.484c-.616-.644-1.097-1.423-1.442-2.338-.336-.915-.504-1.94-.504-3.08 0-1.13.168-2.15.504-3.066.345-.915.826-1.69 1.442-2.324.625-.635 1.377-1.125 2.254-1.47s1.853-.518 2.926-.518zm0 12.138c1.195 0 2.077-.4 2.646-1.204.58-.803.868-1.98.868-3.528s-.29-2.73-.868-3.542c-.57-.812-1.45-1.218-2.646-1.218-1.213 0-2.11.41-2.688 1.232-.58.812-.868 1.988-.868 3.528s.29 2.716.868 3.528c.58.803 1.475 1.204 2.688 1.204zm24.258-.126c-.634 0-1.204-.15-1.708-.448-.494-.3-.84-.78-1.036-1.442-.55.672-1.134 1.153-1.75 1.442s-1.278.434-1.988.434c-.588 0-1.1-.103-1.54-.308a3.23 3.23 0 0 1-1.092-.84c-.29-.364-.51-.79-.658-1.274-.14-.495-.2-1.03-.2-1.6a6.84 6.84 0 0 1 .196-1.61 6.95 6.95 0 0 1 .616-1.582c.27-.513.607-.99 1.008-1.428.41-.448.892-.835 1.442-1.162.55-.336 1.167-.597 1.848-.784.682-.196 1.438-.294 2.268-.294.72 0 1.335.056 1.848.168a8.08 8.08 0 0 1 1.484.476l-1.344 5.194c-.15.597-.224 1.097-.224 1.498 0 .28.033.513.098.7a1.32 1.32 0 0 0 .28.448c.122.112.266.19.434.238.168.037.35.056.546.056.392 0 .76-.12 1.106-.364.355-.252.663-.602.924-1.05s.467-.98.616-1.596c.16-.616.238-1.288.238-2.016 0-1.213-.19-2.282-.574-3.206-.373-.924-.9-1.694-1.582-2.3-.672-.625-1.48-1.092-2.422-1.4-.942-.317-1.974-.476-3.094-.476-1.222 0-2.36.233-3.416.7a8.47 8.47 0 0 0-2.73 1.89c-.765.803-1.367 1.75-1.806 2.842-.43 1.092-.644 2.268-.644 3.528 0 1.53.238 2.88.714 4.046.476 1.157 1.13 2.128 1.96 2.912.83.775 1.806 1.358 2.926 1.75 1.13.392 2.348.588 3.654.588.72 0 1.39-.042 2.016-.126.626-.075 1.2-.182 1.722-.322.523-.13 1-.285 1.428-.462a8.2 8.2 0 0 0 1.148-.546c.187-.103.346-.154.476-.154.27 0 .462.15.574.448l.476 1.246c-.97.635-2.104 1.153-3.402 1.554s-2.776.602-4.438.602c-1.69 0-3.252-.266-4.7-.798s-2.683-1.297-3.738-2.296c-1.045-.99-1.867-2.198-2.464-3.626-.588-1.428-.882-3.033-.882-4.816 0-1 .126-1.97.378-2.912a11.24 11.24 0 0 1 1.106-2.646 11.36 11.36 0 0 1 1.722-2.282 11.11 11.11 0 0 1 2.24-1.778c.82-.495 1.708-.877 2.66-1.148.962-.28 1.965-.42 3-.42a10.9 10.9 0 0 1 3.808.672 9.77 9.77 0 0 1 3.234 1.904 9.04 9.04 0 0 1 2.254 3.024c.56 1.185.84 2.525.84 4.018 0 1-.15 1.937-.448 2.814-.29.868-.7 1.624-1.232 2.268-.522.644-1.143 1.153-1.862 1.526-.71.364-1.484.546-2.324.546zm-5.796-2.24a2.46 2.46 0 0 0 .728-.112 2 2 0 0 0 .714-.392c.224-.196.43-.453.616-.77s.34-.714.462-1.2l1.022-3.948c-.298-.056-.606-.084-.924-.084-.578 0-1.12.126-1.624.378a4.25 4.25 0 0 0-1.316 1.022c-.364.43-.653.924-.868 1.484-.214.55-.322 1.125-.322 1.722s.126 1.064.378 1.4c.262.327.64.5 1.134.5zm24.438-6.5c-.103.13-.206.233-.308.308-.094.075-.234.112-.42.112a.98.98 0 0 1-.518-.154l-.602-.364c-.234-.14-.514-.26-.84-.364-.318-.112-.714-.168-1.2-.168-.607 0-1.14.112-1.596.336-.458.215-.84.527-1.148.938-.3.41-.523.9-.672 1.498-.15.58-.224 1.237-.224 1.974 0 .765.08 1.447.238 2.044.168.597.406 1.1.714 1.512.308.4.68.71 1.12.924.438.205.933.308 1.484.308s.994-.065 1.33-.196a4.7 4.7 0 0 0 .868-.448l.602-.448c.177-.14.373-.2.588-.2.28 0 .5.107.63.322l.994 1.26a6.45 6.45 0 0 1-1.246 1.134 7.15 7.15 0 0 1-1.4.728 7.22 7.22 0 0 1-1.484.378c-.514.075-1.022.112-1.526.112-.887 0-1.722-.163-2.506-.5a6 6 0 0 1-2.058-1.456c-.58-.635-1.04-1.41-1.386-2.324-.336-.924-.504-1.974-.504-3.15 0-1.055.15-2.03.448-2.926.308-.905.756-1.685 1.344-2.338.588-.663 1.316-1.18 2.184-1.554s1.866-.56 2.996-.56c1.073 0 2.01.173 2.814.518a6.87 6.87 0 0 1 2.184 1.484l-.9 1.26zM130.203 61V46.636h2.03c.355 0 .602.065.742.196s.234.355.28.672l.2 1.736c.514-.887 1.116-1.587 1.806-2.1a3.8 3.8 0 0 1 2.324-.77c.7 0 1.298.163 1.764.5l-.448 2.6c-.028.168-.088.29-.182.364-.093.065-.22.098-.378.098-.14 0-.33-.033-.574-.098s-.564-.098-.966-.098c-.718 0-1.334.2-1.848.602-.513.392-.947.97-1.302 1.736V61h-3.458zm17.366-14.588c.905 0 1.736.145 2.492.434a5.42 5.42 0 0 1 1.974 1.274c.55.55.98 1.232 1.288 2.044.308.803.462 1.722.462 2.758a4.32 4.32 0 0 1-.042.658c-.02.168-.06.303-.126.406a.52.52 0 0 1-.238.21c-.103.037-.233.056-.392.056h-8.876c.103 1.475.5 2.557 1.2 3.248s1.605 1.036 2.744 1.036c.56 0 1.04-.065 1.442-.196a6.44 6.44 0 0 0 1.064-.434l.798-.434c.233-.13.457-.196.672-.196a.75.75 0 0 1 .364.084c.103.056.19.135.266.238l1.008 1.26c-.383.448-.812.826-1.288 1.134-.476.3-.975.54-1.498.728-.513.177-1.04.303-1.582.378-.532.075-1.05.112-1.554.112a7.77 7.77 0 0 1-2.786-.49 6.36 6.36 0 0 1-2.24-1.47c-.635-.653-1.134-1.456-1.498-2.408-.364-.96-.546-2.072-.546-3.332a7.9 7.9 0 0 1 .476-2.758c.317-.868.77-1.62 1.358-2.254a6.47 6.47 0 0 1 2.17-1.526c.86-.373 1.825-.56 2.898-.56zm.07 2.478c-1.008 0-1.797.285-2.366.854s-.933 1.377-1.092 2.422h6.496a4.25 4.25 0 0 0-.182-1.26 2.91 2.91 0 0 0-.56-1.05c-.252-.3-.57-.532-.952-.7-.383-.177-.83-.266-1.344-.266zM167.846 61h-1.554c-.326 0-.583-.047-.77-.14-.186-.103-.326-.303-.42-.602l-.308-1.022c-.364.327-.723.616-1.078.868a6.5 6.5 0 0 1-1.078.616 5.53 5.53 0 0 1-1.19.378c-.42.084-.886.126-1.4.126a5.67 5.67 0 0 1-1.68-.238c-.513-.168-.956-.415-1.33-.742-.364-.327-.648-.733-.854-1.218s-.308-1.05-.308-1.694c0-.54.14-1.073.42-1.596.3-.532.766-1.008 1.428-1.428.663-.43 1.545-.784 2.646-1.064s2.47-.44 4.102-.476v-.84c0-.96-.205-1.67-.616-2.128-.4-.467-.99-.7-1.764-.7-.56 0-1.026.065-1.4.196s-.7.28-.98.448l-.756.434c-.233.13-.5.196-.77.196a1 1 0 0 1-.602-.182c-.168-.12-.303-.27-.406-.448l-.63-1.106c1.652-1.512 3.645-2.268 5.978-2.268.84 0 1.587.14 2.24.42.663.27 1.223.653 1.68 1.148a4.75 4.75 0 0 1 1.036 1.75c.243.68.364 1.428.364 2.24V61zm-6.72-2.156c.355 0 .682-.033.98-.098s.58-.163.84-.294c.27-.13.528-.29.77-.476.252-.196.504-.425.756-.686v-2.422c-1.008.047-1.852.135-2.534.266-.672.12-1.213.28-1.624.476s-.704.425-.882.686a1.55 1.55 0 0 0-.252.854c0 .607.178 1.04.532 1.302.364.26.836.392 1.414.392zm14.838 2.38c-1.24 0-2.198-.35-2.87-1.05-.672-.71-1.008-1.685-1.008-2.926v-8.022h-1.456c-.186 0-.35-.06-.5-.182-.13-.12-.196-.303-.196-.546v-1.372l2.3-.378.728-3.92a.71.71 0 0 1 .252-.434c.14-.103.313-.154.518-.154h1.792v4.522h3.78v2.464h-3.78V57c0 .448.112.798.336 1.05s.523.378.896.378c.215 0 .392-.023.532-.07a2.91 2.91 0 0 0 .378-.168l.294-.154c.084-.056.168-.084.252-.084.103 0 .187.028.252.084.066.047.136.12.2.224l1.036 1.68a5.23 5.23 0 0 1-1.736.952 6.46 6.46 0 0 1-2.03.322zm12.047-14.812c.905 0 1.736.145 2.492.434a5.42 5.42 0 0 1 1.974 1.274c.55.55.98 1.232 1.288 2.044.308.803.462 1.722.462 2.758a4.32 4.32 0 0 1-.042.658c-.02.168-.06.303-.126.406-.056.093-.136.163-.238.2-.103.037-.234.056-.392.056h-8.876c.102 1.475.5 2.557 1.2 3.248s1.605 1.036 2.744 1.036c.56 0 1.04-.065 1.442-.196.4-.13.765-.275 1.064-.434l.798-.434c.233-.13.457-.196.672-.196a.75.75 0 0 1 .364.084c.102.056.19.135.266.238l1.008 1.26c-.383.448-.812.826-1.288 1.134-.476.3-.976.54-1.498.728-.514.177-1.04.303-1.582.378-.532.075-1.05.112-1.554.112-1 0-1.928-.163-2.786-.5-.86-.336-1.606-.826-2.24-1.47-.635-.653-1.134-1.456-1.498-2.408-.364-.96-.546-2.072-.546-3.332 0-.98.158-1.9.476-2.758.317-.868.77-1.62 1.358-2.254a6.46 6.46 0 0 1 2.17-1.526c.858-.373 1.824-.56 2.898-.56zm.07 2.478c-1.008 0-1.797.285-2.366.854s-.934 1.377-1.092 2.422h6.496a4.25 4.25 0 0 0-.182-1.26c-.122-.4-.308-.75-.56-1.05s-.57-.532-.952-.7c-.383-.177-.83-.266-1.344-.266zm11.505 4.704l-4.718-6.958h3.332c.252 0 .44.037.56.112.12.065.23.177.322.336l3 4.802c.047-.16.103-.317.168-.476a4.06 4.06 0 0 1 .266-.476l2.422-3.78c.112-.177.23-.308.35-.392s.27-.126.448-.126h3.178l-4.732 6.804L209.12 61h-3.332c-.252 0-.457-.065-.616-.196-.15-.13-.275-.28-.378-.448l-3.052-4.998c-.084.336-.2.616-.35.84l-2.688 4.158c-.103.16-.23.308-.378.448-.15.13-.336.196-.56.196h-3.094l4.914-7.406zm10.893 5.502a2.23 2.23 0 0 1 .154-.826c.112-.26.26-.485.448-.672a2.3 2.3 0 0 1 .686-.448c.26-.112.54-.168.84-.168.29 0 .565.056.826.168s.485.26.672.448.336.41.448.672.168.537.168.826a2.11 2.11 0 0 1-.168.84c-.112.252-.26.47-.448.658s-.41.33-.672.434c-.26.112-.537.168-.826.168-.3 0-.58-.056-.84-.168-.26-.103-.5-.247-.686-.434-.187-.187-.336-.406-.448-.658a2.27 2.27 0 0 1-.154-.84zm17.21-9.422c-.103.13-.205.233-.308.308-.093.075-.233.112-.42.112-.177 0-.35-.05-.518-.154l-.602-.364c-.233-.14-.513-.26-.84-.364-.317-.112-.714-.168-1.2-.168-.607 0-1.14.112-1.596.336-.457.215-.84.527-1.148.938-.3.41-.523.9-.672 1.498-.15.58-.224 1.237-.224 1.974 0 .765.08 1.447.238 2.044.168.597.406 1.1.714 1.512.308.4.68.71 1.12.924a3.46 3.46 0 0 0 1.484.308c.55 0 .994-.065 1.33-.196.345-.14.635-.29.868-.448l.602-.448c.177-.14.373-.2.588-.2.28 0 .5.107.63.322l.994 1.26a6.45 6.45 0 0 1-1.246 1.134 7.15 7.15 0 0 1-1.4.728 7.22 7.22 0 0 1-1.484.378 10.58 10.58 0 0 1-1.526.112c-.887 0-1.722-.163-2.506-.5a6 6 0 0 1-2.058-1.456c-.58-.635-1.04-1.41-1.386-2.324-.336-.924-.504-1.974-.504-3.15 0-1.055.15-2.03.448-2.926.308-.905.756-1.685 1.344-2.338.588-.663 1.316-1.18 2.184-1.554s1.867-.56 2.996-.56c1.073 0 2.01.173 2.814.518a6.87 6.87 0 0 1 2.184 1.484l-.9 1.26zm9.382-3.262c1.073 0 2.044.173 2.912.518.877.345 1.624.835 2.24 1.47s1.092 1.41 1.428 2.324.504 1.937.504 3.066c0 1.14-.168 2.165-.504 3.08s-.812 1.694-1.428 2.338-1.363 1.14-2.24 1.484c-.868.345-1.84.518-2.912.518s-2.05-.173-2.926-.518-1.63-.84-2.254-1.484c-.616-.644-1.097-1.423-1.442-2.338-.336-.915-.504-1.94-.504-3.08 0-1.13.168-2.15.504-3.066.345-.915.826-1.69 1.442-2.324a6.42 6.42 0 0 1 2.254-1.47c.877-.345 1.853-.518 2.926-.518zm0 12.138c1.195 0 2.077-.4 2.646-1.204.58-.803.868-1.98.868-3.528s-.29-2.73-.868-3.542c-.57-.812-1.45-1.218-2.646-1.218-1.213 0-2.11.41-2.688 1.232-.58.812-.868 1.988-.868 3.528s.29 2.716.868 3.528c.58.803 1.475 1.204 2.688 1.204zm9.782 2.45V46.636h2.114c.448 0 .742.2.882.63l.224 1.064a8.64 8.64 0 0 1 .784-.77c.28-.233.574-.434.882-.602a4.69 4.69 0 0 1 1.008-.392c.364-.103.76-.154 1.2-.154.905 0 1.647.247 2.226.742.588.485 1.027 1.134 1.316 1.946a4.28 4.28 0 0 1 .84-1.218c.336-.345.705-.625 1.106-.84s.826-.373 1.274-.476c.457-.103.915-.154 1.372-.154.793 0 1.498.12 2.114.364s1.134.597 1.554 1.064.737 1.036.952 1.708c.224.672.336 1.442.336 2.3V61h-3.458v-9.142c0-.915-.2-1.6-.602-2.058-.4-.467-.99-.7-1.764-.7-.355 0-.686.06-.994.182-.3.12-.565.3-.798.532-.224.224-.4.51-.532.854s-.196.742-.196 1.2V61H255.2v-9.142c0-.96-.196-1.66-.588-2.1-.383-.44-.952-.658-1.708-.658-.495 0-.96.126-1.4.378-.43.243-.83.58-1.204 1.008V61h-3.458z" fill="#fff"/></svg>