<svg xmlns="http://www.w3.org/2000/svg" width="100" height="30" fill="none" xmlns:v="https://vecta.io/nano"><path d="M30.495 1H25.94v28.317h4.555V1zm15.94 19.307c0 4.257-3.663 4.653-4.653 4.653-2.673 0-3.267-2.574-3.267-4.158V10.108H33.96V20.9c0 2.673.9 4.85 2.277 6.436 1.287 1.287 3.267 1.98 5.446 1.98 1.584 0 3.663-.396 4.654-1.584v1.584h4.554V10.108h-4.554v10.198h.1zM59.9 3.277h-4.554v6.832H51.98v4.555h3.366v14.653H59.9V14.664h3.366V10.1H59.9V3.277zm17.625 20.297c-1 .9-2.277 1.386-3.663 1.386-3.168 0-5.446-2.277-5.446-5.545s2.277-5.446 5.446-5.446c1.386 0 2.673.396 3.663 1.386l.693.594 2.97-2.97-.693-.693c-1.88-1.584-4.158-2.574-6.634-2.574-5.644-.1-9.802 3.96-9.802 9.703 0 5.544 4.257 9.802 9.802 9.802 2.574 0 4.95-.9 6.832-2.574l.693-.693-3.168-3.168-.693.792zm20-11.782c-1.287-1.287-2.87-1.98-4.95-1.98-1.584 0-3.267.396-4.455 1.584V1h-4.554v28.317h4.554V18.624c0-4.257 3.168-4.653 4.158-4.653 2.673 0 2.673 2.574 2.673 4.158v11.188h4.555V18.03c.1-2.475-.495-4.752-1.98-6.238z" fill="#17313b"/><path d="M73.663 22.783a3.27 3.27 0 0 0 3.267-3.267 3.27 3.27 0 0 0-3.267-3.267 3.27 3.27 0 0 0-3.267 3.267 3.27 3.27 0 0 0 3.267 3.267z" fill="#ff3d2e"/><path d="M19.703 22.188c-1.683 1.683-4.158 2.673-6.535 2.673-5.148 0-8.812-3.96-8.812-9.406S8.02 6.05 13.07 6.05c2.376 0 4.653 1 6.535 2.673l.693.693 2.97-2.97-.693-.693c-2.574-2.574-5.94-3.96-9.505-3.96C5.545 1.89 0 7.733 0 15.554s5.545 13.663 13.07 13.663c3.663 0 7.13-1.386 9.505-3.96l.693-.693-2.97-3.168-.594.792z" fill="#17313b"/></svg>