<svg xmlns="http://www.w3.org/2000/svg" width="100" height="30" fill="#33629a" xmlns:v="https://vecta.io/nano"><path d="M56.253 3v8.017l.345-.154c1.284-.663 2.66-.923 4.086-.805 1.77.146 3.187.997 4.272 2.4 1.05 1.346 1.575 2.896 1.728 4.585.178 1.956-.02 3.863-.796 5.677-1.16 2.712-3.253 4.293-6.114 4.885-1.517.314-3.05.284-4.574.087l-3.512-.565c-.28-.044-.386-.16-.382-.47l.136-13.02a145.73 145.73 0 0 0-.079-5.359c-.02-.622-.125-1.248-.257-1.858-.186-.858-.787-1.272-1.637-1.363-.436-.047-.496-.103-.44-.496.014-.102.133-.253.225-.27l6.727-1.254c.088-.016.178-.017.274-.026zm-.037 14.502h-.092l.162 8.377c.012.612.007.62.596.7 1 .14 1.905-.1 2.63-.853.545-.574.926-1.246 1.213-1.974.785-1.994 1-4.077.878-6.194-.063-1.2-.284-2.38-.8-3.484-.32-.683-.72-1.303-1.35-1.742-.945-.66-1.952-.58-2.985-.247-.206.067-.257.17-.256.368l.004 5.047zm-39.2-6.088v8.025c-.05.017-.08.037-.1.038-.76.04-.763.04-.955-.687-.173-.656-.4-1.287-.844-1.816a2.15 2.15 0 0 0-1.642-.797l-2.434-.13c-.293-.02-.382.1-.372.37l.182 5.525c.028.962.108 1.915.424 2.833.3.902.922 1.412 1.887 1.497.34.03.673.12 1 .176.454.076.212.428.253.658.043.244-.157.23-.32.23-3.907 0-7.814.001-11.72-.002-.15 0-.367.044-.335-.212.03-.246-.193-.604.262-.694.358-.07.714-.15 1.074-.207.782-.124 1.257-.602 1.54-1.308.338-.84.45-1.73.466-2.618l.125-10.822c-.005-1.55-.193-3.1-.327-4.648-.03-.333-.157-.666-.286-.98-.352-.86-1.036-1.27-1.94-1.35-.24-.022-.48-.032-.714-.08-.08-.017-.185-.127-.2-.207a1.58 1.58 0 0 1 0-.547c.016-.087.126-.183.216-.222s.203-.01.306-.01H21.28l.074 1.916.078 4.43c.006.267-.082.375-.338.446-.728.204-.723.217-.988-.5-.438-1.187-.963-2.33-1.866-3.246-.864-.877-1.916-1.352-3.156-1.363l-3.918-.008c-.08 0-.157.01-.26.02-.02.13-.053.25-.056.373l-.207 8.963c-.014.333.116.408.427.382.695-.057 1.394-.122 2.1-.1 1.25.02 2.016-.623 2.464-1.713.177-.43.297-.887.402-1.34.046-.2.113-.274.3-.265.214.01.43.002.67.002zm2.046 7.812c-.007-2.452.466-4.38 1.674-6.078 1.355-1.906 3.23-2.96 5.538-3.245 1.48-.183 2.946-.118 4.366.374 2.027.702 3.498 2.046 4.293 4.03 1.274 3.18 1.297 6.367-.348 9.43-1.295 2.4-3.4 3.686-6.113 4.004-1.424.168-2.833.1-4.198-.372-2.28-.772-3.76-2.362-4.577-4.596-.464-1.27-.647-2.586-.634-3.545zm5.098-.637l.1 1.885.22 1.903c.2 1.198.53 2.363 1.263 3.367.8 1.096 2.263 1.286 3.252.418.458-.402.746-.92.96-1.482.585-1.542.665-3.165.737-4.785.068-1.523-.004-3.043-.268-4.547-.2-1.186-.52-2.342-1.23-3.345-1.072-1.512-2.944-1.454-3.887.138-.236.398-.417.842-.548 1.287-.492 1.684-.564 3.42-.588 5.16zm58.622 5.505l.23.274c.195.187.174.348.005.555-.7.86-1.54 1.548-2.544 2-3.228 1.45-6.325 1.246-9.168-.934-1.662-1.274-2.553-3.065-2.9-5.1-.366-2.1-.2-4.148.648-6.116 1.166-2.704 3.184-4.375 6.105-4.845 1.53-.246 3.06-.2 4.498.502 1.847.888 2.882 2.436 3.372 4.354.236.922.292 1.9.43 2.837.042.286-.076.368-.36.368l-9.348-.005c-.53 0-.542.001-.52.533.065 1.716.362 3.368 1.435 4.78.95 1.248 2.236 1.87 3.785 2.017 1.594.15 3.043-.187 4.342-1.217zm-4.4-7.454c.01-.108.03-.187.024-.264l-.157-2.324c-.108-.838-.297-1.665-.777-2.4-.536-.8-1.435-.984-2.23-.426-.545.382-.874.93-1.14 1.518-.502 1.116-.754 2.294-.835 3.5-.035.52-.037.52.48.5l3.743-.08.893-.056zm17.522-1.298l-.853-1.927c-.34-.696-.8-1.318-1.44-1.764-.778-.535-1.638-.756-2.572-.552s-1.612 1.014-1.756 1.974c-.16 1.072.233 1.872 1.086 2.5.946.684 2.02 1.114 3.085 1.56.975.407 1.92.86 2.706 1.6.9.83 1.277 1.865 1.312 3.06.043 1.437-.308 2.738-1.26 3.846-.944 1.097-2.175 1.684-3.562 1.98-1.565.333-3.14.284-4.703.013-1.007-.174-1.995-.462-3-.7-.2-.048-.296-.156-.3-.386l-.078-4.43c-.014-.435.312-.374.54-.463.282-.1.26.16.3.3.42 1.082.896 2.136 1.697 2.998 1.068 1.15 2.38 1.6 3.913 1.2.98-.255 1.574-.944 1.797-1.93.236-1.043-.055-1.948-.948-2.525-.75-.486-1.584-.86-2.4-1.2-.948-.4-1.92-.738-2.76-1.356-1.404-1.033-1.913-2.46-1.802-4.144.144-2.187 1.623-3.992 3.78-4.7 1.412-.47 2.85-.477 4.305-.357 1.088.1 2.142.32 3.17.688.258.093.344.223.345.497l.062 3.434c.01.673.006.673-.674.837zm-49.84 11.145c.024.063.04.084.04.105.01.922.098.745-.687.747-3 .008-6.003.005-9.004-.001-.146 0-.4-.04-.418-.107-.053-.214-.024-.45-.008-.676.002-.033.105-.073.166-.086l.64-.12c.655-.085 1.102-.467 1.235-1.078a12.27 12.27 0 0 0 .277-2.268l.07-6.25a24.24 24.24 0 0 0-.193-2.974c-.167-1.292-.57-1.647-1.848-1.776-.298-.03-.395-.134-.384-.424.008-.2.078-.3.28-.35l3.855-.773L43 9.863c.054-.01.1-.015.2-.027v3.817l.222-.372c.532-1.042 1.2-1.985 2.168-2.66 1.265-.873 2.62-1.134 4.092-.57.306.117.38.256.252.585l-1.476 3.906-.13.324-.9-.447c-1.18-.467-2.37-.552-3.56-.025-.46.204-.728.48-.722 1.06l-.027 5.805a34.28 34.28 0 0 0 .265 3.621c.13 1.053.675 1.476 1.733 1.526l.96.08z"/></svg>