<svg xmlns="http://www.w3.org/2000/svg" width="60" height="35" fill="none" xmlns:v="https://vecta.io/nano"><g clip-path="url(#A)"><path d="M51.145 11.665c.225 0 .436.057.62.157.406.22.682.65.682 1.146v3.702h3.584c.72 0 1.303.583 1.303 1.303s-.583 1.303-1.303 1.303h-3.584v3.513c0 .72-.583 1.303-1.303 1.303-.15 0-9.98-.004-9.98-.004-.72 0-1.303-.583-1.303-1.303v-4.87h.003c.03-.692.6-1.244 1.3-1.244h8.677v-2.4H39.827l-4.753 8.82a1.3 1.3 0 0 1-.713.927c-.182.087-.374.13-.563.13-.452 0-.887-.237-1.126-.647-.048-.073-.09-.15-.12-.232L28.796 15.9l-3.798 7.204c-.164.386-.405.728-.79.914-.182.087-.374.13-.563.13-.452 0-.887-.237-1.126-.646a1.32 1.32 0 0 1-.122-.232l-4.584-8.997h-7.656v2.4h6.2c.72 0 1.303.583 1.303 1.303s-.583 1.303-1.303 1.303h-6.2v3.584c0 .72-.583 1.303-1.303 1.303s-1.303-.583-1.303-1.303v-3.584H3.97c-.72 0-1.303-.583-1.303-1.303S3.25 16.67 3.97 16.67h3.583v-3.702c0-.495.276-.925.682-1.146a1.3 1.3 0 0 1 .621-.157h9.714c.21 0 .4.05.587.14.273.12.505.335.645.625l3.842 7.54 3.854-7.203c.194-.394.3-.75.718-.95.182-.087.374-.13.563-.13a1.31 1.31 0 0 1 .876.338 1.58 1.58 0 0 1 .51.627l3.63 7.316 4.076-7.562a1.3 1.3 0 0 1 .419-.445 1.3 1.3 0 0 1 .832-.3h12.024zm-8.736 9.817h7.433v-2.206H42.41v2.206zM51.145 9H39.12a3.98 3.98 0 0 0-2.416.82c-.47.334-.867.772-1.152 1.272l-.015.027-.015.027-1.663 3.085s-1.93-3.78-2.49-4.24c-.722-.622-1.64-.964-2.594-.964a3.99 3.99 0 0 0-1.718.392c-1.034.497-1.607 1.41-2.094 2.482l-1.255 2.33-1.524-2.99a3.97 3.97 0 0 0-1.887-1.843C19.76 9.137 19.164 9 18.57 9H8.855a3.98 3.98 0 0 0-1.893.48c-1.28.695-2.075 2.032-2.075 3.488v1.037H3.97c-2.188 0-3.97 1.78-3.97 3.968s1.78 3.968 3.97 3.968h.918v.918c0 2.188 1.78 3.968 3.97 3.968s3.968-1.78 3.968-3.968v-.918h3.524c.763 0 1.476-.216 2.08-.59l1.554 3.05a4 4 0 0 0 .271.506 3.98 3.98 0 0 0 3.391 1.906 3.99 3.99 0 0 0 1.718-.392c.968-.465 1.81-1.25 2.238-2.258l1.13-2.52 1.406 2.76a3.96 3.96 0 0 0 .27.503 3.98 3.98 0 0 0 3.392 1.908 3.99 3.99 0 0 0 1.718-.392c.907-.436 1.612-1.208 1.976-2.136.593 1.447 2.017 2.47 3.674 2.47l9.98.003c2.188 0 3.968-1.708 3.968-3.897v-.918h.918c2.188 0 3.968-1.78 3.968-3.968s-1.78-3.968-3.968-3.968h-.918v-1.037c0-1.456-.795-2.792-2.075-3.488A3.98 3.98 0 0 0 51.145 9z" fill="#b3b7bc"/></g><defs><clipPath id="A"><path fill="#fff" d="M0 0h60v35H0z"/></clipPath></defs></svg>