<svg xmlns="http://www.w3.org/2000/svg" width="120" height="64" fill="#000" xmlns:v="https://vecta.io/nano"><path d="M49.31 28.02c-1.806-.356-3.694-.164-5.856.383-1.505.384-1.75 1.587-1.615 2.27.19.958 1.286 1.423 2.19 1.095 1.67-.63 3.366-.903 5.036-.63.903.137 1.697.85 1.697 2.82v.137c-5.528-.164-10.3 1.204-10.208 5.83.027 2.82 2.463 4.87 5.966 5.446 1.012.164 7.88-1.04 7.88-1.697V33.056c0-3.45-2.573-4.57-5.1-5.036zm1.286 13.52c0 .274-2.326.74-3.695.74s-2.573-1.177-2.573-2.134c0-3.12 3.886-2.792 6.267-2.928v4.323zM36.583 28.73c-1.505 0-1.888 1.04-1.888 1.806l-.11 10.372c-6.158 2.572-13.464-.3-13.6-8.183-.137-7.635 7.7-10.892 14.012-8.43 2.08.82 3.858-2.408 1.423-3.366 0 0-4.98-1.697-8.84-.85-2.244.492-5.446 1.56-7.827 4.324-1.67 1.97-3.12 4.87-3.065 8.347-.164 10.3 10.427 15.6 21.73 10.974l.055-13.2c0-.766-.356-1.806-1.89-1.806zm46.33-.875c-4.953 0-8.976 3.995-8.976 8.867 0 4.898 4.023 8.894 8.976 8.894 4.926 0 8.95-3.995 8.95-8.894 0-4.872-4.023-8.867-8.95-8.867zm.055 14.34c-2.79 0-5.063-2.463-5.063-5.473 0-2.983 2.27-5.446 5.063-5.446 2.764 0 5.035 2.463 5.035 5.446 0 3-2.272 5.473-5.035 5.473zm20.114-13.546c-4.844-1.916-8.538.273-8.566.273-.3.192-.71.492-.71.52v14.53c0 2.107 3.558 2.107 3.558 0V31.523c.93-.3 2.353-.957 4.624-.055 1.97.767 3.065-2.052 1.095-2.82zm-33.196 1.89c-1.396-1.26-3.284-2.08-5.528-2.217-3.092-.3-3.722 3.174-1.176 3.147 1.614-.055 3.42.192 4.652 1.314.82.767 1.013 1.888 1.067 3.45 0 .246 0 .52-.027.82-.657 4.734-4.35 6.24-7.964 4.734v-20.06c0-1.97-3.31-2.216-3.31 0V43.81c0 .1.465.192.82.383.027 0 3.476 1.56 5.91 1.26 1.423-.19 3.83-.82 5.6-2.71 1.232-1.314 2.162-3.12 2.3-5.528.027-.356.027-.74 0-1.094-.082-2.41-.903-4.27-2.354-5.583zm36.008-8.7c-.225 0-.45.044-.658.13a1.73 1.73 0 0 0-.558.373 1.72 1.72 0 0 0-.372.558 1.71 1.71 0 0 0-.131.658c-.001.226.044.45.13.658s.213.398.373.558a1.72 1.72 0 0 0 .558.373c.208.087.432.13.658.13a1.72 1.72 0 0 0 1.72-1.719 1.72 1.72 0 0 0-1.72-1.72zm0 3.212a1.49 1.49 0 0 1-1.055-.437c-.28-.28-.438-.66-.438-1.056s.158-.776.438-1.056a1.49 1.49 0 0 1 1.055-.437c.396 0 .776.157 1.056.437a1.49 1.49 0 0 1 0 2.111c-.28.28-.66.437-1.056.437z"/><path d="M106.654 24.278l-.016-.35c-.01-.27-.12-.318-.232-.364.124-.073.27-.178.27-.464 0-.4-.318-.52-.637-.52h-.895v1.937h.262v-.83h.634c.313 0 .345.186.345.346 0 .073.008.367.046.486h.32v-.043c-.082-.046-.095-.087-.098-.194zm-.642-.817h-.607v-.658h.653c.13 0 .348.024.348.324 0 .286-.202.334-.394.334z"/></svg>