<svg xmlns="http://www.w3.org/2000/svg" width="120" height="64" fill="#cc4438" fill-rule="evenodd" xmlns:v="https://vecta.io/nano"><path d="M91.664 20.528l9.033.08.507.188 2.075 2.823c1.08-1.578 2.573-2.5 4.4-2.905s3.57-.415 5.397 0a2.11 2.11 0 0 1 1.078.498v5.728c-.415.415-.83.415-1.328 0l-.747-.415-.664-.332c-.997-.25-1.66-.083-2.242.332-.414.415-.498.913-.414 1.494.414.664.996 1.245 1.99 1.66l2.16 1.08c1.412.996 2.49 1.993 3.238 3.238.663 1.245.913 2.74.83 4.234 0 .996-.332 1.992-.83 2.905-.582.996-1.246 1.66-2.242 2.407-1.412.83-3.07 1.245-4.814 1.328-1.993 0-3.653-.415-4.982-1.245l-1.41-.913-.663 1.33c-.416.58-.748.83-.83.746l-9.962.083c-.83-.083-1.412-.664-1.827-1.328l-.25-.83V22.207c.19-.946 1.628-1.646 2.498-1.68zm9.955 14.93c-.125.337-.31 1.027-.746 1.027h-4.566v2.076h6.142l.83-1.245c.248-.416.664-.748 1.078-.748l2.243 1.577c.83.416 1.66.664 2.323.83.664 0 1.08-.332 1.412-.996.083-.83-.167-1.494-.996-1.9l-1.08-.415-.996-.58c-3.736-2.657-5.396-5.23-5.23-7.887h-5.563l-.166 2.5h4.566c.468.102.608.45.7.83l.047 4.95zM2 15.565v28.807c0 .415.25.497.664.497h7.886c.415 0 .664-.248.664-.664v-10.79h5.147v10.79l.166.416.498.248 7.388.333c.25 0 .498-.167.664-.416l.166-.58v-28.39c0-.498 0-.913-.166-1.08-.166-.415-.25-.664-.664-.664-2.823-.166-5.396 0-7.804.083-.25 0-.415.415-.415 1.41v8.716l-.083.166h-4.898l-.083-.166V16.23c0-.664 0-1.245-.166-1.33-.166-.58-.248-.83-.664-.83-2.823-.166-5.396 0-7.803.083-.25 0-.416.415-.5 1.41zm79.28 5.147a34.88 34.88 0 0 1 5.894 0l.416.083.166.58.167 22.83c-.332.416-.58.58-.748.664H81.28a1.07 1.07 0 0 1-.831-.829V24.448l-1.577 2.5-1.66 2.158c-.25.166-.665 0-1.08-.415l-1.08-.664a4.64 4.64 0 0 0-2.822-.415c-.913.166-1.744.58-2.5 1.245-1.494 1.41-2.075 2.906-1.66 4.566.166.83.415 1.66 1.16 2.323.5.748 1.245 1.245 2.076 1.578l.5.248c.332 0 .415-.166.58-.248v-4.566c.166-.416.664-.748 1.41-.748h4.4l.83.167c.25.166.415.415.415.664v10.294c-.664.415-1.412.83-2.24 1.078-2.325.997-4.982.997-7.555.167-2.407-.748-4.566-2.076-6.64-3.902l-.748-.83-.497-.83v4.15c-2.242 1.412-4.566 2.075-6.974 1.91-2.324 0-4.65-.664-6.9-1.91-1.827-.996-3.072-2.24-3.985-3.735-.747 1.494-1.827 2.905-3.238 3.902-1.494 1.245-2.988 1.743-4.566 1.91-1.743.167-3.32-.25-4.815-.996-1.41-.664-2.5-1.744-3.486-3.155-.664-1.245-1.246-2.5-1.328-3.984V21.542c0-.166.083-.332.25-.58l.58-.25c1.494-.166 3.404-.166 5.645 0l.415.25.25.58V36.9c0 .416.332.664.83.913h1.246c.415-.083.747-.497.83-1.078V21.542c0-.166.166-.332.333-.58l.498-.25c1.827-.332 3.902-.332 6.226 0 .332 0 .58.415.747 1.245v4.15c1.494-2.075 3.32-3.735 5.645-4.732s4.732-1.08 7.223-.664c2.324.498 4.15 1.494 5.23 2.74.166.166.166.25 0 .58l-3.32 5.064c-.166.332-.25.415-.415.332-.664-.747-1.41-1.162-2.24-1.41-.913-.25-1.744-.25-2.574 0-.747.166-1.578.415-2.242 1.08-.664.58-1.08 1.245-1.41 2.076-.25.83-.25 1.66-.083 2.5.083.997.415 1.66.913 2.242.997 1.245 1.992 1.826 3.238 1.826l.083-.167v-4.73c0-.416.332-.664.83-.83h5.562c0-2.158.582-4.234 1.827-6.226 1.245-1.91 2.74-3.32 4.815-4.233 1.9-.996 4.15-1.41 6.64-1.162 2.5.332 4.566 1.162 6.06 2.5h.332v-1.495c.082-.415.414-.664.83-.664zM98.796 45.7h.83c.746 0 1.16.167 1.41.416.415.415.58.83.58 1.41s-.166.997-.58 1.245c-.25.25-.664.416-1.41.416h-.83V45.7zm.83 2.823c.414 0 .746 0 .996-.167l.25-.83c0-.415-.084-.83-.416-.996-.083-.083-.497-.083-.913-.083v2.076h.084v.001zm2.24-2.823h.664v3.487h-.664V45.7zm.664 3.487l1.577-3.487h.415l1.328 3.487h-.663l-.25-.997h-1.245l-.415.997h-.748zm2.075-1.495l-.414-.997-.25.997h.663zm1.412 1.495V45.7h.83c.416 0 .83.167.998.332.248.084.414.416.414.83s-.166.664-.414.83c-.167.083-.582.25-.998.25h-.165v1.245h-.664 0zm.83-1.91h.416c.166-.166.25-.332.25-.415l-.25-.415h-.58v.83h.165zm3.488-.83h-1.245v.664h1.245v.664h-1.245v.748h1.245v.664h-1.827V45.7h1.827v.748zm2.158-.416c.332.084.414.416.414.83 0 .25-.082.5-.247.664s-.416.25-.665.416l.913 1.245h-.83l-.83-1.412v1.412h-.663V45.7h.996c.414.001.83.167.912.332zm-.415.5l-.5-.083h-.33v.913h.33c.25 0 .415 0 .5-.084.166-.166.166-.332.166-.415 0-.166 0-.332-.166-.332zm1.41-.5l.663-.332c.333 0 .582.167.748.332l.25.664h-.664a.39.39 0 0 0-.415-.415c-.166 0-.332.167-.332.415 0 .167.167.25.414.416.416.166.582.166.748.25.25.166.415.415.415.83a.87.87 0 0 1-.415.748c-.167.083-.415.25-.748.25-.414 0-.663-.167-.83-.25-.083-.167-.25-.415-.25-.748h.582c0 .333.082.416.497.416.333 0 .416-.083.416-.416 0-.248-.083-.415-.5-.497l-.746-.332-.083-.665.248-.664zm3.32-25.07c.416 0 .83.166 1.08.58.415.415.58.83.58 1.245s-.166.83-.58 1.245c-.25.25-.664.415-1.08.415-.58 0-.996-.166-1.245-.415-.414-.415-.58-.83-.58-1.245s.167-.83.58-1.245c.25-.415.664-.58 1.245-.58zm0 .25c-.414 0-.83.166-1.078.415-.332.332-.416.747-.416 1.162s.084.664.416.913c.248.415.664.58 1.078.58s.664-.166.998-.58c.248-.25.414-.498.414-.913s-.166-.83-.414-1.162c-.334-.25-.582-.415-.998-.415z"/><path d="M116.977 21.79c.414 0 .663.166.663.58 0 .25-.167.415-.25.415.083.083.083.25.083.498l.167.415h-.415l-.166-.415c0-.083-.083-.25-.25-.25h-.414v.664h-.416v-1.91h.997v-.001zm-.58.415v.415h.414c.25 0 .416-.166.416-.25l-.25-.166h-.58z"/></svg>