<svg xmlns="http://www.w3.org/2000/svg" width="100" height="30" fill="none" xmlns:v="https://vecta.io/nano"><path d="M27.328 18.843c-1.625 0-3.148-.688-4.53-1.808l.337-1.58.015-.06c.3-1.684 1.252-4.51 4.18-4.51a3.99 3.99 0 0 1 3.982 3.982c-.007 2.19-1.794 3.975-3.982 3.975zm0-11.99c-3.74 0-6.64 2.43-7.818 6.428-1.8-2.7-3.163-5.944-3.96-8.675h-4.026V15.08c0 2.065-1.684 3.748-3.748 3.748s-3.748-1.684-3.748-3.748V4.604H0V15.08c-.015 4.3 3.477 7.81 7.767 7.81s7.782-3.52 7.782-7.81v-1.757c.783 1.633 1.742 3.28 2.906 4.744l-2.467 11.596H20.1l1.786-8.41c1.567 1.003 3.367 1.633 5.432 1.633 4.414 0 8.01-3.616 8.01-8.03a8.02 8.02 0 0 0-8.009-8.001z" fill="#6fda44"/><path d="M47.628 7.306l2.6 10.476L53.1 7.306h3.41l-4.4 15.14H48.7l-2.7-10.542-2.694 10.534h-3.41l-4.4-15.14h3.41l2.862 10.476 2.6-10.476h3.272v.007zm17.035-.454a8.02 8.02 0 0 0-8.016 8.016 8.02 8.02 0 0 0 8.016 8.016c4.43 0 8.023-3.587 8.023-8.016s-3.594-8.016-8.023-8.016zm0 12.738a4.71 4.71 0 0 1-4.715-4.714c0-2.606 2.116-4.714 4.715-4.714a4.71 4.71 0 0 1 4.715 4.714c0 2.6-2.108 4.714-4.715 4.714zm17.767-8.894c-2.29 0-4.144 1.86-4.144 4.143v7.6h-3.433V7.306h3.433v2.328S79.75 7.3 82.76 7.3h1.054v3.397H82.43zm11.523 3.587c2.438-1.376 4.092-4 4.092-6.984h-3.433a4.58 4.58 0 0 1-4.575 4.575h-.46V0h-3.433v22.438h3.433v-7.13h.4a1.36 1.36 0 0 1 .974.491l4.876 6.64h4.114l-5.996-8.155z" fill="#000"/></svg>