<svg xmlns="http://www.w3.org/2000/svg" width="60" height="35" fill="none" xmlns:v="https://vecta.io/nano"><g clip-path="url(#A)" fill="#f52f6e"><path d="M0 18.766v2.663c20.607-1.226 5.282-1.862 0-2.663zm0 4.4v2.615l.172.043c15.7-1.45 11.193-1.977-.172-2.658zM0 0v8.6c12.92-.437 12.984-1.17 6.284-2.057L7.5 5.08c8.273 1.27 7.748 3.35 1.808 4.4 2 .7 9.046 1.997.516 4.562 1.388.377 9.216 2.315-.516 4.046 1.542.696 9.723 1.695.344 4.218 2.43.4 8.67 1.73.43 4.4 3.115.326 3.467.434 4.304 1.894v5.595h3.787V0H0zm0 14.72v2.67c3.876-.762 21.57-1.072 0-2.668zm0-4.548v2.826c12.113-.652 16.205-1.495 0-2.826zm22.6-1.06h-2.067v-.406h4.573v.406H23.05v5.522h-.44V9.113zm3.626-.406h.44v2.744h3.794V8.707h.44v5.928h-.44v-2.778h-3.794v2.778h-.44V8.707zm6.216 0h4.218v.406h-3.777v2.33h3.396v.407h-3.396v2.38h3.82v.406h-4.26v-5.93zM20.85 18.042h1.967l1.17 3.887 1.296-3.906h1.603l1.295 3.906 1.17-3.887h1.93l-2.246 6.766h-1.622L26.07 20.94l-1.353 3.867h-1.622l-2.246-6.766zm10.434 3.305v-.025c0-2.02 1.444-3.617 3.5-3.617 2.377 0 3.476 1.75 3.476 3.783l-.013.5H33.6c.2.754.74 1.137 1.495 1.137.588 0 1.035-.217 1.534-.703l1.342 1.112c-.664.843-1.623 1.406-3 1.406-2.172 0-3.707-1.457-3.707-3.6zm4.703-.6c-.1-.767-.55-1.253-1.214-1.253-.64 0-1.073.486-1.2 1.253h2.415zm3.583-2.704h3.446c.845 0 1.44.2 1.833.595a1.51 1.51 0 0 1 .432 1.094v.02c0 .777-.442 1.238-1.037 1.497.816.27 1.334.73 1.334 1.64v.02c0 1.152-.94 1.853-2.544 1.853H39.57v-6.72zm3.878 2.073c0-.374-.297-.576-.844-.576h-1.22v1.18h1.17c.566 0 .892-.192.892-.585v-.02zm-.643 1.9h-1.42v1.238h1.44c.576 0 .893-.22.893-.614v-.02c0-.365-.288-.605-.912-.605zm4.21-3.973h3.446c.845 0 1.44.2 1.833.595a1.51 1.51 0 0 1 .432 1.094v.02c0 .777-.442 1.238-1.037 1.497.816.27 1.334.73 1.334 1.64v.02c0 1.152-.94 1.853-2.543 1.853h-3.465v-6.72zm3.877 2.073c0-.374-.297-.576-.844-.576h-1.22v1.18H50c.566 0 .892-.192.892-.585v-.02zm-.643 1.9h-1.42v1.238h1.44c.576 0 .893-.22.893-.614v-.02c0-.365-.288-.605-.912-.605zm5.336.23l-2.563-4.204h2.12l1.382 2.447 1.392-2.447H60l-2.554 4.175v2.543h-1.86v-2.515zM23.9 27.633h.424l2.76 5.97h-.482l-.754-1.66H22.34l-.754 1.66h-.457l2.76-5.97zm1.762 3.913l-1.558-3.43-1.567 3.43h3.125zm1.388-3.87h.5l1.863 5.276 1.736-5.294h.338l1.737 5.294 1.863-5.276h.457l-2.15 5.97h-.356l-1.736-5.15-1.736 5.15H29.2l-2.15-5.97zm11.358-.04h.423l2.76 5.97h-.48l-.754-1.66h-3.498l-.754 1.66h-.457l2.76-5.97zm1.762 3.913l-1.56-3.43-1.567 3.43h3.125zm2.44-3.874h2.5c.73 0 1.313.23 1.67.584.28.28.45.678.45 1.1v.017c0 1-.737 1.56-1.736 1.694l1.956 2.533h-.56L45 31.148h-1.94v2.456h-.44v-5.93zm2.44 3.074c1 0 1.727-.5 1.727-1.355v-.017c0-.796-.626-1.296-1.702-1.296H43.04v2.668h2zm3.48-3.074h1.973c1.863 0 3.15 1.28 3.15 2.947v.017c0 1.67-1.287 2.965-3.15 2.965H48.52v-5.93zm.44.406v5.116h1.533c1.65 0 2.693-1.127 2.693-2.54v-.017c0-1.405-1.042-2.558-2.693-2.558H48.96zm5.495 4.658l.288-.33c.653.6 1.254.88 2.126.88.9 0 1.5-.5 1.5-1.177v-.017c0-.627-.33-1-1.676-1.262-1.423-.288-2-.77-2-1.67v-.017c0-.88.805-1.558 1.906-1.558a2.95 2.95 0 0 1 2.032.72l-.28.347a2.55 2.55 0 0 0-1.77-.669c-.872 0-1.448.5-1.448 1.118v.017c0 .627.322 1.008 1.727 1.296 1.372.28 1.95.77 1.95 1.635v.017c0 .957-.822 1.618-1.965 1.618-.948 0-1.677-.313-2.4-.948z"/></g><defs><clipPath id="A"><path fill="#fff" d="M0 0h60v35H0z"/></clipPath></defs></svg>