<svg width="87" height="96" viewBox="0 0 87 96" fill="none" xmlns="http://www.w3.org/2000/svg">
<path d="M57.6393 72.5321H28.7446C27.2239 72.5321 26.21 73.5594 25.7031 74.5866L20.1269 93.5912C19.62 95.1321 18.6062 95.6457 17.0854 95.6457H3.90542C1.87773 95.6457 0.356951 93.5912 0.863874 91.5367L31.2793 2.16392C31.7862 1.13665 32.8 0.109375 34.3208 0.109375H53.0769C54.5977 0.109375 55.6116 1.13665 56.1185 2.16392L86.5339 91.5367C87.0408 93.5912 85.52 95.6457 83.4923 95.6457H68.7916C67.2708 95.6457 66.2569 94.6185 65.75 93.5912L60.1739 74.5866C60.1739 73.5594 58.6531 72.5321 57.6393 72.5321ZM32.8 57.6366H53.5839C54.5977 57.6366 55.1046 56.6094 55.1046 55.5821L43.9524 19.6276H42.9385L31.7862 55.5821C31.2793 56.6094 31.7862 57.6366 32.8 57.6366Z" fill="#1E212C"/>
</svg>
