<svg xmlns="http://www.w3.org/2000/svg" width="590" height="526" fill="none" xmlns:v="https://vecta.io/nano"><path d="M465.06 387.064a36.83 36.83 0 0 0 5.994 20.166c3.915 5.992 9.5 10.706 16.04 13.56a36.52 36.52 0 0 0 20.825 2.507 36.58 36.58 0 0 0 18.782-9.366c5.217-4.893 8.895-11.208 10.58-18.17a36.86 36.86 0 0 0-1.091-21.015 36.74 36.74 0 0 0-12.404-16.97 36.56 36.56 0 0 0-19.65-7.359v36.646H465.06z" fill="#00f0b5"/><path d="M461.096 382.8h39.076v-36.686l-2.44-.087c-4.813 0-9.578.952-14.024 2.8s-8.485 4.557-11.888 7.972a36.77 36.77 0 0 0-7.94 11.93 36.85 36.85 0 0 0-2.784 14.071h0z" fill="#d7dadd"/></svg>