<svg width="64" height="96" viewBox="0 0 64 96" fill="none" xmlns="http://www.w3.org/2000/svg">
<path d="M60.0678 95.6457H4.30628C2.27859 95.6457 0.757812 94.1048 0.757812 92.0503V3.70483C0.757812 1.65028 2.27859 0.109375 4.30628 0.109375H60.0678C62.0955 0.109375 63.6163 1.65028 63.6163 3.70483V13.4639C63.6163 15.5185 62.0955 17.0594 60.0678 17.0594H23.0624C21.5417 17.0594 20.5278 18.0866 20.5278 19.6276V37.0912C20.5278 38.6321 21.5417 39.6594 23.0624 39.6594H57.5332C59.5609 39.6594 61.0817 41.2003 61.0817 43.2548V51.9866C61.0817 54.0412 59.5609 55.5821 57.5332 55.5821H23.0624C21.5417 55.5821 20.5278 56.6094 20.5278 58.1503V77.6685C20.5278 79.2094 21.5417 80.2366 23.0624 80.2366H60.0678C62.0955 80.2366 63.6163 81.7776 63.6163 83.8321V93.5912C63.6163 94.1048 62.0955 95.6457 60.0678 95.6457Z" fill="#1E212C"/>
</svg>
