<svg width="64" height="96" viewBox="0 0 64 96" fill="none" xmlns="http://www.w3.org/2000/svg">
<path d="M60.185 95.6457H4.42348C2.39579 95.6457 0.875 94.1048 0.875 92.0503V3.70483C0.875 1.65028 2.39579 0.109375 4.42348 0.109375H60.185C62.2127 0.109375 63.7334 1.65028 63.7334 3.70483V13.4639C63.7334 15.5185 62.2127 17.0594 60.185 17.0594H23.1796C21.6588 17.0594 20.645 18.0866 20.645 19.6276V37.0912C20.645 38.6321 21.6588 39.6594 23.1796 39.6594H57.6504C59.6781 39.6594 61.1988 41.2003 61.1988 43.2548V51.9866C61.1988 54.0412 59.6781 55.5821 57.6504 55.5821H23.1796C21.6588 55.5821 20.645 56.6094 20.645 58.1503V77.6685C20.645 79.2094 21.6588 80.2366 23.1796 80.2366H60.185C62.2127 80.2366 63.7334 81.7776 63.7334 83.8321V93.5912C63.7334 94.1048 62.2127 95.6457 60.185 95.6457Z" fill="#1E212C"/>
</svg>
