<svg width="108" height="103" viewBox="0 0 108 103" fill="none" xmlns="http://www.w3.org/2000/svg">
<path d="M48.6516 44.6864L17.2224 3.08182C15.1947 1.02727 12.6601 0 10.1255 0C7.59084 0 5.05622 1.02727 3.02853 3.08182C-0.519927 7.19091 -0.519927 13.3545 3.02853 17.4636L27.8678 51.3636L3.02853 85.2636C-0.519927 89.3727 -0.519927 95.5364 3.02853 99.6454C5.05622 101.7 7.59084 102.727 10.1255 102.727C12.6601 102.727 15.1947 101.7 17.2224 99.6454L48.6516 58.0409C52.2 54.9591 52.2 48.7954 48.6516 44.6864Z" fill="url(#paint0_linear)"/>
<path d="M58.7903 44.6864L90.2195 3.08182C92.2472 1.02727 94.7818 0 97.3165 0C99.8511 0 102.386 1.02727 104.413 3.08182C107.962 7.19091 107.962 13.3545 104.413 17.4636L79.5741 51.3636L104.413 85.2636C107.962 89.3727 107.962 95.5364 104.413 99.6454C102.386 101.7 99.8511 102.727 97.3165 102.727C94.7818 102.727 92.2472 101.7 90.2195 99.6454L58.7903 58.0409C55.2418 54.9591 55.2418 48.7954 58.7903 44.6864Z" fill="url(#paint1_linear)"/>
<defs>
<linearGradient id="paint0_linear" x1="44.7172" y1="-10.9245" x2="-29.9696" y2="73.0318" gradientUnits="userSpaceOnUse">
<stop offset="0.104167" stop-color="#7772F1"/>
<stop offset="0.636602" stop-color="#F52F6E"/>
<stop offset="1" stop-color="#FF5A30"/>
</linearGradient>
<linearGradient id="paint1_linear" x1="107.075" y1="7.65864" x2="41.0284" y2="42.3825" gradientUnits="userSpaceOnUse">
<stop offset="0.0585106" stop-color="#7772F1"/>
<stop offset="0.530061" stop-color="#2D7CF1"/>
<stop offset="1" stop-color="#00F0B5"/>
</linearGradient>
</defs>
</svg>
