<svg xmlns="http://www.w3.org/2000/svg" width="495" height="549" fill="none" xmlns:v="https://vecta.io/nano"><ellipse rx="11.432" ry="11.379" transform="matrix(-.992987 -.11822 -.11883 .992915 20.9879 244.497)" fill="#fff"/><g fill="#787a80"><path d="M23.726 260.08l5.65-2.242 2.862 7.153-5.65 2.242-2.862-7.153z"/><path d="M36.385 292.853c.255.024.5-.014.748-.1l5.073-2.008a1.63 1.63 0 0 0 .883-.862 1.62 1.62 0 0 0 .023-1.231L33.9 265.65c-.16-.395-.472-.7-.865-.88s-.837-.178-1.236-.024l-5.068 2.008a1.63 1.63 0 0 0-.883.862 1.62 1.62 0 0 0-.023 1.231l9.193 22.992a1.62 1.62 0 0 0 .537.696 1.64 1.64 0 0 0 .822.318zm-3.884-27.7a.99.99 0 0 1 .325.085c.13.057.25.14.35.242a1.08 1.08 0 0 1 .229.356l9.205 22.988a1.08 1.08 0 0 1-.016.822 1.09 1.09 0 0 1-.59.574l-5.068 2c-.266.103-.562.098-.824-.014s-.47-.322-.578-.585l-9.205-22.977a1.08 1.08 0 0 1 .016-.822 1.09 1.09 0 0 1 .59-.574L32 265.26a1.04 1.04 0 0 1 .501-.095zm-12.714-4.616c3.998.384 7.994-.748 11.2-3.17s5.357-5.956 6.05-9.896a15.86 15.86 0 0 0-2.305-11.36 15.96 15.96 0 0 0-9.436-6.784 16.01 16.01 0 0 0-11.549 1.4 15.91 15.91 0 0 0-7.522 8.84c-1.302 3.785-1.12 7.92.505 11.58a15.92 15.92 0 0 0 8.264 8.16 15.87 15.87 0 0 0 4.802 1.232zm2.875-31.014a15.54 15.54 0 0 1 4.653 1.185c3.532 1.52 6.36 4.312 7.918 7.816s1.734 7.464.5 11.1a15.24 15.24 0 0 1-7.196 8.475 15.35 15.35 0 0 1-11.061 1.358 15.3 15.3 0 0 1-9.051-6.481c-2.1-3.217-2.9-7.1-2.233-10.877a15.22 15.22 0 0 1 5.77-9.495 15.33 15.33 0 0 1 10.709-3.071zm-2.498 27.044a11.9 11.9 0 0 0 11.741-6.486 11.83 11.83 0 0 0 .867-8.394 11.92 11.92 0 0 0-4.95-6.85c-2.435-1.603-5.378-2.258-8.268-1.844s-5.525 1.87-7.408 4.092a11.84 11.84 0 0 0-2.806 7.962 11.85 11.85 0 0 0 3.214 7.808c1.995 2.124 4.703 3.444 7.6 3.712zm5.285-1.292a11.4 11.4 0 0 1-6.567.55 11.37 11.37 0 0 1-5.77-3.172 11.31 11.31 0 0 1-3.034-5.828c-.4-2.198-.16-4.47.723-6.524a11.32 11.32 0 0 1 4.253-5.02c1.885-1.217 4.1-1.85 6.337-1.82s4.434.724 6.286 1.992a11.33 11.33 0 0 1 4.118 5.133 11.29 11.29 0 0 1-.125 8.651 11.35 11.35 0 0 1-6.219 6.039z"/></g></svg>