<svg width="80" height="44" viewBox="0 0 80 44" fill="none" xmlns="http://www.w3.org/2000/svg">
<path fill-rule="evenodd" clip-rule="evenodd" d="M61.5765 19.4109C61.5765 24.3841 57.3611 28.4156 52.1613 28.4156C46.9614 28.4156 42.7461 24.3841 42.7461 19.4109C42.7461 14.4378 46.9614 10.4062 52.1613 10.4062C57.3611 10.4062 61.5765 14.4378 61.5765 19.4109ZM47.6632 19.3897C47.6632 22.1125 49.747 24.3761 52.1615 24.4648C54.646 24.4648 56.6597 22.1694 56.6597 19.3897C56.6597 16.6108 54.6456 14.3581 52.1615 14.3581C49.6773 14.3581 47.6632 16.6104 47.6632 19.3897Z" fill="white"/>
<path d="M0 11.0062H14.4791V14.9269H5.38667V17.3563H14.4791V21.2804H5.38667V23.7097H14.4791V27.6338H0C0.295177 26.1642 0.235891 25.2044 0.235891 24.3644V14.1052C0.235891 13.2053 0.237979 11.9831 0 11.0062ZM15.8239 27.6054C16.3571 26.9453 23.2292 17.9917 23.2292 17.9917C23.2292 17.9917 16.15 11.1129 15.8535 10.9928H22.8618L26.1326 14.1517L30.7502 8H36.4412C36.0855 8.33276 29.2133 17.2114 29.2133 17.2114L32.0574 20.0313L38.5003 11.457H44.2269C43.6686 11.9325 35.167 23.0614 35.167 23.0614C35.167 23.0614 48.3489 35.6992 48.6453 35.8792H41.5911L32.3237 26.8406L27.1517 33.693H21.5112C22.0443 33.2297 29.2129 23.8106 29.2129 23.8106L26.3693 21.0208L21.3392 27.6049H15.8239V27.6054ZM63.8334 11.0154H69.2388L75.605 19.7852L75.5933 13.4753C75.5636 12.6955 75.5636 11.5855 75.4455 11.0154H79.9975C79.9479 11.7353 79.8293 12.7554 79.8589 13.4753V27.633H74.6827L68.3166 18.8041V24.8738C68.3065 26.1337 68.4547 27.1834 68.5433 27.6334H63.8927C63.9816 27.2734 64.0705 25.7436 64.0705 24.8738V13.8051C64.0108 12.7855 63.9515 11.6156 63.8334 11.0154Z" fill="white"/>
</svg>
