<svg width="81" height="44" viewBox="0 0 81 44" fill="none" xmlns="http://www.w3.org/2000/svg">
<g clip-path="url(#clip0)">
<path d="M3.05992 4.27315C5.19529 2.73923 7.85579 2.14027 10.4449 2.02412C13.4348 1.8772 16.5474 2.38582 19.1241 3.97947C21.3217 5.3176 23.0224 7.46624 23.7541 9.93843C24.4385 12.1841 24.3323 14.6472 23.5193 16.8456C22.7088 19.0722 21.1176 21.0052 19.0727 22.2072C16.5474 23.7212 13.5924 24.3343 10.6839 24.5284C9.52742 24.5939 8.36765 24.6363 7.20954 24.5906C5.4674 24.5882 3.72443 24.5557 1.9856 24.4512C1.74502 24.4222 1.44554 24.4479 1.27962 24.2355C1.11785 23.9949 1.28791 23.6813 1.52103 23.5627C2.38712 23.089 3.08813 22.3623 3.65308 21.5618C4.50839 20.3464 5.12063 18.9825 5.66816 17.6079C6.74912 14.9084 7.56129 12.1003 8.83305 9.47875C9.36233 8.42019 9.96876 7.38569 10.7751 6.51213C11.6628 5.52989 12.8864 4.8629 14.1856 4.619C14.4875 4.58084 14.8957 4.4564 15.0849 4.78409C14.9712 5.07113 14.7032 5.23622 14.4776 5.42536C13.5982 6.14047 12.991 7.12354 12.47 8.11573C11.7433 9.53433 11.1825 11.0293 10.6308 12.5225C9.90737 14.5011 9.21383 16.4913 8.45144 18.4566C7.78113 20.1307 6.83042 21.7584 5.3861 22.8791C5.29484 22.9604 5.16211 23.0484 5.19861 23.192C5.20359 23.3611 5.41015 23.4068 5.54621 23.4225C6.42806 23.5138 7.31573 23.5611 8.20256 23.5528C10.094 23.5694 12.0037 23.43 13.8338 22.9255C15.9949 22.3258 18.0117 21.0607 19.3232 19.2198C20.6655 17.3557 21.2612 15.0237 21.2097 12.744C21.1956 10.3664 20.5378 7.89589 18.9333 6.08655C17.5197 4.46221 15.4482 3.54302 13.3493 3.21865C11.6213 2.9341 9.84349 2.99798 8.13039 3.34807C6.08959 3.76618 4.0853 4.75091 2.79611 6.43C1.47706 8.09167 1.01332 10.383 1.55836 12.4296C1.65211 12.7921 1.08881 12.9522 0.893029 12.6826C0.0352312 11.537 -0.10414 10.023 0.060119 8.6426C0.420162 6.85815 1.59984 5.31926 3.05992 4.27315ZM31.9745 10.408C33.3749 10.2039 34.9262 10.2985 36.1134 11.1471C37.1811 11.9021 37.7212 13.2087 37.8207 14.4813C37.9734 16.5685 37.3279 18.6666 36.1997 20.412C34.981 22.2869 33.1293 23.8033 30.9517 24.3965C29.6169 24.745 28.1552 24.8138 26.851 24.3085C25.8057 23.9112 24.972 23.0327 24.5887 21.9866C24.1134 20.7107 24.159 19.297 24.4444 17.983C24.9845 15.6079 26.3732 13.4235 28.3269 11.9626C29.3961 11.1662 30.6521 10.6096 31.9745 10.408ZM32.3802 11.391C31.2536 11.7104 30.3327 12.5068 29.577 13.3729C27.9709 15.2694 27.0136 17.7291 26.9986 20.2212C27.0218 21.1047 27.1164 22.0388 27.6075 22.7988C27.9427 23.3314 28.5524 23.6781 29.1829 23.6789C30.3319 23.7137 31.3945 23.0849 32.1744 22.2843C33.2313 21.2374 33.9498 19.8976 34.4683 18.5155C35.0324 16.9442 35.3667 15.2452 35.1344 13.5761C35.0223 12.8643 34.7818 12.1044 34.1928 11.644C33.686 11.2417 32.9808 11.2235 32.3802 11.391ZM53.2403 11.7287C54.6746 10.7664 56.4143 10.1923 58.1531 10.3433C58.9445 10.4022 59.7907 10.6104 60.3523 11.2094C60.8726 11.766 60.9787 12.5923 60.836 13.3149C60.6419 14.2117 60.0446 14.9616 59.3585 15.544C58.3107 16.4233 57.0447 16.9974 55.7555 17.4271C54.3428 17.8926 52.8752 18.1771 51.4011 18.3571C51.1712 19.3717 51.0452 20.4319 51.2102 21.4664C51.3181 22.1441 51.6574 22.8377 52.2904 23.1638C53.0395 23.5412 53.9271 23.4715 54.7169 23.2699C56.2292 22.8518 57.4604 21.775 58.4335 20.582C58.6168 20.3779 58.7546 20.0536 59.0706 20.0453C59.293 20.0361 59.4482 20.2103 59.5386 20.3937C59.4225 20.8002 59.1421 21.1254 58.8973 21.4589C57.8778 22.7738 56.5023 23.8506 54.9062 24.36C53.807 24.7092 52.6132 24.7789 51.4833 24.545C50.4662 24.3358 49.5155 23.7145 49.0236 22.7846C48.3674 21.5734 48.3997 20.1282 48.6096 18.8042C49.1139 15.9513 50.8402 13.3431 53.2403 11.7287ZM56.3487 11.4425C55.3449 11.81 54.5253 12.5392 53.8259 13.3281C52.8155 14.5111 52.0648 15.919 51.6615 17.423C52.828 17.2795 53.9819 17.0041 55.0687 16.5536C56.0459 16.1405 56.9899 15.5838 57.7009 14.7832C58.2542 14.161 58.6359 13.3472 58.5968 12.501C58.5779 12.0937 58.4119 11.6515 58.0311 11.4549C57.511 11.182 56.8838 11.2542 56.3487 11.4425ZM47.9193 10.7307C48.2718 10.4636 48.7439 10.3018 49.1777 10.4578C49.4988 10.5673 49.6905 10.9049 49.702 11.2326C49.7236 11.8125 49.5909 12.3841 49.4424 12.9399C49.094 14.1785 48.5564 15.354 47.9641 16.4922C47.0938 18.1323 46.046 19.6787 44.8307 21.0823C43.8998 22.1434 42.8961 23.158 41.7239 23.9511C41.2908 24.2291 40.8321 24.4994 40.3202 24.5957C39.9884 24.6447 39.5669 24.6289 39.372 24.3078C39.1214 23.844 39.1977 23.2915 39.1969 22.7847C39.3421 20.7672 39.5644 18.7521 39.5636 16.7262C39.5669 15.4428 39.5255 14.147 39.2409 12.891C39.0717 12.1942 38.8153 11.4558 38.2222 11.0062C38.0512 10.9266 38.0811 10.6619 38.2728 10.6387C38.8551 10.4827 39.4855 10.5549 40.0464 10.764C40.8676 11.0767 41.4883 11.8051 41.7587 12.6305C42.025 13.4419 42.0823 14.303 42.1254 15.1508C42.2001 17.2563 42.0549 19.3618 41.8773 21.4599C41.8657 21.6606 41.8458 21.8838 41.957 22.0638C42.3179 22.1858 42.6431 21.8556 42.9053 21.6474C44.8323 19.7916 46.3066 17.477 47.2374 14.9725C47.6049 13.9653 47.8754 12.9192 48.0031 11.854C48.0487 11.4781 48.0379 11.0924 47.9193 10.7307ZM59.5758 23.4508C59.5286 22.7929 60.0652 22.17 60.7215 22.1152C61.4657 22.004 62.2621 22.6544 62.1285 23.4458V23.5478C62.1484 24.2364 61.4499 24.7457 60.802 24.6959C60.1483 24.6845 59.5783 24.1029 59.5758 23.4508ZM60.5821 22.3343C60.1474 22.457 59.8064 22.8626 59.7783 23.3157C59.7111 23.9379 60.2661 24.5367 60.8932 24.5102C61.5503 24.5226 62.1036 23.849 61.9675 23.2061C61.8705 22.5889 61.1828 22.1401 60.5821 22.3343Z" fill="#091B59"/>
<path d="M60.3641 22.5983C60.6935 22.6257 61.1406 22.4938 61.3647 22.8132C61.5363 23.0903 61.3207 23.3939 61.0485 23.4868C61.1947 23.7069 61.3374 23.9292 61.4766 24.1538C61.4127 24.1538 61.2841 24.1546 61.2203 24.1546C61.0195 23.9233 60.9489 23.4868 60.5939 23.4702C60.5906 23.6975 60.5906 23.9265 60.5906 24.1546L60.3633 24.1522C60.3633 23.6345 60.3633 23.1168 60.3641 22.5983ZM60.5922 22.7543C60.5906 22.9468 60.5906 23.14 60.5922 23.3333C60.7383 23.3183 60.8943 23.3391 61.0344 23.2843C61.2186 23.2229 61.2684 22.9277 61.0942 22.8264C60.9415 22.7452 60.7573 22.7742 60.5922 22.7543Z" fill="#091B59"/>
<path d="M32.1157 30.1916C33.1255 29.8975 34.2622 29.9936 35.1701 30.5375C35.677 30.8448 36.0512 31.3632 36.1508 31.9465C36.2877 32.7123 36.1059 33.5454 35.6132 34.1583C35.4629 34.3423 35.3417 34.5526 35.3377 34.7958C35.7592 34.7375 36.0803 34.4433 36.389 34.1804C36.8935 33.7516 37.2834 33.2061 37.8103 32.801C38.5803 32.1684 39.5934 31.6829 40.6158 31.8833C41.4272 32.0221 42.0313 32.6186 42.6403 33.1166C42.174 33.3326 41.6587 33.4838 41.2911 33.8609C40.468 34.6611 39.9975 35.7251 39.4408 36.7069C38.6915 38.0158 37.778 39.2629 36.5682 40.1922C35.263 41.2159 33.6392 41.8049 31.9872 41.9594C30.5559 42.1007 29.1071 41.8591 27.753 41.3991C26.5449 40.9949 25.4023 40.4255 24.278 39.8348C22.1613 38.7076 20.1467 37.3988 18.23 35.9643C18.1014 35.8673 17.9952 35.7466 17.8906 35.6259C18.0234 35.6282 18.1553 35.6414 18.2864 35.6652C19.8264 36.1228 21.4295 36.3315 23.0218 36.5271C24.1784 36.6569 25.3417 36.7349 26.5059 36.7447C27.5489 36.7177 28.6167 36.6947 29.6099 36.3429C29.7576 36.2978 29.8539 36.1737 29.9584 36.071C29.7444 35.9486 29.4988 35.9567 29.2648 36.0052C28.4599 36.154 27.636 36.0758 26.8336 35.9576C25.1692 35.7128 23.5619 35.113 22.1356 34.2323C21.8402 34.0457 21.544 33.8535 21.3166 33.5857C21.9116 33.602 22.5065 33.6818 23.1014 33.6185C24.8339 33.5101 26.4611 32.8503 28.0226 32.1454C29.4265 31.5735 30.6363 30.5893 32.1157 30.1916Z" fill="#B4B4B4"/>
</g>
<defs>
<clipPath id="clip0">
<rect width="80" height="44" fill="white" transform="translate(0.00390625)"/>
</clipPath>
</defs>
</svg>
