<svg xmlns="http://www.w3.org/2000/svg" width="105" height="50" fill="#b3b7bc" xmlns:v="https://vecta.io/nano"><path d="M33.62 12.64h3.046v17.074H33.62V12.64zm21.36 17.074L42.308 16.4l12.674 13.313zm-.527-5.453L43.06 12.64h-2.33v17.074h1.58V16.4l12.674 13.313h1.053V12.64h-1.58v11.62zm-20.87 12.936v-3.95h.827c.45 0 1.24.038 1.24.978 0 .376-.188.677-.526.865.45.226.677.526.677 1.015 0 .564-.414 1.053-1.1 1.053h-1.128v.038zm.414-2.22h.5c.376 0 .752-.263.752-.752 0-.64-.564-.64-.8-.64H34v1.4zm.715 1.88c.376 0 .715-.226.715-.715 0-.45-.263-.827-.903-.827H34v1.542h.715zm6.243-3.6v2.896c0 .752-.564 1.1-1.1 1.1-.414 0-1.1-.226-1.1-1.316v-2.67h.414v2.896c0 .564.376.752.677.752.5 0 .677-.376.677-.827V33.2h.414v.038zm4.663.715c-.226-.226-.527-.45-.865-.45s-.64.226-.64.602c0 .226.038.376.564.715l.3.188c.715.45.903.64.903 1.1 0 .715-.45 1.128-1.166 1.128-.5 0-.903-.263-1.203-.64l.3-.263c.188.3.5.564.865.564.414 0 .752-.3.752-.714 0-.3-.038-.414-.715-.827l-.338-.226c-.376-.226-.715-.5-.715-.978 0-.602.45-.978 1.053-.978.414 0 .8.226 1.1.5l-.188.3zm4.814-.376h-.527v3.234h.527v.338h-1.467v-.338h.526v-3.234h-.526v-.34h1.467v.34zm3.16-.34h.5l1.203 2.933v-2.933h.414v3.986h-.376l-1.28-3.16v3.12h-.414v-3.95h-.038zm7.07.34h-1.617v1.4H60.2v.34h-1.166v1.504h1.655v.338h-2.06v-3.95h2.03v.376zm4.626.376c-.226-.226-.526-.45-.865-.45s-.64.226-.64.602c0 .226.038.376.564.715l.3.188c.715.45.903.64.903 1.1 0 .715-.45 1.128-1.166 1.128-.5 0-.902-.263-1.203-.64l.3-.263c.188.3.5.564.865.564.414 0 .752-.3.752-.714 0-.3-.038-.414-.715-.827l-.338-.226c-.376-.226-.715-.5-.715-.978 0-.602.45-.978 1.053-.978.414 0 .8.226 1.1.5l-.188.3zm4.9 0c-.226-.226-.526-.45-.865-.45s-.64.226-.64.602c0 .226.038.376.564.715l.3.188c.715.45.903.64.903 1.1 0 .715-.45 1.128-1.166 1.128-.5 0-.903-.263-1.203-.64l.3-.263c.188.3.5.564.865.564.414 0 .752-.3.752-.714 0-.3-.038-.414-.715-.827l-.338-.226c-.376-.226-.715-.5-.715-.978 0-.602.45-.978 1.053-.978.414 0 .8.226 1.1.5l-.188.3zm9.816 0c-.226-.226-.526-.45-.865-.45s-.64.226-.64.602c0 .226.038.376.564.715l.3.188c.715.45.903.64.903 1.1 0 .715-.45 1.128-1.166 1.128-.5 0-.903-.263-1.203-.64l.3-.263c.188.3.5.564.865.564.414 0 .752-.3.752-.714 0-.3-.038-.414-.715-.827l-.338-.226c-.376-.226-.715-.5-.715-.978 0-.602.45-.978 1.053-.978.414 0 .8.226 1.1.5l-.188.3zm4.776.15c0-.338-.226-.602-.564-.602-.827 0-.903 1.128-.903 1.73 0 .564.075 1.655.827 1.655.414 0 .64-.3.677-.677h.414c-.038.64-.414 1.053-1.1 1.053-1.1 0-1.24-1.203-1.24-2.03 0-.865.188-2.068 1.28-2.068.564 0 .94.376.978.94h-.376zm3.498.865h1.354v-1.73h.414v3.95h-.414v-1.88H88.27v1.88h-.376v-3.95h.414v1.73h-.038zm5.603-1.805c1.128 0 1.203 1.316 1.203 2.03 0 .526.038 2.03-1.203 2.03-1.204 0-1.203-1.504-1.203-2.03 0-1.617.564-2.03 1.203-2.03zm.8 2.068c0-.376.038-1.692-.8-1.692-.865 0-.8 1.467-.8 1.692 0 .45-.038 1.692.8 1.692.414 0 .8-.263.8-1.692zm4.137-2.068c1.128 0 1.203 1.316 1.203 2.03 0 .526.038 2.03-1.203 2.03-1.203 0-1.203-1.504-1.203-2.03 0-1.617.526-2.03 1.203-2.03zm.8 2.068c0-.376.038-1.692-.8-1.692-.865 0-.8 1.467-.8 1.692 0 .45-.038 1.692.8 1.692.414 0 .8-.263.8-1.692zm3.724 1.617H105v.34h-2.106v-3.95h.414v3.6zM67.957 29c-4.362 0-5.68-3.497-5.68-7.785s1.316-7.785 5.68-7.785c2.03 0 3.874.752 5.265 1.993l1.316-.64c-1.692-1.655-4.024-2.708-6.58-2.708-5.115 0-9.25 4.1-9.25 9.14s4.137 9.14 9.252 9.14c2.557 0 4.85-1.015 6.544-2.67l-1.316-.64a8.01 8.01 0 0 1-5.227 1.956zm19.63.677h3.497L83.11 12.603h-.45L75.816 29.64h1.73l1.24-3.12h7.296l1.504 3.16zm-8.16-4.7l2.708-6.77 3.234 6.77h-5.942zm14.028 4.74H104.2v-1.58h-7.446V22.23h5.115v-1.617h-5.115v-6.43h6.92V12.64h-10.23v17.074zM21.325 12.83l6.77 11.77-6.77 11.77H7.785L1.015 24.6l6.77-11.77h13.54zm.5-.827H7.296l-.263.414-6.77 11.77L0 24.6l.263.414 6.77 11.77.263.414h14.516l.263-.414 6.77-11.77.263-.414-.263-.414-6.77-11.77-.263-.414zM2.22 25.162l5.716 9.853 5.68-9.853H2.22zM8.875 35.58h11.357l-5.68-9.9-5.68 9.9zm-.94-21.4l-5.716 9.9h11.395l-5.68-9.9zm12.298-.527H8.875l5.68 9.853 5.68-9.853zm-4.74 11.508l5.68 9.853 5.716-9.853H15.494zm11.395-1.1l-5.716-9.9-5.68 9.9H26.9z"/></svg>