<svg xmlns="http://www.w3.org/2000/svg" width="105" height="50" fill="none" fill-rule="evenodd" xmlns:v="https://vecta.io/nano"><path d="M31.73 34.38c0-.56.528-.342.528-.56 0-.093-.218-.062-.25-.062l-.745.032c-.217 0-.404-.032-.62-.032-.03 0-.155 0-.155.062 0 .25.62.062.62.53v2.638c0 1.21.403 2.39 2.452 2.39 2.298 0 2.205-1.956 2.205-2.328V34.6c0-.714.465-.56.465-.776 0-.03-.062-.062-.093-.062-.155 0-.31.032-.435.032-.31 0-.62-.032-.93-.032-.03 0-.093.032-.093.062 0 .31.746-.03.746.776v2.546c0 .933-.342 1.895-1.8 1.895-1.087 0-1.894-.56-1.894-1.832V34.38zm8.632 3.82c0 1.087-.683.746-.683 1.025 0 .032 0 .093.093.093l.746-.03.808.03c.062 0 .062-.062.062-.124 0-.186-.683.062-.683-.62v-3.23c0-.155.03-.186.062-.186.062 0 .155.155.155.155l3.385 3.82c.155.186.248.217.31.217s.062-.125.062-.342v-4.565c0-.56.466-.434.466-.62 0-.062-.03-.062-.093-.062l-.776.032c-.248 0-.497-.032-.714-.032-.062 0-.093 0-.093.062 0 .248.87-.03.87.994v3.29c0 .063 0 .093-.03.093l-.093-.093-3.757-4.192c-.03-.032-.093-.155-.186-.155-.124 0-.248.032-.373.032s-.248-.032-.372-.032c-.03 0-.093.032-.093.062 0 .28.932-.155.932 1.46l-.001 2.918zm9.13.248c0 .776-.62.528-.62.746 0 .062.032.124.186.124.093 0 .25-.03.746-.03l.838.03c.155 0 .186-.03.186-.093 0-.217-.714-.062-.714-.59v-4.223c0-.6.56-.404.56-.6 0-.062-.03-.062-.155-.062l-.714.032c-.28 0-.6-.032-.87-.032-.062 0-.062 0-.062.062 0 .186.62.032.62.6l-.001 4.036zm7.204.497c.062.155.155.497.28.497s.186-.28.28-.467L59.2 34.35c.218-.53.435-.342.435-.497 0-.062-.062-.093-.125-.093-.124 0-.25.032-.62.032-.155 0-.342-.032-.528-.032-.062 0-.093 0-.093.093 0 .186.497.03.497.372.03.186-.062.436-.125.56l-1.366 3.353c-.03.093-.062.217-.124.217-.093 0-.155-.155-.31-.59l-1.398-3.23a.79.79 0 0 1-.062-.311c0-.28.342-.28.31-.404 0-.03-.062-.062-.092-.062-.125 0-.404.032-.622.032-.25 0-.497-.032-.714-.032-.093 0-.124.032-.124.093 0 .186.404.03.62.497l1.925 4.595zm7.452-4.378c0-.53-.03-.497.746-.497.31 0 1.118-.032 1.335.217.125.186 0 .56.186.56.032 0 .155-.062.155-.93 0-.093-.032-.155-.093-.155l-1.118.032c-.31 0-.744-.032-2.204-.032-.25 0-.28.032-.28.093 0 .093.155.093.218.124.434.062.434.436.434.776v3.602c0 .342-.03.6-.217.684-.248.124-.342.093-.342.186 0 .063.032.093.125.093l.93-.03c.62-.032 1.21.03 1.8.03.342 0 .53 0 .777-.28.186-.186.404-.465.404-.746 0-.032-.032-.093-.063-.093-.124 0-.372.808-2.204.808-.652 0-.6-.186-.6-.653v-1.458c0-.125-.03-.25.155-.25h1.15c.652 0 .404.683.62.683.062 0 .093-.032.093-.093V35.8c0-.062-.032-.124-.093-.124-.186 0 .032.62-.776.62h-.84c-.34 0-.31 0-.31-.28v-1.46h-.002zm8.82 1.894c.56-.217.993-.746.993-1.366 0-1.522-1.74-1.335-1.862-1.335l-1.305.032c-.404 0-.372-.032-.497-.032-.093 0-.155.032-.155.093 0 .248.652-.062.652.683v4.006c0 .6-.56.497-.56.683 0 .032.032.093.062.093l.9-.03.9.03c.062 0 .155 0 .155-.062 0-.28-.84-.032-.84-.714v-1.645c0-.093-.03-.218.218-.218.87 0 .745-.03 1.055.404l.87 1.366c.28.465.6.87 1.18.87.062 0 .496 0 .496-.093 0-.186-.372.093-.96-.776l-1.305-1.988zm-1.553-2.174c0-.31.186-.28.465-.28.777 0 1.49.31 1.49 1.273 0 .993-.746 1.118-1.087 1.118-.372 0-.87.03-.87-.093v-2.02zm7.266 4.658c.032.124.746.434 1.335.434 1.77 0 2.236-.993 2.236-1.677 0-2.142-3.167-1.304-3.167-2.763 0-.746.652-1.025 1.273-1.025.684 0 1.273.342 1.49 1.025.03.062.092.217.154.217.093 0 .093-.03.093-.092l-.124-1.087c0-.093-.032-.093-.093-.093s-.093.063-.155.063c-.093 0-.372-.28-1.305-.28s-1.77.497-1.77 1.5c0 2.05 3.2 1.21 3.2 2.702 0 .838-.715 1.242-1.46 1.242-1.087 0-1.583-.808-1.677-1.18-.032-.155-.032-.248-.125-.248s-.124.093-.092.248l.186 1.025zm7.825-.497c0 .776-.62.528-.62.746 0 .062.032.124.155.124s.28-.03.776-.03l.84.03c.124 0 .155-.03.155-.093 0-.217-.684-.062-.684-.59v-4.223c0-.6.56-.404.56-.6 0-.062-.03-.062-.155-.062l-.714.032c-.31 0-.59-.032-.87-.032-.062 0-.093 0-.093.062 0 .186.62.032.652.6l-.001 4.036zm6.894.186c0 .465-.622.372-.622.56 0 .093 0 .124.093.124.032 0 .186-.03 1.056-.03l.652.03c.062 0 .062-.093.062-.093 0-.248-.62 0-.62-.65v-4.006c0-.436-.062-.404.31-.404h1.118c.808 0 .372.62.652.62.124 0 .093-.093.093-.186l-.032-.62c0-.186-.062-.217-.217-.217l-2.33.032c-.994 0-1.615-.032-2.204-.032-.156 0-.156.186-.156.28l-.092.777c0 .03.03.092.092.092.093 0 .093-.092.125-.186.155-.436.155-.56.652-.56h1.273c.124.03.093.31.093.372v4.1zm7.855-2.297c.062.092.156.247.156.404v1.894c0 .56-.6.372-.6.59 0 .093.03.093.124.093l.714-.03.84.03c.124 0 .186 0 .186-.093 0-.248-.653-.03-.653-.714v-1.926c0-.092.063-.155.218-.34l1.087-1.708c.124-.186.216-.434.435-.56.062-.03.186-.062.186-.124s-.03-.093-.092-.093l-.684.032c-.187 0-.372-.032-.56-.032-.094 0-.156 0-.156.093 0 .186.59.03.59.434 0 .186-.123.342-.186.404l-.807 1.335c-.062.093-.093.157-.156.157-.03 0-.093-.063-.155-.157l-.93-1.52c-.063-.063-.157-.186-.157-.31 0-.217.374-.247.374-.372 0-.062-.094-.062-.156-.062s-.28.032-.53.032c-.56 0-.682-.032-.9-.032-.062 0-.125.062-.125.093 0 .155.404.062.6.372l1.337 2.112zm-14.78-23.662c.777 0 1.43.652 1.43 1.428 0 .808-.652 1.46-1.43 1.46-.806 0-1.428-.652-1.428-1.46 0-.188.036-.374.108-.547s.177-.33.3-.464.3-.238.464-.3.36-.108.547-.108zm13.663 15.308c-.062.622-.372 1.025-1.552 1.366-.933.31-.808.808.124.84 2.546-.373 3.353-.31 5.65-.063.9 0 .746-.59.187-.838-1.335-.528-1.554-.528-1.832-1.864l-.093-13.414c0-.776.28-1.677-.528-1.46L99.05 13.7c-.746.31-.465.652.062.838.746.31.808.746.87 1.304l.155 12.14zm-7.855-.092c-.063.65-.373 1.055-1.553 1.397-.93.28-.838.776.125.838 2.546-.372 3.354-.31 5.65-.062.87-.03.744-.59.186-.87-1.365-.528-1.552-.528-1.832-1.863l-.093-13.383c0-.776.28-1.677-.528-1.49l-3.043 1.15c-.744.31-.465.683.062.838.746.31.808.776.84 1.304l.186 12.142zm-7.173-5.28c-.063-.683-.155-1.21-.933-1.428-.56-.062-.838-.56-.03-.87 1.583-.497 1.8-.6 3.042-1.584.373-.218.808-.03.6.652-.062.497-.062.745-.093 1.304v6.987c.063 1.15.963 1.335 1.522 1.553s.62.9-.062.9c-2.453-.34-3.012-.372-5.403.125-.808 0-.963-.62.03-.962.963-.342 1.305-.528 1.336-1.366v-5.3zM63.154 21.34c.56-5.962 4.378-8.446 9.75-8.88 5.682.03 6.49.403 6.396 3.57.032 1.15-.714 1.397-1.242.124-.62-1.18-1.118-1.863-2.546-2.452-4.907-1.087-8.508 2.05-8.726 7.4-.34 7.515 8.074 9.72 9.813 6.893.373-.714.373-2.67.342-4.285-.31-1.056-1.335-.93-2.298-.994-1.087.093-1.46-1.118-.032-1.118 1.398 0 4.038.155 7.453-.186 1.025.062 1.086.963-.155 1.118-.53.093-1.647.093-1.802.962-.124 4.596.933 5.03-2.515 6.273-4.4 1.025-9.16.56-11.83-2.02-1.2-1.087-2.7-3.51-2.607-6.397zM51.79 24.383c.497-4.937 4.596-6.117 6.707-6.117 2.516.062 3.323.9 3.353 1.74 0 .838-.59 1.273-1.242 1.087-1.366-.342-1.087-1.8-2.92-1.925-2.08.31-3.353 2.64-2.98 5.434.34 2.763 3.043 4.844 6.334 3.136.808-.155.87.497.218.933-6.055 3.725-9.72-1.554-9.47-4.286zM33.127 16.06c-.124-1.677-.652-1.18-1.956-1.677-1.056-.218-1.15-.963-.093-1.025 1.863.155 2.795.186 4.347-.062.715.124 1.025.404 1.273 1.087L41.2 24.04c.25.497.373.6.653-.062l3.85-9.812c.435-.838.9-1.025 2.236-.9 2.328.03 2.887-.03 4.036-.155.963.03.9.776-.062 1.056-1.49 0-2.267.528-2.515 1.646l.218 11.272c.248 1.677 1.118 1.74 2.7 2.142.683.31.528.808-.062.962-3.29-.373-4.41-.342-7.67-.032-.932.093-.994-.714.03-.932 1.18-.28 1.49-.497 1.77-1.118l-.248-10.868c-.03-.435-.31-.435-.466.062L41.076 28.76c-.435.993-.62.993-1.087.217L34.555 17.24c-.155-.404-.373-.28-.373-.03l.03 10.37c.155 1.21.994 1.273 2.7 1.802.466.155.497.56.093.808-3.292-.28-3.85-.28-6.894.124-.497 0-.714-.714.03-.808 1.615-.465 2.08-.497 2.298-1.428l.685-12.016z" fill="#b3b7bc"/><path d="M.616 24.3C-.44 20.595.182 17.148.182 13.018 3.877 11.155 7.572 11 11.546 11c3.447 0 8.322.435 11.24 2.018.31 3.882.497 7.328-.528 11.77-.994 4.44-3.912 10.59-10.59 15.123C4.404 35.127 2.044 29.383.616 24.3z" fill="#fff"/><path d="M.927 24.322c-.994-3.57-.404-6.893-.404-10.93 3.602-1.77 7.142-1.956 10.992-1.956 3.353 0 8.074.435 10.93 1.956.28 3.788.435 7.11-.528 11.427-.963 4.285-3.788 10.247-10.247 14.625C4.622 34.848 2.324 29.26.927 24.322z" fill="#b3b7bc"/><g fill="#fff"><path d="M4.31 19.075L.865 22.832c.777 3.633 2.92 11.21 10.806 16.333 7.794-5.37 9.875-12.73 10.34-16.395l-3.354-3.726-3.757 3.788-3.416-3.757L8.038 22.8 4.31 19.075zm1.584-3.82c-.03 0-.124-.062 0-.093.093 0 .25 0 .466.248.062-.03.28-.342.466-.248 0 .03-.683 1.553-.746 1.677-.31-.155-2.08-.28-1.894-.28.155 0-1.615.062-1.863.28-.093-.155-.776-1.707-.776-1.707.217-.093.435.217.497.248.186-.248.372-.248.403-.248.186.03.062.062.062.124-.87.683.373 1.46.652.683 1.087.124.776-.776.528-.9-.217-.03-.093-.093 0-.093.062-.03.217-.03.217.062 0-.497.03-.807.28-.963.28.186.31.465.28.963.03-.093.155-.062.25-.062.03.062.217.062.03.124-.28.093-.56 1.025.528.87.25.776 1.553-.094.62-.684zm-.715.9l.31.373-.62-.093.3-.28zm-.994-.435l.404.714h-.777l.373-.714zm-.962.435l-.31.373.62-.093-.31-.28z"/><path d="M2.76 17.676c-.124-.186-.25-.56-.342-.652.3-.248 1.428-.28 1.832-.28.6 0 1.43.093 1.708.28 0 0-.124.435-.25.714-.465-.186-1.118-.248-1.52-.248-.498.001-1.056.062-1.428.186zm2.794-.6c.093 0 .186.124.186.186 0 .124-.093.217-.186.217s-.217-.093-.217-.217c0-.062.124-.186.217-.186zm-.652-.124c.093 0 .186.093.186.186s-.093.218-.186.218-.217-.124-.217-.218.124-.186.217-.186zm-.715-.062c.124 0 .217.093.217.186.001.03-.004.057-.015.084a.21.21 0 0 1-.047.07c-.02.02-.044.036-.07.047s-.055.016-.084.015c-.062 0-.186-.093-.186-.218 0-.093.124-.186.186-.186zm-.683.062c.124 0 .217.093.217.186s-.093.218-.217.218c-.093 0-.186-.124-.186-.218a.2.2 0 0 1 .186-.186zm-.62.124c.093 0 .217.124.217.186 0 .124-.124.217-.217.217s-.217-.093-.217-.217c0-.062.124-.186.217-.186zm1.334.54c.776 0 1.5.155 1.5.248 0 .062-.62.124-1.428.124-.776 0-1.46-.062-1.46-.124 0-.093.62-.248 1.397-.248zm16.426-2.36c-.03 0-.124-.062 0-.093.062 0 .248 0 .435.248.093-.03.28-.342.497-.248 0 .03-.683 1.553-.776 1.677-.28-.155-2.05-.28-1.894-.28s-1.584.062-1.863.28c-.093-.155-.776-1.707-.776-1.707.218-.093.435.217.528.248.155-.248.34-.248.372-.248.186.03.062.062.062.124-.838.683.373 1.46.652.683 1.087.124.776-.776.528-.9-.217-.03-.062-.093 0-.093.093-.03.217-.03.217.062 0-.497.03-.807.28-.963.28.186.3.465.28.963.03-.093.155-.062.28-.062.03.062.186.062.03.124-.3.093-.6 1.025.497.87.248.776 1.552-.094.652-.684zm-.745.9l.34.373-.62-.093.28-.28zm-.994-.435l.404.714h-.746l.342-.714zm-.962.435l-.3.373.62-.093-.3-.28z"/><path d="M17.508 17.676c-.124-.186-.28-.56-.342-.652.28-.248 1.397-.28 1.8-.28.62 0 1.428.093 1.708.28l-.217.714c-.497-.186-1.118-.248-1.553-.248-.466.001-1.025.062-1.398.186zm2.764-.6c.093 0 .218.124.218.186 0 .124-.124.217-.218.217s-.186-.093-.186-.217c0-.062.093-.186.186-.186zm-.652-.124c.093 0 .218.093.218.186s-.124.218-.218.218-.186-.124-.186-.218.093-.186.186-.186zm-.683-.062c.093 0 .186.093.186.186 0 .124-.093.218-.186.218s-.217-.093-.217-.218c0-.093.124-.186.217-.186zm-.714.062c.124 0 .217.093.217.186s-.093.218-.217.218c-.062 0-.186-.124-.186-.218s.124-.186.186-.186zm-.62.124c.093 0 .217.124.217.186 0 .124-.124.217-.217.217s-.186-.093-.186-.217c0-.062.093-.186.186-.186z"/><path d="M18.937 17.613c.776 0 1.49.155 1.49.248 0 .062-.62.124-1.428.124-.776 0-1.46-.062-1.46-.124 0-.093.62-.248 1.397-.248z"/></g><path d="M3.845 26.03c.062-.125.155-.465.217-.56-.062-.125-.155-.25-.28-.25.062-.124.25-.28.217-.373-.03-.124-.124-.093-.342-.186.062-.155.25-.25.31-.25.124-.03.124-.186.34-.28.186-.124.404-.124.62-.124.342.03 1.21.28.994 1.335.497 1.056 2.36-.372 2.98-.372-.124.248-.25.497-.404.714.186.125.404 0 .62 0-.217.6-.56.84-.838 1.056.28.962 1.366.59 2.36.465-.124.31-.528.372-.714.62.34.342.714.808.93 1.273-.435-.28-1.335-.59-1.645-.714-.56-.217-1.77-.217-2.36 0 .124.248.34.342.528.497-.28.56-.9.217-1.242.124-.31.218-.87.218-.994.093 0 0 0-.124.155-.28.124-.155-.342-.186-.497-.436 0-.186.28 0 .373-.217-.28-.588-1.522-.713-1.336-2.14zm.84-1.677c.062 0 .093.062.093.124s-.03.124-.093.124-.124-.062-.124-.124.062-.124.124-.124zm7.514 1.832c.03-.093.155-.436.248-.56-.093-.124-.217-.25-.28-.25.03-.124.25-.28.186-.373-.03-.093-.124-.062-.31-.186.062-.155.186-.248.31-.248s.124-.186.28-.31c.217-.062.435-.062.683-.093.31.03 1.21.28.963 1.335.528 1.056 2.36-.373 3.012-.373-.124.248-.31.497-.404.714.155.125.404 0 .6 0-.186.6-.56.84-.838 1.087.28.9 1.398.56 2.36.434-.093.342-.497.372-.714.62.342.342.714.808.962 1.305-.435-.31-1.366-.62-1.645-.746-.62-.217-1.8-.217-2.39 0 .124.248.373.373.528.465-.31.622-.87.28-1.21.157-.342.217-.87.217-1.025.124 0 0 0-.186.186-.31.093-.155-.342-.186-.497-.436 0-.217.217 0 .373-.217-.31-.6-1.522-.713-1.367-2.14zm.808-1.646c.093 0 .124.03.124.093s-.03.124-.124.124c-.062 0-.093-.062-.093-.124s.03-.093.093-.093zm-4.814 7.607c.062-.124.155-.465.25-.59-.093-.093-.186-.248-.28-.248.03-.125.217-.25.186-.342-.03-.125-.093-.093-.342-.217.093-.125.25-.218.342-.25.124 0 .124-.155.31-.28.186-.093.435-.093.652-.124.31.03 1.18.28.962 1.366.497 1.025 2.39-.373 3.012-.373l-.403.714c.186.125.403 0 .6 0-.186.56-.528.808-.808 1.056.28.933 1.366.6 2.36.465-.124.31-.528.342-.714.6.342.372.714.808.93 1.305-.434-.28-1.335-.6-1.645-.714-.6-.218-1.77-.218-2.39 0 .124.217.342.34.56.465-.31.59-.9.25-1.273.124-.28.248-.838.248-.994.125 0 0 0-.155.186-.28.124-.186-.34-.217-.497-.434 0-.218.25 0 .373-.218-.3-.62-1.552-.744-1.366-2.142zm.87-1.677c.03 0 .093.032.093.125 0 .03-.062.092-.093.092-.093 0-.155-.062-.155-.092 0-.093.062-.125.155-.125z" fill="#b3b7bc"/><g fill="#fff"><path d="M9.03 12.987s.528.217.994.03c.527-.217 1.025-.342 1.397-.155v4.503c-.31-.124-.746-.062-1.242.062-.465.093-.745.124-1.15.03v-4.472zm1.49 3.323c0-.155.124-.186.186-.186s.155.03.155.186c0 .186-.093.248-.155.248s-.186-.063-.186-.248zm-.124 0c0 .31.218.34.31.34.062 0 .28-.03.28-.34 0-.28-.217-.31-.28-.31-.093 0-.31.03-.31.31zm-.25.155l-.217-.435h-.155v.62H9.9v-.435l.248.435h.124v-.62h-.124v.435zm-.62.25h.124v-.62h-.124v.62zm1.552-2.02h-.186l-.093.465-.124-.465H10.5v.62h.124v-.497l.124.497h.124l.124-.497v.497h.093v-.62zm-1.118.373c0-.186.093-.218.155-.218s.155.03.155.218c0 .155-.093.217-.155.217s-.155-.063-.155-.217zm-.124 0c0 .28.186.31.28.31.062 0 .28-.03.28-.31s-.217-.31-.28-.31c-.093 0-.28.03-.28.31zm-.465-.155h.124c.062 0 .124.03.124.217 0 .093-.032.186-.124.186h-.124v-.404zm-.124.527h.25c.217 0 .25-.217.25-.31 0-.124-.03-.31-.217-.31h-.28v.62zm1.15-1.46l-.25-.435h-.124v.6h.093v-.404l.248.404h.124v-.6h-.093v.435zm-.683.187h.124v-.6h-.124v.6zm-.808-1.18l-.434.342v4.533l.434-.403v-4.472z"/><path d="M8.596 17.925l.435-.342c.31.093.962-.03 1.273-.093.527-.062.746-.186 1.118 0-.218.093-.342.28-.342.435H8.596zm5.744 0l-.403-.342c-.342.093-.963-.03-1.273-.093-.56-.062-.745-.186-1.056 0 .155.093.28.28.25.435h2.483zm-.28-5l.403.403v4.47l-.403-.372v-4.502z"/><path d="M13.906 12.987s-.528.217-.963.03c-.56-.217-1.025-.342-1.335-.155v4.503c.28-.124.652-.062 1.15.062.497.093.776.124 1.15.03l-.001-4.472zm-1.8 3.633h.248c.218 0 .25-.186.25-.31s-.03-.28-.25-.28h-.248v.6zm.124-.497h.124c.062 0 .124.03.124.186 0 .124-.03.218-.124.218h-.124v-.404zm.528.28c0 .31.217.342.31.342.062 0 .28-.03.28-.342 0-.28-.217-.31-.28-.31-.093 0-.31.03-.31.31zm.155 0c0-.155.062-.186.155-.186.062 0 .155.03.155.186 0 .186-.093.218-.155.218-.093-.001-.155-.03-.155-.218zm-.497-1.21h.28v-.124h-.28v-.124h.31v-.093h-.435v.6h.124v-.248zm.466.248h.124v-.6h-.124v.6zm-.56-1.676c0-.093-.093-.218-.25-.218-.186 0-.28.124-.28.31 0 .217.093.342.28.342.124 0 .217-.093.25-.217h-.124c-.03.062-.062.093-.124.093-.124 0-.155-.093-.155-.217 0-.155.093-.186.155-.186.093 0 .093.062.124.093h.124zm.093.186c0 .28.217.31.31.31.062 0 .28-.03.28-.31s-.217-.31-.28-.31c-.093 0-.31.03-.31.31zm.155 0c0-.186.093-.217.155-.217s.155.03.155.217c0 .155-.093.217-.155.217s-.155-.063-.155-.217zm.9.124l-.217-.435h-.155v.62h.124v-.435l.248.435h.124v-.62h-.124v.435zm-1.956 3.51c-.186.186-.28.186-.217.342h.373c.03-.156 0-.25-.155-.342z"/></g></svg>