<svg xmlns="http://www.w3.org/2000/svg" width="120" height="64" fill="#b3b7bc" fill-rule="evenodd" xmlns:v="https://vecta.io/nano"><path d="M54.194 43.09V27.963h-8.5V43.09h8.502z"/><path d="M49.943 28.123a4.05 4.05 0 0 0 1.568-.294 4.06 4.06 0 0 0 1.334-.874 4.05 4.05 0 0 0 .893-1.32c.207-.495.314-1.025.314-1.56s-.107-1.067-.314-1.56a4.05 4.05 0 0 0-.893-1.32 4.06 4.06 0 0 0-1.334-.874 4.08 4.08 0 0 0-1.568-.294 4.06 4.06 0 0 0-2.837 1.203c-.75.758-1.17 1.78-1.17 2.845s.42 2.087 1.17 2.845a4.06 4.06 0 0 0 2.837 1.203zm28.095 3.162c0-6.073-4.934-10.997-11.02-10.997s-11.02 4.924-11.02 10.997l.04 11.805h7.675V31.285c0-.875.348-1.714.968-2.333a3.31 3.31 0 0 1 4.676 0 3.3 3.3 0 0 1 .968 2.333V43.1H78l.04-11.805zM20.33 20.302C11.864 20.302 5 27.15 5 35.597V43.1h7.678l.037-7.493c0-4.196 3.4-7.598 7.614-7.598h.566v-7.672l-.566-.026zM82.4 43.1l11.336-11.593-11.193-11.452h9.422L98.4 26.7l6.447-6.645h9.423l-11.193 11.452L114.412 43.1h-9.492l-6.52-6.716-6.588 6.716H82.4zm-2.63-10.436c.212-.955 1.7-2.933 2.23-3.535s1.665-2.545 1.878-3.96c.32 1.238 1.63 3.676 2.125 4.312s1.665 2.263 1.842 3.64c-.638-.142-2.763-.283-4.075 0s-3.224.106-4.002-.46zm.638.742c.744.353 2.1.53 3.4.283s3.364-.283 4.32.177c-.072.424-.283.706-.46 1-.957-.424-1.878-.742-3.8-.565s-2.94-.106-3.543-.388c-.036-.248.072-.495.072-.495zm-.7 1.2c.674.142 2.1.32 3.118.177s2.622-.318 4.003.318l-.426.425c-.708-.318-1.098-.53-3.507-.425-.885.07-2.48.107-3.294-.213l.106-.283zm.957.955a2.83 2.83 0 0 0 .176.919c.815.072 1.666.4 2.516.637-.4.035-1.453.106-2.055-.07.532.53 1.5 1.272 3.542.67-.176-.177-.743-.388-.743-.388.708.035.885.14 1.346.106.176-.247.176-.565.176-.565-.815-.07-2.196-.318-3.046-.672 1.133-.035 2.586-.176 3.932.566.212-.177.425-.602.425-.602-1.276-.53-1.912-.706-3.826-.67l-2.443.07zm26.14-4.777h.374c.162 0 .342.06.342.268 0 .235-.223.256-.43.256h-.287v.1h.352l.405.622h.13l-.403-.62c.192-.03.348-.137.348-.357 0-.244-.134-.372-.44-.372h-.507v1.347h.116V30.78h-.001z"/><path d="M107.092 30.22a1.14 1.14 0 0 1 1.143 1.139 1.14 1.14 0 1 1-2.284 0 1.14 1.14 0 0 1 1.141-1.139l.004.1a1.01 1.01 0 0 0-1.028 1.039c0 .576.445 1.04 1.028 1.04a1.02 1.02 0 0 0 1.023-1.042c0-.582-.436-1.036-1.023-1.036l-.004-.1zm-74.72 12.776c1.29 0 2.53-.213 3.687-.602v.698h7.86l-.026-11.593c0-6.35-5.16-11.497-11.522-11.497S20.85 25.148 20.85 31.497 26 42.995 32.373 42.995zm0-7.3a4.21 4.21 0 0 1-2.975-1.23c-.79-.787-1.232-1.855-1.232-2.97s.443-2.18 1.232-2.97 1.86-1.23 2.975-1.23a4.22 4.22 0 0 1 1.626.305 4.21 4.21 0 0 1 1.382.907c.396.4.71.856.925 1.368a4.19 4.19 0 0 1 0 3.237 4.2 4.2 0 0 1-.925 1.368c-.396.39-.866.7-1.382.907s-1.07.312-1.626.305z"/></svg>