<svg width="48" height="48" viewBox="0 0 48 48" fill="none" xmlns="http://www.w3.org/2000/svg">
<g clip-path="url(#clip0)">
<path d="M28.9219 21.0938C26.9645 21.0938 25.2653 21.9855 24 23.6748C22.7344 21.9855 21.0352 21.0938 19.0781 21.0938C15.423 21.0938 12.75 24.0978 12.75 27.7841C12.75 32.5499 17.369 35.5437 23.0848 40.4425C23.3481 40.6681 23.6741 40.7813 24 40.7809C24.3259 40.7809 24.6519 40.6681 24.9152 40.4425C30.6379 35.5375 35.25 32.5481 35.25 27.7841C35.25 24.1007 32.5796 21.0938 28.9219 21.0938ZM24 37.5286C18.85 33.178 15.5625 30.832 15.5625 27.7841C15.5625 25.5732 17.0739 23.9063 19.0781 23.9063C21.6844 23.9063 22.6069 26.9652 22.6472 27.1036C22.8193 27.7075 23.3712 28.125 24 28.125C24.6306 28.125 25.184 27.705 25.3539 27.0978C25.363 27.0659 26.2782 23.9063 28.9219 23.9063C30.9258 23.9063 32.4375 25.5732 32.4375 27.7841C32.4375 30.8346 29.1456 33.1816 24 37.5286Z" fill="#005aee"/>
<path d="M46.5934 45.1871H42.3746V23.3437C42.3827 23.3495 42.3907 23.355 42.3988 23.3609C43.0203 23.8066 43.8842 23.6736 44.343 23.0621L47.7188 18.5632C47.9451 18.261 48.0406 17.8809 47.9843 17.5077C47.9275 17.1346 47.7231 16.7998 47.417 16.579C47.1921 16.4168 24.9437 0.353304 24.8298 0.270906C24.3369 -0.0894453 23.6678 -0.0901778 23.1742 0.267977C23.1064 0.317049 18.8573 3.3848 14.0625 6.84696V4.21866C14.0625 3.44193 13.433 2.81241 12.6562 2.81241H7.03125C6.25452 2.81241 5.625 3.44193 5.625 4.21866V12.9389C2.74146 15.0208 0.651123 16.5299 0.583008 16.579C0.277222 16.7998 0.072876 17.1346 0.0161133 17.5077C-0.0406494 17.8809 0.0549317 18.2614 0.281616 18.5632L3.65698 23.0621C4.11584 23.6736 4.97974 23.8066 5.6012 23.3609C5.60925 23.355 5.61694 23.3495 5.625 23.3437V45.1874H1.40625C0.629517 45.1874 0 45.817 0 46.5937C0 47.3701 0.629517 47.9999 1.40625 47.9999H46.5934C47.3701 47.9999 47.9996 47.3701 47.9996 46.5937C47.9996 45.817 47.3701 45.1871 46.5934 45.1871ZM8.4375 5.62491H11.25V8.8776C10.2975 9.56534 9.35083 10.2487 8.4375 10.9079V5.62491ZM5.08081 20.2734L3.39075 18.0208C17.5712 7.78263 22.3722 4.31607 24 3.14054C26.2672 4.77787 33.1714 9.76273 44.6093 18.0208L42.9196 20.2734C42.7793 20.173 24.98 7.40983 24.8225 7.29667C24.3311 6.94217 23.6678 6.94291 23.1771 7.29703C22.8582 7.52628 5.48254 19.9852 5.08081 20.2734ZM8.4375 21.3269C18.7676 13.92 22.5864 11.1818 24 10.1678C25.9102 11.5378 31.1199 15.2735 39.5625 21.3269V45.1874H8.4375V21.3269Z" fill="#005aee"/>
</g>
<defs>
<clipPath id="clip0">
<rect width="48" height="48" fill="white"/>
</clipPath>
</defs>
</svg>
