<svg width="48" height="48" viewBox="0 0 48 48" fill="none" xmlns="http://www.w3.org/2000/svg">
<path d="M46.5938 25.4062C47.3704 25.4062 48 24.7766 48 24V13.5C48 12.7234 47.3704 12.0938 46.5938 12.0938C45.6135 12.0938 26.4628 12.0938 25.4062 12.0938V3C25.4062 2.22337 24.7766 1.59375 24 1.59375H9C8.22338 1.59375 7.59375 2.22337 7.59375 3V12.0938H1.40625C0.629625 12.0938 0 12.7234 0 13.5V24C0 24.7766 0.629625 25.4062 1.40625 25.4062H7.59375V33.0938H1.40625C0.629625 33.0938 0 33.7234 0 34.5V45C0 45.7766 0.629625 46.4062 1.40625 46.4062H46.5938C47.3704 46.4062 48 45.7766 48 45V34.5C48 33.7234 47.3704 33.0938 46.5938 33.0938H40.4062V25.4062H46.5938ZM45.1875 22.5938C43.683 22.5938 34.3936 22.5938 32.9062 22.5938V14.9062H45.1875V22.5938ZM30.0938 22.5938C28.6208 22.5938 19.3889 22.5938 17.9062 22.5938V14.9062H30.0938V22.5938ZM10.4062 4.40625H22.5938V12.0938C21.1208 12.0938 11.8889 12.0938 10.4062 12.0938V4.40625ZM2.8125 22.5938V14.9062H15.0938V22.5938C13.6058 22.5938 4.31672 22.5938 2.8125 22.5938ZM10.4062 25.4062H22.5938V33.0938C21.1208 33.0938 11.8889 33.0938 10.4062 33.0938V25.4062ZM2.8125 35.9062H15.0938V43.5938H2.8125V35.9062ZM17.9062 35.9062H30.0938V43.5938H17.9062V35.9062ZM45.1875 35.9062V43.5938H32.9062V35.9062H45.1875ZM37.5938 33.0938C36.1208 33.0938 26.8889 33.0938 25.4062 33.0938V25.4062H37.5938V33.0938Z" fill="#005aee"/>
</svg>
