<svg width="49" height="48" viewBox="0 0 49 48" fill="none" xmlns="http://www.w3.org/2000/svg">
<g clip-path="url(#clip0)">
<path d="M42.875 2.90625C40.7971 2.90625 38.9788 4.03866 38.0049 5.71875H1.90625C1.12962 5.71875 0.5 6.34837 0.5 7.125V43.6875C0.5 44.4641 1.12962 45.0938 1.90625 45.0938H42.875C45.9766 45.0938 48.5 42.5704 48.5 39.4688V8.53125C48.5 5.42963 45.9766 2.90625 42.875 2.90625ZM42.875 42.2812C42.3249 42.2812 3.82409 42.2812 3.3125 42.2812V8.53125H37.25V39.4688C37.25 40.2454 37.8796 40.875 38.6562 40.875C39.4329 40.875 40.0625 40.2454 40.0625 39.4688C40.0625 37.9179 41.3242 36.6562 42.875 36.6562C44.4258 36.6562 45.6875 37.9179 45.6875 39.4688C45.6875 41.0196 44.4258 42.2812 42.875 42.2812ZM45.6875 34.5986C44.8597 34.1187 43.8988 33.8438 42.875 33.8438C41.8512 33.8438 40.8903 34.1187 40.0625 34.5986V8.53125C40.0625 6.98044 41.3242 5.71875 42.875 5.71875C44.4258 5.71875 45.6875 6.98044 45.6875 8.53125V34.5986Z" fill="#005aee"/>
<path d="M32.9375 11.3438H7.625C6.84837 11.3438 6.21875 11.9734 6.21875 12.75V38.0625C6.21875 38.8391 6.84837 39.4688 7.625 39.4688H21.6875C22.0605 39.4688 22.4181 39.3205 22.6818 39.0568C22.9456 38.7931 23.0938 38.4354 23.0938 38.0625V35.25C23.0938 33.4166 24.2693 31.8526 25.9062 31.2722V38.0625C25.9062 38.8391 26.5359 39.4688 27.3125 39.4688H32.9375C33.7141 39.4688 34.3438 38.8391 34.3438 38.0625V12.75C34.3438 11.9734 33.7141 11.3438 32.9375 11.3438ZM31.5312 36.6562H28.7188V29.625C28.7188 28.8484 28.0891 28.2188 27.3125 28.2188C23.4355 28.2188 20.2812 31.373 20.2812 35.25V36.6562H9.03125V28.2188H14.6562V32.4375C14.6562 33.2141 15.2859 33.8438 16.0625 33.8438C16.8391 33.8438 17.4688 33.2141 17.4688 32.4375V26.8125C17.4688 26.0359 16.8391 25.4062 16.0625 25.4062H9.03125V14.1562H17.4688V19.7812H13.25C12.4734 19.7812 11.8438 20.4109 11.8438 21.1875C11.8438 21.9641 12.4734 22.5938 13.25 22.5938H18.875H24.5C25.2766 22.5938 25.9062 21.9641 25.9062 21.1875C25.9062 20.4109 25.2766 19.7812 24.5 19.7812H20.2812V14.1562H31.5312V36.6562Z" fill="#005aee"/>
</g>
<defs>
<clipPath id="clip0">
<rect width="48" height="48" fill="white" transform="translate(0.5)"/>
</clipPath>
</defs>
</svg>
