<svg xmlns="http://www.w3.org/2000/svg" width="1920" height="968" fill="none" xmlns:v="https://vecta.io/nano"><g clip-path="url(#A)"><g opacity=".4" stroke="#00f0b5"><path d="M2318.13 350.576c29 35.523 43.05 67.707 42.3 96.568-.74 28.834-16.25 54.474-46.68 76.918-61 45-118.7 81.968-173.05 110.905-54.26 28.882-119.5 35.298-195.74 19.188-76.17-16.1-135.2-64.494-177.12-145.294-41.9-80.79-41.23-150.77 1.88-210.06 43.24-59.476 82.14-109.368 116.7-149.68 34.47-40.22 82-65.3 142.6-75.188 30.26-4.94 57.55-.96 81.9 11.92 24.37 12.885 45.82 34.695 64.36 65.473 37.16 61.7 84.77 128.107 142.83 199.248z"/><path d="M2261.67 356.686c23.54 28.85 34.95 54.968 34.36 78.373-.6 23.377-13.16 44.17-37.83 62.374-49.5 36.522-96.32 66.52-140.42 90-44 23.424-96.93 28.614-158.8 15.5-61.8-13.085-109.7-52.39-143.75-118-34.03-65.598-33.5-122.388 1.45-170.484 35.08-48.283 66.64-88.785 94.67-121.506 27.95-32.63 66.5-52.965 115.67-60.98 24.54-4 46.68-.76 66.43 9.698 19.76 10.462 37.18 28.166 52.23 53.156 30.18 50.114 68.85 104.068 116 161.862z"/></g><g opacity=".3" fill="#00f0b5"><path d="M-208.695 968.406c11.093 0 22.185-4.194 30.61-12.69l316.996-319.637c16.852-16.992 16.852-44.633 0-61.625-8.213-8.282-19.093-12.8-30.612-12.8s-22.4 4.517-30.612 12.8L-239.307 894.09C-247.52 902.37-252 913.233-252 924.956c0 11.615 4.48 22.585 12.692 30.867 8.533 8.39 19.52 12.583 30.612 12.583zm316.995-404.6c10.986 0 21.332 4.302 29.012 12.153 16 16.133 16 42.482 0 58.615L-179.683 954.21c-16 16.133-42.13 16.133-58.13 0a41.35 41.35 0 0 1-12.053-29.253c0-11.078 4.266-21.5 12.053-29.253l317.1-319.745c7.68-7.85 18.026-12.153 29.012-12.153z"/><path d="M-195.896 887.744c11.092 0 22.185-4.195 30.61-12.69L151.7 555.416c16.853-16.992 16.853-44.633 0-61.625-8.213-8.282-19.092-12.8-30.61-12.8s-22.4 4.517-30.612 12.8l-316.995 319.636c-8.213 8.282-12.692 19.144-12.692 30.867 0 11.615 4.48 22.585 12.692 30.867 8.533 8.388 19.52 12.583 30.612 12.583zm316.995-404.6c10.986 0 21.332 4.302 29.01 12.153 16 16.133 16 42.482 0 58.615l-316.995 319.636c-16 16.133-42.13 16.133-58.13 0-7.786-7.85-12.052-18.283-12.052-29.253 0-11.078 4.266-21.5 12.052-29.253L92.087 495.296c7.68-7.85 18.026-12.153 29.012-12.153z"/></g></g><defs><clipPath id="A"><path fill="#fff" d="M0 0h1920v968H0z"/></clipPath></defs></svg>