<svg xmlns="http://www.w3.org/2000/svg" width="1920" height="1150" fill="none" xmlns:v="https://vecta.io/nano"><g clip-path="url(#A)"><g opacity=".4" stroke="#00f0b5"><path d="M-308.158 272.05c-19.76-42.264-25.57-77.452-17.56-105.616 8.002-28.138 29.834-49.383 65.636-63.695 71.776-28.694 138.23-50.343 199.365-64.95C.304 23.208 66.535 33.49 138 68.697c71.385 35.168 117.66 97.725 138.806 187.75 10.574 45.015 11.275 84.662 2.137 118.956-9.137 34.29-28.116 63.256-56.955 86.91-57.826 47.43-108.93 86.55-153.316 117.364-44.287 30.746-97.68 43.292-160.212 37.607-31.22-2.84-57.256-13.688-78.135-32.535s-36.64-45.73-47.243-80.676c-21.252-70.043-51.667-147.385-91.24-232.025z"/><path d="M-250.693 280.4c-16.04-34.32-20.752-62.878-14.266-85.72 6.48-22.816 24.165-40.048 53.2-51.66 58.242-23.3 112.165-40.86 161.77-52.71 49.492-11.824 103.222-3.467 161.212 25.136 57.91 28.563 95.462 79.355 112.634 152.455 8.587 36.553 9.162 68.74 1.757 96.573-7.403 27.827-22.79 51.335-46.174 70.53-46.918 38.51-88.383 70.274-124.395 95.29-35.914 24.95-79.22 35.125-129.95 30.498-25.32-2.3-46.43-11.12-63.363-26.416s-29.72-37.12-38.328-65.493c-17.263-56.9-41.962-119.727-74.095-188.483z"/><path d="M-215.406 285.59c-13.75-29.42-17.783-53.887-12.228-73.45 5.547-19.535 20.69-34.297 45.572-44.247 49.935-19.968 96.166-35.032 138.694-45.192C-.952 112.57 45.1 119.73 94.8 144.25c49.63 24.48 81.817 68 96.537 130.67 7.36 31.333 7.852 58.917 1.507 82.77-6.343 23.844-19.526 43.987-39.567 60.437-40.227 33.02-75.78 60.252-106.654 81.7-30.778 21.38-67.89 30.104-111.375 26.137-21.696-1.98-39.782-9.527-54.286-22.63-14.5-13.108-25.465-31.803-32.843-56.123-14.803-48.8-35.982-102.663-63.534-161.618z"/></g><g opacity=".4" stroke="#00f0b5"><path d="M1644.48 873.242l40.76 21.2c44.64 23.556 91.5 48.286 138.6 63.208 61.63 19.532 123.52 22.218 181.12-16.53 55.95-37.63 69.46-97.244 74.38-163.507 1.23-16.562 1.92-33.53 2.6-50.667l.05-1.214 2.53-50.446c2.4-34.44 6.92-68.582 17.8-100.448 11.94-34.934 32.05-68.54 54.7-101.273 11.32-16.367 23.28-32.523 35.17-48.518l2.34-3.156 32.42-44.422c44.25-63.01 76.04-124.275 50.9-187.675-26.8-67.592-88.98-115.218-163.02-141.233-74.03-26.013-159.87-30.4-233.9-11.544-63.94 16.275-103.08 66.483-137.22 126.06-10.3 17.98-20.14 36.787-30.06 55.76l-19.84 37.446c-17.02 31.32-35.27 61.87-57.22 88.53-21.04 25.56-47 48.41-74.07 70.258l-32.43 25.59-48.28 38.706c-50.97 43.186-91.03 89.187-90.08 151.735 1 65.08 36.57 111.66 85.74 148.962 40.07 30.403 89.12 54.6 135.74 77.602l31.3 15.564z"/><path d="M1701.22 795.188l32.1 16.704c35.15 18.545 72.04 38 109.1 49.756 48.5 15.373 97.2 17.48 142.5-13.002 44-29.6 54.64-76.49 58.52-128.655.96-13.038 1.5-26.395 2.05-39.888l.04-.957 1.98-39.72c1.9-27.12 5.45-54.012 14.03-79.114 9.4-27.52 25.24-53.99 43.07-79.763 8.9-12.888 18.33-25.61 27.7-38.204l1.85-2.483 25.52-34.974c34.84-49.612 59.83-97.804 40.05-147.662-21.1-53.18-70-90.66-128.28-111.138-58.28-20.474-125.84-23.92-184.1-9.086-50.3 12.802-81.1 52.3-107.98 99.203-8.1 14.155-15.85 28.958-23.66 43.896l-15.62 29.488c-13.4 24.662-27.78 48.723-45.06 69.72-16.58 20.132-37.03 38.127-58.34 55.332l-25.54 20.152-38 30.47c-40.12 34-71.63 70.2-70.88 119.384.78 51.195 28.76 87.84 67.46 117.2 31.54 23.93 70.15 42.976 106.86 61.087l24.65 12.256z"/><path d="M1742.2 738.793l25.84 13.448c28.3 14.926 57.97 30.586 87.8 40.036 39.03 12.368 78.18 14.06 114.62-10.452 35.38-23.796 43.94-61.493 47.05-103.473.78-10.492 1.22-21.24 1.65-32.1l.04-.767 1.6-31.975c1.53-21.832 4.4-43.485 11.3-63.7 7.57-22.16 20.32-43.474 34.67-64.22 7.18-10.375 14.76-20.615 22.3-30.75l1.48-2 20.54-28.145c28.04-39.932 48.12-78.677 32.23-118.75-16.97-42.767-56.3-72.918-103.2-89.393-46.9-16.473-101.25-19.244-148.13-7.31-40.44 10.294-65.2 42.05-86.84 79.798-6.53 11.392-12.76 23.302-19.05 35.323l-12.57 23.738c-10.8 19.85-22.36 39.223-36.28 56.13-13.35 16.212-29.8 30.7-46.97 44.548l-20.55 16.223-30.6 24.518c-32.3 27.364-57.6 56.465-57 96 .63 41.16 23.12 70.63 54.25 94.25 25.38 19.255 56.44 34.578 86 49.155l19.84 9.866z"/></g></g><defs><clipPath id="A"><path fill="#fff" d="M0 0h1920v1150H0z"/></clipPath></defs></svg>