<svg xmlns="http://www.w3.org/2000/svg" width="1920" height="760" fill="none" xmlns:v="https://vecta.io/nano"><g clip-path="url(#A)"><g opacity=".4" stroke="#00f0b5"><path d="M2177.7 688l20.8-20.468c22.94-22.343 47.02-45.787 65.22-71.28 23.83-33.363 37.52-70.142 25.4-112.42-11.75-41.043-45.03-60.826-84.06-76.746-9.75-3.98-19.86-7.713-30.07-11.478l-.72-.266-29.97-11.388c-20.32-8.192-40.07-17.6-57.2-30.414-18.78-14.048-35.15-32.775-50.48-52.847-7.67-10.038-15.1-20.418-22.42-30.723l-1.45-2.033-20.47-28.252c-29.4-39.032-60.1-70.116-103.2-67.338-45.97 2.965-86.84 31.14-117 70.725-30.15 39.58-49.57 90.5-52.66 138.855-2.67 41.702 19.94 75.098 49.22 107.35 8.84 9.734 18.27 19.342 27.78 29.038l18.73 19.303c15.58 16.402 30.47 33.4 42.28 51.878 11.32 17.718 20.05 37.875 27.94 58.488l9.12 24.588 13.92 36.702c16.1 39.205 36 72.308 73.87 83.934 39.4 12.1 74.42-.234 106.53-22.605 26.17-18.237 50.35-43.1 73.35-66.75L2177.7 688z"/><path d="M2141.66 638.498l16.37-16.12c18.07-17.6 37-36.04 51.34-56.102 18.75-26.254 29.5-55.18 20-88.423-9.24-32.264-35.4-47.824-66.12-60.356-7.68-3.132-15.63-6.072-23.67-9.036l-.57-.21-23.6-8.968c-16-6.45-31.56-13.86-45.06-23.96-14.8-11.07-27.68-25.824-39.76-41.63-6.04-7.905-11.88-16.08-17.65-24.192l-1.14-1.6-16.12-22.242c-23.14-30.734-47.3-55.158-81.15-52.975-36.16 2.332-68.3 24.492-92.04 55.643-23.73 31.148-39 71.227-41.45 109.27-2.1 32.79 15.68 59.054 38.73 84.444 6.96 7.663 14.38 15.224 21.87 22.857l14.75 15.202c12.27 12.916 24 26.305 33.3 40.86 8.92 13.96 15.8 29.838 22 46.07l7.18 19.364 10.96 28.89c12.68 30.866 28.33 56.885 58.1 66.023 30.98 9.515 58.52-.18 83.78-17.783 20.6-14.352 39.63-33.918 57.74-52.538l12.22-12.488z"/><path d="M2115.64 602.727l13.18-12.98c14.54-14.157 29.78-28.996 41.3-45.136 15.08-21.118 23.73-44.368 16.08-71.086-7.43-25.92-28.44-38.428-53.16-48.513-6.18-2.52-12.58-4.885-19.05-7.27l-.46-.17-19-7.218c-12.9-5.194-25.42-11.162-36.3-19.297-11.92-8.917-22.3-20.8-32.03-33.525-4.86-6.363-9.56-12.944-14.2-19.473l-.9-1.287-12.98-17.9c-18.62-24.738-38.03-44.35-65.22-42.597-29.07 1.874-54.92 19.688-74 44.746s-31.38 57.294-33.34 87.894c-1.68 26.348 12.6 47.462 31.15 67.893 5.6 6.167 11.57 12.25 17.6 18.39l11.88 12.24c9.88 10.397 19.32 21.178 26.8 32.902 7.2 11.244 12.72 24.03 17.73 37.097l5.78 15.6 8.8 23.244c10.2 24.84 22.8 45.742 46.7 53.082 24.9 7.645 47.02-.14 67.34-14.3 16.57-11.545 31.88-27.284 46.45-42.27l9.85-10.054z"/></g></g><defs><clipPath id="A"><path fill="#fff" d="M0 0h1920v760H0z"/></clipPath></defs></svg>