<svg xmlns="http://www.w3.org/2000/svg" width="1920" height="2300" fill="none" xmlns:v="https://vecta.io/nano"><g clip-path="url(#A)"><g fill="#00f0b5"><g opacity=".3"><path d="M-155.708 2392.83c10.322 0 20.645-3.87 28.486-11.72l294.988-294.98c15.682-15.7 15.682-41.2 0-56.88a40.03 40.03 0 0 0-28.487-11.81 40.03 40.03 0 0 0-28.486 11.81l-294.988 295c-7.642 7.64-11.8 17.67-11.8 28.5a40 40 0 0 0 11.811 28.48 40.57 40.57 0 0 0 28.487 11.62zm294.987-373.4c10.224 0 19.85 3.97 26.998 11.2 14.888 14.9 14.888 39.2 0 54.1L-128.71 2379.7c-14.888 14.9-39.206 14.9-54.094 0-7.246-7.24-11.216-16.87-11.216-27 0-10.23 3.97-19.85 11.216-27l295.087-295.1c7.146-7.24 16.774-11.2 26.997-11.2z"/><path d="M-143.798 2318.38c10.322 0 20.645-3.87 28.486-11.7l294.988-295c15.682-15.68 15.682-41.2 0-56.87a40.03 40.03 0 0 0-28.487-11.81 40.03 40.03 0 0 0-28.486 11.81l-294.988 295c-7.642 7.64-11.8 17.67-11.8 28.5 0 10.7 4.17 20.84 11.8 28.48a40.59 40.59 0 0 0 28.487 11.6zM151.2 1945c10.224 0 19.85 3.97 26.998 11.2 14.888 14.9 14.888 39.2 0 54.1L-116.8 2305.28c-14.888 14.9-39.206 14.9-54.094 0-7.246-7.24-11.216-16.87-11.216-27 0-10.23 3.97-19.86 11.216-27l295.087-295.1c7.146-7.24 16.774-11.2 26.997-11.2z"/></g><g opacity=".4"><path d="M1663.48 976.04l-24.5 24.4 1.58 1.57 24.48-24.392-1.57-1.57zm24.48-.013l-24.48 24.393 1.57 1.57 24.48-24.394-1.57-1.57zm24.48-.013l-24.48 24.396 1.58 1.57 24.48-24.397-1.58-1.57zm24.5-.008l-24.48 24.394 1.57 1.57 24.48-24.396-1.57-1.568zm24.5-.006l-24.48 24.4 1.57 1.57 24.48-24.4-1.57-1.57z"/></g></g><g opacity=".4" stroke="#00f0b5"><path d="M38.56 263.45l-23.982-2.9c-26.305-3.323-53.895-6.808-79.783-5.436-33.877 1.795-64.723 11.907-85.82 41.534-20.477 28.756-16.124 60.467-6.288 93.945 2.458 8.366 5.255 16.833 8.088 25.386l.2.606 8.093 25.276c5.2 17.388 9.3 35.033 9.836 52.745.596 19.416-3.082 39.685-8.16 59.974-2.54 10.147-5.432 20.306-8.32 30.37l-.57 1.985-7.72 27.832c-10.1 39.17-14.354 75.05 9.642 101.466C-120.6 744.45-81.3 756.355-40.127 755.45s84.14-14.617 117.02-37.553c28.344-19.77 38.288-51.6 44.052-87.208 1.74-10.744 3.094-21.8 4.462-32.96l2.827-22.093c2.577-18.553 5.9-36.967 11.768-54.156 5.627-16.484 14.178-32.538 23.445-48.3l11.217-18.592 16.57-27.946c17.067-30.656 28.2-60.595 16.205-91.062-12.5-31.72-38.516-48.006-69.553-57.24C112.58 270.822 84.02 268 56.84 265.316l-18.28-1.866z"/><path d="M25.103 312.324l-18.9-2.278c-20.7-2.616-42.418-5.358-62.8-4.278-26.656 1.413-50.905 9.367-67.5 32.658-16.092 22.598-12.678 47.52-4.936 73.874 1.935 6.585 4.137 13.25 6.368 19.984l.16.48 6.372 19.9c4.086 13.694 7.32 27.597 7.748 41.556.47 15.302-2.428 31.272-6.428 47.25-2 8-4.278 16-6.55 23.914l-.448 1.562-6.08 21.912c-7.952 30.844-11.284 59.038 7.567 79.8 20.147 22.177 51.054 31.546 83.453 30.835s66.207-11.503 92.077-29.548c22.28-15.54 30.103-40.57 34.64-68.594 1.37-8.458 2.436-17.157 3.512-25.942L95.6 558c2.03-14.6 4.646-29.116 9.27-42.66 4.434-12.988 11.17-25.636 18.468-38.04l8.835-14.643 13.042-21.996c13.436-24.134 22.178-47.667 12.753-71.605-9.817-24.93-30.273-37.738-54.693-45.003-19.912-5.925-42.388-8.145-63.787-10.26l-14.396-1.468z"/><path d="M15.378 347.635L.166 345.8c-16.666-2.105-34.126-4.3-50.514-3.442-21.438 1.136-40.92 7.532-54.247 26.245-12.923 18.148-10.188 38.167-3.958 59.372 1.557 5.298 3.328 10.66 5.124 16.08l.127.384 5.13 16.023c3.3 11.024 5.895 22.223 6.24 33.47.38 12.33-1.957 25.193-5.177 38.056-1.6 6.433-3.444 12.874-5.274 19.25l-.36 1.258-4.9 17.632c-6.4 24.828-9.066 47.468 6.067 64.126 16.2 17.822 41.034 25.358 67.093 24.786s53.25-9.252 74.055-23.765c17.897-12.484 24.2-32.594 27.84-55.143 1.102-6.806 1.96-13.804 2.826-20.872l1.793-14c1.633-11.76 3.74-23.443 7.465-34.353 3.572-10.463 9-20.65 14.873-30.635l7.113-11.8 10.494-17.697c10.812-19.422 17.826-38.326 10.258-57.547-7.885-20.026-24.317-30.32-43.956-36.162-16.016-4.766-34.094-6.55-51.317-8.253l-11.6-1.182z"/></g></g><defs><clipPath id="A"><path fill="#fff" d="M0 0h1920v2300H0z"/></clipPath></defs></svg>