<svg xmlns="http://www.w3.org/2000/svg" width="1920" height="800" fill="none" xmlns:v="https://vecta.io/nano"><g clip-path="url(#A)"><g opacity=".4" stroke="#00f0b5"><path d="M1770.35 153.045l-34.5 27.08c-38.07 29.534-78.04 60.538-109.57 95.595-41.27 45.886-68 98.63-57 163.975 10.67 63.46 57.17 98.694 112.84 129.083 13.9 7.595 28.4 14.883 43.02 22.233l1.04.52 42.87 22.073c29 15.67 56.9 33.05 80.32 55.072 25.67 24.143 46.97 54.874 66.5 87.46 9.77 16.294 19.1 33.06 28.33 49.7l1.82 3.282 25.85 45.694c37.34 63.298 78.08 115.07 143.1 118.19 69.32 3.326 135.22-31.95 187.02-86.07 51.8-54.116 89.42-127.02 102.2-198.818 11.04-61.995-17.18-115.806-55.53-168.967-11.57-16.044-24.04-32.004-36.63-48.108l-24.74-32.004c-20.53-27.143-39.9-55.048-54.43-84.64-13.93-28.372-23.56-59.956-31.9-92.097l-9.48-38.28-14.62-57.23c-17.46-61.33-41.67-114.28-96.42-138.093C2023.5 3.9 1969 16.48 1917.18 44.526c-42.22 22.86-82.6 55.967-120.96 87.443l-25.87 21.077z"/><path d="M1815.86 233.137l-27.17 21.325c-29.98 23.253-61.44 47.655-86.26 75.25-32.48 36.116-53.5 77.613-44.85 129.018 8.4 49.912 44.96 77.633 88.8 101.556 10.95 5.98 22.35 11.716 33.87 17.503l.82.41 33.75 17.38c22.83 12.34 44.82 26.028 63.26 43.377 20.23 19.02 37 43.225 52.4 68.884 7.7 12.83 15.04 26.03 22.3 39.133l1.43 2.583 20.35 35.975c29.4 49.84 61.45 90.55 112.58 93.002 54.54 2.617 106.4-25.138 147.17-67.734 40.76-42.593 70.38-99.975 80.45-156.484 8.7-48.767-13.5-91.102-43.7-132.954-9.1-12.63-18.93-25.194-28.84-37.87l-19.48-25.203c-16.16-21.373-31.42-43.35-42.87-66.658-10.97-22.348-18.56-47.224-25.12-72.532l-7.45-30.145-11.52-45.052c-13.75-48.285-32.8-89.93-75.85-108.658-44.8-19.49-87.7-9.6-128.46 12.464-33.24 17.994-65 44.052-95.22 68.834l-20.37 16.598z"/><path d="M1848.73 291.003l-21.87 17.17c-24.13 18.713-49.44 38.346-69.4 60.548-26.13 29.056-43.03 62.427-36.08 103.76 6.75 40.124 36.14 62.415 71.4 81.667 8.82 4.812 18 9.428 27.26 14.086l.66.33 27.17 14c18.38 9.932 36.08 20.955 50.93 34.927 16.3 15.316 29.8 34.808 42.18 55.462 6.2 10.328 12.1 20.954 17.95 31.5l1.15 2.08 16.38 28.952c23.67 40.116 49.44 72.833 90.53 74.804 43.86 2.105 85.58-20.215 118.37-54.486 32.8-34.268 56.63-80.435 64.73-125.896 6.98-39.21-10.86-73.254-35.16-106.935-7.33-10.165-15.23-20.273-23.2-30.474l-15.7-20.29c-13-17.203-25.3-34.898-34.5-53.665-8.84-17.997-14.95-38.026-20.23-58.396l-6-24.268-9.27-36.253c-11.06-38.86-26.38-72.335-61-87.39-36.03-15.67-70.5-7.73-103.3 10.028-26.74 14.477-52.3 35.443-76.62 55.388l-16.4 13.362z"/></g></g><defs><clipPath id="A"><path fill="#fff" d="M0 0h1920v800H0z"/></clipPath></defs></svg>