<svg xmlns="http://www.w3.org/2000/svg" xmlns:xlink="http://www.w3.org/1999/xlink" width="485" height="434" fill="none" xmlns:v="https://vecta.io/nano"><style><![CDATA[.B{fill-rule:evenodd}.C{fill:#fff}.D{fill:#9a3b82}.E{fill:#ffcf2d}.F{fill:#fe5244}.G{fill:#3fb1b5}.H{fill:#e57281}]]></style><path d="M388.786 433.543H0l158.875-376.04h71.036l158.875 376.04z" fill="#d0f0e4"/><g class="B E"><path d="M194.394 21.846l7.06 7.04-.648.646-6.413-6.393-6.413 6.393-.648-.646 7.06-7.04z"/><path d="M194.85 0v22.492h-.916V0h.916z"/></g><path d="M194.392 69.227c6 0 10.846-4.84 10.846-10.812s-4.856-10.812-10.846-10.812-10.846 4.84-10.846 10.812 4.856 10.812 10.846 10.812z" class="E"/><g class="B"><path d="M194.392 48.06c-5.737 0-10.388 4.636-10.388 10.355s4.65 10.355 10.388 10.355 10.388-4.636 10.388-10.355-4.65-10.355-10.388-10.355zm-11.304 10.355c0-6.224 5.06-11.27 11.304-11.27s11.305 5.045 11.305 11.27-5.06 11.27-11.305 11.27-11.304-5.045-11.304-11.27z" class="C"/><path d="M194.41 29.162c-16.76 0-31.063 10.19-34.123 24.128l-.826 3.755h69.882l-.826-3.77c-1.53-6.97-5.856-13-11.916-17.283h-.001c-6.045-4.283-13.82-6.83-22.2-6.83zM159.4 53.094c3.172-14.446 17.926-24.846 35.02-24.846 8.555 0 16.515 2.6 22.72 6.998 6.222 4.397 10.696 10.612 12.282 17.833h0l1.068 4.88h-72.16l1.07-4.864z" class="D"/></g><path d="M323.588 300.023h-7.2v45.38h7.2v-45.38z" fill="#66b0f0"/><path d="M454.524 345.402h-41.048c-1.482 0-2.627-1.28-2.444-2.74l5.713-48.075a2.47 2.47 0 0 1 2.445-2.162h41.047c1.482 0 2.628 1.28 2.445 2.74l-5.714 48.075a2.47 2.47 0 0 1-2.444 2.162z" class="D"/><path d="M432.16 345.403h-32.417c-1.986 0-3.53-1.736-3.3-3.7l4.156-35a3.33 3.33 0 0 1 3.299-2.923h33.196l-4.934 41.633z" class="C"/><path d="M401.053 306.747l-4.155 35.008c-.197 1.695 1.134 3.19 2.845 3.19h32.01l4.826-40.72h-32.68c-1.447 0-2.673 1.1-2.845 2.52zm-.9-.108a3.79 3.79 0 0 1 3.755-3.327h33.71l-5.042 42.547h-32.824a3.78 3.78 0 0 1-3.755-4.21h0l4.155-35z" class="B E"/><path d="M435.795 345.403H404.86c-1.986 0-3.528-1.736-3.3-3.7l4.155-35a3.33 3.33 0 0 1 3.3-2.923h31.332a1.66 1.66 0 0 1 1.649 1.857l-4.552 38.3c-.092.853-.8 1.477-1.65 1.477z" class="C"/><g class="B"><path d="M406.17 306.747l-4.155 35.008c-.197 1.695 1.134 3.19 2.845 3.19h30.935c.61 0 1.127-.452 1.194-1.07v-.003l4.553-38.303c.088-.715-.475-1.345-1.195-1.345h-31.332c-1.447 0-2.673 1.1-2.845 2.52zm-.9-.108a3.79 3.79 0 0 1 3.755-3.327h31.332a2.12 2.12 0 0 1 2.105 2.37l-4.552 38.292a2.11 2.11 0 0 1-2.105 1.885H404.86a3.78 3.78 0 0 1-3.755-4.21h0l4.155-35z" class="E"/><g class="D"><path d="M323.6 306.387h13.428v39.47H323.6v-39.47zm.916.913v37.644H336.1V307.3h-11.595z"/><path d="M331.747 306.387h18.53v39.47h-18.53v-39.47zm.917.913v37.644h16.697V307.3h-16.697z"/><path d="M347.463 302.154h5.868l18.52 43.705h-5.868l-18.52-43.705zm1.382.914l17.746 41.877h3.878l-17.746-41.877h-3.878z"/><path d="M355.066 308.656h10.072l16.006 37.202h-10.072l-16.006-37.202zm1.4.914l15.22 35.375h8.077l-15.22-35.375h-8.077zm-53.612-3.183h13.535v39.47h-13.535v-39.47zm.916.913v37.644h11.702V307.3H303.76zm-.916-30.47h59.608v8.437h-59.608v-8.437zm.916.914v6.6h57.776v-6.6H303.76z"/></g></g><path d="M377.652 271.53h-74.35v6.06h74.35v-6.06z" class="F"/><path d="M353.485 262.79h-50.183v8.59h50.183v-8.59z" class="E"/><path d="M302.844 255.77h59.608v7.324h-59.608v-7.324zm.916.913v5.498h57.776v-5.498H303.76z" class="B D"/><path d="M463.26 239.323l-.045.26-6.936 45.227h-64.344l7.027-45.867c1.1-2.223 7.82-3.944 15.964-3.944 8.906 0 16.116 2.056 16.116 4.584 0-2.528 7.21-4.584 16.117-4.584 8.6.015 15.613 1.92 16.1 4.325z" class="C"/><g class="B E"><path d="M399.406 239.084l-.08.564-6.855 44.704h63.417l6.907-45.015c-.114-.392-.504-.845-1.28-1.312-.81-.487-1.957-.937-3.38-1.32-2.84-.766-6.702-1.243-10.973-1.25-4.423 0-8.407.51-11.272 1.326-1.435.41-2.563.886-3.322 1.397-.775.52-1.064 1.004-1.064 1.404h-.917c0-.4-.288-.883-1.063-1.404-.76-.51-1.887-.988-3.323-1.397-2.864-.815-6.85-1.326-11.272-1.326-4.042 0-7.72.427-10.51 1.124-1.397.35-2.558.762-3.428 1.214-.842.437-1.354.883-1.582 1.29zm31.638-.752c-.257-.337-.606-.64-1-.912-.87-.586-2.102-1.096-3.583-1.518-2.967-.844-7.04-1.36-11.524-1.36-4.1 0-7.854.433-10.734 1.152-1.44.36-2.674.794-3.628 1.3-.94.488-1.673 1.07-2.013 1.757l-.032.065-.102.712-7.016 45.75h65.272l6.994-45.6.06-.34-.017-.085c-.16-.794-.832-1.453-1.725-1.99-.91-.548-2.147-1.025-3.613-1.42-2.938-.792-6.882-1.274-11.212-1.282h-.001c-4.483 0-8.556.517-11.524 1.36-1.48.422-2.71.932-3.583 1.518-.403.272-.753.575-1.01.912z"/><path d="M431.51 239.666l-6.874 45.227-.907-.136 6.875-45.228.906.137z"/></g><path d="M424.185 284.824c0-2.528-7.21-4.584-16.117-4.584s-16.117 2.056-16.117 4.584h32.234z" class="E"/><path d="M456.42 284.824c0-2.528-7.21-4.584-16.117-4.584s-16.116 2.056-16.116 4.584h32.233z" class="E"/><path d="M461.255 236.877c.25.04.42.274.38.523l-6.964 43.638-.528-.204c-2.81-1.08-8.225-1.856-13.75-1.66-4.423.16-8.39.81-11.224 1.724-1.42.458-2.53.975-3.27 1.51-.755.547-1.027 1.04-1.012 1.44a.46.46 0 0 1-.442.473c-.252.01-.465-.188-.474-.44-.03-.864.555-1.607 1.39-2.21.85-.616 2.063-1.17 3.528-1.64 2.936-.948 7-1.607 11.473-1.768 5.277-.188 10.516.494 13.583 1.53l6.788-42.535c.04-.25.274-.42.524-.38z" class="B E"/><path d="M458.13 224.233h-57.775V211.41c0-1.264 1.023-2.284 2.29-2.284h53.208c1.268 0 2.29 1.02 2.29 2.284v12.822h-.015z" class="C"/><path d="M402.644 209.584c-1.015 0-1.833.815-1.833 1.827v12.365h56.874V211.41c0-1.012-.818-1.827-1.833-1.827h-53.208zm-2.75 1.827c0-1.516 1.228-2.74 2.75-2.74h53.208c1.52 0 2.75 1.225 2.75 2.74v13.28h-58.707v-13.28z" class="B D"/><path d="M462.743 208.517h-49.786c-.78 0-1.39-.624-1.39-1.385v-5.102c0-.776.627-1.385 1.39-1.385h49.786c.78 0 1.4.624 1.4 1.385v5.102c0 .76-.627 1.385-1.4 1.385z" class="E"/><path d="M464.683 195.863h-59.06v4.782h59.06v-4.782z" class="F"/><path d="M463.612 195.864h-45.08a1.07 1.07 0 0 1-1.069-1.066v-3.853a1.07 1.07 0 0 1 1.069-1.066h45.08a1.07 1.07 0 0 1 1.069 1.066v3.853a1.07 1.07 0 0 1-1.069 1.066z" class="C"/><path d="M418.533 190.334c-.332 0-.612.27-.612.6v3.852c0 .33.273.6.612.6h45.08c.338 0 .6-.28.6-.6v-3.852c0-.33-.273-.6-.6-.6h-45.08zm-1.528.6a1.53 1.53 0 0 1 1.528-1.523h45.08a1.53 1.53 0 0 1 1.527 1.523v3.852a1.53 1.53 0 0 1-1.527 1.523h-45.08a1.53 1.53 0 0 1-1.528-1.523v-3.852zM321.8 176.736h18.255v47.953H321.8v-47.953zm.916.914v46.126h16.423V177.65h-16.423z" class="B D"/><path d="M322.26 177.193h-6.996v47.04h6.996v-47.04z" class="C"/><path d="M314.805 176.736h7.913v47.953h-7.913v-47.953zm.916.914v46.126h6.08V177.65h-6.08z" class="B D"/><path d="M315.263 177.193H303.5v47.04h11.763v-47.04z" class="C"/><path d="M303.042 176.736h12.68v47.953h-12.68v-47.953zm.917.914v46.126h10.846V177.65H303.96zm37.473 7.584h16.116v39.47h-16.116v-39.47zm.916.914v37.644h14.284v-37.644h-14.284z" class="B D"/><path d="M343 224.233h-5.988a1.07 1.07 0 0 1-1.069-1.066v-36.44a1.07 1.07 0 0 1 1.069-1.066H343a1.07 1.07 0 0 1 1.07 1.066v36.44c-.016.594-.49 1.066-1.07 1.066z" class="C"/><g class="D"><path d="M337.002 186.117c-.338 0-.61.278-.61.61v36.44c0 .337.28.61.61.61h5.99c.32 0 .6-.26.61-.616v-36.434c0-.337-.28-.61-.61-.61h-5.99zm-1.527.61a1.53 1.53 0 0 1 1.527-1.523h5.99a1.53 1.53 0 0 1 1.527 1.523v36.452c-.02.83-.687 1.51-1.527 1.51h-5.99c-.83 0-1.527-.672-1.527-1.522v-36.44z" class="B"/><path d="M357.1 185.69v21.137l-8.234-21.137h8.234z"/></g><path d="M392.287 224.233h-24.32c-.535 0-1.024-.335-1.207-.822l-15.796-40.537a1.29 1.29 0 0 1 1.207-1.767h24.32c.535 0 1.024.335 1.207.823l15.796 40.537a1.29 1.29 0 0 1-1.207 1.766z" class="C"/><path d="M352.172 181.564c-.594 0-1 .6-.78 1.143l.001.001L367.2 223.25a.84.84 0 0 0 .777.526h24.32c.593 0 .998-.6.78-1.142l-15.8-40.544c-.114-.305-.43-.526-.777-.526h-24.32zm-1.634 1.476a1.75 1.75 0 0 1 1.634-2.39h24.32c.72 0 1.382.448 1.635 1.116L393.92 222.3a1.75 1.75 0 0 1-1.633 2.391h-24.32c-.72 0-1.382-.448-1.635-1.116l-15.794-40.533z" class="B E"/><path d="M396.258 224.233h-24.32a1.3 1.3 0 0 1-1.207-.822l-15.795-40.537a1.29 1.29 0 0 1 1.207-1.767h24.32c.534 0 1.023.335 1.206.823l15.796 40.537a1.29 1.29 0 0 1-1.207 1.766z" class="C"/><g class="B E"><path d="M356.143 181.564c-.593 0-.998.6-.78 1.143l.001.001 15.797 40.542a.84.84 0 0 0 .778.526h24.32c.594 0 .998-.6.78-1.142l-15.8-40.534a.84.84 0 0 0-.778-.526h-24.32zm-1.633 1.476a1.75 1.75 0 0 1 1.633-2.39h24.32c.72 0 1.383.448 1.635 1.116l15.795 40.533a1.75 1.75 0 0 1-1.634 2.391h-24.32c-.72 0-1.382-.448-1.635-1.116L354.5 183.04zm70.34-80.436l14.7 51.072-.443.124a26.99 26.99 0 0 1-7.29 1.007c-14.72 0-26.642-11.884-26.642-26.557 0-12.102 8.13-22.328 19.244-25.52l.44-.126zm-.627 1.135c-10.506 3.222-18.14 12.987-18.14 24.5 0 14.168 11.512 25.644 25.725 25.644a26.04 26.04 0 0 0 6.596-.852l-14.18-49.303z"/><path d="M431.35 163.654v-9.304h.916v9.304h-.916z"/></g><path d="M431.806 150.36c12.25 0 22.182-9.9 22.182-22.11s-9.93-22.11-22.182-22.11-22.18 9.9-22.18 22.11 9.93 22.11 22.18 22.11z" class="C"/><path d="M431.807 106.595c-11.998 0-21.723 9.695-21.723 21.655s9.725 21.654 21.723 21.654 21.723-9.695 21.723-21.654-9.726-21.655-21.723-21.655zm-22.64 21.655c0-12.464 10.136-22.568 22.64-22.568s22.64 10.104 22.64 22.568-10.136 22.568-22.64 22.568-22.64-10.105-22.64-22.568z" class="B G"/><path d="M441.08 163.593h-18.47l9.166-4.583 9.304 4.583z" class="C"/><g class="B"><path d="M431.774 158.5l11.266 5.55h-22.366l11.1-5.55zm.003 1.02l-7.232 3.616h14.572l-7.34-3.616z" class="E"/><path d="M302.844 163.2H465.14V434h-9.273v-20.1c0-4.118-3.354-7.46-7.486-7.46H319.5c-4.13 0-7.485 3.343-7.485 7.46V434h-9.18V163.2zm.916.914v268.973h7.348v-19.188c0-4.622 3.765-8.375 8.402-8.375h128.872c4.638 0 8.402 3.753 8.402 8.375v19.188h7.44V164.113H303.76z" class="D"/><path d="M314.59 352.863a2.73 2.73 0 0 0-2.734 2.726v39.73a2.73 2.73 0 0 0 2.734 2.726h138.497a2.73 2.73 0 0 0 2.734-2.726v-39.73a2.73 2.73 0 0 0-2.734-2.726H314.59zm-3.65 2.726c0-2.002 1.625-3.64 3.65-3.64h138.497c2.008 0 3.65 1.62 3.65 3.64v39.73c0 2.02-1.643 3.64-3.65 3.64H314.59c-2.008 0-3.65-1.62-3.65-3.64v-39.73z" class="G"/></g><path d="M391.142 126.6v37.065h-13.016l13.016-37.065z" class="D"/><path d="M391.14 126.6l-.092.274-12.847 36.79h-59.73l13.26-37.964c1.924-2.756 7.256-4.766 13.61-4.873h.61c7.424 0 14.04 2.574 15.246 5.955 1.19-3.38 7.516-5.955 14.94-5.955 7.272 0 13.642 2.483 15.002 5.772z" class="C"/><g class="B E"><path d="M345.34 120.36h.615c3.76 0 7.33.652 10.122 1.74 2.317.904 4.18 2.142 5.12 3.63.913-1.484 2.708-2.723 4.966-3.628 2.72-1.09 6.217-1.743 9.98-1.743 3.684 0 7.15.63 9.883 1.683 2.706 1.046 4.79 2.55 5.542 4.372l.065.157-.147.438-12.955 37.1h-60.702l13.493-38.63.036-.05c1.038-1.487 2.952-2.722 5.363-3.598 2.422-.88 5.395-1.417 8.616-1.47h.004zm.008.914c-3.132.053-6 .575-8.314 1.415-2.294.834-3.994 1.963-4.9 3.212l-.39 1.113-12.635 36.183h58.76l12.774-36.586c-.663-1.41-2.413-2.733-4.958-3.716-2.612-1.008-5.965-1.62-9.552-1.62-3.664 0-7.04.636-9.637 1.676-2.62 1.05-4.343 2.472-4.87 3.973l-.43 1.22-.435-1.218c-.533-1.495-2.325-2.918-5.026-3.972-2.672-1.042-6.124-1.678-9.788-1.678h-.607z"/><path d="M361.338 126.343c.24.085.363.347.277.584l-12.97 36.12a.46.46 0 0 1-.586.276c-.238-.085-.363-.346-.277-.584l12.97-36.12a.46.46 0 0 1 .586-.276z"/></g><path d="M348.183 163.197H318.47c1.1-3.426 7.27-6.06 14.696-6.06 7.455 0 13.917 2.634 15.016 6.06zm29.943 0h-29.713c1.1-3.426 7.272-6.06 14.696-6.06 7.455 0 13.917 2.634 15.017 6.06z" class="E"/><g class="B D"><path d="M376.063 362.472c-.952 0-1.71.768-1.71 1.706a.46.46 0 0 1-.458.457.46.46 0 0 1-.458-.457 2.62 2.62 0 0 1 2.627-2.619h16.208c1.443 0 2.628 1.16 2.628 2.62a.46.46 0 0 1-.458.457.46.46 0 0 1-.459-.457c0-.95-.77-1.706-1.71-1.706h-16.208z"/><use xlink:href="#B"/><path d="M302.844 224.232a.46.46 0 0 1 .458-.457h161.38a.46.46 0 0 1 .459.457c0 .253-.205.457-.46.457h-161.38c-.253 0-.458-.204-.458-.457z"/><use xlink:href="#B" y="60.578"/><path d="M323.313 106.637c.24.083.365.344.28.582l-19.646 55.98h160.41l19.752-56.282a.46.46 0 0 1 .584-.28c.24.083.365.344.28.582l-19.86 56.587c-.064.184-.238.306-.433.306h-161.38a.46.46 0 0 1-.374-.192c-.086-.12-.108-.275-.06-.415l19.86-56.588a.46.46 0 0 1 .584-.28z"/></g><path d="M139.506 413.87v16.568c0 1.72 1.4 3.107 3.116 3.107h41.552s.245-7.7-6.08-9.838c-10.74-3.64-15.75-9.837-15.75-9.837h-22.838z" class="C"/><g class="B F"><path d="M139.506 413.412h23.058l.137.17.002.003.05.06.17.194.697.734c.625.625 1.572 1.5 2.853 2.5 2.56 1.978 6.454 4.41 11.77 6.212h0c3.346 1.136 4.943 3.74 5.7 6.012.378 1.136.55 2.2.63 2.977.04.39.055.7.06.934l.003.262-.001.07v.027c0 .001 0 .001-.46-.014l.46.015-.015.442h-41.995c-1.98 0-3.575-1.6-3.575-3.563V413.87h.458v-.457zm.458.914v16.11a2.65 2.65 0 0 0 2.659 2.65H183.7c-.008-.193-.023-.442-.052-.733-.074-.73-.235-1.725-.587-2.78-.703-2.11-2.145-4.424-5.124-5.435-5.425-1.84-9.407-4.325-12.036-6.355a30.82 30.82 0 0 1-2.941-2.567c-.325-.326-.568-.588-.73-.77l-.107-.12h-22.168z"/><path d="M167.445 415.557c.425.055.87.206 1.212.548.327.326.515.7.557 1.1.04.402-.063.793-.242 1.153-.35.7-1.036 1.392-1.792 1.985-1.515 1.2-3.52 2.182-4.437 2.438l-.247-.88c.778-.217 2.676-1.144 4.117-2.276.723-.568 1.278-1.147 1.537-1.67.127-.256.17-.473.152-.657-.018-.175-.097-.36-.293-.557-.153-.153-.38-.25-.68-.287s-.643-.015-.978.043-.64.143-.864.216l-.264.092-.07.027-.02.008-.352-.844h.001l.002-.001.007-.003.023-.01.086-.033.303-.106a7.35 7.35 0 0 1 .991-.247c.385-.067.826-.104 1.25-.05zm6.98 2.646c-1.113-.895-2.453-.426-3.346.1-.468.27-.872.583-1.157.827l-.34.305-.12.115-.007.008-.003.003.66.633.004-.005.02-.02.08-.076.3-.27c.26-.22.616-.497 1.02-.73.847-.5 1.684-.675 2.312-.17v.001c.217.173.3.344.343.505.034.167.012.374-.1.627-.212.52-.717 1.12-1.397 1.72a14.95 14.95 0 0 1-2.198 1.584c-.742.442-1.385.74-1.75.842l.246.88c.484-.135 1.2-.483 1.973-.937.77-.46 1.616-1.048 2.337-1.685.7-.63 1.345-1.343 1.637-2.062.15-.366.22-.76.14-1.152-.08-.4-.3-.75-.668-1.036z"/></g><path d="M163.627 415.21l-24.12 7.477v-8.817h22.853s.413.518 1.268 1.34z" class="F"/><path d="M191.6 413.87v16.568c0 1.72 1.4 3.107 3.116 3.107h41.552s.245-7.7-6.08-9.838c-10.74-3.64-15.75-9.837-15.75-9.837H191.6z" class="C"/><g class="B F"><path d="M191.6 413.412h23.057l.138.17.002.003.05.06.17.194.697.734c.625.625 1.572 1.5 2.853 2.5 2.56 1.978 6.454 4.41 11.77 6.212h0c3.346 1.136 4.943 3.74 5.7 6.012.378 1.136.55 2.2.63 2.977.04.4.055.7.06.934l.003.262-.001.07-.001.025v.003l-.458-.015.458.015-.014.442h-41.996c-1.98 0-3.574-1.6-3.574-3.563V413.87h.458v-.457zm.458.914v16.11a2.65 2.65 0 0 0 2.658 2.65h41.088a12.78 12.78 0 0 0-.052-.733c-.074-.73-.236-1.725-.587-2.78-.703-2.11-2.146-4.424-5.124-5.435-5.425-1.84-9.407-4.325-12.036-6.355a30.82 30.82 0 0 1-2.941-2.567 20.12 20.12 0 0 1-.732-.771l-.106-.12h-22.168z"/><path d="M219.537 415.557c.426.055.87.206 1.213.548.327.326.515.7.556 1.1.04.402-.062.793-.24 1.153-.35.7-1.037 1.392-1.792 1.985-1.515 1.2-3.52 2.182-4.438 2.438l-.246-.88c.778-.217 2.676-1.144 4.117-2.276.723-.568 1.278-1.147 1.537-1.67.127-.256.17-.473.152-.657-.018-.175-.097-.36-.293-.557-.154-.153-.38-.25-.68-.287s-.643-.015-.978.043-.64.143-.864.216l-.264.092-.07.027-.02.008-.177-.422-.176-.422h.001l.003-.001.006-.003.024-.01.086-.033.303-.106c.252-.08.603-.18 1-.247s.826-.104 1.25-.05zm6.98 2.646c-1.113-.895-2.453-.426-3.347.1a8.03 8.03 0 0 0-1.157.827l-.338.305-.12.115-.007.008-.003.003.66.633h.001l.004-.005.02-.02.08-.076.3-.27c.26-.22.616-.497 1.02-.73.847-.5 1.684-.675 2.312-.17l.001.001c.218.173.3.344.344.505.034.167.012.374-.1.627-.212.52-.717 1.12-1.397 1.72a14.95 14.95 0 0 1-2.198 1.584c-.742.442-1.385.74-1.75.842l.246.88c.484-.135 1.2-.483 1.973-.937.77-.46 1.616-1.048 2.336-1.685.7-.63 1.346-1.343 1.638-2.062.15-.366.22-.76.14-1.152-.08-.4-.3-.75-.668-1.036z"/></g><path d="M215.72 415.21l-24.12 7.477v-8.817h22.853s.413.518 1.268 1.34z" class="F"/><path d="M150.738 248.95L135.7 405.98h31.47l15.81-76.095 6.462 16.218v59.877H222.2v-67.14l-17.476-89.89h-53.987z" class="G"/><g class="B"><path d="M152.04 405.925l14.635-119.312.9.1-14.635 119.312-.9-.1zm33.117-149.472l20.545 82.332v67.196h-.916v-67.085l-20.518-82.222.9-.22z" class="D"/><path d="M169.792 289.17l19.615 56.786-.866.297-19.615-56.785a4.4 4.4 0 0 0-4.165-2.951v-.913c2.272 0 4.295 1.432 5.03 3.566z" class="C"/></g><g class="D"><path d="M148.248 274.913l2.5-25.964h53.987l1.543 7.98-58.02 17.984z"/><use xlink:href="#C"/><use xlink:href="#C" x="-54.538"/></g><path d="M255.67 253.548l10.326 38.51-51.48 13.72-10.342-38.542c-.32-1.203-1.1-2.147-2.093-2.726a4.49 4.49 0 0 0-3.422-.457c-2.4.64-3.835 3.107-3.193 5.497l10.342 38.543-1.13.304-10.327-38.512c-.825-3.06.947-6.197 3.972-7.11l.183-.046 49.985-13.324a5.89 5.89 0 0 1 7.18 4.142z" fill="#66b0f0"/><path d="M205.317 266.978l10.327 38.512-1.13.305-10.342-38.542a4.48 4.48 0 0 0-2.093-2.726 4.49 4.49 0 0 0-3.422-.457c-2.4.64-3.835 3.106-3.193 5.497l10.342 38.542-1.13.305-10.327-38.512c-.825-3.06.947-6.198 3.972-7.11a5.87 5.87 0 0 1 6.996 4.187z" class="D"/><path d="M204.172 267.237l9.7 36.182-8.708 2.315-9.7-36.182c-.642-2.39.78-4.858 3.192-5.497a4.49 4.49 0 0 1 3.422.457c.993.578 1.772 1.522 2.093 2.725z" class="C"/><path d="M255.822 273.954l-23.42 8.04-18.485-33.045h-71.646c-12.176 0-21.28-11.162-18.8-23.04l7.455-35.694c2.337-11.178 12.22-19.188 23.663-19.188h48.99c11.87 0 21.983 8.59 23.862 20.27l7.38 34.75 21 47.908z" class="E"/><g class="C"><path d="M131.386 190.308l-7.455 35.694c-2.43 11.594 6.456 22.5 18.34 22.5h71.916l18.43 32.945 22.586-7.754-20.8-47.497L227 191.368c-1.843-11.458-11.764-19.884-23.41-19.884H154.6c-11.225 0-20.92 7.858-23.214 18.824zm-.898-.187c2.382-11.39 12.453-19.55 24.112-19.55h48.992c12.09 0 22.393 8.746 24.312 20.642l7.367 34.694 21.17 48.318-24.25 8.326-18.54-33.144h-71.378c-12.466 0-21.788-11.43-19.24-23.59l7.455-35.694z" class="B"/><path d="M138.454 248.568c-8.433-1.7-14.696-8.847-15.338-17.284.642-.44 1.36-.822 2.124-1.096 5.545-2.04 11.885 1.3 14.19 7.477 1.42 3.868.932 7.918-.977 10.903z"/></g><path d="M191.798 149.617v21.426h-23.725l5.47-14.253 18.256-7.173z" class="H"/><path d="M197.25 140.602c-.015 0-.046.015-.06.015l-7.042 1.858a7.68 7.68 0 0 0-5.286 4.873h-2.704a3.1 3.1 0 0 0-3.101 3.091v.046a3.09 3.09 0 0 0 2.826 3.076l-.015.015s-1.253 5.94-8.57 3.944l.596-20.482c.26-4.005 21.57-11.588 23.54-8.36 1.74 2.863-.275 4.203-1.986 4.797 3.024-.64 8.738-1.492 9.318 1.05.672 2.954-5.362 5.512-7.516 6.076z" class="D"/><path d="M198.626 151.55h-.748l.213 3.655c.153 2.62-1.955 4.843-4.582 4.843h-3.3c-3.178 0-5.76-2.574-5.76-5.74v-.716h-2.277a3.1 3.1 0 0 1-3.101-3.091v-.046a3.1 3.1 0 0 1 3.101-3.091h2.704c.825-2.346 2.765-4.22 5.286-4.873l7.042-1.858 2.414 9.64c.245.61-.336 1.28-.993 1.28z" class="H"/><path d="M185.205 154.217a.38.38 0 0 1 .344.415c-.146 1.527.542 2.847 1.664 3.8 1.128.957 2.675 1.523 4.173 1.523a.38.38 0 1 1 0 .761c-1.678 0-3.4-.63-4.668-1.705s-2.104-2.63-1.93-4.453a.38.38 0 0 1 .416-.342zm-3.81-5.347a.38.38 0 0 1 .381-.381 2.53 2.53 0 0 1 2.536 2.528c0 .2-.17.38-.382.38a.38.38 0 0 1-.382-.38c0-.977-.8-1.766-1.772-1.766a.38.38 0 0 1-.381-.381z" class="B D"/><path d="M196.03 148.84c.312 0 .565-.525.565-1.172s-.253-1.173-.565-1.173-.565.525-.565 1.173.253 1.172.565 1.172z" class="D"/><path d="M193.586 145.2l-.232-.303a.38.38 0 0 0-.071.534c.128.167.367.2.535.07l.002-.001.07-.05.232-.15c.206-.127.5-.297.895-.468.772-.343 1.86-.683 3.137-.683a.38.38 0 1 0 0-.761c-1.412 0-2.608.375-3.448.748a8.32 8.32 0 0 0-.985.516l-.267.173-.07.05c-.01.006-.015.01-.02.015l-.006.004-.002.001v.001h-.001l.232.303z" class="B D"/><path d="M186.314 258.71s18.714.807 25.298-14.162l-3.483-6.35-10.403 4-11.412 16.522z" class="C"/><g class="F"><path d="M208.338 237.63l3.784 6.898-.09.205c-3.364 7.65-9.828 11.257-15.404 12.948-2.79.847-5.367 1.218-7.247 1.378-.94.08-1.71.108-2.243.115-.267.004-.476.003-.62 0l-.164-.003-.043-.002h-.012l-.004-.001c-.001 0-.001 0 .02-.456l-.02.456-.827-.035 11.96-17.32 10.9-4.184zm-21.155 20.63c.512-.008 1.236-.036 2.12-.11 1.834-.156 4.346-.52 7.058-1.342 5.377-1.63 11.497-5.056 14.74-12.236l-3.182-5.8-9.897 3.795-10.84 15.695z" class="B"/><path d="M201.302 167.115c-.902.076-1.727.472-2.338 1.08-.672.67-1.1 1.6-1.1 2.635v75.028c0 7.158-5.82 12.96-13 12.96h-28.857c-7.76 0-13.75-6.715-12.924-14.344v-.016l10.388-71.22c.52-3.518 3.53-6.122 7.103-6.122h40.728z"/><path d="M153.924 173.303l-10.386 71.22c-.796 7.36 4.982 13.84 12.468 13.84h28.857c6.927 0 12.542-5.597 12.542-12.502V170.83c0-1.164.482-2.207 1.234-2.958a4.36 4.36 0 0 1 .337-.301h-38.402c-3.347 0-6.164 2.437-6.65 5.73zm47.377-6.188v-.457h-40.727c-3.803 0-7.005 2.77-7.557 6.512l-10.393 71.28c-.838 7.888 5.356 14.826 13.382 14.826h28.857c7.433 0 13.46-6.006 13.46-13.416V170.83c0-.907.374-1.722.966-2.312.536-.534 1.26-.882 2.05-.95l-.038-.455z" class="B"/></g><path d="M198.397 167.115c-.9.076-1.726.472-2.337 1.08-.565.563-.947 1.294-1.054 2.117l-.03.502-.61 5.74-7.332 69.288c0 7.157-5.82 12.96-13 12.96h-18.01c-7.76 0-13.748-6.716-12.923-14.345v-.015l10.388-71.222c.045-.335.122-.67.213-1.005.886-3 3.667-5.116 6.875-5.116l37.824.015z" class="C"/><path d="M154.138 172.34a7.32 7.32 0 0 0-.201.942v.002l-10.386 71.222c-.796 7.36 4.98 13.84 12.468 13.84h18.01c6.927 0 12.542-5.598 12.542-12.502v-.024l7.944-75.03c.001-.18.017-.356.03-.51l.002-.017v-.008c.12-.928.552-1.75 1.184-2.38a4.3 4.3 0 0 1 .357-.317h-35.52c-3 0-5.603 1.98-6.433 4.785zm-.88-.254c.943-3.193 3.9-5.444 7.314-5.444h38.283v.89l-.42.036a3.3 3.3 0 0 0-2.051.949c-.496.494-.828 1.13-.923 1.844-.015.167-.028.31-.028.452v.024l-.613 5.765-7.33 69.264c-.013 7.398-6.033 13.39-13.458 13.39h-18.01c-8.026 0-14.22-6.938-13.382-14.825v-.024l10.392-71.25c.05-.362.13-.717.226-1.063l.001-.005.001-.004z" class="B F"/><path d="M191.967 182.054l-2.734 20.452c-.902 4.187-4.17 6.426-8.906 7.187l-32.387 4.7 4.72-32.344 39.306.015z" class="E"/><g class="F"><path d="M197.237 167.113h-.81c-1.467-.015-2.75 1.02-3.04 2.467l-4.767 30.654c-.9 4.188-4.613 7.188-8.906 7.188H149.91c-3.606 0-6.294-3.32-5.515-6.837l5.744-26c.962-4.355 4.842-7.462 9.318-7.462h37.78z"/><path d="M196.43 166.658h.808v.914h-.87a2.62 2.62 0 0 0-2.528 2.09l-4.77 30.67c-.947 4.398-4.845 7.55-9.354 7.55H149.91c-3.897 0-6.805-3.59-5.962-7.393l5.744-26.01c1.01-4.565 5.075-7.82 9.766-7.82h36.97zm-2.4.914H159.46c-4.26 0-7.955 2.958-8.87 7.103l-5.744 26c-.716 3.23 1.754 6.282 5.067 6.282h29.805c4.07 0 7.594-2.843 8.455-6.814l4.768-30.66c.153-.764.547-1.428 1.092-1.92z" class="B"/></g><path d="M172.673 215.95l7.592-46.278c.153-.93.962-1.63 1.9-1.63 1.19 0 2.108 1.066 1.91 2.254l-7.592 46.278a1.95 1.95 0 0 1-1.91 1.629c-1.19 0-2.108-1.066-1.91-2.254z" class="C"/><path d="M180.72 169.746l-7.593 46.28c-.152.91.548 1.722 1.458 1.722a1.49 1.49 0 0 0 1.457-1.246l7.592-46.28c.152-.908-.548-1.72-1.457-1.72a1.49 1.49 0 0 0-1.457 1.246zm-.905-.148c.188-1.145 1.186-2.012 2.362-2.012 1.474 0 2.606 1.318 2.362 2.785l-7.593 46.277c-.188 1.145-1.185 2.013-2.36 2.013a2.39 2.39 0 0 1-2.362-2.785l7.592-46.278z" class="B F"/><path d="M155.7 215.95l7.592-46.278a1.95 1.95 0 0 1 1.91-1.629c1.192 0 2.108 1.066 1.9 2.254l-7.593 46.278c-.153.93-.962 1.63-1.91 1.63-1.192 0-2.11-1.066-1.9-2.254z" class="C"/><path d="M163.745 169.746l-7.593 46.28a1.48 1.48 0 0 0 1.458 1.722 1.49 1.49 0 0 0 1.457-1.246l7.593-46.28c.152-.908-.548-1.72-1.458-1.72a1.49 1.49 0 0 0-1.457 1.246zm-.904-.148c.188-1.145 1.185-2.012 2.36-2.012a2.39 2.39 0 0 1 2.362 2.785l-7.592 46.277c-.19 1.145-1.186 2.013-2.362 2.013a2.39 2.39 0 0 1-2.362-2.785l7.593-46.278z" class="B F"/><path d="M205.35 171.06l-7.47.03v-.26c0-1.036.412-1.965 1.1-2.635.61-.61 1.42-1.005 2.337-1.08h.61c1.88.153 3.36 1.736 3.422 3.944z" class="C"/><path d="M201.297 166.658h.65l.02.002c2.14.173 3.776 1.974 3.842 4.387l.013.467-8.4.034v-.717c0-1.16.462-2.205 1.236-2.96.685-.68 1.594-1.126 2.62-1.21l.02-.002zm.04.914c-.797.07-1.5.416-2.033.947l-.004.004c-.555.542-.907 1.278-.956 2.108l6.51-.027c-.23-1.74-1.465-2.904-2.946-3.032h-.572z" class="B F"/><path d="M253.025 274.912l6.293 16.187c1.01 2.604-.458 5.498-3.147 6.244l-13.825 3.776c-.84.23-1.726.03-2.383-.533l-1.405-1.218 2.872-.76c1.268-.335 2.123-1.508 2.062-2.817l-.32-3.23c-.06-1.446-1.237-2.604-2.688-2.65h.152c-1.757-.06-3.467-1.142-4.155-2.757l-2.2-5.832 18.745-6.41z" class="H"/><g class="B C"><path d="M233.78 281.527a.46.46 0 0 1 .601.242l2.353 5.527a4.07 4.07 0 0 0 3.596 2.479c1.7.053 3.06 1.4 3.13 3.086l.168 3.532c.072 1.55-.953 2.744-2.402 3.127l-2.26.6a.46.46 0 0 1-.562-.322.46.46 0 0 1 .323-.56l2.263-.6c1.087-.287 1.772-1.134 1.722-2.202l-.168-3.535a2.32 2.32 0 0 0-2.245-2.212h-.001a4.99 4.99 0 0 1-4.41-3.034l-2.353-5.528a.46.46 0 0 1 .243-.6zm14.87 9.573a.46.46 0 0 1 .48.435l.214 4.508a4 4 0 0 1-2.983 4.056c-.245.065-.496-.08-.56-.325s.08-.493.326-.558a3.09 3.09 0 0 0 2.302-3.131l-.214-4.507c-.012-.252.183-.466.436-.478z"/><path d="M254.5 289.592a.46.46 0 0 1 .48.435l.214 4.508c.086 1.9-1.155 3.575-2.984 4.057a.46.46 0 0 1-.56-.325c-.065-.244.08-.494.326-.56 1.4-.37 2.37-1.67 2.302-3.13l-.214-4.507a.46.46 0 0 1 .436-.478zm-51.497-62.806l-3.696-19.28.9-.17 3.697 19.28c.617 3.24 1.76 6.378 3.372 9.26v.001l25.326 45.562 23.055-7.916.298.864-23.782 8.165-25.698-46.23a31.77 31.77 0 0 1-3.472-9.533z"/></g><path d="M215.232 251.142l-8.356-15.045c-1.406-2.543-2.46-5.254-3.132-8.07.795-.26 1.62-.44 2.5-.518 6.6-.578 12.45 4.95 13.077 12.335.366 4.477-1.268 8.604-4.08 11.3z" class="C"/><defs ><path id="B" d="M302.844 284.824a.46.46 0 0 1 .458-.457h161.38a.46.46 0 0 1 .459.457.46.46 0 0 1-.459.457h-161.38a.46.46 0 0 1-.458-.457z"/><path id="C" d="M222.262 413.87h-32.95c-1.237 0-2.246-1.006-2.246-2.24v-3.41c0-1.233 1.01-2.24 2.246-2.24h32.95c1.238 0 2.246 1.006 2.246 2.24v3.41c-.015 1.233-1.008 2.24-2.246 2.24z"/></defs></svg>