<svg xmlns="http://www.w3.org/2000/svg" width="495" height="332" fill="none" xmlns:v="https://vecta.io/nano"><path d="M379.026 153.13l40.8-15.205L433.4 241.14l50.985 46.252-25.367 42.637-7.032-16.246c-106.24-27.145-72.95-160.65-72.95-160.65z" fill="#00f0b5"/><path opacity=".8" d="M381.194 248.03c5.178-25.473 19.06-43.71 35.373-43.71 4.373 0 8.57 1.315 12.473 3.724l4.35 33.092 20.23 18.353c.32 3.457.49 7.004.49 10.62 0 15.893-3.215 30.47-8.57 41.84-36.972-11.57-55.556-36.854-64.346-63.92z" fill="#424551"/><path d="M389.077 140.4s-7.605 124.22 13.875 183.033l-4.487 6.597h38.205l4.174-192.102-51.767 2.472z" fill="#00f0b5"/><path d="M401.77 44.3v16.144l19.984 4.915V38.106L401.77 33.2v11.1z" fill="#d7dadd"/><g fill="#1e212c"><path d="M413.056 49.874c-.296 0-.535-.24-.535-.535s.24-.535.535-.535.534.24.534.535-.24.535-.534.535zm-8.21 0c-.295 0-.535-.24-.535-.535s.24-.535.535-.535.534.24.534.535-.24.535-.534.535z"/><path d="M407.676 44.3a.42.42 0 0 0-.421-.422h-4.126a.422.422 0 1 0 0 .844h3.705v7.82a.421.421 0 1 0 .842 0v-8.24zm6.804.01a.42.42 0 0 0-.421-.422h-4.125a.422.422 0 1 0 0 .844h4.125a.42.42 0 0 0 .421-.422z" fill-rule="evenodd"/></g><path d="M420.434 48.5v2.862c1.542 0 2.793-1.25 2.793-2.795l-.012-.254c-.156-1.736-2.78-1.555-2.78.188z" fill="#edeeef"/><g fill-rule="evenodd"><path d="M423.223 48.154a.42.42 0 0 0-.421.422c0 1.3-1.06 2.373-2.37 2.373-.233 0-.422.19-.422.422s.19.422.422.422c1.774 0 3.214-1.44 3.214-3.217 0-.233-.19-.422-.422-.422z" fill="#fff"/><path d="M411.884 51.3a.42.42 0 0 0-.421.422c0 1.33-1.077 2.407-2.406 2.407a.42.42 0 1 0 0 .844 3.25 3.25 0 0 0 3.248-3.251.42.42 0 0 0-.421-.422z" fill="#1e212c"/><path d="M401.358 60.33a.42.42 0 0 0 .308.51l19.984 4.916c.226.055.454-.083.5-.31s-.083-.455-.31-.5l-19.984-4.916a.42.42 0 0 0-.509.309z" fill="#fff"/><path d="M406.842 52.436c-.055.226.083.455.31.5l1.804.444a.42.42 0 1 0 .201-.819l-1.804-.444c-.226-.056-.454.083-.5.31z" fill="#1e212c"/></g><path d="M440.844 94.258v43.67l-61.82 15.205v-48.636a37.46 37.46 0 0 1 28.5-36.38h0c8.026-1.974 16.513-.146 23.017 4.956s10.303 12.914 10.303 21.185h0z" fill="#d7dadd"/><g fill-rule="evenodd"><path d="M389.097 139.976a.42.42 0 0 0-.446.396l.42.025.42.026a.42.42 0 0 0-.394-.447zm-.026.42l.42.028-.005.088-.016.267-.06 1.05-.204 4.04-.568 14.868c-.377 12.56-.656 29.918-.264 49.112.783 38.408 4.253 84.102 14.966 113.435a.42.42 0 0 1-.79.29c-10.767-29.48-14.235-75.303-15.018-113.708-.392-19.212-.113-36.584.265-49.154l.568-14.883.205-4.046.074-1.32.006-.1c0-.001 0-.001.42.024z" fill="#787a80"/><path d="M400.763 37.53c-.226.057-.362.287-.305.513.542 2.136 1.908 3.315 3.622 3.855 1.683.53 3.692.444 5.586.117 1.9-.328 3.732-.906 5.084-1.4l1.626-.64.07-.03c.297 2.97 1.016 4.816 1.704 5.942a5.56 5.56 0 0 0 .996 1.24 2.99 2.99 0 0 0 .338.268l.104.066.033.02.01.006.005.002.001.001h.001c.001 0 .001 0 .2-.377l-.188.378a.42.42 0 0 0 .565-.189c.103-.207.02-.458-.185-.564m-.003-.002h.001v.001l-.066-.04c-.053-.036-.138-.1-.245-.195-.212-.192-.516-.522-.84-1.053-.648-1.062-1.387-2.94-1.634-6.158a.42.42 0 0 0-.598-.35l-.002.001-.007.003-.028.013-.114.05-.438.2-1.587.624c-1.325.484-3.104 1.045-4.938 1.36-1.843.318-3.695.38-5.2-.1-1.465-.462-2.595-1.435-3.057-3.258a.42.42 0 0 0-.512-.305m15.874 1.4zm7.164-4.17l-1.832 12.277c-.034.23.125.445.355.48a.42.42 0 0 0 .478-.355l1.884-12.628c.03-.2-.088-.395-.28-.462l-.136.4.136-.4-.004-.001-.01-.004-.2-.07-.634-.203-2.303-.67c-1.93-.526-4.566-1.157-7.4-1.58s-5.846-.635-8.547-.315c-2.693.32-5.13 1.177-6.7 2.965a.45.45 0 0 0-.088.164l.405.114-.405-.114-.001.001-.001.004-.004.013-.01.046-.037.167-.094.607c-.058.516-.1 1.242.012 2.094.207 1.7.955 3.92 3.1 5.944a.421.421 0 1 0 .577-.614c-1.978-1.867-2.653-3.885-2.84-5.43a8.23 8.23 0 0 1-.011-1.898l.082-.534.018-.086c1.365-1.5 3.526-2.303 6.088-2.606 2.596-.308 5.54-.104 8.324.312s5.383 1.038 7.292 1.558l2.273.662.506.16zm2.934 35.843c-.094.213.001.462.214.557l.03-.067-.03.067.005.003.02.008.077.035.306.144 1.172.586 4.214 2.395c3.5 2.152 8.193 5.428 12.954 9.922 9.523 8.988 19.306 22.832 20.43 42.296.278 4.826-.718 8.837-2.664 12.128s-4.864 5.9-8.463 7.86c-7.207 3.946-17.115 5.36-27.286 4.827-10.165-.532-20.54-3.003-28.648-6.77-4.055-1.884-7.53-4.086-10.13-6.52s-4.303-5.083-4.86-7.86c-.025-.122-.102-.227-.2-.287l-.022-.01-.063-.035-.17-.096-.068-.038-.83-.486c-.674-.406-1.534-.95-2.295-1.504-.38-.277-.73-.554-1.017-.815s-.5-.497-.612-.682a.51.51 0 0 1-.084-.194c.025-.02.117-.084.387-.127.355-.057 1.576-.108 3.497-.15l7.42-.096 21.1-.063 29.734.063s.001 0 .002-.422l-.001.422c.167 0 .318-.098.386-.25a.42.42 0 0 0-.073-.455l-16.6-18.348a.421.421 0 1 0-.624.566l15.95 17.64-8.265-.027-20.518-.032-21.108.063-7.43.096c-1.887.04-3.185.092-3.612.16-.416.067-.818.216-1.004.568-.196.372-.048.758.116 1.027.175.286.45.58.764.865.317.3.693.586 1.087.873.8.577 1.674 1.134 2.358 1.545l.845.496.163.092c.64 2.93 2.446 5.66 5.07 8.12 2.682 2.512 6.24 4.76 10.35 6.67 8.22 3.82 18.7 6.312 28.96 6.848 10.252.537 20.337-.878 27.734-4.928 3.704-2.028 6.743-4.722 8.783-8.17s3.067-7.63 2.78-12.607c-1.138-19.744-11.067-33.776-20.692-42.86a81.24 81.24 0 0 0-13.091-10.027c-1.77-1.088-3.24-1.892-4.268-2.425-.514-.267-.918-.465-1.195-.598l-.316-.15-.083-.038-.02-.01-.006-.002h-.002l-.15.34.15-.34a.42.42 0 0 0-.556.214zm-34.507 5.334a.42.42 0 0 0-.593-.057l.268.325-.27-.325-.003.003-.053.044-.158.136-.596.534-2.152 2.1c-1.797 1.85-4.24 4.6-6.822 8.2-5.012 6.97-10.562 17.125-12.964 30.08l-.147-.27-1.938-3.506c-1.622-2.9-3.83-6.77-6.173-10.64s-4.82-7.746-6.988-10.66c-1.082-1.456-2.095-2.684-2.98-3.552-.442-.434-.862-.788-1.252-1.036-.383-.243-.78-.413-1.164-.413-.868 0-1.978-.042-3.184-.088l-.8-.03c-1.503-.055-3.092-.103-4.472-.07-1.357.03-2.584.14-3.32.43-.353.14-.744.38-.832.82s.172.835.504 1.168c1.33 1.332 3.36 2.174 5 2.68a23.39 23.39 0 0 0 2.126.544l.164.033a8.85 8.85 0 0 0-.267.374c-.388.576-.836 1.4-1.025 2.298-.2.92-.116 1.95.57 2.904.64.892 1.778 1.665 3.6 2.236l-.004.3.003 1.752c.02 1.506.085 3.654.27 6.226.37 5.142 1.22 11.988 3.14 18.787s4.915 13.576 9.602 18.556c4.7 4.995 11.1 8.162 19.724 7.727a.422.422 0 1 0-.042-.842c-8.374.422-14.527-2.637-19.07-7.464-4.556-4.84-7.504-11.477-9.405-18.206s-2.742-13.5-3.1-18.618c-.184-2.553-.25-4.685-.268-6.177l-.003-1.73.007-.455.003-.116.001-.03v-.01l-.42-.014.42.014c.006-.193-.12-.365-.304-.42-1.897-.55-2.927-1.282-3.452-2.013-.516-.718-.583-1.494-.428-2.24.157-.757.54-1.467.898-1.998a7.83 7.83 0 0 1 .466-.624c.06-.073.1-.13.144-.167a.4.4 0 0 1 .038-.04l.008-.01.002-.002c.1-.114.145-.28.094-.43s-.183-.257-.34-.28l-.06.418.06-.418-.012-.002-.042-.006-.166-.027a18.97 18.97 0 0 1-.618-.117c-.524-.108-1.248-.278-2.05-.524-1.617-.498-3.48-1.3-4.66-2.47a1.28 1.28 0 0 1-.247-.317c-.017-.035-.023-.06-.025-.073s0-.02.003-.024.016-.022.04-.042a.95.95 0 0 1 .272-.15c.575-.228 1.656-.34 3.03-.37 1.35-.03 2.918.016 4.42.07l.792.03 3.222.088c.15 0 .383.072.712.28.322.205.695.515 1.115.927.84.823 1.822 2 2.894 3.453 2.142 2.882 4.606 6.733 6.943 10.593s4.54 7.72 6.158 10.615l1.934 3.498.632 1.164a1.2 1.2 0 0 1 .04.074l.047.086v.001c0 .001 0 .001.37-.2l-.37.2a.42.42 0 0 0 .786-.129c2.248-13.367 7.918-23.813 13.028-30.92 2.556-3.553 4.97-6.27 6.743-8.095a51.52 51.52 0 0 1 2.116-2.065l.58-.52.15-.13.047-.04.002-.002" fill="#fff"/></g></svg>