<svg xmlns="http://www.w3.org/2000/svg" width="495" height="332" fill="none" xmlns:v="https://vecta.io/nano"><path d="M86.166 34.744a18.35 18.35 0 0 0 7.188 7.629 18.25 18.25 0 0 0 10.175 2.435c3.554-.2 6.97-1.437 9.826-3.56s5.03-5.036 6.255-8.385a18.35 18.35 0 0 0 .632-10.462c-.81-3.477-2.618-6.643-5.197-9.108a18.3 18.3 0 0 0-9.323-4.768 18.2 18.2 0 0 0-10.391 1.136l8.217 16.3-17.382 8.77z" fill="#00f0b5"/><path d="M83.442 33.74l17.382-8.772L92.598 8.64l-1.105.51c-2.14 1.08-4.047 2.573-5.61 4.394s-2.753 3.933-3.5 6.216-1.04 4.694-.857 7.092a18.38 18.38 0 0 0 1.917 6.888h0z" fill="#d7dadd"/></svg>