<svg xmlns="http://www.w3.org/2000/svg" xmlns:xlink="http://www.w3.org/1999/xlink" width="630" height="392" fill="none" xmlns:v="https://vecta.io/nano"><style><![CDATA[.B{fill:#000}.C{opacity:.1}.D{fill:#535461}.E{fill:#f7c4a7}.F{fill:#575988}.G{stroke:#535461}.H{stroke-width:2}.I{stroke-miterlimit:10}.J{fill:#f52f6e}]]></style><g clip-path="url(#H)"><path d="M92.068 10.043c-4.9-.14-9.924 0-14.522 1.41-12.51 3.838-18.438 16.396-16.5 27.248s9.858 20.307 18.085 28.948 17.143 17.185 21.654 27.515c2.25 5.156 3.302 10.93 1.016 16.08-3.527 7.936-14.163 12.37-24.373 13.292s-20.463-.874-30.71-1.475c-4.3-.25-8.72-.28-12.77.88-4.445 1.263-8.15 3.844-11.554 6.534C9.098 141.027-1.538 155.425.183 170.552c1.946 17.143 19.3 30.69 38.31 37.96 6.294 2.43 12.953 4.36 18.493 7.797 14.595 9.066 17.872 26.07 16.42 41.074s-6.403 30.03-3.65 44.9c3.24 17.3 17.587 32.93 36.936 40.23 17.24 6.504 38.816 6.073 54.122-3.103 7.46-4.48 13.104-10.706 18.012-17.143a138.29 138.29 0 0 0 17.909-30.97c2.134-5.155 4.14-10.7 9.12-14.282 3.04-2.204 6.98-3.437 10.88-4.397 11.75-2.9 24.124-3.68 35.982-6.254s23.79-7.39 30.235-15.953c9.122-12.145 4.865-27.703 4.907-41.986.073-32.585 23.783-61.75 32.534-93.517 2.858-10.378 3.922-21.86-2.463-31.122-4.336-6.285-11.65-10.82-19.338-14.325-16.91-7.706-36.133-11.137-55.04-14.477-26.277-4.64-58.184-5.24-78.55-20.252-19.545-14.4-46.284-24.69-72.937-24.69z" fill="url(#A)"/><path d="M347.23 381.64c156.17 0 282.77-33.854 282.77-75.616S503.4 230.41 347.23 230.41 64.46 264.263 64.46 306.024s126.6 75.616 282.77 75.616z" fill="#f5f5f5"/><path d="M582.07 123.472s-21.79 21.758-9.487 54.045-21.09 85.98-21.09 85.98.36-.054 1.022-.17c44.75-7.894 66.99-59 42.105-96.972-9.25-14.113-16.844-30.654-12.55-42.884z" fill="url(#B)"/><path d="M582.07 123.472s-12.302 26.67 0 48.428 2.1 82.824-30.576 91.598" class="G H I"/><use xlink:href="#I" fill="url(#C)"/><use xlink:href="#I" opacity=".2" fill="#f5f5f5"/><path d="M620.88 211.48s-19.3 4.25-17.714 21.752-28.66 38.53-57.223 21.86" class="G H I"/><path d="M563.333 265h-39.065c.9-1.806 1.365-3.795 1.362-5.812V81.53c0-3.464-1.378-6.787-3.83-9.236a13.09 13.09 0 0 0-9.249-3.826H210.114a13.1 13.1 0 0 0-5.008.992c-1.587.656-3.03 1.618-4.245 2.83a13.07 13.07 0 0 0-2.837 4.238 13.04 13.04 0 0 0-.996 5v177.664c-.004 2.017.463 4.006 1.362 5.812h-40.445c-.918 0-1.798.364-2.447 1.012s-1.014 1.527-1.014 2.443v2.787a19.31 19.31 0 0 0 5.674 13.652c3.63 3.62 8.548 5.653 13.676 5.653h373.61c5.132 0 10.054-2.036 13.683-5.66a19.31 19.31 0 0 0 5.667-13.663v-2.787a3.45 3.45 0 0 0-1.018-2.436c-.648-.645-1.527-1.007-2.442-1.007zM322.59 276.05l-3.332-3.796h83.14l-3.71 3.802-76.1-.006z" fill="url(#D)"/><path d="M507.752 70.98H214.888c-7.812 0-14.145 6.324-14.145 14.125V256.03c0 7.8 6.333 14.125 14.145 14.125h292.864c7.812 0 14.145-6.324 14.145-14.125V85.105c0-7.8-6.333-14.125-14.145-14.125z" class="D"/><g fill="#fff"><path d="M514.454 100.014H207.5v162.713h306.954V100.014zM360.98 88.536a2.7 2.7 0 1 0 0-5.404 2.7 2.7 0 1 0 0 5.404z"/></g><path d="M408.376 263.06l-10.55 10.803h-74.372l-9.53-10.803H162.542c-.897 0-1.757.355-2.39.988s-1 1.492-1 2.388v2.72c0 5.01 1.993 9.813 5.54 13.355a18.93 18.93 0 0 0 13.373 5.531H543.21a18.93 18.93 0 0 0 13.373-5.531c3.547-3.542 5.54-8.346 5.54-13.355v-2.72c0-.896-.356-1.754-1-2.388s-1.494-.988-2.39-.988H408.376z" class="D"/><path d="M303.087 105.734H173.603a11.87 11.87 0 0 0-8.391 3.46c-2.227 2.218-3.48 5.23-3.485 8.37v179.14c.004 3.14 1.258 6.15 3.485 8.37s5.245 3.462 8.39 3.46h129.484c3.146.003 6.164-1.24 8.39-3.46s3.48-5.23 3.485-8.37v-179.14c-.004-3.14-1.258-6.152-3.485-8.37a11.87 11.87 0 0 0-8.391-3.46z" fill="url(#E)"/><path d="M300.977 108.162h-125.27c-6.717 0-12.162 5.438-12.162 12.145V294.59c0 6.708 5.445 12.145 12.162 12.145h125.27c6.717 0 12.162-5.437 12.162-12.145V120.307c0-6.707-5.445-12.145-12.162-12.145z" class="D"/><g fill="#fff"><path d="M305.538 126.945H171.146v161.008h134.392V126.945zm-67.804-7.852c1.008 0 1.825-.816 1.825-1.822s-.817-1.822-1.825-1.822-1.824.816-1.824 1.822.817 1.822 1.824 1.822zm.001 183.39a5.47 5.47 0 0 0 5.473-5.465 5.473 5.473 0 1 0-10.946 0 5.47 5.47 0 0 0 5.473 5.465z"/></g><path d="M204.392 166.46h-66.484a6.58 6.58 0 0 0-2.516.495c-.8.328-1.524.81-2.136 1.42a6.58 6.58 0 0 0-1.429 2.127 6.56 6.56 0 0 0-.505 2.511V318.4a6.56 6.56 0 0 0 .505 2.511 6.57 6.57 0 0 0 1.429 2.127c.612.61 1.337 1.09 2.136 1.42a6.56 6.56 0 0 0 2.516.495h66.484a6.56 6.56 0 0 0 2.517-.495c.798-.328 1.524-.8 2.135-1.42s1.097-1.33 1.43-2.127a6.54 6.54 0 0 0 .505-2.511V173.01a6.54 6.54 0 0 0-.505-2.511c-.332-.796-.817-1.518-1.43-2.127a6.57 6.57 0 0 0-2.135-1.419 6.58 6.58 0 0 0-2.517-.495z" fill="url(#F)"/><path d="M203.68 167.674h-65.067c-3.694 0-6.69 3-6.69 6.68v143.312c0 3.69 2.995 6.68 6.69 6.68h65.067c3.695 0 6.7-3 6.7-6.68V174.354c0-3.7-2.995-6.68-6.7-6.68z" class="D"/><g fill="#fff"><path d="M204.592 182.248H137.7V309.77h66.892V182.248zm-41.352-6.68a.61.61 0 0 0 .608-.607c0-.336-.272-.607-.608-.607s-.608.27-.608.607a.61.61 0 0 0 .608.607zm15.812-1.214H166.9c-.336 0-.608.27-.608.607a.61.61 0 0 0 .608.607h12.162a.61.61 0 0 0 .609-.607.61.61 0 0 0-.609-.607zm-8.208 145.74c2.35 0 4.256-1.903 4.256-4.25s-1.905-4.25-4.256-4.25-4.257 1.903-4.257 4.25 1.906 4.25 4.257 4.25z"/></g><path d="M123.89 335.64s-8.064-27.327 1.514-47.45a43.12 43.12 0 0 0 3.515-27.09 72.55 72.55 0 0 0-3.837-12.709" class="G H I"/><g class="J"><path d="M131.018 235.674c0 3.352-6.08 13.062-6.08 13.062s-6.082-9.716-6.082-13.062a6.07 6.07 0 0 1 1.782-4.294 6.08 6.08 0 0 1 4.3-1.778c1.613 0 3.16.64 4.3 1.778a6.07 6.07 0 0 1 1.782 4.294zm10.064 18.558c-1.824 2.8-12.2 7.67-12.2 7.67s.2-11.453 2.013-14.264a6.06 6.06 0 0 1 1.63-1.814c.66-.488 1.413-.838 2.212-1.028s1.63-.216 2.44-.077a6.08 6.08 0 0 1 2.273.887c.7.446 1.282 1.028 1.74 1.7a6.07 6.07 0 0 1 .928 2.254 6.06 6.06 0 0 1-.034 2.437 6.08 6.08 0 0 1-.99 2.227zm-.462 31.704c-2.998 1.506-14.418.468-14.418.468s5.954-9.8 8.945-11.295a6.09 6.09 0 0 1 4.53-.192c1.478.522 2.697 1.593 3.404 3a6.04 6.04 0 0 1 .386 4.5 6.11 6.11 0 0 1-2.847 3.524v-.006zm-5.74 23.92c-2.7 2-14.132 2.9-14.132 2.9s4.208-10.65 6.908-12.643a6.09 6.09 0 0 1 4.421-.931c1.538.27 2.914 1.117 3.843 2.37a6.06 6.06 0 0 1 1.145 4.364 6.07 6.07 0 0 1-2.185 3.949zm-18.785-47.307c2.432 2.332 13.615 4.755 13.615 4.755s-2.742-11.12-5.15-13.45a6.09 6.09 0 0 0-1.995-1.409 6.06 6.06 0 0 0-2.388-.51 6.08 6.08 0 0 0-2.397.468c-.76.317-1.447.784-2.02 1.373a6.07 6.07 0 0 0-1.715 4.462c.032.82.23 1.627.582 2.37a6.04 6.04 0 0 0 1.468 1.95v-.006zm-6.36 28.056c2.998 1.506 14.42.468 14.42.468s-5.954-9.8-8.946-11.295a6.1 6.1 0 0 0-2.321-.739c-.816-.087-1.64-.008-2.426.23s-1.512.636-2.14 1.163a6.06 6.06 0 0 0-1.51 1.91 6.07 6.07 0 0 0-.64 2.348 6.04 6.04 0 0 0 .335 2.41 6.07 6.07 0 0 0 1.255 2.086c.555.603 1.227 1.088 1.974 1.425v-.006zm-2.432 28.117c2.7 1.992 14.132 2.9 14.132 2.9s-4.208-10.65-6.908-12.643a6.09 6.09 0 0 0-4.42-.93 6.08 6.08 0 0 0-3.843 2.37 6.07 6.07 0 0 0 1.039 8.313z"/></g><path d="M605.068 248.712c-6.732-8.156-14.887-17.525-13.744-28.377.925-8.787-1.29-16.912-.85-25.73.608-12.527-1.91-22.334-10.946-30.362-5.278-4.694-14.102-8.38-16.73-7.44-5.205 1.858-10.885 1.148-16.242 2.43-4.07.947-6.775 2.43-8.453 4.25-3.375 3.036-3.43 7.287-1.89 11.81a19.93 19.93 0 0 0-1.309 16.187c.93 2.64 2.407 5.053 4.333 7.085s4.258 3.637 6.845 4.7c-3.752 1.567-6.993 5.174-8.258 12.497-.88 5.03-2.208 9.97-3.97 14.763a23.87 23.87 0 0 1-2.432.977c.182.073.37.122.553.19-.395.15-.784.303-1.216.437.72.28 1.462.496 2.22.644-4.865 12.272-10.946 19.875-10.946 19.875s-11.342 2.502-15.75-1.876c0 0 .717.838 1.7 2.095l-17.44-7.1c-4.39-1.743-5.516 0-5.473 2.43-1.072.134-2.105.48-3.04 1.02a29.69 29.69 0 0 0-4.068-2.186c-2.517-.607-10.71-5.004-18.9 10-4.767 8.727-17 24.655-26.386 36.436-18.273 8.392-42.062 19.02-50.904 21.69h-5.668c-.742-1.215-1.26-1.98-1.26-1.98l-.437.292-.19-.292s-11.128 7.694-22.427 7.755a21.35 21.35 0 0 1-4.768-.607c-5.193-1.306-8.854-1.89-11.468-1.822-3.096-.055-4.865.68-5.936 2.064a5.74 5.74 0 0 0-.395.571c-.12.197-.23.4-.328.608-.097.218-.195.45-.28.686-.035.21-.022.427.04.632s.168.394.313.552c.15.212.316.415.492.607l.317.34c1.423 1.47 4.013 3.42 7.236 5.593l2.943 1.937 3.698 2.302.7.43.778.473 1.393.844.827.498 1.563.93 1.265.746 9.577 5.514 2.08 1.24.2.11 1.337.747 2.31 1.282 3.126 1.718.158.085 1.387.753c.285.048.577.034.856-.042a2 2 0 0 0 .761-.395c.4-1.7 1.38-5.344 2.433-5.623s5.606-8.228 6.89-13.548h12.296a54.34 54.34 0 0 0 7.2-1.105c-3.174 2.26-6.318 3.68-8.763 3.072-5.168-1.28-10.064 1.865-10.556 4.968 0 .067-.043.127-.06.194s-.03.128-.043.188-.036.152-.048.23 0 .128 0 .194v.838c0 .06.036.164.06.25s0 .1.042.158c.038.1.083.218.134.322l.03.08a3.3 3.3 0 0 0 .231.383l.098.127a2.45 2.45 0 0 0 .2.249l.14.14a6.94 6.94 0 0 0 .231.218l.17.14.273.2.2.133.328.194.22.116.414.194.206.09a8.45 8.45 0 0 0 .7.255c.395.128.863.26 1.392.395l.53.128.773.176.407.09 1.678.34.82.152.67.12 1.54.267 3.04.486 2.652.4 3.454.492.766.103 1.216.17 1.782.237 1.216.158 3.156.4.985.122 1.99.243 7.474.868 4.056.456.608.06 2.535.274 1.12.115 1.575.164h.17l1.01.103c.127.014.255.001.376-.038s.233-.1.328-.185.173-.187.226-.302.083-.24.086-.367v-.104c.092-.14.143-.305.146-.473a20.61 20.61 0 0 1 .565-4.445 13.85 13.85 0 0 1 .231-.76l.098-.29a35.07 35.07 0 0 1 .346-.941 6.58 6.58 0 0 0 .237-.693c0-.072.043-.145.067-.224s.06-.25.085-.377c1.265-4.317-.26-12.37-.7-15.533-.14-1.01-.372-2.007-.693-2.976.08.008.158.008.237 0a7.17 7.17 0 0 0 1.824-.99c9.292-3.31 17.125-7.092 19.6-10.882a17 17 0 0 1 11.967 1.251c4.8 2.387 41.2 14.247 58.14 19.724 3.04 2.617 5.424 4.147 6.744 4.032 0 0 21.57 3.486 30.24-3.316.773.535 1.26.82 1.26.82s12.6-6.248 14.49-14.38c.608-2.635 1.162-6.52 1.727-10.82 2.923-2.94 4.566-6.914 4.573-11.058.395-13.65 5.692-29.245 9.62-43.115 4.768.377 6.61-.522 10.983-2.678l-.195-.25c.3-.182.584-.304.858-.437zm-72.237 20.446l-2.433-.808a19.98 19.98 0 0 0 2.098-3.485l.335 4.293zm-13.555 5.745l14.595 8.744.127 1.78c-.178 1.354-.137 2.728.122 4.07-6.434-5.708-13.962-12.637-14.85-14.598l.006.006zm-5.96-12.753c-1.594-.655-2.913-1.25-3.82-1.742l3.38.212a7.6 7.6 0 0 1 .438 1.53zm-39.1 14.253s2.518-5.623 8.192 3.753c.88 1.457 2.505 3.777 4.652 6.65l-16.517-2.204c1.946-3.012 3.254-5.812 3.673-8.192v-.006z" fill="url(#G)"/><use xlink:href="#J" class="E"/><use xlink:href="#J" opacity=".05" class="B"/><use xlink:href="#K" class="F"/><use xlink:href="#K" class="B C"/><g class="E"><path d="M548.21 198.553s12.77 14.574 13.38 26.72 14.594-12.752 15.81-13.36-12.163-21.254-13.38-27.934-15.81 14.574-15.81 14.574z"/><path d="M557.027 204.777l-8.057 7.287 3.8 15.334 10.338-9.716-1.216-9.717-4.865-3.188zm-168.14 107.94H374.9l5.473 13.36 13.38-3.643-4.865-9.716z"/></g><path d="M378.134 310.79s-14.485 10.074-26.86 6.94-15.738-1.96-17.18 2.083c-1.332 3.722 34.565 23.4 40.287 26.52.09.048.188.076.29.08s.202-.015.294-.057.174-.103.24-.18.1-.17.133-.268c.39-1.652 1.332-5.192 2.34-5.466 1.314-.352 7.298-11.538 6.97-15.934s-6.513-13.718-6.513-13.718z" class="B C"/><path d="M377.526 310.79s-14.485 10.074-26.86 6.94-15.738-1.96-17.18 2.083c-1.332 3.722 34.565 23.4 40.287 26.52a.66.66 0 0 0 .289.08.65.65 0 0 0 .294-.057.66.66 0 0 0 .238-.18c.065-.078.1-.17.134-.268.39-1.652 1.33-5.192 2.34-5.466 1.313-.352 7.297-11.538 6.97-15.934s-6.513-13.718-6.513-13.718z" class="D"/><use xlink:href="#L" class="J"/><use xlink:href="#L" class="B C"/><path d="M424.764 305.43l-6.69 8.5 6.69 3.644 9.73-7.287-9.73-4.858z" class="E"/><path d="M540.912 295.713s-21.89-18.715-23.406-22.1-37.404-26.47-39.837-27.077-10.338-4.858-18.243 9.716-37.094 49.795-37.094 49.795 9.12 12.752 12.162 12.145 37.094-29.148 39.527-43.115c0 0 2.432-5.466 7.905 3.643s40.743 52.83 47.432 52.224c0 0 26.15 4.25 31.622-6.072s-20.068-29.15-20.068-29.15z" class="J"/><path d="M553.38 206.75s-7.602 3.34-8.2 17.306-13.986 37.65-13.986 37.65l1.216 27.934s14.594 14.574 15.81 23.683 11.554 15.18 11.554 15.18 12.162-6.072 13.986-13.967 3.04-27.326 6.08-34.613 1.216-52.83 1.216-52.83l-9.12-15.79-4.865-5.465-12.77 14.574s-6.994-9.412-.912-13.663z" fill="#b3b7bc"/><path d="M535.44 280.532s-1.824-21.86 3.65-26.72l10.946-30.97s3.953-14.878 3.344-16.092-14.3 11.84-14.3 11.84l-9.122 32.185 2.433 34.006 3.04-4.25z" class="B C"/><path d="M534.83 280.532s-1.824-21.86 3.65-26.72l10.946-30.97s4.257-15.18 3.65-16.396-14.595 12.145-14.595 12.145l-9.122 32.185 2.433 34.006 3.04-4.25z" class="F"/><path d="M539.088 270.816s-30.406-9.716-32.23-12.145-21.284-18.218-27.973-7.287 24.933 13.967 24.933 13.967l32.23 19.432 3.04-13.967z" class="E"/><path d="M426.084 313.876l-9-1.615s-14.74 18.855-22.42 16.942-14.747 6.34-6.635 8.988c7.328 2.392 38.974 5.738 45 6.357a.89.89 0 0 0 .362-.037.88.88 0 0 0 .317-.179c.092-.08.166-.18.218-.292a.88.88 0 0 0 .082-.354 19.32 19.32 0 0 1 1.399-6.844c1.623-3.977 0-12.52-.45-15.788-.248-1.915-.848-3.768-1.77-5.466l-7.102-1.712z" class="B C"/><path d="M425.932 314.465l-9-1.615s-14.74 18.855-22.41 16.948-14.747 6.34-6.634 8.987c7.327 2.393 38.973 5.74 45 6.358a.89.89 0 0 0 .678-.217.89.89 0 0 0 .218-.291c.052-.11.08-.23.083-.354a19.3 19.3 0 0 1 1.344-6.838c1.623-3.977 0-12.52-.45-15.788a15.66 15.66 0 0 0-1.77-5.465l-7.06-1.725z" class="D"/><path d="M552.77 205.536c10.748 0 19.46-8.7 19.46-19.432s-8.712-19.432-19.46-19.432-19.46 8.7-19.46 19.432 8.712 19.432 19.46 19.432z" class="B C"/><path d="M550.946 205.536c10.747 0 19.46-8.7 19.46-19.432s-8.713-19.432-19.46-19.432-19.46 8.7-19.46 19.432 8.712 19.432 19.46 19.432z" class="E"/><path d="M570.102 205.232s23.108 7.895 23.108 24.29-12.77 42.507-13.38 63.76-34.054 18.218-34.054 18.218-4.864-71.656 0-77.12 26.757-26.72 24.325-29.15z" class="F"/><path d="M565.844 239.238s-8.513 37.65-28.58 30.97c0 0-10.337 15.18-3.04 21.86 0 0 17.635 4.25 29.19-7.287s20.067-15.79 21.892-29.755 3.04-33.4-3.04-31.578-16.42 15.79-16.42 15.79z" class="B C"/><path d="M566.452 238.632s-8.513 37.65-28.58 30.97c0 0-10.337 15.18-3.04 21.86 0 0 17.635 4.25 29.19-7.287s20.067-15.79 21.892-29.756 3.04-33.4-3.04-31.577-16.42 15.79-16.42 15.79z" class="F"/><g fill="#dddbe2"><path d="M435.734 335.488c0 .055-.036.122-.055.17a17.81 17.81 0 0 0-.954 3.213l.5-1.446a8.8 8.8 0 0 0 .5-1.937zm-47.402 1.525c-2.505-.82-3.557-2.168-3.6-3.6-1.033 1.98-.383 4.202 3.156 5.356 7.328 2.392 38.98 5.738 45 6.358.123.012.247-.001.364-.038a.9.9 0 0 0 .535-.475.89.89 0 0 0 .08-.356c.005-.223-.075-.44-.222-.606a.89.89 0 0 0-.574-.298c-6.604-.705-37.508-3.996-44.74-6.352zm-54.006-18.267a7.49 7.49 0 0 1 .608-1.287c-.655.662-1.145 1.47-1.43 2.356-1.332 3.723 34.565 23.4 40.287 26.52a.65.65 0 0 0 .29.079.67.67 0 0 0 .295-.057.65.65 0 0 0 .238-.183.67.67 0 0 0 .132-.27.66.66 0 0 0-.038-.42.65.65 0 0 0-.285-.31c-6.324-3.455-41.412-22.748-40.098-26.428zm43.577 20.634c-.322.085-.638.516-.936 1.105l.097-.037c.268-.072.724-.607 1.277-1.396a1.18 1.18 0 0 1-.438.328z"/></g><path d="M548.247 203.2c-1.715 3.777-2.074 8.034-3.333 11.994-2.5 7.85-8.77 14.35-16.28 16.857 6.318 2.514 13.774-.56 18.657-5.66s7.747-11.9 10.5-18.497c7.1 4.76 6.227 15.704 8.61 24.224 1.023 3.706 2.83 7.15 5.3 10.1a26.9 26.9 0 0 0 9.019 6.994c3.462 1.55 7.225 2.316 11.018 2.24s7.52-.993 10.917-2.682c-6.5-7.895-15.756-18.783-14.655-29.325.893-8.538-5.242-15.06-4.823-23.628.608-12.145-4.05-18.315-12.77-26.112-5.096-4.56 2.925-10.99-3.65-9.11-2.584.74-5.308-2.022-7.844-1.11-5.023 1.822-10.508 1.117-15.677 2.332-26.866 6.303 7.522 35.87 5.017 41.384z" class="B C"/><path d="M548.855 202.603c-1.715 3.777-2.074 8.034-3.333 11.993-2.5 7.852-8.77 14.35-16.28 16.857 6.318 2.515 13.774-.558 18.657-5.66s7.747-11.9 10.5-18.497c7.1 4.76 6.227 15.704 8.61 24.223a26.84 26.84 0 0 0 5.301 10.1c2.47 2.95 5.546 5.335 9.02 6.995a25.7 25.7 0 0 0 11.017 2.239c3.793-.077 7.522-.993 10.918-2.683-6.5-7.894-15.148-16.96-14.047-27.502.893-8.538-.438-17.313 0-25.875.608-12.146-5.358-23.878-14.084-31.675-5.096-4.56-13.056-5.143-15.598-4.25-5.023 1.822-10.508 1.118-15.677 2.332-26.878 6.322 7.5 35.89 5.005 41.403z" fill="#35335f"/></g><defs><linearGradient id="A" x1="297.753" y1="-96.129" x2="-102.695" y2="309.275" xlink:href="#M"><stop stop-color="#eeeff1" stop-opacity=".26"/><stop offset="1" stop-color="#eeeff1" stop-opacity=".76"/></linearGradient><radialGradient id="B" cx="0" cy="0" r="1" gradientTransform="translate(584.351 180.483) rotate(106.2) scale(73.95 41.1185)" xlink:href="#M"><stop stop-color="#e01727"/><stop offset=".447" stop-color="#cf1128"/><stop offset="1" stop-color="#b20629"/></radialGradient><radialGradient id="C" cx="0" cy="0" r="1" gradientTransform="translate(591.975 235.052) rotate(134.223) scale(41.4425 42.9886)" xlink:href="#M"><stop stop-color="#f76e2a"/><stop offset=".447" stop-color="#f05923"/><stop offset="1" stop-color="#d70a21"/></radialGradient><linearGradient id="D" x1="360.639" y1="290.564" x2="360.639" y2="68.461" xlink:href="#M"><stop stop-color="gray" stop-opacity=".25"/><stop offset=".54" stop-color="gray" stop-opacity=".12"/><stop offset="1" stop-color="gray" stop-opacity=".1"/></linearGradient><linearGradient id="E" x1="72786.8" y1="129015" x2="72786.8" y2="61279.9" xlink:href="#M"><stop stop-color="gray" stop-opacity=".25"/><stop offset=".54" stop-color="gray" stop-opacity=".12"/><stop offset="1" stop-color="gray" stop-opacity=".1"/></linearGradient><linearGradient id="F" x1="29081.5" y1="105192" x2="29081.5" y2="63825.3" xlink:href="#M"><stop stop-color="gray" stop-opacity=".25"/><stop offset=".54" stop-color="gray" stop-opacity=".12"/><stop offset="1" stop-color="gray" stop-opacity=".1"/></linearGradient><linearGradient id="G" x1="235250" y1="136068" x2="235250" y2="74615.5" xlink:href="#M"><stop stop-color="gray" stop-opacity=".25"/><stop offset=".54" stop-color="gray" stop-opacity=".12"/><stop offset="1" stop-color="gray" stop-opacity=".1"/></linearGradient><clipPath id="H"><path fill="#fff" d="M0 0h630v392H0z"/></clipPath><path id="I" d="M620.88 211.48s-24.866-3.953-27.128 18.296-47.81 25.335-47.81 25.335l.85.565c37.606 24.648 73.58 15.703 68.108-17.003-1.988-12.194-1.824-24.418 5.978-27.193z"/><path id="J" d="M510.507 253.812l-20.676-8.5c-9.12-3.644-3.648 8.5-3.648 8.5s15.202 4.25 15.202 4.858 12.77 1.215 12.77 1.215l-3.648-6.073z"/><path id="K" d="M559.764 205.84s-20.676-10.93-24.324 10.324-15.203 35.828-15.203 35.828-10.946 2.43-15.203-1.822c0 0 10.338 12.145 5.473 13.36 0 0 10.946 7.894 15.81 5.465s8.513-18.825 10.338-23.076 8.513-41.293 23.108-40.08z"/><path id="L" d="M497.13 286.604l-40.743-5.465s-66.284 31.577-74.19 32.184l1.824 13.967h12.162c4.865 0 52.297-10.323 58.987-20.647 3.87-1.027 7.983-.595 11.554 1.215 6.08 3.036 64.46 21.86 64.46 21.86l-34.054-43.115z"/><linearGradient id="M" gradientUnits="userSpaceOnUse"/></defs></svg>