<svg xmlns="http://www.w3.org/2000/svg" width="242" height="242" fill="none" xmlns:v="https://vecta.io/nano"><g opacity=".12" clip-path="url(#A)" fill="#ffcf2d"><path d="M121.083 0C54.147 0 0 54.147 0 121.083c0 66.77 54.147 121.083 121.083 121.083 66.77 0 121.083-54.147 121.083-121.083C242 54.147 187.853 0 121.083 0zm0 234.36c-62.618 0-113.277-50.66-113.277-113.277S58.465 7.806 121.083 7.806 234.36 58.465 234.36 121.083c0 62.452-50.825 113.277-113.277 113.277zm0-208.284c-52.32 0-94.84 42.52-94.84 94.84s42.52 94.84 94.84 94.84 94.84-42.354 94.84-94.674c0-52.486-42.52-95.006-94.84-95.006zm0 175.23c-44.347 0-80.4-36.042-80.4-80.4s36.043-80.4 80.4-80.4 80.4 36.043 80.4 80.4-36.042 80.4-80.4 80.4z"/></g><defs><clipPath id="A"><path fill="#fff" d="M0 0h242v242H0z"/></clipPath></defs></svg>