<svg width="405" height="447" viewBox="0 0 405 447" fill="none" xmlns="http://www.w3.org/2000/svg">
<path fill-rule="evenodd" clip-rule="evenodd" d="M46.0234 435.539H293.314V436.685H46.0234V435.539Z" fill="#3FB1B5"/>
<path fill-rule="evenodd" clip-rule="evenodd" d="M275.998 447H3.80078V446.113H275.998V447Z" fill="#66B0F0"/>
<path d="M274.798 4.57422V49.0413C274.798 57.7498 267.68 64.8241 258.919 64.8241H209.312C218.074 64.8241 225.192 57.7713 225.192 49.0413V4.57422H274.798Z" fill="white"/>
<path fill-rule="evenodd" clip-rule="evenodd" d="M224.651 4.03613H275.339V49.0408C275.339 58.0462 267.979 65.3611 258.919 65.3611H209.312V64.286C217.776 64.286 224.651 57.4734 224.651 49.0408V4.03613ZM215.187 64.286H258.919C267.382 64.286 274.257 57.4524 274.257 49.0408V5.11126H225.733V49.0408C225.733 56.0063 221.351 61.9392 215.187 64.286Z" fill="#66B0F0"/>
<path d="M251.887 0.273438H247.885V9.75601H251.887V0.273438Z" fill="#FFCF2D"/>
<path d="M260.369 21.4756C259.807 21.4756 259.244 21.2606 258.79 20.8521L257.124 19.3899C256.605 18.9384 255.913 18.9384 255.394 19.3899L253.814 20.7876C252.884 21.6047 251.586 21.6047 250.634 20.7876L249.185 19.5189C248.666 19.0674 247.973 19.0674 247.454 19.5189L246.113 20.7016C245.183 21.5187 243.884 21.5187 242.933 20.7016L241.829 19.7339C241.31 19.2824 240.618 19.2824 240.099 19.7339L238.909 20.7876C237.978 21.6047 236.68 21.6047 235.729 20.7876L234.625 19.82C234.106 19.3684 233.414 19.3684 232.895 19.82C232.678 20.0135 232.332 19.992 232.137 19.777C231.943 19.5619 231.964 19.2179 232.181 19.0244C233.111 18.2073 234.409 18.2073 235.361 19.0244L236.464 19.992C236.983 20.4435 237.676 20.4435 238.195 19.992L239.385 18.9384C240.315 18.1213 241.613 18.1213 242.565 18.9384L243.668 19.906C244.187 20.3575 244.88 20.3575 245.399 19.906L246.74 18.7233C247.67 17.9062 248.968 17.9062 249.92 18.7233L251.37 19.992C251.889 20.4435 252.581 20.4435 253.1 19.992L254.68 18.5943C255.61 17.7772 256.908 17.7772 257.86 18.5943L259.526 20.0565C260.045 20.508 260.737 20.508 261.256 20.0565L262.987 18.5298C263.917 17.7127 265.215 17.7127 266.167 18.5298C266.384 18.7233 266.405 19.0674 266.211 19.2824C266.016 19.4974 265.67 19.5189 265.453 19.3254C264.934 18.8738 264.242 18.8738 263.723 19.3254L261.992 20.8521C261.473 21.2606 260.932 21.4756 260.369 21.4756Z" fill="#66B0F0"/>
<path d="M260.369 30.3125C259.807 30.3125 259.244 30.0975 258.79 29.689L257.124 28.2268C256.605 27.7753 255.913 27.7753 255.394 28.2268L253.814 29.6245C252.884 30.4415 251.586 30.4415 250.634 29.6245L249.185 28.3558C248.666 27.9043 247.973 27.9043 247.454 28.3558L246.113 29.5385C245.183 30.3555 243.884 30.3555 242.933 29.5385L241.829 28.5709C241.31 28.1193 240.618 28.1193 240.099 28.5709L238.909 29.6245C237.978 30.4415 236.68 30.4415 235.729 29.6245L234.625 28.6569C234.106 28.2053 233.414 28.2053 232.895 28.6569C232.678 28.8504 232.332 28.8289 232.137 28.6138C231.943 28.3988 231.964 28.0548 232.181 27.8613C233.111 27.0442 234.409 27.0442 235.361 27.8613L236.464 28.8289C236.983 29.2804 237.676 29.2804 238.195 28.8289L239.385 27.7753C240.315 26.9582 241.613 26.9582 242.565 27.7753L243.668 28.7429C244.187 29.1944 244.88 29.1944 245.399 28.7429L246.74 27.5602C247.67 26.7432 248.968 26.7432 249.92 27.5602L251.37 28.8289C251.889 29.2804 252.581 29.2804 253.1 28.8289L254.68 27.4312C255.61 26.6141 256.908 26.6141 257.86 27.4312L259.526 28.8934C260.045 29.3449 260.737 29.3449 261.256 28.8934L262.987 27.3667C263.917 26.5496 265.215 26.5496 266.167 27.3667C266.384 27.5602 266.405 27.9043 266.211 28.1193C266.016 28.3343 265.67 28.3558 265.453 28.1623C264.934 27.7108 264.242 27.7108 263.723 28.1623L261.992 29.689C261.473 30.119 260.932 30.3125 260.369 30.3125Z" fill="#66B0F0"/>
<path d="M260.369 39.1504C259.807 39.1504 259.244 38.9354 258.79 38.5269L257.124 37.0647C256.605 36.6132 255.913 36.6132 255.394 37.0647L253.814 38.4624C252.884 39.2795 251.586 39.2795 250.634 38.4624L249.185 37.1937C248.666 36.7422 247.973 36.7422 247.454 37.1937L246.113 38.3764C245.183 39.1934 243.884 39.1934 242.933 38.3764L241.829 37.4087C241.31 36.9572 240.618 36.9572 240.099 37.4087L238.909 38.4624C237.978 39.2795 236.68 39.2795 235.729 38.4624L234.625 37.4948C234.106 37.0432 233.414 37.0432 232.895 37.4948C232.678 37.6883 232.332 37.6668 232.137 37.4518C231.943 37.2367 231.964 36.8927 232.181 36.6992C233.111 35.8821 234.409 35.8821 235.361 36.6992L236.464 37.6668C236.983 38.1183 237.676 38.1183 238.195 37.6668L239.385 36.6132C240.315 35.7961 241.613 35.7961 242.565 36.6132L243.668 37.5808C244.187 38.0323 244.88 38.0323 245.399 37.5808L246.74 36.3981C247.67 35.581 248.968 35.581 249.92 36.3981L251.37 37.6668C251.889 38.1183 252.581 38.1183 253.1 37.6668L254.68 36.2691C255.61 35.452 256.908 35.452 257.86 36.2691L259.526 37.7313C260.045 38.1828 260.737 38.1828 261.256 37.7313L262.987 36.2046C263.917 35.3875 265.215 35.3875 266.167 36.2046C266.384 36.3981 266.405 36.7422 266.211 36.9572C266.016 37.1722 265.67 37.1937 265.453 37.0002C264.934 36.5486 264.242 36.5486 263.723 37.0002L261.992 38.5269C261.473 38.9569 260.932 39.1504 260.369 39.1504Z" fill="#66B0F0"/>
<path d="M260.369 48.0088C259.807 48.0088 259.244 47.7938 258.79 47.3853L257.124 45.9231C256.605 45.4716 255.913 45.4716 255.394 45.9231L253.814 47.3208C252.884 48.1379 251.586 48.1379 250.634 47.3208L249.185 46.0521C248.666 45.6006 247.973 45.6006 247.454 46.0521L246.113 47.2348C245.183 48.0519 243.884 48.0519 242.933 47.2348L241.829 46.2672C241.31 45.8156 240.618 45.8156 240.099 46.2672L238.909 47.3208C237.978 48.1379 236.68 48.1379 235.729 47.3208L234.625 46.3532C234.106 45.9016 233.414 45.9016 232.895 46.3532C232.678 46.5467 232.332 46.5252 232.137 46.3102C231.943 46.0951 231.964 45.7511 232.181 45.5576C233.111 44.7405 234.409 44.7405 235.361 45.5576L236.464 46.5252C236.983 46.9767 237.676 46.9767 238.195 46.5252L239.385 45.4716C240.315 44.6545 241.613 44.6545 242.565 45.4716L243.668 46.4392C244.187 46.8907 244.88 46.8907 245.399 46.4392L246.74 45.2565C247.67 44.4394 248.968 44.4394 249.92 45.2565L251.37 46.5252C251.889 46.9767 252.581 46.9767 253.1 46.5252L254.68 45.1275C255.61 44.3104 256.908 44.3104 257.86 45.1275L259.526 46.5897C260.045 47.0412 260.737 47.0412 261.256 46.5897L262.987 45.063C263.917 44.2459 265.215 44.2459 266.167 45.063C266.384 45.2565 266.405 45.6006 266.211 45.8156C266.016 46.0306 265.67 46.0521 265.453 45.8586C264.934 45.4071 264.242 45.4071 263.723 45.8586L261.992 47.3853C261.473 47.7938 260.932 48.0088 260.369 48.0088Z" fill="#66B0F0"/>
<path d="M325.872 4.57227H291.172V39.0622H325.872V4.57227Z" fill="#FFCF2D"/>
<path d="M298.797 3.10074L296.285 0.00390625L287.123 7.3805L289.635 10.4773L298.797 3.10074Z" fill="#FE5244"/>
<path d="M327.674 10.4603L330.189 7.36621L321.019 -0.000259265L318.503 3.0938L327.674 10.4603Z" fill="#FE5244"/>
<path d="M318.54 12.7441H297.49V14.0343H318.54V12.7441Z" fill="white"/>
<path d="M318.54 18.3135H297.49V19.6036H318.54V18.3135Z" fill="white"/>
<path d="M318.54 23.9033H297.49V25.1934H318.54V23.9033Z" fill="white"/>
<path d="M318.54 29.4736H297.49V30.7638H318.54V29.4736Z" fill="white"/>
<path d="M352.356 375.609C351.854 375.461 351.575 375.387 351.575 375.387L345.493 395.185L322.598 389.214C322.412 389.048 322.319 388.956 322.319 388.956C322.319 388.956 229.603 316.731 224.73 282.07C219.876 247.409 258.711 214.522 258.711 214.522C258.711 214.522 341.531 370.118 351.779 375.202C351.984 375.313 352.188 375.442 352.356 375.609Z" fill="#E57281"/>
<path d="M278.314 250.921C275.413 266.357 265.22 297.617 254.675 327.86C239.052 311.13 226.442 294.252 224.731 282.051C221.643 260.09 236.132 238.813 247.142 226.205C251.178 222.989 255.53 220.031 260.236 217.388C263.119 222.767 269.796 235.227 278.314 250.921Z" fill="#9A3B82"/>
<path d="M404.396 388.937L370.342 410.658L360.466 409.179L351.371 414.91L354.309 420.899L339.337 430.456C319.492 412.507 322.301 389.159 322.301 389.159L345.475 395.204L351.557 375.405C351.557 375.405 372.369 381.45 387.732 380.933C403.132 380.415 404.396 388.937 404.396 388.937Z" fill="white"/>
<path fill-rule="evenodd" clip-rule="evenodd" d="M351.183 374.72L351.713 374.873L351.556 375.406C351.713 374.873 351.712 374.873 351.713 374.873L351.727 374.878L351.771 374.89C351.81 374.901 351.869 374.918 351.946 374.94C352.101 374.984 352.331 375.048 352.629 375.13C353.225 375.293 354.095 375.527 355.187 375.805C357.371 376.362 360.443 377.099 363.994 377.82C371.105 379.264 380.097 380.635 387.712 380.379C395.519 380.116 399.842 382.145 402.217 384.334C403.4 385.424 404.08 386.537 404.466 387.386C404.658 387.81 404.777 388.168 404.849 388.424C404.884 388.552 404.908 388.656 404.924 388.729C404.931 388.766 404.937 388.795 404.941 388.816C404.943 388.827 404.944 388.836 404.945 388.843L404.946 388.851L404.947 388.854L404.947 388.855C404.947 388.856 404.947 388.856 404.395 388.937L404.947 388.856L405 389.211L370.465 411.238L360.588 409.759L352.09 415.113L355.028 421.1L339.278 431.153L338.961 430.867C328.934 421.798 324.629 411.361 322.831 403.195C321.933 399.113 321.661 395.597 321.613 393.098C321.59 391.849 321.622 390.852 321.661 390.166C321.68 389.823 321.701 389.558 321.718 389.377C321.726 389.286 321.733 389.217 321.738 389.169C321.74 389.145 321.742 389.127 321.744 389.114L321.745 389.1L321.746 389.095L321.746 389.094C321.746 389.094 321.746 389.093 322.3 389.159L321.746 389.093L321.822 388.461L345.097 394.532L351.183 374.72ZM322.798 389.863C322.791 389.971 322.783 390.094 322.775 390.229C322.738 390.889 322.706 391.858 322.729 393.077C322.775 395.517 323.041 398.96 323.922 402.958C325.662 410.868 329.804 420.946 339.397 429.759L353.59 420.699L350.65 414.707L360.342 408.6L370.216 410.079L403.762 388.682C403.703 388.476 403.605 388.187 403.449 387.842C403.116 387.109 402.517 386.124 401.459 385.148C399.352 383.206 395.343 381.232 387.75 381.487C380.001 381.748 370.906 380.356 363.771 378.907C360.198 378.181 357.107 377.44 354.909 376.879C353.81 376.599 352.934 376.364 352.332 376.199C352.18 376.157 352.046 376.12 351.93 376.088L345.851 395.876L322.798 389.863Z" fill="#FE5244"/>
<path fill-rule="evenodd" clip-rule="evenodd" d="M366.176 377.323C366.129 376.911 366.059 376.33 365.965 375.638C365.774 374.234 365.48 372.366 365.072 370.524C364.667 368.691 364.139 366.844 363.469 365.503C363.135 364.836 362.744 364.248 362.277 363.856C361.792 363.449 361.194 363.233 360.528 363.408L360.527 363.408L360.525 363.409C359.86 363.587 359.429 364.087 359.173 364.687C358.921 365.279 358.814 366.018 358.804 366.812C358.783 368.407 359.151 370.384 359.753 372.254C360.355 374.122 361.209 375.941 362.197 377.202C362.69 377.832 363.243 378.355 363.845 378.661C364.465 378.975 365.148 379.062 365.829 378.784C366.981 378.315 368.065 377.24 369.025 375.99C369.998 374.723 370.897 373.205 371.661 371.755C372.427 370.303 373.064 368.904 373.509 367.87C373.732 367.352 373.907 366.925 374.027 366.626C374.086 366.477 374.132 366.359 374.164 366.279C374.179 366.239 374.191 366.208 374.199 366.187L374.208 366.163L374.212 366.155L374.212 366.155C374.212 366.154 374.212 366.154 373.69 365.959C373.167 365.764 373.167 365.764 373.167 365.764L373.167 365.764L373.167 365.765L373.165 365.77L373.156 365.792C373.149 365.812 373.138 365.841 373.123 365.879C373.093 365.956 373.048 366.07 372.99 366.215C372.873 366.506 372.702 366.925 372.483 367.433C372.045 368.45 371.421 369.821 370.673 371.241C369.923 372.663 369.057 374.12 368.138 375.316C367.477 376.177 366.815 376.868 366.176 377.323ZM365.109 377.835C364.872 377.862 364.623 377.81 364.353 377.673C363.951 377.469 363.518 377.082 363.077 376.521C362.199 375.4 361.395 373.715 360.816 371.916C360.237 370.119 359.901 368.266 359.919 366.827C359.929 366.104 360.028 365.526 360.201 365.119C360.37 364.722 360.583 364.542 360.814 364.48C361.045 364.42 361.277 364.468 361.557 364.703C361.855 364.953 362.164 365.386 362.47 365.997C363.077 367.212 363.581 368.951 363.982 370.762C364.381 372.564 364.67 374.399 364.859 375.787C364.954 376.48 365.023 377.06 365.069 377.466C365.086 377.613 365.099 377.737 365.109 377.835Z" fill="#FE5244"/>
<path fill-rule="evenodd" clip-rule="evenodd" d="M403.277 386.45L370.868 406.561L360.112 404.841L348.823 411.548L325.844 411.194L325.861 410.085L348.523 410.434L359.888 403.682L370.632 405.4L402.686 385.509L403.277 386.45Z" fill="#FE5244"/>
<path fill-rule="evenodd" clip-rule="evenodd" d="M358.301 386.899L360.421 377.083L361.512 377.316L359.392 387.132L358.301 386.899Z" fill="#FE5244"/>
<path fill-rule="evenodd" clip-rule="evenodd" d="M362.914 388.008L365.034 378.192L366.125 378.425L364.005 388.241L362.914 388.008Z" fill="#FE5244"/>
<path fill-rule="evenodd" clip-rule="evenodd" d="M367.73 388.803L369.851 378.987L370.942 379.22L368.822 389.036L367.73 388.803Z" fill="#FE5244"/>
<path d="M250.843 206.962C250.843 206.962 264.476 213.284 264.476 236.465C264.476 258.87 212.437 396.073 212.437 396.073L196.423 409.568L180.168 391.877C188.11 384.371 165.308 248.685 250.843 206.962Z" fill="#E57281"/>
<path d="M249.394 435.854L208.923 435.891L201.409 429.347L190.641 429.291L189.86 435.909L173.995 435.928C165.365 409.234 180.244 391.857 180.244 391.857L196.388 409.53L212.513 396.054C212.513 396.054 226.499 412.358 239.704 420.159C252.947 427.979 249.394 435.854 249.394 435.854Z" fill="white"/>
<path fill-rule="evenodd" clip-rule="evenodd" d="M180.23 391.018L196.439 408.762L212.577 395.275L212.937 395.694L212.512 396.054C212.937 395.694 212.937 395.694 212.937 395.694L212.946 395.705L212.976 395.739C213.002 395.77 213.042 395.816 213.094 395.876C213.199 395.996 213.355 396.174 213.558 396.403C213.964 396.862 214.56 397.527 215.316 398.349C216.828 399.994 218.983 402.269 221.548 404.786C226.686 409.829 233.446 415.817 239.989 419.683C246.702 423.647 249.242 427.678 250.055 430.8C250.459 432.354 250.429 433.658 250.294 434.581C250.226 435.042 250.133 435.408 250.054 435.663C250.014 435.791 249.979 435.89 249.952 435.961C249.945 435.979 249.939 435.995 249.933 436.009C249.928 436.022 249.923 436.034 249.919 436.044C249.915 436.054 249.911 436.062 249.909 436.068L249.905 436.076L249.903 436.08C249.903 436.08 249.903 436.081 249.394 435.854L249.903 436.081L249.755 436.408L208.713 436.446L201.198 429.9L191.136 429.849L190.355 436.463L173.588 436.483L173.463 436.097C169.106 422.62 170.681 411.478 173.355 403.703C174.69 399.818 176.3 396.775 177.577 394.7C178.216 393.663 178.773 392.866 179.171 392.328C179.371 392.058 179.53 391.853 179.641 391.714C179.697 391.645 179.74 391.592 179.77 391.556C179.785 391.538 179.797 391.524 179.805 391.514L179.814 391.503L179.817 391.5L179.818 391.499C179.818 391.498 179.818 391.498 180.243 391.857L179.818 391.498L180.23 391.018ZM180.273 392.715C180.212 392.795 180.144 392.885 180.07 392.985C179.689 393.5 179.15 394.271 178.529 395.279C177.287 397.297 175.716 400.266 174.411 404.062C171.827 411.574 170.283 422.33 174.402 435.373L189.363 435.355L190.144 428.734L201.62 428.793L209.132 435.336L248.999 435.3C249.06 435.094 249.135 434.797 249.19 434.421C249.307 433.623 249.337 432.47 248.974 431.078C248.253 428.308 245.948 424.491 239.419 420.636C232.757 416.701 225.92 410.636 220.764 405.576C218.182 403.042 216.015 400.753 214.492 399.097C213.731 398.269 213.131 397.599 212.72 397.136C212.618 397.021 212.528 396.919 212.45 396.83L196.335 410.298L180.273 392.715Z" fill="#FE5244"/>
<path fill-rule="evenodd" clip-rule="evenodd" d="M231.148 390.363C231.977 390.25 232.776 390.454 233.468 391.051C234.155 391.644 234.471 392.384 234.469 393.196C234.467 393.981 234.169 394.795 233.719 395.589C232.819 397.174 231.2 398.862 229.487 400.388C227.764 401.923 225.903 403.331 224.475 404.353C223.816 404.825 223.248 405.216 222.827 405.501C223.012 405.518 223.237 405.527 223.505 405.523C224.175 405.512 225.02 405.427 225.985 405.283C227.914 404.997 230.268 404.488 232.558 403.933C234.846 403.38 237.058 402.783 238.698 402.326C239.519 402.097 240.195 401.902 240.667 401.766C240.903 401.697 241.087 401.643 241.213 401.606C241.275 401.588 241.323 401.573 241.355 401.564L241.404 401.549C241.404 401.549 241.404 401.549 241.564 402.08C241.725 402.612 241.725 402.612 241.725 402.612L241.675 402.627C241.656 402.632 241.633 402.639 241.605 402.647C241.583 402.654 241.558 402.661 241.53 402.669C241.403 402.707 241.217 402.761 240.98 402.83C240.505 402.968 239.824 403.163 239 403.393C237.352 403.853 235.127 404.453 232.822 405.011C230.521 405.568 228.129 406.086 226.15 406.38C225.162 406.527 224.263 406.62 223.522 406.632C222.815 406.642 222.143 406.583 221.693 406.338C221.079 406.003 220.965 405.276 220.987 404.667C221.01 404.005 221.199 403.191 221.494 402.311C222.086 400.543 223.155 398.38 224.44 396.392C225.72 394.411 227.247 392.553 228.776 391.435C229.541 390.876 230.344 390.473 231.148 390.363ZM222.105 404.647C222.526 404.364 223.122 403.955 223.823 403.453C225.233 402.444 227.06 401.061 228.742 399.562C230.435 398.054 231.94 396.465 232.747 395.044C233.15 394.333 233.352 393.712 233.353 393.193C233.355 392.702 233.178 392.27 232.736 391.888C232.298 391.51 231.825 391.39 231.3 391.462C230.751 391.537 230.122 391.827 229.437 392.328C228.067 393.33 226.628 395.058 225.379 396.992C224.134 398.918 223.11 400.998 222.552 402.662C222.282 403.467 222.132 404.145 222.105 404.647Z" fill="#FE5244"/>
<path fill-rule="evenodd" clip-rule="evenodd" d="M171.557 412.791L172.152 411.853L191.005 423.672H204.233L212.584 430.641H249.709V431.75H212.178L203.827 424.781H190.682L171.557 412.791Z" fill="#FE5244"/>
<path fill-rule="evenodd" clip-rule="evenodd" d="M210.668 408.418L217.81 401.319L218.599 402.104L211.457 409.202L210.668 408.418Z" fill="#FE5244"/>
<path fill-rule="evenodd" clip-rule="evenodd" d="M213.939 411.837L221.081 404.738L221.87 405.523L214.729 412.621L213.939 411.837Z" fill="#FE5244"/>
<path fill-rule="evenodd" clip-rule="evenodd" d="M217.549 415.092L224.691 407.993L225.48 408.777L218.338 415.876L217.549 415.092Z" fill="#FE5244"/>
<path d="M250.843 206.961C218.686 222.637 201.835 251.623 192.927 282.07H95.3386C70.3603 282.07 51.7429 259.166 57.0064 234.894L64.1669 201.841H233.844C240.13 201.841 245.97 203.726 250.843 206.961Z" fill="#FE5244"/>
<path d="M178.381 238.646L213.514 238.572L208.306 247.057L178.381 238.646Z" fill="#E57281"/>
<path fill-rule="evenodd" clip-rule="evenodd" d="M101.181 201.298C101.482 201.36 101.676 201.654 101.613 201.954L100.255 208.424C100.255 208.424 100.255 208.424 100.255 208.424C97.0542 223.701 108.768 238.036 124.464 238.036H213.211C222.574 225.147 234.793 214.078 250.783 206.279C251.06 206.144 251.394 206.257 251.53 206.532C251.666 206.807 251.552 207.139 251.275 207.274C235.371 215.031 223.239 226.059 213.95 238.914L213.783 239.145H124.464C108.059 239.145 95.8175 224.162 99.1629 208.198L100.521 201.728C100.584 201.428 100.879 201.235 101.181 201.298Z" fill="white"/>
<path fill-rule="evenodd" clip-rule="evenodd" d="M177.846 238.475C177.931 238.181 178.24 238.01 178.536 238.095L208.785 246.723L208.416 247.341C201.917 258.217 197.135 270.095 193.593 282.206C193.507 282.5 193.197 282.669 192.901 282.584C192.605 282.498 192.435 282.191 192.521 281.896C196.017 269.946 200.718 258.198 207.089 247.393L178.228 239.161C177.932 239.077 177.761 238.769 177.846 238.475Z" fill="white"/>
<path d="M41.3652 113.054L59.2387 182.746H25.8909C6.47373 182.746 -6.02468 162.245 2.97716 145.146L28.5878 96.4724C35.8413 82.7003 50.181 74.0674 65.8226 74.0674H71.8673C51.3341 74.0489 36.2877 93.2743 41.3652 113.054Z" fill="#3FB1B5"/>
<path d="M247.18 94.9738C257.688 94.9738 266.43 93.5873 268.55 91.6463L235.946 161.893C230.051 174.611 217.236 182.745 203.157 182.745C199.028 182.745 194.973 182.042 191.142 180.693C187.31 179.344 183.702 177.366 180.485 174.778L159.933 158.288C159.933 158.288 157.887 170.248 143.287 173.299V201.804H64.1491L41.3655 113.035C36.288 93.2546 51.3345 74.0107 71.8676 74.0107H127.273C132.165 74.0107 136.982 74.6208 141.632 75.8039C154.353 79.0204 165.773 86.4518 173.845 97.0997L200.925 132.814L225.252 90.5556C225.252 90.5926 225.233 90.6481 225.233 90.685C225.252 93.1437 235.091 94.9738 247.18 94.9738Z" fill="#3FB1B5"/>
<path fill-rule="evenodd" clip-rule="evenodd" d="M41.0451 112.514C41.3442 112.441 41.6467 112.622 41.7208 112.919L59.2223 183.166C59.2964 183.463 59.1139 183.764 58.8148 183.838C58.5157 183.911 58.2132 183.73 58.1391 183.433L40.6376 113.186C40.5635 112.889 40.746 112.588 41.0451 112.514Z" fill="white"/>
<path fill-rule="evenodd" clip-rule="evenodd" d="M144.188 142.374C144.412 142.164 144.765 142.175 144.976 142.399L160.525 158.851C160.736 159.074 160.725 159.425 160.5 159.635C160.276 159.845 159.923 159.834 159.712 159.61L144.163 143.158C143.952 142.935 143.963 142.584 144.188 142.374Z" fill="white"/>
<path d="M269.034 90.6105L268.55 91.6457C266.43 93.6053 257.688 94.9732 247.18 94.9732C235.091 94.9732 225.252 93.1431 225.252 90.7214C225.252 90.6845 225.252 90.629 225.271 90.592C225.605 88.2258 235.314 86.1924 247.199 86.1924C259.065 86.1924 268.699 88.2258 269.034 90.6105C269.034 90.592 269.034 90.592 269.034 90.6105Z" fill="#FE5244"/>
<path d="M278.779 55.1183C278.779 56.172 278.518 57.2072 278.035 58.1131C277.551 59.0189 276.844 59.8138 275.97 60.4238L275.543 60.7196L272.213 78.3736C271.674 81.2389 269.963 83.7715 267.489 85.3428L262.933 88.2266L259.324 90.5189L257.651 94.4933C254.545 94.8076 250.992 94.9925 247.198 94.9925C243.367 94.9925 239.758 94.8076 236.615 94.4748V67.0972C236.615 65.9141 236.876 64.7495 237.378 63.6773L243.441 50.7002C243.441 50.7002 250.062 52.327 247.012 60.4053C244.241 67.7442 250.564 65.8586 254.117 64.5461C257.297 63.363 271.19 56.3384 276.621 53.7689C277.626 53.2882 278.779 54.0277 278.779 55.1183Z" fill="#E57281"/>
<path fill-rule="evenodd" clip-rule="evenodd" d="M273.063 71.2091C273.315 71.2561 273.481 71.4975 273.434 71.7484C272.871 74.7397 271.085 77.3638 268.503 79.0036L260.338 84.1799C260.122 84.3171 259.834 84.2539 259.696 84.0387C259.558 83.8235 259.622 83.5378 259.838 83.4006L268.003 78.2247C270.368 76.7219 272.004 74.3178 272.52 71.5784C272.567 71.3275 272.81 71.1622 273.063 71.2091Z" fill="#9A3B82"/>
<path fill-rule="evenodd" clip-rule="evenodd" d="M274.402 63.7228C274.655 63.7697 274.821 64.0112 274.774 64.2621C274.211 67.2534 272.424 69.8774 269.843 71.5172L261.678 76.6935C261.461 76.8308 261.174 76.7676 261.036 76.5524C260.898 76.3372 260.961 76.0515 261.178 75.9142L269.342 70.7384C269.342 70.7383 269.342 70.7383 269.343 70.7382C269.343 70.7382 269.343 70.7382 269.343 70.7382C271.708 69.2354 273.344 66.8313 273.86 64.0921C273.907 63.8412 274.15 63.6759 274.402 63.7228Z" fill="#9A3B82"/>
<path fill-rule="evenodd" clip-rule="evenodd" d="M275.34 60.6755C275.478 60.891 275.413 61.1766 275.197 61.3134L262.066 69.5951C261.849 69.7319 261.562 69.668 261.424 69.4525C261.286 69.237 261.351 68.9514 261.567 68.8147L274.698 60.5329C274.915 60.3962 275.202 60.46 275.34 60.6755Z" fill="#9A3B82"/>
<path d="M263.64 87.7642L262.915 88.2263L259.307 90.5186L257.633 94.493C254.527 94.8073 250.975 94.9922 247.18 94.9922C243.349 94.9922 239.741 94.8073 236.598 94.4746V86.7844C239.741 86.4147 243.349 86.2113 247.18 86.2113C253.746 86.1929 259.623 86.8029 263.64 87.7642Z" fill="#9A3B82"/>
<path d="M139.904 75.3802C137.208 78.985 127.164 87.47 93.3516 87.47C49.849 87.47 77.6914 74.0862 77.6914 74.0862L96.1415 43.4551L115.931 55.5264V65.2315C115.931 70.1302 119.929 74.0862 124.839 74.0862H126.123C130.735 74.0677 135.497 74.2711 139.904 75.3802Z" fill="#E57281"/>
<path d="M115.913 55.5068V57.984L77.6738 74.0667L96.1239 43.4355L115.913 55.5068Z" fill="#9A3B82"/>
<path d="M116.951 56.7078H121.154C125.023 56.7078 128.166 53.5837 128.166 49.7386V26.4648H103.076V42.9173C103.076 50.5335 109.288 56.7078 116.951 56.7078Z" fill="#E57281"/>
<path fill-rule="evenodd" clip-rule="evenodd" d="M124.253 46.3084L124.253 46.3081L124.253 46.3075L124.252 46.3068C124.252 46.3066 124.252 46.3066 124.252 46.3069C124.252 46.3069 124.252 46.3069 124.252 46.3069M124.252 46.3069C124.252 46.307 124.252 46.3071 124.252 46.3072C124.253 46.3084 124.255 46.3112 124.258 46.3156C124.263 46.3243 124.273 46.3392 124.287 46.3593C124.314 46.3997 124.359 46.4609 124.421 46.5362C124.546 46.6869 124.74 46.892 125.01 47.0982C125.547 47.5072 126.394 47.9272 127.627 47.9272C127.884 47.9272 128.092 48.1341 128.092 48.3893C128.092 48.6446 127.884 48.8515 127.627 48.8515C126.163 48.8515 125.121 48.3472 124.445 47.8319C124.109 47.5758 123.865 47.3188 123.703 47.123C123.622 47.0249 123.561 46.9417 123.519 46.8809C123.498 46.8505 123.482 46.8257 123.47 46.8073C123.464 46.7982 123.46 46.7906 123.456 46.7848L123.452 46.7773L123.45 46.7746L123.45 46.7735L123.449 46.773C123.449 46.7728 123.449 46.7726 123.851 46.5407" fill="#73325A"/>
<path d="M125.19 40.9393C125.683 40.9393 126.082 40.1696 126.082 39.2201C126.082 38.2707 125.683 37.501 125.19 37.501C124.697 37.501 124.297 38.2707 124.297 39.2201C124.297 40.1696 124.697 40.9393 125.19 40.9393Z" fill="#73325A"/>
<path d="M107.858 28.8872C107.858 28.8872 128.558 41.3098 135.291 30.4955C141.205 21.0122 115 16.1319 105.849 16.095C95.8986 16.058 82.712 20.4392 82.9352 34.9876C83.1212 46.9665 83.6233 64.4911 76.4814 61.4409C51.0754 50.6082 28.4964 61.9216 28.422 83.4761C28.3476 105.031 53.5118 107.046 54.1442 101.481C54.7952 95.9357 38.5212 97.2112 40.7159 111.612C42.8919 126.012 52.6005 144.018 74.7703 144.018C101.553 144.036 118.608 108.987 102.036 105.419C89.3332 102.683 114.981 127.047 122.588 101.722C130.771 74.455 101.199 65.5263 100.474 49.0554C99.7485 32.5844 107.858 28.8872 107.858 28.8872Z" fill="#FFCF2D"/>
<path fill-rule="evenodd" clip-rule="evenodd" d="M90.3241 19.6833C94.9366 16.7096 100.819 15.6134 105.851 15.6321C110.476 15.6508 119.366 16.8882 126.373 19.3157C129.867 20.5265 132.959 22.0551 134.805 23.9255C135.733 24.8667 136.37 25.9183 136.558 27.0814C136.748 28.2518 136.473 29.4765 135.686 30.7379C133.913 33.5859 131.216 34.895 128.221 35.2644C125.244 35.6316 121.955 35.0745 118.919 34.1894C115.877 33.3026 113.053 32.0761 110.993 31.0736C109.962 30.5719 109.12 30.1252 108.535 29.8035C108.243 29.6426 108.014 29.5129 107.859 29.4231C107.855 29.4209 107.851 29.4186 107.847 29.4164C107.818 29.433 107.787 29.4516 107.752 29.4723C107.549 29.5955 107.252 29.7924 106.895 30.0804C106.181 30.6561 105.224 31.5971 104.285 33.0445C102.408 35.9348 100.579 40.8787 100.939 49.0344C101.114 53.0123 103.031 56.5664 105.756 60.1178C107.117 61.8919 108.67 63.6531 110.294 65.4594C110.571 65.7669 110.849 66.0757 111.129 66.3861C112.49 67.8951 113.884 69.4404 115.229 71.0434C118.473 74.9099 121.469 79.1499 123.129 84.1604C124.792 89.1818 125.106 94.949 123.034 101.853C121.106 108.271 118.003 111.638 114.556 113.027C112.735 113.761 110.849 113.929 109.038 113.728C109.116 117.489 107.669 121.964 105.06 126.3C99.4617 135.602 88.3695 144.488 74.7701 144.479C63.5414 144.479 55.4463 139.912 49.8935 133.516C44.3522 127.133 41.3538 118.943 40.2562 111.68C39.7233 108.183 40.2495 105.404 41.3867 103.282C41.2068 103.216 41.0269 103.148 40.8471 103.077C34.3424 100.518 27.9192 94.4752 27.9572 83.4738C27.995 72.516 33.764 64.1388 42.753 59.8951C51.7277 55.6581 63.8661 55.5583 76.6648 61.0155L76.6651 61.0156C77.4836 61.3652 78.1397 61.399 78.6766 61.23C79.2171 61.0599 79.7058 60.6626 80.1441 60.0191C81.0337 58.713 81.6248 56.5273 81.9956 53.7878C82.6899 48.6575 82.5807 41.8647 82.4877 36.0786C82.4818 35.7128 82.476 35.351 82.4704 34.9939C82.3562 27.5514 85.6852 22.674 90.3241 19.6833ZM42.2788 103.585C41.2009 105.522 40.6567 108.136 41.1757 111.542L41.1758 111.542C42.2543 118.679 45.1982 126.693 50.5976 132.912C55.9856 139.119 63.8295 143.555 74.7704 143.555H74.7708C87.9537 143.564 98.7802 134.934 104.262 125.825C106.856 121.514 108.221 117.147 108.104 113.591C106.838 113.361 105.621 112.962 104.505 112.462C103.022 111.799 101.701 110.954 100.652 110.078C99.6093 109.207 98.8087 108.283 98.4007 107.45C98.197 107.035 98.0739 106.607 98.0999 106.202C98.1273 105.776 98.3198 105.4 98.6899 105.137C99.041 104.887 99.514 104.766 100.07 104.742C100.631 104.718 101.317 104.79 102.135 104.967C104.295 105.432 105.939 106.419 107.081 107.81C108.196 109.167 108.808 110.878 108.986 112.791C110.714 113.005 112.5 112.858 114.207 112.17C117.311 110.919 120.267 107.834 122.142 101.589C124.162 94.8596 123.848 89.2857 122.245 84.4495C120.64 79.6024 117.731 75.4683 114.515 71.6354C113.181 70.0462 111.801 68.5153 110.44 67.0064C110.159 66.6952 109.879 66.3849 109.601 66.0753C107.976 64.2682 106.402 62.4836 105.016 60.6783C102.248 57.071 100.197 53.3324 100.009 49.0748C99.6433 40.7596 101.506 35.6194 103.503 32.5434C104.5 31.0076 105.525 29.9949 106.309 29.3626C106.701 29.0467 107.032 28.8261 107.269 28.6827C107.387 28.6111 107.482 28.5587 107.55 28.5234C107.583 28.5058 107.61 28.4924 107.629 28.483C107.639 28.4783 107.646 28.4746 107.652 28.4718L107.66 28.4684L107.663 28.4668C107.664 28.4666 107.664 28.4664 107.858 28.8865L107.664 28.4664L107.887 28.3645L108.098 28.4908L108.092 28.5011C108.098 28.4909 108.098 28.4908 108.098 28.4908L108.099 28.4912L108.101 28.4926L108.111 28.4988C108.121 28.5044 108.135 28.5129 108.154 28.5241C108.192 28.5466 108.25 28.5801 108.325 28.6236C108.476 28.7105 108.699 28.8371 108.986 28.9948C109.559 29.3102 110.387 29.7495 111.402 30.2435C113.434 31.2323 116.206 32.4354 119.18 33.3025C122.161 34.1713 125.31 34.6921 128.107 34.3471C130.888 34.0041 133.302 32.8107 134.896 30.2516L134.896 30.2513C135.588 29.142 135.788 28.1398 135.64 27.2281C135.492 26.309 134.98 25.4232 134.141 24.5727C132.45 22.8597 129.528 21.3878 126.066 20.1885C119.161 17.7959 110.373 16.5747 105.847 16.5564M108.035 112.637C107.843 110.967 107.29 109.526 106.361 108.394C105.368 107.185 103.92 106.297 101.938 105.87C101.168 105.704 100.565 105.646 100.11 105.666C99.6502 105.686 99.3791 105.783 99.2306 105.889C99.1011 105.981 99.0386 106.096 99.028 106.261C99.016 106.447 99.0719 106.709 99.2367 107.045C99.5657 107.717 100.26 108.543 101.25 109.37C102.233 110.191 103.482 110.991 104.887 111.619C105.878 112.063 106.939 112.418 108.035 112.637ZM42.2788 103.585C45.0379 104.461 47.7393 104.732 49.8968 104.505C51.1596 104.373 52.2648 104.067 53.0893 103.588C53.9163 103.107 54.5051 102.42 54.6063 101.533C54.7014 100.721 54.4851 100.01 54.0266 99.4435C53.5754 98.8858 52.9128 98.4947 52.151 98.2578C50.6316 97.7853 48.6175 97.8923 46.6837 98.6349C44.885 99.3256 43.1258 100.577 41.8699 102.473C41.6432 102.392 41.4163 102.307 41.1893 102.218C34.9724 99.772 28.8507 94.0302 28.8871 83.477C28.9237 72.8802 34.4814 64.8234 43.152 60.73C51.8368 56.6298 63.6907 56.4893 76.298 61.8648C77.2649 62.2778 78.1554 62.3635 78.9573 62.1112C79.7557 61.8599 80.3981 61.2949 80.9141 60.5373C81.9332 59.041 82.544 56.6688 82.9172 53.911C83.6213 48.7085 83.5108 41.8499 83.4179 36.0863C83.4118 35.7126 83.4059 35.3435 83.4002 34.9798C83.2912 27.8738 86.444 23.2865 90.8301 20.4587C95.2426 17.614 100.929 16.5381 105.847 16.5564M42.787 102.775C43.9142 101.172 45.4467 100.101 47.0188 99.4971C48.7978 98.8139 50.593 98.7418 51.8733 99.1399C52.5114 99.3383 52.9963 99.6449 53.3019 100.023C53.6 100.391 53.7498 100.853 53.6825 101.427L53.6823 101.429C53.6251 101.932 53.2893 102.4 52.6196 102.79C51.9472 103.181 50.9833 103.462 49.7992 103.586C47.8398 103.792 45.356 103.56 42.787 102.775Z" fill="white"/>
<path fill-rule="evenodd" clip-rule="evenodd" d="M121.211 39.3318H106.406V38.2227H121.211V39.3318Z" fill="#3FB1B5"/>
<path fill-rule="evenodd" clip-rule="evenodd" d="M125.767 34.5252C123.875 34.5252 122.122 36.5404 122.122 39.3315C122.122 42.1226 123.875 44.1379 125.767 44.1379C127.659 44.1379 129.413 42.1226 129.413 39.3315C129.413 36.5404 127.659 34.5252 125.767 34.5252ZM121.006 39.3315C121.006 36.2011 123.016 33.416 125.767 33.416C128.518 33.416 130.528 36.2011 130.528 39.3315C130.528 42.4619 128.518 45.247 125.767 45.247C123.016 45.247 121.006 42.4619 121.006 39.3315Z" fill="#3FB1B5"/>
<path fill-rule="evenodd" clip-rule="evenodd" d="M102.817 12.9334C100.765 12.9334 99.1159 14.5876 99.1159 16.6121V32.1772H98V16.6121C98 13.9781 100.145 11.8242 102.817 11.8242H107.467C110.117 11.8242 112.284 13.9565 112.284 16.6121H111.168C111.168 14.5722 109.504 12.9334 107.467 12.9334H102.817Z" fill="#66B0F0"/>
<path d="M103.041 49.3142H94.0948C91.8072 49.3142 89.9473 47.4656 89.9473 45.1918V36.3001C89.9473 34.0263 91.8072 32.1777 94.0948 32.1777H103.041C105.328 32.1777 107.188 34.0263 107.188 36.3001V45.1918C107.17 47.4656 105.328 49.3142 103.041 49.3142Z" fill="white"/>
<path fill-rule="evenodd" clip-rule="evenodd" d="M94.0942 32.7312C92.1147 32.7312 90.5046 34.3315 90.5046 36.299V45.1907C90.5046 47.1582 92.1147 48.7585 94.0942 48.7585H103.04C105.015 48.7585 106.612 47.1625 106.63 45.1884V36.299C106.63 34.3315 105.02 32.7312 103.04 32.7312H94.0942ZM89.3887 36.299C89.3887 33.719 91.4984 31.6221 94.0942 31.6221H103.04C105.636 31.6221 107.746 33.719 107.746 36.299V45.193L107.746 45.1952C107.725 47.7676 105.64 49.8677 103.04 49.8677H94.0942C91.4984 49.8677 89.3887 47.7708 89.3887 45.1907V36.299Z" fill="#66B0F0"/>
<path d="M100.715 46.3746H96.3441C94.4656 46.3746 92.9219 44.8588 92.9219 42.9732V38.629C92.9219 36.7619 94.447 35.2275 96.3441 35.2275H100.715C102.593 35.2275 104.137 36.7434 104.137 38.629V42.9732C104.137 44.8588 102.612 46.3746 100.715 46.3746Z" fill="white"/>
<path fill-rule="evenodd" clip-rule="evenodd" d="M96.3454 35.783C94.7584 35.783 93.4812 37.0671 93.4812 38.6298V42.974C93.4812 44.5513 94.7731 45.8208 96.3454 45.8208H100.716C102.305 45.8208 103.58 44.5533 103.58 42.974V38.6298C103.58 37.0525 102.288 35.783 100.716 35.783H96.3454ZM92.3652 38.6298C92.3652 36.4584 94.1382 34.6738 96.3454 34.6738H100.716C102.901 34.6738 104.696 36.436 104.696 38.6298V42.974C104.696 45.1659 102.921 46.93 100.716 46.93H96.3454C94.1607 46.93 92.3652 45.1678 92.3652 42.974V38.6298Z" fill="#66B0F0"/>
<path fill-rule="evenodd" clip-rule="evenodd" d="M94.2246 45.6161L101.999 35.3379L102.891 36.0044L95.1166 46.2826L94.2246 45.6161Z" fill="#66B0F0"/>
<path fill-rule="evenodd" clip-rule="evenodd" d="M92.7012 43.8585L99.4339 34.9854L100.325 35.6532L93.5921 44.5264L92.7012 43.8585Z" fill="#66B0F0"/>
<path fill-rule="evenodd" clip-rule="evenodd" d="M96.7715 46.0403L103.504 37.167L104.395 37.8348L97.6625 46.7081L96.7715 46.0403Z" fill="#66B0F0"/>
<path fill-rule="evenodd" clip-rule="evenodd" d="M99.4707 46.0408L103.693 40.4766L104.584 41.1444L100.362 46.7087L99.4707 46.0408Z" fill="#66B0F0"/>
<path fill-rule="evenodd" clip-rule="evenodd" d="M92.4961 40.5126L96.6994 34.9854L97.5896 35.6542L93.3863 41.1814L92.4961 40.5126Z" fill="#66B0F0"/>
<path fill-rule="evenodd" clip-rule="evenodd" d="M91.3792 302.774V292.588H92.4951V302.774C92.4951 307.997 88.228 312.238 82.9725 312.238H59.9844V311.129H82.9725C87.6116 311.129 91.3792 307.385 91.3792 302.774Z" fill="#66B0F0"/>
<path fill-rule="evenodd" clip-rule="evenodd" d="M99.9531 386.145V292.698H101.069V386.145H99.9531Z" fill="#66B0F0"/>
<path fill-rule="evenodd" clip-rule="evenodd" d="M95.8067 386.699C75.6196 386.699 59.446 399.971 59.446 416.11H58.3301C58.3301 399.159 75.2252 385.59 95.8067 385.59H105.069C125.65 385.59 142.546 399.159 142.546 416.11H141.43C141.43 399.971 125.256 386.699 105.069 386.699H95.8067Z" fill="#66B0F0"/>
<path d="M189.951 294.122H54.9236C48.1536 294.122 42.6855 288.668 42.6855 281.958H193.15L189.951 294.122Z" fill="#FFCF2D"/>
<path d="M58.0686 435.927C63.5743 435.927 68.0376 431.491 68.0376 426.019C68.0376 420.547 63.5743 416.11 58.0686 416.11C52.5629 416.11 48.0996 420.547 48.0996 426.019C48.0996 431.491 52.5629 435.927 58.0686 435.927Z" fill="#FFCF2D"/>
<path d="M52.9904 314.215H73.0028C74.6395 314.215 75.96 312.903 75.96 311.276V311.054C75.96 309.428 74.6395 308.115 73.0028 308.115H52.9904C51.3537 308.115 50.0332 309.428 50.0332 311.054V311.276C50.0332 312.903 51.3537 314.215 52.9904 314.215Z" fill="#FFCF2D"/>
<path fill-rule="evenodd" clip-rule="evenodd" d="M11.2134 196.351C8.74081 189.446 13.8824 182.189 21.2617 182.189H91.6954C98.5531 182.189 104.659 186.478 106.97 192.891L106.97 192.891L139.282 282.882H42.2942L11.2134 196.351ZM12.2645 195.978C10.0506 189.795 14.6548 183.299 21.2617 183.299H91.6954C98.0802 183.299 103.766 187.292 105.919 193.265L137.699 281.773H43.0808L12.2647 195.979C12.2647 195.979 12.2646 195.979 12.2645 195.978Z" fill="#FFCF2D"/>
<path fill-rule="evenodd" clip-rule="evenodd" d="M14.1953 185.498H85.5032C92.1375 185.498 98.0385 189.639 100.275 195.848L100.275 195.849L131.508 282.882H47.4314V281.773H129.926L99.2246 196.222C97.1463 190.452 91.6649 186.607 85.5032 186.607H14.1953V185.498Z" fill="#FFCF2D"/>
<path d="M141.819 435.927C147.324 435.927 151.788 431.491 151.788 426.019C151.788 420.547 147.324 416.11 141.819 416.11C136.313 416.11 131.85 420.547 131.85 426.019C131.85 431.491 136.313 435.927 141.819 435.927Z" fill="#FFCF2D"/>
</svg>
