<svg xmlns="http://www.w3.org/2000/svg" xmlns:xlink="http://www.w3.org/1999/xlink" width="1920" height="992" fill="none" xmlns:v="https://vecta.io/nano"><path d="M1691.84 329.026V319h25.55v26.786h-9.6v-16.76h-15.94zm-17.26 18.214v-10.102h25.48V364h-9.54v-16.76h-15.94z" opacity=".6" fill="#fff"/><g opacity=".4" clip-path="url(#A)" fill="#fff"><path d="M1877.1 734c-71.36 0-129.1 57.727-129.1 129.1 0 71.184 57.73 129.088 129.1 129.088 71.18 0 129.1-57.727 129.1-129.088-.18-71.362-57.9-129.1-129.1-129.1zm0 249.855c-66.76 0-120.77-54-120.77-120.766s54-120.766 120.77-120.766 120.76 54.008 120.76 120.766c0 66.58-54.18 120.766-120.76 120.766zm0-222.055c-55.78 0-101.1 45.33-101.1 101.1S1821.33 964 1877.1 964s101.1-45.155 101.1-100.934c0-55.956-45.33-101.287-101.1-101.287zm0 186.815c-47.28 0-85.7-38.425-85.7-85.705s38.43-85.705 85.7-85.705 85.7 38.426 85.7 85.705-38.42 85.705-85.7 85.705z"/></g><g clip-path="url(#B)" fill="#fff"><use xlink:href="#C"/><use xlink:href="#D"/><use xlink:href="#E"/><path d="M292.654 567.918c0 1.054-.8 1.844-1.84 1.844s-1.84-.8-1.84-1.844.8-1.844 1.84-1.844 1.84.878 1.84 1.844zm15.686 0c0 1.054-.788 1.844-1.84 1.844a1.8 1.8 0 1 1 0-3.688c.964 0 1.84.878 1.84 1.844zm15.687 0c0 1.054-.8 1.844-1.84 1.844s-1.84-.8-1.84-1.844.8-1.844 1.84-1.844 1.84.878 1.84 1.844zm15.6 0c0 1.054-.8 1.844-1.84 1.844s-1.84-.8-1.84-1.844.8-1.844 1.84-1.844 1.84.878 1.84 1.844zm15.687 0c0 1.054-.8 1.844-1.84 1.844s-1.84-.8-1.84-1.844.8-1.844 1.84-1.844 1.84.878 1.84 1.844z"/><use xlink:href="#F"/><use xlink:href="#G"/><path d="M276.966 581c0 1.054-.788 1.844-1.84 1.844a1.8 1.8 0 1 1 0-3.688 1.8 1.8 0 0 1 1.84 1.844zm15.688 0c0 1.054-.8 1.844-1.84 1.844s-1.84-.8-1.84-1.844.8-1.844 1.84-1.844 1.84.8 1.84 1.844zm15.686 0c0 1.054-.788 1.844-1.84 1.844a1.8 1.8 0 1 1 0-3.688 1.86 1.86 0 0 1 1.84 1.844zm15.687 0c0 1.054-.8 1.844-1.84 1.844s-1.84-.8-1.84-1.844.8-1.844 1.84-1.844 1.84.8 1.84 1.844zm15.6 0c0 1.054-.8 1.844-1.84 1.844s-1.84-.8-1.84-1.844.8-1.844 1.84-1.844 1.84.8 1.84 1.844zm15.687 0c0 1.054-.8 1.844-1.84 1.844s-1.84-.8-1.84-1.844.8-1.844 1.84-1.844 1.84.8 1.84 1.844z"/><use xlink:href="#H"/><use xlink:href="#I"/><path d="M276.966 541.842c0 1.053-.788 1.844-1.84 1.844s-1.84-.8-1.84-1.844.876-1.844 1.84-1.844a1.8 1.8 0 0 1 1.84 1.844zm15.688 0c0 1.053-.8 1.844-1.84 1.844s-1.84-.8-1.84-1.844.876-1.844 1.84-1.844a1.86 1.86 0 0 1 1.84 1.844zm15.686 0c0 1.053-.788 1.844-1.84 1.844s-1.84-.8-1.84-1.844.788-1.844 1.84-1.844a1.86 1.86 0 0 1 1.84 1.844zm15.687 0c0 1.053-.8 1.844-1.84 1.844s-1.84-.8-1.84-1.844.8-1.844 1.84-1.844 1.84.8 1.84 1.844zm15.6 0c0 1.053-.8 1.844-1.84 1.844s-1.84-.8-1.84-1.844.8-1.844 1.84-1.844 1.84.8 1.84 1.844zm15.687 0c0 1.053-.8 1.844-1.84 1.844s-1.84-.8-1.84-1.844.8-1.844 1.84-1.844 1.84.8 1.84 1.844zM245.68 554.924c0 1.053-.8 1.844-1.84 1.844s-1.84-.878-1.84-1.844c0-1.054.8-1.844 1.84-1.844s1.84.8 1.84 1.844zm15.687 0c0 1.053-.788 1.844-1.84 1.844s-1.84-.8-1.84-1.844.788-1.844 1.84-1.844a1.86 1.86 0 0 1 1.84 1.844zm15.6 0c0 1.053-.788 1.844-1.84 1.844s-1.84-.8-1.84-1.844.788-1.844 1.84-1.844a1.8 1.8 0 0 1 1.84 1.844zm15.688 0c0 1.053-.8 1.844-1.84 1.844s-1.84-.8-1.84-1.844.8-1.844 1.84-1.844 1.84.8 1.84 1.844zm15.686 0c0 1.053-.788 1.844-1.84 1.844s-1.84-.8-1.84-1.844.788-1.844 1.84-1.844a1.86 1.86 0 0 1 1.84 1.844zm15.687 0c0 1.053-.8 1.844-1.84 1.844s-1.84-.8-1.84-1.844.8-1.844 1.84-1.844 1.84.8 1.84 1.844zm15.6 0c0 1.053-.8 1.844-1.84 1.844s-1.84-.8-1.84-1.844.8-1.844 1.84-1.844 1.84.8 1.84 1.844zm15.687 0c0 1.053-.8 1.844-1.84 1.844s-1.84-.8-1.84-1.844.8-1.844 1.84-1.844 1.84.8 1.84 1.844zM245.68 593.996c0 1.054-.8 1.844-1.84 1.844s-1.84-.8-1.84-1.844.8-1.844 1.84-1.844 1.84.878 1.84 1.844zm15.687 0c0 1.054-.788 1.844-1.84 1.844a1.8 1.8 0 1 1 0-3.688c.964 0 1.84.878 1.84 1.844zm15.6 0c0 1.054-.788 1.844-1.84 1.844a1.8 1.8 0 1 1 0-3.688c1.052 0 1.84.878 1.84 1.844zm15.688 0c0 1.054-.8 1.844-1.84 1.844s-1.84-.8-1.84-1.844.8-1.844 1.84-1.844 1.84.878 1.84 1.844zm15.686 0c0 1.054-.788 1.844-1.84 1.844a1.8 1.8 0 1 1 0-3.688c.964 0 1.84.878 1.84 1.844zm15.687 0c0 1.054-.8 1.844-1.84 1.844s-1.84-.8-1.84-1.844.8-1.844 1.84-1.844 1.84.878 1.84 1.844zm15.6 0c0 1.054-.8 1.844-1.84 1.844s-1.84-.8-1.84-1.844.8-1.844 1.84-1.844 1.84.878 1.84 1.844zm15.687 0c0 1.054-.8 1.844-1.84 1.844s-1.84-.8-1.84-1.844.8-1.844 1.84-1.844 1.84.878 1.84 1.844z"/><use xlink:href="#J"/><use xlink:href="#K"/><use xlink:href="#L"/><use xlink:href="#M"/><path d="M308.34 607.078c0 1.054-.788 1.844-1.84 1.844a1.8 1.8 0 1 1 0-3.688c.964 0 1.84.8 1.84 1.844zm15.687 0c0 1.054-.8 1.844-1.84 1.844s-1.84-.8-1.84-1.844.8-1.844 1.84-1.844 1.84.8 1.84 1.844zm15.6 0c0 1.054-.8 1.844-1.84 1.844s-1.84-.8-1.84-1.844.8-1.844 1.84-1.844 1.84.8 1.84 1.844zm13.846 1.844c1.017 0 1.84-.826 1.84-1.844s-.824-1.844-1.84-1.844-1.84.826-1.84 1.844.824 1.844 1.84 1.844zM245.68 620.16c0 1.054-.8 1.844-1.84 1.844s-1.84-.8-1.84-1.844.8-1.844 1.84-1.844 1.84.8 1.84 1.844zm15.687 0c0 1.054-.788 1.844-1.84 1.844a1.8 1.8 0 1 1 0-3.688c.964 0 1.84.8 1.84 1.844zm15.6 0c0 1.054-.788 1.844-1.84 1.844a1.8 1.8 0 1 1 0-3.688c1.052 0 1.84.8 1.84 1.844zm15.688 0c0 1.054-.8 1.844-1.84 1.844s-1.84-.8-1.84-1.844.8-1.844 1.84-1.844 1.84.8 1.84 1.844zm15.686 0c0 1.054-.788 1.844-1.84 1.844a1.8 1.8 0 1 1 0-3.688c.964 0 1.84.8 1.84 1.844zm15.687 0c0 1.054-.8 1.844-1.84 1.844s-1.84-.8-1.84-1.844.8-1.844 1.84-1.844 1.84.8 1.84 1.844zm15.6 0c0 1.054-.8 1.844-1.84 1.844s-1.84-.8-1.84-1.844.8-1.844 1.84-1.844 1.84.8 1.84 1.844zm15.687 0c0 1.054-.8 1.844-1.84 1.844s-1.84-.8-1.84-1.844.8-1.844 1.84-1.844 1.84.8 1.84 1.844z"/><use xlink:href="#N"/><use xlink:href="#O"/><path d="M276.966 633.154c0 1.054-.788 1.844-1.84 1.844a1.8 1.8 0 0 1 0-3.687c1.052 0 1.84.878 1.84 1.843zm15.688 0c0 1.054-.8 1.844-1.84 1.844s-1.84-.8-1.84-1.844a1.8 1.8 0 0 1 1.84-1.843c1.05 0 1.84.878 1.84 1.843zm15.686 0c0 1.054-.788 1.844-1.84 1.844a1.8 1.8 0 0 1 0-3.687c.964 0 1.84.878 1.84 1.843zm15.687 0c0 1.054-.8 1.844-1.84 1.844s-1.84-.8-1.84-1.844a1.8 1.8 0 0 1 1.84-1.843c1.05 0 1.84.878 1.84 1.843zm15.6 0c0 1.054-.8 1.844-1.84 1.844s-1.84-.8-1.84-1.844a1.8 1.8 0 0 1 1.84-1.843c1.05 0 1.84.878 1.84 1.843zm15.687 0c0 1.054-.8 1.844-1.84 1.844s-1.84-.8-1.84-1.844a1.8 1.8 0 0 1 1.84-1.843c1.05 0 1.84.878 1.84 1.843z"/></g><defs><clipPath id="A"><path fill="#fff" transform="translate(1674.58 734)" d="M0 0h245.422v258H0z"/></clipPath><clipPath id="B"><path fill="#fff" transform="translate(242 539.998)" d="M0 0h122.71v95H0z"/></clipPath><path id="C" d="M245.68 567.918c0 1.054-.79 1.844-1.84 1.844s-1.84-.8-1.84-1.844.79-1.844 1.84-1.844 1.84.878 1.84 1.844z"/><path id="D" d="M261.367 567.918c0 1.054-.788 1.844-1.84 1.844s-1.84-.8-1.84-1.844.788-1.844 1.84-1.844c.964 0 1.84.878 1.84 1.844z"/><path id="E" d="M276.966 567.918c0 1.054-.788 1.844-1.84 1.844s-1.84-.8-1.84-1.844.788-1.844 1.84-1.844 1.84.878 1.84 1.844z"/><path id="F" d="M245.68 581c0 1.054-.79 1.844-1.84 1.844s-1.84-.8-1.84-1.844.79-1.844 1.84-1.844 1.84.8 1.84 1.844z"/><path id="G" d="M261.367 581c0 1.054-.788 1.844-1.84 1.844s-1.84-.8-1.84-1.844.788-1.844 1.84-1.844c.964 0 1.84.8 1.84 1.844z"/><path id="H" d="M245.68 541.842c0 1.053-.79 1.844-1.84 1.844s-1.84-.79-1.84-1.844.79-1.844 1.84-1.844 1.84.8 1.84 1.844z"/><path id="I" d="M261.367 541.842c0 1.053-.788 1.844-1.84 1.844s-1.84-.79-1.84-1.844.788-1.844 1.84-1.844c.964 0 1.84.8 1.84 1.844z"/><path id="J" d="M245.68 607.078c0 1.054-.79 1.844-1.84 1.844s-1.84-.8-1.84-1.844.79-1.844 1.84-1.844 1.84.79 1.84 1.844z"/><path id="K" d="M261.367 607.078c0 1.054-.788 1.844-1.84 1.844s-1.84-.8-1.84-1.844.788-1.844 1.84-1.844c.964 0 1.84.79 1.84 1.844z"/><path id="L" d="M276.966 607.078c0 1.054-.788 1.844-1.84 1.844s-1.84-.8-1.84-1.844.788-1.844 1.84-1.844 1.84.79 1.84 1.844z"/><path id="M" d="M290.813 608.922c1.017 0 1.84-.826 1.84-1.844s-.824-1.844-1.84-1.844-1.84.826-1.84 1.844.824 1.844 1.84 1.844z"/><path id="N" d="M245.68 633.154c0 1.054-.79 1.844-1.84 1.844s-1.84-.8-1.84-1.844.79-1.843 1.84-1.843 1.84.878 1.84 1.843z"/><path id="O" d="M261.367 633.154c0 1.054-.788 1.844-1.84 1.844s-1.84-.8-1.84-1.844.788-1.843 1.84-1.843c.964 0 1.84.878 1.84 1.843z"/></defs></svg>