<svg width="1920" height="475" viewBox="0 0 1920 475" fill="none" xmlns="http://www.w3.org/2000/svg">
<g clip-path="url(#clip0)">
<g opacity="0.4">
<path d="M-126.7 178.434C-132.009 185.686 -137.602 193.056 -143.282 200.539C-161.624 224.704 -180.868 250.057 -194.322 276.501C-211.929 311.109 -219.564 347.482 -202.264 385.365C-185.47 422.139 -151.526 435.975 -112.722 445.382C-103.024 447.733 -93.0329 449.805 -82.9365 451.891L-82.2205 452.039C-72.3609 454.076 -62.4059 456.133 -52.5463 458.479C-32.3508 463.285 -12.5265 469.313 5.32756 478.902C24.8999 489.414 42.875 504.649 60.0724 521.288C68.6723 529.609 77.0833 538.286 85.4043 546.904C85.9511 547.471 86.4974 548.037 87.0435 548.602C94.8089 556.647 102.501 564.616 110.209 572.18C143.245 604.596 176.39 629.369 216.336 620.693C258.973 611.434 293.268 579.285 315.933 537.957C338.597 496.633 349.595 446.194 345.677 400.478C342.299 361.05 316.416 332.963 284.437 306.885C274.785 299.014 264.603 291.345 254.326 283.604C247.568 278.514 240.77 273.394 234.054 268.165C217.145 254.998 200.803 241.174 187.132 225.531C174.023 210.53 163.009 192.877 152.702 174.683C148.616 167.471 144.645 160.181 140.698 152.935C134.676 141.881 128.711 130.931 122.483 120.522C101.869 86.0708 78.556 57.8821 41.4675 52.3339C2.8606 46.5586 -28.1892 63.0462 -55.1045 88.5265C-77.0465 109.299 -96.1877 135.994 -114.398 161.392C-118.54 167.168 -122.633 172.877 -126.7 178.434Z" stroke="#00F0B5"/>
<path d="M-85.9688 219.729C-90.1507 225.443 -94.5563 231.247 -99.0293 237.14C-113.47 256.165 -128.613 276.116 -139.201 296.927C-153.057 324.16 -159.055 352.763 -145.453 382.55C-132.252 411.456 -105.571 422.339 -75.0247 429.744C-67.3914 431.595 -59.5266 433.226 -51.5771 434.868L-51.0138 434.985C-43.251 436.589 -35.4112 438.208 -27.6464 440.056C-11.7421 443.841 3.87685 448.589 17.9463 456.146C33.3695 464.429 47.5304 476.433 61.0731 489.535C67.8456 496.088 74.4692 502.921 81.0206 509.707C81.451 510.152 81.881 510.598 82.3108 511.043C88.4251 517.378 94.4806 523.651 100.549 529.605C126.561 555.13 152.618 574.591 184.008 567.773C217.537 560.492 244.517 535.207 262.354 502.684C280.189 470.165 288.843 430.473 285.76 394.5C283.104 363.502 262.757 341.413 237.582 320.883C229.984 314.687 221.97 308.651 213.88 302.558C208.56 298.551 203.206 294.518 197.915 290.399C184.6 280.031 171.727 269.142 160.957 256.817C150.628 244.998 141.952 231.092 133.836 216.765C130.617 211.083 127.489 205.342 124.382 199.637C119.642 190.936 114.947 182.319 110.044 174.124C93.8156 147.002 75.483 124.848 46.3342 120.488C15.983 115.947 -8.43215 128.906 -29.611 148.956C-46.8788 165.303 -61.942 186.311 -76.2795 206.307C-79.541 210.856 -82.7649 215.352 -85.9688 219.729Z" stroke="#00F0B5"/>
<path d="M-56.5408 249.563C-59.9089 254.164 -63.4563 258.838 -67.0573 263.582C-78.6786 278.893 -90.859 294.941 -99.3768 311.682C-110.521 333.586 -115.338 356.575 -104.406 380.512C-93.8018 403.733 -72.3696 412.483 -47.7892 418.442C-41.6474 419.931 -35.3191 421.243 -28.9207 422.565L-28.4638 422.66C-22.2173 423.95 -15.9072 425.254 -9.65718 426.741C3.14655 429.788 15.7272 433.612 27.0621 439.7C39.4874 446.374 50.8926 456.042 61.7946 466.59C67.2468 471.865 72.5789 477.366 77.8517 482.827C78.1985 483.186 78.545 483.545 78.8912 483.904C83.8121 489.002 88.6846 494.05 93.5669 498.841C114.505 519.386 135.442 535.009 160.648 529.534C187.597 523.681 209.293 503.356 223.64 477.195C237.986 451.039 244.947 419.111 242.467 390.178C240.333 365.271 223.985 347.514 203.727 330.994C197.612 326.008 191.166 321.152 184.656 316.25C180.374 313.024 176.064 309.778 171.803 306.46C161.084 298.114 150.718 289.346 142.043 279.419C133.723 269.899 126.737 258.699 120.203 247.167C117.611 242.591 115.093 237.969 112.592 233.377C108.777 226.376 105.001 219.444 101.056 212.85C87.9957 191.023 73.2611 173.229 49.849 169.727C25.4628 166.079 5.84128 176.488 -11.1929 192.614C-25.0834 205.764 -37.2002 222.663 -48.7395 238.756C-51.3652 242.418 -53.9609 246.038 -56.5408 249.563Z" stroke="#00F0B5"/>
</g>
</g>
<defs>
<clipPath id="clip0">
<rect width="1920" height="475" fill="white"/>
</clipPath>
</defs>
</svg>
