<svg xmlns="http://www.w3.org/2000/svg" width="390" height="505" fill="none" xmlns:v="https://vecta.io/nano"><path d="M326.083 155.645a28.56 28.56 0 0 0 4.657 15.647c3.04 4.65 7.373 8.306 12.46 10.52a28.41 28.41 0 0 0 16.179 1.946 28.44 28.44 0 0 0 14.592-7.268c4.052-3.796 6.9-8.696 8.22-14.098s1.015-11.07-.848-16.306a28.51 28.51 0 0 0-9.636-13.166 28.42 28.42 0 0 0-15.266-5.71v28.434h-30.36z" fill="#e5e8ed"/><path d="M323 152.335h30.358V123.87l-1.895-.067a28.41 28.41 0 0 0-10.895 2.172 28.47 28.47 0 0 0-9.236 6.185c-2.643 2.65-4.74 5.795-6.17 9.257a28.57 28.57 0 0 0-2.163 10.918h0z" fill="#00f0b5"/></svg>