<svg xmlns="http://www.w3.org/2000/svg" width="390" height="505" fill="#d7dadd" xmlns:v="https://vecta.io/nano"><path d="M305.606 281.86c-1.7 0-3.395-.422-4.903-1.23s-2.796-1.976-3.746-3.4-1.536-3.062-1.704-4.768a10.43 10.43 0 0 1 .742-5.009 10.41 10.41 0 0 1 3.01-4.068c1.323-1.088 2.892-1.83 4.57-2.165s3.41-.25 5.048.25a10.4 10.4 0 0 1 4.334 2.604h0a10.43 10.43 0 0 1 2.845 5.335 10.44 10.44 0 0 1-.592 6.019c-.787 1.903-2.12 3.53-3.83 4.675s-3.72 1.757-5.775 1.758h0zm0-17.735a7.28 7.28 0 0 0-4.626 1.657c-1.304 1.072-2.197 2.564-2.526 4.222s-.075 3.378.72 4.87 2.082 2.66 3.64 3.305 3.293.732 4.907.24 3.008-1.53 3.944-2.934a7.31 7.31 0 0 0 1.191-4.776c-.166-1.682-.91-3.254-2.103-4.448h0a7.21 7.21 0 0 0-2.36-1.587 7.19 7.19 0 0 0-2.788-.549h0z"/><path d="M321.555 289.484c-.2.002-.418-.038-.61-.12s-.367-.202-.512-.355l-9.678-10.172c-.158-.143-.285-.316-.373-.5a1.56 1.56 0 0 1-.139-.616c-.003-.213.038-.424.12-.62s.204-.374.357-.52.335-.26.535-.335a1.54 1.54 0 0 1 .624-.093 1.56 1.56 0 0 1 1.101.56l9.69 10.173c.21.217.354.492.41.79s.022.606-.097.885a1.54 1.54 0 0 1-.571.683 1.53 1.53 0 0 1-.853.251h0z"/></svg>