<svg xmlns="http://www.w3.org/2000/svg" xmlns:xlink="http://www.w3.org/1999/xlink" width="1920" height="560" fill="none" xmlns:v="https://vecta.io/nano"><g opacity=".8" clip-path="url(#A)" fill="#ffcf2d"><use xlink:href="#C"/><use xlink:href="#D"/><use xlink:href="#E"/><use xlink:href="#F"/><path d="M18.19 130.085c1.167.897 1.368 2.448.468 3.62s-2.45 1.377-3.618.48-1.368-2.448-.468-3.62 2.45-1.377 3.618-.48z"/><use xlink:href="#G"/><use xlink:href="#H"/><path d="M1.658 61.806c1.167.897 1.368 2.448.468 3.62s-2.45 1.377-3.618.48-1.368-2.448-.468-3.62c.825-1.074 2.45-1.377 3.618-.48zm1.068 28.608c1.167.897 1.368 2.448.468 3.62s-2.45 1.377-3.618.48-1.368-2.448-.468-3.62 2.45-1.377 3.618-.48zm13.424-17.47c1.167.897 1.368 2.448.468 3.62s-2.45 1.377-3.618.48-1.368-2.448-.468-3.62c.825-1.074 2.45-1.377 3.618-.48zM5.812 176c1.167.897 1.368 2.448.468 3.62s-2.45 1.376-3.618.48-1.368-2.448-.468-3.62c.825-1.074 2.548-1.302 3.618-.48zm13.426-17.47c1.167.897 1.368 2.448.468 3.62s-2.45 1.377-3.618.48-1.368-2.45-.468-3.62a2.6 2.6 0 0 1 3.618-.48zm13.35-17.372c1.167.898 1.368 2.45.468 3.62s-2.45 1.377-3.618.48-1.368-2.45-.468-3.62a2.6 2.6 0 0 1 3.618-.48z"/><use xlink:href="#I"/><path d="M59.438 106.2c1.167.897 1.368 2.448.468 3.62s-2.45 1.377-3.618.48-1.368-2.448-.468-3.62c.825-1.074 2.548-1.302 3.618-.48zM7.35 208.218a2.58 2.58 0 0 0-.468-3.619 2.58 2.58 0 0 0-3.618.479c-.87 1.132-.66 2.753.468 3.62a2.58 2.58 0 0 0 3.618-.48zm12.956-21.088c1.167.897 1.368 2.448.468 3.62s-2.45 1.377-3.618.48-1.368-2.448-.468-3.62c.825-1.074 2.45-1.377 3.618-.48zm13.424-17.47c1.167.897 1.368 2.448.468 3.62s-2.45 1.376-3.618.48-1.368-2.448-.468-3.62 2.45-1.377 3.618-.48zm13.352-17.373c1.167.897 1.368 2.448.468 3.62s-2.45 1.377-3.618.48-1.368-2.448-.468-3.62 2.45-1.377 3.618-.48zm13.893-13.85c.87-1.132.66-2.753-.468-3.62a2.585 2.585 0 1 0-3.15 4.099 2.58 2.58 0 0 0 3.618-.479z"/><use xlink:href="#J"/><path d="M7.95 233.207c1.167.897 1.368 2.448.468 3.62s-2.45 1.377-3.618.48-1.368-2.448-.468-3.62 2.45-1.377 3.618-.48zm13.425-17.47c1.167.897 1.368 2.45.468 3.62s-2.45 1.376-3.618.48-1.368-2.448-.468-3.62 2.45-1.377 3.618-.48zm13.425-17.47c1.167.897 1.368 2.448.468 3.62s-2.45 1.377-3.618.48-1.368-2.448-.468-3.62c.825-1.073 2.45-1.376 3.618-.48zm13.425-17.47c1.167.897 1.368 2.448.468 3.62s-2.45 1.377-3.618.48-1.368-2.448-.468-3.62 2.45-1.377 3.618-.48zm13.35-17.372c1.167.897 1.368 2.448.468 3.62s-2.45 1.377-3.618.48-1.368-2.448-.468-3.62 2.45-1.377 3.618-.48zM75 145.955c1.167.897 1.368 2.448.468 3.62s-2.45 1.377-3.618.48-1.368-2.448-.468-3.62 2.45-1.377 3.618-.48zm13.426-17.47c1.167.897 1.368 2.45.468 3.62s-2.45 1.377-3.618.48-1.368-2.448-.468-3.62c.825-1.073 2.45-1.377 3.618-.48zM22.346 244.27c1.167.897 1.368 2.448.468 3.62s-2.45 1.377-3.618.48-1.368-2.45-.468-3.62a2.6 2.6 0 0 1 3.618-.48zM35.77 226.8c1.167.897 1.368 2.448.468 3.62s-2.45 1.377-3.618.48-1.368-2.448-.468-3.62 2.548-1.302 3.618-.48zm13.426-17.47c1.167.897 1.368 2.448.468 3.62s-2.45 1.377-3.618.48-1.368-2.448-.468-3.62c.825-1.074 2.548-1.302 3.618-.48zm13.426-17.47c1.167.897 1.368 2.45.468 3.62s-2.45 1.376-3.618.48-1.368-2.448-.468-3.62 2.548-1.302 3.618-.48zm13.35-17.372c1.167.897 1.368 2.448.468 3.62s-2.45 1.376-3.618.48-1.368-2.448-.468-3.62 2.548-1.302 3.618-.48zm13.425-17.468c1.167.897 1.368 2.448.468 3.62s-2.45 1.377-3.618.48-1.368-2.45-.468-3.62a2.6 2.6 0 0 1 3.618-.48zm13.425-17.47c1.167.897 1.368 2.448.468 3.62s-2.45 1.377-3.618.48-1.368-2.448-.468-3.62c.825-1.074 2.548-1.302 3.618-.48z"/></g><g style="mix-blend-mode:multiply" opacity=".12" clip-path="url(#B)" fill="#ffcf2d"><path d="M1941.6 257c-79.38 0-143.6 64.216-143.6 143.598 0 79.186 64.22 143.6 143.6 143.6 79.18 0 143.6-64.216 143.6-143.6C2085 321.216 2020.78 257 1941.6 257zm0 277.94c-74.26 0-134.34-60.08-134.34-134.34s60.08-134.34 134.34-134.34 134.34 60.08 134.34 134.34c0 74.065-60.28 134.34-134.34 134.34zm0-247.014c-62.05 0-112.48 50.427-112.48 112.475s50.43 112.476 112.48 112.476 112.48-50.23 112.48-112.28c0-62.245-50.43-112.672-112.48-112.672zm0 207.814c-52.6 0-95.34-42.745-95.34-95.34s42.75-95.338 95.34-95.338 95.34 42.745 95.34 95.338-42.75 95.34-95.34 95.34z"/></g><defs><clipPath id="A"><path fill="#fff" transform="matrix(.553083 -.833126 .747151 .664654 -110.787 166.302)" d="M0 0h199.612v140.868H0z"/></clipPath><clipPath id="B"><path fill="#fff" transform="translate(1798 227.772)" d="M0 0h122v332.227H0z"/></clipPath><path id="C" d="M3.697 118.947c1.167.897 1.368 2.448.468 3.62s-2.45 1.376-3.618.48-1.368-2.448-.468-3.62 2.548-1.302 3.618-.48z"/><path id="D" d="M17.123 101.478c1.167.897 1.368 2.448.468 3.62s-2.45 1.377-3.618.48-1.368-2.45-.468-3.62 2.548-1.302 3.618-.48z"/><path id="E" d="M30.548 84.008c1.167.897 1.368 2.448.468 3.62s-2.45 1.377-3.618.48-1.368-2.448-.468-3.62c.825-1.074 2.548-1.302 3.618-.48z"/><path id="F" d="M4.84 147.457c1.167.897 1.368 2.448.468 3.62s-2.45 1.377-3.618.48-1.368-2.448-.468-3.62 2.45-1.377 3.618-.48z"/><path id="G" d="M31.616 112.615c1.167.897 1.368 2.448.468 3.62s-2.45 1.376-3.618.48-1.368-2.448-.468-3.62 2.45-1.377 3.618-.48z"/><path id="H" d="M45.04 95.146c1.167.897 1.368 2.448.468 3.62s-2.45 1.377-3.618.48-1.368-2.448-.468-3.62c.825-1.074 2.45-1.377 3.618-.48z"/><path id="I" d="M46.013 123.68c1.167.897 1.368 2.448.468 3.62s-2.45 1.377-3.618.48-1.368-2.448-.468-3.62 2.548-1.302 3.618-.48z"/><path id="J" d="M73.932 117.348c1.167.897 1.368 2.448.468 3.62s-2.45 1.377-3.618.48-1.368-2.448-.468-3.62c.825-1.073 2.45-1.376 3.618-.48z"/></defs></svg>