<svg xmlns="http://www.w3.org/2000/svg" xmlns:xlink="http://www.w3.org/1999/xlink" width="1920" height="1665" fill="none" xmlns:v="https://vecta.io/nano"><g opacity=".4" clip-path="url(#A)" fill="#fff"><path d="M1917.1 1407c-71.36 0-129.1 57.73-129.1 129.1 0 71.18 57.73 129.1 129.1 129.1 71.18 0 129.1-57.73 129.1-129.1-.18-71.36-57.9-129.1-129.1-129.1zm0 249.85c-66.76 0-120.77-54-120.77-120.76s54-120.77 120.77-120.77 120.76 54 120.76 120.77c0 66.58-54.18 120.76-120.76 120.76zm0-222.05c-55.78 0-101.1 45.33-101.1 101.1s45.33 101.1 101.1 101.1 101.1-45.15 101.1-100.93c0-55.96-45.33-101.3-101.1-101.3zm0 186.82c-47.28 0-85.7-38.43-85.7-85.7s38.43-85.7 85.7-85.7 85.7 38.42 85.7 85.7-38.42 85.7-85.7 85.7z"/></g><path opacity=".6" d="M245 116.978c-9.362 9.363-24.616 9.363-33.978 0s-9.363-24.616 0-33.978L245 116.978z" fill="#fff"/><g opacity=".6" fill="#fff"><use xlink:href="#C"/><use xlink:href="#C" x="-30"/><use xlink:href="#C" x="-60"/></g><g opacity=".6" clip-path="url(#B)" fill="#fff"><path d="M147.55 849C107.443 849 75 881.443 75 921.55c0 40.007 32.443 72.55 72.55 72.55 40.007 0 72.55-32.444 72.55-72.55-.1-40.107-32.543-72.55-72.55-72.55zm0 140.422c-37.52 0-67.873-30.353-67.873-67.872s30.354-67.873 67.873-67.873 67.872 30.354 67.872 67.873c0 37.42-30.453 67.872-67.872 67.872zm0-124.797c-31.35 0-56.826 25.477-56.826 56.826s25.477 56.825 56.826 56.825 56.825-25.377 56.825-56.726c0-31.448-25.477-56.925-56.825-56.925zm0 104.993c-26.572 0-48.168-21.596-48.168-48.167s21.596-48.168 48.168-48.168 48.167 21.596 48.167 48.168-21.595 48.167-48.167 48.167zm0-80.014c-17.615 0-31.946 14.33-31.946 31.945s14.232 31.946 31.946 31.946c17.615 0 31.946-14.33 31.946-31.946-.1-17.615-14.33-31.945-31.946-31.945zm0 49.063a17.12 17.12 0 0 1-17.117-17.118 17.12 17.12 0 0 1 17.117-17.117 17.12 17.12 0 0 1 17.118 17.117 17.12 17.12 0 0 1-17.118 17.118z"/></g><g fill="#fff"><use xlink:href="#D"/><use xlink:href="#E"/><use xlink:href="#F"/><use xlink:href="#D" x="52.07"/><use xlink:href="#E" x="52.07"/><use xlink:href="#D" x="86.85"/><use xlink:href="#F" x="69.46"/><use xlink:href="#D" x="121.53"/><use xlink:href="#E" x="121.53"/><use xlink:href="#G"/><use xlink:href="#H"/><use xlink:href="#I"/><use xlink:href="#G" x="52.07"/><use xlink:href="#H" x="52.07"/><use xlink:href="#G" x="86.85"/><use xlink:href="#I" x="69.46"/><use xlink:href="#G" x="121.53"/><use xlink:href="#H" x="121.53"/><use xlink:href="#G" y="-43.28"/><use xlink:href="#H" y="-43.28"/><path d="M381.762 1369.04c0 1.16-.875 2.04-2.04 2.04s-2.04-.88-2.04-2.04a2.05 2.05 0 0 1 2.04-2.04c1.165 0 2.04.87 2.04 2.04zm17.388 0c0 1.16-.874 2.04-2.04 2.04s-2.04-.88-2.04-2.04a2.05 2.05 0 0 1 2.04-2.04c1.068 0 2.04.87 2.04 2.04z"/><use xlink:href="#H" x="52.07" y="-43.28"/><use xlink:href="#G" x="86.85" y="-43.28"/><use xlink:href="#I" x="69.46" y="-43.28"/><use xlink:href="#G" x="121.53" y="-43.28"/><use xlink:href="#H" x="121.53" y="-43.28"/><path d="M347.08 1383.5c0 1.16-.874 2.03-2.04 2.03a2.05 2.05 0 0 1-2.04-2.03c0-1.17.874-2.04 2.04-2.04s2.04.87 2.04 2.04z"/><use xlink:href="#J"/><use xlink:href="#K"/><use xlink:href="#L"/><use xlink:href="#J" x="52.07"/><use xlink:href="#L" x="34.78"/><use xlink:href="#K" x="69.46"/><use xlink:href="#L" x="69.46"/><use xlink:href="#J" x="121.53"/><use xlink:href="#D" y="28.82"/><use xlink:href="#E" y="28.82"/><use xlink:href="#F" y="28.82"/><use xlink:href="#D" x="52.07" y="28.82"/><use xlink:href="#E" x="52.07" y="28.82"/><use xlink:href="#D" x="86.85" y="28.82"/><use xlink:href="#F" x="69.46" y="28.82"/><use xlink:href="#D" x="121.53" y="28.82"/><use xlink:href="#E" x="121.53" y="28.82"/><use xlink:href="#G" y="28.82"/><use xlink:href="#H" y="28.82"/><use xlink:href="#I" y="28.82"/><use xlink:href="#M"/><use xlink:href="#H" x="52.07" y="28.82"/><use xlink:href="#G" x="86.85" y="28.82"/><use xlink:href="#I" x="69.46" y="28.82"/><use xlink:href="#M" x="69.46"/><use xlink:href="#H" x="121.53" y="28.82"/><use xlink:href="#N"/><use xlink:href="#O"/><use xlink:href="#P"/><use xlink:href="#N" x="52.07"/><use xlink:href="#O" x="52.07"/><use xlink:href="#N" x="86.85"/><use xlink:href="#P" x="69.46"/><use xlink:href="#N" x="121.53"/><use xlink:href="#O" x="121.53"/><use xlink:href="#Q"/><use xlink:href="#R"/><use xlink:href="#S"/><use xlink:href="#Q" x="52.07"/><use xlink:href="#R" x="52.07"/><use xlink:href="#Q" x="86.85"/><use xlink:href="#S" x="69.46"/><use xlink:href="#Q" x="121.53"/><use xlink:href="#R" x="121.53"/><path d="M1256.08 65.86c0 1.164-.87 2.038-2.04 2.038s-2.04-.873-2.04-2.038.87-2.038 2.04-2.038a2.05 2.05 0 0 1 2.04 2.038z"/><use xlink:href="#T"/><use xlink:href="#U"/><use xlink:href="#U" x="17.39"/><use xlink:href="#T" x="52.07"/><use xlink:href="#V"/><use xlink:href="#U" x="69.46"/><use xlink:href="#U" x="86.84"/><use xlink:href="#T" x="121.53"/><path d="M1256.08 80.32c0 1.165-.87 2.038-2.04 2.038s-2.04-.873-2.04-2.038.87-2.038 2.04-2.038 2.04.873 2.04 2.038z"/><use xlink:href="#W"/><use xlink:href="#X"/><use xlink:href="#X" x="17.39"/><use xlink:href="#W" x="52.07"/><use xlink:href="#Y"/><use xlink:href="#X" x="69.46"/><use xlink:href="#X" x="86.84"/><use xlink:href="#W" x="121.53"/><path d="M1256.08 37.038c0 1.164-.87 2.038-2.04 2.038s-2.04-.873-2.04-2.038.87-2.038 2.04-2.038 2.04.873 2.04 2.038z"/><use xlink:href="#Z"/><path d="M1290.76 37.038c0 1.164-.87 2.038-2.04 2.038a1.99 1.99 0 0 1-2.04-2.038c0-1.165.97-2.038 2.04-2.038 1.17 0 2.04.873 2.04 2.038zm17.4 0c0 1.164-.87 2.038-2.04 2.038a1.99 1.99 0 0 1-2.04-2.038c0-1.165.97-2.038 2.04-2.038s2.04.873 2.04 2.038z"/><use xlink:href="#Z" x="52.07"/><use xlink:href="#Y" y="-43.282"/><use xlink:href="#a"/><use xlink:href="#a" x="17.38"/><use xlink:href="#Z" x="121.53"/><path d="M1256.08 51.497c0 1.165-.87 2.038-2.04 2.038a2.05 2.05 0 0 1-2.04-2.038c0-1.164.87-2.038 2.04-2.038s2.04.873 2.04 2.038z"/><use xlink:href="#W" y="-28.823"/><use xlink:href="#X" y="-28.823"/><use xlink:href="#X" x="17.39" y="-28.823"/><use xlink:href="#W" x="52.07" y="-28.823"/><use xlink:href="#Y" y="-28.823"/><use xlink:href="#X" x="69.46" y="-28.823"/><use xlink:href="#X" x="86.84" y="-28.823"/><use xlink:href="#W" x="121.53" y="-28.823"/><path d="M1256.08 94.68c0 1.165-.87 2.038-2.04 2.038s-2.04-.873-2.04-2.038.87-2.038 2.04-2.038a2.05 2.05 0 0 1 2.04 2.038z"/><use xlink:href="#b"/><use xlink:href="#c"/><use xlink:href="#c" x="17.39"/><use xlink:href="#b" x="52.07"/><use xlink:href="#V" y="28.82"/><use xlink:href="#c" x="69.46"/><use xlink:href="#c" x="86.84"/><use xlink:href="#b" x="121.53"/><path d="M1256.08 109.14c0 1.165-.87 2.038-2.04 2.038s-2.04-.873-2.04-2.038.87-2.037 2.04-2.037 2.04.873 2.04 2.037z"/><use xlink:href="#d"/><use xlink:href="#e"/><use xlink:href="#f"/><use xlink:href="#d" x="52.07"/><path d="M1342.93 109.14a1.99 1.99 0 0 1-2.04 2.038c-1.17 0-2.04-.873-2.04-2.038s.87-2.037 2.04-2.037a1.99 1.99 0 0 1 2.04 2.037z"/><use xlink:href="#e" x="69.46"/><use xlink:href="#f" x="69.47"/><use xlink:href="#d" x="121.53"/><path d="M1256.08 123.6c0 1.165-.87 2.038-2.04 2.038s-2.04-.873-2.04-2.038.87-2.038 2.04-2.038 2.04.874 2.04 2.038z"/><use xlink:href="#g"/><use xlink:href="#h"/><use xlink:href="#h" x="17.39"/><use xlink:href="#g" x="52.07"/><use xlink:href="#Y" y="43.28"/><use xlink:href="#h" x="69.46"/><use xlink:href="#h" x="86.84"/><use xlink:href="#g" x="121.53"/><path d="M1256.08 137.962c0 1.164-.87 2.038-2.04 2.038s-2.04-.874-2.04-2.038.87-2.038 2.04-2.038 2.04.97 2.04 2.038z"/><use xlink:href="#i"/><use xlink:href="#j"/><use xlink:href="#j" x="17.39"/><use xlink:href="#i" x="52.07"/><path d="M1342.93 137.962a1.99 1.99 0 0 1-2.04 2.038c-1.17 0-2.04-.874-2.04-2.038s.87-2.038 2.04-2.038c1.16 0 2.04.97 2.04 2.038z"/><use xlink:href="#j" x="69.46"/><use xlink:href="#j" x="86.84"/><use xlink:href="#i" x="121.53"/></g><path d="M1906.3 547.92V536h31.7v31.7h-11.83v-19.78h-19.87zm-21.4 21.406v-11.83h31.7v31.6h-11.92v-19.778h-19.78zm-21.4 21.492v-11.92h31.6v31.7h-11.83V590.82h-19.78zm-21.5 21.404V600.3h31.7V632h-11.92v-19.778H1842z" opacity=".6" fill="#fff"/><defs><clipPath id="A"><path fill="#fff" transform="translate(1788 1407)" d="M0 0h132v258H0z"/></clipPath><clipPath id="B"><path fill="#fff" transform="translate(75 849)" d="M0 0h145v145H0z"/></clipPath><path id="C" d="M1248.73 990.9c10.6 0 19.23-8.725 19.23-19.437s-8.63-19.436-19.23-19.436V990.9z"/><path id="D" d="M347.08 1397.86c0 1.16-.874 2.04-2.04 2.04s-2.04-.88-2.04-2.04.874-2.04 2.04-2.04 2.04.97 2.04 2.04z"/><path id="E" d="M364.47 1397.86c0 1.16-.874 2.04-2.04 2.04s-2.04-.88-2.04-2.04.874-2.04 2.04-2.04c1.07 0 2.04.97 2.04 2.04z"/><path id="F" d="M381.762 1397.86c0 1.16-.875 2.04-2.04 2.04s-2.04-.88-2.04-2.04.874-2.04 2.04-2.04 2.04.97 2.04 2.04z"/><path id="G" d="M347.08 1412.32c0 1.16-.874 2.04-2.04 2.04s-2.04-.88-2.04-2.04c0-1.17.874-2.04 2.04-2.04s2.04.87 2.04 2.04z"/><path id="H" d="M364.47 1412.32c0 1.16-.874 2.04-2.04 2.04s-2.04-.88-2.04-2.04c0-1.17.874-2.04 2.04-2.04a2.05 2.05 0 0 1 2.04 2.04z"/><path id="I" d="M381.762 1412.32c0 1.16-.875 2.04-2.04 2.04s-2.04-.88-2.04-2.04c0-1.17.874-2.04 2.04-2.04s2.04.87 2.04 2.04z"/><path id="J" d="M364.47 1383.5c0 1.16-.874 2.03-2.04 2.03s-2.04-.87-2.04-2.03c0-1.17.874-2.04 2.04-2.04a2.05 2.05 0 0 1 2.04 2.04z"/><path id="K" d="M381.762 1383.5c0 1.16-.875 2.03-2.04 2.03s-2.04-.87-2.04-2.03c0-1.17.874-2.04 2.04-2.04s2.04.87 2.04 2.04z"/><path id="L" d="M399.15 1383.5c0 1.16-.874 2.03-2.04 2.03s-2.04-.87-2.04-2.03c0-1.17.874-2.04 2.04-2.04s2.04.87 2.04 2.04z"/><path id="M" d="M397.11 1443.18c1.127 0 2.04-.92 2.04-2.04a2.04 2.04 0 0 0-4.08 0c0 1.12.913 2.04 2.04 2.04z"/><path id="N" d="M347.08 1455.6c0 1.16-.874 2.04-2.04 2.04s-2.04-.88-2.04-2.04.874-2.04 2.04-2.04 2.04.88 2.04 2.04z"/><path id="O" d="M364.47 1455.6c0 1.16-.874 2.04-2.04 2.04s-2.04-.88-2.04-2.04.874-2.04 2.04-2.04c1.07 0 2.04.88 2.04 2.04z"/><path id="P" d="M381.762 1455.6c0 1.16-.875 2.04-2.04 2.04s-2.04-.88-2.04-2.04.874-2.04 2.04-2.04 2.04.88 2.04 2.04z"/><path id="Q" d="M347.08 1469.96c0 1.17-.874 2.04-2.04 2.04s-2.04-.87-2.04-2.04c0-1.16.874-2.04 2.04-2.04s2.04.97 2.04 2.04z"/><path id="R" d="M364.47 1469.96c0 1.17-.874 2.04-2.04 2.04s-2.04-.87-2.04-2.04c0-1.16.874-2.04 2.04-2.04 1.07 0 2.04.97 2.04 2.04z"/><path id="S" d="M381.762 1469.96c0 1.17-.875 2.04-2.04 2.04s-2.04-.87-2.04-2.04c0-1.16.874-2.04 2.04-2.04s2.04.97 2.04 2.04z"/><path id="T" d="M1273.47 65.86c0 1.164-.87 2.038-2.04 2.038s-2.04-.873-2.04-2.038.87-2.038 2.04-2.038c1.07 0 2.04.97 2.04 2.038z"/><path id="U" d="M1290.76 65.86c0 1.164-.87 2.038-2.04 2.038a1.99 1.99 0 0 1-2.04-2.038 1.99 1.99 0 0 1 2.04-2.038 2.05 2.05 0 0 1 2.04 2.038z"/><path id="V" d="M1342.93 65.86a1.99 1.99 0 0 1-2.04 2.038c-1.17 0-2.04-.873-2.04-2.038s.87-2.038 2.04-2.038c1.16 0 2.04.97 2.04 2.038z"/><path id="W" d="M1273.47 80.32c0 1.165-.87 2.038-2.04 2.038s-2.04-.873-2.04-2.038.87-2.038 2.04-2.038c1.07 0 2.04.873 2.04 2.038z"/><path id="X" d="M1290.76 80.32c0 1.165-.87 2.038-2.04 2.038a1.99 1.99 0 0 1-2.04-2.038 1.99 1.99 0 0 1 2.04-2.038c1.17 0 2.04.873 2.04 2.038z"/><path id="Y" d="M1342.93 80.32a1.99 1.99 0 0 1-2.04 2.038c-1.17 0-2.04-.873-2.04-2.038s.87-2.038 2.04-2.038a1.99 1.99 0 0 1 2.04 2.038z"/><path id="Z" d="M1273.47 37.038c0 1.164-.87 2.038-2.04 2.038s-2.04-.873-2.04-2.038.87-2.038 2.04-2.038c1.07 0 2.04.873 2.04 2.038z"/><path id="a" d="M1360.22 37.038c0 1.164-.87 2.038-2.04 2.038a1.99 1.99 0 0 1-2.04-2.038 1.99 1.99 0 0 1 2.04-2.038c1.17 0 2.04.873 2.04 2.038z"/><path id="b" d="M1273.47 94.68c0 1.165-.87 2.038-2.04 2.038s-2.04-.873-2.04-2.038.87-2.038 2.04-2.038c1.07 0 2.04.97 2.04 2.038z"/><path id="c" d="M1290.76 94.68c0 1.165-.87 2.038-2.04 2.038a1.99 1.99 0 1 1 0-4.076 2.05 2.05 0 0 1 2.04 2.038z"/><path id="d" d="M1273.47 109.14c0 1.165-.87 2.038-2.04 2.038s-2.04-.873-2.04-2.038.87-2.037 2.04-2.037c1.07 0 2.04.873 2.04 2.037z"/><path id="e" d="M1290.76 109.14c0 1.165-.87 2.038-2.04 2.038a1.99 1.99 0 1 1 0-4.075c1.17 0 2.04.873 2.04 2.037z"/><path id="f" d="M1306.1 111.177c1.13 0 2.04-.912 2.04-2.038s-.9-2.037-2.04-2.037-2.04.912-2.04 2.037.9 2.038 2.04 2.038z"/><path id="g" d="M1273.47 123.6c0 1.165-.87 2.038-2.04 2.038s-2.04-.873-2.04-2.038.87-2.038 2.04-2.038c1.07 0 2.04.874 2.04 2.038z"/><path id="h" d="M1290.76 123.6c0 1.165-.87 2.038-2.04 2.038a1.99 1.99 0 1 1 0-4.076c1.17 0 2.04.874 2.04 2.038z"/><path id="i" d="M1273.47 137.962c0 1.164-.87 2.038-2.04 2.038s-2.04-.874-2.04-2.038.87-2.038 2.04-2.038c1.07 0 2.04.97 2.04 2.038z"/><path id="j" d="M1290.76 137.962c0 1.164-.87 2.038-2.04 2.038a1.99 1.99 0 1 1 0-4.076c1.17 0 2.04.97 2.04 2.038z"/></defs></svg>