<svg width="80" height="44" viewBox="0 0 80 44" fill="none" xmlns="http://www.w3.org/2000/svg">
<g clip-path="url(#clip0)">
<path d="M31.3239 14.0827V17.1028C31.3242 17.1341 31.3184 17.1652 31.3066 17.1942C31.2948 17.2232 31.2773 17.2495 31.2551 17.2716C31.233 17.2937 31.2067 17.3112 31.1777 17.323C31.1487 17.3348 31.1177 17.3407 31.0864 17.3403C30.8741 17.3403 30.3736 17.1296 29.3544 17.1296C27.4625 17.1296 25.8854 18.4714 25.8854 20.723V29.0286C25.8854 29.1614 25.78 29.2686 25.6501 29.2686H22.5199C22.4887 29.2683 22.4579 29.2618 22.4292 29.2496C22.4005 29.2373 22.3746 29.2196 22.3528 29.1973C22.331 29.175 22.3138 29.1486 22.3022 29.1197C22.2906 29.0907 22.2848 29.0598 22.2852 29.0286V14.3199C22.2847 14.2571 22.3091 14.1967 22.3531 14.1519C22.3971 14.1072 22.4571 14.0817 22.5199 14.0811H25.5344C25.5956 14.0817 25.6543 14.106 25.6979 14.1489C25.7416 14.1918 25.767 14.2499 25.7688 14.3111L25.8336 15.9462H25.8767C26.0995 15.5501 27.2004 13.685 30.0366 13.685C30.5846 13.685 31.0792 13.8296 31.1487 13.8514C31.2506 13.8854 31.3239 13.9736 31.3239 14.0827ZM57.3491 14.3925V29.1841C57.349 29.216 57.3425 29.2475 57.3302 29.2768C57.3178 29.3062 57.2998 29.3328 57.2771 29.3551C57.2544 29.3775 57.2275 29.3951 57.198 29.407C57.1685 29.4189 57.1369 29.4248 57.105 29.4245H53.8524C53.7882 29.4248 53.7266 29.3997 53.681 29.3546C53.6353 29.3096 53.6094 29.2483 53.6089 29.1841V14.3925C53.6089 14.2597 53.7193 14.1522 53.8524 14.1522H57.105C57.2406 14.1522 57.3491 14.2597 57.3491 14.3925ZM57.8166 9.00947C57.8166 10.3419 56.8121 11.3471 55.4787 11.3471C54.1466 11.3471 53.1414 10.3419 53.1414 9.00947C53.1414 7.67642 54.1466 6.67188 55.4787 6.67188C56.8121 6.67188 57.8166 7.67673 57.8166 9.00947ZM71.998 25.214C71.998 27.8707 69.623 29.892 66.0434 29.892C62.848 29.892 60.5591 28.3828 60.2474 28.1572C60.2175 28.1352 60.1933 28.1064 60.1771 28.073C60.1609 28.0397 60.153 28.0029 60.1542 27.9658C60.1542 27.9025 60.1938 27.8202 60.215 27.7738L61.1176 25.5986C61.1509 25.5179 61.2189 25.4493 61.3464 25.4493C61.7487 25.4493 63.5848 26.8914 66.1546 26.8914C67.7065 26.8914 68.5649 26.2082 68.5649 25.2638C68.5649 24.6573 68.2775 23.9585 66.8659 23.4838L65.1545 22.9104C62.5086 22.023 61.0269 20.679 61.0269 18.175C61.0269 15.531 63.4437 13.685 66.9033 13.685C68.961 13.685 70.5696 14.4059 71.3447 14.8366C71.4233 14.8793 71.4681 14.9479 71.4681 15.032C71.4681 15.0816 71.4482 15.1408 71.4298 15.1854L70.5063 17.413C70.4862 17.4586 70.453 17.4972 70.4109 17.5239C70.3687 17.5505 70.3196 17.564 70.2697 17.5626C69.9219 17.5626 68.7671 16.6699 66.7104 16.6699C65.473 16.6699 64.5031 17.2101 64.5031 18.329C64.5031 19.2603 65.2265 19.6645 66.696 20.1579C66.696 20.1579 67.804 20.5291 68.4782 20.7567C70.9935 21.6007 71.998 23.1507 71.998 25.214ZM42.4574 13.7953C39.3605 13.7953 37.6064 15.3827 37.4303 15.5261H37.392V7.53429C37.3917 7.47075 37.3663 7.4099 37.3212 7.36508C37.2762 7.32027 37.2152 7.29515 37.1516 7.29523H34.0567C34.0252 7.29511 33.9941 7.30121 33.965 7.31317C33.9359 7.32514 33.9095 7.34274 33.8872 7.36496C33.865 7.38718 33.8474 7.41358 33.8354 7.44264C33.8234 7.4717 33.8172 7.50285 33.8173 7.53429V21.826C33.8173 26.6733 37.3081 30.0478 42.0759 30.0478C46.7844 30.0478 50.3363 26.5536 50.3363 21.9186C50.3363 17.0374 46.6167 13.7953 42.4574 13.7953ZM42.3034 16.8616C45.1266 16.8616 46.8804 19.082 46.8804 21.8142C46.8804 24.5461 45.1266 26.7605 42.3034 26.7605C39.4793 26.7605 37.7342 24.5461 37.7342 21.8142C37.7339 19.082 39.4793 16.8616 42.3034 16.8616Z" fill="#263746"/>
<path d="M21.1226 10.9791C21.1452 11.0004 21.1632 11.026 21.1755 11.0545C21.1878 11.0829 21.1943 11.1136 21.1944 11.1446C21.1945 11.1756 21.1883 11.2064 21.1762 11.2349C21.1641 11.2635 21.1462 11.2892 21.1238 11.3107L19.0724 13.3048C19.0498 13.3275 19.0228 13.3452 18.993 13.357C18.9632 13.3687 18.9314 13.3742 18.8994 13.3731C18.8416 13.3742 18.7856 13.3531 18.7429 13.3142C16.525 11.3771 13.6314 10.3093 10.5966 10.3093C7.56331 10.3093 4.66906 11.3771 2.45084 13.3142C2.40837 13.3531 2.35258 13.3742 2.295 13.3731C2.22456 13.3731 2.17033 13.3513 2.12233 13.3048L0.0702318 11.3107C0.0479184 11.2892 0.0301905 11.2634 0.0181196 11.2349C0.00604857 11.2064 -0.000114908 11.1757 1.62202e-06 11.1448C0.000118152 11.1138 0.00651226 11.0832 0.0187975 11.0548C0.0310828 11.0263 0.0490041 11.0007 0.0714785 10.9794C2.90433 8.30143 6.6423 6.82812 10.5966 6.82812C14.5505 6.82812 18.2894 8.30143 21.1226 10.9791ZM21.1226 32.5978C21.145 32.5766 21.1629 32.551 21.1752 32.5227C21.1875 32.4944 21.1939 32.4639 21.194 32.433C21.1941 32.4021 21.1879 32.3716 21.1759 32.3431C21.1638 32.3147 21.1461 32.2891 21.1238 32.2677L19.0724 30.2717C19.0496 30.2494 19.0225 30.232 18.9928 30.2204C18.963 30.2088 18.9313 30.2034 18.8994 30.2044C18.8371 30.2044 18.7875 30.2246 18.7429 30.2636C16.525 32.2007 13.6314 33.2682 10.5966 33.2682C7.56331 33.2682 4.66906 32.2007 2.45084 30.2636C2.40842 30.2246 2.35262 30.2034 2.295 30.2044C2.26317 30.2034 2.23147 30.2089 2.20181 30.2204C2.17214 30.232 2.14511 30.2494 2.12233 30.2717L0.0702318 32.2674C0.0478687 32.2885 0.0301007 32.314 0.0180354 32.3424C0.00597007 32.3707 -0.000133884 32.4012 0.000104003 32.4319C0.000104003 32.494 0.026285 32.5547 0.0714785 32.5974C2.90402 35.2748 6.6423 36.7487 10.5966 36.7487C14.5505 36.7493 18.2894 35.2754 21.1226 32.5978Z" fill="#16A0DB"/>
<path d="M10.5939 13.6836C5.746 13.6836 2.18164 17.1018 2.18164 21.6339C2.18164 26.1645 5.746 29.5792 10.5939 29.5792C15.4405 29.5792 19.0123 26.1645 19.0123 21.6339C19.0123 17.1018 15.4405 13.6836 10.5939 13.6836ZM10.4474 26.6036C7.56964 26.6036 5.79182 24.3892 5.79182 21.6573C5.79182 18.9251 7.56933 16.7044 10.4474 16.7044C13.3235 16.7044 15.1095 18.9251 15.1095 21.6573C15.1098 24.3892 13.3235 26.6036 10.4474 26.6036Z" fill="#263746"/>
</g>
<defs>
<clipPath id="clip0">
<rect width="80" height="44" fill="white"/>
</clipPath>
</defs>
</svg>
