<svg xmlns="http://www.w3.org/2000/svg" width="1920" height="750" fill="none" xmlns:v="https://vecta.io/nano"><g clip-path="url(#B)"><path d="M312.947 201.74c36.624 70.927 122.65 131.655 84.018 216.893-38.55 85.05-162.5 85.733-245.055 138.403-89.947 57.386-163 202.255-251.758 178.562-90.525-24.165-21.14-174.453-50.504-259.25-23.384-67.523-144.65-104.33-100.33-176.303 47.047-76.404 143.986-79.93 221.388-129.668 86.18-55.38 124.05-142.187 218.925-153.28 88.153-10.306 87.806 115.87 123.317 184.642z" fill="url(#A)"/></g><defs><linearGradient id="A" x1="556.865" y1="274.679" x2="-132.675" y2="335.078" gradientUnits="userSpaceOnUse"><stop stop-color="#f4f5f7" stop-opacity="0"/><stop offset="1" stop-color="#f4f5f7"/></linearGradient><clipPath id="B"><path fill="#fff" d="M0 0h1920v750H0z"/></clipPath></defs></svg>