<svg xmlns="http://www.w3.org/2000/svg" xmlns:xlink="http://www.w3.org/1999/xlink" width="495" height="426" fill="none" xmlns:v="https://vecta.io/nano"><style><![CDATA[.B{fill:#fff}.C{fill:#ffcf2d}.D{fill:#fe5244}.E{fill:#3fb1b5}.F{fill:#66b0f0}.G{fill:#d0f0e4}.H{fill:#a0505a}.I{fill:#73325a}.J{fill-rule:evenodd}]]></style><path d="M277.665 407.704a.51.51 0 0 1-.518-.519 11.96 11.96 0 0 1 11.936-11.949h5.423c10.623 0 19.277-8.664 19.277-19.3V292.5c0-10.635-8.654-19.298-19.277-19.298h-13.8a.51.51 0 0 1 0-1.038h13.8c11.193 0 20.314 9.13 20.314 20.336v83.438c0 11.206-9.12 20.336-20.314 20.336h-5.423a10.92 10.92 0 0 0-10.9 10.912.51.51 0 0 1-.518.519z" class="F"/><path d="M278.184 423.56c5.437 0 9.845-4.413 9.845-9.856s-4.408-9.857-9.845-9.857-9.846 4.413-9.846 9.857 4.408 9.856 9.846 9.856z" class="B"/><path d="M278.183 424.08a10.38 10.38 0 0 1-10.364-10.375c0-5.724 4.647-10.376 10.364-10.376a10.38 10.38 0 0 1 10.364 10.376 10.38 10.38 0 0 1-10.364 10.375zm0-19.713a9.34 9.34 0 0 0-9.327 9.338 9.34 9.34 0 0 0 9.327 9.338 9.34 9.34 0 0 0 9.328-9.338 9.34 9.34 0 0 0-9.328-9.338z" class="F"/><path d="M276.25 272.682h84.448c3.8 0 6.875-3.078 6.875-6.882v-5.793c0-3.805-3.075-6.883-6.875-6.883H276.25c-4.37 0-7.91 3.545-7.91 7.92v3.7a7.92 7.92 0 0 0 7.911 7.937z" class="G"/><g class="F"><path d="M360.697 273.2H276.25c-4.647 0-8.43-3.787-8.43-8.456v-3.7a8.45 8.45 0 0 1 8.43-8.439h84.448a7.41 7.41 0 0 1 7.393 7.402v5.793a7.41 7.41 0 0 1-7.393 7.401zm-84.448-19.558c-4.077 0-7.393 3.32-7.393 7.4v3.7c0 4.098 3.316 7.42 7.393 7.42h84.448c3.506 0 6.356-2.854 6.356-6.364v-5.793c0-3.51-2.85-6.364-6.356-6.364H276.25z"/><path d="M358.297 407.704a.51.51 0 0 1-.519-.519 10.92 10.92 0 0 0-10.899-10.912h-5.424c-11.193 0-20.313-9.13-20.313-20.336V292.5c0-11.205 9.12-20.336 20.313-20.336h13.8a.51.51 0 1 1 0 1.038h-13.8c-10.623 0-19.277 8.663-19.277 19.298v83.438c0 10.635 8.654 19.3 19.277 19.3h5.424a11.96 11.96 0 0 1 11.936 11.949.51.51 0 0 1-.518.519z"/></g><path d="M357.796 423.56c5.438 0 9.846-4.413 9.846-9.856s-4.408-9.857-9.846-9.857-9.846 4.413-9.846 9.857 4.408 9.856 9.846 9.856z" class="B"/><path d="M357.796 424.08a10.38 10.38 0 0 1-10.364-10.375 10.38 10.38 0 0 1 10.364-10.376 10.38 10.38 0 0 1 10.363 10.376 10.38 10.38 0 0 1-10.363 10.375zm0-19.713a9.34 9.34 0 0 0-9.328 9.338 9.34 9.34 0 0 0 9.328 9.338 9.34 9.34 0 0 0 9.327-9.338 9.34 9.34 0 0 0-9.327-9.338z" class="F"/><path d="M201.56 386.28l6.22 12.745c2.1 4.29 3.178 8.975 3.178 13.713v9.667c0 1.677-1.4 3.043-3.126 3.043h-71.027c-1.883 0-3.403-1.487-3.403-3.32v-2.992c0-1.2.674-2.317 1.762-2.905 7.375-3.96 31.195-16.34 35.807-29.57l30.6-.38z" class="B"/><path d="M207.83 425.966h-71.027c-2.16 0-3.92-1.73-3.92-3.84v-2.992c0-1.4.778-2.68 2.04-3.355l.777-.415c4.076-2.18 11.676-6.26 18.845-11.378 8.705-6.243 14.077-12.123 15.943-17.483l.12-.346 31.28-.38 6.357 13.04c2.107 4.34 3.23 9.165 3.23 13.938v9.667c0 1.954-1.64 3.545-3.645 3.545zm-36.498-38.788c-4.802 12.85-26.808 24.642-35.15 29.086l-.778.416c-.915.5-1.485 1.435-1.485 2.455v2.992c0 1.54 1.295 2.8 2.884 2.8h71.027c1.434 0 2.608-1.124 2.608-2.525v-9.666c0-4.635-1.088-9.286-3.126-13.49l-6.08-12.45-29.9.38z" class="C"/><path d="M210.524 407.584h-5.562c-5.147 0-9.932 2.61-12.626 6.883l-2.367 3.77c-1.416 2.248-3.92 3.615-6.615 3.615h-49.92" class="B"/><path d="M183.354 422.37h-49.92v-1.038h49.92c2.504 0 4.87-1.297 6.184-3.372l2.366-3.77c2.78-4.392 7.773-7.125 13.058-7.125h5.562v1.038h-5.562c-4.94 0-9.603 2.542-12.194 6.64l-2.367 3.77c-1.52 2.42-4.145 3.857-7.047 3.857zm22.868-26.528c-5.337.173-12.42-.38-20.97-1.937a91.15 91.15 0 0 1-15.598-4.323 19.49 19.49 0 0 0 1.313-2.905l30.6-.398 4.663 9.563z" class="C"/><g class="D"><path d="M156.165 403.9h-.052c-.2-.017-.363-.156-.432-.346l-3.49-9.978c-.604-1.746-.31-3.683.777-5.17s2.85-2.352 4.68-2.3a5.49 5.49 0 0 1 4.785 2.974c.967 1.8.88 3.908-.207 5.638l-5.63 8.94c-.087.156-.26.242-.432.242zm1.313-16.757c-1.47 0-2.8.675-3.68 1.885a4.55 4.55 0 0 0-.639 4.22l3.127 8.957 5.06-8.024c.88-1.4.95-3.13.172-4.6s-2.245-2.37-3.903-2.42c-.035-.018-.087-.018-.138-.018z"/><path d="M147.27 405.716c-1.106 0-2.194-.415-3.006-1.193-1.036-.986-1.52-2.42-1.313-3.84a4.29 4.29 0 0 1 2.747-3.406 4.29 4.29 0 0 1 4.335.709l6.15 5.066a.5.5 0 0 1 .172.519c-.052.2-.207.346-.397.38l-7.8 1.677a5.09 5.09 0 0 1-.898.086zm0-7.712a3.31 3.31 0 0 0-1.209.225c-1.123.432-1.9 1.4-2.1 2.594a3.26 3.26 0 0 0 1.001 2.922c.812.76 1.9 1.072 2.97.847l6.737-1.452-5.32-4.393a3.29 3.29 0 0 0-2.09-.743z"/><path d="M169.275 403.692H155.3a.519.519 0 0 1 0-1.038h13.974a.519.519 0 0 1 0 1.038zm-4.093 3.908h-13.957a.519.519 0 0 1 0-1.038h13.957a.519.519 0 0 1 0 1.038zm10-8.006H161.57a.518.518 0 1 1 0-1.037h13.612a.518.518 0 1 1 0 1.037z"/></g><path d="M284.592 208.042l-32.042 12.14-30.815 160.667c-1.244 2.94-17.584 7.16-32.836 7.16-16.064 0-29.07-4.48-29.07-7.644l18.93-147.576c2.47-19.472 19.018-34.084 38.64-34.084h66.588l.31 9.32.294.017z" class="B"/><g class="E"><path d="M188.898 388.527c-7.4 0-14.75-.95-20.7-2.663-2.677-.778-8.878-2.854-8.878-5.5v-.07l18.93-147.576c1.21-9.545 5.855-18.313 13.058-24.66 7.22-6.364 16.48-9.874 26.1-9.874h67.09l.3 9.355 2.246.138L253 220.58l-30.78 160.494c-.984 2.317-8.395 4.254-11.52 4.98-6.857 1.574-14.786 2.473-21.8 2.473zm-28.552-8.128c.052 1.055 2.59 2.888 8.136 4.48 5.855 1.695 13.1 2.61 20.416 2.61 6.927 0 14.786-.9 21.557-2.455 6.754-1.557 10.26-3.286 10.78-4.34l30.85-160.892 31.68-12-.294-8.577h-66.086a38.34 38.34 0 0 0-25.409 9.615c-7.013 6.19-11.538 14.733-12.713 24.02L160.346 380.4z"/><path d="M188.017 388.492h-.07c-.277-.034-.484-.294-.45-.588l18.7-145.69c1.26-9.926 6.322-18.417 14.63-24.556 8.74-6.467 20.64-9.89 34.39-9.89a.51.51 0 1 1 0 1.037c-13.525 0-25.22 3.355-33.77 9.684-8.084 5.983-12.99 14.232-14.216 23.864l-18.69 145.69a.52.52 0 0 1-.518.45z"/><path d="M269.72 206.313L235.224 311.92l-13.438-43.024c-8.29-27.513 6.65-62.583 47.933-62.583z"/></g><path d="M307.547 385.64l12.42 30.97c1.727 4.288-1.676 8.87-6.582 8.87H266.6c-2.315 0-4.197-1.746-4.197-3.925v-3.113c0-1.418.45-2.784 1.312-3.96l8.205-8.975c4.785-5.222 7.4-11.88 7.4-18.745v-.087l28.207-1.037z" class="B"/><path d="M313.385 426H266.6c-2.61 0-4.716-1.99-4.716-4.444v-3.113c0-1.54.484-3.01 1.416-4.27l.035-.035 8.205-8.975c4.698-5.12 7.272-11.655 7.272-18.4v-.588l29.07-1.072 12.558 31.317c.846 2.092.604 4.392-.674 6.277-1.4 2.075-3.783 3.303-6.39 3.303zm-49.263-11.188c-.777 1.072-1.192 2.334-1.192 3.63v3.113c0 1.885 1.66 3.406 3.68 3.406h46.775c2.263 0 4.318-1.054 5.527-2.836 1.09-1.608 1.296-3.545.57-5.308L307.2 386.192l-27.343 1.003c-.104 6.848-2.78 13.47-7.548 18.676l-8.188 8.94z" class="C"/><path d="M265.453 412.65a19.73 19.73 0 0 1 8.343-1.85h15a19.56 19.56 0 0 1 7.704 1.573l5.493 2.335" class="B"/><path d="M301.795 415.2l-5.493-2.334c-2.366-1.02-4.888-1.54-7.496-1.54h-15c-2.798 0-5.596.622-8.118 1.798l-.432-.934c2.66-1.245 5.614-1.902 8.568-1.902h15a19.94 19.94 0 0 1 7.91 1.61l5.493 2.334-.432.968zm6.338-28.133c-.967 3.82-13.8 6.865-29.485 6.865h-.26c.64-2.335.967-4.738.967-7.177v-.086l28.207-1.02.57 1.418z" class="C"/><g class="D"><path d="M283.71 401.635c-.2 0-.363-.104-.45-.277s-.087-.38.017-.536l5.423-8.214c0-.017.018-.017.018-.035a5.6 5.6 0 0 1 4.698-2.161c1.83.103 3.472 1.106 4.422 2.663 1.054 1.73 1.088 3.822.104 5.585a5.53 5.53 0 0 1-4.802 2.871l-9.43.104zm5.838-8.44l-4.87 7.384 8.48-.07a4.49 4.49 0 0 0 3.904-2.335 4.51 4.51 0 0 0-.087-4.548c-.777-1.297-2.1-2.092-3.593-2.16-1.52-.087-2.9.553-3.834 1.73z"/><path d="M275.817 401.686c-1.4 0-2.73-.692-3.54-1.85-.812-1.176-1.002-2.663-.5-3.995a4.22 4.22 0 0 1 3.333-2.749c1.555-.26 3.075.328 4.06 1.556l4.94 6.14c.12.155.155.363.07.553a.52.52 0 0 1-.467.294l-7.876.052zm0-7.6a3.19 3.19 0 0 0-.553.052 3.22 3.22 0 0 0-2.539 2.093c-.38 1.037-.242 2.127.38 3.043.622.9 1.606 1.4 2.677 1.4h.017l6.806-.052-4.266-5.3c-.605-.795-1.538-1.228-2.522-1.228zm23.1 11.086H278.46a.519.519 0 1 1 0-1.038h20.468a.519.519 0 1 1 0 1.038z"/></g><path d="M318.394 377.408c0 3.752-13.542 10.8-27.672 10.8-12.695 0-23.215-2.524-25.2-5.724l-34.926-111.85c-9.7-32.113 14.32-64.485 47.812-64.485h5.734l-.812-28.844h71.718l7.065 29.346c5.7 23.69-12.23 47.07-36.567 47.07h-32.197l25.046 123.695z" class="B"/><g class="E"><path d="M290.722 388.717c-12.713 0-23.49-2.507-25.633-5.966l-.035-.052-.017-.07-34.926-111.85c-2.384-7.886-2.833-15.9-1.347-23.882 1.4-7.487 4.56-14.698 9.137-20.872s10.554-11.275 17.308-14.785c7.168-3.735 14.976-5.62 23.198-5.62h5.2l-.812-28.845h72.65l.104.398 7.065 29.346c2.78 11.586.12 23.656-7.307 33.116-7.306 9.268-18.136 14.595-29.76 14.595h-31.558l24.925 123.176c0 2.542-4.577 5.43-8.844 7.28-5.925 2.56-12.972 4.03-19.346 4.03zm-24.735-6.467c.933 1.4 3.92 2.784 8.222 3.77 4.612 1.055 10.468 1.642 16.496 1.642 6.236 0 13.128-1.435 18.93-3.942 5.58-2.42 8.17-4.93 8.222-6.278L292.69 253.177h32.837c11.296 0 21.85-5.17 28.95-14.198 7.238-9.2 9.83-20.94 7.117-32.233l-6.96-28.948h-70.785l.81 28.844h-6.27c-8.05 0-15.7 1.85-22.714 5.5-6.615 3.44-12.47 8.44-16.962 14.49s-7.583 13.108-8.948 20.458c-1.45 7.8-1.02 15.667 1.313 23.38l34.91 111.78z"/><path d="M296.13 388.18c-.225 0-.432-.138-.5-.363L262.62 282.1c-3.006-8.698-4.457-16.566-4.3-23.328.155-6.657 1.865-12.312 5.078-16.825 3.006-4.22 7.34-7.454 12.886-9.615 5.493-2.127 12.195-3.217 19.95-3.217h28.864c8.843 0 16.03-7.193 16.03-16.047v-35.693a.51.51 0 0 1 .518-.518c.294 0 .518.224.518.518v35.693c0 9.424-7.652 17.085-17.065 17.085h-28.864c-7.617 0-14.198 1.055-19.57 3.13-5.355 2.075-9.535 5.188-12.42 9.234-3.092 4.34-4.733 9.805-4.89 16.255-.155 6.64 1.28 14.388 4.25 22.982l33.01 105.746c.087.276-.07.57-.345.657-.035.034-.086.034-.138.034z"/></g><path d="M461.46 220.958H6.654c-1.8 0-2.465-2.767-.954-3.89l80.416-46.102h299.506l76.66 46.725c1.262.986.675 3.268-.822 3.268z" class="B"/><path d="M461.46 221.478H6.654c-1.013 0-1.85-.744-2.142-1.902-.28-1.16.088-2.318.954-2.957.015-.018.03-.018.044-.035l80.416-46.102c.06-.035.132-.052.19-.052h299.506c.074 0 .147.017.206.052l76.66 46.725c.014 0 .03.017.044.034.733.57 1.056 1.59.807 2.594-.265 1.003-.998 1.643-1.88 1.643zm-455.54-3.96c-.616.467-.7 1.228-.558 1.764.132.553.543 1.14 1.29 1.14H461.46c.587 0 .9-.467 1.028-.9.102-.433.058-1.02-.426-1.418L385.52 171.45H86.22l-80.3 46.068z" class="F"/><path d="M449.326 215.823H18.22c-1.996 0-2.76-3.095-1.057-4.358l69.396-39.98h298.376l65.493 40.016c1.643 1.28.88 4.323-1.1 4.323z" class="G"/><path d="M.433 424.08H.36c-.235-.052-.396-.3-.352-.605L29.87 220.872c.044-.277.264-.467.514-.415.235.052.396.3.352.605L.873 423.647c-.044.26-.235.432-.44.432zm75.297 0c-.206 0-.396-.173-.44-.433L45.427 221.045c-.044-.276.117-.553.352-.605s.47.14.514.415l29.863 202.602c.044.277-.117.553-.352.605-.03.018-.044.018-.073.018zm315.442-.003h-.074c-.235-.052-.396-.3-.352-.605L420.6 220.87c.044-.277.264-.467.513-.415.235.052.396.3.352.605l-29.862 202.602c-.044.242-.235.415-.44.415zm75.293.003c-.205 0-.396-.173-.44-.433l-29.862-202.602c-.045-.276.117-.553.352-.605s.47.14.513.415l29.863 202.602c.044.277-.117.553-.352.605-.03.018-.044.018-.074.018z" class="F"/><path d="M399.402 355.67h34.235c1.07-3.84 4.577-6.657 8.758-6.657H408.16c-4.18 0-7.686 2.818-8.757 6.657z" class="E"/><path d="M408.453 349.566c5.01 0 9.086 4.082 9.086 9.096v9.096h34.235v-9.096c0-5.032-4.076-9.096-9.086-9.096h-34.235z" class="B"/><path d="M452.292 368.277h-35.27v-9.614c0-4.72-3.835-8.578-8.568-8.578v-1.037h34.235c5.303 0 9.604 4.306 9.604 9.615v9.614zm-34.235-1.037h33.2v-8.577c0-4.72-3.852-8.578-8.568-8.578h-29.9a9.63 9.63 0 0 1 5.268 8.578v8.577z" class="E"/><path d="M469.3 354.962h-31.248l1.9 8.68H471.2l-1.9-8.68z" class="B"/><path d="M471.828 364.162h-32.3l-2.124-9.72h32.3l2.125 9.72zm-31.47-1.038h30.193l-1.676-7.643H438.68l1.676 7.643z" class="C"/><path d="M485.335 423.545H412.46c5.856 0 10.21-5.43 8.93-11.153l-10-44.98c-.483-2.213-2.452-3.787-4.715-3.787h72.875c2.263 0 4.215 1.574 4.716 3.787l10 44.98a9.16 9.16 0 0 1-8.931 11.153z" class="B"/><path d="M485.336 424.064H412.46v-1.037a8.56 8.56 0 0 0 6.737-3.234c1.64-2.058 2.263-4.704 1.693-7.28l-10.002-44.98c-.43-1.954-2.193-3.39-4.214-3.39v-1.038h72.875c2.522 0 4.664 1.73 5.217 4.185l10 44.98a9.7 9.7 0 0 1-1.883 8.162 9.59 9.59 0 0 1-7.548 3.631zm-68.506-1.037h68.506a8.56 8.56 0 0 0 6.736-3.234c1.64-2.058 2.263-4.704 1.693-7.28l-10-44.98c-.45-1.988-2.177-3.39-4.215-3.39h-69.714c1.02.744 1.78 1.868 2.073 3.165l10 44.978a9.7 9.7 0 0 1-1.883 8.162 10.16 10.16 0 0 1-3.196 2.577z" class="C"/><path d="M454.883 399.716h-3.057c-5.752 0-11.4-1.988-15.89-5.585s-7.652-8.68-8.913-14.32l-3.403-15.286 1.693-.38 3.403 15.287a23.86 23.86 0 0 0 8.308 13.35c4.18 3.355 9.448 5.205 14.82 5.205h3.058c4.3 0 8.325-1.937 11.02-5.31s3.714-7.712 2.764-11.932l-3.6-16.238 1.692-.38 3.6 16.238c1.054 4.72-.086 9.597-3.11 13.384-3.04 3.805-7.548 5.966-12.385 5.966z" class="G"/><g class="C"><path d="M458.5 399.543h-3.058a25.53 25.53 0 0 1-15.891-5.586c-4.5-3.597-7.652-8.68-8.913-14.318l-3.403-15.287a.87.87 0 0 1 .657-1.038.87.87 0 0 1 1.036.658l3.403 15.286a23.87 23.87 0 0 0 8.308 13.351c4.18 3.354 9.45 5.205 14.82 5.205h3.057a14.05 14.05 0 0 0 11.02-5.309c2.695-3.372 3.714-7.713 2.764-11.932l-3.6-16.238a.87.87 0 0 1 .656-1.038.87.87 0 0 1 1.036.657l3.6 16.238c1.053 4.72-.087 9.598-3.1 13.385a15.76 15.76 0 0 1-12.384 5.966zm-46.05 24.002h-12.023a9.16 9.16 0 0 1-8.93-11.153l10-44.98c.484-2.213 2.453-3.787 4.716-3.787h.484c2.262 0 4.214 1.574 4.715 3.787l10 44.98c1.244 5.723-3.1 11.153-8.964 11.153z"/><path d="M412.46 424.064h-12.022a9.59 9.59 0 0 1-7.548-3.631c-1.848-2.3-2.54-5.274-1.883-8.162l10-44.98a5.38 5.38 0 0 1 5.217-4.185h.484c2.52 0 4.663 1.73 5.216 4.185l10 44.98c.622 2.888-.07 5.862-1.934 8.162-1.83 2.317-4.595 3.63-7.532 3.63zm-6.235-59.92c-2.004 0-3.783 1.418-4.215 3.372l-10 44.98c-.57 2.576.035 5.222 1.693 7.28 1.64 2.058 4.11 3.234 6.736 3.234h12.022a8.61 8.61 0 0 0 6.737-3.234 8.68 8.68 0 0 0 1.727-7.298l-10-44.978c-.45-1.99-2.176-3.4-4.214-3.4h-.484v.035z"/></g><g class="B"><path d="M407.192 363.644h-1.036v49.49h1.036v-49.49z"/><path d="M418.023 422.508c-.12 0-.225-.035-.33-.104l-11.054-8.733-11.107 8.68a.52.52 0 0 1-.726-.086c-.172-.225-.138-.554.087-.727l11.763-9.165 11.676 9.252a.52.52 0 0 1 .087.726.59.59 0 0 1-.397.156z"/></g><path d="M76.604 347.613s-21.678-27.876-18.24-36.488c2.936-7.35 9.62-.5 9.62-.5l8.62 37zm15.942 29.363s22.576-24.9 22.058-33.86-8.7-4.755-8.7-4.755l-13.37 38.614z" class="E"/><path d="M116.107 398.885c0 7.505-3.178 14.353-8.395 19.576-4.197 4.185-9.897 6.502-15.822 6.502H73.494c-5.925 0-11.625-2.317-15.822-6.502-5.217-5.205-8.395-12.07-8.395-19.576 0-10.687 6.426-20.042 16.064-25.23h34.72c9.62 5.17 16.047 14.543 16.047 25.23z" class="C"/><path d="M82.7 379.5c9.816 0 17.774-2.114 17.774-4.72s-7.958-4.72-17.774-4.72-17.774 2.113-17.774 4.72 7.958 4.72 17.774 4.72z" class="E"/><path d="M92.545 376.976c-2.815.5-6.2.795-9.846.795-3.455 0-6.685-.26-9.397-.71-6.426-6.83-22.075-24.953-16.288-33.91 7.22-11.188 19.605 4.48 19.605 4.48s-14.613-44.926-6.875-54.904 13.8 7.747 13.8 7.747 3.904-21.512 14.388-19.454c10 1.97-5.493 51.86-6.944 56.46.743-2.213 5.234-14.422 13.99-13.298 8.29 1.055-7.877 41.7-12.437 52.795z" class="B"/><g class="E"><path d="M82.7 378.3c-3.386 0-6.65-.242-9.483-.71l-.173-.035-.12-.12c-6.892-7.332-22.282-25.368-16.34-34.55 1.745-2.698 3.938-4.133 6.512-4.255 4.854-.242 9.81 4.22 12.298 6.848-1.21-3.942-3.68-12.398-5.63-21.425-3.593-16.722-3.748-27.357-.432-31.63 1.9-2.455 3.904-3.527 5.96-3.182 3.956.658 6.875 6.502 8.1 9.442.915-3.908 3.576-13.315 8.81-16.895 1.814-1.245 3.766-1.66 5.838-1.262 1.02.207 1.83.813 2.435 1.85 2.28 3.84 1.607 13.8-1.986 29.57-1.606 7.073-3.506 13.955-4.94 18.866 2.4-3.873 6.184-7.8 11.503-7.124.864.103 1.538.57 2.02 1.383 1.762 3.026.432 11.43-3.955 25.005-3.403 10.566-7.8 21.53-10.088 27.133l-.104.26-.276.052c-2.97.5-6.408.778-9.95.778zm-9.137-1.712c2.73.432 5.9.675 9.137.675 3.386 0 6.65-.26 9.483-.744 2.332-5.655 6.598-16.428 9.95-26.787 5.338-16.53 5.148-22.255 4.042-24.158-.293-.518-.708-.812-1.243-.88-8.29-1.055-12.644 10.6-13.44 12.952l-.984-.33c.69-2.16 4.232-13.61 6.978-25.628 3.49-15.304 4.215-25.264 2.107-28.81-.45-.76-1.02-1.21-1.745-1.35-1.78-.346-3.472.017-5.044 1.09-6.184 4.22-8.706 17.812-8.723 17.95l-.363 1.954-.64-1.885c-.035-.103-3.35-9.632-7.928-10.393-1.64-.276-3.316.675-4.975 2.802-7.48 9.65 6.805 53.97 6.96 54.42l.898 2.75-1.796-2.266c-.07-.086-6.875-8.612-13.058-8.3-2.228.104-4.146 1.383-5.7 3.787-2.384 3.683-1.175 9.46 3.576 17.206 3.938 6.468 9.466 12.7 12.506 15.944z"/><path d="M82.7 378.3a.52.52 0 0 1-.518-.519c.225-28.827 4.353-53.642 7.8-69.378 3.714-17.068 7.427-27.46 7.462-27.565.104-.277.397-.415.656-.31.276.104.415.398.31.657-.035.104-3.73 10.445-7.428 27.444-3.42 15.684-7.53 40.43-7.756 69.153a.52.52 0 0 1-.518.519z"/><path d="M85.8 335.456h-.086c-.276-.035-.484-.3-.432-.588 1.7-11.3-2.246-34.084-2.28-34.3-.052-.277.138-.553.415-.605s.553.138.604.415c.035.225 4.025 23.172 2.28 34.655-.035.242-.242.432-.5.432zm.414 42.73H86.2a.51.51 0 0 1-.484-.554c.984-16.497 6.046-30.244 10.122-38.856 4.422-9.338 8.688-14.872 8.723-14.924a.52.52 0 0 1 .726-.086.52.52 0 0 1 .086.726c-.035.052-4.25 5.516-8.62 14.768-4.042 8.525-9.05 22.135-10.018 38.46 0 .26-.225.467-.5.467zm-7.082.018a.52.52 0 0 1-.518-.519c-.173-12.157-5.666-21.34-10.26-26.908-4.975-6.035-9.95-9.234-9.984-9.25a.51.51 0 1 1 .552-.865c.207.14 5.165 3.303 10.243 9.477 4.68 5.7 10.312 15.096 10.485 27.547a.52.52 0 0 1-.518.519z"/></g><path d="M65.72 335.576a4.05 4.05 0 0 1-4.042-4.046 4.05 4.05 0 0 1 4.042-4.047 4.05 4.05 0 0 1 4.042 4.047 4.05 4.05 0 0 1-4.042 4.046zm0-7.055a3.01 3.01 0 0 0-3.006 3.009 3.01 3.01 0 0 0 3.006 3.009 3.01 3.01 0 0 0 3.005-3.009 3.01 3.01 0 0 0-3.005-3.009zm-8.152 1.73c-1.175 0-2.142-.97-2.142-2.145s.967-2.144 2.142-2.144 2.142.968 2.142 2.144-.967 2.145-2.142 2.145zm0-3.252c-.605 0-1.105.502-1.105 1.107s.5 1.107 1.105 1.107 1.105-.5 1.105-1.107-.5-1.107-1.105-1.107zM59.9 371.13c-1.175 0-2.142-.968-2.142-2.144s.967-2.144 2.142-2.144 2.142.968 2.142 2.144-.967 2.144-2.142 2.144zm0-3.25c-.605 0-1.105.502-1.105 1.107s.5 1.107 1.105 1.107 1.105-.502 1.105-1.107-.5-1.107-1.105-1.107zm43.217-46.968a4.05 4.05 0 0 1-4.042-4.046 4.05 4.05 0 0 1 4.042-4.047 4.05 4.05 0 0 1 4.042 4.047 4.05 4.05 0 0 1-4.042 4.046zm0-7.055a3.01 3.01 0 0 0-3.005 3.009 3.01 3.01 0 0 0 3.005 3.009 3.01 3.01 0 0 0 3.006-3.009 3.01 3.01 0 0 0-3.006-3.009zm1.037-5.983c-1.175 0-2.142-.97-2.142-2.145s.967-2.144 2.142-2.144 2.142.968 2.142 2.144-.967 2.145-2.142 2.145zm0-3.25c-.605 0-1.105.5-1.105 1.106s.5 1.107 1.105 1.107 1.106-.502 1.106-1.107-.5-1.106-1.106-1.106zm5.89 16.29c-1.175 0-2.142-.97-2.142-2.145s.967-2.144 2.142-2.144 2.142.968 2.142 2.144-.968 2.145-2.142 2.145zm0-3.25c-.605 0-1.106.5-1.106 1.106s.5 1.107 1.106 1.107a1.11 1.11 0 0 0 1.105-1.107 1.11 1.11 0 0 0-1.105-1.106z" class="C"/><path d="M319.275 68.818l34.77 9.822a37.77 37.77 0 0 1 27.637 33.115l5.303 58.71h-184l16.996-65.972c2.78-10.998 11.107-19.713 21.954-22.982l40.61-12.693h36.74z" class="D"/><g class="B"><use xlink:href="#B"/><use xlink:href="#C"/><use xlink:href="#C" x="17.445"/><use xlink:href="#D"/><use xlink:href="#D" x="17.446"/><use xlink:href="#B" x="87.229"/><use xlink:href="#E"/><use xlink:href="#F"/><use xlink:href="#C" x="122.13"/><use xlink:href="#C" x="139.566"/><use xlink:href="#G"/><use xlink:href="#H"/><use xlink:href="#I"/><use xlink:href="#I" x="17.446"/><use xlink:href="#I" x="34.892"/><use xlink:href="#G" x="87.229"/><use xlink:href="#I" x="69.784"/><use xlink:href="#G" x="122.121"/><use xlink:href="#H" x="122.122"/><use xlink:href="#H" x="139.568"/><use xlink:href="#B" y="-23.865"/><use xlink:href="#C" y="-23.865"/><use xlink:href="#C" x="17.445" y="-23.865"/><use xlink:href="#D" y="-23.865"/><use xlink:href="#D" x="17.446" y="-23.865"/><use xlink:href="#B" x="87.229" y="-23.865"/><use xlink:href="#E" y="-23.865"/><use xlink:href="#F" y="-23.865"/><use xlink:href="#C" x="122.13" y="-23.865"/><use xlink:href="#C" x="139.566" y="-23.865"/><use xlink:href="#G" y="-23.346"/><use xlink:href="#H" y="-23.346"/><use xlink:href="#I" y="-23.346"/><use xlink:href="#I" x="17.446" y="-23.346"/><use xlink:href="#I" x="34.892" y="-23.346"/><use xlink:href="#G" x="87.229" y="-23.346"/><use xlink:href="#I" x="69.784" y="-23.346"/><use xlink:href="#H" x="105.194" y="-23.346"/><use xlink:href="#H" x="122.122" y="-23.346"/><use xlink:href="#H" x="139.568" y="-23.346"/><use xlink:href="#J"/><use xlink:href="#J" x="34.89"/><use xlink:href="#K"/><use xlink:href="#J" x="69.782"/><use xlink:href="#J" x="87.228"/><use xlink:href="#L"/><use xlink:href="#J" x="122.13"/><use xlink:href="#J" x="139.566"/><use xlink:href="#G" y="-46.345"/><use xlink:href="#H" y="-46.345"/><use xlink:href="#I" y="-46.345"/><use xlink:href="#I" x="17.446" y="-46.345"/><use xlink:href="#I" x="34.892" y="-46.345"/><use xlink:href="#G" x="87.229" y="-46.345"/><use xlink:href="#I" x="69.784" y="-46.345"/><use xlink:href="#G" x="122.121" y="-46.345"/><use xlink:href="#H" x="122.122" y="-46.345"/><use xlink:href="#H" x="138.704" y="-46.345"/><use xlink:href="#J" y="-22.654"/><use xlink:href="#J" x="17.445" y="-22.654"/><use xlink:href="#J" x="34.89" y="-22.654"/><use xlink:href="#K" y="-22.654"/><use xlink:href="#J" x="69.782" y="-22.654"/><use xlink:href="#J" x="87.228" y="-22.654"/><use xlink:href="#L" y="-22.654"/><use xlink:href="#J" x="122.13" y="-22.654"/><use xlink:href="#J" x="139.566" y="-22.654"/><use xlink:href="#K" y="-43.751"/><use xlink:href="#J" x="69.782" y="-43.751"/><use xlink:href="#K" x="34.892" y="-43.751"/><path d="M337.033 73.834a1.67 1.67 0 0 1-1.589 1.124 1.68 1.68 0 0 1-1.676-1.677 2.48 2.48 0 0 1 .035-.363l3.23.916zM239.75 85.506c.925 0 1.676-.75 1.676-1.677s-.75-1.677-1.676-1.677-1.675.75-1.675 1.677.75 1.677 1.675 1.677z"/><use xlink:href="#J" x="26.427" y="-33.202"/><use xlink:href="#J" x="42.215" y="-35.432"/><use xlink:href="#J" x="61.32" y="-33.202"/><use xlink:href="#K" x="26.428" y="-33.202"/><use xlink:href="#K" x="43.874" y="-33.202"/><use xlink:href="#K" x="61.32" y="-33.202"/><use xlink:href="#K" x="78.766" y="-33.202"/><path d="M346.93 171.485c-.276 0-.5-.207-.518-.484l-3.8-51.757a.519.519 0 1 1 1.036-.069l3.8 51.757a.51.51 0 0 1-.483.553h-.035zm-89.907 0a.51.51 0 0 1-.518-.518v-15.4l-3.333-1.954c-6.288-3.683-9.397-10.946-7.773-18.054l5.5-24.07a.54.54 0 0 1 .622-.398.54.54 0 0 1 .397.623l-5.5 24.07c-1.538 6.658 1.4 13.454 7.3 16.912l3.852 2.266v15.978c-.017.3-.242.536-.536.536zM292.97 103l-11.815-34.24c-.086-.277.052-.57.328-.657s.57.052.657.33l11.193 32.475 26.1-32.63a.52.52 0 0 1 .726-.086.52.52 0 0 1 .086.726L292.97 103z"/><path d="M323.697 91.6L311.97 78c-.2-.225-.155-.536.052-.726.224-.2.535-.156.725.052l10.865 12.606 11.314-16.134c.173-.242.484-.294.725-.12s.294.484.12.726L323.697 91.6zm-52.164-1.927l-7.98-15.114c-.138-.26-.034-.57.207-.7a.53.53 0 0 1 .709.208l7.392 13.973 12.68-10.773c.224-.2.553-.156.725.052a.51.51 0 0 1-.05.726l-13.68 11.638zm-22.663 33.514c-.242 0-.45-.173-.5-.415l-2.366-11.05a.54.54 0 0 1 .397-.623c.276-.07.553.12.622.398l2.366 11.05a.54.54 0 0 1-.397.623c-.052.017-.086.017-.12.017z"/></g><path d="M295 215.824h-47.346L226.71 183.09h47.346L295 215.824z" class="C"/><path d="M266.437 208.717h-47.363L198.156 176h47.346l20.935 32.718z" class="B"/><path d="M266.437 209.236h-47.363c-.173 0-.345-.087-.432-.242l-20.917-32.718a.54.54 0 0 1-.018-.536.5.5 0 0 1 .449-.277h47.346c.173 0 .345.086.432.242l20.935 32.718c.103.156.103.363.017.536a.5.5 0 0 1-.45.277zm-47.087-1.038h46.137l-20.26-31.68h-46.12l20.244 31.68zm17.067-25.5c-.52 0-1.14-.138-1.797-.415l-2.677-1.176c-1.14-.5-1.935-.397-2.107-.155l-.847 1.072c-.535.657-1.744.692-3.126.086l-2.332-1.02c-1.14-.5-1.935-.398-2.107-.155l-.7.916c-.535.657-1.744.692-3.143.104l-1.762-.76c-1.14-.502-1.935-.398-2.108-.173l-.64.813c-.535.657-1.744.7-3.126.103l-1.762-.76a.42.42 0 0 1-.225-.571c.087-.225.346-.33.57-.225l1.762.76c1.037.45 1.9.432 2.125.156l.64-.813c.518-.675 1.762-.7 3.144-.087l1.762.76c1.036.45 1.9.433 2.124.156l.708-.9c.52-.675 1.762-.7 3.144-.104l2.332 1.02c1.036.45 1.9.433 2.125.156l.846-1.072c.518-.675 1.762-.7 3.144-.087l2.677 1.176c1.036.45 1.9.432 2.125.156l.915-1.16a.431.431 0 0 1 .674.536l-.916 1.176a2.24 2.24 0 0 1-1.433.484zm5.406 6.917c-.52 0-1.14-.138-1.797-.415l-2.677-1.176c-1.14-.5-1.935-.397-2.107-.155l-.847 1.072c-.535.657-1.744.692-3.126.086l-2.332-1.02c-1.14-.5-1.935-.398-2.107-.156l-.7.917c-.535.657-1.744.692-3.143.104l-1.762-.76c-1.14-.502-1.935-.398-2.107-.173l-.64.813c-.535.657-1.744.7-3.126.103-.225-.086-.328-.345-.225-.57.087-.225.346-.33.57-.225 1.037.45 1.9.432 2.125.156l.64-.813c.518-.675 1.762-.7 3.144-.087l1.762.76c1.036.45 1.9.433 2.124.156l.708-.9c.52-.675 1.762-.7 3.144-.104l2.332 1.02c1.036.45 1.9.433 2.125.156l.846-1.072c.518-.675 1.762-.7 3.144-.087l2.677 1.176c1.036.45 1.9.432 2.125.156l.915-1.16a.431.431 0 0 1 .674.536l-.916 1.176a2.24 2.24 0 0 1-1.433.484zm5.407 6.9c-.518 0-1.14-.14-1.796-.415l-2.677-1.176c-1.14-.502-1.935-.398-2.108-.156l-.846 1.072c-.535.657-1.745.692-3.126.087l-2.332-1.02c-1.14-.502-1.935-.398-2.108-.156l-.708.916c-.535.658-1.744.692-3.143.104l-1.762-.76c-1.14-.5-1.935-.397-2.108-.173l-.64.813c-.535.657-1.744.692-3.126.104l-1.762-.76a.42.42 0 0 1-.225-.571c.087-.224.346-.328.57-.224l1.762.76c1.037.45 1.9.433 2.125.156l.64-.813c.518-.674 1.762-.7 3.144-.086l1.762.76c1.036.45 1.9.432 2.124.155l.708-.9c.52-.674 1.762-.7 3.144-.104l2.332 1.02c1.036.45 1.9.432 2.125.155l.846-1.072c.518-.674 1.762-.7 3.144-.086l2.677 1.176c1.036.45 1.9.432 2.124.155l.916-1.176a.431.431 0 0 1 .674.536l-.916 1.176c-.397.33-.863.502-1.434.502zm5.406 6.918c-.518 0-1.14-.14-1.797-.415l-2.677-1.176c-1.14-.502-1.934-.398-2.107-.156l-.847 1.072c-.535.657-1.744.692-3.126.087l-2.332-1.02c-1.14-.502-1.934-.398-2.107-.156l-.708.916c-.536.658-1.745.692-3.144.104l-1.762-.76c-1.14-.5-1.935-.397-2.107-.173l-.64.813c-.536.657-1.745.692-3.127.104l-1.762-.76a.42.42 0 0 1-.224-.571c.086-.224.345-.328.57-.224l1.762.76c1.088.467 1.9.433 2.124.156l.64-.813c.518-.674 1.762-.7 3.144-.086l1.762.76c1.036.45 1.9.432 2.124.155l.7-.9c.518-.674 1.762-.7 3.143-.104l2.332 1.02c1.037.45 1.9.432 2.125.155l.846-1.072c.518-.674 1.762-.7 3.144-.086l2.677 1.176c1.07.466 1.9.432 2.125.155l.915-1.158a.42.42 0 0 1 .605-.07c.2.14.224.415.07.606l-.915 1.176c-.398.3-.864.484-1.434.484z" class="E"/><path d="M275.73 189.903h90.822c12.022 0 21.436-10.36 20.296-22.325-1.14-12.02-12.385-20.44-24.217-18.123l-104.52 14.578c-3.955.553-7.427 2.957-9.3 6.484l-9.258 17.224c-.328.432-.553.934-.69 1.453l-3.472 13.436h1.952c3.023 0 5.82-1.677 7.237-4.358l1.745-3.268 20.088 2.18c3.766.467 7.34-2.1 8.69-5.638l.64-1.642z" class="H"/><path d="M246.503 194.933a.52.52 0 0 1-.466-.744l6.063-12.57c.12-.26.432-.364.7-.242a.52.52 0 0 1 .242.69l-6.063 12.572a.51.51 0 0 1-.467.294zm8.084.797c-.07 0-.156-.017-.225-.052a.52.52 0 0 1-.242-.692l6.063-12.572c.12-.26.432-.363.7-.242a.52.52 0 0 1 .242.692l-6.063 12.572a.51.51 0 0 1-.466.294zm7.913.986c-.07 0-.156-.017-.225-.052-.26-.12-.363-.432-.242-.7l6.046-12.572c.12-.26.432-.363.7-.242a.52.52 0 0 1 .242.691l-6.046 12.572a.51.51 0 0 1-.466.294zm13.23-6.296c-.052 0-.104-.017-.173-.034-.276-.087-.414-.38-.328-.657l2.764-8.25c.086-.277.38-.415.656-.328s.415.38.328.657l-2.763 8.248a.5.5 0 0 1-.484.363z" class="I"/><path d="M298.08 9.608s11.884-7.47 23.492 1.954c10.95 8.906 5.838 26.458 1.83 23.518-3.438-2.507 23.353-11.067 31.748 8.802 9.517 22.515-11.92 35.295-36.36 24.158H283.33l-37.707 11.776s-19.156-9.753-8.74-28.775c9.62-17.552 32.61-11.292 30.02-6.952-3.645 6.087-19.225-13.177-8.274-31.37C270.203-6.51 296.492.65 298.08 9.608z" class="B"/><path d="M245.57 80.37l-.2-.104c-.345-.173-8.688-4.513-11.348-13.108-1.572-5.1-.778-10.618 2.383-16.393 5.856-10.67 16.03-11.915 20.123-11.95h.83c-1.865-3.5-2.97-7.643-3.1-11.707-.173-5.17 1.14-10.116 3.903-14.682 3.1-5.17 7.445-8.82 12.852-10.808 4.473-1.643 9.655-2.058 14.56-1.14 6.53 1.2 11.66 4.565 12.834 8.318 1.105-.588 3.627-1.764 6.978-2.283 4.145-.64 10.364-.363 16.513 4.617 3.817 3.113 6.2 7.713 6.685 12.952.26 2.784-.035 5.3-.605 7.246 1.537-.38 3.265-.64 5.044-.744 5-.277 17.256.415 22.593 13.056 2.004 4.738 2.73 9.2 2.16 13.264-.518 3.787-2.2 7.16-4.888 9.77-3.524 3.44-8.533 5.465-14.5 5.862-6.184.415-13-.968-19.7-4.012h-35.272L245.57 80.37zm11.2-40.5h-.224c-3.92.035-13.646 1.228-19.225 11.413-3.023 5.5-3.783 10.74-2.298 15.58 2.298 7.488 9.414 11.707 10.64 12.4l37.57-11.742H318.9l.104.052c6.598 3 13.283 4.375 19.3 3.977 5.718-.38 10.502-2.317 13.853-5.568 2.54-2.473 4.094-5.568 4.595-9.165.536-3.873-.173-8.145-2.1-12.7-2.4-5.672-6.495-9.477-12.195-11.3-5.976-1.92-11.642-1.003-13.8-.502-.38.086-.743.173-1.07.277-.328.865-.725 1.574-1.123 2.1-1.02 1.332-2.28 1.66-3.368.865-.432-.3-.604-.778-.466-1.245.276-.934 1.9-1.885 4.163-2.577.64-1.902 1.036-4.53.76-7.488-.467-4.963-2.712-9.32-6.305-12.243-4.698-3.804-9.984-5.292-15.684-4.4-4.267.657-7.168 2.473-7.203 2.5l-.656.415-.138-.76c-.64-3.597-5.65-6.97-12.16-8.18-4.733-.882-9.707-.484-14.008 1.107-5.182 1.902-9.328 5.395-12.316 10.376-2.643 4.4-3.92 9.148-3.748 14.128.12 4.012 1.243 8.128 3.144 11.552.05.087.086.173.138.242 4.145.3 7.72 1.695 8.74 3.46.38.657.38 1.366.017 2-.553.934-1.382 1.418-2.418 1.4-2.142-.034-4.82-2.3-6.944-5.845a7.99 7.99 0 0 0-1.261-.087zm2.488.138c1.83 2.8 4.06 4.686 5.682 4.704.64 0 1.14-.277 1.503-.9.173-.294.173-.605-.017-.934-.7-1.193-3.472-2.456-7.168-2.87zm64.342-5.43s.017.035.086.086c.605.45 1.26.225 1.935-.657.224-.277.432-.64.64-1.055-1.848.674-2.66 1.383-2.66 1.626zm-17.867.64a.53.53 0 0 1-.224-.052c-.12-.052-2.8-1.35-5.286-3.977-2.6-2.75-3.938-5.914-4.025-9.286a25.42 25.42 0 0 1-3.316 4.6c-2.988 3.268-8.3 7.16-16.617 7.16h-.173c-2.988-.017-5.095-1.262-5.96-3.493-1.02-2.68.052-6.398 2.505-8.63.207-.2.535-.173.725.035a.52.52 0 0 1-.034.726c-2.16 1.97-3.1 5.188-2.23 7.488.7 1.833 2.436 2.82 4.992 2.836h.173c6.374 0 11.7-2.3 15.857-6.813 3.1-3.407 4.335-6.848 4.353-6.882.086-.26.362-.398.622-.33s.43.33.38.605c-.795 4.168.38 7.955 3.5 11.275 2.35 2.507 4.974 3.77 4.992 3.787.26.12.362.432.24.692-.086.156-.276.26-.466.26z" class="C"/><path d="M319.085 68.767l-9.068-24.106h-25.772l-2.02 24.106 11.107 31.957 25.754-31.957z" class="H"/><path d="M298.27 63.666l-13.594 12.018-2.453-6.917 2.02-24.106h22.835v.45c-.017 7.21-3.247 14.024-8.81 18.555z" class="I"/><path d="M315.907 39.974v.968a4.78 4.78 0 0 1-4.768 4.773h-5.182c-.967 7.35-7.254 13.04-14.855 13.04-4.145 0-7.893-1.677-10.605-4.392a14.97 14.97 0 0 1-4.388-10.618v-10.1c15.943.12 20.52-13.004 20.52-13.004-1.054 9.857 7.928 14.094 9.293 14.664V35.2h5.216a4.78 4.78 0 0 1 4.768 4.773z" class="H"/><path d="M299.93 34.026c-.138 0-.277-.052-.38-.156-2.315-2.473-5.82-2.577-5.856-2.577a.5.5 0 0 1-.501-.536.5.5 0 0 1 .536-.502c.155 0 3.955.104 6.58 2.888a.5.5 0 0 1-.017.726c-.104.104-.242.156-.363.156zm-6.996 8.734c.582 0 1.053-.828 1.053-1.85s-.47-1.85-1.053-1.85-1.054.828-1.054 1.85.472 1.85 1.054 1.85zm-14.39 0c.582 0 1.054-.828 1.054-1.85s-.472-1.85-1.054-1.85-1.054.828-1.054 1.85.472 1.85 1.054 1.85zm8.24 7.936h-.138c-1.123-.035-1.918-.398-1.952-.415-.26-.12-.363-.432-.242-.692s.432-.363.7-.242c.104.052 2.556 1.16 4.82-1.038a.514.514 0 1 1 .708.744c-1.38 1.35-2.85 1.643-3.886 1.643zm20.504-8.32a.51.51 0 0 1-.518-.519c0-2.542 2.055-4.6 4.594-4.6a.519.519 0 1 1 0 1.038c-1.97 0-3.558 1.6-3.558 3.562a.51.51 0 0 1-.518.519zm-35.756-8.18c-.12 0-.26-.052-.363-.138-.207-.2-.224-.52-.017-.726 2.626-2.784 6.426-2.888 6.58-2.888.294 0 .518.225.536.502a.53.53 0 0 1-.5.536c-.035 0-3.54.104-5.856 2.577a.6.6 0 0 1-.38.138z" class="I"/><g class="D"><path d="M277.976 48.136c-3.56 0-6.443-3.355-6.443-7.488s2.884-7.488 6.443-7.488 6.442 3.355 6.442 7.488-2.884 7.488-6.442 7.488zm0-13.938c-3 0-5.407 2.888-5.407 6.45s2.418 6.45 5.407 6.45 5.406-2.888 5.406-6.45-2.418-6.45-5.406-6.45zm15.908 13.938c-3.558 0-6.443-3.355-6.443-7.488s2.885-7.488 6.443-7.488 6.443 3.355 6.443 7.488-2.884 7.488-6.443 7.488zm0-13.938c-2.988 0-5.406 2.888-5.406 6.45s2.418 6.45 5.406 6.45 5.407-2.888 5.407-6.45-2.418-6.45-5.407-6.45z"/><path d="M287.683 41.063c-.07-.052-1.848-1.28-3.455-.017l-.64-.813c1.78-1.383 3.852-.623 4.7-.017l-.605.847z"/></g><path d="M181.716 193.394H82.42a6.5 6.5 0 0 1-6.041-4.083l-27.172-67.2c-1.293-3.214 1.07-6.73 4.525-6.73h99.296a6.5 6.5 0 0 1 6.04 4.083l27.172 67.2c1.314 3.214-1.05 6.73-4.525 6.73z" class="B"/><g class="C"><path d="M49.77 121.894l27.173 67.19c.898 2.236 3.06 3.703 5.478 3.703h99.295a4.28 4.28 0 0 0 3.965-5.895L158.506 119.7c-.898-2.237-3.06-3.703-5.478-3.703H53.733c-3.022 0-5.096 3.08-3.963 5.898zm-1.124.453c-1.452-3.6 1.2-7.564 5.087-7.564h99.295a7.11 7.11 0 0 1 6.603 4.464l27.17 67.187c1.476 3.613-1.182 7.567-5.087 7.567H82.42c-2.914 0-5.52-1.768-6.603-4.464l-27.172-67.2z" class="J"/><path d="M177.1 193.878H82.38a6.22 6.22 0 0 1-5.758-3.881L50.703 125.9c-1.232-3.073 1-6.408 4.323-6.408h94.73c2.525 0 4.808 1.536 5.757 3.88l25.92 64.098a4.67 4.67 0 0 1-4.323 6.407z"/></g><path d="M118.947 164.73c-2.788 0-5.415-1.092-7.395-3.073-1.616-1.617-2.505-3.76-2.505-6.023a8.41 8.41 0 0 1 2.505-6.024 6.94 6.94 0 0 1 9.86 0 5.75 5.75 0 0 1 0 8.126c-1.858 1.86-4.87 1.86-6.727 0-.323-.324-.323-.83 0-1.152a.8.8 0 0 1 1.151 0c1.233 1.233 3.213 1.233 4.445 0 1.616-1.617 1.616-4.225 0-5.842-1-1-2.364-1.577-3.798-1.577s-2.788.566-3.798 1.577a6.83 6.83 0 0 0-2.02 4.892 6.95 6.95 0 0 0 2.02 4.891c1.677 1.678 3.88 2.588 6.242 2.588s4.586-.9 6.243-2.588c.323-.323.828-.323 1.15 0s.324.83 0 1.152a10.37 10.37 0 0 1-7.373 3.053zm98.305 35.77h-134.7a2.8 2.8 0 0 1-2.808-2.8v-1.354c0-1.557 1.252-2.8 2.808-2.8h134.7a2.8 2.8 0 0 1 2.808 2.8v1.354c-.02 1.557-1.273 2.8-2.808 2.8z" class="B"/><path d="M82.54 194.142c-1.22 0-2.202.98-2.202 2.203v1.354c0 1.222.98 2.203 2.202 2.203h134.7c1.195 0 2.184-.977 2.202-2.207v-1.35c0-1.222-.98-2.203-2.202-2.203H82.54zm-3.414 2.203a3.41 3.41 0 0 1 3.414-3.416h134.7a3.41 3.41 0 0 1 3.414 3.416v1.362c-.024 1.88-1.54 3.408-3.414 3.408H82.54a3.41 3.41 0 0 1-3.414-3.416v-1.354z" class="C J"/><path d="M62.846 176.667l-4.04 28.634a3.42 3.42 0 0 1-3.395 2.949h-7.897a3.43 3.43 0 0 1-3.395-2.949l-4.04-28.634c0 2.57 5.092 4.648 11.376 4.648 6.298 0 11.4-2.092 11.4-4.648z" class="B"/><g class="F"><path d="M55.414 208.674h-7.897c-1.908 0-3.55-1.418-3.815-3.314l-3.956-28.073a2.26 2.26 0 0 1-.084-.618c0-.224.168-.407.393-.42s.42.14.45.365l.07.492c.575 1.91 4.797 3.79 10.885 3.79 6.102 0 10.338-1.882 10.9-3.79l.07-.492c.028-.225.224-.38.45-.365s.393.197.393.42a2.26 2.26 0 0 1-.084.618L59.23 205.36a3.82 3.82 0 0 1-3.815 3.314zm-14.588-29.772l3.717 26.345a3.02 3.02 0 0 0 2.974 2.584h7.897a2.97 2.97 0 0 0 2.974-2.584l3.717-26.345c-1.894 1.7-5.905 2.837-10.647 2.837s-8.753-1.152-10.633-2.837z"/><path d="M60.3 179.73l-3.605 25.35c-.267 1.895-1.908 3.314-3.815 3.314h-2.707c-1.908 0-3.55-1.42-3.815-3.314L42.762 179.8l.898.35 3.535 24.814c.196 1.362 1.29 2.416 2.637 2.57l.35.028H52.9c.168 0 .337-.014.49-.042a3.01 3.01 0 0 0 2.483-2.556l3.535-24.87c.337-.113.63-.24.912-.366z"/><path d="M56.593 180.854l-3.254 27.034c-.028.2-.2.365-.42.365h-.056c-.238-.028-.393-.24-.365-.463l.028-.225 3.198-26.556.87-.155zm-6.243 27.398h-.056a.43.43 0 0 1-.42-.365l-.042-.35L46.62 180.9l.87.14 3.226 26.738c.028.225-.14.435-.365.463z"/><path d="M63.256 176.67c0 1.18-1.108 2.247-2.932 3.076l-.898.365a19.5 19.5 0 0 1-2.819.758l-.87.154c-1.22.183-2.553.295-3.942.31H51c-1.234-.014-2.413-.112-3.507-.266l-.87-.14c-1.08-.196-2.076-.45-2.96-.758l-.898-.35c-1.922-.83-3.086-1.924-3.086-3.132 0-.098.014-.197.028-.295.393-2.43 5.5-4.34 11.755-4.34s11.376 1.924 11.755 4.34c.014.084.028.183.028.28z"/><path d="M51.963 207.467c0 .028 0 .07-.014.098a.42.42 0 0 1-.407.323.42.42 0 0 1-.407-.323c-.014-.028-.014-.056-.014-.084l-.14-26.008c0-.056.014-.098.028-.155h.785c.014.042.028.085.028.14l.14 26.008z"/></g><path d="M51.543 180.46c-2.497-.07-4.783-.45-6.635-1.053l-6.62-27.792h6.382l6.873 28.845z" class="C"/><path d="M45.497 155.127h-2.6c-.196 0-.35-.154-.35-.35s.154-.35.35-.35h2.44l.168.702zm.703 2.95h-2.6c-.196 0-.35-.154-.35-.35s.154-.35.35-.35h2.44l.168.702zm.7 2.95h-2.6c-.196 0-.35-.154-.35-.35s.154-.35.35-.35h2.44l.168.702zm.715 2.95h-2.6c-.196 0-.35-.155-.35-.35a.35.35 0 0 1 .35-.352h2.44l.168.703zm.702 2.95h-2.6c-.196 0-.35-.155-.35-.35s.154-.35.35-.35h2.44l.168.702zm.703 2.948h-2.483c-.196 0-.35-.154-.35-.35s.154-.35.35-.35h2.315l.168.702zm.7 2.948h-2.623c-.196 0-.35-.154-.35-.35s.154-.35.35-.35h2.455l.168.702zm.702 2.95H47.8c-.196 0-.35-.155-.35-.352s.154-.35.35-.35h2.455l.168.703zm.7 2.936c-.028.014-.056.014-.098.014H48.36c-.196 0-.35-.155-.35-.35s.154-.35.35-.35h2.595l.168.688z" class="B"/><path d="M99.447 211.637l-.59 2.148c-.014.056-.056.085-.098.07l-30.3-9.057c-.042-.014-.056-.07-.042-.113l.575-2.134c0-.028.028-.042.042-.056s.042-.015.056-.015l30.3 9.058c.014 0 .028.028.042.042s.014.043.014.057z" class="D"/><path d="M69.443 202.608l-.617 2.29c-.042.154-.168.252-.295.224l-.687-.2c-.112-.028-.182-.197-.14-.35l.617-2.3c.042-.154.168-.252.294-.224l.687.2c.112.03.182.183.14.352z" class="C"/><path d="M66.65 202.44l-.28 1.067c-.084.295.098.604.407.702l.968.28.575-2.148-.968-.28c-.31-.084-.617.084-.7.38z" class="D"/><path d="M99.36 211.622l.912.927.7.716-.953.225-1.235.28.575-2.15z" class="B"/><path d="M101.046 213.28c-.014.056-.042.084-.07.084l-2.19.505c-.028 0-.056 0-.07-.028s-.014-.056-.014-.084l.575-2.135c.014-.028.028-.056.056-.07s.056-.014.07.014l1.614 1.643c.028 0 .042.028.028.07zm-2.147.365l1.894-.436-1.39-1.418-.505 1.854z" class="D"/><path d="M100.273 212.55l.7.716-.953.225.252-.94z" fill="#f0e1d4"/><path d="M101.046 213.28c-.014.057-.042.085-.07.085l-.954.224c-.028 0-.056 0-.07-.028s-.014-.056-.014-.084l.252-.927c.014-.028.028-.056.056-.07s.056-.014.07.014l.702.716c.028 0 .042.028.028.07zm-44.37-51.483c0 .085 0 .183-.014.267l-2.286 18.256a25.91 25.91 0 0 1-2.834.155l1.122-18.804c.07-1.053.94-1.882 2.006-1.882 1.122 0 2.006.913 2.006 2.008z" class="D"/><defs ><path id="B" d="M213.323 165.4c.925 0 1.675-.75 1.675-1.678s-.75-1.677-1.675-1.677-1.676.75-1.676 1.677a1.68 1.68 0 0 0 1.676 1.678z"/><path id="C" d="M230.77 165.4c.925 0 1.675-.75 1.675-1.678s-.75-1.677-1.675-1.677-1.676.75-1.676 1.677.75 1.678 1.676 1.678z"/><path id="D" d="M265.66 165.4c.926 0 1.676-.75 1.676-1.678s-.75-1.677-1.676-1.677-1.675.75-1.675 1.677.75 1.678 1.675 1.678z"/><path id="E" d="M317.998 165.4a1.68 1.68 0 0 0 1.676-1.678c0-.926-.75-1.677-1.676-1.677s-1.675.75-1.675 1.677.75 1.678 1.675 1.678z"/><path id="F" d="M335.444 165.4c.925 0 1.675-.75 1.675-1.678s-.75-1.677-1.675-1.677-1.675.75-1.675 1.677.75 1.678 1.675 1.678z"/><path id="G" d="M222.305 153.64c.925 0 1.675-.75 1.675-1.677s-.75-1.678-1.675-1.678a1.68 1.68 0 0 0-1.676 1.678c0 .926.75 1.677 1.676 1.677z"/><path id="H" d="M239.75 153.64c.925 0 1.675-.75 1.675-1.677s-.75-1.678-1.675-1.678-1.676.75-1.676 1.678.75 1.677 1.676 1.677z"/><path id="I" d="M257.196 153.64c.926 0 1.676-.75 1.676-1.677s-.75-1.678-1.676-1.678-1.675.75-1.675 1.678.75 1.677 1.675 1.677z"/><path id="J" d="M230.77 118.708c.925 0 1.675-.75 1.675-1.677s-.75-1.677-1.675-1.677-1.676.75-1.676 1.677.75 1.677 1.676 1.677z"/><path id="K" d="M283.106 118.708c.926 0 1.676-.75 1.676-1.677s-.75-1.677-1.676-1.677-1.675.75-1.675 1.677.75 1.677 1.675 1.677z"/><path id="L" d="M335.444 118.708c.925 0 1.675-.75 1.675-1.677s-.75-1.677-1.675-1.677-1.675.75-1.675 1.677.75 1.677 1.675 1.677z"/></defs></svg>