<svg xmlns="http://www.w3.org/2000/svg" width="48" height="48" fill="#7772f1" xmlns:v="https://vecta.io/nano"><path d="M29.284 34.127c-.04-.67-.335-1.312-.828-1.805l-3.56-3.562a3.73 3.73 0 0 0 1.517-.918l.1-.1c1.57-1.57 1.443-4.248-.28-5.972-.82-.82-1.88-1.3-2.988-1.375-1.15-.07-2.2.32-2.985 1.095l-.1.1a3.73 3.73 0 0 0-.918 1.518l-3.56-3.56c-1.05-1.05-2.694-1.113-3.665-.14L8.79 22.646a1.67 1.67 0 0 0-.439 1.536 1.85 1.85 0 0 0 1.149 1.348 2.88 2.88 0 0 1 1.003.659l.102.102c.496.496.8 1.126.83 1.775.037.606-.158 1.155-.55 1.546s-.94.586-1.546.55c-.65-.04-1.28-.334-1.775-.83l-.102-.102c-.293-.293-.515-.63-.658-1.003a1.85 1.85 0 0 0-1.348-1.149 1.67 1.67 0 0 0-1.536.439L.693 30.725c-.972.972-.908 2.616.14 3.665l3.56 3.56c-.575.182-1.095.495-1.518.918l-.1.1c-1.57 1.57-1.443 4.248.28 5.972.915.915 2.1 1.38 3.244 1.38 1.012 0 1.992-.363 2.728-1.1l.1-.1a3.73 3.73 0 0 0 .918-1.518l3.56 3.56a2.8 2.8 0 0 0 1.806.828l.154.005c.647 0 1.262-.248 1.706-.7l3.07-3.07c.24.58.6 1.104 1.044 1.56l.102.102c1.724 1.724 4.403 1.85 5.972.28s1.443-4.248-.28-5.972l-.102-.102a4.75 4.75 0 0 0-1.559-1.044l3.074-3.074c.48-.48.73-1.157.687-1.86zm-2.013.534l-3.228 3.228a1.67 1.67 0 0 0-.439 1.536 1.85 1.85 0 0 0 1.149 1.348c.372.144.7.365 1.003.66l.102.102c.993.993 1.12 2.483.28 3.32s-2.328.712-3.32-.28l-.102-.102c-.293-.293-.515-.63-.66-1.002a1.85 1.85 0 0 0-1.348-1.149 1.67 1.67 0 0 0-1.535.439l-3.224 3.224c-.13.13-.3.15-.42.14a.94.94 0 0 1-.593-.282l-1.43-1.43 3.1-3.1a.94.94 0 0 0 0-1.326.94.94 0 0 0-1.326 0l-3.1 3.1-.97-.97c-.355-.355-.823-.547-1.294-.547a1.72 1.72 0 0 0-.486.07 1.59 1.59 0 0 0-1.12 1.214c-.08.37-.25.688-.506.945l-.1.1c-.838.838-2.328.712-3.32-.28s-1.12-2.483-.28-3.32l.1-.1a1.86 1.86 0 0 1 .945-.506 1.59 1.59 0 0 0 1.214-1.12c.184-.62.001-1.302-.477-1.78L2.16 33.065a.94.94 0 0 1-.282-.593c-.007-.12.01-.3.14-.42l3.07-3.07a4.97 4.97 0 0 0 1.044 1.56l.102.102c1.724 1.724 4.403 1.85 5.972.28s1.443-4.248-.28-5.972l-.102-.102a4.75 4.75 0 0 0-1.559-1.044l3.074-3.074c.237-.236.7-.172 1.014.14l3.725 3.725c.478.478 1.16.66 1.78.477a1.59 1.59 0 0 0 1.12-1.214c.08-.37.25-.688.506-.945l.1-.1c.4-.4.94-.586 1.546-.55.65.04 1.28.334 1.775.83.993.993 1.12 2.483.28 3.32l-.1.1a1.86 1.86 0 0 1-.945.506 1.59 1.59 0 0 0-1.214 1.12c-.184.62-.001 1.302.477 1.78l3.725 3.725a.94.94 0 0 1 .282.593c.007.12-.01.3-.14.42zm-8.25 2.91c-.174-.174-.416-.275-.663-.275a.94.94 0 0 0-.663.275.95.95 0 0 0-.275.663c0 .247.1.488.275.663a.94.94 0 0 0 1.326 0c.175-.175.275-.416.275-.663a.94.94 0 0 0-.275-.663zm19.9-25.665c-.174-.174-.416-.275-.663-.275s-.488.1-.663.275-.275.416-.275.663a.94.94 0 0 0 .275.663.95.95 0 0 0 .663.275.94.94 0 0 0 .663-.275.95.95 0 0 0 .275-.663c0-.247-.1-.488-.275-.663zm7.02 9.64c-.5-.5-1.125-.9-1.788-1.132l3.143-3.143c.48-.48.73-1.157.687-1.86a2.8 2.8 0 0 0-.828-1.806l-3.5-3.492a3.74 3.74 0 0 0 1.31-.846l.1-.1c1.57-1.57 1.443-4.248-.28-5.972s-4.403-1.85-5.972-.28l-.1.1a3.73 3.73 0 0 0-.846 1.31L34.4.83C33.34-.22 31.697-.282 30.725.7l-3.143 3.143c-.233-.662-.622-1.28-1.13-1.788l-.102-.102c-1.724-1.724-4.403-1.85-5.972-.28s-1.443 4.248.28 5.972l.102.102c.5.5 1.125.9 1.788 1.13L19.404 12c-.972.972-.908 2.616.142 3.666l3.73 3.726c.478.478 1.16.66 1.78.477a1.59 1.59 0 0 0 1.12-1.214c.08-.37.25-.688.506-.945l.1-.1c.4-.4.94-.586 1.546-.55.65.04 1.28.334 1.775.83s.8 1.126.83 1.775c.037.606-.158 1.155-.55 1.546l-.1.1a1.86 1.86 0 0 1-.945.506 1.59 1.59 0 0 0-1.214 1.12c-.183.62-.001 1.302.477 1.78l3.722 3.725a2.79 2.79 0 0 0 1.963.83c.63 0 1.242-.228 1.703-.7l3.143-3.143c.233.662.622 1.28 1.13 1.788l.102.102c1.724 1.724 4.403 1.85 5.972.28s1.443-4.248-.28-5.972l-.103-.102zM45 26.295c-.838.838-2.328.712-3.32-.28l-.102-.102a2.89 2.89 0 0 1-.708-1.142 1.87 1.87 0 0 0-1.334-1.233c-.583-.14-1.175.02-1.583.43l-3.3 3.3c-.13.13-.3.15-.42.14a.94.94 0 0 1-.592-.282l-3.558-3.56c.575-.182 1.095-.495 1.518-.918l.1-.1c.775-.776 1.164-1.836 1.095-2.985-.067-1.107-.555-2.168-1.376-2.988s-1.88-1.3-2.988-1.376c-1.15-.07-2.2.32-2.985 1.095l-.1.1a3.73 3.73 0 0 0-.918 1.518l-3.56-3.562a.94.94 0 0 1-.282-.593c-.007-.12.01-.3.14-.42l3.3-3.3c.408-.408.57-1 .428-1.583a1.87 1.87 0 0 0-1.233-1.334 2.89 2.89 0 0 1-1.141-.708L21.98 6.3c-.993-.993-1.12-2.482-.28-3.32s2.328-.712 3.32.28l.102.102a2.89 2.89 0 0 1 .708 1.142 1.87 1.87 0 0 0 1.334 1.233c.583.14 1.175-.02 1.583-.43l3.3-3.3c.237-.236.7-.172 1.014.14L36.707 5.8c.462.462 1.124.65 1.73.5a1.6 1.6 0 0 0 1.145-1.127c.1-.318.25-.594.475-.82l.1-.1c.838-.838 2.328-.712 3.32.28s1.12 2.483.28 3.32l-.1.1a1.84 1.84 0 0 1-.82.475 1.6 1.6 0 0 0-1.127 1.145c-.16.605.03 1.268.5 1.73l3.64 3.64a.94.94 0 0 1 .282.593c.007.12-.01.3-.14.42l-1.505 1.505-3.107-3.107a.94.94 0 0 0-1.326 0 .94.94 0 0 0 0 1.326l3.107 3.107-.47.47c-.408.408-.568 1-.43 1.583a1.87 1.87 0 0 0 1.233 1.334c.42.136.815.38 1.142.708l.102.102c.993.993 1.12 2.483.28 3.32z"/></svg>