<svg xmlns="http://www.w3.org/2000/svg" width="48" height="48" fill="#7772f1" xmlns:v="https://vecta.io/nano"><path d="M23.538 5.525c-.174-.174-.415-.275-.663-.275a.94.94 0 0 0-.663.275c-.175.175-.275.416-.275.663s.1.488.275.663.416.275.663.275.488-.1.663-.275a.94.94 0 0 0 0-1.326zm23.525 30.288h-1.5v-25.5A5.07 5.07 0 0 0 40.5 5.25H26.813a.94.94 0 0 0-.937.938.94.94 0 0 0 .938.938H40.5a3.19 3.19 0 0 1 3.188 3.188v3.612L20.025 28.92l-7.693-7.693a.94.94 0 0 0-1.326 0L4.313 27.92v-5.6l7.357-7.357 7.56 7.56a.94.94 0 0 0 1.165.129l14.675-9.3a.94.94 0 0 0 .77.813.91.91 0 0 0 .162.014.94.94 0 0 0 .922-.777l.377-2.164a.94.94 0 0 0-.206-.764c-.178-.212-.44-.334-.718-.334h-2.094a.94.94 0 0 0-.937.938c0 .36.203.673.502.83l-13.822 8.76-7.693-7.693a.94.94 0 0 0-1.326 0L4.313 19.67v-9.355A3.19 3.19 0 0 1 7.5 7.125h11.156a.94.94 0 0 0 .938-.937.94.94 0 0 0-.938-.937H7.5a5.07 5.07 0 0 0-5.062 5.063v25.5h-1.5A.94.94 0 0 0 0 36.75v1.22a4.79 4.79 0 0 0 4.781 4.781h38.44A4.79 4.79 0 0 0 48 37.969v-1.22a.94.94 0 0 0-.937-.937zm-9.75-15.628l6.375-4.04v19.668h-6.375V20.185zm-8.25 5.228l6.375-4.04v14.44h-6.375v-10.4zm-8.25 5.228l6.375-4.04v9.2h-6.375v-5.17zm-8.25-6.53l6.375 6.375v5.328h-6.375V24.1zm-8.25 6.463l6.375-6.375v11.615H4.313v-5.24zm41.813 7.396a2.91 2.91 0 0 1-2.906 2.906H4.78a2.91 2.91 0 0 1-2.906-2.906v-.28h44.25v.28z"/></svg>