<svg xmlns="http://www.w3.org/2000/svg" width="48" height="48" fill="none" xmlns:v="https://vecta.io/nano"><g clip-path="url(#A)" fill="#7772f1"><path d="M47.995 21.077a24.14 24.14 0 0 0-6.886-14.184A24.14 24.14 0 0 0 26.926.006a.94.94 0 0 0-.732.231.94.94 0 0 0-.314.701v8.164a.94.94 0 0 0 .938.938.94.94 0 0 0 .938-.937V2.017a22.08 22.08 0 0 1 18.23 18.232h-18.23v-4.68a.94.94 0 0 0-.937-.937.94.94 0 0 0-.937.938v5.616a.94.94 0 0 0 .938.938h20.248c.268 0 .523-.114.7-.314a.94.94 0 0 0 .23-.733zm-21.18-9.73a.94.94 0 0 0-.937.938v.025a.94.94 0 0 0 .938.938.94.94 0 0 0 .938-.937v-.025a.94.94 0 0 0-.937-.937zM22.086 41.5c-3.784-.092-7.366-1.382-10.358-3.732-.407-.32-.997-.25-1.316.158a.94.94 0 0 0 .158 1.316c3.313 2.6 7.28 4.03 11.47 4.13h.023A.94.94 0 0 0 23 42.47a.94.94 0 0 0-.915-.96zm3.588.706a.94.94 0 0 0-1.042-.82l-.02.002a.94.94 0 0 0-.82 1.042.94.94 0 0 0 .93.827.84.84 0 0 0 .112-.007l.02-.002a.94.94 0 0 0 .82-1.042zm18.763-17.83l-.05.001H23.625V3.563a.94.94 0 0 0-.937-.937A22.54 22.54 0 0 0 6.645 9.271 22.53 22.53 0 0 0 0 25.313c0 6.06 2.36 11.757 6.645 16.042S16.627 48 22.688 48s11.757-2.36 16.042-6.645 6.645-9.982 6.645-16.042a.94.94 0 0 0-.937-.937zm-21.75 21.75c-11.476 0-20.812-9.336-20.812-20.812 0-11.162 8.833-20.3 19.875-20.792v20.793c0 .312.153.588.388.758l16.83 12.2c-3.816 4.788-9.696 7.863-16.28 7.863zm17.383-9.38L25.58 26.25h17.9a20.68 20.68 0 0 1-3.409 10.493z"/></g><defs><clipPath id="A"><path fill="#fff" d="M0 0h48v48H0z"/></clipPath></defs></svg>