<svg xmlns="http://www.w3.org/2000/svg" width="48" height="48" fill="#7772f1" xmlns:v="https://vecta.io/nano"><path d="M36.938 22.602a.94.94 0 0 0-.937.938v.14a.94.94 0 0 0 .938.938.94.94 0 0 0 .938-.937v-.14a.94.94 0 0 0-.937-.937z"/><path d="M42.938 17.613V8.07c0-1.913-1.556-3.47-3.47-3.47a3.45 3.45 0 0 0-2.131.735l-10.03 3.76a.94.94 0 0 0 .329 1.816.93.93 0 0 0 .329-.06l8.045-3.013-.01.234v10.875a.94.94 0 0 0 .938.938.94.94 0 0 0 .938-.937V8.07c0-.88.715-1.594 1.594-1.594s1.594.715 1.594 1.594v30.937c0 .88-.715 1.594-1.594 1.594s-1.594-.715-1.594-1.594V27.664a.94.94 0 0 0-.937-.937.94.94 0 0 0-.937.938V39.01l.01.234L12.377 30.4V16.7l9.516-3.564a.94.94 0 0 0 .549-1.207.94.94 0 0 0-1.207-.55l-9.965 3.733H5.53A5.54 5.54 0 0 0 0 20.633v5.813a5.54 5.54 0 0 0 5.353 5.527l4.13 10.823a.94.94 0 0 0 .876.603h5.438a.94.94 0 0 0 .876-1.272l-3.62-9.48 24.284 9.096a3.45 3.45 0 0 0 2.131.735c1.913 0 3.47-1.556 3.47-3.47v-9.543A6.01 6.01 0 0 0 48 23.539a6.01 6.01 0 0 0-5.062-5.926zM5.53 30.102a3.66 3.66 0 0 1-3.656-3.656v-5.812a3.66 3.66 0 0 1 3.656-3.656h4.97v13.125H5.53zm8.904 11.422h-3.43L7.36 31.977h3.43l3.644 9.547zm28.502-13.968v-8.032c1.824.426 3.188 2.064 3.188 4.016s-1.363 3.6-3.187 4.016zm-17.652-17.12c-.174-.174-.416-.275-.663-.275s-.488.1-.663.275-.275.416-.275.663a.94.94 0 0 0 .275.663.95.95 0 0 0 .663.275c.247 0 .488-.1.663-.275s.275-.416.275-.663-.1-.488-.275-.663zM6.85 20.595a.94.94 0 0 0-1.326 0c-.174.174-.275.416-.275.663s.1.488.275.663.416.275.663.275.488-.1.663-.275.275-.416.275-.663-.1-.488-.275-.663zm1.025 5.1h-3a.94.94 0 0 0-.937.938.94.94 0 0 0 .938.938h3a.94.94 0 0 0 .938-.937.94.94 0 0 0-.937-.937z"/></svg>