<svg xmlns="http://www.w3.org/2000/svg" width="48" height="48" fill="none" xmlns:v="https://vecta.io/nano"><g clip-path="url(#A)" fill="#ff3f3a"><path d="M32.802 23.618c-.174-.174-.416-.274-.662-.274s-.488.1-.662.274-.275.416-.275.662a.94.94 0 0 0 .275.662c.175.174.416.275.662.275s.487-.1.662-.275.275-.416.275-.662a.94.94 0 0 0-.275-.662zM38.98 2.542H8.996a.94.94 0 0 0-.937.937v14.993a.94.94 0 0 0 .937.937H23.05v3.936H7.044a.94.94 0 0 0-.937.937v7.3H.937C.42 31.6 0 32 0 32.527V44.52a.94.94 0 0 0 .937.937H12.93a.94.94 0 0 0 .937-.937V32.527a.94.94 0 0 0-.937-.937H7.98v-6.372h15.07V31.6h-5.048a.94.94 0 0 0-.937.937V44.52a.94.94 0 0 0 .937.937h11.994a.94.94 0 0 0 .937-.937V32.527a.94.94 0 0 0-.937-.937h-5.072v-6.372h3.748a.94.94 0 0 0 .937-.937.94.94 0 0 0-.937-.937h-3.748V19.4H38.98a.94.94 0 0 0 .937-.937V3.48a.94.94 0 0 0-.937-.937zM11.994 33.464v10.12H1.874v-10.12h10.12zm17.066 0v10.12H18.94v-10.12h10.12zm8.984-15.93H9.933v-9.37h6.348a.94.94 0 0 0 .937-.937.94.94 0 0 0-.937-.937H9.933V4.416h28.1v13.118zm9.02 14.066H41.87v-7.3a.94.94 0 0 0-.937-.937h-5.138a.94.94 0 0 0-.937.937.94.94 0 0 0 .937.937h4.2V31.6H35.07a.94.94 0 0 0-.937.937V44.52c0 .518.42.937.937.937h11.994a.94.94 0 0 0 .937-.937V32.527a.94.94 0 0 0-.937-.937zm-.937 11.994h-10.12v-10.12h10.12v10.12zm-25.24-37.03C20.7 6.4 20.47 6.3 20.222 6.3a.94.94 0 0 0-.937.937c0 .246.1.488.274.662a.95.95 0 0 0 .663.275.94.94 0 0 0 .662-.275c.175-.175.275-.416.275-.662a.94.94 0 0 0-.275-.662z"/></g><defs><clipPath id="A"><path fill="#fff" d="M0 0h48v48H0z"/></clipPath></defs></svg>