<svg xmlns="http://www.w3.org/2000/svg" xmlns:xlink="http://www.w3.org/1999/xlink" width="48" height="48" fill="none" xmlns:v="https://vecta.io/nano"><g fill="#ff3f3a"><path d="M45.35 26.44c1.735-2.75 2.65-5.916 2.65-9.2C48 7.738 40.26 0 30.75 0a17.22 17.22 0 0 0-9.002 2.532.94.94 0 0 0-.309 1.289.94.94 0 0 0 1.289.309 15.34 15.34 0 0 1 8.022-2.256c8.478 0 15.375 6.897 15.375 15.375 0 3.075-.904 6.042-2.616 8.58a.94.94 0 0 0 .026 1.085l1.027 3.834-4.123-1.105a.94.94 0 0 0-.786.142 15.27 15.27 0 0 1-8.903 2.838 15.31 15.31 0 0 1-5.326-.95 12.99 12.99 0 0 0-9.1-9.1c-.63-1.703-.95-3.494-.95-5.326a15.33 15.33 0 0 1 2.303-8.098.94.94 0 0 0-.302-1.291.94.94 0 0 0-1.291.302 17.21 17.21 0 0 0-2.584 9.09c0 1.686.242 3.342.72 4.94-.422-.042-.85-.063-1.282-.063C5.804 22.125 0 27.93 0 35.063c0 2.56.74 5.018 2.145 7.136l-1.003 3.745a.94.94 0 0 0 1.148 1.148l3.838-1.028A12.88 12.88 0 0 0 12.937 48a12.9 12.9 0 0 0 6.932-2.012.94.94 0 0 0 .288-1.294.94.94 0 0 0-1.294-.288c-1.77 1.125-3.818 1.72-5.926 1.72a11.01 11.01 0 0 1-6.132-1.854c-.224-.15-.502-.196-.763-.126l-2.67.715.695-2.594a.94.94 0 0 0-.142-.787c-1.34-1.88-2.05-4.1-2.05-6.417A11.08 11.08 0 0 1 12.937 24 11.08 11.08 0 0 1 24 35.063a11.03 11.03 0 0 1-.666 3.789.94.94 0 0 0 .56 1.202.94.94 0 0 0 1.202-.56 12.9 12.9 0 0 0 .779-4.432 13.02 13.02 0 0 0-.063-1.282 17.21 17.21 0 0 0 4.939.719 17.13 17.13 0 0 0 9.623-2.932l5.273 1.413c.324.087.67-.006.906-.243a.94.94 0 0 0 .243-.906l-1.445-5.4zm-9.768-7.194h-9.55a.94.94 0 0 0-.937.938 5.72 5.72 0 0 0 5.712 5.712 5.72 5.72 0 0 0 5.712-5.712.94.94 0 0 0-.938-.937zm-4.774 4.774a3.84 3.84 0 0 1-3.72-2.9h7.442c-.42 1.664-1.93 2.9-3.72 2.9z"/><use xlink:href="#B"/><use xlink:href="#B" x="-12.881" y="-0.001"/><use xlink:href="#C"/><path d="M13.6 34.4c-.174-.174-.416-.275-.663-.275s-.488.1-.663.275-.275.416-.275.663.1.488.275.663.416.275.663.275.49-.1.663-.275.275-.416.275-.663-.1-.488-.275-.663z"/><use xlink:href="#C" x="10.314"/><path d="M22.953 41.918c-.174-.174-.416-.275-.663-.275s-.488.1-.663.275-.275.416-.275.663.1.488.275.663a.94.94 0 0 0 1.326 0 .95.95 0 0 0 .275-.663.94.94 0 0 0-.275-.663zM19.9 5.022c-.174-.174-.416-.274-.663-.274a.94.94 0 0 0-.663.274c-.175.175-.275.416-.275.664a.94.94 0 0 0 .938.937c.247 0 .488-.1.663-.274a.94.94 0 0 0 .275-.663c0-.247-.1-.488-.275-.664z"/></g><defs ><path id="B" d="M38.108 14.046a.94.94 0 0 0-1.29-.306l-.122.075a.94.94 0 0 0-.305 1.29c.177.287.484.445.798.445.168 0 .338-.045.492-.14l.12-.074a.94.94 0 0 0 .306-1.29z"/><path id="C" d="M8.443 34.4c-.174-.174-.416-.275-.663-.275s-.488.1-.663.275-.275.416-.275.663.1.488.275.663.416.275.663.275.488-.1.663-.275.275-.416.275-.663-.1-.488-.275-.663z"/></defs></svg>