<svg xmlns="http://www.w3.org/2000/svg" width="48" height="48" fill="#ff3f3a" xmlns:v="https://vecta.io/nano"><path d="M43.63 17.712c-.174-.174-.415-.275-.663-.275a.94.94 0 0 0-.663.275.95.95 0 0 0-.275.663c0 .247.1.488.275.663s.416.275.663.275.488-.1.663-.275.275-.416.275-.663-.1-.488-.275-.663zm-.85-10.774h-1.074c.166-.17.27-.4.27-.656v-1.22a3.19 3.19 0 0 0-3.187-3.187 3.19 3.19 0 0 0-3.187 3.188v1.875h-8.694c.166-.17.27-.4.27-.656v-1.22a3.19 3.19 0 0 0-3.187-3.187 3.19 3.19 0 0 0-3.187 3.188v1.875H12.1c.166-.17.27-.4.27-.656v-1.22A3.19 3.19 0 1 0 6 5.063v1.875h-.78C2.34 6.938 0 9.28 0 12.156v31.156a2.82 2.82 0 0 0 2.813 2.813H19a.94.94 0 0 0 .938-.937.94.94 0 0 0-.937-.937H2.813a.94.94 0 0 1-.937-.937v-24h36.5a.94.94 0 0 0 .938-.937.94.94 0 0 0-.937-.937h-36.5v-5.28a3.35 3.35 0 0 1 3.344-3.344H6v2.266a3.19 3.19 0 0 0 3.188 3.188 3.19 3.19 0 0 0 3.188-3.187.94.94 0 0 0-.937-.937.94.94 0 0 0-.937.938c0 .724-.6 1.313-1.312 1.313s-1.312-.6-1.312-1.312V8.813H20.8v2.266a3.19 3.19 0 0 0 3.188 3.188 3.19 3.19 0 0 0 3.188-3.187.94.94 0 0 0-.937-.937.94.94 0 0 0-.937.938c0 .724-.6 1.313-1.312 1.313s-1.312-.6-1.312-1.312v-2.27H35.6v2.266a3.19 3.19 0 0 0 3.188 3.188 3.19 3.19 0 0 0 3.188-3.187.94.94 0 0 0-.937-.937.94.94 0 0 0-.937.938c0 .724-.6 1.313-1.312 1.313s-1.312-.6-1.312-1.312v-2.27h5.305a3.35 3.35 0 0 1 3.344 3.344v31.156a.94.94 0 0 1-.937.938H29a.94.94 0 0 0-.937.938.94.94 0 0 0 .938.938H45.19a2.82 2.82 0 0 0 2.813-2.812v-31.16c0-2.878-2.34-5.22-5.22-5.22zm-34.906 0V5.063c0-.724.6-1.312 1.313-1.312s1.313.6 1.313 1.313v1.22a.93.93 0 0 0 .27.656H7.875zm14.8 0V5.063c0-.724.6-1.312 1.313-1.312s1.313.6 1.313 1.313v1.22a.93.93 0 0 0 .27.656h-2.894zm14.8 0V5.063c0-.724.6-1.312 1.313-1.312s1.313.6 1.313 1.313v1.22a.93.93 0 0 0 .27.656h-2.894zM9 22.313c-2.17 0-3.937 1.766-3.937 3.938S6.83 30.188 9 30.188s3.938-1.766 3.938-3.937S11.17 22.313 9 22.313zm0 6c-1.137 0-2.062-.925-2.062-2.062S7.863 24.188 9 24.188s2.063.925 2.063 2.063-.925 2.063-2.062 2.063zm30-6c-2.17 0-3.937 1.766-3.937 3.938S36.83 30.188 39 30.188s3.938-1.766 3.938-3.937S41.17 22.313 39 22.313zm0 6c-1.137 0-2.062-.925-2.062-2.062S37.863 24.19 39 24.19s2.063.925 2.063 2.063-.925 2.063-2.062 2.063z"/><path d="M29 22.313c-2.17 0-3.937 1.766-3.937 3.938S26.83 30.188 29 30.188s3.937-1.766 3.937-3.937S31.17 22.314 29 22.314zm0 6c-1.137 0-2.062-.925-2.062-2.062S27.863 24.19 29 24.19s2.063.925 2.063 2.063-.925 2.063-2.062 2.063zm-10-6c-2.17 0-3.937 1.766-3.937 3.938S16.83 30.19 19 30.19s3.938-1.766 3.938-3.937-1.768-3.94-3.938-3.94zm0 6c-1.137 0-2.062-.925-2.062-2.062S17.863 24.19 19 24.19s2.063.925 2.063 2.063-.925 2.063-2.062 2.063zM9 33.75c-2.17 0-3.937 1.766-3.937 3.938S6.83 41.625 9 41.625s3.938-1.766 3.938-3.937S11.17 33.75 9 33.75zm0 6c-1.137 0-2.062-.925-2.062-2.062S7.863 35.625 9 35.625s2.063.925 2.063 2.063S10.137 39.75 9 39.75zm20-6c-2.17 0-3.937 1.766-3.937 3.938S26.83 41.625 29 41.625s3.937-1.766 3.937-3.937S31.172 33.75 29 33.75zm0 6c-1.137 0-2.062-.925-2.062-2.062s.925-2.062 2.063-2.062 2.063.925 2.063 2.063-.926 2.06-2.064 2.06zm10-6c-2.17 0-3.937 1.766-3.937 3.938S36.83 41.625 39 41.625s3.938-1.766 3.938-3.937S41.17 33.75 39 33.75zm0 6c-1.137 0-2.062-.925-2.062-2.062s.925-2.062 2.063-2.062 2.063.925 2.063 2.063-.927 2.06-2.064 2.06zm-20-6c-2.17 0-3.937 1.766-3.937 3.938S16.83 41.626 19 41.626s3.938-1.766 3.938-3.937S21.17 33.75 19 33.75zm0 6c-1.137 0-2.062-.925-2.062-2.062s.925-2.062 2.063-2.062 2.063.925 2.063 2.063-.928 2.06-2.064 2.06zm5.663 4.775c-.174-.174-.416-.275-.663-.275s-.488.1-.663.275a.94.94 0 0 0 0 1.326c.174.174.415.275.663.275a.94.94 0 0 0 .663-.275c.175-.175.275-.416.275-.663s-.1-.488-.275-.663z"/></svg>