<svg xmlns="http://www.w3.org/2000/svg" width="1920" height="600" fill="none" xmlns:v="https://vecta.io/nano"><g clip-path="url(#A)"><g opacity=".4" stroke="#00f0b5"><path d="M58.07 402.035l21.658-9.258c23.828-10.026 48.82-20.54 70.005-34.328 27.724-18.04 48.83-41.62 52.187-76.92 3.26-34.26-15.88-58.905-40.513-82.37-6.156-5.864-12.648-11.647-19.212-17.486l-.464-.413-19.164-17.393c-12.863-12.15-24.934-25.045-34.035-39.734-9.976-16.103-16.76-35-22.368-54.617-2.805-9.805-5.32-19.793-7.79-29.698l-.487-1.95-7.06-27.266C40.246-27.395 26.338-59.755-6.8-70.348c-35.387-11.312-74.37-2.195-108.687 18.652s-63.9 53.38-80.47 88.78c-14.282 30.513-7.148 62.24 5.35 95.104 3.773 9.92 8.022 19.914 12.31 30.002l8.4 20.032c6.875 16.92 13.053 34.09 16.484 51.464 3.3 16.662 3.902 34.39 3.763 52.21l-.4 21.168-.357 31.676c.545 34.206 5.75 64.908 30.735 84.774 26.013 20.683 55.925 21.737 86.63 14.394 25.034-5.988 50.522-17.538 74.78-28.53l16.34-7.342z"/><path d="M45.59 354.21l17.06-7.292c18.76-7.894 38.424-16.168 55.096-27.017 21.813-14.194 38.402-32.736 41.042-60.484 2.562-26.922-12.474-46.294-31.865-64.765-4.846-4.616-9.955-9.168-15.124-13.766l-.366-.325-15.1-13.696c-10.13-9.568-19.642-19.73-26.814-31.306-7.862-12.69-13.206-27.59-17.623-43.03-2.21-7.722-4.19-15.588-6.135-23.386l-.383-1.537L39.83 46.14C31.5 16.222 20.56-9.2-5.47-17.52c-27.823-8.894-58.482-1.73-85.486 14.675s-50.28 42.004-63.317 69.856c-11.226 23.983-5.623 48.927 4.215 74.797 2.97 7.81 6.314 15.674 9.7 23.615l6.608 15.777c5.414 13.324 10.28 26.85 12.984 40.54 2.592 13.13 3.074 27.095 2.965 41.128l-.316 16.672-.28 24.932c.43 26.928 4.528 51.055 24.158 66.663 20.445 16.256 43.957 17.1 68.116 11.312 19.7-4.71 39.756-13.8 58.854-22.454l12.87-5.783z"/><path d="M36.574 319.654l13.738-5.872c15.097-6.352 30.912-13.007 44.323-21.734 17.543-11.415 30.87-26.316 33-48.6 2.057-21.62-10.013-37.182-25.617-52.045-3.898-3.713-8.01-7.376-12.17-11.077l-.296-.263-12.146-11.024c-8.155-7.703-15.818-15.888-21.598-25.216-6.335-10.226-10.64-22.227-14.195-34.658-1.78-6.217-3.372-12.55-4.94-18.825l-.31-1.238-4.472-17.272c-6.707-24.084-15.5-44.5-36.395-51.17-22.357-7.147-47.004-1.392-68.723 11.802s-40.44 33.783-50.924 56.182c-9.017 19.265-4.522 39.308 3.395 60.125 2.4 6.284 5.08 12.6 7.796 19l5.32 12.704c4.358 10.725 8.278 21.617 10.455 32.646 2.088 10.577 2.476 21.825 2.388 33.12l-.254 13.424-.226 20.058c.346 21.67 3.645 41.047 19.406 53.578 16.422 13.058 35.3 13.733 54.74 9.086 15.845-3.79 31.977-11.1 47.347-18.064l10.363-4.657z"/></g></g><defs><clipPath id="A"><path fill="#fff" d="M0 0h1920v600H0z"/></clipPath></defs></svg>