<svg xmlns="http://www.w3.org/2000/svg" width="495" height="410" fill="none" xmlns:v="https://vecta.io/nano"><style><![CDATA[.B{fill:#1e212c}.C{stroke:#1e212c}.D{stroke-width:1.5}.E{stroke-linecap:round}.F{stroke-linejoin:round}]]></style><path d="M295.45 47.96L285.4 105.573l68.338 29.983 16.957-97.222-68.34-29.983-6.908 39.61z" fill="#e5e8ed"/><path d="M295.454 47.96s19.57-4.565 26.767-18.56c0 0 7.732 30.646 31.68 39.117" class="C D E F"/><path d="M332.308 74.922a1.94 1.94 0 0 0 2.242-1.575 1.94 1.94 0 0 0-1.577-2.241c-1.054-.184-2.058.522-2.24 1.576s.52 2.057 1.576 2.24zm-29.32-5.112c1.054.184 2.058-.522 2.24-1.576s-.522-2.057-1.576-2.24a1.94 1.94 0 0 0-2.242 1.576 1.94 1.94 0 0 0 1.577 2.241z" class="B"/><path d="M309.938 80.785l5.13-29.407L300.33 48.8m39.05 6.815l-14.74-2.568" class="C D E F"/><path d="M359.516 74.65l-1.78 10.212a10.13 10.13 0 0 0 11.718-8.235 10.32 10.32 0 0 0 .118-.915c.52-6.29-8.97-7.28-10.055-1.062z" fill="#edeeef"/><path d="M357.738 84.864a10.13 10.13 0 0 0 11.718-8.235m-54.338 12.53c2.68.467 5.433-.15 7.657-1.712a10.25 10.25 0 0 0 4.203-6.623m-41.576 24.747l68.338 29.984M309.934 80.8l6.17 2.707m-22.684-23.89S274.03-9.6 332.7 6.852c0 0 88.372 28.798 27.756 90.2" class="C D E F"/><path d="M494.154 348.346H22.06a.85.85 0 0 1-.598-.247c-.16-.16-.248-.374-.248-.598s.09-.44.248-.598.374-.248.598-.248h472.094a.84.84 0 0 1 .598.248c.16.158.248.374.248.598s-.09.44-.248.598-.373.247-.598.247z" fill="#d7dadd"/><path d="M405.003 232.666l34.967-8.86c-1.32-2.503-22.567-66.237-42.055-78.632-16.73-13.9-50.327-15.22-88.373-16.74a117.23 117.23 0 0 0-36.202 3.534c-44.372 12.26-75.55 75.165-75.55 75.165l43.713 8.64s-6.953 64.968-13.043 144.174c0 0 69.663 15.676 178.505 9.57l-1.962-136.852z" fill="#00f0b5"/><g class="B"><path d="M298.598 150.533L262.43 367.64l73.503 5.31 15.935-234.846-53.27 12.43z"/><path d="M335.933 373.795l-73.486-5.3a.87.87 0 0 1-.609-.321c-.14-.2-.2-.426-.17-.66l36.168-217.107a.81.81 0 0 1 .626-.676l53.288-12.446a.78.78 0 0 1 .387-.001c.127.033.244.097.34.187a.83.83 0 0 1 .236.31c.053.12.076.252.068.383L336.847 373a.89.89 0 0 1-.086.317.83.83 0 0 1-.202.258.84.84 0 0 1-.291.172c-.107.038-.22.054-.335.048h0zm-72.505-6.85l71.727 5.192 15.8-232.885-51.63 12.057-35.898 215.636zM438.295 292.9a.83.83 0 0 1-.508-.169l-24.952-19.142c-.177-.14-.293-.343-.324-.567a.88.88 0 0 1 .155-.634c.14-.173.34-.285.562-.314s.443.03.622.162l24.97 19.16c.137.1.236.258.284.426a.85.85 0 0 1-.014.512c-.058.165-.165.308-.307.4a.84.84 0 0 1-.487.158h0z"/></g><path d="M341.718 153.053s-9.558-9.165-12.095-20.376-1.556-13.63-3.3-14.02-4.686.795-6.868 4.617-1.6 17.265 1.962 22.676 20.3 7.102 20.3 7.102z" fill="#fff"/><path d="M341.716 153.88h-.085c-.694-.085-17.187-1.8-20.926-7.49s-4.38-19.396-1.98-23.556 5.582-5.496 7.765-5.073c1.573.338 1.69 1.69 2.148 4.55.288 2.097.7 5.276 1.8 10.146 2.453 10.822 11.757 19.87 11.842 19.954.12.125.203.283.237.454s.015.348-.05.51c-.067.148-.173.274-.308.363s-.292.14-.453.145h0zm-16.037-34.446c-1.37 0-3.67 1.048-5.498 4.228s-1.523 16.538 1.945 21.797c2.335 3.568 11.842 5.63 17.34 6.442-2.9-3.213-8.73-10.5-10.658-19.057-1.116-4.904-1.556-8.134-1.844-10.265-.338-2.452-.457-3.027-.83-3.11-.15-.024-.304-.03-.456-.017v-.017z" class="B"/><path d="M200.446 208.314s-42.494 104.52-26.56 136.312 172.67 45.995 172.67 45.995 19.928 8.455 26.12 9.74 29.672 2.655 29.672 2.655-8.864 1.69-5.768 4.414 20.3 2.655 22.144-3.535-3.096-30.98-8.46-34.97-65.535-18.6-69.95-19.024-103.598-34.818-103.598-34.818l12.84-97.063" fill="#fff"/><path d="M405.052 410c-3.94 0-7.578-.66-9.016-1.894-.356-.24-.63-.58-.79-.98s-.196-.834-.106-1.253a4.28 4.28 0 0 1 1.034-1.396c.436-.4.948-.686 1.504-.87-7.2-.457-20.622-1.42-25.173-2.4-6.022-1.286-24.326-8.963-26.153-9.724-8.086-.744-157.325-14.745-173.227-46.485-6.767-13.4-4.263-40.584 7.257-80.712 8.46-29.795 19.184-56.022 19.285-56.293a.85.85 0 0 1 1.108-.465.85.85 0 0 1 .466 1.108c-.423 1.048-42.174 104.453-26.593 135.618s170.42 45.42 171.992 45.555c.078-.017.16-.017.237 0 .203.085 19.928 8.455 25.984 9.7s29.3 2.62 29.536 2.638c.204.01.398.096.544.24s.235.335.25.538a.88.88 0 0 1-.176.571c-.124.163-.3.28-.5.326-2.555.507-5.532 1.69-5.735 2.435 0 .118.152.338.355.507 1.692 1.454 9.812 2.266 15.868.457 1.93-.592 4.365-1.69 4.906-3.585 1.793-6.257-3.383-30.438-8.103-34.057s-64.165-18.33-69.528-18.855c-4.483-.456-99.81-33.465-103.8-34.868-.183-.06-.338-.184-.44-.348s-.144-.357-.118-.548l12.84-97.08a.84.84 0 0 1 .106-.315c.056-.097.13-.182.22-.25a.84.84 0 0 1 .298-.148c.11-.03.22-.037.332-.022a.84.84 0 0 1 .316.106c.097.056.182.13.25.22a.84.84 0 0 1 .148.298c.03.108.037.22.022.332l-12.755 96.387 102.77 34.547c3.4.338 64.57 14.847 70.374 19.193s10.522 29.542 8.712 35.883c-.592 2.08-2.7 3.72-6.04 4.735a30.71 30.71 0 0 1-8.459 1.167z" class="B"/><path d="M380.204 238.854s-28.54-73.05-36.557-85.074-43.205-41.38-47.587-38.453-3.096 6.19-1.27 8.455 12.028 9.283 12.028 9.283-11.486-5.276-11.84 1.69 8.458 11.127 8.458 11.127-9.66-7.12-10.032.54a11.26 11.26 0 0 0 1.775 6.314c1.205 1.882 2.942 3.363 4.992 4.255 0 0-10.285-8.726-9.304.372 1.69 14.948 31.736 32.805 31.736 32.805l12.755 124.238s4.567 72.054 50.564 69.872c59.022-2.807 76.125-87.932 46.622-159.918" fill="#fff"/><path d="M383.8 385.058c-44.4 0-49.33-70.007-49.38-70.717l-12.704-123.78c-3.62-2.2-30.18-18.77-31.77-33.23-.27-2.468.237-4.058 1.506-4.734.77-.368 1.65-.44 2.47-.203-1.065-1.857-1.565-3.985-1.438-6.122-.06-.8.107-1.6.48-2.308s.94-1.298 1.634-1.7a4.33 4.33 0 0 1 2.385-.305 10.35 10.35 0 0 1-2.859-7.356c-.005-.722.173-1.433.516-2.07a4.29 4.29 0 0 1 1.447-1.566 8.46 8.46 0 0 1 5.785-.457c-2.734-1.884-5.32-3.975-7.73-6.257a5.89 5.89 0 0 1-1.818-5.203 5.89 5.89 0 0 1 1.087-2.623 5.9 5.9 0 0 1 2.186-1.812c3.214-2.148 16.07 7.643 23.43 13.68 9.5 7.762 20.993 18.516 25.375 25 7.968 11.972 35.525 82.25 36.64 85.243a.84.84 0 0 1-.49 1.082c-.102.044-.212.066-.322.065s-.22-.023-.322-.068-.192-.11-.268-.2-.134-.176-.17-.28c-.287-.727-28.606-73.085-36.49-84.905-3.67-5.513-13.703-15.422-24.986-24.655-13.652-11.177-20.3-14.272-21.417-13.528-.635.337-1.19.806-1.632 1.374s-.754 1.224-.922 1.923c-.03.705.084 1.41.334 2.07a5.23 5.23 0 0 0 1.121 1.77c1.438 1.69 9.05 7.17 11.84 9.13.172.123.292.306.336.513a.85.85 0 0 1-.099.603c-.1.187-.27.327-.47.393s-.42.053-.612-.037c-1.86-.863-7.2-2.757-9.508-1.353-.37.247-.67.585-.872.982s-.297.84-.278 1.284c-.203 3.923 2.876 6.933 5.26 8.675.972.492 1.905 1.057 2.79 1.69.16.127.27.31.306.5a.85.85 0 0 1-.574.956c-.195.063-.406.052-.594-.03-.997-.487-1.953-1.052-2.86-1.69-1.692-.896-3.705-1.505-4.822-.98-.693.32-1.082 1.184-1.15 2.554a9.52 9.52 0 0 0 .59 3.916 9.51 9.51 0 0 0 2.134 3.338c1.317.768 2.567 1.645 3.738 2.62.152.13.253.312.284.5s-.01.4-.115.572-.27.3-.46.364a.84.84 0 0 1-.587-.026c-1.396-.633-2.667-1.51-3.756-2.587-1.54-.862-2.994-1.386-3.755-.98s-.812 1.404-.626 3.06c1.573 14.357 31.025 31.994 31.313 32.13a.87.87 0 0 1 .287.272.85.85 0 0 1 .135.371l12.756 124.237c0 .744 4.973 71.276 49.667 69.112 18.524-.88 33.918-10.146 44.56-26.853 20.164-31.64 20.706-84.652 1.336-131.898a.86.86 0 0 1 .008-.641c.085-.205.246-.37.45-.46a.88.88 0 0 1 1.116.457c19.556 47.737 18.964 101.358-1.488 133.454-10.928 17.163-26.813 26.717-45.895 27.63l-2.064.05z" class="B"/><path d="M378.73 236.047s23.024 62.567 28.928 83.197z" fill="#fff"/><g class="B"><path d="M407.66 320.1a.83.83 0 0 1-.812-.608c-5.836-20.377-28.673-82.52-28.9-83.147a.83.83 0 0 1-.059-.33c.003-.113.028-.225.075-.328a.85.85 0 0 1 .196-.272c.083-.077.18-.136.287-.175a.85.85 0 0 1 .332-.049.84.84 0 0 1 .592.288.83.83 0 0 1 .167.291c.22.626 23.1 62.82 28.944 83.265a.86.86 0 0 1-.575 1.048l-.237.017zM253.295 175.864c0 1.776-3.553 34.818-3.553 34.818z"/><path d="M249.74 211.5h-.085c-.22-.025-.424-.137-.563-.31s-.205-.397-.18-.62l3.536-34.716a.85.85 0 0 1 .846-.845.85.85 0 0 1 .845.845c0 1.793-3.383 33.55-3.535 34.902-.025.21-.128.402-.287.54s-.365.21-.576.205z"/></g><g fill="#d7dadd"><path d="M108.622 295.925a13.66 13.66 0 0 0-1.962-8.15c-1.463-1.654-2.84-3.38-4.128-5.174-1.7-3.382-.524-7.22-.93-10.857a13.02 13.02 0 0 0-4.314-8.099c-2.148-1.928-4.906-3.247-6.97-5.26-3.383-3.28-4.33-7.913-6.242-12.023a31.37 31.37 0 0 0-13.533-14.035c3.67 6.544-4.686 14.864-.897 21.358 1.2 2.046 3.485 3.55 4.365 5.732 2.132 5.26-4.94 10.958-2.7 16.183 1.133 2.604 4.297 4.1 5.752 6.578 1.98 3.382.423 7.373.592 11.144.22 5.2 3.8 9.824 8.02 13.426 2.64 2.232 5.566 4.177 8.458 6.2 3.383 2.418 4.855 4.972 7.85 1.082a30.86 30.86 0 0 0 6.63-18.093h0zm7.613 2.453c-1.1-4.025-1.878-8.37 0-12.16 2.097-4.295 7.3-7.322 7.9-11.955.406-3.044-1.337-6.122-.66-9.115s3.383-5.073 5.735-7.254a28.74 28.74 0 0 0 8.847-18.601c3.477 3.624 6.334 7.794 8.46 12.344a14.28 14.28 0 0 1 1.207 7.129c-.216 2.44-1.057 4.784-2.442 6.805a12.81 12.81 0 0 0-2.132 3.095c-1.032 2.96 1.827 5.715 3.383 8.455.873 1.582 1.242 3.394 1.058 5.192s-.913 3.496-2.1 4.87c-2.995 3.382-8.763 4.6-10.15 8.624a18.06 18.06 0 0 0-.524 4.583c-.438 2.797-1.714 5.396-3.658 7.454a14.02 14.02 0 0 1-7.236 4.078c-3.553.744-3.384-.5-4.1-3.128-1.083-3.45-2.605-6.882-3.586-10.416z"/><path d="M104.968 269.495c-2.52-7.7-3.536-15.777-6.175-23.454a121.79 121.79 0 0 0-8.238-17.485l10.793 4.024c3.383 1.302 7.206 2.824 8.847 5.817 2.842 5.225-2.267 11.922.7 17.08a41.83 41.83 0 0 0 4.28 4.752c3.18 3.957 2.7 9.402.948 14.002-.745 1.978-4.026 12.225-6.953 9.385-1.167-1.15-1.27-5.395-1.692-6.95l-2.52-7.17zm-1.568 71.36l-3.552-26.26-1.692.22c0 .203 1.692 12.175 3.52 26.04h1.725z"/><path d="M117.992 340.856c2.318-18.026 4.72-31.402 6.074-32.9l-1.252-1.133c-1.878 2.063-4.416 17.705-6.513 34.023h1.7zm-2.06-.001c-1.844-32.586-5.075-64.918-5.075-65.34l-1.692.17c0 .423 3.383 32.67 5.075 65.17h1.692z"/><path d="M86.63 321.493h47.84l-3.383 35.95c-.575 6.223-7.545 11.06-15.936 11.06H105.9c-8.458 0-15.36-4.836-15.952-11.06l-3.316-35.95z"/></g></svg>