<svg xmlns="http://www.w3.org/2000/svg" width="495" height="410" fill="none" xmlns:v="https://vecta.io/nano"><path d="M257.22 59.456a7.84 7.84 0 0 0-1.692.237c-6.343 1.69-8.12 10.383-.998 12.716.984.266 2.013.322 3.02.164a7.25 7.25 0 0 0 2.823-1.083 7.24 7.24 0 0 0 2.134-2.141c.553-.856.92-1.82 1.074-2.826a6.28 6.28 0 0 0-1.559-4.992c-.604-.67-1.346-1.204-2.174-1.562a6.28 6.28 0 0 0-2.628-.514z" fill="#fff"/><path d="M256.406 73.56a7.16 7.16 0 0 1-2.165-.338c-1.517-.384-2.86-1.273-3.803-2.52a6.88 6.88 0 0 1-1.39-4.344 8.18 8.18 0 0 1 1.883-4.776 8.19 8.19 0 0 1 4.359-2.715 7.53 7.53 0 0 1 1.928-.237h0a7.09 7.09 0 0 1 2.964.584c.934.405 1.77 1.007 2.45 1.765a7.09 7.09 0 0 1 1.758 5.633 7.67 7.67 0 0 1-3.586 5.597c-1.305.865-2.833 1.335-4.4 1.353h0zm.812-13.24c-.507-.005-1.014.058-1.505.186-1.353.32-2.567 1.067-3.462 2.13s-1.426 2.385-1.512 3.772c-.028 1.198.357 2.37 1.1 3.317a5.23 5.23 0 0 0 2.937 1.891c.863.226 1.764.27 2.644.126a6.39 6.39 0 0 0 2.469-.956c.748-.487 1.385-1.126 1.87-1.874a6.37 6.37 0 0 0 .95-2.47 5.4 5.4 0 0 0-.192-2.302c-.23-.744-.616-1.43-1.135-2.012s-1.157-1.044-1.87-1.355-1.487-.466-2.266-.452h-.017z" fill="#b3b7bc"/></svg>