<svg xmlns="http://www.w3.org/2000/svg" width="495" height="410" fill="none" xmlns:v="https://vecta.io/nano"><path d="M274.286 80.273c4.855.98 5.38-7.322.253-6.392a3.25 3.25 0 0 0-1.971 1.032c-.514.565-.813 1.294-.844 2.058s.2 1.514.68 2.118 1.135 1.024 1.883 1.185h0z" fill="#fff"/><path d="M275.067 81.168c-.32-.001-.636-.035-.948-.1-.924-.147-1.764-.623-2.364-1.342a3.87 3.87 0 0 1-.901-2.565 4.23 4.23 0 0 1 3.536-4.143 3.69 3.69 0 0 1 2.214.121c.708.266 1.317.744 1.744 1.368a4.63 4.63 0 0 1-.135 5.073c-.35.507-.82.917-1.37 1.195s-1.16.413-1.775.395zm-.525-1.69c.435.127.9.11 1.326-.044s.79-.442 1.043-.82a3.03 3.03 0 0 0 .486-1.55c.018-.55-.115-1.097-.385-1.578a2.03 2.03 0 0 0-2.233-.744 2.59 2.59 0 0 0-1.525.865c-.392.457-.612 1.036-.623 1.638-.017.543.17 1.073.523 1.486s.85.68 1.388.746h0z" fill="#b3b7bc"/></svg>