<svg xmlns="http://www.w3.org/2000/svg" xmlns:xlink="http://www.w3.org/1999/xlink" width="630" height="392" fill="none" xmlns:v="https://vecta.io/nano"><path d="M3.15 124.657L141.572 392l484.485-91.615L477.853 0 3.15 124.657z" fill="url(#A)"/><path d="M320.732 105.438c15.67-15.642 36.924-24.43 59.086-24.43s43.415 8.788 59.085 24.43 24.474 36.858 24.474 58.98-8.804 43.338-24.474 58.98l-118.17 117.96-118.17-117.96c-15.67-15.642-24.474-36.858-24.474-58.98s8.804-43.337 24.474-58.98 36.924-24.43 59.086-24.43 43.415 8.788 59.085 24.43z" fill="#fff"/><path d="M168.78 226.373l.827-.826-2.07-2.066 2.07-2.066-.827-.826-2.898 2.892 2.898 2.892z" fill="url(#B)"/><path d="M277.06 334.463l.828-.827-4.922-4.913-.828.826 4.922 4.914zm-9.844-9.827l.828-.826-4.922-4.913-.828.826 4.922 4.913zm-9.844-9.826l.828-.826-4.922-4.913-.828.826 4.922 4.913zm-9.844-9.826l.828-.827-4.922-4.913-.828.827 4.922 4.913zm-9.843-9.827l.827-.826-4.92-4.913-.828.826 4.922 4.913zm-9.844-9.826l.828-.826-4.922-4.913-.828.826 4.922 4.913zm-9.844-9.826l.828-.826-4.922-4.913-.827.826 4.92 4.913zm-9.843-9.826l.828-.826-4.922-4.913-.828.826 4.922 4.913zm-9.844-9.826l.828-.826-4.922-4.914-.828.827 4.922 4.913zm-9.844-9.826l.828-.827-4.922-4.913-.828.827 4.922 4.913zm-9.844-9.827l.828-.826-4.922-4.913-.828.826 4.922 4.913z" fill="url(#C)"/><path d="M284.883 342.267l2.898-2.892-.828-.826-2.07 2.065-2.07-2.065-.828.826 2.897 2.892z" fill="url(#D)"/><path d="M292.7 334.463l4.922-4.914-.828-.826-4.922 4.913.828.827zm9.843-9.827l4.922-4.913-.827-.826-4.922 4.913.827.826zm9.844-9.826l4.922-4.913-.828-.826-4.922 4.913.828.826zm9.844-9.826l4.922-4.913-.828-.827-4.922 4.913.828.827zm9.844-9.827l4.922-4.913-.828-.826-4.922 4.913.828.826zm9.843-9.826l4.922-4.912-.828-.827-4.92 4.913.827.826zm9.844-9.825l4.922-4.914-.828-.826-4.922 4.913.828.827zm9.844-9.827l4.922-4.913-.828-.826-4.922 4.913.828.826zm9.844-9.826l4.922-4.913-.828-.827-4.922 4.914.828.826zm9.843-9.826l4.922-4.913-.828-.827-4.92 4.913.827.827zm9.844-9.827l4.922-4.913-.828-.826-4.922 4.913.828.826z" fill="url(#E)"/><path d="M400.983 226.373l2.898-2.892-2.898-2.892-.828.826 2.07 2.066-2.07 2.066.828.826z" fill="url(#F)"/><path d="M395.232 216.502l.828-.827-4.922-4.913-.828.827 4.922 4.913zm-9.844-9.827l.828-.826-4.922-4.913-.828.826 4.922 4.913zm-9.844-9.826l.828-.826-4.92-4.913-.828.826 4.92 4.913zm-9.843-9.826l.828-.826-4.922-4.913-.828.826 4.922 4.913zm-9.844-9.826l.828-.826-4.922-4.914-.828.827 4.922 4.913zm-9.844-9.826l.828-.827-4.922-4.913-.828.826 4.922 4.914zm-9.844-9.827l.828-.826-4.922-4.913-.827.826 4.92 4.913zm-9.843-9.826l.828-.826-4.922-4.913-.828.826 4.922 4.913zm-9.844-9.826l.828-.826-4.922-4.913-.828.826 4.922 4.913zm-9.844-9.826l.828-.827-4.922-4.913-.828.827 4.922 4.913zm-9.844-9.826l.828-.827-4.922-4.913-.828.826 4.922 4.914z" fill="url(#G)"/><path d="M282.814 108.414l2.07-2.066 2.07 2.066.828-.827-2.898-2.892-2.897 2.892.828.827z" fill="url(#H)"/><path d="M174.53 216.5l4.922-4.913-.828-.826-4.922 4.913.828.826zm9.844-9.826l4.922-4.913-.828-.826-4.922 4.913.828.826zm9.844-9.826l4.922-4.913-.828-.827-4.922 4.914.828.826zm9.844-9.826l4.92-4.913-.828-.827-4.92 4.914.828.826zm9.843-9.826l4.922-4.914-.828-.826-4.922 4.913.828.827zm9.844-9.827l4.922-4.913-.828-.826-4.922 4.913.828.826zm9.844-9.826l4.92-4.913-.827-.826-4.922 4.913.828.826zm9.843-9.826l4.922-4.913-.828-.826-4.922 4.913.828.826zm9.844-9.826l4.922-4.913-.828-.827-4.922 4.913.828.827zm9.844-9.826l4.922-4.913-.828-.827-4.922 4.913.828.827zm9.844-9.826l4.922-4.914-.828-.826-4.922 4.913.828.827z" fill="url(#I)"/><path d="M345.734 248.48l7.127-.45-.123-1.162-7.03.443.025 1.17zm-7.14-.153l.075-1.166-7.005-.743-.172 1.156 7.102.753zm21.332-1.345l6.95-1.64-.318-1.126-6.852 1.62.22 1.148zm-35.448-.756l.27-1.137-6.78-1.912-.366 1.11 6.875 1.938zm49.182-3.1l6.57-2.793-.504-1.055-6.478 2.754.412 1.094zm-62.742-1.344l.46-1.075-6.354-3.033-.55 1.032 6.445 3.076zm75.618-4.793l5.996-3.867-.677-.954-5.912 3.814.593 1.007zm-88.222-1.898l.636-.982-5.747-4.07-.716.923 5.827 4.128zm99.86-6.33l5.26-4.823-.827-.826-5.187 4.756.755.893zm-111.146-2.403l.793-.86-2.526-2.42-2.453-2.554-.862.79 2.487 2.6 2.56 2.452zm121.242-7.664l4.38-5.636-.955-.676-4.32 5.558.893.754zm-130.9-2.825l.926-.716-4.07-5.732-.983.635 4.127 5.813zm139.163-8.798l3.357-6.296-1.056-.505-3.3 6.208 1.01.593zm-146.906-3.16l1.033-.548-3.034-6.34-1.077.458 3.078 6.43zm153.068-9.695l2.235-6.773-1.127-.317-2.203 6.678 1.095.412zm-158.663-3.407l1.112-.365-1.913-6.765-1.138.27 1.94 6.86zm162.548-10.303l1.055-7.05-1.164-.124-1.04 6.954 1.15.22zm-165.837-3.558l1.158-.17-.742-6.992-1.17.074.753 7.09zm167.348-10.61l.02-1.826-.167-5.3-1.17.073.165 5.228-.02 1.8 1.17.025zm-167.08-3.583l.445-7.017-1.164-.123-.452 7.116 1.17.024zm165.027-10.463l1.158-.17-1.346-7-1.14.27 1.327 6.903zm-163.544-3.508l1.624-6.842-1.127-.317-1.647 6.938 1.15.22zm160.308-10.162l1.113-.364-2.514-6.672-1.077.458 2.478 6.578zm-156.486-3.36l2.763-6.468-1.057-.504-2.8 6.56 1.095.412zm150.977-9.56l1.034-.548-3.613-6.146-.984.634 3.563 6.06zm-144.907-3.116l3.825-5.905-.955-.677-3.88 6 1 .592zm137.277-8.68l.927-.715-4.606-5.45-.862.8 4.54 5.374zM280.527 111.1l4.83-5.237-.822-.832-.078.08-4.823 5.235.894.755zm119.618-7.564l.794-.86-5.454-4.608-.72.923 5.38 4.544zm-109.597-2.43l5.568-4.297-.676-.954-5.647 4.36.755.893zm98.474-6.187l.637-.98-6.157-3.62-.55 1.032 6.07 3.568zM302.03 93l6.22-3.293-.504-1.055-6.308 3.34.592 1.008zm74.568-4.684l.46-1.075-6.684-2.52-.366 1.1 6.6 2.484zm-61.87-1.36l6.692-2.2-.318-1.125-6.785 2.22.41 1.094zm48.503-3.04l.27-1.137-7.013-1.353-.173 1.156 6.916 1.334zm-34.957-.765l6.966-1.03-.122-1.162-7.065 1.045.22 1.148zm21.037-1.315l.075-1.166-7.14-.156.024 1.17 7.042.154z" fill="url(#J)"/><path d="M227.563 248.478l7.128-.45-.123-1.162-7.03.443.024 1.17zm-7.14-.152l.074-1.167-7.004-.742-.173 1.156 7.103.753zm21.33-1.346l6.95-1.64-.318-1.125-6.852 1.618.22 1.148zm-35.448-.756l.27-1.136-6.778-1.912-.366 1.1 6.874 1.938zm49.183-3.1l6.57-2.793-.504-1.055-6.478 2.755.412 1.093zm-62.742-1.343l.46-1.075-6.355-3.033-.55 1.032 6.445 3.076zm75.618-4.793l5.996-3.867-.677-.954-5.912 3.813.593 1.008zm-88.222-1.9l.636-.982-5.746-4.068-.717.923 5.827 4.127zm99.862-6.33l5.258-4.823-.828-.827-5.186 4.757.756.893zm-111.147-2.403l.793-.86-2.526-2.418-2.453-2.554-.863.79 2.488 2.59 2.56 2.453zm121.243-7.665l4.38-5.635-.954-.677-4.32 5.558.895.754zm-130.9-2.824l.927-.716-4.07-5.732-.984.634 4.127 5.814zm139.164-8.8l3.356-6.296-1.056-.504-3.3 6.208 1 .592zm-146.907-3.16l1.034-.548-3.035-6.34-1.077.458 3.078 6.43zm153.068-9.695l2.235-6.773-1.126-.318-2.204 6.68 1.095.412zm-158.663-3.407l1.113-.365-1.913-6.765-1.14.27 1.94 6.86zM308.4 180.495l1.056-7.052-1.164-.124-1.04 6.954 1.15.222zm-165.836-3.558l1.158-.172-.742-6.99-1.168.074.752 7.09zm167.347-10.61l.02-1.826-.167-5.302-1.168.073.165 5.228-.02 1.802 1.17.025zm-167.08-3.583l.446-7.017-1.164-.123-.453 7.115 1.17.025zm165.027-10.463l1.158-.17-1.346-7-1.14.268 1.328 6.904zm-163.544-3.51l1.623-6.84-1.127-.318-1.646 6.94 1.15.22zm160.308-10.16l1.113-.364-2.514-6.672-1.077.457 2.478 6.58zm-156.485-3.36l2.762-6.468-1.057-.504-2.8 6.56 1.096.412zm150.976-9.56l1.035-.548-3.614-6.147-.984.634 3.563 6.06zm-144.908-3.117l3.826-5.905-.955-.676-3.88 5.99 1.01.592zm137.278-8.68l.926-.715-4.605-5.45-.862.79 4.54 5.373zm-129.136-2.786l4.83-5.237-.822-.832-.068.068-4.834 5.246.894.755zm119.618-7.563l.794-.86-5.455-4.608-.718.923 5.38 4.545zm-109.597-2.43l5.568-4.298-.675-.954-5.647 4.358.754.894zm98.473-6.188l.637-.98-6.157-3.62-.55 1.032 6.07 3.568zm-86.99-1.92l6.22-3.292-.504-1.055-6.308 3.34.592 1.008zm74.568-4.684l.46-1.075-6.683-2.52-.367 1.1 6.6 2.484zm-61.87-1.36l6.69-2.2-.317-1.125-6.786 2.22.412 1.094zm48.5-3.04l.27-1.137-7.013-1.353-.173 1.156 6.915 1.334zm-34.956-.765l6.966-1.03-.122-1.162-7.065 1.045.22 1.148zm21.037-1.315l.076-1.166-7.142-.156.024 1.17 7.042.154z" fill="url(#K)"/><path d="M569.748 341.103h3.512v1.168h-3.512v-1.168z" fill="url(#L)"/><path d="M7.538 342.27h7.028v-1.168H7.538v1.168zm14.055 0h7.028v-1.168h-7.028v1.168zm14.055 0h7.028v-1.168h-7.028v1.168zm14.055 0h7.028v-1.168h-7.028v1.168zm14.056 0h7.028v-1.168H63.76v1.168zm14.055 0h7.028v-1.168h-7.028v1.168zm14.055 0h7.028v-1.168H91.87v1.168zm14.055 0h7.028v-1.168h-7.028v1.168zm14.055 0h7.028v-1.168h-7.028v1.168zm14.056 0h7.027v-1.168h-7.027v1.168zm14.055 0h7.028v-1.168H148.1v1.168zm14.055 0h7.028v-1.168h-7.028v1.168zm14.055 0h7.028v-1.168H176.2v1.168zm14.055 0h7.028v-1.168h-7.028v1.168zm14.056 0h7.028v-1.168h-7.028v1.168zm14.055 0h7.028v-1.168h-7.028v1.168zm14.055 0h7.028v-1.168h-7.028v1.168zm14.055 0h7.028v-1.168h-7.028v1.168zm14.056 0h7.028v-1.168h-7.028v1.168zm14.055 0h7.028v-1.168h-7.028v1.168zm14.055 0h7.028v-1.168h-7.028v1.168zm14.055 0h7.028v-1.168h-7.028v1.168zm14.056 0h7.027v-1.168h-7.027v1.168zm14.055 0h7.028v-1.168h-7.028v1.168zm14.055 0h7.028v-1.168h-7.028v1.168zm14.055 0h7.028v-1.168h-7.028v1.168zm14.056 0H380v-1.168h-7.027v1.168zm14.055 0h7.028v-1.168h-7.028v1.168zm14.055 0h7.028v-1.168h-7.028v1.168zm14.056 0h7.027v-1.168h-7.027v1.168zm14.055 0h7.027v-1.168h-7.027v1.168zm14.055 0h7.028v-1.168h-7.028v1.168zm14.055 0h7.028v-1.168h-7.028v1.168zm14.056 0h7.027v-1.168h-7.027v1.168zm14.055 0h7.027v-1.168h-7.027v1.168zm14.055 0h7.028v-1.168h-7.028v1.168zm14.055 0h7.028v-1.168h-7.028v1.168zm14.055 0h7.028v-1.168h-7.028v1.168zm14.056 0h7.027v-1.168h-7.027v1.168zm14.055 0h7.028v-1.168h-7.028v1.168z" fill="url(#M)"/><g fill="#ffb9b9"><path d="M495.492 325.362l-.088-.27-1.68-5.102 21.696 1.315-19.928 4.056z"/><use xlink:href="#P"/><path d="M542.268 118.388c-11.915 0-21.575-9.642-21.575-21.536s9.66-21.536 21.575-21.536 21.575 9.642 21.575 21.536-9.66 21.536-21.575 21.536z"/><path d="M558.45 103.433s7.192 23.93 11.986 23.93-32.362 14.357-32.362 14.357 9.59-9.57 0-27.518l20.376-10.768z"/></g><path d="M495.49 325.362l-.784-.14c-6.3-1.134-10.316-2.472-10.573-4.033-.498-2.986 3.776-18.607 8.933-35.83l15.228-48.417 1.013-3.097 4.794-29.91 58.73 15.556 8.4 14.353 1.785 5.2v.006l22.358 65.242-89.947 17.01-19.928 4.056z" fill="#2f2e41"/><path d="M551.545 285.383l-3.4 2.623.544 1.355 4.194-.622 19.436-6.926-1.865-4.644-18.92 8.214z" fill="url(#N)"/><path d="M563.244 124.97s-16.62 4.405-21.495 9.382l-8.47 4.976-10.787 22.733s-8.39 3.59-8.39 19.143-11.986 41.877-11.986 41.877-8.4 7.178-2.397 10.768 13.185 3.59 13.185 3.59-5.993-22.733 5.993-23.93 17.98-2.393 19.177 0 33.56 37.1 46.746 33.5 5.993-39.483 5.993-39.483l-10.788-83.753s-8.4-1.196-13.184 0-3.596 1.196-3.596 1.196z" fill="#f52f6e"/><path opacity=".2" d="M563.787 125.4s-16.62 4.405-21.495 9.38l-8.47 4.977-10.788 22.732s-8.4 3.6-8.4 19.144-11.986 41.876-11.986 41.876-8.4 7.18-2.397 10.768 13.185 3.6 13.185 3.6-5.993-22.733 5.993-23.93 17.98-2.392 19.177 0 33.56 37.09 46.746 33.502 5.993-39.484 5.993-39.484l-10.788-83.752s-8.4-1.197-13.184 0-3.596 1.196-3.596 1.196z" fill="url(#O)"/><use xlink:href="#P" x="83.9" fill="#ffb9b9"/><path d="M577.626 124.97l2.397-1.196s7.19-7.18 15.582 2.393 16.78 59.823 16.78 59.823v15.554s9.59 13.16 1.2 20.34l-9.59 8.375s-8.4-11.964-17.98-5.982l-1.2-4.786c-.97-1.073-1.778-2.282-2.397-3.59-1.2-2.393-3.596 1.196-2.397-2.393s0-4.786 0-5.983-1.2-7.178-1.2-7.178l1.2-37.09-2.397-38.287z" fill="#f52f6e"/><path d="M515.386 91.75s-17.527-38.145 28.28-38.104c0 0 28.103-14.737 49.504 19.44l22.084 35.934-5.643-1.12-.716 5.607-7.2 4.41-5.415-5.586.895 8.55-62.034 26.298s23.388-25.852 14.366-56.333l-3.662 7.462-30.46-6.557z" fill="#35335f"/><path d="M553.153 109c-1.672 0-3.028-2.707-3.028-6.046s1.356-6.046 3.028-6.046 3.03 2.707 3.03 6.046-1.356 6.046-3.03 6.046z" fill="#ffb9b9"/><defs><linearGradient id="A" x1="51.216" y1="-123.48" x2="460.818" y2="564.592" xlink:href="#Q"><stop stop-color="#eeeff1" stop-opacity=".26"/><stop offset="1" stop-color="#eeeff1" stop-opacity=".76"/></linearGradient><radialGradient id="B" cx="0" cy="0" r="1" gradientTransform="translate(167.319 222.944) rotate(63.9053) scale(3.26652 2.67795)" xlink:href="#Q"><stop stop-color="#f76e2a"/><stop offset=".447" stop-color="#f05923"/><stop offset="1" stop-color="#d70a21"/></radialGradient><radialGradient id="C" cx="0" cy="0" r="1" gradientTransform="translate(213.888 272.804) rotate(52.6955) scale(66.3088 66.3403)" xlink:href="#Q"><stop stop-color="#f76e2a"/><stop offset=".447" stop-color="#f05923"/><stop offset="1" stop-color="#d70a21"/></radialGradient><radialGradient id="D" cx="0" cy="0" r="1" gradientTransform="translate(284.221 340.063) rotate(40.153) scale(2.924 2.99088)" xlink:href="#Q"><stop stop-color="#f76e2a"/><stop offset=".447" stop-color="#f05923"/><stop offset="1" stop-color="#d70a21"/></radialGradient><radialGradient id="E" cx="0" cy="0" r="1" gradientTransform="translate(332.059 272.804) rotate(52.6955) scale(66.3087 66.3402)" xlink:href="#Q"><stop stop-color="#f76e2a"/><stop offset=".447" stop-color="#f05923"/><stop offset="1" stop-color="#d70a21"/></radialGradient><radialGradient id="F" cx="0" cy="0" r="1" gradientTransform="translate(401.592 222.944) rotate(63.9049) scale(3.26653 2.67799)" xlink:href="#Q"><stop stop-color="#f76e2a"/><stop offset=".447" stop-color="#f05923"/><stop offset="1" stop-color="#d70a21"/></radialGradient><radialGradient id="G" cx="0" cy="0" r="1" gradientTransform="translate(332.059 154.844) rotate(52.6954) scale(66.3088 66.3403)" xlink:href="#Q"><stop stop-color="#f76e2a"/><stop offset=".447" stop-color="#f05923"/><stop offset="1" stop-color="#d70a21"/></radialGradient><radialGradient id="H" cx="0" cy="0" r="1" gradientTransform="translate(284.221 106.209) rotate(40.1573) scale(2.92419 2.99115)" xlink:href="#Q"><stop stop-color="#f76e2a"/><stop offset=".447" stop-color="#f05923"/><stop offset="1" stop-color="#d70a21"/></radialGradient><radialGradient id="I" cx="0" cy="0" r="1" gradientTransform="translate(213.888 154.843) rotate(52.6953) scale(66.3086 66.3402)" xlink:href="#Q"><stop stop-color="#f76e2a"/><stop offset=".447" stop-color="#f05923"/><stop offset="1" stop-color="#d70a21"/></radialGradient><radialGradient id="J" cx="0" cy="0" r="1" gradientTransform="translate(324.745 148.895) rotate(52.6955) scale(107.094 107.145)" xlink:href="#Q"><stop stop-color="#f76e2a"/><stop offset=".447" stop-color="#f05923"/><stop offset="1" stop-color="#d70a21"/></radialGradient><radialGradient id="K" cx="0" cy="0" r="1" gradientTransform="translate(206.575 148.895) rotate(52.6956) scale(107.095 107.145)" xlink:href="#Q"><stop stop-color="#f76e2a"/><stop offset=".447" stop-color="#f05923"/><stop offset="1" stop-color="#d70a21"/></radialGradient><radialGradient id="L" cx="0" cy="0" r="1" gradientTransform="translate(571.102 341.578) rotate(23.6299) scale(1.47861 1.12688)" xlink:href="#Q"><stop stop-color="#f76e2a"/><stop offset=".447" stop-color="#f05923"/><stop offset="1" stop-color="#d70a21"/></radialGradient><radialGradient id="M" cx="0" cy="0" r="1" gradientTransform="translate(221.679 341.578) rotate(0.158599) scale(214.142 1.2302)" xlink:href="#Q"><stop stop-color="#f76e2a"/><stop offset=".447" stop-color="#f05923"/><stop offset="1" stop-color="#d70a21"/></radialGradient><radialGradient id="N" cx="0" cy="0" r="1" gradientTransform="translate(557.79 284.458) rotate(-31.4602) scale(12.1794 12.6108)" xlink:href="#Q"><stop stop-color="#f76e2a"/><stop offset=".447" stop-color="#f05923"/><stop offset="1" stop-color="#d70a21"/></radialGradient><linearGradient id="O" x1="593.236" y1="240.169" x2="517.607" y2="158.321" xlink:href="#Q"><stop/><stop offset=".907" stop-color="#1e212c" stop-opacity="0"/></linearGradient><path id="P" d="M520.096 225.473l-13.185 33.5s1.2 28.715-14.383 26.322 2.397-31.108 2.397-31.108l9.59-34.698s11.986-2.393 15.582 5.983z"/><linearGradient id="Q" gradientUnits="userSpaceOnUse"/></defs></svg>