<svg xmlns="http://www.w3.org/2000/svg" xmlns:xlink="http://www.w3.org/1999/xlink" width="630" height="392" fill="none" xmlns:v="https://vecta.io/nano"><style><![CDATA[.B{opacity:.1}.C{fill:#000}.D{fill:#f52f6e}.E{opacity:.25}.F{fill-opacity:.1}.G{fill:#464353}.H{fill:#514e7f}.I{fill:#3f3d56}.J{fill:#a1616a}.K{stroke-miterlimit:10}]]></style><path d="M16.875 354.132l1.813 1.257c2.262 1.515 4.624 2.876 7.07 4.074 12.847 6.398 28.673 9.52 44.094 11.642 34.582 4.768 69.892 5.692 105.054 6.6 94.994 2.466 190.24 4.92 284.994-.755 37.435-2.242 75.707-6.015 109.637-17.498 4.86-1.644 9.627-3.456 14.304-5.435 9.452-4.02 18.53-8.903 26.083-14.72 7.12-5.468 12.847-11.756 16.286-18.898 7.173-14.884 3.378-31.6-4.808-46.184-3.422-5.918-7.266-11.584-11.5-16.952-6.31-8.213-13.27-16.17-19.632-24.372-22.627-29.21-37.39-66.105-16.505-96.027 6.024-8.596 14.68-16.142 19.572-25.116 6.248-11.483 5.76-24.23 3.773-36.637l-.816-4.67c-3.412-18.357-9.764-38.14-29.43-49.602-20.426-11.9-49.422-11.308-74.782-7.05-39.428 6.627-75.8 20.467-112.53 32.968s-75.198 23.918-115.6 25.154c-35.66 1.094-77.262-7.038-100.93-28.14-23-20.495-66.207-22.053-97.366-9.673C44.3 42.596 28.348 57.902 21.617 75.1c-1.36 3.445-2.343 7.028-2.93 10.685-.546 3.33-.73 6.71-.548 10.078.093 1.64.274 3.308.548 4.922 5.202 33.974 42.665 60.768 65.434 91.116 11.128 14.825 18.986 32.63 11.336 48.613-11.67 24.355-52.253 33.012-76.77 51.144A55.95 55.95 0 0 0 6.64 303.337c-11.856 16.142-7.47 37.928 10.235 50.795z" fill="url(#A)"/><path d="M335.552 371.826c-81.55 0-147.658-2.242-147.658-5.01s66.11-5.008 147.658-5.008S483.2 364.05 483.2 366.817s-66.108 5.01-147.658 5.01z" class="B D"/><path d="M218.237 363.482s-31.76-40.175-29.303-80.1c1.035-16.765-3.1-33.454-12.337-47.49-4.395-6.65-9.392-12.882-14.928-18.62" stroke="#535461" stroke-width="2" class="K"/><use xlink:href="#T" fill="url(#B)"/><use xlink:href="#U" fill="url(#C)"/><use xlink:href="#V" fill="url(#D)"/><use xlink:href="#W" fill="url(#E)"/><use xlink:href="#X" fill="url(#F)"/><use xlink:href="#Y" fill="url(#G)"/><use xlink:href="#Z" fill="url(#H)"/><g class="C F"><use xlink:href="#T" class="E"/><use xlink:href="#U" class="E"/><use xlink:href="#V" class="E"/><use xlink:href="#W" class="E"/><use xlink:href="#X" class="E"/><use xlink:href="#Y" class="E"/><use xlink:href="#Z" class="E"/></g><path d="M217.963 361.804s-45.342-23.87-59.295-61.376c-5.86-15.748-16.43-29.33-30.552-38.425-6.718-4.3-13.818-7.978-21.21-10.985" stroke="#535461" stroke-width="2" class="K"/><path d="M97.982 227.423c4.316 4.194 9.24 24.174 9.24 24.174s-20.136-4.374-24.457-8.552a10.89 10.89 0 0 1-.109-15.307 10.92 10.92 0 0 1 15.327-.315z" fill="url(#I)"/><path d="M134.485 237.763c1.342 5.867-5.405 25.307-5.405 25.307s-14.528-14.584-15.88-20.45c-.352-1.407-.42-2.87-.198-4.302a10.88 10.88 0 0 1 1.486-4.042 10.89 10.89 0 0 1 2.938-3.152 10.92 10.92 0 0 1 3.931-1.77c1.415-.323 2.88-.36 4.3-.11s2.796.78 4.018 1.564 2.274 1.802 3.097 2.997 1.398 2.54 1.693 3.96h.01z" fill="url(#J)"/><path d="M174.812 278.047c-1.808 5.742-17.458 19.14-17.458 19.14s-5.17-19.915-3.363-25.657c.407-1.394 1.088-2.693 2.004-3.82s2.048-2.06 3.33-2.745 2.69-1.107 4.137-1.24 2.908.022 4.294.46 2.672 1.146 3.78 2.087 2.017 2.09 2.673 3.387 1.047 2.7 1.148 4.158-.088 2.903-.557 4.277l.01-.044z" fill="url(#K)"/><path d="M198.478 315.4c-.8 5.96-13.97 21.8-13.97 21.8s-8.466-18.756-7.667-24.72c.193-1.42.664-2.785 1.385-4.022s1.68-2.32 2.82-3.186a10.93 10.93 0 0 1 3.827-1.865c1.386-.365 2.83-.454 4.25-.262s2.79.663 4.027 1.383a10.91 10.91 0 0 1 3.191 2.817 10.88 10.88 0 0 1 1.868 3.821 10.87 10.87 0 0 1 .262 4.245h.005z" fill="url(#L)"/><path d="M142.157 323.603c5.695-1.963 18.657-17.952 18.657-17.952s-20.076-4.6-25.776-2.647a10.91 10.91 0 0 0-6.076 5.559c-1.22 2.575-1.382 5.524-.45 8.217a10.9 10.9 0 0 0 5.43 6.189 10.93 10.93 0 0 0 8.216.634z" fill="url(#M)"/><path d="M175.36 361.94c5.947-.974 21.434-14.546 21.434-14.546s-19.013-7.934-24.96-6.96c-2.815.512-5.317 2.107-6.966 4.44s-2.313 5.223-1.85 8.042 2.015 5.345 4.323 7.033 5.19 2.403 8.02 1.99z" fill="url(#N)"/><path d="M113.944 280.283c6.024-.17 23.186-11.56 23.186-11.56s-17.78-10.4-23.805-10.226c-2.865.122-5.567 1.365-7.522 3.46a10.89 10.89 0 0 0-2.924 7.737 10.9 10.9 0 0 0 3.358 7.56c2.07 1.98 4.84 3.07 7.707 3.028z" fill="url(#O)"/><g class="G"><path d="M213.988 365.14h4.857l35.53-183.147 4.556 183.147h5.158l5.772-182.84 34.62 182.84h5.465L285.65 170.777l-46.16-5.157-1.434 11.276-24.068 188.243zm98.05-236.233h29.38V147.1h-29.38v-18.193zM170.95 120.95l-17.764-7.163h-3.894c-.568 0-1.112.225-1.514.626a2.14 2.14 0 0 0-.627 1.512v49.958a2.14 2.14 0 0 0 .627 1.512c.402.4.946.626 1.514.626h3.894l17.764-7.388V120.95z"/><path d="M170.952 123.225h36.323v35.133h-36.323v-35.133z"/></g><path d="M246.943 57.234h23.383v4.243h-23.383v-4.243zm-15.755 5.496h65.818v47.984h-65.818V62.73z" class="H"/><path d="M231.188 105.033h65.818v5.687h-65.818v-5.687zm-24.823 18.192h1.473v35.133h-1.473v-35.133zm105.673 5.682h10.022V147.1h-10.022v-18.193zm-73.983 47.99h48.36l-.767-6.12-46.158-5.157-1.435 11.276z" class="B C"/><path d="M213.14 105.94H315.3c3.237 0 5.86 2.62 5.86 5.85v58.34c0 3.23-2.623 5.85-5.86 5.85H213.14c-3.236 0-5.86-2.62-5.86-5.85V111.8c0-3.23 2.624-5.85 5.86-5.85zm-41.843 15h-.345v39.683h.345c.753 0 1.476-.3 2-.83a2.83 2.83 0 0 0 .833-2.007V123.8a2.84 2.84 0 0 0-.833-2.007c-.533-.532-1.256-.83-2-.83zm-18.11-7.147H149.5a2.35 2.35 0 0 0-1.662.687c-.44.44-.688 1.036-.688 1.66v49.553c0 .622.248 1.218.688 1.658a2.35 2.35 0 0 0 1.662.687h3.685v-54.244z" class="H"/><path d="M336.177 128.907h5.24V147.1h-5.24v-18.193z" class="B C"/><path d="M341.033 123.225h2.36a3.94 3.94 0 0 1 3.942 3.937v23.054a3.94 3.94 0 0 1-3.942 3.937h-2.36a3.94 3.94 0 0 1-3.942-3.937v-23.054a3.94 3.94 0 0 1 3.942-3.937z" class="H"/><path d="M297.007 95.48c-18.113 0-32.797-14.662-32.797-32.75s14.684-32.75 32.797-32.75 32.796 14.662 32.796 32.75-14.683 32.75-32.796 32.75z" class="G"/><path d="M297.007 87.293c-13.586 0-24.6-10.997-24.6-24.563s11.013-24.563 24.6-24.563 24.598 10.997 24.598 24.563-11.013 24.563-24.598 24.563z" fill="url(#P)"/><path d="M236.2 87.294c-13.207 0-23.914-10.69-23.914-23.88s10.707-23.88 23.914-23.88 23.914 10.69 23.914 23.88-10.706 23.88-23.914 23.88z" class="G"/><path d="M236.2 81.323c-9.904 0-17.934-8.018-17.934-17.908s8.03-17.908 17.934-17.908 17.935 8.018 17.935 17.908-8.03 17.908-17.935 17.908z" fill="url(#Q)"/><g class="D"><use xlink:href="#a"/><use xlink:href="#a" x="-10.015" opacity=".5"/></g><path d="M267.67 127.212l.225-.443a19.84 19.84 0 0 0-3.976 1.826c.548-4.752 18.8-18.094 22.085-18.094s6.94-5.665 6.94-5.665 9.5-1.46 10.952-3.008 11.32-.645 13.7-.098 6.024-1.46 6.024-1.46 2-3.28 4.56-3.28 5.285-3.653 5.285-3.653 2.382-2.187 4.572-2.56 4.93-2.734 6.2-4.566 7.667-2.734 11.314-2.187 13.5-.744 13.5-.744c-4.014-1.826-4.984-6.212-4.984-6.212 3.593-.186 13.034-8.104 13.034-8.104l-.838 6.13.608-.782.082.066c.193-2.547.22-5.105.082-7.656 0-.197-.033-.394-.044-.596-2.338-2.045-4.072-4.7-5.014-7.647a17.01 17.01 0 0 1-.331-9.135 15.19 15.19 0 0 1 .345-1.219c-.7.3-1.437.474-2.2.547h-.39c-.453.003-.902-.1-1.316-.273a3.21 3.21 0 0 1-1.088-.788 2.55 2.55 0 0 1-.268-.416c-.02-.028-.035-.057-.05-.087a2.95 2.95 0 0 1-.164-.416 1.6 1.6 0 0 1-.038-.153 3.26 3.26 0 0 1-.066-.339v-.503a6.49 6.49 0 0 1 .548-2.439c.575-1.41 1.402-2.805 1.34-4.33 0-.126-.027-.246-.043-.366-.154-1.198-.784-2.308-1.16-3.46v-.05c-.055-.17-.1-.34-.137-.508a1.17 1.17 0 0 1-.044-.153c-.04-.2-.068-.403-.082-.607v-.044c-.143-2.286 1.703-4.282 3.795-5.206 1.873-.83 4.014-1.055 5.728-2.187 1.955-1.285 3.028-3.51 4.474-5.353 2.103-2.68 5.394-4.68 8.76-4.298 2.076.235 3.96 1.323 6.024 1.744 3.138.65 6.457-.295 9.578.432.758.126 1.448.513 1.95 1.094a2.23 2.23 0 0 1 .395.99 3.77 3.77 0 0 1 0 .995v.027a7.06 7.06 0 0 1-.17.935l-.05.19c0 .066-.028.126-.044.19l-.104.383c-.06.213-.1.427-.164.645v.076c-.05.224-.1.448-.137.678a11.5 11.5 0 0 0-.176 1.433 6.6 6.6 0 0 0 .838 3.893c1.37 2.187 4.277 3.155 5.542 5.435.3.55.485 1.154.548 1.777.023.207.032.415.027.623v.082c0 .18 0 .36-.05.547.002.044.002.087 0 .13a4.66 4.66 0 0 1-.11.481c0 .055-.027.104-.044.153-.06.187-.133.37-.22.547-.585 1.22-1.692 2.226-1.922 3.55 0 .038 0 .077-.027.12-.126.995.285 1.97.498 2.947a3.68 3.68 0 0 1 .066.361v.727c.003.05.003.102 0 .153v.355c0 .05-.033.137-.055.202l-.038.137c-.026.065-.055.13-.088.19l-.06.12a2.06 2.06 0 0 1-.131.191c-.02.03-.042.06-.066.087-.075.088-.16.167-.252.235-.756.547-1.933.405-2.552 1.094-.07.084-.128.175-.175.273l-.033.066c-.045.096-.08.197-.104.3-.088.41-.088.836 0 1.247.22 1.094.685 2.09.93 3.16.05.22.082.443.11.667 0 .104 0 .202.028.3v.427c0 .137 0 .28-.033.416s0 .13-.033.19l-.033.16c0 .07-.038.142-.06.213l-.05.137c-.028.077-.066.153-.1.23a.83.83 0 0 1-.055.104c-.055.112-.12.218-.197.317-.662.897-1.752 1.197-2.902 1.203a9.17 9.17 0 0 1-1.939-.219c-.142.333-.3.667-.45 1a16.99 16.99 0 0 1-3.083 4.331c0 .17.033.334.055.51l.455 3.937c1.418-.65 2.513-.902 2.946-.432 1.834 2.012 0 8.957 0 8.957s8.953 0 11.144 2.007 6.204 0 6.204 0 8.214.92 7.667 2.565 4.38 0 4.38 0 3.47.366 3.285 2.734 5.296 3.467 4.567 5.113 3.286 2.734 3.286 2.734 4.014-.18 2.552 2.187c0 0 2.2 5.118 4.014 5.468s4.2 4.566 4.2 4.566 7.03 1.28 6.714 3.473 10.8 17.88 10.8 17.88 3.652 7.518 1.095 13.003-4.38 9.137-4.93 11.144-7.184 10.844-7.13 12.5c0 .514-1.642 3.28-3.882 6.79l.657.678 1.44 1.482s4.567 11.33-.91 11.877c-4.627.46-7.95.793-9.638.334a2.31 2.31 0 0 1-.766-.334l-.066-.05-3.406 4.987-.548-.788-.548.782-1.182-1.64a269.25 269.25 0 0 1 .273 9.87s-2.376-.366-1.28 10.597-6.57 19.916-6.57 19.916v16.268s0 .4-.077 1.093c-.203 2.335-.87 7.842-2.842 11.484-2.557 4.746 0 17.175 0 17.175s.17 10.138-.444 22.78c0 .344-.038.7-.054 1.05 11.072 9.24 22.95 21.5 22.95 21.5-.582.162-1.135.41-1.643.738l.663.848 3.017 3.712 2.333 2.877-3.696 11.368-4.036-1.575s-2.19 3.8-1.73 6.36a2.74 2.74 0 0 0 .548 1.274 1.62 1.62 0 0 1 .285.629c1.056 4.117-3.352 21.873-10.345 22.644 0 0-2.37.782-3.132-1.35-.367-1.028-.362-2.734.46-5.506 0 0 3.696-4.452 1.303-9.247-1.402-2.805-3.718-6.562-5.394-9.214l-.7-1.094-2.43 3.117L425 339.15a18.38 18.38 0 0 1-.35.716c-.403.804-.868 1.576-1.39 2.308l-3.647 14.44-1.473-.328a34.85 34.85 0 0 1 .076 1.094c.12 2.592 0 5.955-1.2 8.355-.898 1.837-2.415 3.117-4.9 3.057-8.488-.208-10.952-4.796-10.952-4.796v-11.483l-2.92-.65s.213-25.23.964-39.3c0-.312.032-.612.05-.908v-.125l-18.745-20.13-1.44-.574c-12.048-4.752-12.234-16.995-12.234-16.995s0-6.76-1.456-12.424-.187-35.1 2.55-42.395 3.653-15.54 3.653-15.54-2.738-3.827 0-7.015a14.04 14.04 0 0 0 1.917-3.128l-5.62-.924-1.095-.186c.548 4.834.64 8.547-.657 9.432-4.02 2.734-17.524-6.397-17.524-6.397 4.93 0 7.667-36.73 6.665-37.644s-2.497-19.32-1.19-22.6-4.594-17.93-4.594-17.93l-.91-1.345s-21.543 9.39-23.914 11.188-9.857-4.375-11.133-1.985-9.3 5.95-9.3 5.95-11.866-1.197-13.142 1.728-8.948 9.777-8.948 9.777a41.51 41.51 0 0 0-.291-4.806l-.476 1.148c-3.636 8.59-9.687 19.467-15.295 13.616-6.352-6.65-1.517-18.942 1.588-25.137zm162.362 38.824v.104l.044-.044-.044-.06zm4.25-42.15l2.322 24.448 4.562 4.72.547.58 4.715-5.124s2.377-1.093 0-3.106 4.014-6.562 4.014-6.562.186-3.28-2.2-4.2-5.476-6.945-5.476-6.945l-8.58-4.374.087.563zm-30.535 125.135a2.94 2.94 0 0 0-.547-.4c-1.024-.58-1.68.055-2.02 1.17-.447 1.87-.312 3.83.39 5.62 1.276 2.925-1.83 14.622-1.83 14.622s4.02 1.82 4.748 5.3a3.61 3.61 0 0 0 .547 1.192l.137-.886.548-3.598a23.27 23.27 0 0 0 .367-8.585L403.72 249l.027.022z" fill="url(#R)"/><path d="M378.294 70.988l-1.182-.787-3.335 7.027 1.28 1.504h3.877l-.23-3.964c-.093-.137-.41-3.78-.41-3.78z" class="G"/><path d="M401.19 349.512v15.037s2.465 4.577 10.953 4.785a4.99 4.99 0 0 0 2.93-.745c.876-.546 1.56-1.35 1.96-2.3 1.183-2.395 1.32-5.752 1.2-8.34a32.45 32.45 0 0 0-.411-3.86l-16.63-4.577z" class="I"/><path d="M401.19 349.512v4.653l17.04 3.784c-.06-1.294-.197-2.583-.4-3.86l-16.63-4.577z" class="B C"/><path d="M398.27 352.425l21.357 4.74 3.647-14.403c.522-.73.987-1.5 1.39-2.303l.684-1.454c3.976-9.083 5.745-25.466 6.5-39.404l.1-2.094c.613-12.6.444-22.726.444-22.726s-2.558-12.397 0-17.132c1.97-3.653 2.64-9.143 2.842-11.483l.076-1.094-.394-1.034-1.6-4.254h-17.7l-11.86 10.023.175 1.094 2.19 13.332a23.15 23.15 0 0 1-.367 8.563l-.548 3.592-.28 1.756c-1.31 8.082-3.762 22.84-4.808 26.367-.3.968-.548 3.396-.74 6.683l-.12 2.056c-.767 14.01-.98 39.174-.98 39.174z" class="H"/><path d="M401.19 364.396v.153s2.464 4.577 10.952 4.784c1.03.06 2.055-.2 2.93-.745s1.56-1.35 1.96-2.3c-3.806.935-9.983 1.536-15.842-1.892z" class="B C"/><path d="M266.1 153.382c5.63 5.834 11.653-5.014 15.295-13.583 2.042-4.823 3.324-8.93 3.324-8.93l-14.983-6.332s-.92 1.46-2.076 3.773c-3.105 6.18-7.94 18.44-1.56 25.072zm110.928-85.418a68.17 68.17 0 0 1-1.21 16.153s30.48 3.28 27.742-1.455c-1.605-2.778-2.645-10.1-3.226-15.716-.42-3.97-.607-7.07-.607-7.07s-29.205-11.664-24.824-1.82c1.3 2.936 1.917 6.414 2.125 9.908z" class="J"/><path d="M374.454 146.274l4.096 48.848-18.8-3.095 3.285-40.285-1.095-10.756 12.513 5.288z" class="D"/><path d="M359.75 192.103l18.805 3.095-4.1-48.848-12.513-5.288 1.095 10.756-3.286 40.285z" class="B C"/><path d="M438.908 352.645c2.394 4.785-1.303 9.225-1.303 9.225-.82 2.772-.827 4.468-.46 5.468.76 2.127 3.133 1.345 3.133 1.345 7.458-.82 11.976-20.9 10.06-23.212s1.167-7.6 1.167-7.6l4.035 1.57 3.697-11.34-7.393-9.093-20.398 21.255 2.07 3.182c1.675 2.63 3.992 6.403 5.393 9.192z" class="I"/><g class="C"><path d="M399.234 313.224l25.43 27.237c4.458-8.694 6.375-26.138 7.185-40.864-4.737-3.937-9.3-7.327-12.77-8.962 0 0-11.708-8.46-14.178-12.517-1.3 8.082-3.762 22.84-4.808 26.368-.345 1.16-.63 4.413-.86 8.738zm6.078-64.744l29.615-4.445-1.6-4.255h-17.7l-10.295 8.7z" class="B"/><path d="M399.333 311.168l25.995 27.84c3.998-9.083 5.767-25.466 6.522-39.404l.1-2.095c-4.78-3.98-9.408-7.404-12.88-9.055 0 0-10.925-7.9-13.898-12.085l-.28 1.755c-1.308 8.082-3.762 22.84-4.808 26.368-.3.963-.53 3.4-.76 6.677zm32.112 29.112l2.07 3.183c4.354-5.496 14.676-18.15 20.37-21.922l-2.042-2.516-20.4 21.255z" class="B"/></g><path d="M365.414 262.194c1.456 5.654 1.456 12.397 1.456 12.397s.187 12.2 12.234 16.95l1.44.547 49.833 53.386s18.438-24.06 24.462-25.52c0 0-24.276-24.974-35.776-30.442 0 0-13.876-10.023-14.604-13.484s-4.748-5.288-4.748-5.288 3.105-11.664 1.83-14.584a9.36 9.36 0 0 1-.389-5.605c.34-1.093.997-1.744 2.02-1.17.197.11.38.245.547.4l31.576-4.74v-16.202s7.666-8.93 6.57-19.866 1.28-10.57 1.28-10.57-.115-18.472-1.675-20.014-16.555-8.607-16.555-8.607l-47.007 8.34-1.938 8.98s-1.643 7.142-4.38 10.313 0 6.994 0 6.994-.915 8.202-3.653 15.502-3.986 36.637-2.524 42.286z" class="H"/><path d="M374.904 58.055c1.31 2.936 1.917 6.436 2.125 9.908a16.99 16.99 0 0 0 11.855 4.122c4.335-.19 8.432-2.028 11.45-5.14-.422-3.97-.608-7.07-.608-7.07s-29.204-11.664-24.823-1.82z" class="B C"/><path d="M371.17 54.627c.002 4.322 1.658 8.48 4.63 11.624s7.032 5.035 11.353 5.288a16.99 16.99 0 0 0 11.894-3.927 16.95 16.95 0 0 0 5.958-11.004c.508-4.292-.644-8.617-3.222-12.088s-6.388-5.83-10.65-6.6-8.652.133-12.275 2.497-6.205 6.022-7.218 10.224c-.313 1.302-.47 2.636-.47 3.975z" class="J"/><g class="C"><path d="M384.942 84.116s12.2-5.65 12.962-6.38 26.072 64.164 26.072 64.164l7.12 32.262s-37.966 16.22-46.18 14.032-8.943 0-8.943 0-8.4-47.027-11.138-51.216 2.557-46.846 2.557-46.846l9.5-12.402 8.06 6.387z" class="B"/><path d="M384.942 81.93s12.2-5.65 12.962-6.38 26.072 64.164 26.072 64.164l7.12 32.263s-37.966 16.218-46.18 14.03-8.943 0-8.943 0-8.4-47.027-11.138-51.215 2.557-46.846 2.557-46.846l9.5-12.402 8.06 6.387z" class="B"/></g><path d="M364.866 135.884c.547.87 1.374 3.57 2.3 7.31l2.064 9.04c3.23 15.054 6.77 34.87 6.77 34.87s.224-.667 1.807-.897c1.28-.186 3.46-.082 7.12.897 8.214 2.187 46.185-14.037 46.185-14.037l-1.095-4.922-6.024-27.34-26.104-64.158c-.444.443-5.186 2.734-8.8 4.435l-4.162 1.94-8.088-6.38-9.447 12.397s-5.262 42.652-2.524 46.846z" fill="#d7dadd"/><path d="M393.9 89.405c-1.096 4.205 1.456 11.117 1.456 11.117s8.762 21.512 11.32 31.453 17.184 29.977 17.184 29.977l5.153 5.14 1.035 1.04-6.024-27.34-26.105-64.16c-.443.443-5.186 2.734-8.8 4.435 2.262 2.056 5.51 5.556 4.78 8.34z" class="B C"/><path d="M394.984 89.404c-1.095 4.205 1.457 11.117 1.457 11.117s8.762 21.512 11.32 31.453 17.184 29.977 17.184 29.977l6.25 6.234 16.702 16.405c.378.355.635.585.745.66a2.31 2.31 0 0 0 .766.334c1.687.46 5.01.125 9.638-.334 5.476-.547.91-11.844.91-11.844l-1.44-1.482-1.314-1.356-14.917-15.327-1.095-1.154-4.562-4.697-2.377-24.974 1.725-3.9 10.268-22.714c.23-.465.41-.81.548-1.023 0-.027.027-.055.043-.077 1.463-2.368-2.55-2.187-2.55-2.187s-4.02-1.094-3.286-2.734-4.748-2.734-4.567-5.102-3.286-2.734-3.286-2.734-4.928 1.64-4.38 0-7.666-2.554-7.666-2.554-4.014 2.007-6.205 0-11.177-2-11.177-2 1.835-6.928 0-8.935-15.6 8.935-15.6 8.935 7.957 5.824 6.86 10.023z" class="D"/><path d="M440.617 182.724s-15.152 21.326-25.738 14.404 14.238-24.974 14.238-24.974l11.5 10.57z" class="B C"/><path d="M440.617 181.63s-15.152 21.326-25.738 14.403 14.238-24.973 14.238-24.973l11.5 10.57z" class="J"/><path d="M367.916 193.372c-1.155-10.067-4.506-25.193-1.774-29.78 1.353-2.275 2.355-6.61 3.09-11.358.394-2.553.706-5.227.958-7.765.668-6.73.882-12.495.882-12.495s6.57-29.265 5.295-35.28c-.8-3.762.12-13.19.92-19.718l-.422-.334-9.446 12.396s-5.3 42.652-2.552 46.846c.548.87 1.375 3.57 2.3 7.31l-5.224-2.187 1.095 10.756-3.285 40.284 8.164 1.324z" class="B C"/><path d="M377.1 70.2s-9.44 7.902-13.033 8.082c0 0 .97 4.375 4.983 6.2 0 0-9.857 1.3-13.51.738s-10.038.355-11.314 2.187-4.047 4.183-6.237 4.544-4.573 2.554-4.573 2.554L349.5 118.2s5.843 14.584 4.567 17.865.186 21.692 1.188 22.6-1.736 37.55-6.664 37.55c0 0 13.504 9.116 17.523 6.382s-5.114-32.263-1.095-39.01 4.93-31.617 4.93-31.617 6.57-29.26 5.3-35.275S377.1 70.2 377.1 70.2z" class="D"/><path opacity=".2" d="M267.67 128.31c4.88-1.52 12.355-1.564 13.735 11.483 2.042-4.823 3.324-8.93 3.324-8.93l-14.983-6.332s-.92 1.466-2.076 3.78z" class="C"/><path d="M342.38 93.412l-8.953 1.094s-2.738 3.647-5.284 3.647-4.562 3.28-4.562 3.28-3.653 2-6.024 1.455-12.228-1.45-13.7.098-10.952 3.002-10.952 3.002-3.653 5.65-6.94 5.65-21.537 13.31-22.085 18.045c0 0 18.07-11.483 18.252 13.763 0 0 7.667-6.835 8.948-9.75s13.143-1.728 13.143-1.728 8.028-3.56 9.31-5.927 8.762 3.773 11.133 1.974 23.914-11.16 23.914-11.16l6.665-12.505-12.875-10.937z" class="D"/><g class="I"><use xlink:href="#b"/><path d="M385.215 147.87a1.55 1.55 0 0 1-1.549-1.547 1.55 1.55 0 0 1 1.549-1.548 1.55 1.55 0 0 1 1.55 1.548 1.55 1.55 0 0 1-1.55 1.547z"/><use xlink:href="#b" y="15.305"/><path d="M388.14 164.877a1.55 1.55 0 0 1-1.55-1.547 1.55 1.55 0 1 1 3.1 0 1.55 1.55 0 0 1-1.55 1.547z"/></g><path d="M437.118 367.364c.76 2.128 3.132 1.346 3.132 1.346 7.46-.82 11.976-20.9 10.06-23.213s1.194-7.617 1.194-7.617l4.035 1.57 3.697-11.34-2.333-2.87-6.43 11.276a20.6 20.6 0 0 0-2.053 9.843c.125 3.554-4.004 20.55-11.303 21.008zM371.64 50.63l1.096-.42c1.254-.508 2.573-1.094 3.335-2.187.695-1.017.92-2.45 2.004-3.03 1.248-.667 2.738.235 4.1.547 1.6.377 3.286-.07 4.852-.645 2.333-.858 5.6-2.44 7.985-.804 1.86 1.27 1.14 3.96 1.615 5.878.74 2.98 3.9 4.92 4.507 7.934.268 1.33.093 2.953 1.172 3.78a2.8 2.8 0 0 0 1.051.459 16.95 16.95 0 0 0 1.743-6.857 16.93 16.93 0 0 0-1.213-6.97c-.9-2.212-2.238-4.212-3.955-5.87s-3.765-2.933-6-3.746a17 17 0 0 0-13.822 1.005c-2.103 1.13-3.944 2.688-5.403 4.575s-2.503 4.062-3.063 6.38l.016-.027z" class="B C"/><path d="M387.027 43.783c-1.55.574-3.236 1.023-4.85.64-1.375-.323-2.837-1.225-4.086-.547-1.095.585-1.314 2.012-2.004 3.03-.76 1.094-2.08 1.706-3.34 2.187-.94.437-1.944.718-2.974.83-.515.05-1.035-.02-1.52-.202a3.37 3.37 0 0 1-1.273-.854c-.974-1.176-.68-2.936-.098-4.342s1.402-2.805 1.34-4.325c-.07-1.805-1.38-3.374-1.49-5.173-.142-2.28 1.703-4.27 3.795-5.195 1.873-.826 4.014-1.055 5.728-2.187 1.955-1.28 3.028-3.5 4.474-5.337 2.103-2.674 5.394-4.67 8.762-4.287 2.075.235 3.96 1.318 6.023 1.74 3.138.65 6.457-.295 9.578.432a3.29 3.29 0 0 1 1.95 1.066c.766 1.028.372 2.466.033 3.702-.608 2.226-.866 4.746.345 6.704 1.37 2.215 4.276 3.15 5.54 5.424.366.667.568 1.412.6 2.172a4.8 4.8 0 0 1-.464 2.202c-.602 1.258-1.768 2.28-1.95 3.664-.126.995.285 1.963.498 2.936s.154 2.187-.65 2.734-1.934.4-2.552 1.094a2.17 2.17 0 0 0-.361.907 2.2 2.2 0 0 0 .07.974c.22 1.094.685 2.083.93 3.155.158.526.203 1.08.13 1.623s-.26 1.066-.55 1.532c-1.063 1.433-3.21 1.345-4.93.962-.496-.08-.97-.266-1.385-.547-1.096-.826-.904-2.45-1.172-3.78-.597-3.008-3.768-4.96-4.507-7.934-.476-1.92.246-4.615-1.615-5.884-2.42-1.558-5.685.022-8.018.88z" class="G"/><g class="C"><path d="M389.7 241.602s-17.2 10.936-17.737 15.13l17.737-15.13zm.88 8.748s-19.714 9.476-18.62 12.757l18.62-12.757zm1.3 8.382s-11.14 5.835-11.867 9.296l11.867-9.296zm-4.748 13.125s-7.3 6.382-8.762 4.74 8.762-4.74 8.762-4.74zm10.223 4.013s-5.7 9.1-2.95 9.657 2.95-9.657 2.95-9.657zm24.978-161.858s9.676 5.83 6.757 7.3-6.757-7.3-6.757-7.3zm-.001-21.512s9.857 18.045 5.296 16.77-5.296-16.77-5.296-16.77zm-104.747 18.045s6.024 7.076 4.928 10.936l-4.928-10.936zm-15.727 3.467s9.04 8.016 7.716 8.93l-7.716-8.93zm-5.63 9.848s.914 5.272-.548 5.47l.548-5.47z" class="B"/><path opacity=".05" d="M394.892 235.077c2.327 3.008 2.327 8.34 3.38 10.526.575 1.203 1.856 3.28 2.897 4.966.34-1.094.996-1.745 2.02-1.17l2.246-15.415c.547-2.46-5.477-9.022-5.477-9.022s-5.886 1.23-7.392 4.238 0 2.876 2.327 5.878z"/><path d="M425.285 171.795c6.57.907 18.8 18.406 18.8 18.406l3.834-5.583 9.3-14.02-16.045-16.525-2.92 3.14s-5.662 5.65-5.662 6.742c0 .427-1.095 1.723-2.486 3.14-2.13 2.204-4.83 4.703-4.83 4.703zm20.957-74.002l.548-1.023-7.076.47-3.75 23.25 10.28-22.7z" class="B"/><path d="M431.204 168.202l16.702 16.405.745.66c.233.157.493.27.767.334l9.106-13.67-1.314-1.356-14.928-15.333-1.845 1.985s-5.663 5.65-5.663 6.742c0 .525-1.768 2.428-3.57 4.233z" class="B"/></g><path d="M438.607 97.24l8.215-.547s2.2 5.102 4.014 5.47 4.2 4.555 4.2 4.555 7.03 1.28 6.724 3.466 10.8 17.832 10.8 17.832 3.653 7.503 1.096 12.97-4.38 9.115-4.93 11.117-7.03 10.756-6.977 12.396-16.57 25.7-16.57 25.7-12.23-17.498-18.8-18.412c0 0 7.3-6.742 7.3-7.836s5.618-6.742 5.618-6.742l7.12-7.655s2.377-1.094 0-3.1 4.014-6.562 4.014-6.562.186-3.28-2.2-4.194-5.476-6.923-5.476-6.923l-8.58-4.374 4.413-27.16z" class="D"/><g class="C"><path d="M469.975 133.5s-9.857-2-10.038-.727 10.038.727 10.038.727zm-8.215 9.937s-8.357 1.094-8 2.877 8-2.877 8-2.877zm-6.905-30.987s-8.033 11.357-9.128 9.006l9.128-9.006z" class="B"/><path d="M406.583 27.833a12.26 12.26 0 0 1 .493-3.921 12.1 12.1 0 0 0 .361-1.64c.07.927-.053 1.858-.36 2.734a14.12 14.12 0 0 0-.493 2.827zm-38.403 12.03c-.214-1.64-1.342-3.133-1.446-4.812a4.18 4.18 0 0 1 .033-.837c.213 1.695 1.4 3.2 1.456 4.92a4.11 4.11 0 0 1-.043.727zm-1.2 7.93c.353.38.8.67 1.273.854s1.005.252 1.52.202c1.03-.113 2.035-.394 2.974-.83 1.26-.5 2.58-1.094 3.34-2.187.696-1.017.92-2.444 2.004-3.03 1.25-.667 2.738.235 4.1.547 1.6.383 3.286-.066 4.846-.64 2.333-.86 5.597-2.44 8-.8 1.862 1.27 1.14 3.964 1.616 5.884.74 2.975 3.9 4.92 4.506 7.934.27 1.33.093 2.953 1.172 3.78.418.282.893.47 1.4.547 1.742.383 3.888.47 4.93-.962.3-.4.5-.9.547-1.394a3.45 3.45 0 0 1-.547 2.488c-1.063 1.433-3.2 1.345-4.93.962a3.43 3.43 0 0 1-1.39-.547c-1.095-.826-.903-2.45-1.172-3.78-.597-3.008-3.767-4.96-4.506-7.934-.477-1.92.246-4.615-1.616-5.884-2.393-1.64-5.657-.05-8 .8-1.55.574-3.236 1.023-4.846.64-1.38-.323-2.842-1.225-4.1-.547-1.095.585-1.308 2.012-2.004 3.03-.76 1.094-2.08 1.706-3.34 2.187-.94.437-1.944.718-2.974.83-.515.05-1.035-.02-1.52-.202a3.37 3.37 0 0 1-1.273-.854c-.265-.355-.455-.762-.557-1.194s-.113-.88-.034-1.316a2.74 2.74 0 0 0 .591 1.416zm44.16-3.735c.18-1.383 1.347-2.406 1.95-3.664.227-.474.37-.982.428-1.504a4.76 4.76 0 0 1-.428 2.597c-.585 1.22-1.692 2.226-1.922 3.543a3.41 3.41 0 0 1-.027-.973zm-3.046 8.54c-.078-.294-.1-.602-.037-.9a2.08 2.08 0 0 1 .35-.832c.618-.705 1.796-.547 2.55-1.094.2-.158.368-.355.5-.578a1.92 1.92 0 0 0 .227-.723c.12.9 0 1.876-.718 2.395s-1.933.4-2.55 1.094a1.49 1.49 0 0 0-.313.64z" class="B"/></g><path d="M538.086 335.808s22.65-1.367 19.983 14.485c0 0 .547 2.8-2.015 4.074 0 0-.04-1.176-2.322-.777-.812.136-1.638.174-2.46.115-1.11-.075-2.168-.51-3.012-1.236 0 0-6.37-2.63-8.844-13.02 0 0-1.83-2.27-1.758-2.85l3.834 1.64s-1.31 2.734-.28 5.042c0 0 .126-4.92.86-4.83.148.028 1.988.957 1.988.957s-2.25 4.796-.548 8.285c0 0-.646-5.91 1.254-7.94l2.69 1.57s-2.628 4.955-.843 9c0 0-.46-6.2 1.407-8.618l2.442 1.898s-2.47 4.883-.963 8.24c0 0 .197-7.223 1.49-7.765 0 0 2.136 1.876 2.46 2.647 0 0-1.687 3.55-.64 5.42 0 0 .64-4.812 1.172-4.834 0 0 2.125 3.188 2.344 5.37 0 0-.093-3.248-1.83-5.676 1.225.234 2.355.82 3.253 1.684 0 0-.33-2.253-3.78-2.45 0 0-1.758-2.417-2.23-2.564 0 0 3.434-.285 5.51.634 0 0-1.83-2.122-6.133-1.16l-2.41-1.963s4.512-.613 6.43.065c0 0-2.19-1.88-7.08-.508l-2.618-1.564s3.834-.83 6.145-.547c0 0-2.42-1.3-6.91.11l-1.88-.842s2.82-.547 3.648-.64.87-.317.87-.317a9.82 9.82 0 0 0-5.295.591s-3.998-1.482-3.927-1.728z" fill="url(#S)"/><path d="M553.688 358.456c-8.855 0-16.034-1.21-16.034-2.706s7.18-2.707 16.034-2.707 16.034 1.212 16.034 2.707-7.18 2.706-16.034 2.706z" class="B D"/><defs><linearGradient id="A" x1="48.613" y1="-105.365" x2="421.123" y2="566.221" xlink:href="#c"><stop stop-color="#eeeff1" stop-opacity=".26"/><stop offset="1" stop-color="#eeeff1" stop-opacity=".76"/></linearGradient><radialGradient id="B" cx="0" cy="0" r="1" gradientTransform="translate(150.437 198.548) rotate(63.1285) scale(18.5804 15.5474)" xlink:href="#c"><stop stop-color="#e01727"/><stop offset=".447" stop-color="#cf1128"/><stop offset="1" stop-color="#b20629"/></radialGradient><radialGradient id="C" cx="0" cy="0" r="1" gradientTransform="translate(179.093 217.207) rotate(63.9533) scale(19.0819 15.6233)" xlink:href="#c"><stop stop-color="#e01727"/><stop offset=".447" stop-color="#cf1128"/><stop offset="1" stop-color="#b20629"/></radialGradient><radialGradient id="D" cx="0" cy="0" r="1" gradientTransform="translate(199.27 262.938) rotate(54.8056) scale(17.6933 17.2952)" xlink:href="#c"><stop stop-color="#e01727"/><stop offset=".447" stop-color="#cf1128"/><stop offset="1" stop-color="#b20629"/></radialGradient><radialGradient id="E" cx="0" cy="0" r="1" gradientTransform="translate(206.622 309.08) rotate(60.2255) scale(18.085 16.1779)" xlink:href="#c"><stop stop-color="#e01727"/><stop offset=".447" stop-color="#cf1128"/><stop offset="1" stop-color="#b20629"/></radialGradient><radialGradient id="F" cx="0" cy="0" r="1" gradientTransform="translate(162.109 234.776) rotate(41.2662) scale(16.6814 17.1633)" xlink:href="#c"><stop stop-color="#e01727"/><stop offset=".447" stop-color="#cf1128"/><stop offset="1" stop-color="#b20629"/></radialGradient><radialGradient id="G" cx="0" cy="0" r="1" gradientTransform="translate(167.553 284.982) rotate(39.6972) scale(17.3019 17.6473)" xlink:href="#c"><stop stop-color="#e01727"/><stop offset=".447" stop-color="#cf1128"/><stop offset="1" stop-color="#b20629"/></radialGradient><radialGradient id="H" cx="0" cy="0" r="1" gradientTransform="translate(184.236 333.807) rotate(40.4223) scale(16.9013 17.3148)" xlink:href="#c"><stop stop-color="#e01727"/><stop offset=".447" stop-color="#cf1128"/><stop offset="1" stop-color="#b20629"/></radialGradient><radialGradient id="I" cx="0" cy="0" r="1" gradientTransform="translate(90.2314 235.496) rotate(52.2435) scale(17.4211 17.5029)" xlink:href="#c"><stop stop-color="#f76e2a"/><stop offset=".447" stop-color="#f05923"/><stop offset="1" stop-color="#d70a21"/></radialGradient><radialGradient id="J" cx="0" cy="0" r="1" gradientTransform="translate(121.278 242.918) rotate(64.0102) scale(19.1776 15.6773)" xlink:href="#c"><stop stop-color="#f76e2a"/><stop offset=".447" stop-color="#f05923"/><stop offset="1" stop-color="#d70a21"/></radialGradient><radialGradient id="K" cx="0" cy="0" r="1" gradientTransform="translate(162.008 277.319) rotate(63.6991) scale(18.9569 15.6276)" xlink:href="#c"><stop stop-color="#f76e2a"/><stop offset=".447" stop-color="#f05923"/><stop offset="1" stop-color="#d70a21"/></radialGradient><radialGradient id="L" cx="0" cy="0" r="1" gradientTransform="translate(185.191 316.931) rotate(64.1236) scale(19.2517 15.6891)" xlink:href="#c"><stop stop-color="#f76e2a"/><stop offset=".447" stop-color="#f05923"/><stop offset="1" stop-color="#d70a21"/></radialGradient><radialGradient id="M" cx="0" cy="0" r="1" gradientTransform="translate(140.604 311.314) rotate(40.8077) scale(16.7658 17.2117)" xlink:href="#c"><stop stop-color="#f76e2a"/><stop offset=".447" stop-color="#f05923"/><stop offset="1" stop-color="#d70a21"/></radialGradient><radialGradient id="N" cx="0" cy="0" r="1" gradientTransform="translate(175.957 349.188) rotate(40.0723) scale(17.0975 17.48)" xlink:href="#c"><stop stop-color="#f76e2a"/><stop offset=".447" stop-color="#f05923"/><stop offset="1" stop-color="#d70a21"/></radialGradient><radialGradient id="O" cx="0" cy="0" r="1" gradientTransform="translate(116.087 267.367) rotate(39.9059) scale(17.2242 17.5915)" xlink:href="#c"><stop stop-color="#f76e2a"/><stop offset=".447" stop-color="#f05923"/><stop offset="1" stop-color="#d70a21"/></radialGradient><radialGradient id="P" cx="0" cy="0" r="1" gradientTransform="translate(291.384 58.1685) rotate(52.7048) scale(31.3179 31.3299)" xlink:href="#c"><stop stop-color="#fbbb7e"/><stop offset="1" stop-color="#f05923"/></radialGradient><radialGradient id="Q" cx="0" cy="0" r="1" gradientTransform="translate(232.1 60.0884) rotate(52.7048) scale(22.833 22.8418)" xlink:href="#c"><stop stop-color="#fbbb7e"/><stop offset="1" stop-color="#f05923"/></radialGradient><linearGradient id="R" x1="368.77" y1="368.852" x2="368.77" y2="16.628" xlink:href="#c"><stop stop-color="gray" stop-opacity=".25"/><stop offset=".54" stop-color="gray" stop-opacity=".12"/><stop offset="1" stop-color="gray" stop-opacity=".1"/></linearGradient><radialGradient id="S" cx="0" cy="0" r="1" gradientTransform="translate(545.615 343.347) rotate(49.833) scale(12.3364 12.6196)" xlink:href="#c"><stop stop-color="#f76e2a"/><stop offset=".447" stop-color="#f05923"/><stop offset="1" stop-color="#d70a21"/></radialGradient><path id="T" d="M163.076 192.08c2.246 5.588-1.363 25.843-1.363 25.843s-16.642-12.134-18.887-17.717a10.87 10.87 0 0 1-.786-4.181c.015-1.43.313-2.846.876-4.163a10.91 10.91 0 0 1 2.405-3.511 10.9 10.9 0 0 1 3.567-2.324 10.91 10.91 0 0 1 4.186-.785c1.434.015 2.85.313 4.17.875s2.513 1.378 3.516 2.4 1.794 2.233 2.328 3.562h-.01z"/><path id="U" d="M192.26 216.3c-1.155 5.906-15.212 20.95-15.212 20.95s-7.366-19.215-6.2-25.12c.583-2.808 2.25-5.273 4.643-6.86a10.93 10.93 0 0 1 8.132-1.621c2.82.55 5.307 2.185 6.926 4.554s2.237 5.28 1.72 8.1z"/><path id="V" d="M212.79 269.45c-3.98 4.517-23.717 10.4-23.717 10.4s3.357-20.298 7.338-24.815c.947-1.074 2.096-1.95 3.382-2.58a10.92 10.92 0 0 1 4.114-1.093c1.43-.09 2.864.1 4.22.563s2.607 1.187 3.683 2.132a10.9 10.9 0 0 1 2.585 3.378c.63 1.284 1.003 2.68 1.094 4.108a10.88 10.88 0 0 1-.563 4.213c-.464 1.354-1.19 2.604-2.136 3.678v.027z"/><path id="W" d="M219.26 313.158c-3.16 5.124-21.62 14.272-21.62 14.272s-.126-20.577 3.033-25.7a10.91 10.91 0 0 1 2.891-3.15c1.162-.85 2.48-1.46 3.88-1.798a10.95 10.95 0 0 1 4.274-.17 10.93 10.93 0 0 1 4.012 1.484c1.226.754 2.29 1.743 3.133 2.91s1.444 2.488 1.77 3.89.376 2.85.14 4.27-.75 2.776-1.515 3.995z"/><path id="X" d="M156.192 246.862c5.58 2.28 25.886-1.187 25.886-1.187s-12.048-16.7-17.61-18.98c-2.668-1.044-5.64-1-8.275.127a10.9 10.9 0 0 0-5.807 5.888 10.89 10.89 0 0 0 0 8.264c1.087 2.647 3.173 4.762 5.807 5.888z"/><path id="Y" d="M164.407 297.88c6.024.514 24.347-8.864 24.347-8.864s-16.488-12.336-22.5-12.85a10.94 10.94 0 0 0-4.283.414c-1.386.42-2.675 1.113-3.8 2.035s-2.036 2.06-2.707 3.34-1.08 2.684-1.205 4.126a10.89 10.89 0 0 0 2.588 8.019c.943 1.098 2.095 1.998 3.4 2.647s2.705 1.034 4.15 1.133z"/><path id="Z" d="M179.236 346.378c5.832 1.515 25.492-4.632 25.492-4.632s-14.16-14.94-19.994-16.46a10.93 10.93 0 0 0-8.111 1.302c-2.43 1.473-4.2 3.835-4.904 6.583a10.88 10.88 0 0 0 1.083 8.132 10.91 10.91 0 0 0 6.456 5.074h-.022z"/><path id="a" d="M238.055 119.507c-1.74 0-3.148-1.408-3.148-3.144s1.41-3.144 3.148-3.144 3.15 1.407 3.15 3.144-1.4 3.144-3.15 3.144z"/><path id="b" d="M383.666 115.56a1.55 1.55 0 0 1-1.55-1.548 1.55 1.55 0 1 1 3.1 0 1.55 1.55 0 0 1-1.55 1.548z"/><linearGradient id="c" gradientUnits="userSpaceOnUse"/></defs></svg>