<?xml version="1.0" encoding="utf-8"?>
<!-- Generator: Adobe Illustrator 23.0.1, SVG Export Plug-In . SVG Version: 6.00 Build 0)  -->
<svg version="1.1" id="Layer_1" xmlns="http://www.w3.org/2000/svg" xmlns:xlink="http://www.w3.org/1999/xlink" x="0px" y="0px"
	 viewBox="0 0 120 64" style="enable-background:new 0 0 120 64;" xml:space="preserve">
<style type="text/css">
	.st0{clip-path:url(#SVGID_2_);}
	.st1{fill-rule:evenodd;clip-rule:evenodd;fill:#C23C40;}
	.st2{fill-rule:evenodd;clip-rule:evenodd;fill:#FFFFFF;}
	.st3{fill-rule:evenodd;clip-rule:evenodd;}
</style>
<g>
	<defs>
		<rect id="SVGID_1_" width="120" height="64"/>
	</defs>
	<clipPath id="SVGID_2_">
		<use xlink:href="#SVGID_1_"  style="overflow:visible;"/>
	</clipPath>
	<g class="st0">
		<path class="st1" d="M3.1,14.5l37.4-0.1c1.4,0,2.5,1.1,2.5,2.4l0.1,22.2c0,1.3-1.1,2.4-2.4,2.4L3.2,41.5c-1.3,0-2.5-1.1-2.5-2.4
			L0.7,16.9C0.7,15.6,1.8,14.5,3.1,14.5z"/>
		<path class="st2" d="M15.5,31.3l-0.2-6c-3.1-0.1-6.1,0-9.2,0.3c-0.5,0-1-0.2-1.4-0.6c-1.9-1.9-2.2-2.3,1-2.4
			c7.5-0.2,29.4-0.8,33.3,0c3.3,1-0.4,4.3-0.9,5.1l-4.9,5.5c-1,0.8-2,1-3.4,1.1l-16.3,0c-1.2,0-1.3-0.2-1.9-0.8l-1-1.2
			c0.1-0.5-0.2-0.8,0.6-0.9L15.5,31.3z M22.2,25.3c2.7-0.1,5.1,0,7.4,0.2c1.6,0.3,1.6,0.3,0.7,1.8l-1.7,3.1
			c-0.4,0.7-0.7,0.9-1.4,0.9l-4.8,0L22.2,25.3z"/>
		<path class="st3" d="M46.8,41.5h6.9c2.2,0,6-3.4,6-7.3V22.3c-0.5-0.7,0.4-6.6-6.8-7.3c-0.2,0-0.5,0-0.7,0h-5.4L46.8,41.5
			L46.8,41.5z M51.6,36.3V19.6c0.7-0.1,2.8-0.3,2.8,2.9v11C54.4,35.7,53.3,36.3,51.6,36.3z M61.8,41.1h5.4V14.6h-5.4V41.1z
			 M69.3,41.1h11.2v-4.6h-5.7v-6.1h4.6V25h-4.6v-5.4H81v-4.8H69.3L69.3,41.1L69.3,41.1z M81.6,32.8v2.4c0,4.5,3.1,6.6,6.2,6.6
			c3.5,0,6.5-1.5,6.9-7.5c0-0.4,0.1-0.8,0-1.1c-1.8-7.5-8.6-8.3-8.3-12.5c0.2-1.8,0.9-2,1.5-2c1,0,1.3,1.1,1.3,4.1H94v-0.8
			c0-5.8-3-7.9-6.3-7.8c-3.7,0.1-6.1,2.1-6.4,6.6c0,0.2-0.1,0.4-0.1,0.7c0.4,8,8.4,9.3,8.4,12.9c0,1.8-0.6,2.7-1.8,2.7
			c-1,0-1.6-0.8-1.6-2.6v-1.5H81.6z M95.9,41.1h11.4v-4.6h-6.1v-6.2h4.6v-5.2h-4.3v-5.6h6v-5H95.9L95.9,41.1L95.9,41.1z M108.8,41.1
			h10.6v-4.6h-5V14.9h-5.7V41.1z M118.5,14.9c-0.2,0-0.4,0-0.6,0.1c-0.2,0.1-0.4,0.2-0.5,0.3c-0.1,0.1-0.3,0.3-0.3,0.5
			c-0.1,0.2-0.1,0.4-0.1,0.6c0,0.4,0.2,0.8,0.4,1.1c0.3,0.3,0.7,0.4,1.1,0.4c0.8,0,1.5-0.7,1.5-1.5C120,15.6,119.3,14.9,118.5,14.9z
			 M118.5,15.1c0.7,0,1.4,0.6,1.4,1.4c0,0.7-0.6,1.4-1.4,1.4c-0.4,0-0.7-0.2-1-0.4c-0.3-0.3-0.4-0.6-0.4-1
			C117.1,15.7,117.7,15.1,118.5,15.1z M118.1,16.5L118.1,16.5C118.1,16.5,118.1,16.5,118.1,16.5l0.1,0c0.2,0,0.3,0.3,0.4,0.4
			c0.1,0.2,0.2,0.3,0.4,0.4c0,0,0.2,0,0.2,0c0,0-0.2-0.1-0.2-0.1c-0.2-0.2-0.4-0.5-0.5-0.7c0.1,0,0.2-0.1,0.2-0.2
			c0-0.1,0.1-0.2,0.1-0.2c0-0.3-0.3-0.4-0.6-0.4c-0.2,0-0.4,0-0.6,0c0,0,0,0,0,0c0,0,0,0,0,0c0.1,0,0.2,0.1,0.2,0.3
			c0,0.2,0,0.4,0,0.6c0,0.1,0,0.2,0,0.3c0,0,0,0.1,0,0.2c0,0.1-0.1,0.2-0.1,0.2c0,0-0.1,0-0.1,0c0,0,0,0,0,0c0,0,0,0,0,0h0.5
			c0,0,0,0,0,0c0,0,0.1,0,0.1,0c0,0-0.1,0-0.1,0c0,0-0.2,0-0.2-0.2V16.5z M118.2,16.4C118.1,16.4,118.1,16.4,118.2,16.4
			c-0.1-0.2-0.1-0.3-0.1-0.4c0-0.1,0-0.3,0.1-0.3c0.2,0,0.4,0.2,0.4,0.4C118.7,16.4,118.4,16.4,118.2,16.4z M0,49.9l0-5.1h2
			c0.4,0,0.8,0,1,0.1c0.3,0.1,0.6,0.2,0.8,0.4c0.3,0.2,0.5,0.5,0.7,0.9c0.2,0.4,0.2,0.8,0.2,1.2c0,0.4-0.1,0.7-0.2,1
			c-0.1,0.3-0.2,0.5-0.4,0.7c-0.1,0.2-0.3,0.3-0.5,0.5c-0.2,0.1-0.4,0.2-0.7,0.3c-0.3,0.1-0.6,0.1-0.9,0.1H0z M0.8,49.3H2
			c0.4,0,0.7,0,0.9-0.1c0.2-0.1,0.4-0.2,0.5-0.3c0.2-0.2,0.3-0.4,0.4-0.6C3.9,48,4,47.7,4,47.3c0-0.5-0.1-0.9-0.3-1.2
			c-0.2-0.3-0.4-0.5-0.7-0.6c-0.2-0.1-0.5-0.1-1-0.1H0.8L0.8,49.3z M10.4,49.9l0-5.1h4.2v0.6h-3.4V47h3.2v0.6h-3.2v1.7h3.6v0.6
			L10.4,49.9L10.4,49.9z M20.3,49.9v-5.1h0.8l3,4v-4h0.7v5.1h-0.8l-3-4v4H20.3z M30.8,49.9l0-5.1h0.8v5.1H30.8z M37.4,49.9v-5.1h1.2
			l1.4,3.6c0.1,0.3,0.2,0.6,0.3,0.7c0.1-0.2,0.2-0.5,0.3-0.8l1.4-3.5h1v5.1h-0.7v-4.2l-1.7,4.2h-0.7l-1.7-4.3v4.3H37.4z M53.5,49.9
			l0-5.1h2c0.4,0,0.8,0,1,0.1c0.3,0.1,0.6,0.2,0.8,0.4c0.3,0.2,0.5,0.5,0.7,0.9c0.2,0.4,0.2,0.8,0.2,1.2c0,0.3,0,0.7-0.2,1
			c-0.1,0.3-0.2,0.5-0.4,0.7c-0.1,0.2-0.3,0.3-0.5,0.5c-0.2,0.1-0.4,0.2-0.7,0.3c-0.3,0.1-0.6,0.1-0.9,0.1H53.5z M54.2,49.3h1.2
			c0.4,0,0.7,0,0.9-0.1c0.2-0.1,0.4-0.2,0.5-0.3c0.2-0.2,0.3-0.4,0.4-0.6s0.2-0.6,0.2-1c0-0.5-0.1-0.9-0.3-1.2
			c-0.2-0.3-0.4-0.5-0.7-0.6c-0.2-0.1-0.5-0.1-1-0.1h-1.2L54.2,49.3z M64,49.9l0-5.1h0.8v5.1H64z M72.3,49.9L70,44.8h0.8l1.5,3.7
			c0.1,0.3,0.2,0.6,0.3,0.8c0.1-0.3,0.2-0.6,0.3-0.8l1.6-3.7h0.8L73,49.9H72.3z M80.7,49.9l0-5.1h0.8v5.1H80.7z M87,48.3l0.7-0.1
			c0,0.3,0.1,0.5,0.2,0.6c0.1,0.2,0.3,0.3,0.6,0.4c0.3,0.1,0.6,0.2,0.9,0.2c0.3,0,0.6,0,0.8-0.1c0.2-0.1,0.4-0.2,0.5-0.3
			c0.1-0.1,0.2-0.3,0.2-0.4c0-0.2-0.1-0.3-0.2-0.4c-0.1-0.1-0.3-0.2-0.5-0.3c-0.2-0.1-0.5-0.1-1-0.2c-0.5-0.1-0.9-0.2-1.1-0.3
			c-0.3-0.1-0.5-0.3-0.6-0.5c-0.1-0.2-0.2-0.4-0.2-0.6c0-0.3,0.1-0.5,0.2-0.7c0.2-0.2,0.4-0.4,0.7-0.5c0.3-0.1,0.7-0.2,1.1-0.2
			c0.4,0,0.8,0.1,1.1,0.2c0.3,0.1,0.6,0.3,0.8,0.5c0.2,0.2,0.3,0.5,0.3,0.8l-0.7,0c0-0.3-0.2-0.6-0.4-0.7c-0.2-0.2-0.6-0.2-1-0.2
			c-0.5,0-0.8,0.1-1,0.2c-0.2,0.1-0.3,0.3-0.3,0.5c0,0.2,0.1,0.3,0.2,0.4c0.1,0.1,0.5,0.2,1.2,0.4c0.6,0.1,1.1,0.2,1.3,0.3
			c0.3,0.1,0.6,0.3,0.7,0.5c0.2,0.2,0.2,0.4,0.2,0.7c0,0.3-0.1,0.5-0.3,0.8c-0.2,0.2-0.4,0.4-0.8,0.6c-0.4,0.1-0.7,0.2-1.1,0.2
			c-0.5,0-1-0.1-1.3-0.2c-0.4-0.1-0.6-0.3-0.8-0.6C87.2,48.9,87.1,48.6,87,48.3z M97.4,49.9l0-5.1h0.8v5.1H97.4z M103.8,47.4
			c0-0.8,0.3-1.5,0.8-2c0.5-0.5,1.2-0.7,2-0.7c0.5,0,1,0.1,1.4,0.3c0.4,0.2,0.8,0.5,1,0.9c0.2,0.4,0.3,0.9,0.3,1.4
			c0,0.5-0.1,1-0.4,1.4c-0.2,0.4-0.6,0.7-1,0.9c-0.4,0.2-0.9,0.3-1.4,0.3c-0.5,0-1-0.1-1.5-0.3c-0.4-0.2-0.8-0.5-1-0.9
			C103.9,48.3,103.8,47.9,103.8,47.4z M104.6,47.4c0,0.6,0.2,1.1,0.6,1.4c0.4,0.4,0.8,0.5,1.4,0.5c0.6,0,1.1-0.2,1.4-0.5
			c0.4-0.4,0.6-0.9,0.6-1.5c0-0.4-0.1-0.8-0.2-1.1c-0.2-0.3-0.4-0.6-0.7-0.7c-0.3-0.2-0.7-0.3-1-0.3c-0.5,0-1,0.2-1.4,0.5
			C104.8,46.1,104.6,46.7,104.6,47.4L104.6,47.4z M114.8,49.9v-5.1h0.8l3,4v-4h0.7v5.1h-0.8l-3-4v4H114.8z"/>
	</g>
</g>
</svg>
