<?xml version="1.0" encoding="utf-8"?>
<!-- Generator: Adobe Illustrator 23.0.1, SVG Export Plug-In . SVG Version: 6.00 Build 0)  -->
<svg version="1.1" id="Layer_1" xmlns="http://www.w3.org/2000/svg" xmlns:xlink="http://www.w3.org/1999/xlink" x="0px" y="0px"
	 viewBox="0 0 120 64" style="enable-background:new 0 0 120 64;" xml:space="preserve">
<path d="M120,32.1c0-5.7-5.1-10.1-11.5-10.1c-6.1,0-11.5,4.2-11.5,9.7c0,5.2,4.2,9.4,9.9,10.1v-3.2c-3.7-0.6-6.5-3.4-6.5-6.7
	c0-3.8,3.6-6.9,8.1-6.9c4.5,0,8.1,3.1,8.1,6.9c0,3.3-2.8,6.1-6.4,6.7v3.2C115.6,41.2,120,37.1,120,32.1z M83.6,38.9
	c-3.5,0-6.5-1.9-7.6-4.6h-3.6c1.2,4.6,5.9,7.6,11.4,7.6c1.3,0,2.8-0.1,4-0.4c2.8-0.7,5.8-2.5,5.8-5.3v-5h-10l0,3.2h6.8v1.4
	c0,1.6-2.4,2.5-3.8,2.8c-0.8,0.2-1.8,0.3-2.6,0.3H83.6z M90.4,27.8c-1.5-1.6-3.9-2.6-6.5-2.6c-4.2,0-7.7,2.6-8.2,5.9h-3.5
	c0.5-5.2,5.8-9,11.8-9c3.6,0,6.8,1.3,8.9,3.5L90.4,27.8z M52.7,22.5h-3.2v19h3.2V27.3l13.1,14.2h2.4v-2.3L52.7,22.5z M68.1,22.5
	h-3.2v9.2l3.2,3.2V22.5L68.1,22.5z M40,35.6l2.9,5.9h3.8l-9.6-19h-3.5l0,0l4.8,10.1h-6.4l1.7-3.3l-1.7-3.6l-8.1,15.8h3.6l3-5.9
	L40,35.6L40,35.6z M3.2,22.5H0v19h3.2V28.5l7.2,11.6l1.8-3L3.2,22.5L3.2,22.5z M12.2,31.5l1.8,2.9l3.7-5.9v13.1h3.2v-19h-3.2
	L12.2,31.5z"/>
</svg>
