<svg width="48" height="48" viewBox="0 0 48 48" fill="none" xmlns="http://www.w3.org/2000/svg">
<g clip-path="url(#clip0)">
<path d="M33.3562 37.7747C33.1818 37.6003 32.9399 37.5 32.6924 37.5C32.4459 37.5 32.204 37.6002 32.0305 37.7747C31.8552 37.9491 31.7559 38.19 31.7559 38.4375C31.7559 38.6841 31.8552 38.9259 32.0305 39.1002C32.2049 39.2746 32.4459 39.375 32.6924 39.375C32.9399 39.375 33.1809 39.2747 33.3562 39.1002C33.5305 38.9259 33.6309 38.6841 33.6309 38.4375C33.6309 38.1909 33.5305 37.9491 33.3562 37.7747Z" fill="#007bff"/>
<path d="M47.8134 19.1261C47.6364 18.8894 47.3581 18.75 47.0625 18.75H43.239V0.9375C43.239 0.419813 42.8192 0 42.3015 0H25.0515C24.5337 0 24.114 0.419813 24.114 0.9375V8.15625H14.4458C13.928 8.15625 13.5083 8.57606 13.5083 9.09375V18.75H10.0313C9.7357 18.75 9.45745 18.8894 9.28045 19.1261C9.10345 19.3628 9.04842 19.6692 9.13205 19.9527L14.6621 38.7027C14.7796 39.1013 15.1456 39.375 15.5612 39.375H28.5469C29.0647 39.375 29.4844 38.9552 29.4844 38.4375C29.4844 37.9198 29.0647 37.5 28.5469 37.5H16.2623L11.2853 20.625H14.4459H31.32H42.3015H45.8086L40.8316 37.5H37.4063C36.8885 37.5 36.4688 37.9198 36.4688 38.4375C36.4688 38.9552 36.8885 39.375 37.4063 39.375H41.5325C41.9481 39.375 42.3141 39.1013 42.4317 38.7027L47.9617 19.9527C48.0453 19.6692 47.9904 19.3628 47.8134 19.1261ZM30.3825 18.75H15.3833V10.0312H25.0515H30.3825V18.75ZM41.364 18.75H32.2575V9.09375C32.2575 8.57606 31.8378 8.15625 31.32 8.15625H25.989V1.875H41.364V18.75Z" fill="#007bff"/>
<path d="M42.572 41.0633H13.6455L5.87625 14.7211C5.75869 14.3225 5.39269 14.0488 4.97709 14.0488H0.9375C0.419719 14.0488 0 14.4686 0 14.9863C0 15.504 0.419719 15.9238 0.9375 15.9238H4.27612L12.0455 42.266C12.163 42.6646 12.529 42.9383 12.9446 42.9383H17.5961C17.348 43.4158 17.2068 43.9576 17.2068 44.532C17.2068 46.4447 18.7628 48.0008 20.6755 48.0008C22.5882 48.0008 24.1443 46.4447 24.1443 44.532C24.1443 43.9576 24.0031 43.4158 23.7549 42.9383H31.4289C31.1808 43.4158 31.0396 43.9576 31.0396 44.532C31.0396 46.4447 32.5957 48.0008 34.5083 48.0008C36.421 48.0008 37.9771 46.4447 37.9771 44.532C37.9771 43.9576 37.8359 43.4158 37.5877 42.9383H42.5721C43.0898 42.9383 43.5096 42.5184 43.5096 42.0008C43.5096 41.4831 43.0897 41.0633 42.572 41.0633ZM20.6755 46.1258C19.7967 46.1258 19.0818 45.4108 19.0818 44.532C19.0818 43.6532 19.7967 42.9383 20.6755 42.9383C21.5543 42.9383 22.2693 43.6532 22.2693 44.532C22.2693 45.4108 21.5543 46.1258 20.6755 46.1258ZM34.5082 46.1258C33.6294 46.1258 32.9145 45.4108 32.9145 44.532C32.9145 43.6532 33.6294 42.9383 34.5082 42.9383C35.3871 42.9383 36.102 43.6532 36.102 44.532C36.102 45.4108 35.3871 46.1258 34.5082 46.1258Z" fill="#007bff"/>
<path d="M23.5476 23.6184C23.3732 23.444 23.1313 23.3438 22.8838 23.3438C22.6373 23.3438 22.3954 23.4441 22.221 23.6184C22.0466 23.7928 21.9473 24.0347 21.9473 24.2812C21.9473 24.5278 22.0466 24.7697 22.221 24.944C22.3963 25.1184 22.6373 25.2188 22.8838 25.2188C23.1313 25.2188 23.3723 25.1184 23.5476 24.944C23.722 24.7697 23.8213 24.5278 23.8213 24.2812C23.8213 24.0347 23.722 23.7928 23.5476 23.6184Z" fill="#007bff"/>
<path d="M18.9396 23.3438H12.1328C11.615 23.3438 11.1953 23.7636 11.1953 24.2812C11.1953 24.7989 11.615 25.2188 12.1328 25.2188H18.9396C19.4574 25.2188 19.8771 24.7989 19.8771 24.2812C19.8771 23.7636 19.4574 23.3438 18.9396 23.3438Z" fill="#007bff"/>
</g>
<defs>
<clipPath id="clip0">
<rect width="48" height="48" fill="white"/>
</clipPath>
</defs>
</svg>
