<svg xmlns="http://www.w3.org/2000/svg" width="495" height="549" fill="none" xmlns:v="https://vecta.io/nano"><style><![CDATA[.B{fill:#1e212c}.C{stroke:#1e212c}.D{stroke-width:1.5}.E{stroke-linecap:round}.F{stroke-linejoin:round}]]></style><g fill="#fff"><path d="M314.81 324c.4-3.2 26.166-6.333 39-7.5-2-.8-.167-11.667 1-17-1.167 0-3.7-.2-4.5-1s-.334-2 0-2.5c-1.667-.167-5.5-.7-7.5-1.5-1.6-.4.333-3.833 1.5-5.5-.667-.5-2.1-1.8-2.5-3-.5-1.5 4.5-5 3.5-5-.8 0-1.667-1.667-2-2.5l-9-2c-1 0-4.5.1-10.5.5-16.4.8-46.5 8.667-59.5 12.5-3 1.5-8.8 9.5-8 29.5s20.333 65.667 30 86l47.5-29-19-43c0-5-.5-5 0-9z"/><path d="M419.307 284.5c4.4-10-1.833-14.833-5.5-16-5.5 21-35.498 28.5-56.998 32-7 16 0 36 0 43.5.4 8.8 52.5 70 78.5 99.5l54-32c-28.334-27.833-85.4-84.9-87-90.5-2-7 11.498-24 16.998-36.5z"/></g><g class="B"><path d="M135.5 418.96l-.047.047a2.14 2.14 0 0 1-.896.517c3.064 3.385 3.77 8.556 1.508 12.693l-.094.14c-.33.564-.66 1.08-1.084 1.55l-2.78 3.526c.424-.047.8.047 1.18.235.754-.987 1.602-2.02 2.45-3.102a12.25 12.25 0 0 0 1.132-1.6l.094-.14c2.545-4.42 1.838-10.154-1.46-13.868zm58.4-21.8c-4.572-2.2-9.285-4.1-14.517-5.5-.236.188-.518.33-.8.424-.2.047-.377.047-.566.047a1.02 1.02 0 0 1-.377.235c-.047 0-.094.047-.14.047 5.703 1.457 11.17 3.337 15.978 5.688 1.037.517 2.074 1.034 3.064 1.598.14-.33.424-.6.707-.846l-3.347-1.692zm-23.182 6.862c-.094-1.317-.566-2.257-1.367-2.82-1.32-.987-3.205-.564-3.252-.564l-.236-1.034c.095 0 2.357-.518 4.1.752 1.037.752 1.65 1.974 1.8 3.573l-1.037.094zm40.395 94.964c-3.582-.047-13.433-.987-22-8.368-8.86-7.663-13.952-19.8-15.036-36.15l1.084-.094c1.085 16.03 6.034 27.97 14.66 35.4 9.332 8.086 20.173 8.18 22.294 8.133 4.572-15.9 1.744-29.24-8.295-39.724-7.542-7.898-16.6-11.048-16.686-11.095l.33-1.034c.095.047 9.38 3.3 17.1 11.377 7.164 7.474 14.423 20.637 8.437 41.134l-.095.376-.377.047h-1.414zm.28-6.77l-1.084-.14c2.074-15.184-4.666-25.667-10.7-31.826-6.552-6.675-13.716-9.778-13.763-9.825l.424-.987c.094.047 7.4 3.196 14.093 10.013 6.22 6.346 13.15 17.16 11.03 32.766zm-3.77 2.68l-1.037-.235c3.158-13.257-3.016-24.963-3.1-25.057l.942-.517c.094.094 6.457 12.13 3.205 25.8zm-9.097-4.938c-13.904-4.654-18.995-25.48-19.183-26.373l1.037-.235c.047.188 5.184 21.155 18.476 25.62l-.33.987zm-42.557-36.243l36.15-22.988-5.232 10.624-.14.094-16.638 10.53h-.142l-13.998 1.74zm33.512-20.074l-28.893 18.382 9.2-1.13 16.308-10.295 3.394-6.958zm120.045 26.94a.65.65 0 0 1-.188.141c-.2.094-.33.188-.52.33-.094.047-.188.094-.283.094 3.205 3.432 3.865 8.744 1.5 12.928l-.095.14c-.33.517-.707 1.082-1.13 1.552-1.037 1.175-1.98 2.35-2.828 3.478a2.23 2.23 0 0 1 1.13.283l2.498-3.056a15.91 15.91 0 0 0 1.132-1.552l.094-.14c2.78-4.56 2.074-10.4-1.32-14.197zm58.963-20.6c-4.572-2.304-9.285-4.278-14.564-5.783-.425.33-.85.6-1.226.988 5.468 1.504 10.7 3.43 15.32 5.782a63.32 63.32 0 0 1 3.063 1.645c.2-.33.424-.6.707-.846-1.084-.658-2.215-1.222-3.3-1.786zm-23.327 6.44c-.094-1.317-.518-2.257-1.32-2.82-1.32-.987-3.205-.658-3.252-.6l-.236-1.034c.095 0 2.404-.47 4.1.846 1.037.8 1.603 1.974 1.744 3.62h-1.037zm40.063 95.614c-3.582-.14-13.386-1.176-21.87-8.744-8.72-7.804-13.574-20.027-14.422-36.387l1.084-.047c.848 16.078 5.56 28.066 14.093 35.634 9.2 8.227 20.03 8.5 22.152 8.5 4.808-15.795 2.263-29.193-7.635-39.865-7.447-8-16.403-11.33-16.497-11.376l.377-1.034c.094.047 9.333 3.43 16.92 11.658 7.023 7.57 14.093 20.873 7.73 41.276l-.094.376h-.377c-.048 0-.566.047-1.462 0zm.422-6.772l-1.084-.14c2.3-15.137-4.242-25.762-10.18-31.967-6.457-6.77-13.527-10.013-13.62-10.06l.424-.988c.094.047 7.353 3.338 13.904 10.25 6.175 6.44 12.915 17.347 10.558 32.907zm-3.818 2.588l-1.037-.282c3.394-13.2-2.592-25-2.687-25.104l.943-.517c.047.188 6.27 12.317 2.78 25.903zm-9.004-5.077c-13.8-4.9-18.57-25.8-18.76-26.702l1.037-.235c.047.235 4.808 21.25 18.053 25.903l-.33 1.034zm-43.216-36.95l36.53-22.424-5.373 10.578-.142.094-16.78 10.248h-.142l-14.093 1.504zm33.842-19.462l-29.175 17.9 9.238-.987 16.45-10.013 3.488-6.9z"/><path d="M363.545 428.272c-1-.846-97.85-84.76-98.556-103.66-.283-7.286 4.3-13.915 9.144-20.92 7.777-11.236 15.837-22.847 4.054-38.36l-.85.658c11.312 14.903 3.488 26.185-4.053 37.092-4.95 7.145-9.616 13.915-9.333 21.577.707 18.852 89.6 96.372 98.368 103.94l-60.2 36.15c-5.656-6.252-88.328-98.1-92.193-115.928-5.938-27.266-.094-47.2-.047-47.434l-1.037-.33c-.047.14-2.215 7.522-2.592 19.37-4.713.517-36 3.9-42.6 7.7-1.885 1.082-1.838 4.748.142 11.565 1.508 5.124 4.1 11.94 7.682 20.26 5.515 12.74 11.83 25.245 13.104 27.737l-53.733 32.954c-7.164-13.398-17.533-37.28-24.886-60.926-6.033-19.556-12.16-45.835-7.023-60.314 1.603-4.513 4.3-7.57 7.918-9.073 26.772-11.048 79.232-15.185 79.75-15.232l-.094-1.08c-.518.047-53.167 4.184-80.08 15.278-3.96 1.646-6.834 4.9-8.53 9.732-5.28 14.714.895 41.275 6.976 60.972 7.447 24.023 18.052 48.233 25.216 61.584l.283.518 55.57-34.083-.235-.423c-.095-.14-7.165-13.962-13.292-28.113-11.03-25.48-9.474-29.804-8.295-30.463 6.268-3.62 37.047-7.004 42.043-7.52-.2 7.662.377 17.018 2.64 27.5 4.054 18.616 89.13 112.732 92.76 116.727l.283.33 62.216-37.374-.52-.423zM130.143 233.13c-15.507-5.5-26.395-18.24-32.758-27.924-7.588-11.612-12.16-24.023-13.292-31.215-1.225-7.757-.2-8.65.047-8.8.424-.188 1.32.6 1.838 1.222l.47.6c3.158 10.906 11.03 22.283 11.076 22.424l.8-.6c-.094-.094-8.06-11.706-11.076-22.565-.66-2.398-1.037-4.278-1.178-5.735-.14-3.432.613-4.56 1.178-4.9a1.63 1.63 0 0 1 .848-.235h.047c.377 0 .707.094 1.037.188 1.037.33 2.074 1.082 2.64 1.552a9.72 9.72 0 0 0 .19 2.538c.943 5.5 5.185 14.34 13.15 27.643l.848-.565c-6.268-10.436-14.093-24.445-13.103-30.32.424-1.4 1.084-2.2 1.885-2.398h.14c1.273-.047 2.687.987 3.535 1.74.236.188.424.377.613.612l.047.047c.754.752 1.367 1.457 1.744 1.974 1.8 7.945 11.7 25.34 12.113 26.1l.85-.564c-.095-.188-9.38-16.454-11.737-24.68l-.283-1.175c-.094-.47-.188-.893-.235-1.27-.094-1.035 0-1.975.47-2.304.377-.235 1.603-.423 5.1 2.868 2.64 2.444 5.467 7.616 8.766 13.586 5.044 9.167 11.36 20.544 20.268 28.723 5.892 5.36 13.056 6.9 20.7 3.902.425-.47.283-.705.236-.94 0-.094-.047-.188-.047-.282-7.306 2.915-14.66 1.645-20.267-3.48-8.814-8.04-15.036-19.368-20.08-28.44-3.347-6.065-6.222-11.283-9.003-13.868a23.7 23.7 0 0 0-2.31-1.928c-.283-.235-2.687-2.256-4.148-1.27-.707.47-1 1.504-.85 3.103-.235-.235-.47-.47-.706-.753-.047-.047-.47-.517-1.13-1.034-1.273-1.034-2.78-1.88-4.148-1.645-.754.094-1.414.47-1.885 1.175-.377.47-.613 1.08-.754 1.74a9.23 9.23 0 0 0-1.414-.893c-.047-.047-.566-.33-1.273-.517-.047 0-.094 0-.094-.047-.047 0-.094-.047-.2-.047s-.2-.047-.236-.047h-.047c-.094 0-.188 0-.283-.047h-.33c-.613 0-1.273.14-1.8.6-1.13.94-1.508 2.82-1.225 5.736.047 1.128.2 2.444.47 3.9v.047c-.566-.423-1.225-.705-1.885-.376-.896.423-1.885 1.88-.613 9.92 0 .094.047.188.047.282 1.13 6.816 5.326 18.992 13.48 31.356 6.457 9.825 17.487 22.753 33.276 28.347 7.683 2.727 15.13 3.95 22.106 3.62 2.545-.094 4.95-.423 7.26-.94-.048-.423.094-.846.33-1.222-8.626 2.02-18.618 1.175-29.223-2.54z"/></g><g fill="#00f0b5"><path d="M254.1 231.392c-.566-2.868-1.46-5.642-2.828-8.18 0 0-.142-4.89-4.007-10.766l-5.656 1.88c.472 1.88 1.037 3.76 1.18 5.64 0 .282 0 .517-.095.752.33 1.034.425 2.07.472 3.197.047.987.283 1.974.424 3.01a2.21 2.21 0 0 1 .471.94c.047.235.047.47.095.658 0 .188 0 .376-.048.564.142.705.236 1.4.33 2.2.142 1.55.472 3.008.707 4.56.236.376.377.8.425 1.363.047 2.538.848 5.03 1.13 7.57v.423c0 .047.047.094.047.188.283 1.222.518 2.397.707 3.62.377-.188.754-.33 1.178-.424.472-.564.943-1.175 1.367-1.74 1.13-1.598 1.744-3.714 2.734-5.406.14-.47.283-.987.377-1.504.566-2.445.707-4.655.613-7.146.047-.564.188-1.034.377-1.4z"/><path d="M288.932 225.937c-19.09-52.37-74.282-49.408-74.282-49.408-4.054 10.718-10.747 1.645-10.747 1.645-35.16 5.5-56.465 25.62-56.465 25.62l10.275 33.99 16.732-5.125 7.023 41.84 14.423 2.68s-.095-1.786 4.572-4.607S224.5 262.7 224.5 262.7s21.634-9.92 24.933-15.607c1.132-1.975.613-9.214-.707-18.052l4.667.846 35.538-3.95z"/></g><path d="M286.196 226.22l-1.084.14c2.45 11.33.236 23.975-6.457 36.762-8.013 15.28-22.39 24.352-33.04 29.288-12.726 5.923-25.782 8.51-33.04 8.415-7.872-.047-8.58-1.317-8.673-1.6-.14-.47.8-1.27 1.508-1.692l.707-.423c11.312-1.364 23.85-7.57 23.99-7.616l-.47-.94c-.142.047-12.915 6.346-24.132 7.57-2.5.282-4.43.33-5.892.188-3.394-.423-4.384-1.41-4.666-2.116-.095-.282-.142-.61-.095-.94v-.047c.095-.376.236-.752.377-1.034.52-.988 1.414-1.975 1.98-2.492.754.188 1.603.282 2.545.282 5.562 0 15.036-2.867 29.553-8.885l-.424-.987c-11.36 4.7-26.49 10.39-32.145 8.368-1.32-.705-2.027-1.504-2.074-2.398v-.188c.14-1.316 1.46-2.632 2.31-3.385.236-.188.472-.376.66-.564.047-.047.095-.047.095-.047.848-.658 1.696-1.175 2.262-1.457 8.154-.47 27.007-7.757 27.81-8.086l-.377-.987c-.19.094-17.817 6.91-26.348 7.898l-1.225.094c-.52.047-.943.047-1.32 0-1.037-.094-1.98-.376-2.168-.893-.19-.424-.142-1.74 3.676-4.843 2.875-2.303 8.437-4.372 14.894-6.77 9.898-3.667 22.2-8.227 31.768-16.125 6.316-5.218 9.003-12.458 7.306-20.966l-2.357-9.967-1.037.235 2.3 9.873c1.414 7.897-1.037 15.137-6.882 19.932-9.426 7.804-21.634 12.317-31.438 15.937-6.55 2.444-12.207 4.513-15.224 6.957-.895.752-1.65 1.41-2.262 2.07-.283.235-2.64 2.444-1.98 4.1.33.846 1.32 1.316 2.922 1.457-.282.188-.565.376-.848.61-.047.047-.566.423-1.225.987-1.273 1.13-2.357 2.586-2.3 4.043-.047.8.236 1.552.848 2.2a4.48 4.48 0 0 0 1.603 1.128c-.33.33-.754.8-1.13 1.316-.047.047-.424.564-.754 1.27 0 .047-.048.094-.048.094-.047.047-.047.094-.094.188s-.047.188-.094.235v.047c-.047.094-.047.188-.094.282 0 .047 0 .094-.047.14 0 .047-.048.14-.048.188-.094.658-.047 1.316.283 1.974.754 1.364 2.545 2.116 5.468 2.304 1.13.14 2.45.235 3.96.188h.047c-.47.517-.895 1.175-.707 1.88.236.988 1.555 2.304 9.7 2.398h.282c6.93 0 19.655-2.2 33.277-8.556 10.793-5.03 25.405-14.244 33.56-29.805 3.96-7.57 6.4-15.137 7.258-22.47.472-5.077.283-9.966-.754-14.76z" class="B"/><path d="M142.137 479.632l-.543.45 46.108 55.247.544-.452-46.1-55.246zm25.07 9.768l-.543.452 46.1 55.246.543-.45-46.1-55.247zM199.4 376.185l-.544.45 46.1 55.246.543-.45-46.108-55.246zm103.364-45.567l-.544.45 46.1 55.247.543-.45-46.108-55.247zm-1.168-79.666l-.544.45 46.1 55.247.543-.45-46.108-55.247zm9.61 27.478l-.543.45 46.108 55.246.544-.45-46.1-55.246zm-45.082-107.197l-.543.452 46.108 55.246.544-.45-46.1-55.247zm124.02 259.437l-.544.45 46.1 55.247.544-.452-46.1-55.246zm-154.457 53.843l-.544.45 46.1 55.246.543-.45-46.108-55.246zM76.6 175.682c-1.933-2.68-2.64-5.124-2.074-7.24.66-2.538 2.922-3.62 3.017-3.62l.47.987s-1.933.894-2.45 2.962c-.47 1.787.2 3.902 1.885 6.3l-.848.6zm-4.34-.046c-1.885-3.43-2.357-6.58-1.46-9.26 1.178-3.62 4.383-5.124 4.525-5.17l.47.987c-.047 0-2.922 1.4-3.96 4.56-.8 2.398-.33 5.266 1.414 8.415l-1 .47zm37.707-23.834s-.236-2.115-1.98-3.3c-1.508-1.035-3.724-1.13-6.6-.283l-.283-1.034c3.206-.94 5.704-.8 7.495.423 2.168 1.458 2.45 3.95 2.45 4.043l-1.084.14.518-.047-.518.047zm4.19-.895c0-.047-.377-3.196-3.017-5.218-2.027-1.55-4.855-2.02-8.437-1.457l-.188-1.08c3.865-.66 6.975-.095 9.285 1.645 3.016 2.303 3.394 5.83 3.44 5.97l-1.084.14zm99.266 263.263l-89.884 57.588s-9.474-16.877 11.5-38.078l58.87-36.528c7.965 2.398 16.166 7.57 19.513 17.018zm174.296 43.105l-90.826 56.13s-9.2-17.018 12.113-37.9l59.435-35.54c8.013 2.5 16.12 7.803 19.278 17.3z" fill="#00f0b5"/><path d="M188.807 145.723l-4.645 26.5 31.59 13.798 7.838-44.74L192 127.495l-3.193 18.228z" fill="#e5e8ed"/><path d="M188.808 145.722s9.046-2.1 12.373-8.54c0 0 3.574 14.102 14.644 18" class="C D E F"/><path d="M205.84 158.132c.488.085.952-.24 1.037-.725a.89.89 0 0 0-.729-1.031c-.487-.085-.95.24-1.036.725a.89.89 0 0 0 .728 1.031zm-13.54-2.352c.487.085.95-.24 1.036-.725a.89.89 0 0 0-.729-1.031c-.487-.084-.95.24-1.036.725a.89.89 0 0 0 .729 1.031z" class="B"/><path d="M195.504 160.83l2.37-13.532-6.813-1.182m18.04 3.13l-6.813-1.182" class="C D E F"/><path d="M218.417 158.008l-.823 4.7c2.547.44 4.972-1.255 5.416-3.8l.055-.42c.24-2.895-4.147-3.35-4.648-.49z" fill="#edeeef"/><path d="M217.598 162.705a4.68 4.68 0 0 0 5.417-3.8m-25.122 5.78a4.77 4.77 0 0 0 3.54-.788c1.03-.718 1.726-1.816 1.942-3.048m-19.215 11.387l31.6 13.798M195.5 160.84l2.852 1.246m-10.484-11s-8.963-31.857 18.157-24.282c0 0 40.85 13.252 12.83 41.512" class="C D E F"/></svg>