<svg xmlns="http://www.w3.org/2000/svg" width="495" height="549" fill="none" xmlns:v="https://vecta.io/nano"><g clip-path="url(#A)"><path fill="#fff" d="M455.223 41.352l65.557 29.863-21.8 47.88-65.557-29.863z"/><path d="M316.295 80.637l-.09-.04c-6.424-3.106-5.428-10.095-5.418-10.167a.53.53 0 0 1 .07-.188c.036-.058.082-.108.137-.147a.52.52 0 0 1 .183-.084c.066-.016.134-.02.2-.008a.52.52 0 0 1 .189.069c.058.035.108.08.148.136s.068.117.084.182a.52.52 0 0 1 .008.2c-.043.264-.88 6.344 4.87 9.13l.027.012c2.873 1.277 8.356-5.5 13.2-11.536 5-6.264 9.826-12.137 13.1-11.513.66.098 1.3.33 1.855.68s1.05.812 1.43 1.358c1.89 2.83.8 7.918-.406 13.823a78.63 78.63 0 0 0-1.666 10.053c-.385 5.073 1.36 9.102 4.36 10.045 3.72 1.164 8.612-2.58 13.068-10.032 12.713-21.245 21.62-20.234 24.836-18.825l.118.053c8.036 3.573 10.252 9.727 7.91 21.916-.013.066-.04.128-.076.184s-.085.104-.14.14c-.113.075-.25.103-.384.077a.51.51 0 0 1-.325-.216c-.076-.112-.103-.25-.077-.382 2.258-11.78.277-17.44-7.34-20.826l-.11-.05c-6.227-2.77-15.08 4.176-23.568 18.432-4.772 7.987-9.96 11.806-14.223 10.466-3.44-1.06-5.468-5.52-5.05-11.058.338-3.412.893-6.8 1.662-10.142 1.14-5.444 2.22-10.58.553-13.083-.305-.437-.698-.805-1.153-1.082s-.964-.458-1.493-.53c-2.693-.512-7.7 5.694-12.115 11.163-5.605 6.855-10.818 13.372-14.372 11.792z" fill="#00f0b5"/><path d="M378.06 121.144l-74.643-33.187a.5.5 0 0 1-.25-.655l24.852-55.225a.5.5 0 0 1 .658-.251l74.643 33.187c.12.056.21.155.258.277a.5.5 0 0 1-.008.378l-24.852 55.225c-.054.12-.153.214-.277.26a.5.5 0 0 1-.381-.01zm-73.78-33.892l73.733 32.783 24.444-54.318-73.733-32.783-24.444 54.318z" fill="#b3b7bc"/><g fill="#787a80"><path d="M381.216 95.585L370.8 90.95a.5.5 0 0 1-.252-.656.5.5 0 0 1 .659-.251l10.427 4.636c.12.054.214.153.26.276s.043.26-.01.38a.5.5 0 0 1-.658.251zm-1.934 4.3l-10.427-4.636a.5.5 0 0 1-.262-.276.49.49 0 0 1 .289-.64.5.5 0 0 1 .381.01L379.7 98.97a.5.5 0 0 1 .252.656.5.5 0 0 1-.659.251zm-7.14 1.948l-5.2-2.316c-.12-.054-.214-.153-.26-.276s-.043-.26.01-.38a.5.5 0 0 1 .658-.251l5.2 2.316a.5.5 0 0 1 .252.656.5.5 0 0 1-.659.251zM343.9 45.98l-10.427-4.636c-.12-.054-.214-.153-.26-.276s-.043-.26.01-.38a.5.5 0 0 1 .658-.251l10.427 4.636a.5.5 0 0 1 .252.656.51.51 0 0 1-.659.251h0zm-1.954 4.333l-10.427-4.636c-.12-.054-.214-.153-.26-.276s-.043-.26.01-.38a.5.5 0 0 1 .658-.251l10.427 4.636c.12.056.2.155.258.277a.5.5 0 0 1-.666.629zm-7.132 1.935l-5.2-2.316a.5.5 0 0 1-.262-.276.49.49 0 0 1 .289-.64.5.5 0 0 1 .381.01l5.2 2.316a.5.5 0 0 1 .252.656.5.5 0 0 1-.659.251z"/></g></g><defs><clipPath id="A"><path fill="#fff" d="M0 0h495v549H0z"/></clipPath></defs></svg>