<svg xmlns="http://www.w3.org/2000/svg" width="495" height="549" fill="none" xmlns:v="https://vecta.io/nano"><path d="M443.733 330.828l49.65-4.61 1.203 12.85-49.65 4.6-1.203-12.852z" fill="#fff"/><g fill="#b3b7bc"><path d="M444.96 344.06l49.658-4.6c.1-.012.192-.06.257-.14s.096-.177.09-.277l-1.203-12.852c-.01-.1-.06-.194-.137-.258s-.18-.096-.28-.087l-49.658 4.61a.38.38 0 0 0-.259.136c-.065.078-.096.18-.087.28l1.203 12.85c.01.1.06.194.137.26s.18.096.28.086zm49.204-5.336l-48.893 4.54-1.134-12.12 48.893-4.54 1.134 12.12z"/><path d="M416.33 333.372l40.467-3.757L458 342.467l-40.467 3.757-1.203-12.852z"/><path d="M417.56 346.604l40.49-3.76a.38.38 0 0 0 .26-.136c.065-.078.096-.18.087-.28l-1.203-12.85c-.01-.1-.06-.194-.137-.26a.38.38 0 0 0-.281-.086l-40.49 3.76a.38.38 0 0 0-.26.136c-.065.078-.096.18-.087.28l1.203 12.85a.39.39 0 0 0 .418.345zm40.02-4.483l-39.726 3.688-1.134-12.12L456.445 330l1.135 12.12z"/></g><path d="M447.98 317.473l39.78-3.694 1.203 12.852-39.78 3.693-1.202-12.85z" fill="#fff"/><g fill="#b3b7bc"><path d="M449.216 330.676l39.78-3.693c.1-.01.194-.06.26-.137s.096-.178.087-.28l-1.2-12.82c-.01-.1-.06-.194-.137-.26a.38.38 0 0 0-.281-.086l-39.78 3.693a.38.38 0 0 0-.259.136c-.065.078-.096.18-.087.28l1.203 12.852c.018.094.07.178.147.236a.39.39 0 0 0 .268.078h0zm39.325-4.42l-39.015 3.623-1.128-12.06 39.015-3.622 1.128 12.06z"/><path d="M421.383 319.94l26.594-2.47 1.202 12.85-26.593 2.47-1.203-12.85z"/><path d="M422.62 333.14l26.593-2.47a.38.38 0 0 0 .26-.136c.065-.078.096-.18.087-.28l-1.2-12.82c-.01-.1-.06-.194-.137-.258s-.18-.096-.28-.087l-26.593 2.47a.39.39 0 0 0-.26.137c-.065.078-.096.178-.086.28l1.202 12.852a.38.38 0 0 0 .146.238c.077.058.173.086.27.076zm26.14-3.194l-25.852 2.4-1.13-12.06 25.852-2.4 1.13 12.06z"/></g><path d="M440.875 327.448c-1.557.145-2.937-.995-3.082-2.546s1-2.924 2.556-3.07a2.83 2.83 0 0 1 3.082 2.546c.145 1.55-1 2.925-2.556 3.07zm7.382-16.534l35.005-3.25.605 6.468-35.004 3.25-.606-6.468z" fill="#fff"/><g fill="#b3b7bc"><path d="M448.896 317.768l35.005-3.25c.1-.01.194-.06.26-.137s.097-.178.087-.28l-.606-6.475c-.01-.1-.06-.194-.137-.26a.38.38 0 0 0-.281-.086l-35.004 3.25c-.1.01-.195.058-.26.136a.38.38 0 0 0-.086.279l.606 6.476c.01.1.058.194.137.258s.18.096.28.087zm34.552-3.976l-34.24 3.18-.535-5.714 34.24-3.18.535 5.714z"/><path d="M426.965 312.894l33.3-3.092.605 6.467-33.3 3.092-.605-6.467z"/><path d="M427.608 319.747l33.3-3.092a.38.38 0 0 0 .259-.136c.065-.078.096-.18.087-.28l-.606-6.475c-.01-.1-.06-.194-.137-.258s-.18-.096-.28-.087l-33.3 3.092c-.1.01-.192.06-.257.138s-.096.177-.09.278l.606 6.475c.01.1.06.192.14.256s.178.097.28.09h0zm32.847-3.817l-32.537 3.02-.534-5.715 32.537-3.02.534 5.714z"/></g><path d="M451.382 339.43c-1.557.145-2.936-.995-3.08-2.546s1-2.925 2.556-3.07a2.83 2.83 0 0 1 3.082 2.547c.145 1.55-1 2.924-2.557 3.07zm-28.765-6.3l24.264-2.253c.1-.01.192-.06.257-.138a.39.39 0 0 0 .089-.278.39.39 0 0 0-.417-.345l-24.263 2.253a.39.39 0 0 0-.26.136.38.38 0 0 0 .051.538.39.39 0 0 0 .28.087zm4.99-13.394l20.405-1.895a.38.38 0 0 0 .26-.136c.065-.078.096-.18.087-.28s-.06-.194-.137-.258a.39.39 0 0 0-.28-.087l-20.405 1.895a.39.39 0 0 0-.26.136.38.38 0 0 0-.086.28c.01.1.06.192.14.256s.177.096.278.1h0z" fill="#fff"/></svg>