<svg xmlns="http://www.w3.org/2000/svg" width="48" height="48" fill="none" xmlns:v="https://vecta.io/nano"><path d="M45.188 34.086v-4.46c0-4.63-1.493-9.03-4.318-12.727a21.5 21.5 0 0 0-9.844-7.167C30.918 7.5 29.07 5.72 26.813 5.72h-5.625c-2.257 0-4.106 1.782-4.213 4.013a21.5 21.5 0 0 0-9.844 7.167c-2.825 3.696-4.317 8.097-4.317 12.727v4.46C1.176 34.666 0 36.23 0 38.063c0 2.326 1.893 4.22 4.22 4.22H43.78c2.326 0 4.22-1.892 4.22-4.22 0-1.833-1.176-3.396-2.812-3.977zm-39.562-4.46c0-5.07 2.166-9.818 5.72-13.205v4.768c0 .777.63 1.406 1.406 1.406s1.406-.63 1.406-1.406v-6.973a18.29 18.29 0 0 1 2.813-1.47V24c0 .777.63 1.406 1.406 1.406s1.406-.63 1.406-1.406V9.938a1.41 1.41 0 0 1 1.406-1.406h5.625a1.41 1.41 0 0 1 1.406 1.406V24c0 .777.63 1.406 1.406 1.406s1.406-.63 1.406-1.406V12.744a18.31 18.31 0 0 1 2.813 1.47v6.973c0 .777.63 1.406 1.406 1.406s1.406-.63 1.406-1.406V16.42c3.553 3.387 5.72 8.134 5.72 13.205v4.22H5.625v-4.22zM43.78 39.47H4.22a1.41 1.41 0 0 1-1.406-1.406 1.41 1.41 0 0 1 1.406-1.406H43.78a1.41 1.41 0 0 1 1.406 1.406 1.41 1.41 0 0 1-1.406 1.406z" fill="#9a9ca5"/></svg>