<svg xmlns="http://www.w3.org/2000/svg" width="49" height="48" fill="none" xmlns:v="https://vecta.io/nano"><g clip-path="url(#A)" fill="#9a9ca5"><path d="M10.438 33.844c-2.326 0-4.22 1.892-4.22 4.22s1.893 4.22 4.22 4.22 4.22-1.892 4.22-4.22-1.892-4.22-4.22-4.22zm0 5.625a1.41 1.41 0 0 1-1.406-1.406 1.41 1.41 0 0 1 1.406-1.406 1.41 1.41 0 0 1 1.406 1.406 1.41 1.41 0 0 1-1.406 1.406zm35.524-10.9a4.22 4.22 0 0 0 .264-4.619l-5.622-9.832c-.972-1.684-3.023-2.453-4.853-1.964.4-1.75-.375-3.63-2.008-4.573L24 1.957c-1.4-.803-3.055-.72-4.334.07A4.22 4.22 0 0 0 16.063 0H4.72C2.393 0 .5 1.893.5 4.22v39.56C.5 46.108 2.393 48 4.72 48h39.56c2.326 0 4.22-1.892 4.22-4.22V32.438c0-1.73-1.046-3.218-2.538-3.87zM17.47 43.78a1.41 1.41 0 0 1-1.406 1.406H4.72a1.41 1.41 0 0 1-1.406-1.406V31.03H17.47v12.75zm0-15.562H3.313V16.875H17.47V28.22zm0-14.156H3.313V4.22a1.41 1.41 0 0 1 1.406-1.406h11.344a1.41 1.41 0 0 1 1.406 1.406v9.844zm2.812-8.478l.4-.677a1.41 1.41 0 0 1 1.922-.515l9.742 5.625a1.41 1.41 0 0 1 .514 1.923l-1.625 2.824c-.04.06-.077.123-.108.188L20.28 33.787V5.585zm0 33.843l13.146-22.85 2.718-1.57c.7-.398 1.634-.156 2.02.512l5.622 9.832a1.41 1.41 0 0 1-.518 1.93l-23 13.31v-1.162zm25.406 4.354a1.41 1.41 0 0 1-1.406 1.406H20.04a4.2 4.2 0 0 0 .24-1.348l22.123-12.81h1.878a1.41 1.41 0 0 1 1.406 1.406V43.78z"/></g><defs><clipPath id="A"><path fill="#fff" transform="translate(.5)" d="M0 0h48v48H0z"/></clipPath></defs></svg>