<svg xmlns="http://www.w3.org/2000/svg" width="48" height="48" fill="none" xmlns:v="https://vecta.io/nano"><path d="M39.563 4.22c0-2.326-1.893-4.22-4.22-4.22H7.22C4.893 0 3 1.893 3 4.22v8.437c0 2.326 1.893 4.22 4.22 4.22h28.125c2.326 0 4.22-1.893 4.22-4.22V11.25h1.406a1.41 1.41 0 0 1 1.406 1.406v5.625a1.41 1.41 0 0 1-1.406 1.406H24.094c-2.326 0-4.22 1.893-4.22 4.22v4.22H18.47c-.777 0-1.406.63-1.406 1.406v5.55l-1.406 5.716a5.8 5.8 0 1 0 11.251.005L25.5 35.08v-5.55c0-.777-.63-1.406-1.406-1.406h-1.406v-4.22a1.41 1.41 0 0 1 1.406-1.406H40.97c2.326 0 4.22-1.893 4.22-4.22v-5.625c0-2.326-1.893-4.22-4.22-4.22h-1.406V4.22zm-16.875 26.72v2.906h-2.812v-2.906h2.813zm-1.406 14.25c-1.937 0-3.37-1.818-2.895-3.715l1.185-4.817h3.42l1.186 4.822c.47 1.883-.952 3.7-2.896 3.7zM7.22 2.813h28.125a1.41 1.41 0 0 1 1.406 1.406v1.406h-4.22c-1.367 0-3.114.512-5.138 1.104-2.733.8-5.83 1.708-8.924 1.708-3.015 0-5.14-.88-7.017-1.657-1.434-.594-2.788-1.155-4.233-1.155H5.813V4.22a1.41 1.41 0 0 1 1.406-1.406zm29.53 9.844a1.41 1.41 0 0 1-1.406 1.406H7.22a1.41 1.41 0 0 1-1.406-1.406v-4.22H7.22c.885 0 1.888.415 3.157.94 2.013.834 4.518 1.872 8.093 1.872 3.497 0 6.944-1 9.715-1.82 1.74-.5 3.384-.99 4.347-.99h4.22v4.22z" fill="#9a9ca5"/></svg>