<svg xmlns="http://www.w3.org/2000/svg" xmlns:xlink="http://www.w3.org/1999/xlink" width="495" height="554" fill="none" xmlns:v="https://vecta.io/nano"><style><![CDATA[.B{fill:#fff}.C{fill:#ffcf2d}.D{fill:#fe5244}.E{fill:#e57281}.F{fill:#9a3b82}.G{fill:#d0f0e4}.H{fill:#66b0f0}.I{fill:#3fb1b5}.J{fill-rule:evenodd}]]></style><path d="M157.96 429.042l18.23 49.775c5.623 3.982 12.723 6.54 20.687 6.54.94 0 2.073-.23 3.032-.288 8.33-.578 16.312-4.233 21.84-8.89l-4.798-52.91c-24.16 9.39-52.332 7.81-58.99 5.772z" class="E"/><path d="M157.96 429.042l6.352 17.316c19.382 2.636 47.784-13.257 52.946-19.5l-.326-3.578c-24.14 9.39-52.313 7.81-58.972 5.772z" class="F"/><path d="M175.883 478.758l4.587 48.158c.825 12.7 10.535 22.416 22.05 22.416a22.21 22.21 0 0 0 1.574-.058c12.205-.924 21.397-12.45 20.533-25.725l-3.07-47.12c-2.456 2.31-5.316 4.3-8.482 5.83-3.973 1.925-8.405 3.175-13.145 3.54-.96.077-1.9.115-2.84.115-2.725 0-5.392-.308-7.925-.885l-.25-.058c-4.74-1.116-9.077-3.174-12.684-5.964-.135-.077-.25-.154-.346-.25z" class="B"/><g class="C"><path d="M202.52 549.812l1.612-.058c12.455-.942 21.858-12.718 20.975-26.243l-3.128-48.14-.748.693c-2.457 2.31-5.278 4.252-8.367 5.753-4.07 1.962-8.425 3.136-12.973 3.5-.96.077-1.88.116-2.802.116-2.648 0-5.277-.29-7.8-.866-.04 0-.077-.02-.135-.04-.038 0-.076-.02-.115-.02-4.625-1.077-8.942-3.117-12.512-5.887l-.057-.04c-.115-.077-.192-.115-.25-.173l-.94-.943 4.72 49.487c.403 6.233 2.936 12.006 7.158 16.258 4.202 4.252 9.652 6.6 15.37 6.6zm18.615-72.344l3.013 46.12c.844 13.007-8.175 24.32-20.093 25.205-.537.04-1.036.058-1.535.058-5.45 0-10.67-2.232-14.7-6.31-4.05-4.098-6.486-9.658-6.87-15.66l-4.5-47.1c3.57 2.636 7.83 4.6 12.34 5.657.038 0 .077.02.134.038.04 0 .077.02.116.02a36.3 36.3 0 0 0 8.04.904c.96 0 1.9-.04 2.88-.116 4.663-.365 9.154-1.558 13.318-3.578 2.86-1.405 5.508-3.156 7.85-5.234z"/><path d="M202.174 539.655l1.362-.058c10.555-.808 18.557-10.794 17.8-22.28l-2.553-38.346-.96.057 2.552 38.346c.7 10.948-6.9 20.472-16.926 21.242a14.87 14.87 0 0 1-1.285.058c-9.52 0-17.502-8.12-18.174-18.5l-3.243-38.538-.96.077 3.243 38.538c.345 5.3 2.495 10.198 6.064 13.796 3.57 3.636 8.214 5.618 13.07 5.618zm-13.222-55.105c2.533.52 5.392.615 8.117.615l2.84-.096c4.74-.327 9.193-1.48 13.146-3.252l1.266-6.233c.806-2.656-1.2-5.33-4-5.234l-18.423.54c-2.34.058-4.126 2.097-3.915 4.425l.96 9.236z"/><path d="M189.144 484.358l2.322 29.264c.403 5.676 5.776 9.87 10.842 8.947l.403-.038c7.216-1.328 12.743-8.87 11.802-16.95l-1.458-23.78c-3.973 1.77-8.406 2.924-13.146 3.25-.96.077-1.9.097-2.84.097-2.725.02-5.392-.27-7.925-.79z"/></g><path d="M191.965 516.546c.038 0 .076 0 .115-.02l21.013-4.8c1.382-.308 1.938-1.48 1.88-2.482-.058-1.02-.73-2.135-2.15-2.31l-20.092-2.366c-1.055-.135-1.497-.943-1.554-1.597s.23-1.54 1.228-1.847l19.248-6.12c1.554-.5 2.495-1.866 2.418-3.5a3.4 3.4 0 0 0-2.783-3.214l-15.16-2.635 2.188-.04c6.774-.212 11.802-1.193 14.968-2.944a.5.5 0 0 0 .192-.654c-.134-.23-.422-.308-.653-.192-7.234 4.002-23.47 2.636-23.642 2.616-.25-.02-.48.154-.518.424-.04.25.134.5.403.538l22.05 3.83c1.4.29 1.958 1.424 1.996 2.328.058.885-.384 2.098-1.746 2.54l-19.248 6.12c-1.44.46-1.996 1.77-1.88 2.847.096 1.097.883 2.3 2.4 2.463l20.092 2.366c.922.116 1.267.828 1.305 1.405.02.577-.25 1.308-1.132 1.5l-21.013 4.8c-.25.058-.422.308-.365.577.02.212.23.366.442.366z" class="B"/><path d="M118.312 320.814L157.96 429.04c6.66 2.04 38.074 4.734 68.74-9.523l-24.122-111.883c-2.245-16.932-16.638-29.592-33.698-29.592h-17.732c-22.28-.02-38.554 21.145-32.835 42.77z" class="D"/><path d="M170.606 419.652l9.5-.327c11.34-.77 28.344-3.31 44.924-11.025.288-.135.423-.48.288-.77s-.48-.424-.767-.29c-30.57 14.22-64.614 11.64-71.024 9.697-.307-.096-.633.077-.7.385-.096.308.077.635.384.712 2.4.75 8.693 1.616 17.406 1.616z" class="B"/><path d="M105.1 431.176l3.99 7.1 25.543 44.81c9.844 3.906 21.455 5.35 31.856 3.155l1.305-.365c5.143-1.078 10.4-3.964 14.124-7.196l-18.634-49.93h-.038c-6.43 2.136-28.536 8.14-58.147 2.424z" class="E"/><path d="M105.1 431.177l8.425 14.872c32.43 5.195 50.816-14.372 50.816-14.372l-1.075-2.906c-6.448 2.117-28.555 8.12-58.166 2.406z" class="F"/><path d="M50.436 337.976L94.67 429.1c37.44 9.39 62.195 1.79 68.586-.327l-46.287-124.12a40.6 40.6 0 0 0-14.93-18.067c-6.506-4.33-14.26-6.773-22.395-6.773-30.82 0-44.1 31.093-29.208 58.164z" class="D"/><g class="B"><path d="M125.432 424.443a129.33 129.33 0 0 0 10.631-.443c8.367-.692 16.37-2.25 23.163-4.502.307-.096.46-.423.364-.73a.57.57 0 0 0-.729-.365c-6.697 2.212-14.623 3.75-22.894 4.444-14.757 1.23-30.282-.154-46.133-4.137-.307-.077-.614.116-.69.424s.115.615.422.692c12.205 3.08 24.237 4.618 35.867 4.618z"/><path d="M117.513 304.418l68.026 183.86-1.08.402-68.025-183.862 1.08-.4z"/><path d="M135.007 483.223l1.497 3.944 16.965 44.503c4.855 15.257 20.82 24.32 34.85 20.837l.768-.25c9.844-2.443 16.1-14.334 12.243-24.84l-19.785-48.467c-2.437 2.194-5.277 4.002-8.444 5.31-1.688.692-3.473 1.25-5.335 1.654l-1.305.366c-5.507 1.154-11.188 1.366-16.79.712-5.028-.616-9.98-1.886-14.662-3.77z"/></g><g class="C"><path d="M182.12 553.738c2.13 0 4.24-.25 6.313-.77h.04l.748-.25c4.72-1.173 8.866-4.56 11.36-9.273 2.687-5.06 3.11-10.967 1.2-16.182l-20.035-49.12-.5.46a28.47 28.47 0 0 1-8.309 5.215 32.78 32.78 0 0 1-5.258 1.635h-.02l-1.285.365a51.58 51.58 0 0 1-16.619.693 58.02 58.02 0 0 1-14.547-3.732l-1.017-.405 1.88 4.965 16.964 44.483c2.36 7.427 7.408 13.7 14.2 17.702 4.702 2.79 9.845 4.213 14.892 4.213zm6.064-1.693c-6.717 1.655-14 .48-20.495-3.348-6.583-3.867-11.476-9.986-13.78-17.182v-.02l-18.077-47.427c4.414 1.674 9.038 2.828 13.778 3.405 5.758.674 11.457.423 16.945-.712h.04l1.286-.365c1.86-.404 3.665-.962 5.392-1.674 2.955-1.232 5.68-2.886 8.08-4.945l.154.366 19.382 47.485c1.823 4.964 1.4 10.563-1.15 15.392-2.38 4.483-6.295 7.696-10.766 8.793h-.04l-.748.23z"/><path d="M179.356 543.252c1.785 0 3.57-.212 5.316-.654l.04-.02.614-.2c4-1 7.484-3.848 9.576-7.812 2.245-4.252 2.6-9.216 1.017-13.622l-16.427-40c-.096-.25-.384-.366-.633-.27a.49.49 0 0 0-.269.635l16.427 39.98c1.516 4.137 1.17 8.812-.96 12.834-1.976 3.732-5.24 6.407-8.98 7.35l-.038.02-.614.2c-5.604 1.386-11.668.404-17.1-2.8-5.507-3.232-9.595-8.33-11.495-14.353v-.02l-14.872-39.405c-.096-.25-.365-.365-.614-.288-.25.096-.365.365-.288.616l14.872 39.385c1.996 6.234 6.218 11.505 11.917 14.873 3.973 2.328 8.27 3.54 12.512 3.54zm-33.16-62.222l3.492 5.926c5.585.654 11.265.442 16.792-.712l1.305-.366a28.62 28.62 0 0 0 5.335-1.654l-1.382-9.62a4.05 4.05 0 0 0-4.836-3.387l-18.04 3.8c-2.725.558-4.087 3.636-2.667 6.022z"/><path d="M149.688 486.955l.096.154 9.02 23.896c2.475 7.754 10.574 12.353 17.712 10.583l.384-.135c5.01-1.25 8.194-7.292 6.218-12.622l-9.96-24.243-.058-.365c-1.688.692-3.473 1.25-5.334 1.654l-1.305.366c-5.508 1.174-11.188 1.366-16.773.712z"/></g><path d="M162.68 515.835c.115 0 .23 0 .345-.02l20.726-2.25c.27-.02.46-.27.422-.54s-.27-.462-.537-.423l-20.726 2.25c-1.132.115-1.765-.635-1.976-1.328-.212-.673-.096-1.654.902-2.193l16.14-8.64c1.38-.73 1.688-2.155 1.4-3.232s-1.286-2.155-2.86-2.078l-20.38.923c-1.228.058-1.9-.79-2.11-1.54s-.058-1.828 1.036-2.405l18.29-9.774a.48.48 0 0 0 .211-.635c-.115-.23-.403-.327-.633-.212-.02.02-2.38 1.116-6.39 1.982-3.704.808-9.595 1.578-16.715.693-.268-.04-.5.154-.537.423a.48.48 0 0 0 .422.539c7.273.904 13.3.115 17.08-.712l1.247-.29-13.395 7.158c-1.497.788-1.823 2.347-1.516 3.52.326 1.173 1.4 2.328 3.1 2.23l20.38-.923c1.094-.04 1.708.712 1.88 1.366s.038 1.616-.922 2.136l-16.14 8.64c-1.4.75-1.708 2.212-1.362 3.31.288 1.04 1.228 2.02 2.63 2.02z" class="B"/><path d="M232.34 283.757c-78.154 0-141.51-63.52-141.51-141.878S154.187 0 232.34 0s141.51 63.52 141.51 141.88-63.356 141.878-141.51 141.878z" class="G"/><path d="M279.952 284.412c14.7-4.926 28.517-12.122 41.048-21.357 12.397-9.14 23.278-20.068 32.374-32.516 9.192-12.603 16.33-26.456 21.225-41.213 5.066-15.258 7.618-31.208 7.618-47.447h-1.343c0 16.085-2.533 31.9-7.56 47.023a148.53 148.53 0 0 1-21.033 40.848c-9 12.333-19.785 23.184-32.086 32.227-12.435 9.16-26.118 16.278-40.683 21.165l.44 1.27z" class="C"/><g class="B"><path d="M232.34 234.483l5.68-.173c.538-.038.94-.48.902-1.02s-.48-.943-1.017-.905l-5.7.173a.95.95 0 1 0 0 1.924h.134zm-6.85-.25c.5 0 .92-.385.96-.885a.97.97 0 0 0-.882-1.039l-5.66-.596a.94.94 0 0 0-1.075.827c-.077.52.288 1.02.825 1.078l5.796.615h.038zm19.152-.577h.134l5.738-.962c.518-.096.864-.616.75-1.135s-.615-.866-1.133-.75l-5.622.942c-.52.077-.902.558-.826 1.078.077.48.5.827.96.827zm-31.49-1.193c.44 0 .844-.308.94-.77.115-.52-.21-1.04-.73-1.136l-5.527-1.366c-.518-.134-1.036.154-1.2.674-.134.52.154 1.04.672 1.193l5.642 1.404h.192zm43.715-1.308c.077 0 .173-.02.25-.04l5.546-1.73c.5-.173.767-.73.594-1.232a.97.97 0 0 0-1.228-.596l-5.43 1.712c-.518.135-.806.674-.67 1.193a1.01 1.01 0 0 0 .94.693zm-55.71-2.136c.383 0 .767-.25.902-.635.172-.5-.077-1.058-.576-1.23l-5.277-2.117c-.48-.21-1.056.02-1.267.5s.02 1.058.5 1.27l5.392 2.154c.116.04.23.058.327.058zm67.473-2.04a.93.93 0 0 0 .384-.077l5.277-2.482c.48-.25.652-.828.422-1.29-.25-.48-.825-.655-1.286-.424l-5.162 2.444a.97.97 0 0 0-.499 1.27c.135.346.5.558.864.558zm-78.853-3.02c.345 0 .67-.192.844-.52.25-.46.077-1.058-.403-1.308l-4.95-2.828c-.46-.27-1.036-.135-1.324.327a.97.97 0 0 0 .326 1.327l5.047 2.886a1.02 1.02 0 0 0 .461.116zm89.945-2.732c.172 0 .345-.04.5-.135l4.874-3.194c.44-.308.537-.904.23-1.347s-.902-.538-1.343-.23l-4.778 3.117c-.46.27-.595.866-.327 1.328.21.29.52.462.845.462zm-100.557-3.83c.307 0 .594-.135.786-.404.307-.423.21-1.04-.23-1.347l-4.53-3.463c-.403-.327-1.017-.27-1.343.134s-.27 1.02.134 1.347l4.625 3.54c.173.134.365.192.557.192zm110.747-3.386c.21 0 .422-.077.595-.212l4.394-3.83c.384-.365.422-.962.058-1.366-.365-.385-.96-.423-1.363-.058l-4.317 3.733c-.403.327-.48.943-.135 1.347a.97.97 0 0 0 .768.385zm-120.362-4.58c.25 0 .518-.096.69-.307.365-.385.345-1-.038-1.366l-4.01-4.06c-.365-.385-.96-.404-1.363-.04-.383.366-.403.962-.038 1.366l4.107 4.137c.172.192.422.27.652.27zm129.496-3.944c.25 0 .52-.096.69-.308l3.838-4.386c.346-.405.288-1.02-.134-1.347a.93.93 0 0 0-1.343.134l-3.762 4.29c-.364.385-.345 1 .04 1.366.192.173.44.25.67.25zm-137.96-5.233c.21 0 .422-.077.595-.212.422-.327.48-.943.154-1.347l-3.435-4.56c-.307-.442-.902-.538-1.344-.23s-.537.905-.23 1.347l3.512 4.656c.192.212.46.347.748.347zm145.847-4.445c.307 0 .595-.134.786-.404l3.224-4.868c.288-.442.135-1.04-.307-1.327s-1.036-.135-1.324.308l-3.147 4.752c-.307.443-.21 1.04.23 1.347.154.135.346.192.538.192zm-152.986-5.83c.173 0 .346-.038.5-.134.46-.27.595-.866.327-1.328l-2.783-4.983a.94.94 0 0 0-1.286-.404c-.48.25-.652.827-.403 1.29l2.84 5.1c.154.307.48.46.806.46zm159.49-4.83c.346 0 .672-.192.845-.52l2.513-5.253c.212-.48 0-1.058-.48-1.27s-1.056 0-1.267.48l-2.475 5.137c-.25.462-.058 1.058.403 1.29a.84.84 0 0 0 .46.135zm-165.17-6.31a.91.91 0 0 0 .384-.077.97.97 0 0 0 .499-1.27l-2.073-5.33c-.172-.5-.73-.77-1.228-.577a.95.95 0 0 0-.576 1.231l2.13 5.445c.134.366.48.577.863.577zm170.16-5.137c.403 0 .767-.25.902-.635l1.784-5.56c.154-.52-.153-1.04-.652-1.193-.518-.154-1.036.154-1.2.654l-1.746 5.445c-.173.5.076 1.058.575 1.23.116.04.21.058.327.058zm-174.268-6.676a1.14 1.14 0 0 0 .25-.039c.518-.135.806-.673.672-1.174l-1.325-5.56c-.115-.52-.614-.847-1.132-.75-.518.115-.844.615-.748 1.135l1.362 5.676a.94.94 0 0 0 .921.712zm177.645-5.35a.96.96 0 0 0 .94-.77l1.018-5.753c.076-.52-.288-1.02-.806-1.096a.97.97 0 0 0-1.094.808l-.98 5.618c-.115.52.23 1.04.748 1.135.058.058.116.058.173.058zm-180.1-6.908h.134c.52-.076.902-.558.826-1.077l-.557-5.695c-.038-.54-.48-.924-1.017-.904-.537.038-.92.5-.902 1.02l.576 5.81c.057.5.46.846.94.846zm181.81-5.483c.5 0 .92-.385.96-.904l.23-5.83a.95.95 0 1 0-1.919 0l-.21 5.714a.95.95 0 0 0 .882 1.02h.058zm-182.577-6.984c.52 0 .96-.424.96-.962l.21-5.715a.95.95 0 0 0-.883-1.019c-.518-.04-.978.365-1.017.885l-.21 5.83c-.02.54.403.962.94.982zm182.615-5.522h.058a.98.98 0 0 0 .902-1.02l-.557-5.81c-.076-.52-.556-.904-1.074-.827s-.902.558-.825 1.077l.556 5.696c.02.5.44.885.94.885zm-181.693-6.965c.48 0 .882-.347.94-.828l.98-5.637c.115-.52-.23-1.04-.75-1.135a.95.95 0 0 0-1.132.75l-.998 5.753c-.077.52.288 1.02.806 1.097h.154zm180.024-5.426c.057 0 .134 0 .192-.02.518-.116.863-.616.748-1.136l-1.343-5.675c-.134-.52-.672-.81-1.17-.674-.518.135-.806.674-.67 1.174l1.324 5.56c.077.462.48.77.92.77zm-177.434-6.792c.422 0 .806-.27.92-.693l1.747-5.445c.172-.5-.077-1.058-.576-1.23s-1.055.077-1.228.577l-1.785 5.56c-.153.52.154 1.04.653 1.193.096.02.192.038.268.038zm174.114-5.253a.98.98 0 0 0 .326-.057c.5-.173.768-.73.595-1.232l-2.11-5.445c-.21-.48-.767-.712-1.266-.5s-.7.77-.5 1.27l2.072 5.33c.115.385.48.635.883.635zM148.7 105.842c.365 0 .73-.21.883-.577l2.456-5.137c.25-.48.058-1.058-.403-1.29a.95.95 0 0 0-1.285.404l-2.514 5.252a.96.96 0 0 0 .499 1.27c.096.058.23.077.364.077zm164.922-4.983a.89.89 0 0 0 .441-.116c.48-.25.653-.827.403-1.29l-2.84-5.1c-.27-.462-.863-.596-1.324-.327s-.595.866-.326 1.328l2.782 5.003a1.01 1.01 0 0 0 .864.5zm-159.126-6.06c.326 0 .633-.154.825-.462l3.147-4.772a.96.96 0 0 0-.23-1.347c-.44-.308-1.036-.212-1.343.23l-3.205 4.868c-.27.462-.135 1.04.307 1.328.153.096.326.154.5.154zm152.66-4.637c.192 0 .384-.058.556-.173a.96.96 0 0 0 .231-1.347l-3.493-4.675a.95.95 0 0 0-1.343-.154c-.423.327-.48.943-.154 1.347l3.435 4.56c.173.29.46.442.768.442zM161.74 84.62c.268 0 .556-.115.748-.346l3.76-4.29a.97.97 0 0 0-.038-1.366c-.384-.366-.998-.346-1.362.038L161 83.042c-.345.404-.268 1.02.135 1.347.173.173.384.23.595.23zm137.537-4.175a.96.96 0 0 0 .652-.25.99.99 0 0 0 .058-1.366l-4.088-4.137c-.384-.365-.998-.346-1.362.038a.97.97 0 0 0 .038 1.366l4.01 4.06c.173.173.44.29.69.29zm-128.96-4.906a.96.96 0 0 0 .652-.25l4.3-3.752c.403-.327.48-.943.134-1.347-.326-.404-.94-.48-1.343-.135l-4.395 3.83c-.383.365-.422.962-.057 1.366a1.07 1.07 0 0 0 .71.289zm119.862-3.656c.27 0 .557-.116.75-.346.326-.404.27-1.02-.134-1.347l-4.625-3.56c-.422-.308-1.037-.212-1.344.212a.98.98 0 0 0 .211 1.347l4.53 3.483c.192.135.403.212.614.212zm-110.152-4.195a1 1 0 0 0 .557-.173l4.778-3.136c.46-.27.595-.866.326-1.328s-.863-.596-1.324-.327l-4.874 3.194a.96.96 0 0 0-.231 1.347.91.91 0 0 0 .768.423zm100-3.04c.326 0 .633-.154.825-.462a.97.97 0 0 0-.326-1.328l-5.047-2.886a.96.96 0 0 0-1.305.404c-.25.462-.077 1.058.403 1.308l4.95 2.828c.153.077.326.135.5.135zm-89.312-3.425a.94.94 0 0 0 .441-.116l5.163-2.443a.97.97 0 0 0 .499-1.27c-.21-.48-.768-.712-1.267-.5l-5.277 2.5c-.48.25-.653.827-.422 1.29.172.346.518.54.863.54zm78.258-2.367a.96.96 0 0 0 .883-.577.96.96 0 0 0-.499-1.27l-5.392-2.174c-.5-.173-1.056.077-1.23.577s.077 1.058.576 1.23l5.277 2.116c.135.077.25.096.384.096zm-66.782-2.56c.096 0 .21-.02.307-.058l5.43-1.712c.518-.135.806-.673.67-1.193s-.67-.808-1.19-.673l-5.546 1.75c-.5.173-.768.73-.595 1.23.153.404.518.654.92.654zm55.057-1.655c.422 0 .806-.27.92-.693.154-.52-.153-1.04-.672-1.193l-5.642-1.404c-.518-.115-1.036.212-1.132.73a.94.94 0 0 0 .729 1.135l5.527 1.385c.096.02.173.04.27.04zm-43.025-1.636c.058 0 .135 0 .192-.02l5.623-.943c.518-.077.902-.558.825-1.078a.98.98 0 0 0-1.075-.827l-5.737.962c-.52.096-.864.616-.75 1.135a.93.93 0 0 0 .921.77zm30.82-.924c.48 0 .883-.346.94-.827.077-.52-.288-1.02-.825-1.077l-5.776-.616a.97.97 0 0 0-1.037.885.97.97 0 0 0 .883 1.039l5.66.616c.058-.038.116-.02.154-.02zm-18.46-.712h.057l5.7-.173h.27a.95.95 0 1 0 0-1.924h-.27l-5.815.173c-.537.038-.94.48-.902 1.02.04.52.46.904.96.904z"/><path d="M232.34 66.956c.787 0 1.44-.654 1.44-1.443V50.256a1.45 1.45 0 0 0-1.44-1.443c-.788 0-1.44.654-1.44 1.443v15.258a1.45 1.45 0 0 0 1.44 1.443zm0 168.008c.787 0 1.44-.654 1.44-1.443v-15.277a1.45 1.45 0 0 0-1.44-1.443c-.788 0-1.44.654-1.44 1.443v15.277a1.45 1.45 0 0 0 1.44 1.443zm53.868-145.63a1.42 1.42 0 0 0 1.017-.423l10.766-10.813c.557-.558.557-1.48 0-2.04s-1.478-.558-2.034 0L285.2 86.87c-.556.558-.556 1.48 0 2.04a1.42 1.42 0 0 0 1.017.423zm-118.48 118.79a1.42 1.42 0 0 0 1.017-.423l10.766-10.794c.557-.558.557-1.48 0-2.04s-1.478-.558-2.034 0L166.7 205.66c-.556.558-.556 1.48 0 2.04a1.42 1.42 0 0 0 1.017.423z"/><path d="M308.507 143.322h15.237c.787 0 1.44-.655 1.44-1.443s-.653-1.443-1.44-1.443h-15.237c-.787 0-1.44.654-1.44 1.443s.652 1.443 1.44 1.443zm-167.55 0h15.217c.787 0 1.44-.655 1.44-1.443s-.653-1.443-1.44-1.443h-15.217c-.787 0-1.44.654-1.44 1.443s.653 1.443 1.44 1.443zm156.017 64.8a1.42 1.42 0 0 0 1.017-.423c.557-.558.557-1.48 0-2.04l-10.766-10.794c-.556-.558-1.477-.558-2.034 0s-.556 1.48 0 2.04l10.766 10.794a1.42 1.42 0 0 0 1.017.423zm-118.48-118.79a1.42 1.42 0 0 0 1.017-.423c.557-.558.557-1.48 0-2.04l-10.766-10.813c-.556-.558-1.477-.558-2.034 0s-.556 1.482 0 2.04L177.476 88.9a1.42 1.42 0 0 0 1.017.423z"/></g><path d="M232.34 239.293c13.107 0 25.83-2.58 37.824-7.658 11.572-4.906 21.954-11.93 30.877-20.876a97.05 97.05 0 0 0 20.822-30.958c5.066-12.006 7.638-24.762 7.638-37.922 0-26.995-10.44-51.776-29.227-68.88l-7.734 8.543c8.003 7.292 13.894 15.296 18.46 26.032 4.587 10.794 7.005 22.646 7.005 34.286 0 11.602-2.265 22.84-6.736 33.42a85.81 85.81 0 0 1-18.365 27.302c-7.868 7.89-17.022 14.084-27.23 18.394-10.555 4.483-21.762 6.753-33.334 6.753s-22.78-2.27-33.333-6.753c-10.2-4.33-19.363-10.525-27.23-18.394-7.868-7.89-14.048-17.066-18.366-27.302-4.47-10.582-6.735-21.82-6.735-33.42a82.91 82.91 0 0 1 6.966-33.362c4.452-10.198 10.823-19.395 18.92-27.303 8.08-7.89 17.444-14.103 27.845-18.452 10.728-4.483 20.323-6.37 31.895-6.37V44.83c-13.107 0-24.2 2.193-36.327 7.254-11.745 4.906-22.32 11.9-31.453 20.837-9.173 8.966-16.39 19.375-21.436 30.94-5.258 12.063-7.945 24.84-7.945 37.98s2.572 25.898 7.638 37.923c4.894 11.602 11.898 22.01 20.82 30.958s19.306 15.97 30.878 20.876c12.032 5.117 24.755 7.696 37.862 7.696z" class="G"/><path d="M232.34 240.736c13.3 0 26.214-2.617 38.38-7.773 11.725-4.983 22.28-12.102 31.337-21.184s16.16-19.644 21.13-31.42c5.143-12.2 7.753-25.128 7.753-38.48 0-13.642-2.59-26.667-7.676-38.712-5.124-12.083-12.53-22.588-22.012-31.227a1.46 1.46 0 0 0-1.036-.365c-.384.02-.748.192-.998.48l-7.733 8.543c-.538.596-.5 1.5.096 2.04 8.175 7.446 13.76 15.335 18.096 25.532 4.5 10.6 6.89 22.26 6.89 33.728 0 11.4-2.226 22.454-6.62 32.863a84.45 84.45 0 0 1-18.058 26.84c-7.753 7.773-16.754 13.853-26.77 18.086-10.382 4.406-21.397 6.638-32.777 6.638s-22.395-2.232-32.777-6.638c-10.017-4.252-19.037-10.35-26.77-18.086-7.734-7.754-13.817-16.797-18.06-26.84-4.394-10.41-6.62-21.453-6.62-32.863 0-11.332 2.303-22.376 6.85-32.786 4.375-10.043 10.65-19.067 18.614-26.84s17.176-13.89 27.404-18.163c10.497-4.387 19.862-6.253 31.338-6.253.787 0 1.44-.654 1.44-1.443V44.87c0-.79-.652-1.443-1.44-1.443-13.3 0-24.68 2.27-36.884 7.37-11.917 4.983-22.644 12.083-31.913 21.145-9.308 9.1-16.638 19.664-21.743 31.4a95.87 95.87 0 0 0-8.06 38.558c0 13.334 2.6 26.282 7.753 38.48a98.75 98.75 0 0 0 21.128 31.419 98.25 98.25 0 0 0 31.338 21.184c12.167 5.118 25.082 7.754 38.4 7.754zm68.03-165.698c8.674 8.177 15.486 18.01 20.246 29.245 4.95 11.68 7.445 24.32 7.445 37.577 0 12.968-2.533 25.532-7.522 37.364-4.817 11.43-11.726 21.684-20.515 30.496s-19.036 15.74-30.416 20.568c-11.822 5.003-24.353 7.543-37.268 7.543a95.03 95.03 0 0 1-37.306-7.581c-11.4-4.83-21.627-11.756-30.417-20.568s-15.697-19.086-20.514-30.496c-4.99-11.852-7.523-24.416-7.523-37.365a92.91 92.91 0 0 1 7.83-37.403c4.97-11.39 12.07-21.646 21.13-30.477 9-8.793 19.42-15.7 30.992-20.53 11.4-4.752 22.05-6.965 34.33-7.138v8.658c-11.226.154-20.59 2.117-31.01 6.465-10.555 4.406-20.073 10.717-28.287 18.74-8.232 8.042-14.7 17.374-19.228 27.764a84.39 84.39 0 0 0-7.082 33.94c0 11.795 2.303 23.224 6.85 33.98 4.376 10.4 10.67 19.74 18.673 27.764 8.002 8.004 17.31 14.295 27.69 18.7 10.728 4.56 22.127 6.87 33.9 6.87s23.163-2.31 33.9-6.87c10.344-4.367 19.67-10.66 27.692-18.7 7.983-8.004 14.278-17.355 18.672-27.764 4.548-10.755 6.85-22.184 6.85-33.98 0-11.832-2.456-23.896-7.12-34.844-4.318-10.16-9.826-18.086-17.752-25.55l5.777-6.407z" class="B"/><path d="M219.925 155.656c.173 0 .345-.077.48-.212l60.315-62.03a.67.67 0 0 0-.019-.943c-.27-.25-.69-.25-.94.02l-60.315 62.03c-.25.27-.25.692.02.942.115.135.288.193.46.193z" class="D"/><path d="M231.688 147.304c-2.64 0-4.778-2.145-4.778-4.8s2.14-4.79 4.778-4.79 4.78 2.145 4.78 4.79-2.14 4.8-4.78 4.8z" class="G"/><path d="M231.7 148.747c3.435 0 6.217-2.8 6.217-6.234s-2.782-6.234-6.217-6.234-6.218 2.8-6.218 6.234 2.782 6.234 6.218 6.234zm0-9.582c1.842 0 3.34 1.5 3.34 3.348s-1.497 3.348-3.34 3.348-3.34-1.5-3.34-3.348 1.497-3.348 3.34-3.348zm-38.958-92.873a1.46 1.46 0 0 0 .633-.154c.7-.346.998-1.212.653-1.943l-2.917-5.868a3.31 3.31 0 0 1-.019-2.732 3.33 3.33 0 0 1 2.034-1.809l6.026-1.828a3.2 3.2 0 0 1 2.706.366c.806.5 1.343 1.347 1.477 2.3l.864 6.157c.115.8.844 1.347 1.63 1.23a1.45 1.45 0 0 0 1.228-1.636l-.863-6.176a6.13 6.13 0 0 0-2.802-4.3c-1.516-.952-3.36-1.212-5.066-.673l-6.026 1.828a6.16 6.16 0 0 0-3.838 3.386c-.73 1.635-.7 3.52.057 5.137l.02.02 2.916 5.888a1.39 1.39 0 0 0 1.286.827z" class="B"/><path d="M22.85 553.22h1.183V305.885H353V553.22h1.183v-248.5H22.85v248.5z" class="H"/><path d="M19.326 313.6h339.292c7.66 0 13.883-4.406 13.883-9.832v-37.46c0-5.425-6.222-9.83-13.883-9.83H19.326c-7.66 0-13.883 4.406-13.883 9.83v37.46c0 5.426 6.22 9.832 13.883 9.832z" class="B"/><g class="H"><path d="M19.326 314.176h339.292c8.096 0 14.698-4.676 14.698-10.41v-37.46c0-5.734-6.602-10.4-14.698-10.4H19.326c-8.096 0-14.698 4.676-14.698 10.4v37.46c0 5.733 6.602 10.41 14.698 10.41zm339.292-57.125c7.2 0 13.068 4.156 13.068 9.255v37.46c0 5.098-5.87 9.254-13.068 9.254H19.326c-7.2 0-13.067-4.156-13.067-9.254v-37.46c0-5.1 5.868-9.255 13.067-9.255h339.292z"/><path d="M18.504 306.9h340.93c7.66 0 13.883-4.4 13.883-9.842V259.56c0-5.432-6.222-9.842-13.883-9.842H18.504c-7.66 0-13.883 4.4-13.883 9.842v37.498c0 5.432 6.22 9.842 13.883 9.842z"/></g><g class="B"><path d="M84.733 255.8H170.6v39.54H84.733V255.8z"/><path d="M26.89 260.073h88.564l-.077-10.35h53.35l15.525-45.6 16.62 30.688-46.92 40.136 22.434 30.476 55.422-35.614a35.52 35.52 0 0 0 16.081-29.745c0-6.003-1.516-11.93-4.433-17.182l-25.87-46.908c-10.86-19.683-31.5-31.88-53.924-31.88H80.584c-13.817 0-26.77 6.734-34.734 18.047L5.57 218.36c-12.53 17.412-.096 41.713 21.32 41.713z"/></g><g class="D"><path d="M176.248 306.19l55.882-35.902a36.02 36.02 0 0 0 16.35-30.227c0-6.12-1.554-12.16-4.5-17.47l-25.868-46.908c-10.958-19.856-31.818-32.17-54.424-32.17H80.603c-14 0-27.135 6.83-35.214 18.297l-40.28 56.2c-3.032 4.214-4.798 9.12-5.066 14.16-.27 4.733.748 9.505 2.955 13.815 2.188 4.3 5.47 7.927 9.46 10.486 4.26 2.732 9.25 4.175 14.45 4.175h89.12l-.076-10.35h53.176l.134-.385 15.103-44.35 15.775 29.13-46.978 40.174 23.086 31.323zm-12.59-161.523c22.203 0 42.68 12.102 53.426 31.593l25.868 46.908c2.86 5.137 4.356 10.986 4.356 16.893 0 11.852-5.9 22.78-15.812 29.265l-54.96 35.325-21.8-29.61 46.863-40.097-17.463-32.247-15.813 46.446H114.8l.077 10.352H26.9c-5 0-9.768-1.386-13.836-3.983-3.82-2.444-6.966-5.926-9.058-10.044s-3.07-8.677-2.82-13.218c.27-4.8 1.957-9.504 4.855-13.545l40.28-56.22c7.85-11.16 20.668-17.817 34.274-17.817h83.075z"/><path d="M158.2 294.916c6.563 8.85 14.642 13.93 18.077 11.37s.902-11.794-5.642-20.645c-6.563-8.85-13.875-13.545-17.3-10.986s-1.67 11.43 4.875 20.26zM129.903 182.1l27.73-38.52h-53.3l25.58 38.52zm25.466-37.365l-25.43 35.325-23.47-35.326h48.897z"/><use xlink:href="#B"/><use xlink:href="#B" y="17.701"/><path d="M114.13 260.744h1.15v-39.827H62.41l12.11-18.836-.96-.616L60.3 222.07h53.83v38.673z"/><path d="M47.365 220.918h14v1.154h-14v-1.154zm67.34 39.826c-4.28 0-7.752-8.933-7.752-19.952s3.47-19.952 7.752-19.952 7.753 8.933 7.753 19.952-3.47 19.952-7.753 19.952zm-7.676-.144v-1.155c-3.895 0-7.177-8.542-7.177-18.663s3.282-18.663 7.177-18.663v-1.154c-4.663 0-8.328 8.696-8.328 19.817s3.665 19.818 8.328 19.818zm75.552 41.55c3.742-2.8 1.304-12.2-5.527-21.453-3.3-4.445-6.68-7.87-9.787-9.9-3.32-2.174-6.065-2.597-7.945-1.193l.7.924c3.05-2.27 9.7 2.193 16.12 10.87 6.236 8.428 8.865 17.5 5.757 19.837l.7.924z"/></g><path d="M156.31 128.218c-.134-18.97-12.704-24.166-33.353-22.51-22.26 1.79-13.145 32.497-25.504 33.516-5.18.424-11.092-5.464-18.96-10.313a40.4 40.4 0 0 0-22.721-6.945c-22.472 0-40.703 18.278-40.703 40.81 0 10.37 4.817 20.394 11.17 27.6 0 0 24.007-33.805 33.314-36.98 18.308-6.234 24.122 9.9 36.826 12.39 1.67.327 3.454.423 5.412.192 18.077-2.077 14.623-31.958 14.623-31.958 4.683-1.924 5.7-6.792 5.872-9.735-.096-1.424-.038-2.367-.038-2.367s.115.962.038 2.367c.384 5.54 3.762 18.797 22.587 14.045v6.446c0 39.038-.633 46.62 7.254 56.432 1.17 1.462 9 13.256-5.028 19.625-18.077 8.196-5.315 29.765-5.315 29.765h38.246s22.702-4.04 24.68-24.705c2.82-29.534-34.12-37.442-38.937-38.346 9.365-1.443 18.518-10.698 18.518-21.915 0-9.947-7.618-18.355-15.448-21.126-.02 0-.02 0-.038-.02l-.69-.23c-6.122-2.116-10.632-6.773-11.63-12.4l-.173-3.617z" class="C"/><path d="M122.2 128.43a.49.49 0 0 0 .479-.481l-.153-9.832c0-.27-.2-.48-.48-.48a.49.49 0 0 0-.48.481l.154 9.832c.02.27.23.48.48.48zm21.837 11.197c.077 0 .154-.02.23-.058 4.644-2.444 5.623-4.945 5.68-5.04a.48.48 0 0 0-.288-.616c-.248-.096-.518.04-.614.27-.02.038-.96 2.3-5.22 4.54-.23.116-.326.424-.2.655.077.154.25.25.422.25z" class="E"/><path d="M79.567 122.908c-3.18 0-5.757-2.585-5.757-5.773s2.578-5.772 5.757-5.772 5.757 2.585 5.757 5.772-2.578 5.773-5.757 5.773zm67.76 91.276c-2.554 0-4.625-2.076-4.625-4.637s2.07-4.637 4.625-4.637 4.625 2.076 4.625 4.637-2.07 4.637-4.625 4.637z" class="C"/><path d="M118.197 279.33l.02 3.502a2.27 2.27 0 0 0 .192.885l8.405 18.78c1.247 2.712 3.953 4.444 6.928 4.444h17.98c4.49 0 8.847-1.52 12.378-4.3l.633-.5 10.708-8.446c-1.19-2.578-2.82-5.33-4.836-8.043-3.838-5.195-8.232-9.08-11.878-10.91h-25.81c-2.054 4.598 4.624 8.293 4.624 8.293h-11.667l-4.222-4.6c-1.094-1.193-3.07-.673-3.454.885z" class="E"/><path d="M131.765 301.708h15.14c.268 0 .48-.212.48-.48s-.2-.48-.48-.48h-15.14c-2.783 0-5.335-1.636-6.487-4.156-.115-.25-.403-.346-.633-.23a.47.47 0 0 0-.23.635c1.305 2.867 4.202 4.714 7.35 4.714zm-2.65-5.945h15.14c.27 0 .48-.212.48-.48s-.2-.48-.48-.48h-15.14c-2.782 0-5.335-1.636-6.486-4.156-.115-.25-.403-.347-.633-.23a.47.47 0 0 0-.231.635 8.1 8.1 0 0 0 7.35 4.714zm-2.86-6.62h15.14c.27 0 .48-.2.48-.48s-.2-.48-.48-.48h-15.14a7.15 7.15 0 0 1-6.486-4.156c-.115-.25-.403-.346-.634-.23a.47.47 0 0 0-.23.634c1.305 2.867 4.203 4.714 7.35 4.714zm32.125 5.387c1.707 2.8 4.22 5.695 6.352 7.62l.02-.02 10.708-8.447c-1.2-2.578-2.82-5.33-4.836-8.042-3.838-5.195-8.233-9.082-11.88-10.9H153.2c-.5 4.368.23 11.718 5.182 19.8z" class="F"/><path d="M139.978 235.175s-9.326-24.955-12.934-24.455c-3.59.48 8.04 22.608 8.04 22.608l4.893 1.847z" class="D"/><path d="M106.95 240.793c0 10.68 3.263 19.375 7.35 19.914a2.87 2.87 0 0 0 .403.019H152.7c1.152 0 2.073-.923 2.073-2.078v-12.16c0-3.444-2.11-6.522-5.316-7.734l-15.91-6.042c-1.44-.54-2.974-.827-4.51-.827h-21.263c-.52 2.693-.826 5.714-.826 8.908z" class="E"/><path d="M154.102 252.317c.27 0 .48-.2.48-.48a6.73 6.73 0 0 0-4.318-6.272l-12.013-4.56c-.25-.096-.518.038-.614.288s.038.52.288.616l12.013 4.56a5.8 5.8 0 0 1 3.703 5.387c-.02.25.192.462.46.462zm0 7.273c.27 0 .48-.212.48-.48 0-2.77-1.727-5.3-4.318-6.273l-12.013-4.56c-.25-.096-.518.04-.614.3s.038.52.288.616l12.013 4.56a5.8 5.8 0 0 1 3.703 5.387c-.02.25.192.462.46.462zm-3.358.962c.192 0 .384-.116.44-.308.096-.25-.038-.52-.288-.616l-12.013-4.56c-.25-.096-.518.04-.614.3a.48.48 0 0 0 .288.616l12.013 4.56c.058 0 .115.02.173.02zm-43.794-19.76c0 10.678 3.263 19.375 7.35 19.914a2.87 2.87 0 0 0 .403.019c4.28 0 7.753-8.928 7.753-19.952 0-2.944-.44-6.292-.902-8.9h-13.682c-.48 2.636-.922 5.984-.922 8.928z" class="F"/><path d="M110.137 138.3c0 1.116.384 2.175 1.017 3.002a4.88 4.88 0 0 0 2.648 1.751l2.65.692v2.963c0 7.158 5.776 12.95 12.915 12.95h2.552c7.12 0 12.877-5.772 12.915-12.89V138.3c-18.825 4.772-22.203-8.504-22.587-14.045-.153 2.81-1.094 7.35-5.24 9.447l-.73-.192c-3.11-.77-6.14 1.577-6.14 4.8z" class="E"/><path d="M119.963 142.726a.44.44 0 0 0 .307-.116c2.1-1.8 5.776-1.443 5.814-1.443.27.02.5-.173.518-.423.02-.27-.172-.5-.422-.52-.173-.02-4.145-.384-6.544 1.674-.192.173-.23.48-.057.674a.61.61 0 0 0 .384.154zm12.05 10.794c.27 0 .48-.2.48-.48.038-5.695 1.247-10.197 2.936-10.947 2.975-1.3 5.66.096 5.68.115.23.135.518.04.653-.192s.038-.52-.192-.654c-.134-.077-3.128-1.655-6.525-.154-2.13.942-3.473 5.464-3.512 11.832 0 .27.2.48.48.48zm5.642-5.868c-.413 0-.748-.646-.748-1.443s.335-1.443.748-1.443.75.646.75 1.443-.336 1.443-.75 1.443zm-13.932 0c-.414 0-.75-.646-.75-1.443s.335-1.443.75-1.443.748.646.748 1.443-.335 1.443-.748 1.443zm-8.004-7.004c.27 0 .48-.212.48-.48a4.03 4.03 0 0 0-3.185-3.925c-.25-.058-.52.115-.576.365-.058.27.115.52.364.577 1.4.3 2.418 1.56 2.418 3.002.02.25.23.462.5.462z" class="F"/><path d="M321.307 435.997c-2.284 5.388-1.612 16.47 9.883 16.316 14.258-.192 13.894-38.7 13.894-38.7s-14.566.673-23.777 22.395zm132.797-13.025c3.57 7.58-1.228 13.68-5.258 11.583-7.043-3.675-10.075-13.122-10.075-13.122s12.128-5.233 15.333 1.54z" class="I"/><path d="M321.5 435.997c7.638-15.334 16.254-22.626 30.052-22.626 23.24 0 38.15 24.935 41 57.182.346-4.002 4.472-8.1 4.78-12.256 4.145-55.22-26.042-77-48.686-77-18.538-.02-23.163 26.686-27.135 54.7z" class="B"/><g class="I"><path d="M391.966 470.61h1.15c.154-1.847 1.2-3.732 2.284-5.752 1.15-2.098 2.34-4.29 2.494-6.523 2.534-33.805-7.83-52.68-16.964-62.57-8.847-9.562-20.63-15.065-32.297-15.065h-.02c-8.636 0-15.026 5.618-19.536 17.2-3.992 10.236-6.122 23.82-8.137 38l-.5 3.52 1.593-3.175c3.953-7.946 7.945-13.295 12.55-16.874 4.74-3.655 10.286-5.445 16.983-5.445 10.862 0 20.438 5.62 27.672 16.24 6.9 10.178 11.284 24.147 12.724 40.443zm-43.35-88.736h.02c11.36 0 22.817 5.35 31.453 14.68 8.98 9.717 19.17 28.284 16.657 61.685-.154 1.982-1.267 4.06-2.36 6.06-.557 1.02-1.133 2.078-1.574 3.136-1.708-15.18-6.064-28.226-12.627-37.885-7.465-10.967-17.348-16.758-28.613-16.758-6.966 0-12.742 1.866-17.693 5.676-4.146 3.194-7.773 7.773-11.323 14.257 1.862-12.89 3.953-25.07 7.6-34.382 2.09-5.368 4.51-9.313 7.388-12.026 3.147-2.982 6.774-4.444 11.073-4.444z"/><path d="M397.876 471.362c2.514-33.402-8.02-52.373-17.31-62.397-8.81-9.524-20.61-15.22-31.568-15.22-11.764 0-19.23 6.83-24.948 22.82l1.075.385C330.672 401.5 337.81 394.9 349 394.9c10.63 0 22.126 5.56 30.723 14.853 9.135 9.87 19.478 28.553 17.003 61.53l1.15.077z"/></g><g class="C"><path d="M484.252 357.997c6.198 6.157 17.406 31.4 3.53 36.403-13.875 5.022-30.13-44.407-30.13-44.407s11.764-6.753 26.598 8.004z"/><path d="M485.75 395.344c.748 0 1.497-.135 2.226-.385 3.55-1.29 5.776-3.887 6.64-7.754 2.168-9.87-5.316-24.974-9.96-29.592-4.3-4.27-11.13-9.447-19.248-9.697-4.894-.154-7.906 1.54-8.04 1.616l-.403.23.154.443c.038.096 3.185 9.62 7.8 19.76 6.256 13.7 12.1 21.953 17.367 24.53 1.17.54 2.342.847 3.455.847zm-20.975-46.312a8.14 8.14 0 0 1 .671.019c7.715.29 14.26 5.253 18.404 9.37 4.586 4.56 11.668 19.395 9.653 28.534-.768 3.463-2.745 5.79-5.91 6.926-1.516.558-3.1.404-4.798-.423-11.303-5.522-22.932-38.75-24.43-43.137.902-.442 3.186-1.29 6.4-1.29z"/></g><path d="M369.858 472.69l4.952 26.917c2.494 13.507 14.24 23.32 27.94 23.32s25.446-9.812 27.94-23.32l4.95-26.917c0-1.347-.307-2.636-.845-3.79-3.972 4.002-16.887 6.927-32.182 6.927-15.083 0-27.826-2.848-32.01-6.734a9 9 0 0 0-.749 3.598z" class="G"/><path d="M373.102 466.302c0 3.8 13.222 6.89 29.534 6.89s29.533-3.08 29.533-6.89c0-.307-.076-.596-.25-.885-1.88-3.386-14.278-5.983-29.284-5.983-15.468 0-28.153 2.77-29.42 6.29-.077.193-.115.385-.115.577z" class="H"/><path d="M392.042 426.146c0 15.93 2.188 30.977 6.084 44.215h11.207c.038-66.9 24.372-121.1 54.366-121.1 7.79 0 15.2 3.655 21.896 10.235-19.727-23.146-27.922-29.495-39.186-29.495-26.905 0-54.367 43.04-54.367 96.144z" class="B"/><g class="C"><path d="M397.704 470.94h12.205v-.578c.038-66.456 24.16-120.52 53.8-120.52 7.465 0 14.7 3.386 21.493 10.062l.845-.79c-20.112-23.588-28.25-29.707-39.628-29.707-13.376 0-27.135 10.37-37.767 28.438-5.296 9.004-9.48 19.336-12.435 30.707-3.147 12.064-4.72 24.705-4.72 37.577 0 15.45 2.11 30.804 6.102 44.368l.116.443zm11.053-1.155h-10.21c-3.876-13.372-5.93-28.437-5.93-43.637 0-12.776 1.574-25.32 4.702-37.288 2.936-11.256 7.08-21.49 12.32-30.42 5.047-8.58 11.015-15.642 17.27-20.433 6.448-4.926 13.01-7.446 19.498-7.446 10.036 0 17.56 5.06 34.024 23.82-5.373-3.8-10.977-5.714-16.734-5.714-7.484 0-14.738 3.252-21.53 9.678-6.525 6.157-12.378 14.95-17.406 26.128-10.248 22.82-15.928 53.084-16.005 85.312z"/><path d="M402.194 470.4l1.152-.115c-1.325-13.565-1.632-26.764-.922-39.232.672-11.698 2.265-22.82 4.72-33.035 4.568-18.99 12.013-34.614 21.55-45.157 8.117-8.986 17.27-13.738 26.444-13.738 7.1 0 11.15 2.078 17.54 6.734l.672-.943c-6.602-4.8-10.804-6.965-18.23-6.965-9.518 0-18.94 4.887-27.29 14.103-9.672 10.698-17.213 26.494-21.82 45.677-2.476 10.294-4.068 21.472-4.76 33.248-.7 12.544-.403 25.8.94 39.423z"/></g><path d="M402.693 470.342s-1.65-62.82 32.49-63.03c9.04-.058 17.502 14.315 17.502 14.315s-39.974-10.467-41.95 48.716h-8.04z" class="B"/><g class="I"><path d="M402.136 470.92h9.154l.02-.558c.69-20.953 6.218-35.44 16.39-43.06 5.93-4.445 12.36-5.6 16.696-5.792 4.74-.21 8.098.655 8.136.655l1.344.346-.7-1.212c-.096-.154-2.188-3.694-5.43-7.273-4.395-4.868-8.617-7.33-12.512-7.33h-.058c-6.91.04-12.896 2.636-17.79 7.696-3.743 3.868-6.87 9.236-9.308 15.93-1.938 5.33-3.435 11.525-4.47 18.414-1.746 11.698-1.516 21.49-1.516 21.587l.057.597zm8.04-1.155h-6.908c-.02-2.232.02-10.832 1.516-20.856 1.593-10.66 5.22-25.167 13.452-33.7 4.663-4.83 10.363-7.292 16.964-7.33h.058c7.12 0 14.047 9.563 16.235 12.89-1.44-.25-3.953-.558-7.08-.423-4.5.192-11.207 1.385-17.368 6.003-10.4 7.773-16.08 22.377-16.868 43.406z"/><path d="M406.3 470.553l1.15-.038c-.096-3.848-.077-13.95 2.4-24.782 2.514-10.967 6.716-19.356 12.493-24.916 6.026-5.81 13.76-8.447 22.97-7.83l.076-1.154c-9.556-.635-17.578 2.116-23.834 8.157-5.93 5.734-10.248 14.296-12.82 25.494-2.514 10.967-2.533 21.184-2.437 25.07z"/></g><path d="M452.837 362.04a3.17 3.17 0 1 1 0-6.35c1.75 0 3.167 1.422 3.167 3.175s-1.418 3.175-3.167 3.175z" class="B"/><path d="M452.837 362.615a3.74 3.74 0 1 0 0-7.504 3.74 3.74 0 1 0 0 7.504zm0-6.35a2.61 2.61 0 0 1 2.591 2.597 2.61 2.61 0 0 1-2.591 2.598 2.61 2.61 0 0 1-2.59-2.598 2.61 2.61 0 0 1 2.59-2.597z" class="C"/><path d="M378.206 452.834c-2.554 0-4.625-2.076-4.625-4.637s2.07-4.636 4.625-4.636 4.625 2.076 4.625 4.636-2.07 4.637-4.625 4.637z" class="B"/><path d="M378.206 453.41c2.86 0 5.2-2.348 5.2-5.214s-2.34-5.215-5.2-5.215-5.2 2.348-5.2 5.215 2.34 5.214 5.2 5.214zm0-9.274a4.07 4.07 0 0 1 4.049 4.06 4.07 4.07 0 0 1-4.049 4.059 4.07 4.07 0 0 1-4.049-4.059 4.07 4.07 0 0 1 4.049-4.06z" class="C"/><path d="M385.882 363.384c-4.822 0-8.73-3.92-8.73-8.755s3.91-8.754 8.73-8.754 8.732 3.92 8.732 8.754-3.91 8.755-8.732 8.755z" class="G"/><g class="H"><path d="M363.506 553.538l7.734-38.616c.307-1.54 1.497-2.27 2.514-2.443s2.38.115 3.186 1.462c2.6 4.33 6.428 7.87 11.092 10.236 4.375 2.232 9.422 3.425 14.565 3.444 5.162.02 10.21-1.135 14.623-3.328 4.702-2.348 8.578-5.87 11.207-10.18l.192-.327c.806-1.327 2.188-1.597 3.186-1.424s2.187.924 2.494 2.444l7.753 38.73 1.133-.23-7.753-38.73c-.346-1.75-1.65-3.02-3.416-3.348-1.766-.308-3.435.443-4.376 1.963l-.19.346c-2.514 4.118-6.237 7.485-10.728 9.736-4.24 2.116-9.134 3.232-14.105 3.213s-9.825-1.174-14.047-3.33c-4.47-2.29-8.137-5.676-10.63-9.812-.922-1.54-2.59-2.31-4.376-2-1.765.308-3.1 1.597-3.435 3.367l-7.734 38.615 1.113.212z"/><path d="M402.194 527.062h1.15v26.533h-1.15v-26.533z"/><path d="M202.94 552.846h257.227V554H202.94v-1.154z"/></g><path d="M246.697 291.538h87.875c2.36 0 4.47-1.433 5.346-3.618l24.047-59.534c1.144-2.848-.948-5.964-4.005-5.964h-87.875c-2.36 0-4.47 1.433-5.346 3.618l-24.047 59.534a4.33 4.33 0 0 0 4.005 5.964z" class="B"/><g class="D"><path d="M363.468 228.187l-24.048 59.535c-.794 1.98-2.707 3.28-4.848 3.28h-87.875c-2.695 0-4.526-2.73-3.51-5.224l24.05-59.537c.794-1.98 2.707-3.28 4.848-3.28h87.875c2.675 0 4.51 2.73 3.508 5.226zm.995.402c1.285-3.2-1.063-6.702-4.503-6.702h-87.875a6.29 6.29 0 0 0-5.844 3.955l-24.046 59.53c-1.306 3.202 1.046 6.704 4.502 6.704h87.875a6.29 6.29 0 0 0 5.843-3.955l24.048-59.533z" class="J"/><path d="M250.773 291.97h83.835c2.234 0 4.255-1.362 5.095-3.44l22.94-56.794a4.13 4.13 0 0 0-3.826-5.677H274.98c-2.235 0-4.255 1.36-5.095 3.438l-22.94 56.794c-1.09 2.722.912 5.678 3.826 5.678z"/></g><path d="M302.247 266.143a9.19 9.19 0 0 0 6.543-2.722 7.51 7.51 0 0 0 2.217-5.337c0-2.024-.786-3.923-2.217-5.338-1.162-1.164-2.717-1.808-4.362-1.808s-3.2.644-4.363 1.808a5.1 5.1 0 0 0 0 7.2c1.645 1.648 4.3 1.648 5.954 0 .286-.286.286-.734 0-1.02a.71.71 0 0 0-1.019 0 2.77 2.77 0 0 1-3.933 0 3.66 3.66 0 0 1 0-5.176 4.73 4.73 0 0 1 3.361-1.397c1.27 0 2.467.502 3.36 1.397a6.06 6.06 0 0 1 1.788 4.335c0 1.63-.644 3.17-1.788 4.334-1.484 1.487-3.433 2.293-5.524 2.293s-4.06-.806-5.525-2.293a.71.71 0 0 0-1.019 0c-.286.287-.286.734 0 1.02 1.734 1.737 4.058 2.704 6.526 2.704zm-87 31.702h119.217a2.48 2.48 0 0 0 2.485-2.489v-1.2c0-1.38-1.1-2.5-2.485-2.5H215.248a2.48 2.48 0 0 0-2.485 2.49v1.2c.017 1.38 1.126 2.5 2.485 2.5z" class="B"/><path d="M334.465 292.204c1.08 0 1.95.87 1.95 1.952v1.2c0 1.082-.87 1.952-1.95 1.952H215.248c-1.058 0-1.933-.866-1.95-1.956v-1.196c0-1.083.868-1.952 1.95-1.952h119.217zm3.02 1.952a3.02 3.02 0 0 0-3.021-3.027H215.248a3.02 3.02 0 0 0-3.022 3.027v1.207c.022 1.666 1.363 3.02 3.022 3.02h119.217a3.02 3.02 0 0 0 3.021-3.027v-1.2z" class="D J"/><defs ><path id="B" d="M129.634 195.117a3.38 3.38 0 0 0 3.359-3.367 3.38 3.38 0 0 0-3.359-3.367 3.38 3.38 0 0 0-3.358 3.367 3.38 3.38 0 0 0 3.358 3.367zm0-5.58c1.21 0 2.207 1 2.207 2.213s-.998 2.213-2.207 2.213-2.207-1-2.207-2.213.998-2.213 2.207-2.213z"/></defs></svg>