<svg xmlns="http://www.w3.org/2000/svg" xmlns:xlink="http://www.w3.org/1999/xlink" width="550" height="502" fill="none" xmlns:v="https://vecta.io/nano"><style><![CDATA[.B{fill:#fff}.C{fill:#3fb1b5}.D{fill:#66b0f0}.E{fill:#ffcf2d}.F{fill:#fe5244}.G{fill:#a0505a}.H{fill:#73325a}.I{fill:#e57281}.J{fill:#9a3b82}]]></style><path d="M204.376 14.502l-38.287 36.84-38.48 207.67h360.947l-284.18-244.51z" class="E"/><path d="M165.76 51.054l38.403-36.955-6.423-6.654c-9.46-9.798-26.505-8.68-36.333.733-9.828 9.432-11.55 26.424-2.09 36.222l6.442 6.654z" class="B"/><g class="E"><path d="M165.74 51.863l39.234-37.746-6.83-7.08c-4.604-4.783-11.163-7.27-18.476-7.02-7.003.25-13.813 3.067-18.688 7.734s-7.952 11.36-8.455 18.343c-.522 7.272 1.74 13.906 6.346 18.7l6.868 7.08zm37.61-37.785l-37.57 36.145-6.036-6.23c-4.39-4.533-6.52-10.86-6.036-17.803.484-6.712 3.425-13.116 8.106-17.6s11.202-7.175 17.915-7.406c6.965-.25 13.214 2.122 17.586 6.654l6.036 6.23z"/><path d="M159.337 44.977c.155 0 .3-.058.406-.154l38.422-36.955c.233-.23.233-.58.02-.8-.232-.23-.6-.23-.813-.02L158.95 43.993c-.232.23-.232.58-.02.8.097.116.25.173.406.173z"/></g><path d="M85.124 258a.51.51 0 0 0 .232-.058c.3-.135.426-.482.3-.77l-53.88-119.816L137.108 9.507c1.993-2.7 4.914-4.436 8.242-4.918s6.636.386 9.305 2.43l4.295 3.28a.57.57 0 0 0 .813-.116c.193-.25.155-.617-.116-.8l-4.295-3.28c-2.92-2.218-6.54-3.163-10.176-2.642s-6.83 2.41-8.996 5.362L30.413 137.192l.155.328 54.035 120.143a.59.59 0 0 0 .522.347z" class="C"/><path d="M32.81 143.826c-3.27 0-5.92-2.643-5.92-5.902s2.65-5.903 5.92-5.903 5.92 2.643 5.92 5.903-2.65 5.902-5.92 5.902z" class="B"/><path d="M32.81 144.405c3.58 0 6.5-2.913 6.5-6.48s-2.92-6.48-6.5-6.48-6.5 2.913-6.5 6.48 2.92 6.48 6.5 6.48zm0-11.804c2.94 0 5.34 2.39 5.34 5.323s-2.4 5.323-5.34 5.323-5.34-2.39-5.34-5.323 2.4-5.323 5.34-5.323z" class="E"/><path d="M100.137 244.006H71.29c-8.3 0-15.013 6.712-15.013 14.967v.424h58.9v-.424c-.02-8.255-6.732-14.967-15.032-14.967z" class="B"/><path d="M55.698 259.977h60.052v-1.003c-.02-8.564-7.023-15.546-15.613-15.546H71.29c-8.6 0-15.593 6.982-15.593 15.546v1.003zm58.89-1.158H56.86c.077-7.87 6.52-14.234 14.432-14.234h28.846c7.893 0 14.355 6.365 14.452 14.234z" class="E"/><path d="M239.876 215.595h182.612c6.868 0 12.42-5.535 12.42-12.382V75.875c0-6.847-5.552-12.383-12.42-12.383H239.876c-6.868 0-12.42 5.536-12.42 12.383v127.318c-.02 6.847 5.552 12.402 12.42 12.402z" class="B"/><path d="M239.876 216.174h182.61c7.178 0 13-5.805 13-12.96V75.875c0-7.156-5.823-12.96-13-12.96h-182.61c-7.177 0-13 5.806-13 12.96v127.32c-.02 3.452 1.334 6.712 3.79 9.16 2.457 2.47 5.727 3.82 9.21 3.82zM422.487 64.07c6.52 0 11.84 5.304 11.84 11.804v127.338c0 6.5-5.32 11.804-11.84 11.804h-182.61a11.81 11.81 0 0 1-8.396-3.472c-2.225-2.237-3.463-5.207-3.444-8.35V75.875c0-6.5 5.32-11.804 11.84-11.804h182.61z" class="C"/><g class="D"><path d="M239.76 203.752h180.85c2.69 0 4.856-2.18 4.856-4.84V77.09c0-2.68-2.186-4.84-4.856-4.84H239.76c-2.69 0-4.856 2.18-4.856 4.84V198.89c-.02 2.68 2.167 4.86 4.856 4.86z"/><path d="M239.76 204.33h180.85c2.998 0 5.436-2.43 5.436-5.42V77.1c0-3-2.438-5.42-5.436-5.42H239.76c-2.998 0-5.436 2.43-5.436 5.42v121.802c-.02 1.446.542 2.816 1.567 3.838 1.045 1.022 2.4 1.6 3.87 1.6zM420.61 72.827a4.27 4.27 0 0 1 4.275 4.263v121.82c0 2.353-1.915 4.263-4.275 4.263H239.76a4.28 4.28 0 0 1-3.037-1.254 4.19 4.19 0 0 1-1.238-3.009V77.1a4.27 4.27 0 0 1 4.275-4.263h180.85z"/></g><path d="M414.13 84.207h2.863c1.258 0 2.283-1.022 2.283-2.276v-2.855c0-1.254-1.025-2.276-2.283-2.276h-2.863c-1.258 0-2.283 1.022-2.283 2.276v2.855c.02 1.273 1.025 2.276 2.283 2.276zm2.863-6.25a1.12 1.12 0 0 1 1.122 1.119v2.855a1.12 1.12 0 0 1-1.122 1.119h-2.863c-.62 0-1.103-.5-1.122-1.138v-2.835a1.12 1.12 0 0 1 1.122-1.119h2.863zm-15.893 6.25h2.863c1.257 0 2.283-1.022 2.283-2.276v-2.855c0-1.254-1.026-2.276-2.283-2.276H401.1c-1.258 0-2.283 1.022-2.283 2.276v2.855c0 1.254 1.025 2.276 2.283 2.276zm2.863-6.25a1.12 1.12 0 0 1 1.122 1.119v2.855a1.12 1.12 0 0 1-1.122 1.119H401.1a1.12 1.12 0 0 1-1.122-1.119v-2.855a1.12 1.12 0 0 1 1.122-1.119h2.863zm-15.873 6.25h2.864c1.257 0 2.283-1.022 2.283-2.276v-2.855c0-1.254-1.026-2.276-2.283-2.276H388.1c-1.257 0-2.282 1.022-2.282 2.276v2.855c0 1.254 1.025 2.276 2.282 2.276zm2.864-6.25a1.12 1.12 0 0 1 1.122 1.119v2.855a1.12 1.12 0 0 1-1.122 1.119H388.1c-.638 0-1.122-.482-1.122-1.12v-2.855a1.12 1.12 0 0 1 1.122-1.119h2.864zm-98.32 181.055h70.886l-13.9-43.416h-43.045l-13.93 43.416z" class="B"/><g class="C"><path d="M291.84 259.592h72.472l-14.278-44.574h-43.897l-14.297 44.574zm70.886-1.158h-69.3l13.56-42.26h42.195l13.543 42.26z"/><path d="M357.948 241.634l-8.338-26.038h-43.046l51.384 26.038z"/></g><g class="B"><path d="M250.285 112.773h34.456c3.54 0 6.423-2.874 6.423-6.403V84.19c0-3.53-2.883-6.403-6.423-6.403h-34.456c-3.54 0-6.423 2.874-6.423 6.403v22.18c0 3.53 2.882 6.403 6.423 6.403zm34.456-33.83c2.902 0 5.262 2.353 5.262 5.246v22.18c0 2.893-2.36 5.246-5.262 5.246h-34.456c-2.902 0-5.262-2.353-5.262-5.246V84.19c0-2.893 2.36-5.246 5.262-5.246h34.456z"/><use xlink:href="#B"/><use xlink:href="#B" y="5.98"/><use xlink:href="#B" y="11.95"/><use xlink:href="#B" y="17.938"/><path d="M240.767 203.753H377.72l8.03 11.476c9.074 12.96 28.246 13.154 37.57.366l48.908-67.063c-2.05 2.546-11.434-.3-20.372-6.153-9.074-5.96-14.935-13.463-13.098-16.24l-33.914 43.088-10.39-18.284a20.51 20.51 0 0 0-13.059-9.586l-35.346-7.465h-30.47l-33.586 7.388a20.58 20.58 0 0 0-13.6 10.396l-27.627 52.077z"/></g><g class="C"><path d="M404.67 225.643c7.64 0 14.606-3.53 19.114-9.72l48.908-67.063-.93-.694c-1.644 2.025-10.37-.213-19.598-6.27-4.295-2.816-8.03-6.076-10.505-9.2-2.244-2.816-3.153-5.15-2.418-6.25l-.948-.676-33.373 42.414-9.963-17.532a21.13 21.13 0 0 0-13.427-9.856l-35.423-7.484H315.52l-.058.02-33.585 7.387c-5.998 1.37-11.105 5.266-13.988 10.686l-28.07 52.925h137.61l7.854 11.226c4.43 6.326 11.415 10 19.173 10.087h.213zm65.777-75.665l-47.61 65.27a22.22 22.22 0 0 1-18.399 9.239c-7.37-.077-14.006-3.568-18.224-9.586L378 203.173H241.715l27.18-51.228c2.728-5.13 7.545-8.815 13.214-10.107l33.527-7.368h30.355l35.288 7.445c5.3 1.235 9.924 4.63 12.672 9.316l10.814 19.037 33.16-42.124c.27 1.446 1.22 3.26 2.844 5.285 2.554 3.2 6.384 6.558 10.776 9.43 6.133 4.012 13.504 7.175 17.895 7.175a8.42 8.42 0 0 0 1.006-.057z"/><path d="M278.357 203.54a.61.61 0 0 0 .522-.309l9.73-19.152c.136-.3.04-.637-.25-.772s-.64-.038-.774.25l-9.73 19.153c-.136.3-.04.636.25.77a.53.53 0 0 0 .252.058zm100.137 1.793c.097 0 .174-.02.27-.058a.56.56 0 0 0 .251-.771l-9.634-18.96c-.136-.3-.503-.405-.774-.25a.56.56 0 0 0-.252.772l9.635 18.96a.56.56 0 0 0 .503.308zm17.47-24.11a.58.58 0 0 0 .464-.23l22.074-28.14a.58.58 0 0 0-.096-.81c-.252-.193-.62-.154-.813.096l-22.074 28.14c-.194.25-.155.617.097.8.096.097.232.135.348.135zm-77-27.39l8.493-10.32a.56.56 0 0 0-.078-.81c-.25-.212-.62-.173-.812.077l-7.758 9.394-17.74-15.006c-.25-.213-.62-.174-.812.058-.213.25-.174.617.058.8l18.65 15.796zm22.055.367l20.45-16.144a.58.58 0 0 0 .097-.81c-.194-.25-.56-.3-.813-.097l-19.52 15.4-7.526-9.586c-.193-.25-.56-.3-.813-.096a.58.58 0 0 0-.096.81l8.222 10.512zm121.902 4.745c1.838 0 2.805-.56 3.3-1.177a.58.58 0 0 0-.097-.81c-.252-.192-.62-.154-.813.097-.812 1.022-3.463.964-7.08-.116-3.85-1.157-8.494-3.433-12.7-6.23-4.314-2.854-8.067-6.153-10.563-9.316-2.264-2.854-3.173-5.208-2.438-6.326.174-.27.097-.617-.174-.8-.27-.174-.62-.097-.812.173-1.045 1.6-.155 4.32 2.495 7.677 2.573 3.24 6.423 6.635 10.834 9.547 4.373 2.893 8.996 5.17 13.02 6.384 2.186.656 3.83.907 5.05.907zm-24.822-18.73c1.53 0 2.767-1.235 2.767-2.76a2.76 2.76 0 0 0-2.767-2.758c-1.53 0-2.766 1.235-2.766 2.758s1.238 2.76 2.766 2.76zm0-4.36a1.601 1.601 0 1 1 0 3.202 1.601 1.601 0 1 1 0-3.202zm-107.953 18.055c1.53 0 2.767-1.235 2.767-2.758s-1.238-2.76-2.767-2.76-2.766 1.235-2.766 2.76a2.76 2.76 0 0 0 2.766 2.758zm0-4.36a1.601 1.601 0 1 1 0 3.202 1.601 1.601 0 1 1 0-3.202z"/><path d="M330.147 171.464c1.53 0 2.767-1.235 2.767-2.76a2.76 2.76 0 0 0-2.767-2.758c-1.53 0-2.766 1.235-2.766 2.758s1.238 2.76 2.766 2.76zm0-4.36a1.6 1.6 0 1 1 0 3.201 1.6 1.6 0 1 1 0-3.201zm56.298 49.05l-8.725-12.402v12.402h8.725z"/></g><path d="M452.068 141.8c8.938 5.863 18.32 8.698 20.372 6.152.04-.038.058-.077.097-.135.426-.636.387-1.504 0-2.565-1.335-3.49-6.85-8.892-13.852-13.482-5.572-3.665-11.066-6.21-14.878-7.002-2.205-.443-3.85-.308-4.643.54l-.193.232c-1.82 2.777 4.024 10.3 13.097 16.26z" class="F"/><path d="M452.068 141.8c5.088 3.337 10.33 5.7 14.278 6.635l17.663-24.842c2.457-3.472 1.645-8.275-1.857-10.724l-15.903-11.15 9.016-15.295c1.315-2.218.56-5.092-1.683-6.384a4.61 4.61 0 0 0-2.322-.617c-1.528 0-3.037.752-3.927 2.14L438.95 125.58c-1.8 2.74 4.044 10.26 13.117 16.22z" class="I"/><g class="J"><path d="M461.258 123.88c.252 0 .503-.02.755-.077a3.6 3.6 0 0 0 2.321-1.582l9.306-13.887c.174-.27.096-.617-.155-.8a.61.61 0 0 0-.813.154l-9.305 13.887c-.368.56-.93.946-1.587 1.08a2.53 2.53 0 0 1-1.896-.367l-2.186-1.427a2.51 2.51 0 0 1-.754-3.453l9.847-15.218c.174-.27.097-.617-.174-.8a.57.57 0 0 0-.793.173l-9.848 15.218c-1.083 1.697-.58 3.954 1.103 5.034l2.186 1.428c.58.424 1.277.636 1.993.636z"/><path d="M468.474 128.49c1.2 0 2.38-.58 3.095-1.64a.59.59 0 0 0-.174-.81c-.27-.174-.62-.097-.812.173-.755 1.138-2.303 1.466-3.463.733l-1.993-1.254c-.56-.366-.967-.925-1.103-1.6s-.02-1.35.35-1.9c.174-.27.096-.617-.175-.8-.27-.174-.62-.096-.812.174a3.65 3.65 0 0 0-.523 2.796c.213.965.794 1.794 1.626 2.334l1.992 1.254c.62.366 1.316.56 1.993.56z"/><path d="M475.555 132.81c1.16 0 2.302-.54 3.018-1.562l5.28-7.426c.194-.27.116-.617-.135-.8s-.62-.115-.813.135l-5.28 7.426c-.793 1.1-2.283 1.39-3.405.675l-.04-.02-1.838-1.022c-.58-.367-.967-.926-1.122-1.582-.155-.675-.02-1.35.348-1.93l9.113-13.5c.174-.27.116-.617-.155-.8a.59.59 0 0 0-.813.154l-9.112 13.502a3.64 3.64 0 0 0-.522 2.816 3.6 3.6 0 0 0 1.644 2.314l.02.02 1.838 1.023a3.52 3.52 0 0 0 1.974.597z"/></g><path d="M445.723 115.086l4.623-7.155a5.05 5.05 0 0 1 7.062-1.447l11.472 7.754s-3.327 5.96-11.414 1.234l-2.71 4.3c5.534 3.492 7.12 10.84 3.522 16.3l-12.556-20.986z" class="I"/><g class="J"><path d="M458.28 136.65c.193 0 .367-.096.483-.27 1.82-2.777 2.457-6.095 1.74-9.335-.657-3.047-2.418-5.67-4.952-7.445l2.108-3.356c2.786 1.524 5.32 1.967 7.565 1.37 2.844-.77 4.12-3.008 4.18-3.086l.25-.463-11.298-7.87c-1.277-.85-2.786-1.157-4.276-.85a5.59 5.59 0 0 0-3.598 2.469l-4.624 7.156c-.174.27-.097.617.174.79a.57.57 0 0 0 .793-.174l4.624-7.156c.658-1.022 1.664-1.716 2.864-1.948 1.18-.25 2.4 0 3.385.675l10.39 7.233c-.464.598-1.51 1.678-3.173 2.122-2.05.56-4.45.04-7.138-1.524l-.484-.29-3.308 5.266.483.308a11.07 11.07 0 0 1 4.934 7.04 10.96 10.96 0 0 1-1.587 8.448c-.174.27-.096.617.174.8a.64.64 0 0 0 .291.077z"/><path d="M452.068 141.8c5.088 3.336 10.33 5.71 14.278 6.635l4.392-6.172c-2.457-3.202-6.85-7.06-12.053-10.474-5.572-3.664-11.066-6.2-14.878-7-2.205-.444-3.85-.31-4.643.54l-.193.23c-.02.04-.04.058-.058.097-.02.02-.02.038-.04.077s-.04.058-.058.096c-1.316 2.952 4.47 10.184 13.252 15.97z"/></g><path d="M315.6 116.918v16.954c0 4.918 6.85 8.892 15.264 8.892 8.435 0 15.265-3.974 15.265-8.892v-16.954H315.6z" class="I"/><path d="M341.66 140.16c2.766-1.6 4.488-3.84 4.488-6.288v-16.954H315.6v4.706c0 4.88 2.98 9.258 7.506 11.09l18.554 7.445z" class="J"/><path d="M307.086 115.916v.29a5.31 5.31 0 0 0 5.321 5.304h3.5c1.18 4.745 5.475 8.275 10.622 8.275h8.667c5.127 0 9.44-3.51 10.602-8.275h3.5a5.31 5.31 0 0 0 5.321-5.304v-.29a5.31 5.31 0 0 0-5.321-5.304h-3.172v-4.186a8.89 8.89 0 0 0-7.623-8.795c-.948 1.582-3.81 5.362-9.654 5.15-2.747-.097-5.3-.618-7.4-1.235a4.59 4.59 0 0 0-5.707 3.221 9.3 9.3 0 0 0-.154 1.64v4.185h-3.173a5.34 5.34 0 0 0-5.321 5.324z" class="I"/><path d="M313.16 110.592h2.438v-4.648a4.65 4.65 0 0 1 .155-1.176c.638-2.4 3.173-3.954 5.707-3.222 2.1.618 4.643 1.138 7.4 1.235 5.842.212 8.706-3.568 9.654-5.15a8.89 8.89 0 0 1 7.622 8.795v4.186h3.037s3.483-12.557.87-16.106c-2.573-3.5-5.668-1.967-5.668-1.967s1.857-10.454-8.513-10.26c-10.35.193-23.815 12.17-24.802 14.37-1.548 3.376 2.1 13.945 2.1 13.945zm1.26 6.8a.48.48 0 0 0 .483-.482c0-2.314-1.896-4.205-4.217-4.205a.483.483 0 1 0 0 .965 3.24 3.24 0 0 1 3.25 3.24.48.48 0 0 0 .484.482zm32.85 0a.48.48 0 0 0 .484-.482 3.24 3.24 0 0 1 3.25-3.24.483.483 0 1 0 0-.965c-2.322 0-4.218 1.9-4.218 4.205a.48.48 0 0 0 .484.482zM320.474 106.9c.097 0 .193-.04.3-.097.097-.077 2.593-1.832 5.785-.5a.5.5 0 0 0 .638-.27c.097-.25-.02-.52-.27-.637-3.714-1.524-6.597.52-6.713.617-.213.155-.27.463-.097.676.078.135.213.212.368.212zm20.972 0a.49.49 0 0 0 .387-.193c.154-.212.116-.52-.097-.675-.116-.096-3.018-2.14-6.713-.617a.49.49 0 0 0-.271.636c.096.25.387.367.638.27 3.212-1.33 5.746.482 5.785.502.077.038.174.077.27.077zm-11.802 16.24c.755 0 1.625-.154 2.612-.52a.49.49 0 0 0 .3-.617.48.48 0 0 0-.619-.289c-4.063 1.504-5.398-1.158-5.456-1.273-.116-.232-.406-.347-.638-.232s-.348.405-.232.637c.02.038 1.122 2.295 4.043 2.295zm1.374-3.626l1.335-.04a.484.484 0 1 0-.077-.964c-1.142.077-2.902 0-2.922 0-.27-.02-.483.193-.503.463s.194.482.465.5l1.702.04zm-7.428-5.054c-.534 0-.967-.726-.967-1.62s.433-1.62.967-1.62.967.725.967 1.62-.433 1.62-.967 1.62zm13.87 0c-.534 0-.967-.726-.967-1.62s.433-1.62.967-1.62.968.725.968 1.62-.433 1.62-.968 1.62z" class="J"/><g class="B"><path d="M335.158 118.8h6.094c1.432 0 2.612-1.176 2.612-2.604V110.1c0-1.428-1.18-2.604-2.612-2.604h-6.094c-1.432 0-2.612 1.176-2.612 2.604v6.075a2.47 2.47 0 0 0 .735 1.813c.503.52 1.16.8 1.877.8zm6.094-10.32a1.64 1.64 0 0 1 1.645 1.64v6.075a1.64 1.64 0 0 1-1.645 1.64h-6.094a1.61 1.61 0 0 1-1.18-.502c-.3-.308-.464-.713-.464-1.138V110.1a1.64 1.64 0 0 1 1.644-1.64h6.094zm-21 10.32h6.094c1.432 0 2.612-1.176 2.612-2.604V110.1c0-1.428-1.18-2.604-2.612-2.604h-6.094c-1.43 0-2.6 1.176-2.6 2.604v6.075c0 1.428 1.18 2.604 2.6 2.604zm6.094-10.32a1.64 1.64 0 0 1 1.645 1.64v6.075a1.64 1.64 0 0 1-1.645 1.64h-6.094a1.64 1.64 0 0 1-1.644-1.64V110.1a1.64 1.64 0 0 1 1.644-1.64h6.094z"/><path d="M328.464 111.518h4.547v.964h-4.547v-.964z"/></g><path d="M339.782 196.848h-21.146c-2.244 0-4.063-1.813-4.063-4.05V181.6c0-2.237 1.82-4.05 4.063-4.05h21.146c2.244 0 4.062 1.813 4.062 4.05v11.207c0 2.237-1.818 4.05-4.062 4.05zm-21.146-18.15c-1.606 0-2.902 1.293-2.902 2.893v11.207c0 1.6 1.296 2.893 2.902 2.893h21.146c1.605 0 2.902-1.293 2.902-2.893V181.6c0-1.6-1.297-2.893-2.902-2.893h-21.146zm11.104 13.058h-7.158a2.07 2.07 0 0 1-2.071-2.064v-4.995a2.07 2.07 0 0 1 2.071-2.064h7.158a2.07 2.07 0 0 1 2.07 2.064v4.995a2.07 2.07 0 0 1-2.07 2.064zm6.966-.136l-2.206-1.466a2.23 2.23 0 0 1-.967-1.851v-2.2a2.23 2.23 0 0 1 .967-1.852l2.206-1.465c.522-.348 1.2.038 1.2.694v7.464c.02.637-.677 1.023-1.2.675z" class="D"/><path d="M35.83 259.978h513.6a.57.57 0 1 0 0-1.158H35.83a.57.57 0 1 0 0 1.158z" class="C"/><path d="M384.065 262.773V500.9h13.485v-45.326c0-4.224 3.443-7.658 7.68-7.658h96.52c4.237 0 7.68 3.434 7.68 7.658V500.9h13.485V262.773h-138.85z" class="B"/><path d="M383.485 501.48h14.645v-45.905c0-3.896 3.192-7.078 7.1-7.078h96.52c3.908 0 7.1 3.182 7.1 7.078v45.905h14.645V262.195h-140V501.48zm13.484-1.157h-12.323v-236.97h137.688v236.97H510.01v-44.748c0-4.532-3.715-8.236-8.26-8.236h-96.52c-4.546 0-8.26 3.704-8.26 8.236v44.748z" class="C"/><path d="M383.66 262.773v63.187l139.256 114.318-.02-177.505H383.66z" fill="#d0f0e4"/><path d="M404.824 331.92h97.313a7.85 7.85 0 0 0 7.854-7.831v-43.185c0-4.32-3.52-7.83-7.854-7.83h-97.313c-4.334 0-7.855 3.51-7.855 7.83V324.1c0 4.32 3.52 7.83 7.855 7.83zm97.313-57.7c3.695 0 6.693 3 6.693 6.674V324.1c0 3.684-2.998 6.674-6.693 6.674h-97.313c-3.695 0-6.694-3-6.694-6.674v-43.185c0-3.684 3-6.674 6.694-6.674h97.313z" class="C"/><path d="M428.737 364.054h47.9l1.993-13.675H430.7l-1.973 13.675z" class="E"/><path d="M403.18 342.5c5.978 0 10.814 4.822 10.814 10.782v10.782h40.763v-10.782c0-5.96-4.836-10.782-10.814-10.782H403.18z" class="B"/><path d="M413.414 364.633h41.924v-11.36c0-6.27-5.108-11.36-11.395-11.36H403.18v1.157c5.65 0 10.234 4.572 10.234 10.204v11.36zm40.763-1.157h-39.602v-10.203c0-4.475-2.612-8.352-6.385-10.204h35.753c5.65 0 10.234 4.572 10.234 10.204v10.203z" class="C"/><path d="M393.022 350.38h40.763c1.258-4.552 5.456-7.89 10.428-7.89H403.45c-4.972 0-9.15 3.337-10.428 7.89z" class="B"/><path d="M392.25 350.958h41.962l.116-.424c1.22-4.398 5.282-7.465 9.867-7.465v-1.157H403.43a11.45 11.45 0 0 0-10.989 8.313l-.193.733zm41.1-1.157h-39.544c1.45-3.993 5.32-6.732 9.634-6.732h35.753c-2.728 1.33-4.895 3.742-5.843 6.732zm-28.536 72.52h97.313a7.85 7.85 0 0 0 7.854-7.83v-43.186a7.85 7.85 0 0 0-7.854-7.83h-97.313c-4.334 0-7.855 3.5-7.855 7.83V414.5a7.85 7.85 0 0 0 7.855 7.83zm97.313-57.7c3.695 0 6.693 3 6.693 6.673v43.186c0 3.684-2.998 6.673-6.693 6.673h-97.313c-3.695 0-6.694-3-6.694-6.673v-43.186c0-3.684 3-6.673 6.694-6.673h97.313zm-68.602-62.413a.57.57 0 0 0 .58-.578c0-3.125 2.534-5.652 5.668-5.652h27.376c3.134 0 5.668 2.527 5.668 5.652a.57.57 0 0 0 .581.578c.33 0 .58-.25.58-.578a6.82 6.82 0 0 0-6.829-6.809h-27.376a6.82 6.82 0 0 0-6.829 6.809.57.57 0 0 0 .581.578zm0 90.403a.57.57 0 0 0 .58-.579c0-3.125 2.534-5.65 5.668-5.65h27.376c3.134 0 5.668 2.526 5.668 5.65a.581.581 0 1 0 1.161 0 6.82 6.82 0 0 0-6.829-6.809h-27.376a6.82 6.82 0 0 0-6.829 6.809.57.57 0 0 0 .581.579z" class="C"/><path d="M56.28 262.773h14.374V501.42H56.28V262.773z" class="B"/><g class="C"><path d="M55.7 502h15.535V262.195H55.7V502zm14.374-1.157H56.86v-237.5h13.214v237.5z"/><path d="M.58 502h299.986a.57.57 0 1 0 0-1.157H.58a.57.57 0 0 0-.58.578.57.57 0 0 0 .58.579z"/></g><path d="M482.094 226.666h8.686s12.4-51.517 23.293-53.196 11.453 18.15 11.453 18.15-.193-30.146-27.414-26.02c-27.24 4.128-16.018 61.065-16.018 61.065z" class="B"/><g class="C"><path d="M481.61 227.245h9.615l.116-.443c.04-.135 3.154-13.02 7.546-25.923 7.274-21.352 12.323-26.386 15.264-26.83 2.012-.31 3.792.154 5.262 1.388 5.127 4.244 5.514 16.086 5.514 16.202l1.16-.02c0-.155-.04-3.684-1.18-8.198-1.064-4.185-3.308-10.03-8.01-14.04-4.78-4.07-11.124-5.536-18.9-4.34-5.03.752-9.113 3.337-12.15 7.638-4.875 6.925-7.1 18.13-6.578 33.35.387 11.283 2.206 20.657 2.225 20.753l.116.463zm8.706-1.157h-7.758a147.4 147.4 0 0 1-2.128-20.117c-.348-10.28.484-24.264 6.365-32.616 2.844-4.05 6.675-6.46 11.376-7.155 7.41-1.12 13.465.25 17.973 4.09a20.05 20.05 0 0 1 3.482 3.896c-1.645-1.158-3.54-1.563-5.67-1.235-4.74.733-10.195 10.03-16.193 27.62-3.927 11.554-6.848 23.126-7.448 25.518z"/><path d="M485.905 226.473a.58.58 0 0 0 .581-.579c.638-38.402 8.802-51.96 15.535-56.55 5.107-3.49 9.576-1.9 9.615-1.9a.58.58 0 0 0 .754-.348c.116-.308-.038-.636-.348-.752-.213-.077-5.07-1.794-10.68 2.025-4.334 2.97-7.874 8.4-10.505 16.202-3.386 10.03-5.243 23.917-5.533 41.295 0 .328.25.598.58.598z"/></g><path d="M458.433 225.895h40.802v33.117h-40.802v-33.117z" class="F"/><path d="M449.843 242.463c2.592 1.12 5.688.984 8.57-.27 2.13-.926 4.14-2.45 5.766-4.533 2.244-2.893 3.753-6.847 3.753-11.765 0-11.92 9.518-19.404 13.426-3.626a44.24 44.24 0 0 1 .736 3.626v-.116a.49.49 0 0 0-.02-.154v-.077c-.077-.984-.367-3.896-1.257-7.407-.658-2.604-1.645-5.497-3.115-8.178-.735-1.33-1.587-2.604-2.593-3.742-2.592-2.97-6.152-5.053-11.008-5.053-8.938 0-15.477 10.493-17.973 20.946-2.186 9.085-1.296 18.17 3.715 20.35z" class="B"/><g class="C"><path d="M453.654 243.794c1.645 0 3.367-.366 4.992-1.08 2.302-1.003 4.372-2.623 5.997-4.706 2.535-3.26 3.87-7.464 3.87-12.113 0-5.44 2.4-11.572 5.978-11.997 2.593-.308 4.876 2.797 6.307 8.506.29 1.196.523 2.353.736 3.588l1.16-.097v-.115c0-.04 0-.135-.02-.232v-.058c-.077-1.08-.387-3.973-1.277-7.503-.793-3.124-1.857-5.92-3.173-8.313-.832-1.485-1.702-2.758-2.67-3.838-3.038-3.49-6.888-5.246-11.454-5.246-9.286 0-16 10.743-18.533 21.4-1.123 4.687-1.432 9.297-.852 12.98.64 4.146 2.34 6.905 4.895 8.023 1.238.54 2.612.8 4.043.8zm21.185-31.072c-.174 0-.33.02-.484.038-3.87.463-7.003 6.365-7.003 13.155 0 4.397-1.258 8.35-3.637 11.418-1.5 1.93-3.425 3.433-5.534 4.36-2.766 1.196-5.726 1.292-8.106.27-4.333-1.9-5.707-9.972-3.385-19.673 1.296-5.46 3.598-10.493 6.46-14.177 3.23-4.147 7.004-6.326 10.95-6.326 4.2 0 7.758 1.64 10.564 4.86.91 1.042 1.74 2.218 2.515 3.646.967 1.774 1.8 3.76 2.476 5.96-.33-.54-.658-1.022-1.006-1.446-1.374-1.678-2.767-2.083-3.81-2.083z"/><path d="M451.913 243.408c.3 0 .542-.212.58-.52 2.824-26.443 9.267-34.62 14.16-36.82 4.373-1.968 8.068.598 8.107.617.25.193.62.116.812-.135s.116-.617-.135-.8c-.174-.116-4.276-2.97-9.248-.733-3.3 1.485-6.152 4.84-8.493 10-2.94 6.462-5.07 15.797-6.346 27.736-.038.3.194.598.523.637 0 .02.02.02.038.02zm74.194-51.788c0 3.183.368 15.354-11.28 15.913S502.02 190.56 502.02 190.56s5.726-15.508 12.053-17.1c10.698-2.68 12.033 18.15 12.033 18.15zm-58.175 34.276h14.162c-3.27-20.426-14.162-12.75-14.162 0z"/></g><path opacity=".4" d="M227.437 75.875v127.318c0 6.847 5.57 12.383 12.42 12.383H386.02c9.17 12.595 28.072 12.653 37.32 0l.02-.02a12.39 12.39 0 0 0 9.016-4.88l-3.367-2.893-167.697-144.29h-21.455c-6.85 0-12.42 5.555-12.42 12.383zm222.406 167.167c2.574 1.158 5.688.984 8.57-.27v16.24h30.122L454.003 229.3l-8.493-7.195c-2.476 10.53-1.103 18.44 4.333 20.927z" class="B"/><path d="M193.33 328.738v107.356h24.88l38.538-107.356H193.33z" class="G"/><path d="M256.747 328.738H193.33v34.467l55.873-13.462 7.545-21.005z" class="H"/><g class="B"><path d="M192.75 436.672h25.866l16.502-45.943-1.354.732c-.04.02-3.25 1.736-9.8 2.585-6.036.8-16.25.964-30.5-2.642l-.715-.174v45.442zm25.053-1.157H193.9v-42.8c14.123 3.5 24.26 3.28 30.316 2.488 4.392-.578 7.294-1.523 8.822-2.14l-15.245 42.453zm3.297-32.597c1.877 0 3.405-1.524 3.405-3.394s-1.528-3.395-3.405-3.395-3.405 1.524-3.405 3.395 1.53 3.394 3.405 3.394zm0-5.632c1.24 0 2.245 1.003 2.245 2.238s-1.006 2.237-2.245 2.237-2.244-1.003-2.244-2.237 1.006-2.238 2.244-2.238z"/><use xlink:href="#C"/><use xlink:href="#C" x="-10.021" y="-10.086"/><path d="M201.6 422.573c1.876 0 3.405-1.524 3.405-3.395s-1.53-3.395-3.405-3.395-3.405 1.524-3.405 3.395 1.528 3.395 3.405 3.395zm0-5.633c1.238 0 2.244 1.003 2.244 2.238s-1.006 2.237-2.244 2.237-2.244-1.003-2.244-2.237 1.006-2.238 2.244-2.238zm16.686.502c1.876 0 3.405-1.524 3.405-3.395s-1.53-3.395-3.405-3.395-3.405 1.524-3.405 3.395 1.528 3.395 3.405 3.395zm0-5.632c1.238 0 2.244 1.003 2.244 2.237s-1.006 2.237-2.244 2.237-2.245-1.003-2.245-2.237 1.006-2.237 2.245-2.237zm-4.606 21.06c1.877 0 3.405-1.523 3.405-3.394s-1.528-3.395-3.405-3.395-3.405 1.524-3.405 3.395 1.53 3.394 3.405 3.394zm0-5.632c1.238 0 2.244 1.003 2.244 2.238s-1.006 2.237-2.244 2.237-2.244-1.003-2.244-2.237 1.006-2.238 2.244-2.238z"/></g><path d="M181.567 456.114l17.063 35.316c2.42 5.7 8 9.393 14.22 9.393h21.765c5.57 0 8.957-5.632 6.83-10.763l-21.88-52.617c-1.22-3.2-3.366-5.863-6.055-7.734-2.71-1.87-5.96-2.932-9.383-2.932-4.76 0-9.48 3.22-12.614 6.8l-7.584 8.158c-3.502 3.974-4.41 9.548-2.36 14.39z" class="D"/><path d="M181.566 456.113l17.064 35.316a15.44 15.44 0 0 0 14.22 9.393h23.138c2.147 0 3.366-1.33 4.082-3.163h-5.146c-6.2 0-11.8-3.703-14.22-9.393l-19.675-40.9c-1.838-3.82-5.727-6.268-9.983-6.268-5.552 0-9.77 4.05-10.544 9.18-.077 1.967.27 3.954 1.064 5.844z" class="B"/><path d="M212.85 501.4h23.138c2.148 0 3.715-1.196 4.624-3.53.077-.173.04-.385-.058-.54-.116-.154-.3-.25-.484-.25h-5.146c-5.978 0-11.356-3.55-13.678-9.046 0 0 0-.02-.02-.02l-19.676-40.91a11.72 11.72 0 0 0-10.505-6.596c-5.59 0-10.273 4.07-11.124 9.682v.058a14.38 14.38 0 0 0 1.103 6.095s0 .02.02.02l17.064 35.297c2.515 5.92 8.3 9.74 14.742 9.74zm26.31-3.163c-.735 1.37-1.76 2.006-3.173 2.006H212.85c-5.978 0-11.357-3.55-13.678-9.046 0 0 0-.02-.02-.02l-17.063-35.297c-.735-1.774-1.084-3.645-1.006-5.555.774-5.015 4.953-8.66 9.963-8.66a10.57 10.57 0 0 1 9.461 5.941l19.675 40.9c2.515 5.92 8.3 9.74 14.742 9.74h4.237z" class="D"/><path d="M185.494 440.027c2.05-1.118 4.527-1.928 6.694-1.928 4.16 0 8.01 2.41 9.81 6.152l20.37 42.356c2.593 6.115 8.6 10.07 15.265 10.07h3.753c.194-.367.33-.753.464-1.158h-4.217c-6.2 0-11.782-3.684-14.2-9.373l-.02-.02-20.39-42.375c-1.993-4.147-6.25-6.81-10.853-6.81-1.47 0-3.23.483-4.74 1.003l-1.935 2.083z" class="B"/><path d="M256.747 328.738l7.023 91.578s14.142 15.7 30.238 6.018l24.493-112.89c4.604-21.236-9.944-41.893-31.554-44.767l-30.2 60.062z" class="G"/><g class="B"><path d="M283.116 430.827c3.463 0 7.274-.868 11.182-3.22l.213-.135 7.7-36.3-.93.3c-18.32 5.478-39.33.04-39.544-.02l-.793-.212 2.244 30.108.136.154c.154.154 3.675 4.03 9.267 6.77 2.805 1.35 6.442 2.565 10.524 2.565zm10.37-4.1c-6.423 3.78-13.272 3.935-20.353.483-4.798-2.353-8.125-5.67-8.802-6.385l-2.1-28.102c1.76.405 6.327 1.4 12.227 1.93 6.8.636 16.754.8 26.234-1.832l-7.216 33.907zm-9.654-16.682c1.877 0 3.405-1.524 3.405-3.395s-1.528-3.394-3.405-3.394-3.405 1.523-3.405 3.394 1.53 3.395 3.405 3.395zm0-5.632c1.238 0 2.245 1.003 2.245 2.237s-1.007 2.238-2.245 2.238-2.244-1.003-2.244-2.238 1.006-2.237 2.244-2.237z"/><path d="M265.878 405.735c1.877 0 3.405-1.524 3.405-3.395s-1.528-3.395-3.405-3.395-3.405 1.524-3.405 3.395 1.53 3.395 3.405 3.395zm0-5.632c1.24 0 2.245 1.003 2.245 2.237s-1.006 2.237-2.245 2.237-2.244-1.003-2.244-2.237 1.006-2.237 2.244-2.237zm28.788 1.81c1.876 0 3.405-1.523 3.405-3.394s-1.53-3.395-3.405-3.395-3.405 1.524-3.405 3.395 1.528 3.394 3.405 3.394zm0-5.632c1.238 0 2.244 1.003 2.244 2.238s-1.006 2.237-2.244 2.237-2.244-1.003-2.244-2.237 1.006-2.238 2.244-2.238zm-8 29.108c1.877 0 3.405-1.524 3.405-3.395s-1.528-3.394-3.405-3.394-3.405 1.523-3.405 3.394 1.53 3.395 3.405 3.395zm0-5.632c1.238 0 2.244 1.003 2.244 2.237s-1.006 2.238-2.244 2.238-2.244-1.003-2.244-2.238 1.006-2.237 2.244-2.237zm-13.174-.002c1.876 0 3.405-1.524 3.405-3.395s-1.53-3.394-3.405-3.394-3.405 1.524-3.405 3.394 1.528 3.395 3.405 3.395zm0-5.632c1.238 0 2.244 1.003 2.244 2.237s-1.006 2.238-2.244 2.238-2.244-1.003-2.244-2.238 1.006-2.237 2.244-2.237z"/></g><path d="M245.12 427.067l18.65 74.354h5.88l.793-.038c4.45-.405 8.203-4.147 9.15-8.564l14.433-66.524c-16.097 9.702-30.258-5.998-30.258-5.998l-18.65 6.77z" class="D"/><path d="M244.172 465.218c-3.927-20.676-5.01-36.473 1.76-37.746s18.824 12.44 22.75 33.117 1.876 38.962-4.895 40.235c-6.77 1.292-15.7-14.9-19.617-35.606z" class="B"/><path d="M263.015 501.478c.29 0 .6-.02.9-.077 3.52-.656 5.978-5.4 6.926-13.347.9-7.657.35-17.455-1.567-27.562-1.818-9.548-5.513-18.44-10.408-25.036-4.488-6.037-9.364-9.238-13.02-8.544-3.52.656-5.262 4.63-5.36 12.15-.078 6.134.948 14.717 3.134 26.27 1.548 8.14 3.89 15.797 6.77 22.142 2.844 6.27 5.96 10.667 8.996 12.73 1.238.83 2.457 1.273 3.637 1.273zm-16.173-73.505c3.095 0 7.255 3.047 11.066 8.178 4.798 6.46 8.416 15.18 10.215 24.553 1.896 10 2.457 19.674 1.567 27.215-.87 7.29-3.057 11.785-5.997 12.344-1.123.212-2.36-.135-3.676-1.022-5.94-4.03-12.227-18.053-15.265-34.12-2.186-11.457-3.192-19.982-3.114-26.038.077-6.8 1.567-10.493 4.41-11.033.25-.058.522-.077.793-.077z" class="D"/><path d="M271.393 460.262c2.03 10.724 2.63 21.08 1.663 29.182-.696 5.825-2.166 9.972-4.18 11.978h.774c.27 0 .523-.02.794-.04 1.818-2.392 3.114-6.403 3.772-11.804.987-8.197.387-18.7-1.683-29.53-1.954-10.262-5.9-19.886-11.144-27.12-3.134-4.32-6.423-7.35-9.42-8.718l-1.74.58c6.906 2.044 17.392 15.623 21.165 35.47z" class="B"/><path d="M286.946 268.657l-88.258-9.065-88.22 24.67.755 11.688c1.2 18.44 17.14 32.79 35.674 32.79h109.83l30.22-60.08z" class="F"/><g class="B"><path d="M150.786 321.22h109.83a.579.579 0 1 0 0-1.158h-109.83c-8.396 0-17.2-4.417-24.164-12.15-6.597-7.33-10.543-16.5-10.543-24.495a.581.581 0 1 0-1.161 0c0 8.293 4.063 17.744 10.834 25.286 7.197 7.946 16.3 12.518 25.034 12.518zm8.648-9.646h105.632a.579.579 0 1 0 0-1.158H159.434c-7.332 0-14.916-3.433-21.32-9.682-6.017-5.864-10.234-13.424-11.57-20.754a.59.59 0 0 0-.677-.463c-.3.058-.522.367-.464.675 2.727 14.833 17.373 31.382 34.03 31.382zm9.306-9.837h101.936a.579.579 0 1 0 0-1.158H168.74c-13.93 0-26.02-12.498-30.335-24.244-.116-.3-.445-.463-.736-.347-.3.115-.464.443-.348.733 2.4 6.538 6.733 12.7 12.227 17.32 5.978 5.034 12.614 7.696 19.192 7.696zm5.03-10.607h101.936a.579.579 0 1 0 0-1.158H173.77c-9.596 0-19.656-6.23-26.273-16.24a.59.59 0 0 0-.812-.173.59.59 0 0 0-.174.81c6.848 10.338 17.276 16.76 27.26 16.76zm4.836-9.646h101.937a.579.579 0 1 0 0-1.158H178.606c-7.4 0-14.838-3.394-20.97-9.547-.232-.23-.6-.23-.813 0-.232.232-.232.598 0 .8 6.346 6.384 14.085 9.895 21.784 9.895zm5.224-9.836h101.936a.579.579 0 1 0 0-1.158H183.83c-4.353 0-8.725-1.234-13.02-3.645-.27-.154-.64-.058-.794.212a.59.59 0 0 0 .213.791c4.47 2.527 9.054 3.8 13.6 3.8z"/><path d="M256.94 329.317a.57.57 0 0 0 .522-.327l30.2-60.082c.135-.3.02-.636-.252-.77a.59.59 0 0 0-.773.25l-30.2 60.082c-.136.3-.02.636.25.77a.39.39 0 0 0 .252.077zM105.632 203.753c8.318 2.353 16.502 1.66 17.373-.868.812-2.4-2.864-6.538-10.312-9.277l-1.14-.405a33.23 33.23 0 0 0-6.598-1.485c-6.248-.8-11.337.328-11.975 2.218-.87 2.527 3.85 7.33 12.653 9.817z"/></g><path d="M115.537 205.78c4.218 0 7.4-.945 8.03-2.7 1.045-3.086-3.54-7.387-10.66-10l-1.14-.405h-.02c-2.186-.733-4.45-1.235-6.713-1.505-6.404-.8-11.82.31-12.594 2.604-.27.752-.135 1.678.368 2.642 1.625 3.086 6.597 6.21 12.672 7.928 3.502.964 7.042 1.446 10.06 1.446zm-14.548-13.733c1.18 0 2.476.077 3.888.25a32.77 32.77 0 0 1 6.481 1.466l1.122.405c3.367 1.234 6.23 2.874 8.048 4.63 1.53 1.466 2.245 2.932 1.916 3.915-.64 1.87-8.087 2.913-16.657.502-4.74-1.33-10.273-4.128-11.957-7.35-.348-.675-.464-1.273-.31-1.736.348-1.022 3.095-2.083 7.468-2.083z" class="C"/><path d="M110.894 259.997h3.192l8.6-57.824c-.406-2.566-4.43-6.192-11.53-8.545-3.54-1.176-7.062-1.697-10.06-1.755l-13.02 35.586c-5.804 15.797 5.94 32.538 22.83 32.538z" class="G"/><path d="M97.835 200.823c2.03 1.273 4.663 2.45 7.797 3.336 7.197 2.026 14.49 1.196 16.83-.54v-.038l.213-1.408c-.406-2.566-4.43-6.192-11.53-8.545-3.54-1.176-7.062-1.697-10.06-1.755l-3.25 8.95z" class="H"/><path d="M214.514 213.6l10.156 25.2c5.01 12.44 17.122 20.6 30.587 20.6h136.528v-12.46c0-3.01-1.857-5.7-4.682-6.77l-14.026-5.304a11.18 11.18 0 0 0-3.966-.733H353.19l-90.116-9.066-15.554-35.508-33.005 24.05z" class="G"/><path d="M391.205 252.205a.57.57 0 0 0 .58-.579 6 6 0 0 0-3.908-5.65l-10.583-3.993a.59.59 0 0 0-.754.328c-.116.288.04.636.33.752l10.582 3.993c1.916.733 3.173 2.526 3.173 4.57a.57.57 0 0 0 .581.579zm0 6.365a.57.57 0 0 0 .58-.579 6 6 0 0 0-3.908-5.65l-10.583-3.993c-.3-.115-.638.04-.754.328s.04.637.33.752l10.582 3.993c1.916.733 3.173 2.527 3.173 4.57a.57.57 0 0 0 .581.579zm-3.54.83a.58.58 0 0 0 .542-.386.55.55 0 0 0-.348-.732l-10.583-3.8c-.3-.116-.638.038-.735.347a.55.55 0 0 0 .348.733l10.583 3.8a.66.66 0 0 0 .193.038z" class="H"/><path d="M378.184 237.007s-9.905-25.21-13.078-24.785 8.783 23.165 8.783 23.165l4.295 1.62z" class="F"/><path d="M247.52 189.578l2.283 5.19-29.233 33.85-6.055-15.006 33.005-24.033z" class="H"/><path d="M122.463 203.64l-11.995 80.623 88.2-24.67 15.844-46 40.9-29.8-14.355-17.05c-12.808-15.218-31.71-24.013-51.636-24.013H161.08c-24.648 0-47.34 13.424-59.162 34.987l-9.19 15.855s2.767-4.05 17.682.02c13.137 3.607 12.053 10.05 12.053 10.05z" class="C"/><path d="M214.513 213.803c.04 0 .097 0 .136-.02.3-.077.503-.386.425-.694l-4.585-19.828c-.077-.3-.387-.502-.696-.425s-.503.386-.426.695l4.585 19.828a.56.56 0 0 0 .561.443zm-101.82 52.213c.27 0 .523-.193.58-.483l14.916-92.446a.577.577 0 1 0-1.141-.173L112.13 265.36a.56.56 0 0 0 .484.656h.077zm-2.03 18.824c.058 0 .096 0 .154-.02l88.027-25.036a.59.59 0 0 0 .406-.713c-.097-.3-.406-.482-.716-.405L110.507 283.7a.59.59 0 0 0-.406.714.6.6 0 0 0 .56.424z" class="B"/><g class="G"><path d="M193.93 129.843v12.96l-22.945-.192v-22.876l22.945 10.107z"/><path d="M169.127 115.745v.347c0 3.472 2.63 6.288 6.113 6.288h1.354c.87 3.433 8.6 7.445 14.104 7.445h6.404c7.003 0 12.362-6.27 11.22-13.174l-.3-1.87 1.896-1.06c1.083-.618 1.393-2.026.638-3.03l-4.1-5.4-.9-5.324c-.716-4.378-3.598-7.947-7.43-9.702-1.51 16.954-16.522 18.96-20.488 19.19h-2.205a6.3 6.3 0 0 0-6.307 6.288z"/></g><path d="M179.284 117.983c.33 0 .58-.25.58-.578a5.56 5.56 0 0 0-5.553-5.536.578.578 0 1 0 0 1.157c2.42 0 4.392 1.968 4.392 4.38a.57.57 0 0 0 .581.578zm20.97-8.353c-.545 0-.987-1.02-.987-2.276s.442-2.276.987-2.276.987 1.02.987 2.276-.442 2.276-.987 2.276zm-4.025-5.15a.58.58 0 0 0 .465-.232c2.573-3.55 4.972-3.356 5-3.356.33.04.6-.193.64-.52.038-.308-.194-.597-.523-.636-.116-.02-3.095-.25-6.055 3.82-.194.25-.136.617.135.8a.53.53 0 0 0 .329.116zm-18.6 4.977h-2.206a6.3 6.3 0 0 0-6.306 6.288v.347c0 3.47 2.63 6.288 6.113 6.288l1.5 1.04c6.268 4.012 14.935 19.8 12.807 30.957-2.4 12.556-13.368 15.353-23.506 13.424s-17.528-7.8-15.13-20.387c.27-1.485.716-2.97 1.277-4.436l-.503.173c-12.188 3.318-26.505 3.704-30.45-5.786s-3.057-18.883 8.802-23.782c6.888-2.854 16.25-2.835 23.506-.868-3.656-12.672 2.844-26.77 14.78-28.18 18.747-2.218 29.503 5.497 29.793 5.7.02 2.237-1.508 18.1-20.468 19.2z" class="H"/><path d="M151.676 143.75c.27 0 .522-.193.56-.463 2.05-10.705 10.834-16.607 10.93-16.664.155-.097.25-.3.25-.483s-.096-.366-.25-.482c-5.998-4.224-8.6-10.32-9.596-13.56-.097-.31-.426-.482-.716-.386-.31.097-.483.424-.387.714 1.006 3.28 3.56 9.296 9.383 13.694-2.186 1.64-8.938 7.387-10.756 16.935-.058.308.154.617.464.675.04.02.077.02.116.02z" class="B"/><g class="F"><path d="M147.787 112.426h5.126a.57.57 0 0 0 .581-.578v-5.112c0-2.99-2.438-5.42-5.437-5.42h-.27c-3 0-5.437 2.43-5.437 5.42v.27a5.28 5.28 0 0 0 1.567 3.819 5.45 5.45 0 0 0 3.87 1.601zm4.546-1.157h-4.546a4.19 4.19 0 0 1-3.038-1.273c-.793-.8-1.238-1.87-1.238-3v-.27a4.27 4.27 0 0 1 4.276-4.262h.27a4.27 4.27 0 0 1 4.276 4.262v4.533z"/><path d="M144.924 120.258c2.07 0 4.063-1.003 5.243-2.855l3.3-5.207c.174-.27.097-.637-.174-.8l-5.224-3.28c-1.393-.868-3.057-1.157-4.662-.8a6.21 6.21 0 0 0-3.87 2.72l-.3.482c-.9 1.388-1.16 3.047-.793 4.648a6.19 6.19 0 0 0 2.728 3.858l.483.308a6.45 6.45 0 0 0 3.289.907zm7.236-8.197l-2.98 4.725c-1.47 2.315-4.585 3-6.945 1.543l-.484-.3a4.88 4.88 0 0 1-2.205-3.124 5 5 0 0 1 .658-3.781l.3-.482a4.9 4.9 0 0 1 3.134-2.199 5.04 5.04 0 0 1 3.792.656l4.72 2.97zm24.454 23.63l.406-.02a5.42 5.42 0 0 0 3.715-1.871l.174-.212c.948-1.08 1.412-2.47 1.315-3.896-.096-1.446-.754-2.777-1.857-3.722l-3.637-3.472a.51.51 0 0 0-.426-.154c-.155 0-.3.077-.406.192l-3.58 4.032c-.948 1.1-1.432 2.507-1.316 3.954s.774 2.758 1.877 3.703l.232.173c.948.83 2.186 1.293 3.502 1.293zm-.27-11.96l3.23 3.086c.87.753 1.393 1.794 1.47 2.95a4.25 4.25 0 0 1-1.025 3.067s0 .02-.02.02l-.174.213a4.28 4.28 0 0 1-2.902 1.465c-1.14.078-2.244-.3-3.114-1.022l-.233-.193c-.85-.733-1.373-1.755-1.47-2.893a4.37 4.37 0 0 1 1.025-3.105l3.212-3.588z"/><path d="M169.204 133.567c2.708 0 5.204-1.794 5.978-4.514l1.644-5.92a.59.59 0 0 0-.406-.714l-5.94-1.64c-1.587-.444-3.25-.232-4.682.56-1.432.8-2.476 2.122-2.92 3.704l-.155.56c-.445 1.58-.232 3.24.56 4.667.812 1.428 2.128 2.47 3.714 2.913l.562.154c.56.174 1.102.232 1.644.232zm4.856-4.822c-.755 2.642-3.52 4.224-6.172 3.49l-.56-.154c-1.296-.367-2.36-1.196-3.018-2.354s-.812-2.507-.464-3.8l.155-.56c.367-1.292 1.2-2.353 2.36-3.008s2.515-.81 3.81-.463l5.38 1.485-1.5 5.362z"/></g><g class="E"><path d="M261.12 501.403c.038 0 .077 0 .116-.02a.57.57 0 0 0 .445-.695l-33.7-157.252a.584.584 0 0 0-1.141.251l33.72 157.253a.58.58 0 0 0 .562.463zm-153.65 0c.27 0 .503-.193.56-.463l33.702-157.253c.058-.3-.136-.617-.445-.694a.61.61 0 0 0-.697.443L106.9 500.7c-.058.3.135.617.445.695.058.02.096.02.135.02z"/><path d="M115.402 466.49h138.25a.57.57 0 1 0 0-1.157h-138.25a.57.57 0 1 0 0 1.157z"/></g><path d="M114.648 343.57h139.314c1.76 0 3.192-1.428 3.192-3.183v-8.467c0-1.755-1.432-3.183-3.192-3.183H114.648a3.19 3.19 0 0 0-3.192 3.183v8.467a3.19 3.19 0 0 0 3.192 3.183z" class="B"/><path d="M114.648 344.15h139.314a3.76 3.76 0 0 0 3.772-3.761v-8.468a3.76 3.76 0 0 0-3.772-3.761H114.648a3.76 3.76 0 0 0-3.773 3.761v8.468a3.76 3.76 0 0 0 3.773 3.761zm139.314-14.833c1.43 0 2.61 1.177 2.61 2.604v8.468c0 1.427-1.18 2.604-2.61 2.604H114.648c-1.432 0-2.612-1.177-2.612-2.604v-8.468c0-1.427 1.18-2.604 2.612-2.604h139.314z" class="D"/><defs ><path id="B" d="M254.445 86.85h26.29a.57.57 0 1 0 0-1.157h-26.29a.57.57 0 1 0 0 1.157z"/><path id="C" d="M207.645 412.002c1.877 0 3.405-1.523 3.405-3.394s-1.528-3.395-3.405-3.395-3.405 1.524-3.405 3.395 1.528 3.394 3.405 3.394zm0-5.632c1.238 0 2.244 1.003 2.244 2.238s-1.006 2.237-2.244 2.237-2.244-1.003-2.244-2.237 1.006-2.238 2.244-2.238z"/></defs></svg>