<svg width="390" height="388" viewBox="0 0 390 388" fill="none" xmlns="http://www.w3.org/2000/svg">
<path d="M303.611 55.7705C280.477 55.7705 261.723 74.4444 261.723 97.4798C261.723 120.515 280.477 139.189 303.611 139.189C326.746 139.189 345.5 120.515 345.5 97.4798H303.611V55.7705Z" fill="#D7DADD"/>
<path d="M261.723 97.4795C261.723 120.515 280.477 139.189 303.611 139.189C326.746 139.189 345.5 120.515 345.5 97.4795" stroke="#1E212C" stroke-width="1.5"/>
<path d="M345.5 97.4795H303.611L337.325 122.235C342.647 115.071 345.513 106.391 345.5 97.4795Z" fill="#1E212C"/>
<path d="M303.611 43.1562V97.4798H358.168C358.168 83.0723 352.42 69.2549 342.189 59.0672C331.958 48.8796 318.081 43.1562 303.611 43.1562Z" fill="#00F0B5"/>
<path d="M303.611 97.4804H358.168" stroke="#1E212C" stroke-width="1.5"/>
</svg>
