<svg xmlns="http://www.w3.org/2000/svg" width="495" height="332" fill="none" xmlns:v="https://vecta.io/nano"><g clip-path="url(#A)"><g fill="#fff"><path d="M117.734 303.187l-.468.177 10.792 28.695.468-.177 35.14-13.235-10.792-28.695-.468.176-34.672 13.06z" stroke="#424551"/><path d="M163.158 318.723l-34.67 13.06a.4.4 0 0 1-.299-.013c-.095-.043-.17-.12-.207-.216l-10.44-27.76a.39.39 0 0 1 .009-.3c.043-.095.122-.17.22-.206l34.672-13.06c.097-.036.205-.033.3.01a.39.39 0 0 1 .205.22l10.44 27.76c.034.098.03.205-.013.3a.4.4 0 0 1-.217.207zm-34.58 12.185l33.938-12.782-10.164-27.024-33.937 12.782 10.163 27.024z"/></g><g fill="#424551"><path d="M125.917 325.39c-.072.027-.15.032-.226.015s-.143-.056-.197-.112-.088-.126-.102-.202-.004-.154.027-.225l7.067-15.638a3.68 3.68 0 0 1 .891-1.219c.378-.34.822-.6 1.305-.76s.993-.22 1.5-.172a3.71 3.71 0 0 1 1.443.443l13.065 7.198a.4.4 0 0 1 .196.519.38.38 0 0 1-.097.121.4.4 0 0 1-.137.072.38.38 0 0 1-.154.012c-.052-.006-.1-.023-.146-.05l-13.076-7.175c-.35-.198-.735-.32-1.134-.356s-.802.01-1.18.14a2.89 2.89 0 0 0-1.029.599 2.87 2.87 0 0 0-.699.965l-7.09 15.647c-.05.086-.13.15-.225.176z"/><path d="M159.753 309.643c-.05.02-.106.03-.16.026a.39.39 0 0 1-.157-.043l-6.755-3.415c-.357-.18-.747-.285-1.146-.306a2.87 2.87 0 0 0-2.177.822c-.287.28-.512.62-.66.993l-2.083 5.13a.39.39 0 0 1-.084.128.38.38 0 0 1-.126.087c-.047.02-.098.03-.15.032s-.102-.01-.15-.028a.39.39 0 0 1-.129-.083.4.4 0 0 1-.087-.127c-.02-.047-.03-.098-.032-.15s.01-.102.028-.15l2.06-5.12a3.7 3.7 0 0 1 .843-1.259c.364-.357.8-.635 1.276-.816h0a3.69 3.69 0 0 1 1.476-.217 3.7 3.7 0 0 1 1.442.386l6.752 3.407a.39.39 0 0 1 .168.151c.04.066.06.143.056.22s-.028.15-.073.214a.4.4 0 0 1-.18.137l.048-.018z"/></g><path d="M143.4 302.897a2.05 2.05 0 0 0 1.195-2.64c-.398-1.06-1.58-1.596-2.638-1.197a2.05 2.05 0 0 0-1.195 2.641c.398 1.06 1.58 1.595 2.638 1.196z" fill="#fff"/><path d="M143.534 303.24a2.44 2.44 0 0 1-1.42.098c-.472-.11-.902-.355-1.234-.71s-.553-.797-.633-1.275a2.46 2.46 0 0 1 .183-1.413 2.45 2.45 0 0 1 .937-1.072c.41-.256.89-.385 1.374-.37a2.46 2.46 0 0 1 1.348.457c.394.283.695.676.866 1.13a2.45 2.45 0 0 1-.059 1.871c-.267.59-.757 1.053-1.362 1.283h0zm-1.446-3.845a1.66 1.66 0 0 0-1.085 1.503c-.012.33.075.656.25.937s.427.503.727.64a1.67 1.67 0 0 0 .96.126c.326-.054.627-.204.868-.43a1.67 1.67 0 0 0 .481-.841 1.66 1.66 0 0 0-.068-.966c-.16-.403-.473-.726-.87-.9s-.846-.187-1.25-.035l-.012-.032z" fill="#424551"/></g><defs><clipPath id="A"><path fill="#fff" d="M0 0h495v332H0z"/></clipPath></defs></svg>