<svg width="390" height="388" viewBox="0 0 390 388" fill="none" xmlns="http://www.w3.org/2000/svg">
<g clip-path="url(#clip0)">
<rect width="191.886" height="205.201" rx="3" transform="matrix(-1 0 0 1 382.472 11.8877)" fill="white"/>
<path d="M190.586 11.8867V217.088H382.472" stroke="#1E212C" stroke-width="1.5"/>
<rect width="86.3115" height="15.1345" transform="matrix(-1 0 0 1 329.685 5.38184)" fill="#00F0B5"/>
<path d="M286.528 11.5574C283.294 11.5574 280.673 8.94703 280.673 5.72695C280.673 2.50687 283.294 -0.103516 286.528 -0.103516C289.762 -0.103516 292.384 2.50687 292.384 5.72695C292.384 8.94703 289.762 11.5574 286.528 11.5574Z" fill="#00F0B5"/>
<rect width="86.3115" height="15.1345" transform="matrix(-1 0 0 1 329.685 5.38184)" fill="#D7DADD"/>
<path d="M243.373 5.38086V20.5153H329.685" stroke="#1E212C" stroke-width="1.5"/>
<path d="M286.528 11.5574C283.294 11.5574 280.673 8.94703 280.673 5.72695C280.673 2.50687 283.294 -0.103516 286.528 -0.103516C289.762 -0.103516 292.384 2.50687 292.384 5.72695C292.384 8.94703 289.762 11.5574 286.528 11.5574Z" fill="#D7DADD"/>
<path d="M286.528 217.088V379.871" stroke="white" stroke-width="1.5"/>
<path d="M390.384 379.871H182.673" stroke="white" stroke-width="1.5"/>
<path d="M22.3254 371.628V359.095L33.9444 369.7L37.817 336.44L68.3159 358.131L72.1885 343.67L82.8386 354.275V336.922L95.9094 352.347L107.528 317.641L122.051 353.335L143.352 326.799L159.327 362.952V345.598L168.525 362.47L174.819 339.814L192.247 366.808L218.872 333.547L227.102 366.326L234.848 357.167L240.657 379.87H17.0004L15.0644 371.146L22.3254 371.628V371.628Z" fill="#00F0B5"/>
<path d="M253.266 379.871H2.45601" stroke="white" stroke-width="1.5"/>
<path d="M80.4772 148.341L135.612 144.731L149.891 200.808L182.674 378.746H138.053L143.25 369.473L80.4772 148.341V148.341Z" fill="#D7DADD"/>
<path d="M73.3025 368.929L70.5908 267.677L113.978 275.777L103.904 378.746H66.8239L73.3025 368.929V368.929Z" fill="#B3B7BC"/>
<path d="M86.601 270.666L113.978 275.777L112.769 288.128C89.988 285.068 74.2989 278.977 74.2989 278.977L86.601 270.666Z" fill="#1E212C"/>
<path d="M140.985 233.926C140.985 233.926 147.887 236.046 157.021 239.504L165.843 287.389C149.76 290.311 134.099 290.301 120.407 289.002L110.599 254.454L140.985 233.926Z" fill="#1E212C"/>
<path d="M140.985 149.445L195.283 261.556C195.283 261.556 130.884 295.305 66.824 277.08V160.983L140.985 149.445Z" fill="#00F0B5"/>
<path d="M120.783 37.677V45.9941C120.783 52.4252 116.374 58.0254 110.102 59.5603L96.8095 62.8134V30.2952L107.862 27.5903C110.974 26.8287 114.265 27.5338 116.788 29.5027C119.31 31.4716 120.783 34.4857 120.783 37.6769L120.783 37.677Z" fill="#D7DADD"/>
<path d="M120.783 45.9941C120.783 52.4252 116.374 58.0255 110.102 59.5604L96.8095 62.8135" stroke="#1E212C" stroke-width="1.5"/>
<path d="M107.24 44.3439C106.886 44.3439 106.599 44.0581 106.599 43.7056C106.599 43.3531 106.886 43.0674 107.24 43.0674C107.594 43.0674 107.881 43.3531 107.881 43.7056C107.881 44.0581 107.594 44.3439 107.24 44.3439Z" fill="#1E212C"/>
<path d="M117.086 44.3439C116.732 44.3439 116.445 44.0581 116.445 43.7056C116.445 43.3531 116.732 43.0674 117.086 43.0674C117.44 43.0674 117.727 43.3531 117.727 43.7056C117.727 44.0581 117.44 44.3439 117.086 44.3439Z" fill="#1E212C"/>
<path d="M114.198 47.5129V37.6768H119.146" stroke="#1E212C" stroke-width="1.5"/>
<path d="M106.033 37.6777H110.981" stroke="#1E212C" stroke-width="1.5"/>
<path d="M98.3887 42.7163V46.132C97.5001 46.132 96.6479 45.7805 96.0196 45.1549C95.3912 44.5292 95.0382 43.6806 95.0382 42.7958C95.0382 42.6935 95.0428 42.5922 95.0519 42.4922C95.2396 40.4205 98.3887 40.6362 98.3887 42.7163Z" fill="#E5E8ED"/>
<path d="M98.3887 46.1321C97.5001 46.1321 96.6479 45.7806 96.0196 45.1549C95.3912 44.5293 95.0382 43.6807 95.0382 42.7959" stroke="#1E212C" stroke-width="1.5"/>
<path d="M111.491 48.6621C110.625 49.5248 109.22 49.5248 108.354 48.6621" stroke="#1E212C" stroke-width="1.5" stroke-linecap="round" stroke-linejoin="round"/>
<path d="M114.197 47.5213L112.033 48.051" stroke="#1E212C" stroke-width="1.5" stroke-linecap="round"/>
<path d="M116.445 57.7473L116.825 57.9199C119.29 59.0401 122.162 58.8114 124.417 57.3152C126.672 55.8191 127.989 53.2684 127.9 50.5718C127.466 38.1644 124.535 20.9506 111.492 22.1826C111.492 22.1826 98.2413 19.1589 92.9309 31.3092C87.6206 43.4595 94.1344 49.3096 96.8093 50.6597" stroke="white" stroke-width="1.5"/>
<path d="M121.064 41.0435C121.064 41.0435 111.059 39.2962 109.923 32.6211C109.923 32.6211 104.966 40.8887 98.0491 41.6861" stroke="white" stroke-width="1.5"/>
<path d="M140.984 97.3198V149.446L66.8236 167.596V109.541C66.8236 88.9561 80.9372 71.0306 101.013 66.1174H101.013C110.641 63.7612 120.822 65.9426 128.625 72.0333C136.427 78.124 140.984 87.4479 140.984 97.3198L140.984 97.3198Z" fill="#D7DADD"/>
<path d="M195.283 261.557C195.283 261.557 130.884 295.306 66.824 277.081" stroke="#1E212C" stroke-width="1.5"/>
<path d="M86.7267 72.3955C86.7267 72.3955 50.3904 97.6958 50.254 135.373C50.0558 190.124 135.457 140.773 138.221 131.773L140.985 122.773C140.985 122.773 152.394 118.095 149.682 116.384C146.97 114.673 66.8244 131.623 66.8244 131.623" stroke="white" stroke-width="1.5"/>
<path d="M127.904 72.3955C127.904 72.3955 148.777 87.2219 157.364 125.923C157.364 125.923 171.375 106.596 176.346 99.1592C181.317 91.722 185.385 96.6721 185.385 96.6721C185.385 96.6721 191.171 88.1219 195.283 91.722C199.395 95.3221 188.395 157.063 148.249 164.444" stroke="white" stroke-width="1.5"/>
<path d="M144.832 121.093L228.923 79.8721" stroke="#00F0B5" stroke-width="1.5"/>
</g>
<defs>
<clipPath id="clip0">
<rect width="390" height="388" fill="white"/>
</clipPath>
</defs>
</svg>
