<svg xmlns="http://www.w3.org/2000/svg" width="120" height="64" fill="none" xmlns:v="https://vecta.io/nano"><path fill-rule="evenodd" d="M116.544 17.322c0-.06-.015-.156.07-.16.304-.012.43.105.43.334 0 .28-.18.363-.42.35l-.078-.524zM86.447 22.1c-2.508 0-3.72 1.947-3.72 6.012l3.633.13 3.634-.13c.001-2.55-.345-6.012-3.548-6.012zM75.04 25.96h-1.556l-.43-2.51c-.174-.908-2.166-1.687-3.55-1.687-2.5 0-4.024.953-4.024 2.812 0 1.384.735 2.077 2.38 2.424l3.548.78c3.506.778 5.495 2.118 5.495 5.668 0 5.017-4.63 7.353-9.087 7.353-2.248 0-4.5-.388-6.75-1.2l.304-6.1h1.687l.217 2.985c1.255 1.644 3.072 2.248 5.104 2.248 1.948 0 3.722-1.168 3.722-3.243 0-1.906-1.125-2.425-2.725-2.813l-3.72-.908c-3.028-.737-4.588-2.597-4.588-5.324 0-4.93 3.85-6.747 8.913-6.747 1.948 0 3.85.216 5.41.995l-.347 5.276zm-16.384 0H57.1l-.43-2.51c-.175-.908-2.165-1.687-3.55-1.687-2.51 0-4.024.953-4.024 2.812 0 1.384.735 2.077 2.38 2.424l3.547.78c3.506.778 5.496 2.118 5.496 5.668 0 5.017-4.63 7.353-9.086 7.353-2.05 0-4.096-.322-6.145-1v.395c-1.384-.044-2.55-.13-3.807-.13-1.21 0-2.422.087-3.936.13l-.215-.347.215-2.68-4.023 3.115c-.65.518-1.6.518-2.38.518-3.2 0-4.802-2.204-4.802-5.28 0-1.687.518-3.59 2-4.586 1.6-1.08 3.55-1.6 5.408-1.99l3.807-.777c0-3.03-1.256-5.106-4.5-5.106-.736 0-2.25.216-2.424.606l-.95 2.163-1.298-.303v-2.985l2.29-1.386c1.86-1.123 3.634-1.47 5.02-1.47 3.806 0 7.267 1.686 7.14 6.316l-.13 5.322c0 1.773.088 3.6.13 5.364.043 1.082.3 1.686 1.168 1.774l.745.073.25-5.047h1.687l.216 2.985c1.256 1.644 3.073 2.248 5.106 2.248 1.947 0 3.722-1.17 3.722-3.243 0-1.906-1.126-2.425-2.726-2.813l-3.72-.908c-3.03-.737-4.586-2.597-4.586-5.324 0-4.93 3.85-6.747 8.913-6.747 1.947 0 3.85.216 5.407.995l-.345 5.277zm-21.113 9.13v-5.104l-1.947.52c-2.293.65-3.98 1.126-3.98 3.938 0 1.815 1.038 2.595 2.336 2.595s3.072-1.126 3.59-1.947zM1.764 12.204v-1.6l6.75.13c2.985 0 5.45-.087 8.78-.13 3.98-.043 8.22.953 8.22 5.84 0 4.415-3.72 5.886-7.7 7.227 5.537.303 8.696 2.25 8.696 7.267 0 5.322-4.976 9.43-12.026 9.26l-6.1-.13c-1.817 0-3.59.087-5.193.13V39.2l1.386-.78c.692-.388.865-1.122.865-2.463V16.573c0-1.817-.042-2.985-.303-3.504-.215-.433-.647-.65-1.772-.736l-1.602-.128zm9.778.735v9.82h1.3c3.85 0 6.27-1.168 6.27-5.364 0-3.376-1.772-4.63-4.93-4.63-.865 0-1.732.042-2.64.173zm105.003 5.008c.135 0 .21-.01.265.056.038.047.092.166.145.292a2.33 2.33 0 0 0 .154.311l.415.067c-.07-.083-.102-.1-.133-.147-.048-.067-.1-.19-.137-.26-.065-.147-.15-.342-.323-.372.22-.04.408-.2.408-.438-.002-.063-.018-.125-.048-.18a.41.41 0 0 0-.124-.139c-.127-.08-.312-.07-.456-.07h-.638c.168.087.18.106.18.21v1.2l-.185.114.658.083c-.17-.09-.18-.126-.18-.213v-.513zm.2-1.3c.682 0 1.23.56 1.23 1.264 0 .694-.554 1.26-1.23 1.26-.672 0-1.22-.567-1.22-1.26 0-.7.544-1.264 1.22-1.264zm0-.236c-.802 0-1.455.674-1.455 1.503 0 .824.653 1.493 1.455 1.493s1.466-.67 1.466-1.493c0-.834-.66-1.503-1.466-1.503zM11.54 25v12.633c.866.174 1.515.174 2.337.174 4.63 0 6.143-2.727 6.143-6.534 0-4.845-2.767-6.272-7.18-6.272h-1.3zm85.897 10.296V24.1l-2.477.154c.344.887.53 1.906.53 3.048v2.248c-2.337.65-4.933.867-6.835.867h-5.666c0 4.197 2.378 7.31 6.877 7.31 1.43 0 3.288-.692 4.673-1.514l.52.65-.95 2.077c-2.597 1.384-4.37 1.86-6.922 1.86-6.316 0-9.82-3.806-9.82-9.993 0-3.55.476-6.75 4.1-8.912l2.035-1.21c1.08-.65 2.25-.995 3.545-.995 3.442 0 6.28 1.307 7.615 3.91v-.276l2.855-1.86v-2.596c0-1.342-.085-2.64-.172-3.98 1.904-.692 3.98-1.56 5.278-2.163l.607.43c-.347 1.73-.52 3.894-.52 5.886v2.51l4.93-.26-.055.453.43-.278v-2.596c0-1.342-.088-2.64-.172-3.98a72.45 72.45 0 0 0 5.277-2.163l.605.43c-.345 1.73-.517 3.894-.517 5.886v2.51l4.932-.26-.347 2.812h-4.585v10.297c0 2.208.735 2.813 2.68 2.813.9 0 1.387-.26 1.99-.562l.348.822-2.12 2.55c-.302.392-1.256.78-2.64.78-3.937 0-5.54-1.6-5.54-5.493V24.102l-2.767.172v-.172h-2.452V34.4c0 2.208.735 2.813 2.68 2.813.9 0 1.385-.26 1.992-.56l.345.822-2.12 2.55c-.304.392-1.254.78-2.64.78-3.94-.002-5.54-1.602-5.54-5.496zM3.06 45.797h112.978v3.608H3.06v-3.608zm0 5.927h112.978v1.674H3.06v-1.674z" fill="#707978"/></svg>