<svg xmlns="http://www.w3.org/2000/svg" width="120" height="64" fill="none" xmlns:v="https://vecta.io/nano"><path fill-rule="evenodd" d="M10.01 46.198l-.037-.098-6.51-33.505.122-.098.086-.073 56.683-5.01 56.902 5.206-7.68 34.1c-.108.227-.23.447-.367.658L59.22 57.55 11.083 46.966c-.44-.115-.823-.39-1.074-.768zm-6.657-36.15l57-5.048 57.39 5.243c1.048.085 2.17 1.5 1.938 2.524l-7.754 34.407c-.232 1.073-1.06 2.316-2.134 2.524L59.194 60l-48.66-10.693c-1.304-.28-2.67-1.426-2.914-2.72L1.023 12.766c-.22-1.17 1.158-2.62 2.33-2.72zm103.246 15.667l-2.67-3.658v-3.682c0-.853-.256-1.4-.67-1.634-.158-.073-.743-.232-1.743-.4v-2.085h7.498v2.085a4.98 4.98 0 0 0-1.829.317c-.34.232-.586.695-.586 1.317l.001 7.73zm0 2.426v3.865h-3.5L91.65 17.07l-.013.013a1.04 1.04 0 0 0-.219-.183c-.33-.232-1-.4-1.915-.548v-2.085l6.767-.012 10.328 13.887zm-14.68-8.39l2.67 3.512v4.792c0 .67.17 1.243.33 1.475.34.317 1.012.463 2.012.463v2.01h-7.425v-2.01c.83 0 1.414-.074 1.756-.305.414-.232.66-.695.66-1.402l-.001-8.535zM78.42 16.436v-2.17h9.998v2.17l-1.743.305c-.67.16-.927.695-.927 1.475v10.07c0 .622.17 1.013.5 1.317.34.244 1.085.4 2.17.4v2.01H78.42v-2.01c.83 0 1.414-.074 1.743-.305.414-.232.67-.695.67-1.317v-9.997c0-.695-.17-1.243-.586-1.475-.244-.16-.915-.305-1.83-.464zm-8.425 12.07L68.79 24.3l1.743-5.926.086-.695c0-.55-.34-.94-.914-1.086-.426-.16-.926-.244-1.512-.244v-2.085h8.425v2.085c-.83 0-1.585.244-2 .622-.5.4-.914 1.085-1.256 1.94l-3.366 9.595zm-.805 2.316l-.414 1.183h-3.67l-2.585-7.9L61 28.348l-1.67-6.023 2.768-8.047h2.292l4.803 16.546zm-9.034-.122l-.463 1.304h-3.5l-4.585-13.4c-.17-.695-.5-1.17-.756-1.55-.415-.463-.914-.707-1.415-.707l-.085-2.085h8.34v2.085c-.67 0-1.085.317-1.256.853l.17.707 3.548 12.8zM39.55 16.765v-2.5h1.853c3.414 0 5.914 1.16 7.67 3.33a8.65 8.65 0 0 1 1.829 5.426c0 2.634-.744 4.73-2.158 6.353-1.585 1.792-3.926 2.634-6.84 2.634H39.55v-2.45l.354.05c.914 0 1.743-.146 2.5-.463.914-.378 1.67-1 2.085-1.78.414-.622.67-1.317.83-2.097a10.7 10.7 0 0 0 .256-2.316c0-1.402-.256-2.72-.84-3.718a4.13 4.13 0 0 0-3.158-2.329c-.427-.073-1.012-.16-1.585-.16-.16 0-.305.012-.44.024zm-1.438 15.24h-7.377v-2.01c.414 0 .83-.074 1.16-.147.34-.086.67-.244.84-.4.16-.16.244-.4.33-.695.086-.244.086-.707.086-1.33v-8.67c0-.622-.086-1.012-.086-1.244-.086-.232-.33-.463-.586-.622-.16-.16-.5-.305-.83-.305l-.914-.16v-2.17h7.377v17.74zm-17.91-15.18v-2.548h8.816v6.267h-2.366c-.024-1.487-.17-2.853-1.487-3.39s-2.292-.414-3.706-.414a8.2 8.2 0 0 0-1.256.084zm0 6.816v-2.328c.22-.012.415-.025.585-.073.33 0 .586-.16.83-.317.5-.305.756-1.158.756-2.475h2.17v8.06h-2.17c0-.695-.17-1.244-.33-1.707-.256-.378-.585-.768-.84-.926l-.744-.232h-.256zm0 8.364l.013-2.573a4.39 4.39 0 0 0 .756.073l2.487.025c1.804.012 3.28-.402 3.316-1.707l.074-2.06h2.17v6.242h-8.815zm-1.414 0h-7.084V29.92c.33 0 .66-.073.83-.16.5-.073.756-.232.914-.463.17-.16.342-.463.342-.695.072-.317.072-.78.072-1.244v-9.143c0-.622-.16-1.085-.573-1.317-.34-.232-.926-.4-1.585-.463v-2.17l7.084.012v17.728zm2.926 11.45V37.2h1.378v6.255h-1.378zm2.682 0V37.2h1.44l2.83 4.084V37.2h1.34v6.255h-1.463l-2.768-4v4h-1.378zm8.67 0v-5.158h-2.073V37.2h5.475v1.097h-2.06v5.158h-1.34zm4.28 0V37.2h5.157v1.097H38.7v1.365h3.56v1.073H38.7v1.646h3.94v1.073h-5.304 0zm6.474 0V37.2h2.938c.768 0 1.293.05 1.634.183.33.098.61.317.817.597.183.293.292.6.292 1 0 .475-.147.84-.44 1.16-.292.304-.756.524-1.34.572a3.04 3.04 0 0 1 .707.525c.17.207.44.548.756 1.024l.84 1.195h-1.597l-1-1.415-.756-.83c-.126-.12-.275-.21-.44-.268a5.2 5.2 0 0 0-.756-.048h-.292v2.56H43.82h0zm1.365-3.66h1.085c.695 0 1.134-.037 1.305-.085.183-.05.33-.135.414-.232.086-.134.147-.268.147-.45 0-.208-.06-.365-.183-.463-.15-.14-.343-.227-.55-.244-.147-.024-.5-.024-1.085-.024h-1.134v1.5h.001zm5.682 3.66V37.2h1.44l2.828 4.084V37.2h1.34v6.255h-1.463l-2.767-4v4h-1.378zm13.12 0h-1.45l-.585-1.415h-2.682l-.586 1.415h-1.427l2.658-6.255h1.45l2.622 6.255zm-2.475-2.512l-.902-2.256-.902 2.256h1.804zm3.938 2.512v-5.158h-2.073V37.2h5.487v1.097H66.79v5.158h-1.34zm4.28 0V37.2h1.378v6.255h-1.378zm2.45-3.085c0-.634.12-1.182.33-1.597.146-.342.378-.634.634-.9.268-.244.56-.45.878-.55.44-.195.926-.268 1.488-.268 1.024 0 1.84.293 2.45.866.586.572.903 1.39.903 2.414s-.293 1.83-.903 2.402c-.6.585-1.426.83-2.426.83-1.012 0-1.83-.244-2.45-.83-.573-.574-.902-1.353-.902-2.378zm1.377-.025c0 .707.17 1.256.548 1.622s.84.55 1.427.55c.56 0 1.048-.183 1.402-.55.378-.365.55-.914.55-1.646 0-.744-.17-1.268-.524-1.634-.38-.365-.84-.523-1.427-.523-.6 0-1.072.183-1.427.523-.377.366-.548.927-.548 1.658zm6.438 3.1V37.2h1.426l2.828 4.084V37.2h1.34v6.255h-1.45l-2.78-4v4h-1.365zm13.12 0H91.65l-.573-1.415h-2.683l-.585 1.415h-1.427L89.03 37.2h1.463l2.62 6.255zm-2.474-2.512l-.903-2.256-.902 2.256h1.805zm3.462 2.512V37.2h1.378v5.182h3.548v1.073H94.1z" fill="#b3b7bc"/></svg>