<svg xmlns="http://www.w3.org/2000/svg" width="120" height="64" fill="#b3b7bc" xmlns:v="https://vecta.io/nano"><path fill-rule="evenodd" d="M92.367 28.116c0 7.46-6.323 13.507-14.123 13.507S64.12 35.576 64.12 28.116 70.444 14.61 78.244 14.61s14.123 6.047 14.123 13.507zm-20.87-.032c0 4.084 3.126 7.48 6.747 7.613 3.727 0 6.747-3.443 6.747-7.613s-3.02-7.547-6.747-7.547-6.747 3.38-6.747 7.547z"/><path d="M0 15.51h21.72v5.88H8.08v3.644h13.64v5.886H8.08v3.644h13.64v5.886H0c.443-2.204.354-3.644.354-4.904v-15.39c0-1.35.003-3.183-.354-4.65zm23.736 24.9c.8-1 11.108-14.42 11.108-14.42L23.78 15.49h10.512l4.906 4.738L46.125 11h8.536c-.534.5-10.842 13.817-10.842 13.817l4.266 4.23 9.664-12.862h8.6c-.837.713-13.6 17.407-13.6 17.407L72.968 52.82h-10.58l-13.9-13.558-7.758 10.28h-8.46c.8-.695 11.553-14.824 11.553-14.824l-4.266-4.185-7.545 9.876-8.273.001zM95.75 15.523h8.108l9.55 13.155-.017-9.465c-.045-1.17-.045-2.835-.222-3.7h6.828c-.074 1.08-.252 2.6-.208 3.7V40.45h-7.764l-9.55-13.243v9.104c-.015 1.9.207 3.465.34 4.14H95.84c.133-.54.267-2.835.267-4.14V19.708c-.1-1.53-.178-3.284-.356-4.185z"/></svg>