<svg xmlns="http://www.w3.org/2000/svg" width="120" height="64" fill="none" fill-rule="evenodd" xmlns:v="https://vecta.io/nano"><path d="M6.445 37.432s1.33-2.453 2.854-4.5c1.512-2.032 3.217-3.657 3.217-3.657s2.2-2.2 4.28 0 .1 4.377.1 4.377-1.888 1.602-4.124 2.975c-2.14 1.313-4.633 2.4-4.633 2.4s-.895.695-1.592 0-.1-1.593-.1-1.593z" fill="#00acec"/><path d="M5.55 35.244s1.82-3.6 3.74-5.617c2.147-2.25 4.42-2.943 4.42-2.943s2.183-.89 4.274.9 1.697 4.474 1.697 4.474-.506 2.43-2.76 4.514c-2.37 2.19-6.495 4.043-6.495 4.043s7.962 1.79 11.843-4.377-1.792-11.445-1.792-11.445-6.965-4.675-12.142 1.096-2.786 9.354-2.786 9.354z" fill="#2d4f9e"/><path d="M34.908 23.002h-5.075l-3.782 16.52H36.8l.796-4.677H32.52l2.388-11.843zm15.823.2c-7.464-1.493-10.648 5.77-10.648 5.77s-4.578 9.653 3.483 10.847 11.346-7.066 11.346-7.066 3.283-8.06-4.18-9.55zm-.697 8.457s-1.492 3.382-4.478 3.086-1.095-4.08-1.095-4.08 1.692-3.583 4.28-2.887 1.293 3.88 1.293 3.88zm7.764-8.457h5.97l1.094 9.353 4.578-9.452h5.274L65.062 39.72h-4.28L57.8 23.202zm25.873.1h-6.368l-8.86 16.32h5.672l1.096-2.29h4.58l.496 2.6h5.275L83.672 23.3zm-7.165 10.15l2.787-5.077.5 5.077h-3.286zm10.55-10.15h12.14l-1.193 4.278H94.72l-2.786 12.24h-5.176l2.888-12.537h-3.684l1.095-3.98zm22.457-.1c-7.465-1.493-10.65 5.77-10.65 5.77s-4.577 9.653 3.485 10.847 11.345-7.066 11.345-7.066 3.283-8.06-4.18-9.55zm-.698 8.457s-1.49 3.382-4.476 3.086-1.097-4.08-1.097-4.08 1.693-3.583 4.28-2.887 1.293 3.88 1.293 3.88z" fill="#00acec"/></svg>