<svg xmlns="http://www.w3.org/2000/svg" width="120" height="64" fill="none" xmlns:v="https://vecta.io/nano"><path d="M64.544 27.297h1.848v9.546h-2.35l-2.734-4.41-.886-1.572h-.038v5.98h-1.85v-9.546h2.195l3.235 5.214c.23.345.385.7.54 1.074l.04-6.288zm10.667 3.91h-3.235v-3.95h-2.35v9.547h2.35V32.74h3.235v4.064h2.35V27.26h-2.35v3.95zm-34.467 1.457h3.042v-1.42h-3.042v-2.492h4.082v-1.457h-6.43v9.546h6.508v-1.6h-4.16v-2.57zm-8.472-3.22c-.154-.192-.116-.46.04-.613.077-.077.193-.115.308-.115h3.505v-1.418h-4.16c-1.117-.038-2.04.805-2.118 1.917 0 .575.038.96.886 1.84l3.12 3.26a.54.54 0 0 1 .115.728c-.115.153-.27.23-.462.192h-3.85v1.6h4.4c1.27.038 2.31-.92 2.35-2.185v-.077c0-.613-.154-1.074-1-1.917l-3.12-3.22zm21.18 4.102c-.154-.383-.347-.73-.578-1.074L49.64 27.26h-2.195v9.547h1.85v-5.943h.04s.385.843.886 1.572l2.734 4.41h2.35v-9.546h-1.85v6.25zm52.028-.882h3.043v-1.42h-3.043v-2.492h4.083v-1.457h-6.47v9.546h6.508v-1.6h-4.16l.038-2.57zm14.52 4.18h-2.542l-1.848-3.91h-1.04v3.91h-2.35v-9.546h4.313c2.08 0 3.042 1.265 3.042 2.76 0 1.15-.73 2.185-1.848 2.57L120 36.844zm-2.465-6.748c0-.422-.27-1.342-1.502-1.342h-1.463v2.722h1.425c1.31 0 1.54-.958 1.54-1.38zm-20.564-.652c-.154-.192-.116-.46.038-.613.077-.077.192-.115.308-.115h3.505v-1.418h-4.16c-1.117-.038-2.04.805-2.118 1.917 0 .575.038.96.886 1.84l3.12 3.26a.54.54 0 0 1 .116.728c-.116.153-.27.23-.462.192h-3.85v1.6h4.4c1.27.038 2.31-.92 2.35-2.185v-.077c0-.613-.154-1.074-1-1.917l-3.12-3.22zm-13.825 3.22h3.042v-1.42h-3.042v-2.492h4.082v-1.457h-6.47v9.546h6.508v-1.6h-4.16l.04-2.57zm6.74 4.18h2.35v-9.546h-2.35v9.546zM0 24v16.103h21.566V24H0zm11.86 1.495c-1.27.498-2.503 1.572-3.505 3.757L7.28 31.63C5.276 36 4.275 36.92 1.232 36.92V25.227h10.6c.077 0 .154.077.154.153 0 .038-.04.077-.116.115zm8.472 1.687v11.693H9.743c-.077 0-.154-.077-.154-.153s.04-.115.077-.153c1.27-.498 2.503-1.572 3.504-3.757l1.078-2.377c2.04-4.332 3.042-5.252 6.085-5.252z" fill="#000"/></svg>