<svg xmlns="http://www.w3.org/2000/svg" width="40" height="40" fill="none" xmlns:v="https://vecta.io/nano"><g clip-path="url(#A)" fill="#7772f1"><path d="M39.996 17.564c-.523-4.444-2.56-8.642-5.738-11.82A20.13 20.13 0 0 0 22.438.005a.78.78 0 0 0-.872.776v6.804a.781.781 0 1 0 1.563 0V1.68c7.818 1.293 13.9 7.375 15.193 15.193H23.128v-3.9a.781.781 0 1 0-1.562 0v4.68a.78.78 0 0 0 .781.781H39.22a.78.78 0 0 0 .776-.873zm-17.65-8.11a.78.78 0 0 0-.781.781v.02a.781.781 0 1 0 1.563 0v-.02a.78.78 0 0 0-.781-.781zm-3.943 25.137c-3.153-.076-6.138-1.15-8.632-3.1a.781.781 0 1 0-.965 1.229c2.76 2.168 6.066 3.358 9.56 3.443.442 0 .8-.337.8-.762a.78.78 0 0 0-.762-.8zm3 .58a.78.78 0 0 0-.868-.683l-.017.002a.78.78 0 0 0-.683.868.78.78 0 0 0 .775.689.8.8 0 0 0 .093-.005l.017-.002a.78.78 0 0 0 .683-.868zm15.636-14.86l-.04.001H19.688V2.97a.78.78 0 0 0-.781-.781 18.78 18.78 0 0 0-13.37 5.536A18.78 18.78 0 0 0 0 21.094a18.78 18.78 0 0 0 5.537 13.369A18.78 18.78 0 0 0 18.906 40a18.78 18.78 0 0 0 13.369-5.537 18.78 18.78 0 0 0 5.537-13.369.78.78 0 0 0-.781-.781zM18.906 38.437c-9.563 0-17.344-7.78-17.344-17.344A17.37 17.37 0 0 1 18.125 3.767v17.327a.78.78 0 0 0 .323.632l14.025 10.158c-3.18 4-8.08 6.552-13.568 6.552zm14.486-7.817l-12.075-8.744h14.916a17.24 17.24 0 0 1-2.84 8.744z"/></g><defs><clipPath id="A"><path fill="#fff" d="M0 0h40v40H0z"/></clipPath></defs></svg>