<svg xmlns="http://www.w3.org/2000/svg" width="41" height="40" fill="none" xmlns:v="https://vecta.io/nano"><g clip-path="url(#A)" fill="#7772f1"><path d="M28.745 30.833a.78.78 0 0 0-1.115-.01c-.363.357-.3.85-.03 1.123a.79.79 0 0 0 .562.235c.2 0 .386-.07.554-.233a.78.78 0 0 0 .031-1.115zm7.075-15.04a.781.781 0 1 0-1.465.543c.674 1.82 1.016 3.738 1.016 5.697 0 9.045-7.36 16.404-16.404 16.404-3.356 0-6.583-1.006-9.33-2.9a.781.781 0 1 0-.89 1.284 17.86 17.86 0 0 0 10.221 3.189 17.85 17.85 0 0 0 12.704-5.262 17.84 17.84 0 0 0 5.262-12.704 17.91 17.91 0 0 0-1.114-6.24zM25.016 5.1c-1.938-.693-3.973-1.044-6.05-1.044A17.85 17.85 0 0 0 6.262 9.328C2.868 12.72 1 17.234 1 22.033a17.85 17.85 0 0 0 3.262 10.325.78.78 0 0 0 .64.332c.155 0 .312-.046.45-.142a.78.78 0 0 0 .19-1.088 16.3 16.3 0 0 1-2.977-9.427c0-9.045 7.36-16.404 16.404-16.404a16.36 16.36 0 0 1 5.524.953.781.781 0 1 0 .526-1.471zm15.916 1.368a.78.78 0 0 0-.722-.482h-4.104l.44-.44a.781.781 0 1 0-1.105-1.105l-.447.447V.78a.78.78 0 0 0-1.333-.552l-6.886 6.886a.78.78 0 0 0-.229.552v2.7a13.75 13.75 0 0 0-7.584-2.248c-7.667 0-13.904 6.238-13.904 13.904s6.238 13.904 13.904 13.904c2.545 0 5.034-.694 7.2-2.007a.781.781 0 1 0-.81-1.336 12.32 12.32 0 0 1-6.389 1.78A12.36 12.36 0 0 1 6.621 22.034 12.36 12.36 0 0 1 18.963 9.692c2.78 0 5.4.9 7.584 2.605v1.05l-1.424 1.424c-1.662-1.412-3.813-2.265-6.16-2.265-5.255 0-9.53 4.275-9.53 9.53s4.275 9.53 9.53 9.53 9.53-4.275 9.53-9.53c0-2.347-.853-4.498-2.265-6.16l1.43-1.43h1.04a12.37 12.37 0 0 1 2.609 7.589 12.31 12.31 0 0 1-1.846 6.496.78.78 0 0 0 .252 1.076.77.77 0 0 0 .41.117.78.78 0 0 0 .665-.37 13.87 13.87 0 0 0 2.08-7.319 13.95 13.95 0 0 0-2.254-7.59h2.7a.78.78 0 0 0 .552-.229l6.886-6.886a.78.78 0 0 0 .17-.851zm-14 15.556a7.98 7.98 0 0 1-7.968 7.968 7.98 7.98 0 0 1-7.968-7.968 7.98 7.98 0 0 1 7.968-7.968 7.93 7.93 0 0 1 5.052 1.811l-1.78 1.78a5.44 5.44 0 0 0-3.273-1.09c-3.015 0-5.468 2.453-5.468 5.468s2.453 5.468 5.468 5.468 5.468-2.453 5.468-5.468a5.44 5.44 0 0 0-1.09-3.273l1.78-1.78a7.93 7.93 0 0 1 1.811 5.052zm-8.52.552a.78.78 0 0 0 1.105 0l2.705-2.705a3.88 3.88 0 0 1 .649 2.152 3.91 3.91 0 0 1-3.906 3.906 3.91 3.91 0 0 1-3.906-3.906 3.91 3.91 0 0 1 3.906-3.906c.795 0 1.535.24 2.152.65L18.4 21.48a.78.78 0 0 0 0 1.105zM28.1 11.783V8l5.324-5.324V6.46L28.1 11.784zm4.9 1.1h-3.78l5.324-5.324h3.78L33 12.882zM7.35 33.616a.79.79 0 0 0-.552-.23c-.205 0-.408.084-.552.23s-.23.347-.23.552a.78.78 0 0 0 .23.552.79.79 0 0 0 .552.23c.206 0 .407-.084.552-.23a.79.79 0 0 0 .23-.552.79.79 0 0 0-.229-.552z"/></g><defs><clipPath id="A"><path fill="#fff" transform="translate(.996)" d="M0 0h40v40H0z"/></clipPath></defs></svg>