<svg xmlns="http://www.w3.org/2000/svg" xmlns:xlink="http://www.w3.org/1999/xlink" width="41" height="40" fill="none" xmlns:v="https://vecta.io/nano"><g fill="#7772f1"><use xlink:href="#B"/><use xlink:href="#C"/><use xlink:href="#C" x="-7.965" y="-12.266"/><use xlink:href="#D"/><use xlink:href="#B" y="8.438"/><use xlink:href="#C" y="8.436"/><use xlink:href="#D" y="8.438"/><use xlink:href="#B" y="16.875"/><use xlink:href="#C" y="16.876"/><use xlink:href="#D" y="16.875"/><path d="M33.75 3.047h-5.967a4.79 4.79 0 0 0-3.31-1.328h-.684C23.263.683 22.188 0 20.996 0s-2.267.683-2.8 1.72h-.686c-1.283 0-2.45.506-3.3 1.328H8.243c-2.1 0-3.8 1.7-3.8 3.8V36.2c0 2.1 1.7 3.8 3.8 3.8H33.75c2.1 0 3.8-1.7 3.8-3.8V6.856c0-2.1-1.7-3.8-3.8-3.8zm-16.23.234h1.218a.78.78 0 0 0 .753-.573c.186-.674.806-1.145 1.506-1.145s1.32.47 1.506 1.145a.78.78 0 0 0 .753.573h1.216a3.25 3.25 0 0 1 3.231 2.969H14.3a3.25 3.25 0 0 1 3.231-2.969zm18.477 32.9a2.25 2.25 0 0 1-2.247 2.247H8.243a2.25 2.25 0 0 1-2.247-2.247V6.856a2.25 2.25 0 0 1 2.247-2.247h4.87c-.256.587-.4 1.234-.4 1.914v.508a.78.78 0 0 0 .781.781h14.998a.78.78 0 0 0 .781-.781v-.508a4.76 4.76 0 0 0-.4-1.914h4.872a2.25 2.25 0 0 1 2.247 2.247V36.2zm-19.97-24.495a.78.78 0 0 0-1.105 0l-3.34 3.34-1.03-1.03a.781.781 0 1 0-1.105 1.105l1.582 1.582a.78.78 0 0 0 1.105 0l3.893-3.893a.78.78 0 0 0 0-1.105zM14.12 28.75h-3.75a.78.78 0 0 0-.781.781v3.75a.78.78 0 0 0 .781.781h3.75a.78.78 0 0 0 .781-.781v-3.75a.78.78 0 0 0-.781-.781zm-.78 3.75h-2.187v-2.187h2.188V32.5zm.78-12.187h-3.75a.78.78 0 0 0-.781.781v3.75a.78.78 0 0 0 .781.781h3.75a.78.78 0 0 0 .781-.781v-3.75a.78.78 0 0 0-.781-.781zm-.78 3.75h-2.187v-2.187h2.188v2.188z"/></g><defs ><path id="B" d="M32.246 11.875h-11.25a.78.78 0 1 0 0 1.563h11.25a.78.78 0 1 0 0-1.562z"/><path id="C" d="M29.513 15.854c-.145-.145-.347-.23-.552-.23s-.407.084-.552.23-.23.347-.23.552.084.407.23.552.347.23.552.23.407-.084.552-.23.23-.347.23-.552-.084-.407-.23-.552z"/><path id="D" d="M25.674 15.625h-4.678a.78.78 0 1 0 0 1.563h4.678a.78.78 0 1 0 0-1.562z"/></defs></svg>