<svg xmlns="http://www.w3.org/2000/svg" width="41" height="40" fill="none" xmlns:v="https://vecta.io/nano"><g clip-path="url(#A)" fill="#7772f1"><path d="M14.862 25.845c-.145-.145-.347-.228-.552-.228s-.407.083-.552.228a.79.79 0 0 0-.229.552c0 .206.084.407.23.552a.79.79 0 0 0 .552.23.78.78 0 0 0 .552-.23.79.79 0 0 0 .23-.552.79.79 0 0 0-.229-.552zm26.134.71a3.32 3.32 0 0 0-2.588-3.233c.35-.525.555-1.156.555-1.833a3.32 3.32 0 0 0-3.314-3.314h-8.694l1.137-3.376a5.23 5.23 0 0 0-.309-4.095 5.23 5.23 0 0 0-3.153-2.631l-1.37-.417a.78.78 0 0 0-.962.482L20.144 14.1a7.34 7.34 0 0 1-3.395 3.952l-2.152 1.172c-.463-.63-1.208-1.04-2.047-1.04H1.777a.78.78 0 0 0-.781.781v20.262a.78.78 0 0 0 .781.781H12.55a2.54 2.54 0 0 0 2.193-1.262l1.103.433a11.96 11.96 0 0 0 4.385.829h13.65a3.32 3.32 0 0 0 3.314-3.314 3.3 3.3 0 0 0-.563-1.846 3.32 3.32 0 0 0 2.532-3.22c0-.696-.216-1.342-.584-1.876a3.32 3.32 0 0 0 2.415-3.189zm-3.314 1.75h-8.035a.781.781 0 1 0 0 1.563h6.205c.966 0 1.752.786 1.752 1.752s-.786 1.752-1.75 1.752H29.65a.782.782 0 1 0 0 1.563h4.236c.966 0 1.752.786 1.752 1.752s-.786 1.752-1.75 1.752h-13.65c-1.3 0-2.594-.243-3.815-.72l-1.327-.52V29.53a.781.781 0 1 0-1.562 0v7.928a.98.98 0 0 1-.978.978H2.56v-18.7h9.992a.98.98 0 0 1 .978.978v2.653a.782.782 0 1 0 1.563 0v-2.643l2.406-1.3a8.9 8.9 0 0 0 4.117-4.793l1.902-5.255.66.2a3.68 3.68 0 0 1 2.219 1.851 3.68 3.68 0 0 1 .217 2.881l-1.484 4.407a.78.78 0 0 0 .74 1.031h9.78c.966 0 1.752.786 1.752 1.752s-.786 1.752-1.75 1.752H29.65a.781.781 0 1 0 0 1.563h8.035c.966 0 1.752.786 1.752 1.752s-.786 1.752-1.75 1.752zm-28.157 4.16a2.19 2.19 0 0 0-2.188 2.188 2.19 2.19 0 0 0 2.188 2.188 2.19 2.19 0 0 0 2.188-2.188 2.19 2.19 0 0 0-2.188-2.188zm0 2.814c-.345 0-.626-.28-.626-.626s.28-.626.626-.626.626.28.626.626-.28.626-.626.626zM24.892.23C24.747.084 24.545 0 24.34 0s-.407.084-.552.23a.79.79 0 0 0-.23.552c0 .205.084.407.23.552a.79.79 0 0 0 .552.23c.205 0 .407-.084.552-.23a.79.79 0 0 0 .23-.552.78.78 0 0 0-.23-.552zm-.552 2.688a.78.78 0 0 0-.781.781v1.9a.781.781 0 1 0 1.563 0V3.7a.78.78 0 0 0-.781-.781zm10.255 7.336h-4.818a.782.782 0 1 0 0 1.563h4.818a.781.781 0 1 0 0-1.562zm-15.7 0h-4.818a.782.782 0 1 0 0 1.563h4.818a.781.781 0 1 0 0-1.562zm1.57-4.188L18.2 3.8a.781.781 0 1 0-1.105 1.105L19.37 7.17a.78.78 0 1 0 1.105-1.105zM31.585 3.8a.78.78 0 0 0-1.105 0l-2.275 2.275a.78.78 0 1 0 1.104 1.105l2.275-2.275a.78.78 0 0 0 0-1.105z"/></g><defs><clipPath id="A"><path fill="#fff" transform="translate(.996)" d="M0 0h40v40H0z"/></clipPath></defs></svg>